<?xml version="1.0" encoding="utf-8"?>
<!-- Generator: Adobe Illustrator 26.0.1, SVG Export Plug-In . SVG Version: 6.00 Build 0)  -->
<svg version="1.1" id="Layer_1" xmlns="http://www.w3.org/2000/svg" xmlns:xlink="http://www.w3.org/1999/xlink" x="0px" y="0px"
	 viewBox="0 0 350 350" style="enable-background:new 0 0 350 350;" xml:space="preserve">
<style type="text/css">
	.st0{fill:#5B4488;}
	.st1{fill:#C296C1;}
</style>
<g>
	<g>
		<path class="st0" d="M80.88,243.85c0.92-0.04,1.87-0.09,2.85-0.09c13.65,0,27.31,0.13,40.96-0.04c16.37-0.2,32.74-0.13,49.08-0.16
			c7.5-0.02,14.57-1.66,20.8-5.97c9.5-6.56,14.84-15.61,15.54-27.2c0.25-4.31,0.23-8.62-0.68-12.89
			c-2.9-13.41-13.63-24.03-27.15-26.79c-0.79-0.16-1.57-0.38-2.36-0.43c-1.77-0.14-1.91-0.34-1.71-2.33
			c1.08-11.45-0.9-22.41-5.55-32.86c-5.14-11.57-13.05-20.87-23.42-28.08c-0.67-0.45-1.35-0.87-1.98-1.35c-0.4-0.29-0.34-0.7,0-1.01
			c0.52-0.47,1.08-0.9,1.64-1.32c10.85-8.2,22.93-13.48,36.36-15.74c36.57-6.15,72.16,12.74,88,45.5c1.64,3.37,0.61,2.9,4.67,2.87
			c6.65-0.05,13.21,0.49,19.68,2.2c23.65,6.31,41.53,25.42,46.2,49.43c6.38,32.88-13.47,64.06-44.33,73.28
			c-5.89,1.77-11.93,2.67-18.1,2.67c-39.86,0-79.71,0.04-119.57-0.02c-15.95-0.02-31.92-0.14-47.88-0.45
			c-13.57-0.25-24.24-6.24-32.21-17.14C81.29,245.37,80.72,244.86,80.88,243.85z"/>
		<path class="st1" d="M5.08,190.89c-0.34-6.76,1.3-13.05,4.13-19c2.61-5.48,6.26-10.2,10.92-14.19c4.02-3.44,8.42-6.11,13.36-7.97
			c3.59-1.35,7.28-2.09,11.1-2.49c2.9-0.31,5.8-0.36,8.71-0.4c1.78-0.04,1.91-0.09,2.51-1.95c1.28-4.04,3.05-7.86,5.12-11.54
			c3.42-6.09,7.88-11.34,13.27-15.81c5.88-4.87,12.42-8.47,19.7-10.67c4.02-1.23,8.09-2.27,12.35-2.38c1.8-0.04,3.55-0.54,5.39-0.45
			c8.49,0.4,16.66,2.04,24.41,5.66c7.79,3.64,14.37,8.83,19.86,15.32c6.4,7.55,10.62,16.24,12.51,26.01
			c0.94,4.85,1.42,9.73,1.06,14.66c-0.25,3.48-0.92,6.94-1.39,10.4c-0.07,0.49-0.2,0.97-0.25,1.48c-0.05,0.7,0.31,1.12,1.06,1.15
			c1.6,0.05,3.21,0.07,4.81,0.04c2.83-0.05,5.57,0.45,8.31,1.06c8.81,2,17.76,11.01,18.98,21.49c0.54,4.65,0.4,9.16-0.61,13.72
			c-1.89,8.58-10.33,17.5-20.73,19.09c-2.09,0.32-4.16,0.52-6.27,0.52c-28.21,0.02-56.42,0.05-84.63,0.09
			c-13.45,0.02-26.91,0.05-40.36-0.02c-11.79-0.05-21.85-4.38-30.32-12.56C11.91,216.2,8.04,208.95,6,200.7
			C5.21,197.44,4.86,194.14,5.08,190.89z"/>
	</g>
</g>
</svg>
