<?xml version="1.0" encoding="utf-8"?>
<!-- Generator: Adobe Illustrator 26.0.1, SVG Export Plug-In . SVG Version: 6.00 Build 0)  -->
<svg version="1.1" id="Layer_1" xmlns="http://www.w3.org/2000/svg" xmlns:xlink="http://www.w3.org/1999/xlink" x="0px" y="0px"
	 viewBox="0 0 350 350" style="enable-background:new 0 0 350 350;" xml:space="preserve">
<style type="text/css">
	.st0{fill:#050507;}
	.st1{fill:#5C4488;}
	.st2{fill:#5B4488;}
	.st3{fill:#C296C1;}
</style>
<g>
	<g>
		<path class="st0" d="M200.47,263.8c-3.04-0.41-5.89-1.32-8.33-3.26c-0.74-0.59-1.36-1.29-1.76-2.15
			c-0.73-1.55-0.71-3.08,0.35-4.48c1.09-1.45,3.01-1.88,4.74-1.12c0.6,0.26,1.13,0.64,1.63,1.07c0.64,0.56,1.28,1.12,1.92,1.67
			c1.76,1.49,3.83,1.84,6.05,1.57c0.48-0.06,0.95-0.16,1.41-0.28c1.81-0.47,3.1-1.55,3.88-3.26c0.55-1.2,0.81-2.47,0.93-3.77
			c0.14-1.44,0.14-2.88,0.12-4.3c-0.17-0.11-0.23,0-0.3,0.08c-1.88,2.25-4.29,3.59-7.18,3.94c-4.01,0.48-7.78-0.28-11.07-2.75
			c-2.48-1.86-3.96-4.4-4.67-7.38c-1.19-5.02-0.88-9.96,1.23-14.69c1.98-4.45,5.45-7.13,10.27-7.94c2.65-0.44,5.24-0.21,7.7,0.97
			c1.7,0.81,3.06,2.02,4.06,3.62c0.09,0.14,0.18,0.29,0.27,0.43c0.01,0.01,0.05-0.01,0.13-0.02c0.03-0.48,0.07-0.97,0.11-1.46
			c0.21-2.68,1.95-3.81,4.51-3.72c0.42,0.01,0.85,0.09,1.25,0.2c1.59,0.43,2.49,1.69,2.62,3.56c0.01,0.2,0.01,0.4,0.01,0.59
			c0,9.15,0.01,18.3-0.01,27.44c-0.01,2.65-0.49,5.23-1.63,7.65c-1.89,3.99-5.12,6.29-9.3,7.39c-0.93,0.24-1.88,0.36-2.83,0.54
			c-0.35-0.04-0.69,0.02-1.02,0.16c-1.08,0-2.15,0-3.23,0C201.73,263.94,201.1,263.87,200.47,263.8z M211.4,232.54
			c0.01-0.9-0.15-2.58-0.7-4.21c-0.85-2.53-2.48-4.16-5.22-4.42c-3.63-0.34-6.62,1.03-7.83,4.63c-0.93,2.76-1.1,5.61-0.38,8.45
			c0.86,3.37,3.23,6.09,7.65,5.72c2.68-0.22,4.52-1.61,5.58-4.05C211.25,236.96,211.42,235.17,211.4,232.54z"/>
		<path class="st0" d="M28.62,238.03c2.3-7.54,4.59-15.03,6.87-22.51c0.68-2.24,1.36-4.49,2.05-6.73c0.25-0.81,0.56-1.6,0.99-2.33
			c0.9-1.52,2.26-2.28,3.99-2.34c1.56-0.06,3.12-0.02,4.67-0.01c0.8,0.01,1.57,0.21,2.29,0.55c1.67,0.78,2.33,2.21,2.48,3.96
			c0.01,0.17,0.01,0.34,0.01,0.51c0,12.41,0,24.81,0,37.22c0,0.89-0.14,1.75-0.51,2.56c-0.7,1.53-1.91,2.34-3.58,2.45
			c-0.65,0.04-1.29,0.05-1.94-0.12c-1.51-0.38-2.46-1.34-2.96-2.77c-0.26-0.75-0.35-1.54-0.35-2.34c0.01-8.95,0-17.9,0-26.85
			c0-0.3,0-0.59,0-0.89c-0.05-0.01-0.09-0.01-0.14-0.02c-0.52,1.63-1.05,3.25-1.57,4.88c-2.63,8.23-5.26,16.46-7.89,24.68
			c-0.13,0.4-0.28,0.8-0.46,1.18c-0.53,1.07-1.38,1.76-2.54,2.08c-0.92,0.25-1.86,0.25-2.78,0.1c-1.73-0.29-2.8-1.37-3.32-3.02
			c-0.68-2.12-1.36-4.25-2.04-6.37c-2.45-7.66-4.9-15.33-7.35-22.99c-0.06-0.18-0.13-0.36-0.3-0.55c-0.01,0.28-0.04,0.56-0.04,0.83
			c0,9.01,0,18.02,0,27.02c0,0.92-0.12,1.81-0.5,2.65c-0.7,1.57-1.93,2.39-3.64,2.49c-0.57,0.04-1.14,0.06-1.69-0.06
			c-1.57-0.34-2.62-1.28-3.15-2.79c-0.23-0.67-0.36-1.37-0.36-2.08c0-12.46,0-24.93,0-37.39c0-0.86,0.16-1.69,0.53-2.47
			c0.58-1.2,1.59-1.89,2.84-2.23c0.54-0.15,1.1-0.25,1.67-0.25c1.39,0.01,2.78,0,4.16,0.01c2.24,0.01,3.82,1.02,4.74,3.08
			c0.65,1.45,1.03,2.99,1.5,4.49c2.67,8.58,5.32,17.15,7.98,25.73C28.4,237.6,28.45,237.79,28.62,238.03z"/>
		<path class="st1" d="M274.14,227.68c0-5.55,0-11.1,0-16.66c0-0.86,0.09-1.7,0.33-2.52c0.47-1.65,1.53-2.74,3.19-3.22
			c0.74-0.21,1.49-0.32,2.26-0.32c8.33,0,16.66,0,25,0c0.94,0,1.86,0.13,2.74,0.48c1.07,0.43,1.76,1.2,2.04,2.33
			c0.22,0.87,0.21,1.74,0.04,2.61c-0.26,1.27-1.04,2.11-2.25,2.54c-0.7,0.25-1.42,0.38-2.17,0.38c-2.04,0.01-4.08,0.02-6.12,0.02
			c-4.51,0-9.01,0-13.52,0c-0.17,0-0.34,0-0.51,0c-0.64,0.02-0.65,0.02-0.65,0.67c-0.01,2.78,0,5.55,0,8.33
			c0,0.84-0.1,0.84,0.82,0.84c5.55,0,11.11,0,16.66,0c0.57,0,1.13,0.04,1.69,0.12c2.83,0.42,3.33,2.18,3.32,4.04
			c0,0.25-0.04,0.51-0.07,0.76c-0.19,1.32-0.89,2.24-2.16,2.7c-0.81,0.29-1.65,0.36-2.51,0.36c-5.58-0.01-11.17-0.01-16.75,0
			c-1.13,0-1.01-0.13-1.02,0.98c0,3.09,0,6.18,0,9.26c0,0.77,0.01,0.78,0.79,0.78c6.4,0,12.81,0,19.21,0c0.88,0,1.75,0,2.62,0.17
			c2.07,0.41,3.15,1.66,3.21,3.76c0.01,0.34,0.01,0.68-0.03,1.02c-0.17,1.49-0.94,2.52-2.37,3.02c-0.75,0.26-1.54,0.38-2.34,0.38
			c-8.62,0-17.23,0-25.85,0c-0.74,0-1.46-0.12-2.18-0.33c-1.63-0.48-2.66-1.56-3.13-3.17c-0.24-0.82-0.33-1.66-0.33-2.52
			C274.14,238.9,274.14,233.29,274.14,227.68z"/>
		<path class="st0" d="M85.34,246.3c-0.23,0-0.31,0.21-0.44,0.34c-2.58,2.6-5.67,4.16-9.32,4.58c-2.47,0.29-4.91,0.31-7.25-0.71
			c-3.21-1.38-5.46-3.67-5.89-7.2c-0.59-4.77,1.01-8.59,6.2-10.6c1.99-0.77,4.07-1.15,6.18-1.4c2.36-0.28,4.72-0.56,7.08-0.85
			c0.22-0.03,0.44-0.1,0.66-0.15c1.17-0.29,1.99-0.96,2.22-2.18c0.24-1.27,0.01-2.42-1.03-3.31c-0.71-0.61-1.55-0.95-2.44-1.12
			c-3.36-0.62-6.41-0.05-8.92,2.47c-0.54,0.54-1.08,1.09-1.69,1.55c-1.12,0.86-2.36,1.03-3.69,0.62c-1.94-0.59-2.95-2.43-2.46-4.41
			c0.33-1.34,1.11-2.4,2.1-3.33c1.73-1.63,3.82-2.6,6.08-3.22c2.75-0.75,5.56-0.94,8.41-0.77c2.32,0.14,4.61,0.45,6.81,1.25
			c1.75,0.64,3.33,1.56,4.52,3.03c1.16,1.44,1.7,3.12,1.71,4.96c0.01,5.01,0.02,10.03,0,15.04c-0.01,1.94,0.18,3.84,0.76,5.69
			c0.82,2.62-1.02,4.41-3.24,4.73c-0.95,0.14-1.92,0.09-2.86-0.21c-2.01-0.65-2.97-2.13-3.3-4.12c-0.04-0.22-0.06-0.45-0.09-0.67
			C85.42,246.32,85.38,246.31,85.34,246.3z M84.79,235.16c-0.92,0.55-1.85,0.92-2.86,1.08c-1.7,0.28-3.4,0.54-5.09,0.84
			c-1.31,0.23-2.57,0.58-3.71,1.33c-1.77,1.17-2.22,4.36,0.03,5.85c0.4,0.27,0.82,0.52,1.28,0.64c3.15,0.82,6,0.25,8.44-1.93
			c1.06-0.95,1.76-2.18,1.88-3.61C84.89,238,84.79,236.62,84.79,235.16z"/>
		<path class="st0" d="M169.11,246.3c-0.32,0-0.4,0.21-0.53,0.34c-2.58,2.6-5.67,4.16-9.32,4.58c-2.47,0.29-4.91,0.31-7.25-0.7
			c-3.21-1.38-5.46-3.67-5.89-7.2c-0.59-4.77,1.01-8.59,6.2-10.6c1.99-0.77,4.07-1.15,6.18-1.4c2.36-0.28,4.72-0.56,7.08-0.85
			c0.22-0.03,0.44-0.1,0.66-0.15c1.17-0.29,1.99-0.96,2.22-2.18c0.24-1.27,0.01-2.42-1.03-3.31c-0.71-0.61-1.55-0.95-2.44-1.12
			c-3.36-0.62-6.41-0.05-8.92,2.47c-0.54,0.54-1.08,1.09-1.69,1.55c-1.12,0.86-2.36,1.03-3.69,0.63c-1.94-0.59-2.95-2.43-2.46-4.41
			c0.33-1.34,1.11-2.4,2.1-3.33c1.73-1.63,3.82-2.6,6.08-3.22c2.75-0.75,5.56-0.94,8.41-0.77c2.32,0.14,4.61,0.45,6.81,1.25
			c1.75,0.64,3.33,1.56,4.52,3.03c1.17,1.44,1.7,3.12,1.71,4.95c0.01,5.01,0.02,10.03,0,15.04c-0.01,1.94,0.18,3.84,0.76,5.69
			c0.82,2.62-1.02,4.41-3.24,4.73c-0.95,0.14-1.92,0.09-2.86-0.21c-2.01-0.65-2.97-2.13-3.3-4.12
			C169.15,246.77,169.14,246.53,169.11,246.3z M168.52,235.12c-0.98,0.61-1.93,0.93-2.92,1.13c-1.69,0.35-3.4,0.52-5.1,0.83
			c-1.28,0.24-2.54,0.54-3.63,1.3c-1.21,0.84-1.67,2.04-1.51,3.46c0.18,1.64,1.26,2.61,2.72,3.03c3.19,0.91,6.11,0.3,8.57-1.98
			c1.25-1.16,1.88-2.66,1.88-4.4C168.51,237.42,168.52,236.35,168.52,235.12z"/>
		<path class="st0" d="M238.74,235.72c-0.06,4.38,2.74,8.16,7.84,8.36c1.16,0.05,2.32,0,3.46-0.27c1.59-0.38,2.9-1.22,4.09-2.31
			c0.56-0.52,1.12-1.04,1.79-1.43c2.19-1.27,4.98-0.19,5.69,2.22c0.32,1.08,0.12,2.13-0.36,3.13c-0.56,1.16-1.44,2.02-2.48,2.74
			c-2,1.4-4.27,2.15-6.62,2.69c-2.28,0.53-4.6,0.64-6.92,0.48c-2.64-0.18-5.19-0.78-7.55-2.03c-3.86-2.05-6.35-5.23-7.53-9.4
			c-1.32-4.68-1.02-9.32,0.88-13.78c2.12-4.97,5.98-7.92,11.2-9.07c3.83-0.84,7.66-0.74,11.36,0.66c5.12,1.94,8.42,5.55,9.72,10.91
			c0.36,1.47,0.39,2.97,0.24,4.47c-0.15,1.46-0.84,2.17-2.25,2.47c-0.53,0.12-1.06,0.14-1.6,0.14c-6.69,0-13.37,0-20.06,0
			C239.36,235.72,239.08,235.72,238.74,235.72z M254.78,230.29c-0.01-0.15-0.01-0.26-0.02-0.36c-0.57-3.73-3.69-7.5-9.08-6.74
			c-4.5,0.63-6.39,4.3-6.87,7.1C244.12,230.29,249.43,230.29,254.78,230.29z"/>
		<path class="st0" d="M113.75,222.39c1.08-1.36,2.12-2.47,3.37-3.38c2.66-1.94,5.66-2.61,8.89-2.4c1.19,0.07,2.36,0.26,3.49,0.65
			c3.86,1.33,6.05,4.09,6.85,8.04c0.24,1.2,0.33,2.41,0.33,3.63c-0.01,5.89-0.01,11.78,0,17.68c0,0.48-0.03,0.96-0.12,1.44
			c-0.31,1.7-1.25,2.8-2.97,3.19c-0.98,0.23-1.98,0.24-2.95,0.05c-2.06-0.4-3.17-1.77-3.28-3.95c-0.01-0.25-0.01-0.51-0.01-0.76
			c0-5.16,0-10.31,0-15.47c0-0.74-0.02-1.47-0.15-2.2c-0.54-3.15-2.79-4.87-6.13-4.64c-2.89,0.19-6.41,2.65-6.47,6.98
			c-0.06,5.13-0.02,10.25-0.03,15.38c0,0.48-0.01,0.96-0.11,1.44c-0.39,1.88-1.44,2.98-3.32,3.25c-0.97,0.14-1.97,0.15-2.95-0.11
			c-1.49-0.39-2.39-1.34-2.76-2.8c-0.13-0.52-0.19-1.05-0.19-1.6c0.01-8.56,0.01-17.11,0-25.67c0-0.57,0.07-1.14,0.22-1.68
			c0.59-2.18,2.19-3.01,4.4-2.87c2.24,0.14,3.39,1.31,3.76,3.54C113.73,220.82,113.68,221.52,113.75,222.39z"/>
		<path class="st1" d="M330.84,240.02c-0.24,0.18-0.34,0.45-0.49,0.68c-1.79,2.85-3.63,5.68-5.36,8.57
			c-1.54,2.55-5.28,2.92-7.33,0.48c-1.07-1.28-1.34-2.71-0.56-4.26c0.29-0.58,0.65-1.13,1.02-1.67c2.15-3.16,4.3-6.32,6.43-9.49
			c0.53-0.78,0.57-0.51-0.01-1.38c-2.08-3.14-4.08-6.34-6.28-9.39c-2-2.77,0.07-6.44,3.16-6.88c2.06-0.3,3.59,0.43,4.65,2.2
			c1.56,2.6,3.14,5.18,4.71,7.77c0.14,0.24,0.3,0.47,0.5,0.77c0.21-0.31,0.38-0.56,0.53-0.81c1.48-2.41,2.96-4.83,4.43-7.24
			c0.33-0.53,0.68-1.05,1.11-1.5c1.16-1.2,2.6-1.51,4.14-1.12c1.56,0.39,2.66,1.4,3.08,2.98c0.36,1.38,0.04,2.7-0.75,3.88
			c-1.16,1.74-2.34,3.48-3.51,5.21c-0.9,1.34-1.81,2.67-2.71,4.01c-0.55,0.81-0.55,0.82-0.02,1.6c2.21,3.29,4.42,6.58,6.64,9.86
			c0.54,0.8,0.81,1.65,0.85,2.62c0.1,2.31-1.64,4.22-4.11,4.45c-1.5,0.14-2.72-0.36-3.7-1.49c-0.45-0.52-0.83-1.07-1.2-1.65
			c-1.56-2.49-3.12-4.99-4.69-7.48C331.23,240.5,331.12,240.19,330.84,240.02z"/>
	</g>
	<g>
		<path class="st2" d="M122.79,173.21c0.51-0.02,1.04-0.05,1.58-0.05c7.57,0,15.15,0.07,22.72-0.02c9.08-0.11,18.16-0.07,27.23-0.09
			c4.16-0.01,8.08-0.92,11.54-3.31c5.27-3.64,8.23-8.66,8.62-15.09c0.14-2.39,0.13-4.78-0.38-7.15
			c-1.61-7.44-7.56-13.33-15.06-14.86c-0.44-0.09-0.87-0.21-1.31-0.24c-0.98-0.08-1.06-0.19-0.95-1.29
			c0.6-6.35-0.5-12.43-3.08-18.23c-2.85-6.42-7.24-11.58-12.99-15.58c-0.37-0.25-0.75-0.48-1.1-0.75c-0.22-0.16-0.19-0.39,0-0.56
			c0.29-0.26,0.6-0.5,0.91-0.73c6.02-4.55,12.72-7.48,20.17-8.73c20.29-3.41,40.03,7.07,48.82,25.24c0.91,1.87,0.34,1.61,2.59,1.59
			c3.69-0.03,7.33,0.27,10.92,1.22c13.12,3.5,23.04,14.1,25.63,27.42c3.54,18.24-7.47,35.54-24.59,40.65
			c-3.27,0.98-6.62,1.48-10.04,1.48c-22.11,0-44.22,0.02-66.33-0.01c-8.85-0.01-17.71-0.08-26.56-0.25
			c-7.53-0.14-13.45-3.46-17.87-9.51C123.02,174.05,122.7,173.77,122.79,173.21z"/>
		<path class="st3" d="M80.74,143.83c-0.19-3.75,0.72-7.24,2.29-10.54c1.45-3.04,3.47-5.66,6.06-7.87c2.23-1.91,4.67-3.39,7.41-4.42
			c1.99-0.75,4.04-1.16,6.16-1.38c1.61-0.17,3.22-0.2,4.83-0.22c0.99-0.02,1.06-0.05,1.39-1.08c0.71-2.24,1.69-4.36,2.84-6.4
			c1.9-3.38,4.37-6.29,7.36-8.77c3.26-2.7,6.89-4.7,10.93-5.92c2.23-0.68,4.49-1.26,6.85-1.32c1-0.02,1.97-0.3,2.99-0.25
			c4.71,0.22,9.24,1.13,13.54,3.14c4.32,2.02,7.97,4.9,11.02,8.5c3.55,4.19,5.89,9.01,6.94,14.43c0.52,2.69,0.79,5.4,0.59,8.13
			c-0.14,1.93-0.51,3.85-0.77,5.77c-0.04,0.27-0.11,0.54-0.14,0.82c-0.03,0.39,0.17,0.62,0.59,0.64c0.89,0.03,1.78,0.04,2.67,0.02
			c1.57-0.03,3.09,0.25,4.61,0.59c4.89,1.11,9.85,6.11,10.53,11.92c0.3,2.58,0.22,5.08-0.34,7.61c-1.05,4.76-5.73,9.71-11.5,10.59
			c-1.16,0.18-2.31,0.29-3.48,0.29c-15.65,0.01-31.3,0.03-46.95,0.05c-7.46,0.01-14.93,0.03-22.39-0.01
			c-6.54-0.03-12.12-2.43-16.82-6.97c-3.42-3.31-5.57-7.33-6.7-11.91C80.81,147.46,80.62,145.63,80.74,143.83z"/>
	</g>
</g>
</svg>
