<?xml version="1.0" encoding="utf-8"?>
<!-- Generator: Adobe Illustrator 26.0.1, SVG Export Plug-In . SVG Version: 6.00 Build 0)  -->
<svg version="1.1" id="Layer_1" xmlns="http://www.w3.org/2000/svg" xmlns:xlink="http://www.w3.org/1999/xlink" x="0px" y="0px"
	 viewBox="0 0 400 400" style="enable-background:new 0 0 400 400;" xml:space="preserve">
<style type="text/css">
	.st0{fill:#FBBE51;}
	.st1{fill:#F7A422;}
	.st2{fill:#030405;}
</style>
<g>
	<g>
		<g>
			<path class="st0" d="M313.11,129.36c-8.59-31.85-34.22-58.57-65.7-68.47c-31.47-9.9-67.79-2.64-93.07,18.57
				c-2.22,1.88-4.38,3.85-6.41,5.94c-8.74,8.84-15.67,19.37-20.56,30.78c-4.89,11.42-7.7,23.73-8.14,36.13
				c-0.11,3.11-0.06,6.22,0.13,9.31c0.11,1.54,0.19,3.11,0.4,4.63c0.19,1.4,0.76,2.64,0.97,4.06c1.02,6.6,2.73,13.07,5.06,19.31
				c2.33,6.26,5.27,12.27,8.78,17.94c1.76,2.83,3.66,5.56,5.69,8.21c0.51,0.68,6.07,7.68,6.37,7.47c8.97-6.45,20.16-9.79,31.18-9.29
				c15.42,0.68,29.72,8.46,45.05,10.11c19.84,2.12,40.38-6.09,59.52-0.51c1.59,0.47,3.28,1.04,4.89,0.59c1.4-0.4,2.47-1.5,3.45-2.58
				c16.46-18,25.51-42.37,25.66-66.73C316.41,146.24,315.36,137.68,313.11,129.36z M295.39,144.15c-0.38,6.09-1.33,11.59-2.92,16.79
				c-2.43,8.04-6.11,15.17-10.91,21.22c-2.92,3.68-6.43,7.11-10.43,10.15c-5.65,4.31-12.14,7.72-21.07,11
				c-3,1.1-6.56,2.35-10.3,3.32c-4.34,1.14-8.99,2.28-14,2.73c-2.35,0.21-4.61,0.21-6.77,0.21h-0.17v0.06l-5.46,0.06
				c-9.69,0.06-19.92,0.04-33.23-0.11h-0.85c-3.62,0.15-5.35-1.48-6.37-3.51c-2.18,2.33-4.95,3.91-8.29,4.76
				c-1.18,0.32-2.75,0.7-4.59,0.7c-1.16,0-2.43-0.15-3.76-0.59c-4.57-1.52-7.55-6.94-6.51-11.84c0.97-4.61,3.83-7.8,8.08-8.97
				c0.11-0.04,0.38-0.32,0.85-1.67c1.1-3.19,1.82-6.64,2.16-10.26c0.11-1.33,0.19-2.67,0.25-4c0.08-1.44,0.17-2.9,0.3-4.34
				c0.23-2.62,0.32-4.95,0.21-7.13c-0.23-4.63-1.18-9.12-2.88-13.33c-2.01-5.01-3.13-10.17-4.1-15.04c-1.16-5.8-1.06-11.38-0.8-16.1
				c0.21-3.79,0.95-7.83,2.26-12.37c2.33-7.97,5.12-14.11,8.76-19.29c4-5.71,9.03-10.32,14.98-13.71c2.18-1.27,4.82-2.69,7.74-3.72
				c2.14-0.76,4.04-0.57,5.63,0.57c1.1,0.78,2.39,2.28,2.37,5.03c-0.02,1.95-0.11,3.79-0.27,5.52c4.67,1.61,7.25,4.78,8.65,7.42
				c0.78,1.5,1.29,3.19,1.48,4.91c0.02,0.25,0.04,0.4,0.57,0.76c0.23,0.15,0.47,0.3,0.7,0.47c0.3,0.19,0.68,0.47,0.82,0.53
				c1.52,0.49,2.73,1.33,3.62,2.41l-0.76-2.16c-0.47-1.29-1.14-2.64-1.86-4.08c-0.76-1.5-1.52-3.05-2.18-4.78
				c-1.27-3.38-1.1-6.49,0.51-9.24c1.63-2.81,4.55-4.5,7.78-4.55c3,0,5.77,1.33,7.53,3.74c0.68-0.11,1.44-0.13,2.22-0.06
				c1.33,0.11,5.39,0.47,7.53,4.55c1.02,1.9,1.35,3.89,1.06,5.84c0.21-1.14,0.68-2.2,1.35-3.13c1.61-2.14,3.93-3.34,6.94-3.55
				c4.65-0.34,8.86,0.85,12.71,2.18c5.16,1.8,9.96,4.27,14.66,7.57c4.93,3.43,9.33,7.61,13.05,12.39
				c4.53,5.8,7.97,12.25,10.26,19.23c1.73,5.25,2.73,10.09,3.05,14.76c0.04,0.72,0.11,1.44,0.19,2.16
				C295.35,139.73,295.54,141.84,295.39,144.15z"/>
			<path class="st1" d="M298.07,234.21c-12.22-3.05-23.59,6.23-34.8,11.97c-16.72,8.56-37.15,9.51-54.59,2.55l-0.02-0.01
				c8.47,0.75,17.04,0.35,25.41-1.18c5.04-0.92,10.18-2.34,14.11-5.63c3.93-3.28,6.33-8.85,4.59-13.67
				c-9.27,4.1-19.75,5.44-29.76,3.8c-11.58-1.9-22.26-7.63-33.82-9.61c-14.2-2.44-29.33,1.15-40.93,9.69
				c-0.99,0.73-2.08,1.54-3.31,1.47c-1.19-0.07-2.17-0.94-3.02-1.78c-26.9-26.46-38.03-67.87-28.02-104.24
				c10.01-36.38,40.76-66.26,77.41-75.23c-11.45-0.29-22.8,2.64-33.36,7.07c-22.97,9.62-42.81,26.54-55.94,47.7
				c-3.58,5.76-6.65,11.84-9.2,18.12c-3.4,8.38-5.86,17.14-7.34,26.07c-0.74,4.46-1.22,8.96-1.46,13.48
				c-0.21,4.11-0.85,9.17,0.19,13.19c0.95,3.67,0.99,7.57,1.57,11.34c0.62,4.03,1.45,8.02,2.5,11.96c2.1,7.88,5.03,15.54,8.72,22.81
				c7.33,14.48,17.65,27.48,30.24,37.74c24.92,20.31,58.34,29.71,90.25,25.81c31.91-3.9,61.94-20.95,82-46.08
				c1.3-1.63,2.61-3.89,1.49-5.65C300.35,234.93,299.18,234.49,298.07,234.21z"/>
			<path class="st2" d="M166.11,178.68c-0.36,3.94-1.14,7.77-2.41,11.49c-0.76,2.23-1.84,4.33-4.44,5.05
				c-2.51,0.69-3.8,2.48-4.32,4.95c-0.5,2.39,1.12,5.12,3,5.74c1.91,0.63,3.55,0.27,5.41-0.2c4.74-1.21,7.39-4.39,8.88-8.75
				c1.76-5.17,2.52-10.57,3.48-15.91c0.94-5.22,2.17-10.33,4.4-15.17c0.43-0.93,0.92-0.55,1.44-0.28c2.2,1.17,3.96,2.88,5.51,4.79
				c1.01,1.24,2.23,2.34,2.72,3.98c0.44,1.5,0.39,2.94,0.31,4.49c-0.21,4.01,1.17,7.68,3.19,11.07c0.76,1.27,0.6,2.53,0.65,3.82
				c0.02,0.52-0.42,0.89-0.93,0.92c-0.99,0.06-2.05,0.23-2.98-0.02c-2.85-0.78-5.73-0.39-8.6-0.43c-0.77-0.01-1.51,0.4-2.23,0.74
				c-2.3,1.07-2.86,4.97-2.21,6.84c1.04,3.01,0.53,2.47,3.25,2.5c11.04,0.12,22.08,0.19,33.12,0.11c0,0,0.2,0,0.19,0
				c3.92-0.27,7.84,0.05,11.77-0.31c4.5-0.41,8.83-1.46,13.15-2.59c3.32-0.87,6.57-1.99,9.8-3.17c7-2.57,13.73-5.66,19.69-10.22
				c3.54-2.71,6.75-5.77,9.5-9.25c4.61-5.81,7.83-12.36,10-19.48c1.55-5.09,2.37-10.28,2.7-15.57c0.17-2.66-0.25-5.31-0.43-7.96
				c-0.31-4.63-1.35-9.09-2.79-13.47c-2.11-6.41-5.23-12.27-9.4-17.61c-3.42-4.38-7.36-8.15-11.91-11.33
				c-4.15-2.9-8.57-5.22-13.37-6.89c-3.46-1.2-6.91-2.18-10.6-1.92c-1.18,0.08-2.29,0.39-3.09,1.46c-1.2,1.6,0.37,4.28,2,5.32
				c3.04,1.96,6.51,2.9,9.85,4.08c8.54,3.02,14.87,8.71,19.98,15.95c2.58,3.66,4.47,7.65,5.91,11.91c1.29,3.84,2.12,7.76,2.43,11.77
				c0.19,2.51,0.36,5.02,0.1,7.58c-0.31,2.92-0.54,5.84-1.23,8.68c-1.57,6.46-4.14,12.46-8.24,17.8
				c-3.36,4.38-7.11,8.29-11.67,11.42c-5.74,3.94-12.02,6.64-18.71,8.47c-0.71,0.19-0.87,0-0.81-0.61c0.12-1.28,0.26-2.55,0.39-3.82
				c0.01-0.11,0.01-0.24,0.01-0.24s-0.56-9.53-1.38-14.27c-0.96-5.55-2.99-10.63-6-15.3c-3.39-5.24-7.92-9.43-13.05-12.98
				c-3.88-2.68-8.12-4.73-12.21-7.06c-2.98-1.7-6.09-3.16-9.13-4.72c-2.15-1.11-4.43-2.08-6.64-3.13c-1.55-0.73-2.87-1.85-3.44-3.53
				c-0.61-1.78-0.51-3.65,0-5.43c0.36-1.25,0.72-2.64,2.21-3.19c1.36-0.5,2.8-0.68,4.21-0.75c2.14-0.11,4.28-0.23,6.32-0.84
				c3.11-0.93,5.73-2.54,6.98-5.79c0.65-1.69,0.74-3.46,1-5.21c0.2-1.36-0.09-2.33-1.61-2.82c-0.98-0.31-1.84-1.01-2.72-1.59
				c-1.67-1.09-2.72-2.55-2.94-4.63c-0.11-1.03-0.43-2.09-0.9-3c-1.83-3.5-4.94-5.12-8.74-5.53c-0.72-0.08-1.13-0.08-0.98-0.97
				c0.51-2.96,0.71-5.94,0.75-8.94c0.01-0.81-0.13-0.87-0.94-0.58c-2.42,0.86-4.67,2.05-6.89,3.32c-5.34,3.06-9.74,7.14-13.27,12.16
				c-3.79,5.4-6.17,11.46-7.99,17.74c-1.06,3.65-1.86,7.41-2.06,11.18c-0.27,4.92-0.28,9.85,0.7,14.76c0.96,4.8,2,9.55,3.82,14.11
				c1.93,4.83,3,9.86,3.25,15.04c0.12,2.62,0.02,5.24-0.22,7.87C166.41,173.12,166.36,175.91,166.11,178.68z"/>
			<path class="st2" d="M215.34,92.9c2.86-1.16,5.72-2.25,8.53-3.47c1.19-0.52,2.34-1.2,3.1-2.35c0.95-1.42,1.05-2.87,0.25-4.4
				c-0.71-1.35-1.88-1.61-3.3-1.73c-1.89-0.16-3.21,0.81-4.58,1.94c-0.43-1.32-0.58-2.63-1.27-3.74c-1.57-2.53-5.19-2.47-6.67,0.07
				c-0.93,1.59-0.72,3.14-0.13,4.72C212.43,87.01,214.24,89.8,215.34,92.9z"/>
		</g>
		<path class="st0" d="M273.54,142.18l-0.13,1.21c-0.25,2.41-0.49,4.67-0.99,6.77c-1.5,6.22-3.89,11.4-7.3,15.84
			c-3.41,4.44-6.75,7.72-10.47,10.28c-3.34,2.31-6.96,4.19-10.98,5.73c-0.21-3.17-0.68-9.14-1.31-12.75
			c-1.06-6.16-3.34-11.97-6.77-17.26c-3.47-5.39-8.21-10.13-14.47-14.47c-2.92-2.01-5.94-3.66-8.86-5.25
			c-1.25-0.68-2.5-1.35-3.74-2.05c-2.16-1.25-4.36-2.35-6.49-3.41c-0.95-0.47-1.9-0.95-2.83-1.44c-1.46-0.74-2.98-1.44-4.51-2.14
			c-0.76-0.36-1.54-0.7-2.31-1.06c-0.47-0.23-0.66-0.42-0.7-0.47c-0.19-0.57-0.17-1.27,0.08-2.2c0.44-0.08,0.97-0.15,1.63-0.17
			c2.28-0.13,4.89-0.27,7.55-1.06c5.2-1.57,8.69-4.57,10.41-8.95c0.74-1.92,0.95-3.7,1.14-5.29c0.04-0.36,0.11-0.72,0.15-1.08
			c0.17-1.16,0.11-2.24-0.13-3.24l7.23-2.92c2.09-0.83,4.17-1.67,6.22-2.56c2.41-1.04,4.17-2.43,5.39-4.27
			c0.8-1.21,1.33-2.48,1.57-3.76c-0.15,0.87-0.13,1.76,0.04,2.69c0.47,2.71,2.33,5.41,4.7,6.96c3,1.92,6.22,3,9.05,3.96
			c0.63,0.23,1.27,0.44,1.9,0.66c6.77,2.39,12.46,6.98,17.41,14.02c2.16,3.05,3.87,6.49,5.22,10.55c1.16,3.45,1.9,6.98,2.18,10.47
			C273.63,138.06,273.75,140.13,273.54,142.18z"/>
	</g>
	<g>
		<path class="st2" d="M30.8,326.65c0.99-0.01,1.75-0.81,1.74-1.84c-0.01-1.05-0.79-1.78-1.78-1.77c-1.08,0.01-1.84,0.76-1.83,1.81
			C28.94,325.88,29.72,326.67,30.8,326.65z"/>
		<path class="st2" d="M26.14,326.71c1.05-0.01,1.78-0.82,1.77-1.84c-0.01-1.05-0.76-1.78-1.81-1.77c-1.02,0.01-1.81,0.76-1.8,1.81
			C24.31,325.93,25.12,326.72,26.14,326.71z"/>
		<path class="st2" d="M36.54,341.76l0.59-0.01c4.29-0.05,6.23-1.6,6.18-5.95l-0.07-6l-3.35,0.04l0.06,5.54
			c0.03,2.53-0.61,3.33-2.89,3.36l-0.56,0.01c-1.9,0.02-2.48-0.54-2.5-2.44l-0.07-6.39l-5.4,0.06c-4.89,0.06-7.24,2.93-7.2,6.17
			c0.04,3.58,2.9,5.39,6.43,5.35c1.51-0.02,2.78-0.37,3.85-0.9C32.42,341.44,33.98,341.79,36.54,341.76L36.54,341.76L36.54,341.76
			C36.54,341.76,36.54,341.76,36.54,341.76L36.54,341.76z M28.18,338.37c-2.33,0.03-3.45-0.87-3.47-2.55
			c-0.02-1.82,1.33-2.8,3.35-2.82l2.38-0.03l0.06,4.92C29.97,338.17,29.09,338.35,28.18,338.37z"/>
		<path class="st2" d="M38.35,344.04c-1.02,0.01-1.81,0.82-1.8,1.87c0.01,1.02,0.82,1.78,1.84,1.77c1.05-0.01,1.78-0.79,1.77-1.81
			C40.16,344.82,39.41,344.03,38.35,344.04z"/>
		<path class="st2" d="M43.01,343.99c-1.08,0.01-1.84,0.81-1.83,1.87c0.01,1.02,0.79,1.78,1.87,1.77c0.99-0.01,1.75-0.79,1.74-1.81
			C44.79,344.76,44.01,343.98,43.01,343.99z"/>
		<path class="st2" d="M86.45,343.49c-1.08,0.01-1.84,0.81-1.83,1.87c0.01,1.02,0.79,1.78,1.87,1.77c0.99-0.01,1.75-0.79,1.74-1.81
			C88.22,344.26,87.44,343.48,86.45,343.49z"/>
		<path class="st2" d="M81.79,343.54c-1.02,0.01-1.81,0.82-1.8,1.87c0.01,1.02,0.82,1.78,1.84,1.77c1.05-0.01,1.78-0.79,1.77-1.81
			C83.58,344.32,82.84,343.53,81.79,343.54z"/>
		<path class="st2" d="M93.52,343.41c-1.08,0.01-1.81,0.81-1.8,1.87c0.01,1.02,0.76,1.78,1.84,1.77c1.08-0.01,1.75-0.79,1.74-1.81
			C95.29,344.18,94.6,343.39,93.52,343.41z"/>
		<path class="st2" d="M101.08,319.53l0.18,15.15c0.03,2.5-0.47,3.33-2.74,3.35c-1.9,0.02-3.05-0.84-3.07-2.83l-0.07-6l-3.35,0.04
			l0.06,5.54c0.03,2.61-0.64,3.33-2.83,3.36c-1.9,0.02-3.05-0.84-3.07-2.83l-0.07-6l-3.35,0.04l0.06,5.54
			c0.03,2.53-0.61,3.33-2.89,3.36l-0.57,0.01l0,0l-2.32,0.03c0.08-0.65,0.13-1.28,0.12-1.88c-0.05-4.29-2.36-7.27-6.79-7.22
			c-2.81,0.03-6.18,1.6-8.78,5.27l-0.17-14.46l-3.35,0.04l0.21,18.47l-2.44,0.03l0,0l-2.9,0.03l-0.1-8.86l-3.35,0.04l0.12,10.57
			c0.03,2.42-1.01,3.25-3.6,3.65l0.55,2.89c3.78-0.3,5.77-2,6.28-5.27l3.04-0.04l0,0l23.52-0.27l0,0l0.59-0.01
			c2.44-0.03,4.11-0.53,5.09-1.77c0.75,1.07,2.09,1.68,4.19,1.66l0,0c0,0,0,0,0,0c0,0,0,0,0,0l0,0c2.38-0.03,4.08-0.53,5.06-1.76
			c0.75,1.07,2.09,1.68,4.19,1.66l0,0c0,0,0,0,0,0c0,0,0,0,0,0l0,0c4.09-0.05,6.12-1.46,6.07-5.69l-0.18-15.86L101.08,319.53z
			 M73.66,338.32l-11.96,0.14c2.43-3.78,5.55-6.15,8.28-6.18c2.56-0.03,3.83,1.8,3.86,4.39C73.85,337.21,73.8,337.75,73.66,338.32z"
			/>
		
			<rect x="108.31" y="319.43" transform="matrix(0.9999 -0.0116 0.0116 0.9999 -3.8076 1.2928)" class="st2" width="3.35" height="21.48"/>
		<path class="st2" d="M132.29,325.48c0.99-0.01,1.75-0.81,1.74-1.84c-0.01-1.05-0.79-1.78-1.78-1.77
			c-1.08,0.01-1.84,0.76-1.83,1.81C130.43,324.71,131.21,325.49,132.29,325.48z"/>
		<path class="st2" d="M127.63,325.53c1.05-0.01,1.78-0.81,1.77-1.84c-0.01-1.05-0.76-1.78-1.81-1.77c-1.02,0.01-1.81,0.76-1.8,1.81
			C125.8,324.76,126.6,325.55,127.63,325.53z"/>
		<path class="st2" d="M146.32,328.3c-3.86,0.05-6.62,2.52-6.58,6.07c0.01,1.25,0.34,2.33,0.89,3.17l-2.64,0.03
			c-1.9,0.02-2.48-0.54-2.5-2.44l-0.07-6.39l-5.4,0.06c-4.89,0.06-7.24,2.93-7.2,6.17c0.04,3.58,2.9,5.39,6.43,5.35
			c1.51-0.02,2.78-0.37,3.85-0.89c0.8,0.84,2.37,1.19,4.92,1.16l0,0h0c0,0,0,0,0,0l0,0l7.5-0.09c5.63-0.06,7.01-3.38,6.98-6.27
			C152.47,331.13,150.39,328.26,146.32,328.3z M129.67,337.19c-2.33,0.03-3.45-0.87-3.47-2.55c-0.02-1.82,1.33-2.8,3.35-2.83
			l2.39-0.03l0.06,4.92C131.45,337,130.57,337.18,129.67,337.19z M145.86,337.49l-1.73,0.02c-0.55-0.76-0.99-1.72-1-2.86
			c-0.02-2.1,1.27-3.23,3.03-3.25c1.76-0.02,2.94,1.16,2.96,2.98C149.14,335.94,148.45,337.46,145.86,337.49z"/>
		<path class="st2" d="M174.91,324.68c1.05-0.01,1.78-0.82,1.77-1.84c-0.01-1.05-0.76-1.78-1.81-1.77c-1.02,0.01-1.81,0.76-1.8,1.81
			C173.09,323.9,173.89,324.69,174.91,324.68z"/>
		<path class="st2" d="M179.57,324.62c0.99-0.01,1.75-0.81,1.74-1.84c-0.01-1.05-0.79-1.78-1.78-1.77
			c-1.08,0.01-1.84,0.76-1.83,1.81C177.72,323.85,178.5,324.63,179.57,324.62z"/>
		<path class="st2" d="M187.96,324.84c1.05-0.01,1.78-0.82,1.77-1.84c-0.01-1.05-0.76-1.78-1.81-1.77c-1.02,0.01-1.81,0.76-1.8,1.81
			C186.13,324.06,186.93,324.85,187.96,324.84z"/>
		<path class="st2" d="M192.62,324.78c0.99-0.01,1.75-0.81,1.74-1.84c-0.01-1.05-0.79-1.78-1.78-1.77
			c-1.08,0.01-1.84,0.76-1.83,1.81C190.76,324.01,191.54,324.8,192.62,324.78z"/>
		<path class="st2" d="M214.44,318.22l0.18,15.15c0.03,2.5-0.47,3.33-2.75,3.36l0,0l-1.96,0.02c0.08-0.46,0.13-0.94,0.12-1.45
			c-0.04-3.52-2.12-6.34-6.15-6.29c-3.92,0.04-6.68,2.75-6.63,6.53c0.01,0.48,0.07,0.94,0.13,1.36l-1.9,0.02
			c-1.9,0.02-3.05-0.84-3.07-2.83l-0.07-6l-3.35,0.04l0.06,5.54c0.03,2.53-0.61,3.33-2.89,3.36l-0.57,0.01l0,0l-3.32,0.04
			c0.92-1.06,1.42-2.32,1.4-3.71c-0.03-2.93-2.31-5.46-6.37-5.41c-4.15,0.05-6.45,2.69-6.41,5.64c0.02,1.51,0.63,2.75,1.46,3.59
			l-3.47,0.04l0,0l-2.13,0.02c-0.24-3.52-1.64-6.6-6.53-9.7l-1.99,2.72c2.32,1.4,5.16,4.09,5.2,6.96l0,0.06l-8.61,0.1l0.03,3.01
			l14.07-0.16l0,0l3.38-0.04c1.79-0.02,3.63-0.24,4.96-0.51c1.25,0.24,3.07,0.42,5.18,0.39l3.18-0.04l0,0l0.59-0.01
			c2.44-0.03,4.11-0.53,5.09-1.77c0.75,1.07,2.09,1.68,4.19,1.66l0,0h0c0,0,0,0,0,0l0,0l3.27-0.04c0.52,0.68,1.15,1.26,1.9,1.8
			l2.39-0.03c2.36-0.03,4.14-0.73,5.29-1.88l3.55-0.04h0c4.09-0.05,6.11-1.47,6.06-5.7l-0.18-15.86L214.44,318.22z M177.3,336.87
			c-1.25-0.27-3-1.53-3.02-3.23c-0.02-1.53,1.22-2.57,3.01-2.59c1.82-0.02,3.02,1.05,3.04,2.52
			C180.35,335.38,178.49,336.68,177.3,336.87z M203.26,338.64l-1.56,0.02c-0.66-0.85-1.08-2.01-1.09-3.09
			c-0.02-2.1,1.18-3.45,3.11-3.48c1.9-0.02,2.94,1.36,2.96,3.09C206.71,337.29,205.45,338.62,203.26,338.64z"/>
		
			<rect x="221.66" y="318.12" transform="matrix(0.9999 -0.0116 0.0116 0.9999 -3.7849 2.6025)" class="st2" width="3.35" height="21.48"/>
		<path class="st2" d="M251.39,339.28l0.59-0.01c4.29-0.05,6.23-1.61,6.18-5.95l-0.07-6l-3.35,0.04l0.06,5.54
			c0.03,2.53-0.61,3.33-2.89,3.36l-0.56,0.01c-1.9,0.02-2.48-0.54-2.5-2.44l-0.07-6.39l-5.4,0.06c-4.89,0.06-7.24,2.93-7.2,6.17
			c0.04,3.58,2.9,5.39,6.43,5.35c1.51-0.02,2.78-0.37,3.86-0.89C247.27,338.96,248.83,339.31,251.39,339.28L251.39,339.28
			L251.39,339.28C251.39,339.28,251.39,339.28,251.39,339.28L251.39,339.28z M243.02,335.88c-2.33,0.03-3.45-0.87-3.47-2.55
			c-0.02-1.82,1.33-2.8,3.35-2.82l2.39-0.03l0.06,4.92C244.81,335.69,243.93,335.87,243.02,335.88z"/>
		<path class="st2" d="M240.99,324.22c1.05-0.01,1.78-0.81,1.77-1.84c-0.01-1.05-0.76-1.78-1.81-1.77c-1.02,0.01-1.81,0.76-1.8,1.81
			C239.16,323.45,239.96,324.24,240.99,324.22z"/>
		<path class="st2" d="M245.65,324.17c0.99-0.01,1.75-0.82,1.74-1.84c-0.01-1.05-0.79-1.78-1.78-1.77
			c-1.08,0.01-1.84,0.76-1.83,1.81C243.79,323.39,244.57,324.18,245.65,324.17z"/>
		<path class="st2" d="M257.86,341.51c-1.08,0.01-1.84,0.82-1.83,1.87c0.01,1.02,0.79,1.78,1.87,1.77c0.99-0.01,1.75-0.79,1.74-1.81
			C259.63,342.28,258.85,341.5,257.86,341.51z"/>
		<path class="st2" d="M253.2,341.56c-1.02,0.01-1.81,0.81-1.8,1.87c0.01,1.02,0.82,1.78,1.84,1.77c1.05-0.01,1.78-0.79,1.77-1.81
			C255,342.33,254.25,341.55,253.2,341.56z"/>
		<path class="st2" d="M273.42,323.85c1.08-0.01,1.75-0.82,1.74-1.84c-0.01-1.05-0.7-1.78-1.78-1.77c-1.08,0.01-1.81,0.76-1.8,1.81
			C271.6,323.07,272.34,323.86,273.42,323.85z"/>
		<path class="st2" d="M297.46,317.26l0.17,15.15c0.03,2.5-0.47,3.33-2.74,3.36l0,0l-2.5,0.03c-0.43,0.01-1.14-0.01-1.9-0.04
			c1.32-1.35,2.32-3.07,2.3-4.89c-0.03-2.7-2.29-4.21-5.76-4.17c-2.47,0.03-4.85,0.88-6.49,1.75c-0.3,0.77-0.52,2.02-0.65,3.19
			c1.21,1.12,2.56,2.58,3.69,4.16c-0.71,0.07-1.62,0.1-2.78,0.12l-2.53,0.03c-1.9,0.02-3.05-0.84-3.07-2.83l-0.07-6l-3.35,0.04
			l0.06,5.54c0.03,2.61-0.64,3.33-2.83,3.36c-2.07,0.02-2.96-0.7-2.98-2.35l-0.19-16.08l-3.35,0.04l0.19,16.17
			c0.04,3.58,1.71,5.29,6.37,5.24l0,0c0,0,0,0,0,0c0,0,0,0,0,0l0,0c2.38-0.03,4.08-0.53,5.06-1.77c0.75,1.07,2.09,1.68,4.19,1.66
			l0,0h0c0,0,0,0,0,0l0,0l1.02-0.01c2.98-0.03,5.03-0.23,7.15-0.82c1.8,0.46,3.99,0.69,6.23,0.67l2.22-0.02c0,0,0,0,0,0
			c4.09-0.05,6.11-1.47,6.07-5.7l-0.18-15.86L297.46,317.26z M286.82,334.95c-1.19-1.86-2.48-3.21-3.8-4.3l0.03-0.14
			c0.99-0.41,2.27-0.68,3.29-0.69c2.16-0.02,3.08,0.88,3.09,1.87C289.44,332.73,288.43,334.11,286.82,334.95z"/>
		
			<rect x="304.69" y="317.16" transform="matrix(0.9999 -0.0116 0.0116 0.9999 -3.7682 3.5617)" class="st2" width="3.35" height="21.48"/>
		<path class="st2" d="M327.76,322.91c0.99-0.01,1.75-0.82,1.74-1.84c-0.01-1.05-0.79-1.78-1.78-1.77
			c-1.08,0.01-1.84,0.76-1.83,1.81C325.9,322.13,326.68,322.92,327.76,322.91z"/>
		<path class="st2" d="M323.1,322.96c1.05-0.01,1.78-0.81,1.77-1.84c-0.01-1.05-0.76-1.78-1.81-1.77c-1.02,0.01-1.81,0.76-1.8,1.81
			C321.27,322.19,322.07,322.98,323.1,322.96z"/>
		<path class="st2" d="M325.49,326.23c-3.95,0.05-6.33,2.89-6.29,6.61c0.04,3.5,2.45,5.77,6.43,5.72c3.98-0.04,6.31-2.32,6.27-5.87
			C331.86,329.06,329.47,326.19,325.49,326.23z M325.66,335.47c-1.82,0.02-2.99-0.9-3.02-2.89c-0.02-1.9,0.99-3.23,2.89-3.25
			c1.85-0.02,2.91,1.28,2.94,3.21C328.49,334.5,327.33,335.45,325.66,335.47z"/>
		<path class="st2" d="M339.63,325.47l-1.98,2.72c2.32,1.39,5.16,4.09,5.19,6.96l0,0.06l-8.61,0.1l0.03,3.01l11.96-0.14l-0.02-1.9
			C346.16,332.27,345.04,328.9,339.63,325.47z"/>
		<path class="st2" d="M366,337.95l12.67-0.15l-0.03-3.01l-6.39,0.07c-0.52-0.7-1.13-1.83-1.15-3.14c-0.02-1.82,1.24-2.94,3.63-2.97
			c0.85-0.01,1.79,0.12,2.53,0.28l0.59-2.96c-1.08-0.27-2.14-0.43-3.41-0.42c-4.4,0.05-6.76,2.49-6.72,5.85
			c0.01,1.19,0.31,2.44,0.89,3.4l-2.64,0.03c-1.9,0.02-3.05-0.84-3.07-2.83l-0.07-6l-3.35,0.04l0.06,5.54
			c0.03,2.53-0.61,3.33-2.89,3.36l-0.57,0.01c-2.07,0.02-2.96-0.7-2.98-2.35l-0.19-16.08l-3.35,0.04l0.19,16.17
			c0.04,3.58,1.71,5.29,6.37,5.24l0,0h0c0,0,0,0,0,0l0,0l0.59-0.01c2.44-0.03,4.11-0.53,5.09-1.76
			C362.55,337.37,363.89,337.98,366,337.95L366,337.95L366,337.95C366,337.95,366,337.95,366,337.95L366,337.95z"/>
		<path class="st2" d="M363.15,340.29c-1.08,0.01-1.84,0.82-1.83,1.87c0.01,1.02,0.79,1.78,1.87,1.77c0.99-0.01,1.75-0.79,1.74-1.81
			C364.92,341.06,364.15,340.28,363.15,340.29z"/>
		<path class="st2" d="M358.49,340.34c-1.02,0.01-1.81,0.82-1.8,1.87c0.01,1.02,0.82,1.78,1.84,1.77c1.05-0.01,1.78-0.79,1.77-1.81
			C360.29,341.12,359.54,340.33,358.49,340.34z"/>
	</g>
</g>
</svg>
