<?xml version="1.0" encoding="utf-8"?>
<!-- Generator: Adobe Illustrator 26.0.1, SVG Export Plug-In . SVG Version: 6.00 Build 0)  -->
<svg version="1.1" id="Layer_1" xmlns="http://www.w3.org/2000/svg" xmlns:xlink="http://www.w3.org/1999/xlink" x="0px" y="0px"
	 viewBox="0 0 400 400" style="enable-background:new 0 0 400 400;" xml:space="preserve">
<style type="text/css">
	.st0{fill:#113323;}
	.st1{fill:#D3A050;}
</style>
<g>
	<g>
		<g>
			<g>
				<path class="st0" d="M170.38,299.26c-0.11-0.29-0.39-0.45-0.71-0.48c-0.41-0.05-0.78,0.12-0.94,0.47
					c-0.15,0.32-0.21,0.72-0.22,1.08c-0.02,1.28-0.01,2.55-0.01,3.83c-0.01,0-0.03,0-0.04,0c0,1.5,0.02,3.01-0.01,4.51
					c-0.02,0.66-0.34,0.96-0.97,1.03c-0.52,0.05-1.05,0.05-1.58,0.05c-2.66,0.01-2.68,0-2.69-2.57c-0.01-1.88,0-3.76,0-5.63
					c0-0.53,0.01-1.05-0.03-1.58c-0.06-0.79-0.46-1.22-1.06-1.18c-0.52,0.04-0.87,0.42-0.92,1.08c-0.04,0.52-0.03,1.05-0.03,1.58
					c0,1.8,0,3.61,0,5.41c0,0.53,0.01,1.05-0.02,1.58c-0.07,0.92-0.36,1.24-1.22,1.29c-0.75,0.04-1.5,0.04-2.25,0.02
					c-1.19-0.05-1.39-0.27-1.46-1.5c-0.02-0.45-0.01-0.9-0.02-1.35c-0.01-0.38,0-0.75-0.05-1.13c-0.09-0.74-0.55-1.16-1.16-1.1
					c-0.52,0.06-0.88,0.44-0.92,1.09c-0.05,0.98-0.03,1.95-0.09,2.93c-0.04,0.66-0.34,0.99-0.98,1.01c-1.27,0.04-2.55,0.04-3.83,0
					c-0.62-0.02-0.91-0.36-0.96-1.03c-0.05-0.6-0.02-1.2-0.07-1.8c-0.23-2.87-1.79-4.36-4.63-4.38c-2.63-0.02-5.26,0.04-7.89-0.02
					c-1.32-0.03-2.32,0.45-3.11,1.48c-0.6,0.77-1.21,1.53-1.84,2.28c-0.18,0.21-0.38,0.55-0.72,0.32c-0.14-0.09-0.19-0.38-0.19-0.58
					c-0.02-1.73-0.01-3.46-0.02-5.18c-0.01-0.45-0.03-0.9-0.13-1.34c-0.09-0.39-0.41-0.61-0.82-0.66c-0.46-0.06-0.95,0.23-1.03,0.67
					c-0.09,0.51-0.14,1.04-0.15,1.56c-0.02,1.88,0,3.76-0.01,5.63c-0.01,3.5,0.18,3.06-3.22,3.09c-0.15,0-0.3,0-0.45-0.01
					c-0.83-0.06-0.98-0.22-1.04-1.13c-0.03-0.53,0.02-1.06-0.04-1.58c-0.08-0.59-0.17-1.2-0.39-1.75c-0.69-1.76-1.9-2.84-3.91-2.8
					c-1.5,0.03-3.01,0.02-4.51,0.01c-1.42,0-2.41,0.73-3.16,1.85c-1.08,1.63-1.05,4.16,0.07,5.77c0.78,1.11,1.82,1.77,3.22,1.77
					c1.2,0,2.4,0,3.61,0.02c0.75,0.01,1.5,0.02,2.25,0.08c0.48,0.04,0.71,0.45,0.65,0.99c-0.06,0.52-0.35,0.83-0.86,0.88
					c-0.75,0.07-1.5,0.06-2.24,0.15c-0.57,0.07-0.95,0.62-0.87,1.12c0.08,0.5,0.41,0.81,0.9,0.86c0.6,0.06,1.2,0.07,1.8,0.05
					c2.22-0.05,3.09-0.8,3.49-2.99c0.19-1.04,0.24-1.12,1.26-1.14c2.03-0.03,4.06-0.02,6.08-0.02c3.98,0,7.96,0,11.95,0
					c1.43,0,2.87,0.11,4.15-0.72c1.45,0.21,2.79,0.96,4.34,0.76c1.33-0.17,2.7,0.11,4-0.43c0.25-0.1,0.6-0.08,0.86,0
					c1.99,0.63,3.99,0.55,5.99,0.07c0.46-0.11,0.88-0.13,1.32,0.02c1.54,0.53,3.13,0.35,4.69,0.27c1.96-0.1,3.02-1.22,3.07-3.19
					c0.06-2.78,0.02-5.56,0.01-8.34C170.61,299.98,170.51,299.6,170.38,299.26z M119.2,309.77c-0.67,0.02-1.35,0-2.02,0v-0.02
					c-0.9,0-1.8,0.05-2.7-0.01c-1.51-0.1-2.3-0.98-2.36-2.47c-0.06-1.59,0.76-2.6,2.34-2.71c1.34-0.09,2.7-0.08,4.04,0.01
					c1.48,0.11,2.12,0.82,2.25,2.31c0.04,0.45,0.03,0.9,0.02,1.35C120.74,309.63,120.64,309.73,119.2,309.77z M145.85,308.4
					c-0.31,0.73-0.89,1.2-1.7,1.29c-0.52,0.06-1.04,0.04-1.57,0.06c-0.08,0-0.15,0-0.23,0c-1.57,0-3.14,0-4.71,0
					c0-0.01,0-0.02,0-0.03c-1.94,0-3.89,0.01-5.83-0.01c-0.59-0.01-0.8-0.42-0.44-0.88c0.91-1.18,1.86-2.34,2.79-3.51
					c0.45-0.56,1.03-0.83,1.75-0.83c2.54,0.01,5.09-0.07,7.63,0.04C145.62,304.63,146.67,306.48,145.85,308.4z"/>
				<path class="st0" d="M348.41,302.43c-2.3,0.24-4.65,0.05-6.98,0.04c-0.53,0-1.05-0.01-1.57-0.07c-0.39-0.05-0.7-0.27-0.68-0.73
					c0.02-0.46,0.36-0.66,0.75-0.68c0.97-0.06,1.95-0.06,2.92-0.09c0.75-0.02,1.5-0.01,2.25-0.08c0.48-0.05,0.82-0.36,0.87-0.88
					c0.06-0.53-0.33-1.03-0.93-1.04c-1.88-0.03-3.76-0.09-5.63,0.01c-1.36,0.07-2.35,1.2-2.47,2.51c-0.14,1.54,0.79,2.81,2.35,3.05
					c0.89,0.13,1.8,0.11,2.7,0.12c2.33,0.02,4.66-0.03,6.98,0.06c1.45,0.05,2.27,1.09,2.26,2.55c-0.01,1.47-0.86,2.4-2.31,2.52
					c-0.45,0.04-0.9,0.02-1.35,0.02c-4.13,0-8.26,0-12.39,0c-0.52,0-1.05-0.02-1.57-0.05c-0.43-0.03-0.68-0.3-0.71-0.72
					c-0.04-0.6-0.06-1.2-0.06-1.8c0.01-0.85-0.21-1.65-0.59-2.38c-0.74-1.43-1.84-2.34-3.56-2.31c-1.5,0.02-3,0.01-4.5,0.01
					c-0.69,0-1.34,0.11-1.94,0.47c-2.9,1.74-2.9,6.72,0,8.42c0.81,0.47,1.7,0.54,2.61,0.54c3.9-0.01,7.81,0,11.71,0v0
					c3.53,0,7.06,0,10.59,0c0.15,0,0.3,0,0.45,0c0.53,0,1.05-0.01,1.58-0.01c1.7,0,2.83-0.88,3.53-2.35
					C354.31,306.23,352.2,302.04,348.41,302.43z M330.68,308.92c-0.02,0.53-0.38,0.8-0.89,0.81c-0.9,0.02-1.79,0.01-2.69,0.01v0.01
					c-0.9,0-1.8,0.05-2.69-0.01c-1.5-0.1-2.29-0.98-2.34-2.47c-0.04-1.5,0.71-2.54,2.14-2.65c1.49-0.11,2.99-0.09,4.48,0.01
					c1.22,0.09,1.86,0.83,1.98,2.05C330.75,307.42,330.71,308.17,330.68,308.92z"/>
				<path class="st0" d="M231.75,311.26c2.06,1.09,4.26,0.66,6.41,0.51c1.47-0.1,2.47-1.5,2.43-2.8c-0.04-1.43-0.01-2.85-0.01-4.28
					h0.02c0-1.2,0.01-2.4,0-3.6c0-0.45-0.01-0.9-0.05-1.35c-0.07-0.63-0.48-1-1.02-0.96c-0.53,0.04-0.89,0.43-0.94,1.06
					c-0.04,0.52-0.03,1.05-0.03,1.58c0,1.95,0,3.9-0.01,5.86c0,0.53-0.01,1.05-0.07,1.57c-0.05,0.4-0.31,0.72-0.71,0.77
					c-1.42,0.19-2.84,0.17-4.26,0.02c-0.41-0.04-0.66-0.37-0.71-0.76c-0.06-0.52-0.09-1.05-0.08-1.57c0.01-0.85-0.17-1.65-0.54-2.4
					c-0.75-1.53-1.89-2.48-3.71-2.44c-1.5,0.03-3,0.02-4.51,0.01c-1.51-0.02-2.55,0.76-3.31,1.98c-0.58,0.92-0.77,1.95-0.7,3.02
					c0.03,0.52,0.16,1.04,0.21,1.56c0.03,0.32-0.07,0.63-0.44,0.64c-0.82,0.03-1.65,0.05-2.47,0.01c-0.61-0.03-0.91-0.37-0.98-1.03
					c-0.05-0.52-0.03-1.05-0.05-1.58c-0.02-0.52-0.02-1.05-0.08-1.57c-0.05-0.51-0.38-0.8-0.88-0.86c-0.54-0.06-0.97,0.33-1.04,0.94
					c-0.04,0.37-0.04,0.75-0.05,1.12c-0.02,0.68-0.01,1.35-0.06,2.02c-0.04,0.48-0.32,0.9-0.83,0.92c-1.35,0.04-2.7,0.05-4.05,0.02
					c-0.51-0.01-0.8-0.4-0.85-0.89c-0.05-0.52-0.05-1.05-0.06-1.57c-0.01-2.03-0.01-4.06-0.03-6.08c-0.01-0.52-0.01-1.06-0.12-1.56
					c-0.1-0.48-0.45-0.79-0.96-0.79c-0.5,0-0.85,0.27-0.99,0.75c-0.06,0.21-0.08,0.45-0.08,0.67c0,2.85-0.03,5.71,0.03,8.56
					c0.04,1.85,1.06,2.91,2.89,3.12c0.59,0.07,1.2,0.02,1.8,0.05c1.51,0.07,2.99-0.07,4.45-0.46c1.44,0.54,2.95,0.46,4.45,0.46
					c2.48,0,4.96-0.01,7.43,0c1.21,0.01,2.41,0,3.49-0.65C231.04,311.05,231.39,311.07,231.75,311.26z M228.56,309.7
					c-0.74,0.08-1.5,0.01-2.25,0.01c0,0,0,0,0,0c-0.75,0-1.51,0.06-2.25-0.01c-1.33-0.13-2.08-1.06-2.11-2.47
					c-0.03-1.42,0.66-2.45,1.96-2.61c1.64-0.2,3.3-0.23,4.94,0.04c0.98,0.16,1.56,0.85,1.7,1.85c0.05,0.37,0.06,0.75,0.03,1.12
					C230.47,308.8,229.73,309.58,228.56,309.7z"/>
				<path class="st0" d="M310.22,308.34c0.04-2.55,0.01-5.11,0.01-7.66c0-0.37-0.01-0.76-0.1-1.11c-0.12-0.47-0.45-0.8-0.96-0.8
					c-0.5,0-0.88,0.3-0.98,0.78c-0.1,0.51-0.09,1.04-0.09,1.57c-0.01,2.03,0,4.06-0.01,6.08c0,0.53-0.01,1.05-0.06,1.57
					c-0.05,0.5-0.35,0.88-0.85,0.9c-1.35,0.05-2.7,0.04-4.05,0.02c-0.5-0.01-0.84-0.34-0.9-0.85c-0.06-0.6-0.07-1.2-0.08-1.8
					c-0.02-0.93-0.29-1.78-0.76-2.56c-0.74-1.23-1.78-2.01-3.29-2c-1.58,0.01-3.16,0.01-4.73,0c-1.42-0.01-2.42,0.7-3.17,1.82
					c-0.61,0.9-0.85,1.92-0.8,3c0.02,0.52,0.13,1.04,0.19,1.56c0.07,0.63-0.09,0.84-0.69,0.86c-0.75,0.02-1.5,0.02-2.25-0.03
					c-0.61-0.05-0.92-0.39-0.98-1.03c-0.05-0.45-0.04-0.9-0.05-1.35c-0.01-0.53,0.01-1.05-0.03-1.58c-0.05-0.66-0.39-1.04-0.92-1.08
					c-0.6-0.04-0.99,0.37-1.05,1.18c-0.03,0.45-0.02,0.9-0.03,1.35c-0.01,0.45,0,0.9-0.04,1.35c-0.08,0.79-0.36,1.13-1.11,1.16
					c-1.05,0.05-2.1,0.06-3.15,0.02c-0.89-0.04-1.16-0.34-1.23-1.27c-0.04-0.52-0.03-1.05-0.03-1.58c-0.01-2.03-0.02-4.06-0.04-6.08
					c0-0.45-0.03-0.9-0.12-1.34c-0.08-0.41-0.41-0.61-0.81-0.66c-0.45-0.05-0.93,0.27-1.01,0.7c-0.07,0.37-0.09,0.75-0.09,1.12
					c-0.01,1.28,0,2.55,0,3.83h0.02c0,1.43-0.04,2.86,0.01,4.28c0.07,1.98,1.07,3.01,3.07,3.16c0.82,0.06,1.65-0.02,2.48,0.04
					c1.08,0.08,2.07-0.44,3.1-0.42c1.03,0.03,2.03,0.44,3.1,0.42c2.63-0.04,5.26-0.01,7.89-0.01c0.83,0,1.65-0.02,2.48-0.02
					c0.94,0,1.7-0.74,2.56-0.75c0.86-0.01,1.61,0.76,2.55,0.75c1.2-0.01,2.41,0.05,3.61,0
					C309.15,311.79,310.18,310.72,310.22,308.34z M297.97,309.7c-0.82,0.08-1.65,0.02-2.48,0.02v0c-0.68,0-1.36,0.06-2.03-0.01
					c-1.31-0.15-2.06-1.09-2.08-2.5c-0.02-1.41,0.68-2.42,1.99-2.58c1.57-0.19,3.16-0.21,4.72,0.01c1.34,0.19,1.95,1.08,1.94,2.6
					C300.03,308.68,299.33,309.57,297.97,309.7z"/>
				<path class="st0" d="M194.89,311.54c0.37-0.15,0.74-0.1,1.1,0.03c1.61,0.58,3.28,0.36,4.92,0.32c2.23-0.06,3.27-1.16,3.34-3.39
					c0.04-1.35,0.01-2.71,0.01-4.06h0c0-1.28,0.01-2.56-0.01-3.83c0-0.37-0.03-0.76-0.13-1.11c-0.14-0.47-0.49-0.76-1.01-0.72
					c-0.51,0.04-0.81,0.37-0.94,0.84c-0.06,0.21-0.05,0.45-0.06,0.67c-0.01,0.53-0.01,1.05-0.01,1.58c0,1.95,0.02,3.91-0.01,5.86
					c-0.02,1.88-0.14,1.98-2.1,2.01c-0.68,0.01-1.35,0.02-2.03-0.01c-1.23-0.05-1.48-0.28-1.55-1.44c-0.05-0.75-0.01-1.5-0.05-2.25
					c-0.05-0.87-0.35-1.28-0.91-1.34c-0.65-0.06-1.06,0.42-1.11,1.37c-0.04,0.9-0.02,1.8-0.08,2.7c-0.03,0.5-0.36,0.85-0.87,0.89
					c-0.9,0.06-1.8,0.08-2.7,0.06c-1.16-0.02-1.3-0.15-1.33-1.3c-0.03-1.06-0.06-2.1-0.42-3.11c-0.65-1.82-1.94-2.78-3.89-2.83
					c-1.5-0.04-3.01,0.02-4.51-0.01c-1.33-0.02-2.33,0.6-3.06,1.61c-1.2,1.66-1.35,3.47-0.48,5.33c0.82,1.76,2.23,2.52,4.16,2.5
					c3.31-0.04,6.61,0,9.92-0.01C192.37,311.9,193.66,312.03,194.89,311.54z M185.03,309.75c-0.52,0.01-1.05,0-1.57,0
					c0-0.01,0-0.02,0-0.03c-0.9,0-1.8,0.06-2.7-0.01c-1.37-0.11-2.12-0.97-2.18-2.38c-0.07-1.59,0.6-2.59,2.04-2.71
					c1.49-0.12,3-0.11,4.49-0.01c1.3,0.09,1.96,0.89,2.1,2.22c0.02,0.22,0.02,0.45,0.02,0.67
					C187.3,309.71,187.28,309.73,185.03,309.75z"/>
				<path class="st0" d="M271.32,311.84c1.6-0.2,2.57-1.2,2.72-2.82c0.09-1.04,0.04-2.1,0.02-3.15c0-0.22-0.07-0.44-0.16-0.65
					c-0.16-0.38-0.49-0.57-0.89-0.57c-0.4-0.01-0.76,0.18-0.89,0.56c-0.12,0.34-0.15,0.73-0.17,1.1c-0.04,0.83-0.02,1.65-0.07,2.48
					c-0.03,0.5-0.35,0.85-0.86,0.89c-0.82,0.06-1.65,0.08-2.48,0.05c-0.97-0.03-1.12-0.19-1.16-1.25c-0.04-1.05,0.03-2.11-0.07-3.15
					c-0.18-1.72-1.24-2.71-2.96-2.82c-0.82-0.05-1.65-0.03-2.48,0.02c-0.85,0.05-1.18,0.4-1.24,1.29c-0.05,0.75-0.03,1.5-0.03,2.25
					c-0.01,0.9,0.01,1.8-0.04,2.71c-0.03,0.72-0.26,0.95-0.96,0.97c-1.88,0.03-3.76,0.04-5.64,0c-0.99-0.02-1.22-0.33-1.31-1.43
					c-0.05-0.6-0.06-1.2-0.15-1.79c-0.07-0.44-0.59-0.78-1-0.72c-0.4,0.06-0.74,0.27-0.83,0.67c-0.27,1.19-0.3,2.4,0.1,3.56
					c0.31,0.9,1.02,1.49,1.95,1.7c0.51,0.12,1.04,0.16,1.56,0.17c2.03,0.02,4.06,0.01,6.09,0c0.38,0,0.75,0,1.12-0.06
					c0.69-0.1,1.06-0.47,1.12-1.19c0.06-0.75,0.04-1.5,0.05-2.25c0.01-0.98,0.01-1.95,0.03-2.93c0.01-0.31,0.12-0.58,0.41-0.75
					c0.83-0.48,1.97,0.04,2.03,0.98c0.05,0.82,0.03,1.65,0.04,2.48c0.01,0.83-0.01,1.66,0.04,2.48c0.05,0.71,0.43,1.14,1.12,1.19
					c0.82,0.07,1.65,0.02,2.48,0.02c0,0,0,0.01,0,0.01C269.67,311.86,270.51,311.94,271.32,311.84z"/>
				<path class="st0" d="M373.72,311.85c1.74-0.15,2.72-1.17,2.82-2.91c0.06-0.97,0.02-1.95,0-2.92c-0.01-0.29-0.08-0.6-0.2-0.86
					c-0.17-0.36-0.49-0.58-0.9-0.56c-0.4,0.02-0.73,0.25-0.85,0.63c-0.11,0.35-0.16,0.73-0.17,1.1c-0.03,0.75,0,1.5-0.04,2.25
					c-0.05,0.92-0.32,1.13-1.3,1.14c-0.15,0-0.3-0.01-0.45-0.02c-0.52-0.02-0.86-0.26-0.88-0.8c-0.03-0.82-0.01-1.65-0.06-2.47
					c-0.05-0.86-0.36-1.25-0.96-1.29c-0.67-0.04-1.05,0.41-1.12,1.36c-0.04,0.6-0.02,1.2-0.05,1.8c-0.07,1.25-0.27,1.44-1.46,1.42
					c-0.95-0.02-1.15-0.2-1.21-1.19c-0.06-0.9-0.07-1.79-0.16-2.69c-0.04-0.41-0.38-0.63-0.78-0.69c-0.45-0.07-0.93,0.24-1.02,0.68
					c-0.08,0.36-0.12,0.74-0.12,1.11c-0.02,3.15,0.2,2.76-3.02,2.79c-0.15,0-0.3,0-0.45-0.01c-1.36-0.06-1.59-0.27-1.67-1.55
					c-0.03-0.52,0-1.05-0.03-1.57c-0.03-0.45-0.05-0.9-0.17-1.33c-0.1-0.39-0.44-0.57-0.86-0.58c-0.42-0.01-0.77,0.21-0.86,0.58
					c-0.13,0.5-0.16,1.03-0.16,1.55c-0.02,1.87-0.01,3.75-0.02,5.62c0,0.84-0.25,1.43-1.3,1.44c-0.44,0-0.9,0.07-1.32,0.19
					c-0.39,0.11-0.6,0.45-0.65,0.84c-0.06,0.4,0.31,0.94,0.72,1.02c2.15,0.43,4.49-0.25,4.64-2.84c0.07-1.14,0.21-1.17,1.45-1.19
					c1.95-0.02,3.9,0,5.85-0.01c0.68,0,1.35,0,2.02,0c0.45,0,0.9,0,1.35-0.01C371.47,311.89,372.6,311.94,373.72,311.85z"/>
				<path class="st0" d="M37.09,306.89c0.06,0.52,0.06,1.05,0.07,1.57c0.02,1.05-0.01,2.1,0.03,3.15c0.04,0.99,0.39,1.47,1.01,1.5
					c0.62,0.03,1.05-0.5,1.09-1.41c0.03-0.75,0.01-1.5,0.01-2.25c-0.01,0-0.01,0-0.02,0c0-0.97,0.07-1.95-0.02-2.92
					c-0.13-1.46-1.16-2.52-2.59-2.66c-0.96-0.09-1.95-0.06-2.92-0.01c-0.68,0.04-1.07,0.46-1.15,1.16c-0.06,0.59-0.05,1.2-0.06,1.79
					c-0.02,1.12-0.02,2.25-0.04,3.37c-0.01,0.51-0.27,0.87-0.81,0.87c-1.95,0.02-3.9,0.04-5.85,0c-0.75-0.01-1.02-0.35-1.1-1.14
					c-0.07-0.67-0.06-1.35-0.18-2c-0.09-0.47-0.46-0.78-0.97-0.78c-0.51,0-0.87,0.31-0.95,0.79c-0.17,1.04-0.2,2.1,0.03,3.13
					c0.19,0.84,0.75,1.45,1.55,1.82c0.56,0.26,1.14,0.36,1.75,0.36c2.25,0,4.5,0,6.75,0c0.22,0,0.45,0,0.67-0.03
					c0.83-0.11,1.22-0.48,1.3-1.28c0.05-0.52,0.03-1.05,0.04-1.57c0.01-1.12-0.01-2.25,0.02-3.37c0.03-0.88,0.42-1.17,1.31-1.05
					C36.7,306.01,37.02,306.28,37.09,306.89z"/>
				<path class="st0" d="M105.51,311.83c1.6-0.25,2.51-1.26,2.63-2.89c0.04-0.52,0.01-1.05,0.01-1.58c0.02,0,0.03,0,0.05,0
					c-0.04-0.67-0.06-1.35-0.14-2.02c-0.05-0.43-0.57-0.76-1.01-0.7c-0.4,0.06-0.72,0.26-0.81,0.66c-0.08,0.36-0.1,0.74-0.11,1.11
					c-0.03,0.75-0.01,1.5-0.07,2.25c-0.05,0.63-0.38,0.97-1.01,1c-0.97,0.05-1.95,0.06-2.93,0.05c-2.21-0.02-2.23-0.05-2.28-2.28
					c-0.01-0.6,0-1.2-0.06-1.8c-0.06-0.59-0.52-1.03-1.01-1.04c-0.51-0.01-0.99,0.41-1.05,0.98c-0.05,0.52-0.05,1.05-0.05,1.57
					c-0.01,1.58-0.01,3.15,0,4.73c0.02,1.92-0.29,1.97-1.89,2.01c-0.22,0.01-0.45,0.05-0.66,0.13c-0.47,0.18-0.7,0.54-0.67,1.04
					c0.03,0.42,0.26,0.74,0.65,0.82c2.09,0.42,4.38,0.03,4.68-2.77c0.12-1.14,0.49-1.22,1.44-1.23c0.75-0.01,1.5,0.01,2.25-0.01
					C104.16,311.9,104.85,311.94,105.51,311.83z"/>
				<path class="st0" d="M214.78,320.48c-1.39-0.43-2.81-0.36-4.23-0.28c-1.34,0.07-1.58,0.32-1.61,1.61
					c-0.03,1.42-0.01,2.84-0.01,4.27c0.01,0,0.02,0,0.03,0c0,1.57-0.01,3.14,0.01,4.72c0.01,0.5,0.27,0.89,0.78,0.94
					c1.8,0.19,3.6,0.21,5.32-0.47c1.9-0.76,3-2.18,3.29-4.2c0.1-0.66,0.11-1.35,0.07-2.01C218.3,322.7,217.03,321.17,214.78,320.48z
					 M216.14,328.6c-0.92,1.54-2.96,2.27-4.93,1.86c-0.45-0.09-0.6-0.43-0.61-0.82c-0.02-1.2-0.01-2.39-0.01-3.59h-0.02
					c0-1.12-0.03-2.24,0.01-3.36c0.04-1.08,0.23-1.23,1.38-1.27c0.07,0,0.15,0,0.23-0.01c1.75-0.05,3.32,0.37,4.18,2.04
					C217.24,325.18,217.12,326.95,216.14,328.6z"/>
				<path class="st0" d="M66.44,325.57c0.24-0.32,0.37-0.49,0.5-0.67c1.48-2.06,0.81-3.95-1.63-4.59c-1.03-0.27-2.09-0.18-3.13-0.12
					c-1.03,0.07-1.3,0.34-1.31,1.41c-0.03,2.92-0.01,5.84-0.01,8.77c0,0.22,0.02,0.45,0.06,0.67c0.06,0.31,0.22,0.6,0.54,0.64
					c1.72,0.24,3.45,0.3,5.06-0.49c1.77-0.87,2.21-3,0.98-4.56C67.24,326.28,66.88,326,66.44,325.57z M62.4,322.11
					c0.03-0.33,0.22-0.56,0.53-0.63c0.73-0.17,1.47-0.18,2.18,0.11c1.22,0.5,1.46,2.03,0.45,2.9c-0.8,0.69-1.74,0.74-2.71,0.5
					c-0.17-0.04-0.37-0.27-0.41-0.45c-0.09-0.43-0.09-0.88-0.12-1.26C62.35,322.85,62.37,322.48,62.4,322.11z M65.33,330.31
					c-0.63,0.3-1.31,0.29-1.99,0.25c-0.68-0.04-0.92-0.28-0.97-0.97c-0.03-0.37-0.01-0.75-0.01-1.13c-0.01,0-0.02,0-0.04,0
					c0.02-0.45,0.03-0.9,0.07-1.35c0.03-0.43,0.3-0.68,0.71-0.73c0.75-0.09,1.5-0.09,2.21,0.23c0.83,0.37,1.3,1.11,1.25,1.96
					C66.52,329.41,66.06,329.96,65.33,330.31z"/>
				<path class="st0" d="M136.25,325.47c1.83-2.14,0.98-4.66-1.8-5.2c-0.72-0.14-1.49-0.12-2.23-0.1c-2.08,0.04-2.18,0.14-2.2,2.15
					c-0.02,2.09,0,4.19,0,6.28c0,0.52-0.01,1.05,0.01,1.57c0.01,0.3,0.01,0.6,0.08,0.89c0.1,0.4,0.39,0.62,0.82,0.58
					c0.33-0.03,0.59-0.25,0.62-0.55c0.07-0.89,0.07-1.79,0.1-2.69c0.05-1.46,0.55-1.84,1.94-1.52c0.83,0.19,1.26,0.78,1.49,1.52
					c0.27,0.85,0.47,1.73,0.73,2.59c0.11,0.38,0.39,0.61,0.8,0.69c0.41,0.08,0.85-0.21,0.76-0.57c-0.41-1.66-0.56-3.42-1.93-4.97
					C135.79,325.85,136.06,325.69,136.25,325.47z M134,325.43c-0.5,0.12-1.04,0.09-1.56,0.09c-0.43,0-0.71-0.25-0.74-0.68
					c-0.04-0.67-0.08-1.34-0.06-2.01c0.04-1.23,0.27-1.44,1.6-1.42c0.07,0.01,0.3,0,0.52,0.04c1.11,0.16,1.85,0.89,1.9,1.88
					C135.71,324.28,135.03,325.19,134,325.43z"/>
				<path class="st0" d="M277.28,323.49c-0.35,0.13-0.69,0.32-0.96,0.56c-0.47,0.4-0.86,0.48-1.36,0.02c-1-0.93-2.18-1.02-3.32-0.34
					c-0.65,0.38-1.03,0.27-1.58-0.14c-0.39-0.29-0.89,0.07-0.9,0.62c-0.03,1.05-0.01,2.1-0.01,3.15h-0.02c0,0.3-0.01,0.6,0,0.9
					c0.02,0.9,0.02,1.8,0.07,2.7c0.02,0.41,0.29,0.7,0.73,0.68c0.44-0.03,0.63-0.35,0.67-0.76c0.03-0.3,0.03-0.6,0.03-0.9
					c0.01-0.98,0.02-1.95,0.02-2.93c0-0.79,0.27-1.47,0.88-1.99c0.88-0.75,2.21-0.44,2.59,0.64c0.15,0.42,0.18,0.88,0.19,1.33
					c0.03,1.05,0,2.1,0.03,3.15c0.01,0.37,0.06,0.75,0.19,1.09c0.06,0.17,0.32,0.31,0.51,0.36c0.31,0.07,0.64-0.06,0.73-0.37
					c0.12-0.42,0.16-0.88,0.17-1.32c0.03-1.13-0.02-2.25,0.05-3.38c0.08-1.19,0.81-1.9,1.81-1.91c0.85-0.01,1.53,0.65,1.69,1.79
					c0.11,0.81,0.06,1.65,0.09,2.47c0.03,0.75,0.04,1.5,0.11,2.24c0.03,0.33,0.33,0.49,0.65,0.48c0.32-0.01,0.59-0.17,0.64-0.51
					c0.06-0.44,0.1-0.9,0.09-1.34c-0.02-1.35,0.07-2.72-0.12-4.04C280.67,323.87,278.95,322.88,277.28,323.49z"/>
				<path class="st0" d="M337.06,323.64c-0.46,0.22-0.87,0.55-1.29,0.82c-0.17-0.07-0.34-0.1-0.44-0.19
					c-1.3-1.16-2.65-1.27-4.09-0.26c-0.29,0.21-0.46,0.1-0.75-0.11c-0.84-0.62-1.28-0.45-1.29,0.44c-0.02,2.1,0,4.2,0.01,6.3
					c0,0.22,0.02,0.48,0.13,0.65c0.11,0.16,0.33,0.3,0.53,0.34c0.32,0.07,0.6-0.09,0.69-0.41c0.08-0.28,0.11-0.59,0.11-0.89
					c0.02-1.05,0.02-2.1,0.02-3.15c0-0.7,0.18-1.33,0.65-1.87c0.91-1.06,2.43-0.83,2.87,0.48c0.19,0.56,0.23,1.17,0.25,1.77
					c0.04,0.97,0.01,1.95,0.04,2.92c0.01,0.29,0.07,0.61,0.2,0.86c0.08,0.16,0.36,0.29,0.55,0.29c0.19,0,0.5-0.14,0.54-0.29
					c0.12-0.42,0.18-0.87,0.19-1.31c0.04-1.2-0.02-2.4,0.07-3.59c0.08-1.01,0.85-1.71,1.73-1.77c0.9-0.06,1.64,0.57,1.76,1.67
					c0.11,1.04,0.06,2.09,0.1,3.14c0.02,0.6,0.04,1.2,0.13,1.79c0.02,0.15,0.32,0.3,0.51,0.36c0.32,0.09,0.64-0.07,0.7-0.38
					c0.1-0.51,0.15-1.04,0.14-1.56c-0.02-1.35,0.06-2.72-0.14-4.04C340.68,323.69,338.84,322.8,337.06,323.64z"/>
				<path class="st0" d="M34.66,320.13c-0.08-0.33-0.36-0.44-0.68-0.45c-0.33-0.01-0.6,0.13-0.69,0.44
					c-0.08,0.28-0.11,0.59-0.13,0.89c-0.07,0.88,0.09,1.79-0.14,2.58c-0.6,0.31-0.97-0.06-1.39-0.15c-2.31-0.48-4.23,0.82-4.57,3.15
					c-0.11,0.73-0.12,1.52,0.03,2.24c0.52,2.64,3.13,3.61,4.96,2.61c0.2-0.11,0.39-0.22,0.58-0.35c0.43-0.3,0.59,0.01,0.89,0.27
					c0.61,0.54,1.17,0.31,1.24-0.43c0.02-0.15,0.02-0.3,0.02-0.45c0-3.15,0-6.31-0.01-9.46C34.75,320.72,34.73,320.42,34.66,320.13z
					 M32.99,328.96c-0.24,0.87-0.85,1.39-1.74,1.52c-0.88,0.13-1.63-0.16-2.16-0.89c-0.83-1.12-0.76-3.13,0.13-4.21
					c0.58-0.71,1.35-0.92,2.21-0.75c0.9,0.18,1.44,0.76,1.61,1.65c0.08,0.44,0.09,0.89,0.14,1.37
					C33.12,328.08,33.11,328.53,32.99,328.96z"/>
				<path class="st0" d="M118.18,327.82c0-1.27,0.01-2.55-0.01-3.82c-0.01-0.36-0.55-0.71-0.82-0.48c-0.62,0.53-1.13,0.33-1.79,0.09
					c-2.05-0.75-3.9,0.15-4.74,2.17c-0.33,0.79-0.37,1.61-0.3,2.43c0.22,2.56,2.31,3.96,4.78,3.23c0.21-0.06,0.41-0.19,0.62-0.27
					c0.42-0.16,0.77,0.11,0.71,0.51c-0.21,1.46-1.1,2.29-2.58,2.29c-0.66,0-1.32-0.22-1.99-0.27c-0.18-0.02-0.46,0.14-0.53,0.3
					c-0.14,0.3,0.03,0.57,0.31,0.74c0.67,0.42,1.43,0.4,2.18,0.4c2.69-0.01,4.03-1.26,4.16-3.93
					C118.23,330.07,118.18,328.95,118.18,327.82L118.18,327.82z M116.51,328.92c-0.26,0.85-0.84,1.4-1.73,1.55
					c-0.92,0.15-1.79-0.25-2.27-1.09c-0.73-1.28-0.67-2.57,0.1-3.81c0.5-0.8,1.39-1.13,2.33-0.93c0.9,0.19,1.42,0.78,1.63,1.64
					c0.1,0.43,0.11,0.88,0.17,1.36C116.67,328.05,116.64,328.5,116.51,328.92z"/>
				<path class="st0" d="M169.16,330.57c-0.65-0.25-1.33-0.15-2-0.15c-2.75-0.02-2.6,0.17-2.57-2.81c0-0.15,0.02-0.3,0.04-0.45
					c0.07-0.42,0.31-0.68,0.73-0.71c0.67-0.04,1.35-0.03,2.03-0.06c0.44-0.02,0.9,0.06,1.31-0.2c0.21-0.14,0.29-0.34,0.23-0.57
					c-0.03-0.13-0.13-0.31-0.24-0.34c-0.35-0.1-0.72-0.17-1.09-0.19c-0.75-0.04-1.5-0.02-2.25-0.07c-0.2-0.01-0.45-0.14-0.57-0.3
					c-0.31-0.4-0.29-2.49,0.02-2.84c0.14-0.15,0.38-0.26,0.58-0.28c0.45-0.05,0.9-0.04,1.35-0.06c0.67-0.03,1.35-0.05,2.02-0.12
					c0.21-0.02,0.4-0.24,0.36-0.48c-0.04-0.2-0.13-0.43-0.28-0.55c-0.16-0.13-0.41-0.18-0.63-0.19c-1.35-0.02-2.71-0.04-4.06-0.01
					c-0.94,0.02-1.2,0.28-1.22,1.23c-0.04,1.5-0.01,3-0.01,4.51h-0.01c0,0.75,0,1.5,0,2.25c0,0.75-0.01,1.5,0.02,2.25
					c0.05,0.99,0.27,1.26,1.18,1.28c1.5,0.04,3,0.01,4.51-0.01c0.21,0,0.43-0.12,0.61-0.23c0.11-0.07,0.2-0.24,0.21-0.37
					C169.46,330.9,169.41,330.67,169.16,330.57z"/>
				<path class="st0" d="M262.17,323.64c-0.14,0.05-0.3,0.09-0.4,0.19c-0.58,0.54-0.96,0.36-1.44-0.21
					c-0.32-0.38-0.92-0.06-0.99,0.43c-0.02,0.15-0.04,0.3-0.04,0.45c0.01,3.15,0.02,6.29,0.03,9.44c0,0.15,0.02,0.3,0.05,0.45
					c0.07,0.44,0.34,0.63,0.78,0.59c0.35-0.03,0.55-0.24,0.57-0.57c0.07-1.03,0.11-2.07,0.17-3.07c0.49-0.17,0.82,0.05,1.15,0.19
					c2.25,1.01,4.98-0.65,5.1-3.37c0.03-0.6,0.04-1.21-0.06-1.79C266.65,323.95,264.44,322.74,262.17,323.64z M265.46,328.76
					c-0.37,1.24-1.3,1.87-2.53,1.77c-1.17-0.1-1.98-0.94-2.12-2.24c-0.02-0.22,0-0.45,0-0.45c-0.04-0.91,0.06-1.57,0.44-2.16
					c0.94-1.48,3.02-1.46,3.92,0.04C265.74,326.68,265.77,327.72,265.46,328.76z"/>
				<path class="st0" d="M94.89,320.89c-0.05-0.89-0.21-1.15-0.71-1.19c-0.51-0.05-0.76,0.27-0.78,1.1
					c-0.03,0.97-0.01,1.94-0.01,3.17c-0.78-0.26-1.19-0.44-1.62-0.53c-1.83-0.41-3.47,0.43-4.24,2.14c-0.45,1-0.53,2.04-0.33,3.09
					c0.5,2.57,2.65,3.74,5.08,2.73c0.59-0.25,1-0.45,1.58,0.07c0.4,0.36,0.92,0.06,0.98-0.44c0.04-0.37,0.05-0.75,0.05-1.12
					c0-2.63,0-5.26-0.01-7.89C94.91,321.64,94.91,321.27,94.89,320.89z M93.34,328.6c-0.18,1.04-0.95,1.78-1.94,1.9
					c-1.1,0.14-2.09-0.48-2.45-1.55c-0.27-0.8-0.27-1.63-0.07-2.44c0.3-1.26,1.22-1.98,2.41-1.92c1.17,0.06,1.97,0.9,2.09,2.22
					c0.03,0.3,0.01,0.6,0.01,1.29C93.38,328,93.39,328.31,93.34,328.6z"/>
				<path class="st0" d="M346.4,323.63c-0.7,0.29-1.29,0.62-1.98-0.06c-0.25-0.25-0.78,0.08-0.84,0.45
					c-0.04,0.29-0.07,0.59-0.07,0.89c0.01,2.77,0.02,5.53,0.03,8.3c0,0.22,0,0.45,0.02,0.67c0.05,0.83,0.29,1.14,0.8,1.08
					c0.6-0.08,0.62-0.53,0.66-0.99c0.08-0.89-0.13-1.79,0.18-2.66c0.58-0.15,1,0.25,1.5,0.37c1.99,0.45,3.76-0.53,4.46-2.46
					c0.31-0.87,0.31-1.76,0.2-2.66C351.11,324.52,349.07,322.51,346.4,323.63z M349.42,329.36c-0.5,0.92-1.4,1.33-2.47,1.15
					c-0.89-0.15-1.67-0.84-1.82-1.76c-0.11-0.66-0.12-1.35-0.04-2.01c0.14-1.24,1.06-2.07,2.23-2.14c1.11-0.06,1.94,0.53,2.34,1.72
					c0.14,0.42,0.19,0.87,0.24,1.12C349.87,328.25,349.71,328.83,349.42,329.36z"/>
				<path class="st0" d="M77.15,327.71c0-0.98,0.01-1.95,0-2.93c0-0.3-0.01-0.62-0.11-0.89c-0.07-0.18-0.29-0.35-0.48-0.41
					c-0.29-0.1-0.62-0.02-0.78,0.27c-0.14,0.26-0.22,0.56-0.23,0.85c-0.03,0.98-0.01,1.95-0.04,2.93c-0.02,0.52-0.03,1.06-0.17,1.56
					c-0.25,0.89-1.17,1.45-2.09,1.35c-0.77-0.09-1.33-0.6-1.47-1.48c-0.1-0.66-0.09-1.35-0.11-2.02c-0.03-0.9-0.01-1.8-0.06-2.7
					c-0.03-0.52-0.45-0.85-0.9-0.78c-0.43,0.07-0.67,0.36-0.67,0.77c-0.02,1.58-0.13,3.17,0.03,4.73c0.25,2.45,2.13,3.45,4.39,2.49
					c0.14-0.06,0.27-0.13,0.39-0.23c0.46-0.39,0.7-0.17,1.09,0.21c0.55,0.53,1.16,0.21,1.19-0.55
					C77.17,329.82,77.15,328.76,77.15,327.71L77.15,327.71z"/>
				<path class="st0" d="M323.35,323.31c-2.47-0.03-4.13,1.68-4.14,4.27c-0.02,2.5,1.56,4.21,3.92,4.22
					c2.41,0.02,4.22-1.81,4.22-4.27C327.34,325.11,325.67,323.34,323.35,323.31z M323.86,330.48c-0.99,0.27-1.99-0.09-2.56-0.92
					c-0.76-1.12-0.77-2.93,0.01-4.03c0.46-0.65,1.1-0.99,2.14-0.96c0.07,0.01,0.37,0.03,0.65,0.14c0.98,0.36,1.61,1.58,1.57,2.97
					C325.63,329.07,324.91,330.19,323.86,330.48z"/>
				<path class="st0" d="M253.31,323.31c-2.46,0.04-4.04,1.78-4.01,4.4c-0.08,2.8,2.21,4.17,4.05,4.1c2.39-0.09,4.16-1.97,4.08-4.42
					C257.36,324.96,255.65,323.27,253.31,323.31z M255.01,329.8c-0.95,1.07-2.66,1.03-3.5-0.13c-0.81-1.12-0.87-2.36-0.36-3.61
					c0.43-1.04,1.18-1.5,2.26-1.5c1.03,0,1.68,0.57,2.05,1.45c0.2,0.47,0.26,1,0.3,1.17C255.8,328.38,255.58,329.15,255.01,329.8z"
					/>
				<path class="st0" d="M315.8,321.48c0.15,0.01,0.3,0.02,0.45,0.03c0.37,0.05,0.74,0.12,1.11,0.15c0.37,0.03,0.55-0.23,0.6-0.54
					c0.05-0.33-0.13-0.56-0.44-0.68c-1.01-0.41-2.08-0.37-3.11-0.21c-2.33,0.36-4.02,1.58-4.78,3.91c-0.76,2.35-0.15,5.01,1.6,6.4
					c1.93,1.53,4.12,1.63,6.39,0.88c0.3-0.1,0.42-0.41,0.28-0.74c-0.09-0.22-0.26-0.36-0.51-0.35c-0.82,0.05-1.65,0.19-2.46,0.15
					c-2.09-0.11-3.47-1.38-3.85-3.44C310.55,324.17,312.13,321.27,315.8,321.48z"/>
				<path class="st0" d="M189.64,325.55c-0.37-1.34-1.17-2.08-2.51-2.21c-0.59-0.06-1.19,0.02-1.78,0.1
					c-0.29,0.04-0.57,0.17-0.84,0.3c-0.28,0.14-0.49,0.36-0.36,0.71c0.09,0.22,0.27,0.33,0.52,0.3c0.59-0.07,1.19-0.16,1.78-0.18
					c0.54-0.02,1.02,0.16,1.38,0.62c0.39,0.49,0.25,1.12-0.33,1.2c-0.82,0.11-1.63,0.24-2.4,0.57c-1.47,0.64-2.17,1.97-1.74,3.22
					c0.44,1.28,1.81,1.91,3.33,1.52c0.22-0.06,0.43-0.15,0.62-0.26c0.5-0.29,0.89-0.25,1.41,0.1c0.57,0.38,1.05,0.05,1.08-0.6
					c0.03-0.75,0.01-1.5,0.01-2.51C189.77,327.64,189.93,326.58,189.64,325.55z M186.27,330.56c-0.62,0.01-1.11-0.27-1.27-0.73
					c-0.21-0.57-0.02-1.22,0.41-1.64c0.41-0.39,0.92-0.48,1.44-0.58c1.01-0.2,1.45,0.2,1.34,1.17
					C188.07,329.92,187.38,330.55,186.27,330.56z"/>
				<path class="st0" d="M46.21,323.98c-0.08,0.07-0.1,0.29-0.06,0.42c0.03,0.12,0.17,0.31,0.26,0.31c0.44-0.01,0.88-0.08,1.32-0.12
					c0.52-0.05,1.05-0.07,1.55,0.14c0.5,0.21,0.88,0.82,0.75,1.25c-0.14,0.46-0.55,0.41-0.9,0.48c-0.58,0.12-1.17,0.25-1.74,0.4
					c-0.59,0.16-1.09,0.5-1.49,0.96c-0.57,0.67-0.81,1.44-0.53,2.3c0.3,0.94,1,1.48,1.95,1.65c0.59,0.1,1.2,0.07,1.75-0.22
					c0.62-0.33,1.16-0.49,1.83,0.04c0.39,0.31,0.89-0.06,0.92-0.59c0.03-0.75,0.01-1.5,0.01-2.25c0.02,0,0.04,0,0.06,0
					c-0.05-0.97,0-1.96-0.18-2.91C51.24,323.4,48.19,322.39,46.21,323.98z M48.29,330.56c-0.56,0.01-1.05-0.15-1.28-0.71
					c-0.23-0.57-0.05-1.22,0.39-1.64c0.41-0.39,0.92-0.49,1.43-0.59c1.02-0.2,1.46,0.18,1.36,1.15
					C50.08,329.9,49.4,330.55,48.29,330.56z"/>
				<path class="st0" d="M377.27,323.57c-0.28-0.17-0.57-0.18-0.84-0.02c-0.42,0.24-0.55,0.69-0.7,1.11
					c-0.51,1.48-1.02,2.96-1.53,4.44c-0.14-0.02-0.28-0.04-0.43-0.06c-0.53-1.39-1.04-2.78-1.59-4.16
					c-0.16-0.41-0.35-0.83-0.62-1.18c-0.25-0.32-0.66-0.34-1.02-0.14c-0.31,0.17-0.32,0.49-0.23,0.78c0.16,0.5,0.35,0.99,0.55,1.47
					c0.62,1.53,1.21,3.06,1.88,4.56c0.44,0.97,0.19,1.75-0.49,2.44c-0.42,0.42-0.91,0.77-1.37,1.14c-0.35,0.29-0.34,0.63-0.13,0.99
					c0.19,0.33,0.49,0.32,0.77,0.17c0.4-0.2,0.8-0.42,1.14-0.7c0.84-0.67,1.37-1.59,1.78-2.56c1.01-2.42,1.96-4.85,2.93-7.28
					c0.06-0.14,0.1-0.29,0.11-0.43C377.51,323.93,377.5,323.71,377.27,323.57z"/>
				<path class="st0" d="M143.18,323.33c-1.8-0.23-3.53,0.75-4.07,2.47c-1.05,3.36,0.47,6.31,4.48,5.99
					c0.44-0.04,0.88-0.17,1.31-0.28c0.13-0.04,0.28-0.14,0.36-0.25c0.08-0.11,0.13-0.27,0.1-0.4c-0.02-0.12-0.15-0.31-0.24-0.32
					c-0.36-0.04-0.74-0.02-1.1-0.02v-0.01c-0.52,0-1.05,0.04-1.57-0.01c-0.89-0.09-1.5-0.61-1.9-1.4c-0.34-0.67-0.07-1.2,0.67-1.22
					c1.35-0.04,2.69-0.02,4.04-0.06c0.65-0.02,0.9-0.37,0.86-1.04C146,324.91,144.84,323.54,143.18,323.33z M143.75,326.77
					c-0.15,0.02-0.29,0.04-0.44,0.04c-0.37,0.01-0.74,0-1.1,0v0.01c-0.15,0-0.3,0.01-0.44,0c-0.42-0.04-0.9,0.1-1.21-0.32
					c-0.23-0.31,0.1-1.08,0.63-1.53c1.04-0.88,2.61-0.56,3.15,0.64C144.59,326.17,144.33,326.68,143.75,326.77z"/>
				<path class="st0" d="M241.29,323.36c-1.75-0.36-3.53,0.55-4.23,2.2c-0.52,1.21-0.56,2.5-0.16,3.74c0.74,2.3,4.17,3.37,6.21,1.98
					c0.09-0.06,0.14-0.27,0.12-0.39c-0.02-0.12-0.13-0.32-0.22-0.33c-0.36-0.05-0.73-0.05-1.1-0.07c0,0.01,0,0.02,0,0.03
					c-0.52,0-1.05,0.04-1.57-0.01c-0.89-0.09-1.51-0.6-1.92-1.38c-0.35-0.67-0.09-1.23,0.62-1.25c1.35-0.04,2.69-0.02,4.04-0.06
					c0.67-0.02,0.93-0.36,0.89-1.01C243.88,325.04,242.82,323.67,241.29,323.36z M241.64,326.76c-0.15,0.03-0.29,0.05-0.44,0.05
					c-0.37,0.01-0.74,0-1.1,0v0.01c-0.22,0-0.44,0.01-0.66,0c-0.36-0.02-0.74,0.04-1.01-0.28c-0.22-0.25,0.01-0.94,0.43-1.38
					c1.03-1.07,2.71-0.86,3.33,0.42C242.44,326.12,242.2,326.67,241.64,326.76z"/>
				<path class="st0" d="M364.74,323.49c-0.21,0.07-0.46,0.13-0.61,0.28c-0.58,0.54-0.96,0.37-1.46-0.17
					c-0.34-0.36-0.95-0.03-0.97,0.47c-0.03,1.12-0.01,2.24-0.01,3.37c-0.01,0-0.02,0-0.03,0c0,0.45,0,0.9,0,1.35
					c0,0.52-0.01,1.05,0.01,1.57c0.01,0.3,0.02,0.61,0.12,0.88c0.11,0.31,0.4,0.46,0.72,0.38c0.2-0.05,0.45-0.18,0.52-0.34
					c0.12-0.26,0.14-0.58,0.14-0.88c0.02-0.97,0.01-1.95,0.02-2.92c0-0.53,0.03-1.05,0.25-1.54c0.41-0.88,1.27-1.39,2.16-1.26
					c0.82,0.12,1.43,0.72,1.52,1.7c0.09,0.97,0.05,1.94,0.08,2.92c0.02,0.6,0.02,1.2,0.09,1.79c0.04,0.31,0.3,0.52,0.62,0.55
					c0.42,0.05,0.81-0.16,0.84-0.56c0.13-1.86,0.33-3.75-0.15-5.58C368.14,323.71,366.5,322.91,364.74,323.49z"/>
				<path class="st0" d="M153.84,325.95c-0.07-1.04-0.58-1.88-1.55-2.3c-1.31-0.58-2.63-0.47-3.87,0.25
					c-0.19,0.11-0.27,0.36-0.13,0.59c0.12,0.2,0.3,0.32,0.55,0.29c0.59-0.07,1.18-0.18,1.77-0.21c0.45-0.03,0.9,0.07,1.22,0.44
					c0.25,0.29,0.47,0.6,0.36,1.01c-0.1,0.34-0.41,0.4-0.71,0.42c-1.13,0.1-2.23,0.32-3.14,1.07c-0.84,0.69-1.16,1.86-0.74,2.85
					c0.38,0.92,1.15,1.34,2.11,1.44c0.7,0.08,1.33-0.13,1.95-0.43c0.26-0.13,0.49-0.21,0.82-0.12c1.41,0.37,1.42,0.34,1.44-1.03
					c0.01-0.52,0-1.05,0-1.57c-0.02,0-0.04,0-0.06,0C153.86,327.74,153.91,326.84,153.84,325.95z M150.37,330.58
					c-0.68,0-1.19-0.38-1.34-0.97c-0.14-0.59,0.12-1.19,0.66-1.54c0.46-0.29,1.24-0.5,1.69-0.51c0.68,0,0.97,0.21,1.01,0.64
					C152.55,329.61,151.71,330.58,150.37,330.58z"/>
				<path class="st0" d="M224.37,323.35c-1.79-0.29-3.47,0.64-4.16,2.34c-0.46,1.14-0.57,2.31-0.17,3.51
					c0.78,2.34,4.02,3.47,6.15,2.13c0.1-0.06,0.14-0.25,0.16-0.39c0.03-0.28-0.2-0.4-0.41-0.43c-0.29-0.04-0.6-0.01-0.89-0.01
					c0,0,0,0,0,0c-0.52,0-1.05,0.02-1.57-0.01c-0.55-0.03-0.99-0.31-1.38-0.69c-0.52-0.5-0.76-1.22-0.51-1.59
					c0.3-0.46,0.79-0.34,1.21-0.36c0.75-0.03,1.5-0.01,2.25-0.01c0.45,0,0.9,0,1.35-0.04c0.53-0.05,0.8-0.37,0.77-0.9
					C227.09,325.01,225.99,323.61,224.37,323.35z M224.87,326.76c-0.51,0.06-1.03,0.06-1.54,0.08c0-0.01,0-0.02,0-0.03
					c-0.22,0-0.44,0.02-0.66,0c-0.42-0.04-0.96,0.06-1.09-0.5c-0.11-0.46,0.18-0.85,0.5-1.16c1.07-1.05,2.7-0.82,3.34,0.45
					C225.7,326.15,225.45,326.69,224.87,326.76z"/>
				<path class="st0" d="M288.11,323.51c-1.57-0.58-3.44,0-4.36,1.44c-0.95,1.48-1.12,3.1-0.4,4.72c0.91,2.06,4.12,2.91,6,1.62
					c0.09-0.06,0.1-0.26,0.13-0.39c0.04-0.18-0.05-0.31-0.24-0.32c-0.37-0.03-0.74-0.04-1.1-0.07c0,0.02,0,0.04,0,0.06
					c-0.52-0.02-1.05-0.01-1.57-0.08c-0.8-0.1-1.36-0.57-1.77-1.25c-0.43-0.71-0.11-1.34,0.74-1.37c1.35-0.05,2.69-0.03,4.04-0.07
					c0.42-0.01,0.7-0.27,0.72-0.71C290.37,325.48,289.46,324,288.11,323.51z M287.89,326.78c-0.15,0.01-0.29,0.03-0.44,0.03
					c-0.29,0-0.59,0-1.29,0c-0.03,0-0.47-0.01-0.91-0.05c-0.39-0.04-0.65-0.45-0.53-0.78c0.35-0.93,1.04-1.45,1.98-1.48
					c0.81-0.03,1.45,0.29,1.82,1.01C288.85,326.16,288.63,326.73,287.89,326.78z"/>
				<path class="st0" d="M108.38,325.41c-0.53-1.64-2.06-2.45-3.73-1.96c-0.28,0.08-0.59,0.19-0.81,0.37
					c-0.51,0.41-0.81,0.29-1.28-0.15c-0.48-0.46-1.06-0.16-1.08,0.5c-0.03,1.12-0.01,2.25-0.01,3.37h-0.01
					c0,0.97-0.01,1.95,0.01,2.92c0.01,0.29,0.04,0.61,0.17,0.86c0.08,0.16,0.35,0.3,0.54,0.31c0.19,0.01,0.5-0.11,0.56-0.25
					c0.14-0.33,0.22-0.71,0.23-1.07c0.03-1.05,0.02-2.1,0.03-3.14c0-0.62,0.14-1.19,0.53-1.68c0.51-0.63,1.16-0.93,1.98-0.78
					c0.74,0.14,1.29,0.7,1.41,1.55c0.09,0.66,0.07,1.34,0.09,2.02c0.03,0.9,0.02,1.8,0.07,2.69c0.02,0.42,0.3,0.67,0.73,0.69
					c0.44,0.02,0.74-0.24,0.77-0.65c0.11-1.72,0.18-3.44-0.07-5.15C108.48,325.7,108.43,325.55,108.38,325.41z"/>
				<path class="st0" d="M41.7,323.49c-1.41-0.49-3.09-0.01-4.07,1.15c-1.15,1.37-1.36,3.71-0.48,5.28
					c1.05,1.87,4.11,2.58,5.93,1.36c0.09-0.06,0.1-0.25,0.13-0.39c0.04-0.19-0.05-0.31-0.24-0.32c-0.37-0.03-0.74-0.04-0.9-0.05
					c-0.72,0-1.25,0.03-1.77-0.01c-0.72-0.04-1.27-0.45-1.67-1.02c-0.26-0.36-0.43-0.8-0.19-1.26c0.21-0.41,0.63-0.35,0.98-0.37
					c0.67-0.03,1.35-0.01,2.02-0.02c0.52-0.01,1.05,0.01,1.57-0.03c0.66-0.05,0.91-0.35,0.89-1.02
					C43.87,325.18,43.05,323.95,41.7,323.49z M41.79,326.76c-0.51,0.05-1.03,0.06-1.5,0.09c-0.48-0.03-0.92-0.04-1.36-0.09
					c-0.36-0.04-0.61-0.49-0.5-0.82c0.31-0.93,1.01-1.42,2-1.43c0.92-0.01,1.49,0.38,1.86,1.27
					C42.48,326.24,42.26,326.71,41.79,326.76z"/>
				<path class="st0" d="M202.2,323.47c-1.43-0.46-3.13,0-4.04,1.21c-1.17,1.56-1.37,3.31-0.52,5.07c0.78,1.61,2.23,2.12,3.92,2.05
					c0.52-0.02,1.03-0.12,1.54-0.23c0.2-0.04,0.4-0.19,0.56-0.34c0.08-0.08,0.12-0.27,0.09-0.39c-0.03-0.11-0.16-0.28-0.26-0.29
					c-0.37-0.03-0.74-0.01-1.11-0.01c0-0.01,0-0.02,0-0.03c-0.52,0-1.05,0.04-1.57-0.01c-0.8-0.08-1.37-0.55-1.76-1.24
					c-0.41-0.74-0.1-1.35,0.75-1.38c1.19-0.04,2.39-0.01,3.59-0.05c0.83-0.03,1.09-0.33,1.07-1.08
					C204.39,325.13,203.56,323.91,202.2,323.47z M202.51,326.7c-0.58,0.1-1.17,0.11-1.54,0.15c-0.58-0.03-0.95-0.03-1.31-0.07
					c-0.62-0.06-0.88-0.56-0.61-1.09c0.45-0.9,1.19-1.26,2.17-1.17c0.9,0.08,1.45,0.56,1.66,1.5
					C202.95,326.32,202.85,326.64,202.51,326.7z"/>
				<path class="st0" d="M359.13,325.95c-0.03-0.79-0.35-1.45-0.97-1.96c-1.09-0.89-3.26-0.93-4.45-0.05
					c-0.09,0.06-0.11,0.28-0.08,0.41c0.03,0.12,0.16,0.32,0.24,0.32c0.44-0.01,0.88-0.07,1.32-0.1c0.53-0.04,1.05-0.06,1.55,0.16
					c0.48,0.21,0.89,0.87,0.76,1.26c-0.15,0.45-0.56,0.4-0.92,0.47c-0.51,0.1-1.03,0.21-1.54,0.33c-0.52,0.12-0.98,0.36-1.39,0.71
					c-0.87,0.74-1.18,1.84-0.78,2.84c0.34,0.88,1.25,1.47,2.33,1.45c0.44-0.01,0.91-0.08,1.3-0.26c0.66-0.32,1.21-0.36,1.87,0.07
					c0.41,0.27,0.84-0.12,0.85-0.69c0.02-0.75,0-1.5,0-2.25h-0.1C359.13,327.75,359.16,326.85,359.13,325.95z M355.62,330.57
					c-0.57-0.01-1-0.23-1.21-0.8c-0.2-0.54-0.11-1.04,0.29-1.44c0.69-0.69,1.57-0.85,2.48-0.71c0.58,0.09,0.5,0.65,0.51,1.07
					C357.56,329.94,356.83,330.6,355.62,330.57z"/>
				<path class="st0" d="M312.16,310.76c0.06,0.59,0.52,1.02,1.01,1.01c0.49-0.01,0.96-0.44,1.05-1c0.05-0.29,0.06-0.6,0.06-0.9
					c0-3.08,0.01-6.15,0-9.22c0-0.37-0.02-0.75-0.12-1.11c-0.13-0.47-0.47-0.78-0.98-0.78c-0.5,0-0.88,0.27-0.98,0.76
					c-0.09,0.43-0.09,0.89-0.1,1.34c-0.01,1.42,0,2.85,0,4.27c0,1.35-0.01,2.7,0,4.05C312.11,309.71,312.1,310.24,312.16,310.76z"/>
				<path class="st0" d="M297.3,323.52c-0.89-0.35-1.79-0.29-2.6,0.19c-0.59,0.35-1.02,0.4-1.59-0.09
					c-0.39-0.33-0.93-0.01-0.95,0.51c-0.03,1.05-0.01,2.1-0.01,3.15c0.01,0,0.01,0,0.01,0c0,1.2-0.02,2.4,0.01,3.6
					c0.01,0.4,0.24,0.72,0.69,0.74c0.45,0.02,0.71-0.25,0.72-0.67c0.04-1.12,0.03-2.25,0.07-3.37c0.02-0.52,0.04-1.06,0.19-1.55
					c0.29-0.9,1.2-1.44,2.1-1.37c0.82,0.07,1.47,0.67,1.62,1.61c0.1,0.59,0.08,1.2,0.1,1.79c0.03,0.97,0.02,1.95,0.07,2.92
					c0.02,0.43,0.31,0.67,0.75,0.63c0.33-0.03,0.58-0.22,0.61-0.55c0.15-1.8,0.2-3.6-0.03-5.39
					C298.94,324.63,298.28,323.91,297.3,323.52z"/>
				<path class="st0" d="M45.71,310.96h0.01c0-1.04,0.01-2.09,0-3.14c0-0.37-0.03-0.75-0.09-1.11c-0.08-0.44-0.54-0.77-0.99-0.72
					c-0.49,0.05-0.84,0.33-0.91,0.83c-0.06,0.44-0.07,0.89-0.07,1.34c-0.01,1.72,0.01,3.43-0.01,5.15c-0.02,1.69-0.07,1.71-1.7,1.93
					c-0.29,0.04-0.6,0.05-0.87,0.15c-0.46,0.17-0.74,0.52-0.69,1.02c0.05,0.49,0.37,0.82,0.85,0.9c0.44,0.07,0.89,0.08,1.34,0.06
					c1.95-0.08,3.03-1.11,3.12-3.05C45.76,313.2,45.71,312.08,45.71,310.96z"/>
				<path class="st0" d="M234.98,323.42c-0.41,0.07-0.7,0.29-0.84,0.66c-0.37,0.99-0.67,2-1.07,2.97c-0.3,0.74-0.37,1.61-1.04,2.23
					c-0.36-0.33-0.5-0.76-0.65-1.18c-0.42-1.21-0.86-2.41-1.29-3.61c-0.13-0.36-0.26-0.71-0.59-0.92c-0.28-0.18-0.59-0.2-0.86-0.07
					c-0.3,0.14-0.4,0.44-0.28,0.76c0.86,2.24,1.73,4.49,2.6,6.73c0.18,0.47,0.54,0.7,1.04,0.72c0.54,0.02,0.84-0.32,1.01-0.75
					c0.9-2.23,1.77-4.47,2.65-6.71c0.03-0.07,0.04-0.14,0.06-0.22C235.79,323.66,235.38,323.35,234.98,323.42z"/>
				<path class="st0" d="M244.48,299.4c-0.09-0.41-0.44-0.59-0.84-0.61c-0.41-0.03-0.78,0.17-0.88,0.55
					c-0.13,0.5-0.17,1.03-0.17,1.55c-0.02,2.48-0.01,4.95-0.01,7.43c0,0.75-0.02,1.5,0.03,2.25c0.05,0.78,0.48,1.22,1.07,1.17
					c0.51-0.04,0.85-0.44,0.91-1.1c0.04-0.45,0.03-0.9,0.04-1.35c0.01-1.35,0-2.7,0-4.05c0-1.5,0.01-3-0.01-4.5
					C244.61,300.29,244.58,299.83,244.48,299.4z"/>
				<path class="st0" d="M174.07,326.87c-0.33-0.18-0.68-0.33-0.98-0.54c-0.33-0.24-0.43-0.61-0.34-1c0.1-0.4,0.41-0.66,0.8-0.69
					c0.59-0.05,1.2,0,1.79-0.03c0.11,0,0.23-0.17,0.3-0.29c0.14-0.24,0.01-0.47-0.17-0.58c-1.15-0.69-2.31-0.6-3.39,0.11
					c-1.38,0.91-1.39,2.6-0.06,3.57c0.36,0.26,0.79,0.42,1.19,0.64c0.33,0.18,0.67,0.34,0.96,0.57c0.39,0.31,0.48,0.77,0.35,1.22
					c-0.12,0.38-0.45,0.6-0.84,0.66c-0.37,0.05-0.75,0.05-0.74,0.04c-0.76-0.04-1.13-0.09-1.5-0.07c-0.11,0.01-0.29,0.18-0.29,0.28
					c-0.01,0.2,0.01,0.51,0.14,0.59c1.19,0.79,3.2,0.62,4.2-0.32c1.03-0.96,1.02-2.43-0.07-3.35
					C175.03,327.33,174.52,327.13,174.07,326.87z"/>
				<path class="st0" d="M124.11,327.27c-0.59-0.32-1.21-0.6-1.78-0.95c-0.34-0.2-0.49-0.57-0.39-0.97c0.1-0.4,0.4-0.66,0.79-0.7
					c0.52-0.06,1.05-0.01,1.57-0.02c0.32,0,0.59-0.11,0.6-0.49c0.01-0.23-0.1-0.43-0.33-0.53c-1.19-0.51-2.35-0.47-3.39,0.35
					c-1.09,0.86-1.11,2.46-0.03,3.31c0.46,0.37,1.04,0.59,1.56,0.87c0.96,0.51,1.39,1.13,1.12,1.69c-0.37,0.73-1.06,0.76-1.75,0.71
					c-0.45-0.03-0.89-0.14-1.33-0.16c-0.23-0.01-0.41,0.17-0.46,0.41c-0.04,0.23,0.02,0.44,0.23,0.57c0.53,0.34,1.11,0.44,1.67,0.43
					c0.84,0.02,1.22-0.05,1.8-0.32c1.11-0.5,1.63-1.39,1.45-2.52C125.32,328.16,124.8,327.65,124.11,327.27z"/>
				<path class="st0" d="M157.71,320.07c-0.08-0.32-0.39-0.41-0.71-0.41c-0.32,0-0.6,0.12-0.7,0.43c-0.09,0.28-0.14,0.58-0.14,0.88
					c-0.01,3.14-0.01,6.28,0.01,9.41c0,0.29,0.05,0.6,0.16,0.87c0.12,0.28,0.38,0.44,0.72,0.43c0.33,0,0.61-0.16,0.7-0.45
					c0.11-0.35,0.13-0.73,0.13-1.1c0.01-1.42,0.01-2.84,0.01-4.26h0.01c0-1.49,0.01-2.99-0.01-4.48
					C157.86,320.95,157.81,320.5,157.71,320.07z"/>
				<path class="st0" d="M55.72,320.23c-0.08-0.43-0.42-0.59-0.84-0.56c-0.33,0.02-0.57,0.2-0.63,0.53
					c-0.06,0.29-0.08,0.6-0.08,0.89c-0.01,3.08-0.01,6.15,0,9.22c0,0.3,0.01,0.61,0.09,0.89c0.09,0.3,0.35,0.46,0.69,0.46
					c0.34,0.01,0.62-0.16,0.7-0.45c0.12-0.43,0.16-0.88,0.16-1.33c0.02-1.42,0.01-2.85,0.01-4.27h0c0-1.35,0.01-2.7,0-4.05
					C55.82,321.12,55.81,320.66,55.72,320.23z"/>
				<path class="st0" d="M85.06,320.01c-0.05-0.15-0.32-0.29-0.52-0.33c-0.29-0.06-0.64,0-0.77,0.3c-0.14,0.34-0.21,0.71-0.22,1.08
					c-0.02,1.49-0.01,2.99-0.01,4.48h0.03c0,1.72-0.02,3.44,0.01,5.16c0.01,0.71,0.4,1.06,0.93,1c0.56-0.07,0.7-0.48,0.73-0.96
					c0.02-0.22,0.02-0.45,0.02-0.67c0-2.91,0.01-5.83-0.01-8.74C85.25,320.88,85.18,320.43,85.06,320.01z"/>
				<path class="st0" d="M194.84,323.35c-0.52-0.05-0.83-0.27-0.85-0.83c-0.01-0.3-0.02-0.62-0.13-0.88
					c-0.07-0.16-0.32-0.32-0.51-0.33c-0.2-0.02-0.41,0.13-0.61,0.22c-0.06,0.03-0.11,0.12-0.12,0.18c-0.13,0.82-0.32,1.57-1.2,1.97
					c-0.21,0.1-0.24,0.64,0.08,0.75c0.91,0.31,0.97,0.99,0.96,1.78c-0.02,1.12-0.03,2.25,0.04,3.37c0.11,1.58,0.91,2.25,2.59,2.21
					c0.12-0.04,0.34-0.07,0.53-0.18c0.11-0.06,0.21-0.22,0.24-0.35c0.06-0.22,0.02-0.45-0.2-0.58c-0.12-0.08-0.27-0.14-0.41-0.16
					c-0.93-0.1-1.26-0.69-1.27-1.54c-0.01-0.97-0.03-1.95-0.01-2.92c0.01-0.37,0.02-0.77,0.18-1.09c0.24-0.48,0.79-0.28,1.2-0.39
					c0.07-0.02,0.15-0.02,0.22-0.05c0.21-0.09,0.45-0.2,0.41-0.45c-0.03-0.2-0.14-0.45-0.29-0.54
					C195.44,323.42,195.13,323.38,194.84,323.35z"/>
				<path class="st0" d="M303.58,325.48c0.01-0.53,0.28-0.82,0.82-0.84c0.15,0,0.3-0.02,0.45-0.04c0.38-0.05,0.77-0.15,0.72-0.64
					c-0.03-0.32-0.3-0.49-0.62-0.55c-0.15-0.03-0.3-0.05-0.44-0.06c-0.64-0.01-0.94-0.32-0.96-0.97c-0.01-0.29-0.06-0.6-0.18-0.86
					c-0.16-0.34-0.51-0.27-0.79-0.16c-0.29,0.11-0.49,0.35-0.49,0.68c0,0.76-0.37,1.2-1.02,1.57c-0.36,0.21-0.3,0.74,0.12,0.89
					c0.7,0.25,0.85,0.73,0.85,1.38c0,1.27-0.03,2.55,0.06,3.81c0.11,1.44,0.89,2.08,2.38,2.09c0.15-0.02,0.3-0.03,0.44-0.05
					c0.35-0.05,0.53-0.31,0.53-0.61c0-0.18-0.19-0.51-0.32-0.52c-1.44-0.11-1.63-1.06-1.59-2.22
					C303.59,327.43,303.57,326.46,303.58,325.48z"/>
				<path class="st0" d="M180.85,323.35c-0.52-0.05-0.83-0.27-0.85-0.83c-0.01-0.3-0.02-0.61-0.13-0.88
					c-0.07-0.16-0.33-0.32-0.51-0.33c-0.2-0.02-0.46,0.09-0.6,0.23c-0.14,0.14-0.24,0.39-0.25,0.6c-0.02,0.67-0.32,1.06-0.91,1.39
					c-0.47,0.26-0.44,0.76,0.1,1.01c0.59,0.27,0.75,0.66,0.76,1.22c0.01,1.27-0.02,2.55,0.06,3.81c0.1,1.58,0.9,2.25,2.59,2.22
					c0.11-0.04,0.34-0.07,0.53-0.17c0.11-0.06,0.21-0.22,0.24-0.36c0.06-0.22,0.02-0.45-0.19-0.59c-0.12-0.08-0.27-0.14-0.41-0.16
					c-0.93-0.1-1.26-0.69-1.27-1.54c-0.01-0.97-0.03-1.94-0.01-2.92c0.01-0.37,0.02-0.77,0.18-1.09c0.24-0.47,0.79-0.28,1.2-0.39
					c0.07-0.02,0.15-0.02,0.22-0.05c0.21-0.09,0.44-0.2,0.4-0.45c-0.03-0.2-0.14-0.45-0.3-0.54
					C181.46,323.42,181.15,323.38,180.85,323.35z"/>
				<path class="st0" d="M247.07,319.98c-0.09-0.26-0.35-0.29-0.56-0.27c-0.19,0.02-0.48,0.14-0.54,0.28
					c-0.13,0.34-0.19,0.71-0.2,1.08c-0.02,1.49-0.01,2.99-0.01,4.48h0c0,1.57-0.01,3.14,0.01,4.71c0.01,0.36,0.07,0.74,0.2,1.08
					c0.06,0.15,0.36,0.28,0.54,0.28c0.19,0,0.43-0.14,0.55-0.29c0.12-0.16,0.17-0.41,0.17-0.63c0.01-3.36,0.01-6.72,0-10.08
					C247.24,320.4,247.15,320.18,247.07,319.98z"/>
				<path class="st0" d="M24.86,320.99c-0.01-0.42-0.29-0.68-0.74-0.64c-0.33,0.02-0.55,0.21-0.61,0.54
					c-0.04,0.22-0.07,0.44-0.07,0.67c0,2.99,0,5.99,0.01,8.98c0,0.22,0.03,0.45,0.1,0.66c0.11,0.32,0.37,0.48,0.69,0.42
					c0.2-0.04,0.45-0.17,0.53-0.33c0.12-0.26,0.15-0.58,0.15-0.87c0.01-1.42,0.01-2.84,0.01-4.27c-0.01,0-0.03,0-0.04,0
					C24.87,324.43,24.88,322.71,24.86,320.99z"/>
				<path class="st0" d="M81.13,324.07c-0.07-0.42-0.36-0.64-0.77-0.65c-0.42-0.01-0.78,0.22-0.79,0.62
					c-0.04,2.3-0.05,4.6-0.04,6.91c0,0.5,0.46,0.82,0.91,0.76c0.42-0.06,0.69-0.32,0.7-0.73c0.03-1.11,0.01-2.23,0.01-3.34
					c0.02,0,0.04,0,0.06,0c0-0.89,0.01-1.78,0-2.68C81.2,324.65,81.18,324.36,81.13,324.07z"/>
				<path class="st0" d="M98.2,323.5c-0.44-0.02-0.73,0.24-0.73,0.66c-0.03,2.24-0.03,4.48-0.02,6.72c0,0.4,0.22,0.72,0.67,0.74
					c0.44,0.02,0.72-0.24,0.73-0.66c0.03-1.19,0.01-2.39,0.01-3.58c0.01,0,0.01,0,0.02,0c0-1.05,0.02-2.09-0.01-3.14
					C98.86,323.84,98.64,323.52,98.2,323.5z"/>
				<path class="st0" d="M272.78,303.38c0.62,0.06,1.19-0.43,1.22-1.04c0.03-0.62-0.47-1.16-1.09-1.17
					c-0.55-0.01-0.99,0.38-1.07,0.93C271.74,302.74,272.17,303.32,272.78,303.38z"/>
				<path class="st0" d="M369.27,303.37c0.6,0.04,1.11-0.48,1.1-1.14c-0.01-0.56-0.41-1.02-0.93-1.06c-0.64-0.05-1.19,0.39-1.25,1
					C368.13,302.75,368.66,303.32,369.27,303.37z"/>
				<path class="st0" d="M370.86,302.34c0.06,0.56,0.68,1.06,1.28,1.02c0.51-0.04,0.93-0.51,0.95-1.07
					c0.02-0.57-0.36-1.05-0.89-1.12C371.52,301.08,370.8,301.71,370.86,302.34z"/>
				<path class="st0" d="M103.19,314.14c0.01,0.59,0.56,1.07,1.2,1.06c0.54-0.01,0.97-0.44,0.99-1c0.03-0.65-0.45-1.2-1.05-1.19
					C103.72,313.01,103.18,313.54,103.19,314.14z"/>
				<path class="st0" d="M370.84,300.64c0.59-0.1,0.99-0.72,0.88-1.33c-0.1-0.53-0.59-0.91-1.13-0.85
					c-0.63,0.06-1.11,0.63-1.03,1.22C369.63,300.26,370.25,300.73,370.84,300.64z"/>
				<path class="st0" d="M181.69,301.25c0.56-0.08,0.99-0.54,0.98-1.04c-0.02-0.6-0.6-1.17-1.16-1.14c-0.59,0.03-1.09,0.6-1.07,1.22
					C180.46,300.9,181.03,301.34,181.69,301.25z"/>
				<path class="st0" d="M285.55,314.33c0.09-0.63-0.33-1.23-0.91-1.31c-0.6-0.08-1.18,0.38-1.26,0.99
					c-0.07,0.58,0.44,1.14,1.06,1.19C285,315.24,285.47,314.87,285.55,314.33z"/>
				<path class="st0" d="M325.17,301.25c0.55-0.05,0.97-0.49,0.97-1.01c0-0.6-0.54-1.16-1.11-1.16c-0.58,0-1.11,0.58-1.09,1.18
					C323.96,300.86,324.51,301.31,325.17,301.25z"/>
				<path class="st0" d="M327.78,301.27c0.55,0.01,1.02-0.4,1.07-0.93c0.05-0.64-0.41-1.21-1.01-1.25
					c-0.58-0.04-1.19,0.49-1.23,1.08C326.57,300.7,327.16,301.26,327.78,301.27z"/>
				<path class="st0" d="M213.76,303.38c0.62,0.04,1.15-0.47,1.16-1.1c0.01-0.63-0.51-1.14-1.14-1.11
					c-0.62,0.03-1.08,0.57-1.03,1.21C212.79,302.92,213.22,303.35,213.76,303.38z"/>
				<path class="st0" d="M105.88,314.17c0.02,0.58,0.6,1.05,1.25,1.02c0.53-0.02,0.96-0.47,0.97-1.02c0.01-0.66-0.5-1.2-1.09-1.17
					C106.4,313.03,105.86,313.6,105.88,314.17z"/>
				<path class="st0" d="M184.24,301.27c0.65,0.01,1.16-0.51,1.12-1.12c-0.05-0.62-0.63-1.13-1.2-1.06c-0.61,0.07-1.07,0.66-1,1.27
					C183.2,300.86,183.68,301.27,184.24,301.27z"/>
				<path class="st0" d="M215.49,302.26c0,0.65,0.51,1.16,1.12,1.12c0.61-0.04,1.11-0.62,1.05-1.21c-0.06-0.62-0.62-1.06-1.26-0.98
					C215.86,301.25,215.49,301.69,215.49,302.26z"/>
				<path class="st0" d="M28.38,315.51c0.01-0.59-0.53-1.16-1.11-1.17c-0.57-0.02-1.1,0.55-1.1,1.16c0,0.53,0.43,0.97,0.98,1.01
					C27.8,316.55,28.37,316.08,28.38,315.51z"/>
				<path class="st0" d="M31.06,315.58c0.04-0.63-0.41-1.19-1.01-1.23c-0.57-0.04-1.14,0.48-1.18,1.08
					c-0.04,0.58,0.51,1.1,1.14,1.09C30.56,316.51,31.02,316.09,31.06,315.58z"/>
				<path class="st0" d="M153.7,303.37c0.61-0.02,1.19-0.57,1.17-1.12c-0.01-0.56-0.6-1.08-1.22-1.07c-0.54,0.01-0.97,0.44-1,1
					C152.61,302.84,153.1,303.39,153.7,303.37z"/>
				<path class="st0" d="M156.34,303.36c0.61,0.03,1.18-0.46,1.22-1.05c0.04-0.57-0.5-1.11-1.13-1.13c-0.52-0.02-0.99,0.4-1.06,0.94
					C155.3,302.76,155.75,303.34,156.34,303.36z"/>
				<path class="st0" d="M215.24,300.65c0.62-0.05,1.08-0.59,1.02-1.21c-0.06-0.61-0.63-1.07-1.24-0.98
					c-0.6,0.09-0.99,0.68-0.88,1.31C214.23,300.3,214.72,300.69,215.24,300.65z"/>
				<path class="st0" d="M194.11,313.03c-0.58-0.08-1.14,0.44-1.15,1.06c-0.01,0.64,0.49,1.15,1.1,1.12
					c0.6-0.03,1.14-0.61,1.08-1.16C195.09,313.56,194.62,313.09,194.11,313.03z"/>
				<path class="st0" d="M197.86,314.07c-0.03-0.58-0.61-1.08-1.22-1.05c-0.6,0.03-1.03,0.6-0.96,1.25
					c0.06,0.54,0.52,0.95,1.05,0.93C197.35,315.19,197.89,314.64,197.86,314.07z"/>
				<path class="st0" d="M63.57,302.61c0.55-0.02,0.98-0.44,1-0.98c0.03-0.64-0.46-1.2-1.04-1.19c-0.59,0.01-1.15,0.55-1.16,1.13
					C62.35,302.11,62.94,302.63,63.57,302.61z"/>
				<path class="st0" d="M60.91,302.6c0.54-0.04,0.95-0.48,0.96-1.03c0.01-0.63-0.51-1.18-1.09-1.15c-0.6,0.03-1.11,0.58-1.09,1.18
					C59.7,302.2,60.25,302.65,60.91,302.6z"/>
				<path class="st0" d="M257.88,313.01c-0.39,0.03-0.68,0.27-0.83,0.65c0.26,0.28,0.29,0.57,0.13,0.87c0.15-0.3,0.13-0.6-0.13-0.87
					c-0.52,0.16-0.78-0.29-1.16-0.48c-0.63-0.31-1.21-0.19-1.54,0.31c-0.26,0.4-0.28,0.83,0.01,1.23c0.34,0.47,0.81,0.6,1.35,0.4
					c0.46-0.17,0.82-0.65,1.4-0.46c0,0,0,0,0,0c0.19,0.37,0.5,0.55,0.9,0.53c0.68-0.04,1.1-0.51,1.06-1.16
					C259.04,313.4,258.54,312.95,257.88,313.01z"/>
				<path class="st0" d="M80.32,320.31c-0.44,0.02-0.82,0.37-0.87,0.82c-0.06,0.52,0.38,0.98,0.92,0.97
					c0.47-0.01,0.83-0.35,0.87-0.8C81.28,320.77,80.84,320.29,80.32,320.31z"/>
				<path class="st0" d="M98.12,320.28c-0.52,0.04-0.95,0.57-0.86,1.09c0.07,0.45,0.5,0.78,0.95,0.75c0.55-0.04,0.97-0.55,0.87-1.07
					C99,320.6,98.55,320.25,98.12,320.28z"/>
				<path class="st0" d="M87.94,306.01h0.02c0-1.2,0.01-2.4,0-3.61c0-0.45-0.01-0.9-0.06-1.35c-0.07-0.63-0.48-1-1.02-0.96
					c-0.53,0.04-0.89,0.43-0.94,1.06c-0.04,0.52-0.03,1.05-0.03,1.58c0,1.95,0,3.9-0.01,5.86c0,0.52-0.01,1.05-0.07,1.57
					c-0.05,0.4-0.31,0.72-0.71,0.78c-0.68,0.09-1.36,0.13-2.05,0.13v0.03c-0.18-0.01-0.36-0.01-0.54-0.02
					c-1.8-0.02-3.61,0.03-5.41-0.04c-1.5-0.06-2.29-0.98-2.32-2.49c-0.03-1.56,0.67-2.42,2.18-2.63c0.44-0.06,0.9-0.06,1.35-0.06
					c1.2-0.01,2.41,0.01,3.61-0.02c0.45-0.01,0.9-0.06,1.33-0.17c0.39-0.11,0.59-0.44,0.58-0.86c0-0.42-0.23-0.71-0.6-0.86
					c-0.2-0.08-0.44-0.12-0.66-0.12c-2.03-0.01-4.06,0-6.09-0.01c-1.15-0.01-2.02,0.54-2.69,1.41c-0.9,1.19-1.27,2.54-1.06,4.03
					c0.07,0.51,0.34,1.01,0.15,1.54c-1.71,0.37-2.79,0.37-4.63,0.02c0.08-0.89,0.26-1.78,0.22-2.66c-0.1-2.65-1.81-4.3-4.45-4.34
					c-1.43-0.02-2.86,0.01-4.28,0c-1.51-0.01-2.54,0.78-3.29,2.01c-0.57,0.93-0.71,1.96-0.69,3.03c0.02,0.66,0.35,1.3,0.08,2.14
					c-1.44,0.16-2.93,0.08-4.42,0.07c-1.36-0.02-1.58-0.26-1.66-1.55c-0.02-0.38-0.01-0.75-0.02-1.13
					c-0.01-2.03-0.01-4.06-0.04-6.09c-0.01-0.52-0.04-1.05-0.14-1.56c-0.08-0.41-0.44-0.59-0.84-0.62c-0.41-0.03-0.73,0.17-0.9,0.54
					c-0.1,0.2-0.15,0.43-0.15,0.65c0,3.01-0.04,6.01,0.03,9.02c0.04,1.61,1.03,2.63,2.65,2.85c0.74,0.1,1.5,0.07,2.25,0.07
					c9.77,0,19.54,0,29.31,0c0.37,0,0.74-0.01,1.12-0.02v0.05c0.81-0.04,1.63-0.14,2.43-0.19c1.47-0.11,2.47-1.5,2.43-2.8
					C87.9,308.86,87.94,307.44,87.94,306.01z M64.46,311.04c-0.81,0.08-1.64,0.02-2.46,0.02v0.01c-0.67,0-1.35,0.05-2.01-0.01
					c-1.33-0.12-2.12-1-2.2-2.37c-0.07-1.37,0.6-2.5,1.82-2.71c1.69-0.29,3.42-0.31,5.11,0.02c1.24,0.24,1.82,1.27,1.73,2.74
					C66.38,310.07,65.69,310.91,64.46,311.04z"/>
				<path class="st0" d="M91.04,313.05c0.51-0.05,0.85-0.44,0.91-1.1c0.04-0.45,0.03-0.9,0.03-1.35c0-1.35,0-2.7,0-4.05
					c0-1.5,0.01-3-0.01-4.5c-0.01-0.45-0.04-0.9-0.14-1.33c-0.09-0.41-0.44-0.59-0.84-0.61c-0.41-0.03-0.78,0.17-0.88,0.55
					c-0.13,0.5-0.17,1.03-0.17,1.55c-0.02,2.48-0.01,4.95-0.01,7.43c0,0.75-0.02,1.5,0.03,2.25
					C90.01,312.66,90.45,313.1,91.04,313.05z"/>
			</g>
		</g>
	</g>
	<g>
		<path class="st1" d="M241.48,244.53c0.21-0.44,0.14-0.91,0.14-1.37c0-13.69,0-27.38,0-41.07c0-0.46,0.06-0.93-0.13-1.37l0,0
			c-0.02-0.93-0.05-1.86-0.05-2.79c0-26.14,0.01-52.28,0.01-78.42c0-0.66-0.01-1.33-0.02-1.99c-0.01-0.43-0.19-0.76-0.56-0.99
			c-0.39-0.25-0.78-0.5-1.18-0.74c-3.08-1.82-6.16-3.65-9.26-5.45c-1.82-1.06-1.68-0.93-1.69-2.95c0-0.2,0-0.4,0-0.6
			c0.01-13.07,0.02-26.14,0.03-39.21c0-0.66-0.01-1.33-0.04-1.99c-0.01-0.34-0.15-0.64-0.47-0.82l-0.03,0.02
			c-0.07,0.14-0.19,0.23-0.34,0.28c0,0,0,0,0,0c-0.09,0.09-0.2,0.15-0.33,0.16c-0.19,0.07-0.33,0.22-0.5,0.32l-0.04,0.03
			c-0.06,0.14-0.17,0.23-0.32,0.27l0,0c-0.1,0.1-0.21,0.15-0.35,0.17c-0.17,0.08-0.31,0.23-0.48,0.31l-0.06,0.03
			c-0.05,0.15-0.15,0.24-0.31,0.26c0,0,0,0,0,0c-0.12,0.06-0.24,0.12-0.37,0.18c-0.14,0.1-0.29,0.2-0.44,0.3
			c-0.26,0.16-0.52,0.33-0.78,0.49c-0.13,0.11-0.27,0.21-0.41,0.29c-0.08,0.08-0.17,0.13-0.28,0.14c-0.18,0.12-0.35,0.23-0.53,0.35
			c-0.11,0.12-0.24,0.22-0.39,0.29c0,0,0,0,0,0c-0.08,0.08-0.18,0.13-0.29,0.15c-0.21,0.05-0.36,0.2-0.52,0.33l-0.02,0.01
			c-0.09,0.13-0.21,0.23-0.36,0.29v0c-0.08,0.08-0.19,0.14-0.31,0.15c-0.2,0.06-0.35,0.21-0.51,0.33l-0.03,0.02
			c-0.08,0.14-0.19,0.23-0.34,0.28c0,0,0,0,0,0c-0.09,0.09-0.2,0.15-0.33,0.16c-0.19,0.07-0.33,0.22-0.5,0.32l-0.04,0.03
			c-0.07,0.14-0.17,0.23-0.33,0.27l0,0c-0.1,0.1-0.21,0.15-0.35,0.17c-0.17,0.08-0.31,0.23-0.48,0.31l-0.06,0.03
			c-0.05,0.15-0.15,0.23-0.31,0.26l0,0c-0.12,0.06-0.24,0.12-0.37,0.18c-0.14,0.1-0.29,0.2-0.44,0.3c-0.26,0.16-0.52,0.33-0.77,0.49
			c-0.13,0.11-0.27,0.21-0.42,0.29c-0.07,0.08-0.17,0.13-0.27,0.14c-0.18,0.12-0.35,0.23-0.53,0.35c-0.11,0.12-0.24,0.22-0.39,0.29
			c0,0,0,0,0,0c-0.08,0.08-0.18,0.13-0.29,0.15c-0.21,0.05-0.36,0.2-0.52,0.33l-0.02,0.01c-0.09,0.13-0.21,0.23-0.36,0.29v0
			c-0.09,0.08-0.19,0.14-0.31,0.15c-0.2,0.07-0.35,0.21-0.51,0.33l-0.03,0.02c-0.07,0.14-0.19,0.23-0.34,0.28c0,0,0,0,0,0
			c-0.09,0.09-0.2,0.15-0.33,0.16c-0.19,0.07-0.33,0.22-0.5,0.32l-0.04,0.02c-0.06,0.14-0.17,0.23-0.33,0.27l0,0
			c-0.1,0.1-0.21,0.15-0.35,0.17c-0.01,0-0.01,0.01-0.02,0.01c-0.16,0.08-0.3,0.22-0.46,0.3l-0.06,0.03
			c-0.05,0.15-0.15,0.23-0.3,0.26l0,0c-0.12,0.06-0.25,0.12-0.37,0.18c-0.14,0.1-0.29,0.2-0.43,0.3c-0.26,0.16-0.52,0.33-0.78,0.49
			c-0.13,0.11-0.27,0.21-0.41,0.29c0,0,0,0,0,0c-0.08,0.08-0.17,0.13-0.28,0.14c-0.18,0.12-0.35,0.23-0.53,0.35l0,0
			c-0.11,0.12-0.23,0.22-0.38,0.29h0c-0.08,0.08-0.18,0.13-0.3,0.15c-0.21,0.06-0.36,0.2-0.52,0.33l-0.02,0.01
			c-0.09,0.14-0.21,0.23-0.36,0.29l0,0c-0.09,0.09-0.19,0.14-0.31,0.15c-0.19,0.07-0.34,0.21-0.51,0.33l-0.04,0.02
			c-0.07,0.14-0.19,0.23-0.33,0.28c0,0,0,0,0,0c-0.09,0.09-0.2,0.15-0.33,0.16c-0.18,0.08-0.32,0.22-0.49,0.32l-0.05,0.03
			c-0.06,0.14-0.17,0.23-0.32,0.27c0,0,0,0,0,0c-0.1,0.1-0.21,0.16-0.35,0.17c0,0,0,0,0,0c-0.17,0.09-0.3,0.23-0.47,0.31
			c0,0,0,0,0,0l-0.06,0.04c-0.05,0.15-0.15,0.23-0.3,0.26l0,0c-0.12,0.06-0.25,0.12-0.37,0.18c-0.03,0.02-0.06,0.04-0.09,0.06
			c-0.11,0.08-0.22,0.16-0.34,0.23c-0.07,0.08-0.15,0.12-0.26,0.14c-0.24,0.03-0.4,0.18-0.54,0.36l0.01-0.01
			c-0.12,0.11-0.26,0.21-0.41,0.29c0,0,0,0,0,0c-0.08,0.08-0.17,0.13-0.28,0.14c-0.18,0.12-0.35,0.23-0.53,0.35h0
			c-0.11,0.12-0.23,0.22-0.38,0.29c0,0,0,0,0,0c-0.08,0.08-0.18,0.14-0.3,0.15c-0.21,0.06-0.36,0.2-0.52,0.33l-0.02,0.01
			c-0.09,0.14-0.21,0.23-0.36,0.29c0,0,0,0,0,0c-0.09,0.09-0.19,0.14-0.32,0.15c-0.19,0.07-0.34,0.21-0.51,0.32l-0.04,0.02
			c-0.07,0.14-0.19,0.23-0.33,0.28l0,0c-0.09,0.09-0.2,0.14-0.33,0.16c-0.18,0.08-0.32,0.22-0.49,0.32l-0.05,0.03
			c-0.06,0.15-0.17,0.23-0.32,0.27l0,0c-0.1,0.1-0.21,0.15-0.35,0.17c-0.17,0.09-0.3,0.23-0.48,0.31c0,0,0,0,0,0l-0.06,0.04
			c-0.04,0.15-0.15,0.23-0.3,0.26h0c-0.12,0.06-0.25,0.12-0.37,0.18c-0.14,0.11-0.28,0.21-0.43,0.3c-0.07,0.08-0.16,0.12-0.26,0.14
			c-0.12,0.21-0.3,0.33-0.54,0.36c-0.12,0.11-0.25,0.21-0.4,0.28l0,0c-0.08,0.08-0.17,0.13-0.28,0.14
			c-0.18,0.12-0.35,0.23-0.53,0.35l0,0c-0.1,0.12-0.23,0.22-0.38,0.29v0c-0.08,0.08-0.19,0.13-0.3,0.15
			c-0.2,0.06-0.35,0.2-0.52,0.33l-0.02,0.02c-0.08,0.14-0.2,0.23-0.35,0.29l0,0c-0.09,0.09-0.2,0.14-0.32,0.16
			c-0.19,0.07-0.34,0.21-0.5,0.33l-0.04,0.02c-0.07,0.14-0.18,0.23-0.33,0.28l0,0c-0.09,0.09-0.21,0.15-0.34,0.17
			c-0.11,0.07-0.23,0.15-0.34,0.22c-0.05,0.03-0.1,0.07-0.15,0.1l0,0l-0.05,0.03c-0.06,0.15-0.16,0.23-0.31,0.27l0,0
			c-0.12,0.06-0.24,0.12-0.36,0.18c-0.15,0.1-0.3,0.2-0.45,0.3c-0.06,0.08-0.15,0.12-0.25,0.13c-0.12,0.21-0.31,0.33-0.55,0.37
			c-0.12,0.1-0.26,0.2-0.4,0.28c-0.07,0.08-0.16,0.13-0.27,0.14c-0.18,0.13-0.35,0.25-0.53,0.38l0,0l0.02-0.01
			c-0.03,0.79-0.09,1.59-0.09,2.38c0.11,19.5,0.02,39,0.33,58.5c0.03,2.05-0.19,4.1-0.19,6.15c-0.03,24.34-0.05,48.69-0.07,73.03
			c0,0.86-0.03,1.73-0.05,2.59c0.03,0.99,0.07,1.99,0.07,2.98c-0.01,4.98-0.03,9.96-0.04,14.94c0.03,0.13,0.04,0.26,0.03,0.39
			c0.49,0.67,0.46,1.51,0.7,2.26c0.52,1.62,1.34,3.02,2.6,4.16c0.82,0.74,1.75,1.18,2.87,1.18c1.26,0,2.52-0.02,3.78,0.01
			c0.9,0.02,1.58-0.34,1.91-1.15c0.79-1.93,2.18-3.48,3.18-5.26c0.12-0.21,0.23-0.51,0.59-0.33c0.31,0.32,0.23,0.74,0.3,1.12
			c0.17,0.84,0.26,1.71,0.55,2.52c0.63,1.78,1.94,2.79,3.82,3.04c0.71,0.1,1.29-0.07,1.74-0.68c0.36-0.47,0.79-0.89,1.21-1.31
			c0.29-0.29,0.61-0.21,0.84,0.09c0.32,0.42,0.61,0.87,0.91,1.3c1.14,1.67,2.61,3,4.31,4.07c2.5,1.57,5.22,2.57,8.11,3.13
			c0.19,0.04,0.4,0.07,0.59,0.06c0.43-0.03,0.77-0.26,0.88-0.68c0.09-0.38,0.11-0.78,0.12-1.18c0.05-2-0.24-3.96-0.61-5.92
			c-0.35-1.83-0.99-3.58-1.82-5.24c-0.37-0.73-0.21-1.22,0.33-1.75c1.13-1.11,2.22-2.27,3.33-3.4l0-0.01
			c0.13-0.14,0.27-0.27,0.35-0.45c0,0,0,0,0,0l-0.03,0.02c0.56-0.35,0.51-1.06,0.89-1.51l0.01-0.03c0.1-0.17,0.25-0.32,0.31-0.51
			c0.01-0.11,0.04-0.21,0.1-0.3c0.11-0.16,0.25-0.31,0.29-0.51c0-0.1,0.03-0.2,0.08-0.29c0.28-0.19,0.64-0.35,0.36-0.8
			c0.03-0.13,0.06-0.27,0.1-0.4c0.07-0.17,0.21-0.31,0.26-0.49c0-0.11,0.02-0.21,0.07-0.3c0.04-0.04,0.07-0.09,0.1-0.14
			c0.22-0.31,0.31-0.66,0.28-1.04c0.02-0.14,0.04-0.27,0.06-0.41c0,0,0,0,0,0c0.21-0.25,0.31-0.53,0.29-0.86
			c0.04-0.25,0.07-0.49,0.1-0.73l0,0c0.29-0.37,0.37-0.79,0.3-1.25c0.04-0.38,0.07-0.77,0.11-1.15l0,0c0.43-0.62,0.37-1.31,0.3-2.01
			c0.02-0.52,0.04-1.05,0.07-1.57l0,0c0.3-0.77,0.15-1.58,0.15-2.37c0.01-39.17,0-78.33,0.04-117.49c0-0.71-0.65-1.77,0.63-2.17
			c2.58,1.5,5.16,3,7.76,4.48c0.65,0.37,0.94,0.89,0.9,1.63c-0.02,0.53,0,1.06,0,1.59c-0.02,24.84,0.13,49.67-0.11,74.51
			c-0.14,14.34-0.1,28.68-0.23,43.02c0,0.53-0.04,1.06-0.06,1.59c0,0,0,0,0,0c0.17,1.89,0.01,3.79-0.05,5.68
			c-0.01,0.23-0.08,0.47-0.16,0.7c-0.05,0.15-0.1,0.29-0.13,0.43c-0.01,0.25-0.02,0.5-0.04,0.75c-0.31,0.12-0.57,0.29-0.63,0.6
			c-0.02,0.08-0.02,0.17-0.01,0.26c0.01,0.09,0.03,0.18,0.04,0.27c0.01,0.46,0.02,0.93,0.15,1.38c0.03,0.08,0.05,0.17,0.08,0.25
			c0,0.01,0,0.03,0.01,0.04c0,0,0,0,0,0l0.01-0.01c0,0,0,0,0,0c0,0,0,0,0,0l0,0c-0.04,0.53-0.02,1.07-0.13,1.58
			c-1.08,4.7-2.83,9.09-5.84,12.91c-0.94,1.19-1.86,2.41-2.91,3.51c-1.1,1.14-2.19,2.3-3.28,3.46c-0.15,0.16-0.45,0.34-0.06,0.66
			c3.05-2.25,5.73-4.89,8.07-7.85c1.89-2.38,3.6-4.91,4.83-7.73c0.1-0.24,0.29-0.44,0.44-0.65c0.01-0.12,0.04-0.23,0.1-0.33
			c0.07-0.08,0.11-0.19,0.13-0.29c0.07-0.16,0.15-0.33,0.22-0.49l0-0.01c0.23-0.24,0.36-0.52,0.36-0.86c0,0,0,0,0,0c0,0,0,0,0,0
			c0-0.12,0.03-0.23,0.08-0.34c0.21-0.23,0.33-0.5,0.34-0.81c0,0,0,0,0,0s0,0,0,0c0-0.13,0.03-0.26,0.08-0.38
			c0.21-0.23,0.32-0.5,0.32-0.81l0,0l0,0c0-0.13,0.02-0.26,0.07-0.39c0.21-0.24,0.32-0.51,0.31-0.83v0v0
			c0.04-0.26,0.08-0.51,0.13-0.77c0.2-0.23,0.29-0.49,0.29-0.79c0.04-0.27,0.07-0.53,0.11-0.8c0.2-0.24,0.29-0.52,0.27-0.83
			c0,0,0,0,0,0c0,0,0,0,0,0c0.03-0.25,0.06-0.51,0.09-0.77c0.36-0.49,0.38-1.04,0.31-1.62c0,0,0,0,0,0c0,0,0,0,0-0.01
			C241.43,245.31,241.45,244.92,241.48,244.53 M224.28,245.17c-0.4,2.99-1.63,5.59-3.67,7.8c-0.69,0.75-0.91,0.76-1.6,0.05
			c-0.46-0.48-0.9-0.98-1.37-1.44c-0.33-0.32-0.69-0.62-1.07-0.88c-0.46-0.31-0.91-0.21-1.22,0.21c-0.08,0.11-0.16,0.22-0.21,0.33
			c-0.73,1.49-1.46,2.98-2.18,4.47c-0.11,0.24-0.18,0.5-0.24,0.75c-0.16,0.64,0,1.2,0.54,1.59c0.86,0.62,1.74,1.22,2.87,1.27
			c0.46,0.02,0.95,0.01,1.38,0.17c0.56,0.21,1.42-0.13,1.65,0.78c-0.57,0.36-1.17,0.19-1.73,0.05c-4.59-1.17-7.8-3.86-9.17-8.49
			c-0.55-1.86-0.71-3.77-0.54-5.72c0.4-4.44,1.78-8.55,3.96-12.43c0.41-0.73,1.03-1.37,1.05-2.28c-0.38,0.15-0.6,0.46-0.81,0.79
			c-2.9,4.47-4.87,9.29-5.43,14.61c-0.27,2.58-0.16,5.17,0.02,7.76c0.04,0.53,0.08,1.06,0.03,1.58c-0.06,0.61-0.87,0.93-1.39,0.59
			c-0.53-0.35-0.79-0.9-0.97-1.47c-0.36-1.14-0.55-2.32-0.56-3.53c0-2.66-0.03-5.31-0.03-7.97c-0.01-4.25-0.02-8.5-0.02-12.75
			c0-0.53,0-1.06-0.02-1.59c-0.01-0.33,0-0.7-0.38-0.84c-0.37-0.14-0.64,0.08-0.83,0.37c-0.74,1.1-1.47,2.21-2.21,3.32
			c-0.44,0.65-0.41,1.37-0.36,2.11c0.24,3.65,0.29,7.3,0.19,10.95c-0.06,2.19-0.36,4.36-0.78,6.52c-0.28,1.45-0.83,2.79-1.56,4.07
			c-0.31,0.55-0.74,0.93-1.4,1c-1.85,0.19-3.7,0.29-5.56,0.01c-0.85-0.13-1.49-0.51-1.96-1.21c-0.56-0.83-1.03-1.72-1.11-2.74
			c-0.09-1.06-0.24-2.12-0.18-3.18c0.22-3.78,0.1-7.57,0.12-11.35c0.04-6.38,0.03-12.75,0.05-19.13c0-0.66,0.03-1.33,0.07-1.99
			c0.01-0.1,0.13-0.23,0.23-0.27c0.1-0.04,0.28-0.01,0.35,0.06c0.39,0.36,0.74,0.77,1.14,1.12c0.5,0.44,0.99,0.89,1.55,1.24
			c1.82,1.13,3.64,1.12,5.39-0.16c0.53-0.39,1-0.87,1.48-1.33c0.57-0.55,1.1-1.16,1.69-1.69c0.64-0.58,1.08-0.59,1.76-0.01
			c0.55,0.47,1.04,1.02,1.55,1.54c0.7,0.71,1.35,1.47,2.1,2.12c1.46,1.26,2.53,1.29,4.15,0.21c0.33-0.22,0.64-0.47,0.93-0.74
			c1.06-0.99,1.02-1.3,0.05-2.25c-0.85-0.84-1.63-1.75-2.46-2.6c-0.75-0.77-1.62-1.36-2.6-1.81c-1.31-0.6-2.56-0.55-3.8,0.2
			c-0.81,0.49-1.5,1.1-2.15,1.76c-0.61,0.61-1.21,1.24-1.86,1.81c-0.48,0.42-0.96,0.42-1.45,0.03c-0.42-0.33-0.78-0.72-1.16-1.09
			c-0.85-0.84-1.68-1.7-2.53-2.54c-1.03-1.04-2.19-1.47-3.6-0.75c-0.11,0.06-0.26,0.05-0.39,0.06c-0.06,0-0.13-0.02-0.21-0.04
			c-0.38-0.53-0.23-1.14-0.23-1.72c0.01-9.36,0.02-18.73,0.04-28.09c0.01-6.31,0.02-12.62,0.04-18.93c0-0.53-0.01-1.06,0.02-1.59
			c0.01-0.18,0.07-0.42,0.19-0.51c0.28-0.19,0.5,0.06,0.67,0.25c2.07,2.25,4.14,4.49,6.2,6.75c1.61,1.76,3.22,3.54,4.83,5.3
			c0.22,0.25,0.45,0.49,0.68,0.73c0.18,0.18,0.36,0.42,0.65,0.36c0.35-0.07,0.29-0.4,0.31-0.64c0.03-0.46,0.02-0.93,0.02-1.39
			c0-20.32,0.01-40.64,0.02-60.97c0-4.12,0.01-8.24,0.02-12.35c0-0.46,0-0.93,0.03-1.39c0.04-0.62,0.35-0.77,0.95-0.46
			c0.41,0.21,0.81,0.45,1.21,0.69c6.18,3.64,12.35,7.29,18.52,10.94c0.91,0.54,1.82,1.09,2.74,1.63c0.51,0.3,0.75,0.72,0.74,1.31
			c-0.01,0.6,0.01,1.2,0.01,1.79c-0.01,12.42-0.01,24.84-0.04,37.26c-0.01,4.51-0.15,9.03-0.19,13.54
			c-0.04,5.24-0.04,10.49-0.06,15.73c-0.05,17.87-0.11,35.73-0.16,53.6C225.01,237.78,224.78,241.48,224.28,245.17 M225.09,106.84
			c-0.64,0.34-1.31-0.45-1.92-0.81c-7.61-4.47-15.21-8.97-22.82-13.44c-0.65-0.38-1.23-1.04-2.13-0.81
			c-0.35,0.69-0.18,1.43-0.18,2.14c-0.04,23.37-0.06,46.74-0.09,70.11c0,0.73,0,1.45,0,2.33c-0.85-0.12-1.1-0.63-1.44-1
			c-2.56-2.79-5.07-5.62-7.68-8.36c-0.89-0.94-1.26-1.89-1.26-3.18c0.01-8.03,0.04-16.07-0.11-24.1
			c-0.19-10.49-0.14-20.98-0.22-31.46c-0.02-3.15-0.31-2.5,2.18-4.12c11.29-7.36,22.59-14.7,33.89-22.03
			c0.59-0.38,1.24-1.23,1.87-0.9c0.75,0.4,0.35,1.44,0.35,2.18c0,10.42-0.01,20.84-0.05,31.27
			C225.47,105.41,225.85,106.43,225.09,106.84"/>
		<path class="st1" d="M174.04,252.86c0-15.81,0-31.61-0.01-47.42c0-18.73-0.01-37.46-0.01-56.18c0-0.6,0-1.2-0.02-1.79
			c-0.01-0.25,0-0.59-0.34-0.61c-0.29-0.02-0.41,0.28-0.52,0.52c-0.17,0.36-0.33,0.72-0.48,1.09c-0.49,1.23-0.95,2.48-1.48,3.7
			c-0.49,1.12-0.66,2.26-0.67,3.48c-0.06,32.14,0.02,64.28-0.34,96.42c0,0.53-0.04,1.06-0.01,1.59c0.04,0.92-0.41,1.5-1.22,1.85
			c-1.03,0.45-2.06,0.92-3.1,1.37c-0.18,0.08-0.37,0.13-0.56,0.19c-1.95,0.58-2.6,0.21-3.21-1.78c-0.24-0.77-0.34-1.56-0.35-2.35
			c-0.02-1.39-0.04-2.79-0.04-4.18c-0.01-5.78-0.02-11.56-0.04-17.33c0-0.66-0.04-1.33-0.11-1.98c-0.02-0.17-0.19-0.38-0.34-0.45
			c-0.25-0.12-0.54-0.02-0.7,0.21c-0.72,1.04-1.4,2.1-2.13,3.12c-0.44,0.63-0.63,1.29-0.59,2.06c0.07,1.66,0.07,3.32,0.19,4.97
			c0.29,4.26,0,8.49-0.71,12.7c-0.26,1.52-0.84,2.93-1.61,4.26c-0.36,0.61-0.84,1.04-1.58,1.04c-2.12,0.01-4.25,0.1-6.37-0.02
			c-1.94-0.12-2.84-1.35-2.53-3.27c0.23-1.37,0.6-2.72,0.92-4.08c0.37-1.55,0.82-3.08,1.13-4.64c0.33-1.62,0.57-3.25,0.38-4.94
			c-0.34-3.01-1.61-5.59-3.42-7.95c-0.73-0.94-1.56-1.8-2.35-2.7c-0.3-0.27-0.56-0.26-0.77,0.11l0,0c-0.04,0.24-0.08,0.49-0.13,0.73
			c-0.2,0.24-0.29,0.51-0.27,0.82l0,0c-0.03,0.39-0.06,0.78-0.09,1.17c-0.38,0.54-0.38,1.07,0.05,1.58l0.01,0.02
			c0.1,0.12,0.2,0.25,0.29,0.37l0,0c0.34,1.84,0.17,3.69,0.15,5.54c0.37,0.82,0.26,1.69,0.26,2.55c0.07,8.88,0.12,17.77,0.19,26.66
			c0,0.64,0,1.28,0,1.93c0.15-0.13,0.19-0.26,0.2-0.39c0.16-7.22,0.32-14.45,0.47-21.67c0.06-3.12,0.07-6.24,0.11-9.35
			c0.01-0.53,0.02-1.06,0.06-1.59c0.01-0.19,0.04-0.42,0.28-0.48c0.21-0.05,0.37,0.07,0.48,0.24c0.75,1.26,1.39,2.57,1.8,3.97
			c0.32,1.09,0.43,2.19,0.27,3.34c-0.21,1.45-0.5,2.87-0.95,4.26c-0.22,0.69-0.44,1.39-0.61,2.1c-0.44,1.81-0.72,3.66-0.52,5.52
			c0.31,2.86,1.71,5.21,5.55,5.3c1.19,0.02,2.39,0,3.58,0c0.74,0,1.27-0.33,1.61-0.97c0.22-0.41,0.44-0.82,0.63-1.24
			c0.74-1.57,1.97-2.83,2.8-4.34c0.05-0.09,0.22-0.12,0.36-0.21c0.52,0.82,0.43,1.77,0.63,2.66c0.67,2.99,3.07,4.78,6.27,3.91
			c3.04-0.83,5.78-2.36,7.42-5.29c0.12-0.23,0.34-0.4,0.52-0.6c0.02-0.12,0.07-0.23,0.14-0.34c0.08-0.15,0.18-0.3,0.29-0.43
			c0.02-0.13,0.06-0.25,0.12-0.36c0.07-0.16,0.17-0.3,0.28-0.43c0.01-0.13,0.05-0.25,0.11-0.37c0.09-0.16,0.18-0.31,0.27-0.46
			c0-0.12,0.02-0.23,0.07-0.33C173.93,253.46,174.05,253.18,174.04,252.86C174.04,252.86,174.04,252.86,174.04,252.86
			S174.04,252.86,174.04,252.86"/>
		<path class="st1" d="M156.1,283.39c-0.47-0.47-0.98-0.91-1.41-1.41c-0.65-0.75-0.65-1.19,0.01-1.91c0.53-0.59,1.12-1.13,1.69-1.68
			c0.58-0.56,1.1-1.15,1.52-1.84c0.46-0.76,0.74-1.56,0.67-2.39c0.04-1.57-0.68-2.76-1.67-3.78c-1.15-1.19-2.39-2.3-3.6-3.44
			c-0.35-0.33-0.69-0.34-1.05-0.02c-0.65,0.58-1.17,1.26-1.6,2.02c-0.67,1.17-0.64,2.27,0.29,3.3c0.45,0.49,0.9,0.98,1.37,1.45
			c0.75,0.75,1.54,1.46,2.27,2.24c0.84,0.89,0.84,1.34,0.05,2.22c-0.53,0.59-1.12,1.14-1.68,1.69c-0.62,0.61-1.16,1.27-1.62,2.01
			c-0.71,1.16-0.8,2.36-0.26,3.61c0.42,0.99,1,1.87,1.77,2.63c0.8,0.79,1.65,1.54,2.44,2.35c1.35,1.39,1.41,1.32,2.76-0.16
			c0.22-0.24,0.4-0.53,0.57-0.81c0.92-1.54,0.89-2.45-0.27-3.8C157.66,284.84,156.85,284.14,156.1,283.39"/>
		<path class="st1" d="M141.88,216.91c-0.49,0.54-0.95,1.11-1.37,1.7c-0.98,1.39-0.97,2.85-0.21,4.33c0.49,0.95,1.12,1.8,1.9,2.54
			c0.91,0.87,1.83,1.74,2.75,2.59c0.63,0.59,0.87,0.59,1.5-0.05c0.46-0.47,0.91-0.98,1.26-1.53c0.87-1.37,0.81-2.62-0.27-3.84
			c-0.97-1.08-2.09-2.03-3.12-3.07c-1.27-1.28-1.27-1.7-0.04-2.96c0.65-0.67,1.35-1.28,1.96-1.98c0.84-0.96,1.48-2.05,1.53-3.53
			c-0.05-1.4-0.73-2.67-1.78-3.74c-1.11-1.14-2.27-2.24-3.42-3.34c-0.57-0.54-0.83-0.54-1.35-0.05c-0.64,0.59-1.15,1.27-1.58,2.04
			c-0.67,1.19-0.57,2.28,0.36,3.28c0.41,0.44,0.81,0.88,1.23,1.31c0.71,0.71,1.44,1.38,2.13,2.09c1.12,1.14,1.13,1.54,0.07,2.65
			C142.92,215.88,142.37,216.36,141.88,216.91"/>
		<path class="st1" d="M212.78,231.35c0.49-0.21,0.7-0.6,0.72-1.12c-0.44,0.24-0.74,0.58-0.75,1.11c-0.01,0.01-0.02,0.03-0.04,0.04
			c0,0.02,0,0.03,0,0.04c0.01,0,0.02-0.01,0.04-0.02C212.76,231.39,212.77,231.37,212.78,231.35"/>
		<path class="st1" d="M197.96,208.54c-1.52-1.57-3.06-3.12-4.62-4.66c-0.42-0.42-0.8-0.4-1.22,0c-0.79,0.74-1.25,1.71-1.76,2.63
			c-0.41,0.73-0.27,1.41,0.19,2.05c0.23,0.32,0.51,0.62,0.81,0.87c1.53,1.28,2.97,2.65,4.34,4.09c0.18,0.19,0.38,0.36,0.59,0.53
			c0.23,0.18,0.5,0.22,0.73,0.05c1.11-0.83,1.79-1.93,2.09-3.36c-0.07-0.25-0.11-0.6-0.26-0.88
			C198.6,209.39,198.32,208.91,197.96,208.54"/>
		<path class="st1" d="M213.51,230.19c0,0.02,0,0.03,0,0.04c0.01,0,0.02-0.01,0.03-0.02L213.51,230.19z"/>
		<path class="st1" d="M214.18,229.11c-0.18,0.18-0.23,0.4-0.23,0.64c0.17-0.16,0.35-0.32,0.52-0.49c0.04-0.04,0.06-0.15,0.04-0.17
			C214.4,228.98,214.29,229,214.18,229.11"/>
		<path class="st1" d="M213.94,229.8c0-0.02,0-0.03,0-0.05c-0.01,0.01-0.02,0.02-0.03,0.02L213.94,229.8z"/>
		<path class="st1" d="M213.94,229.8l-0.02-0.02c-0.02,0.02-0.04,0.04-0.06,0.06C213.89,229.82,213.91,229.81,213.94,229.8"/>
		<path class="st1" d="M213.53,230.21c0.01-0.03,0.02-0.06,0.04-0.09c-0.02,0.02-0.04,0.04-0.06,0.06L213.53,230.21"/>
		<path class="st1" d="M213.57,230.12c0.1-0.1,0.19-0.19,0.29-0.29C213.73,229.89,213.63,229.99,213.57,230.12"/>
	</g>
</g>
</svg>
