<?xml version="1.0" encoding="utf-8"?>
<!-- Generator: Adobe Illustrator 26.0.1, SVG Export Plug-In . SVG Version: 6.00 Build 0)  -->
<svg version="1.1" id="Layer_1" xmlns="http://www.w3.org/2000/svg" xmlns:xlink="http://www.w3.org/1999/xlink" x="0px" y="0px"
	 viewBox="0 0 350 350" style="enable-background:new 0 0 350 350;" xml:space="preserve">
<style type="text/css">
	.st0{fill:#1A1D39;}
	.st1{fill:#EB671B;}
</style>
<g>
	<g>
		<path class="st0" d="M57.97,249.54h9.67v2.36H60.8v3.13h6.02v2.36H60.8v5.91h-2.83V249.54z"/>
		<path class="st0" d="M82.12,256.53c0,1.04-0.18,2.06-0.54,3.03c-0.36,0.98-0.86,1.8-1.5,2.46c-1.11,1.15-2.64,1.72-4.59,1.72
			c-1.95,0-3.48-0.57-4.59-1.72c-0.64-0.67-1.14-1.49-1.5-2.46c-0.36-0.98-0.54-1.99-0.54-3.03c0-1.04,0.18-2.06,0.54-3.03
			c0.36-0.98,0.86-1.8,1.5-2.46c1.11-1.15,2.64-1.72,4.59-1.72c1.95,0,3.48,0.57,4.59,1.72c0.64,0.67,1.14,1.49,1.5,2.46
			C81.94,254.47,82.12,255.48,82.12,256.53z M75.49,261.27c1.02,0,1.86-0.31,2.53-0.93c0.92-0.84,1.38-2.12,1.38-3.81
			c0-1.7-0.46-2.97-1.38-3.81c-0.67-0.62-1.51-0.93-2.53-0.93c-1.02,0-1.86,0.31-2.53,0.93c-0.92,0.84-1.38,2.11-1.38,3.81
			c0,1.7,0.46,2.97,1.38,3.81C73.63,260.96,74.47,261.27,75.49,261.27z"/>
		<path class="st0" d="M84.31,263.31v-13.77h7.65c0.73,0,1.38,0.18,1.95,0.53c0.62,0.4,1.02,0.95,1.22,1.64
			c0.2,0.69,0.29,1.25,0.29,1.68c0,0.38-0.05,0.75-0.15,1.11c-0.15,0.54-0.39,0.98-0.72,1.32c-0.23,0.25-0.61,0.54-1.15,0.85
			c0.57,0.39,0.86,0.59,0.89,0.6c0.37,0.34,0.58,0.78,0.64,1.32c0.06,0.54,0.11,1.56,0.13,3.06c0.01,0.54,0.19,0.92,0.53,1.13v0.51
			h-3.04c-0.23-0.4-0.35-0.83-0.38-1.28v-2.78c0-0.92-0.57-1.38-1.7-1.38h-3.32v5.44H84.31z M87.14,251.9v3.61h3.87
			c0.4,0,0.79-0.18,1.15-0.53c0.43-0.4,0.6-0.91,0.53-1.53c0-1.03-0.57-1.55-1.72-1.55H87.14z"/>
		<path class="st0" d="M102.99,249.54h11.03v2.36h-4.02v11.41h-2.83V251.9h-4.17V249.54z"/>
		<path class="st0" d="M115.77,263.31v-13.77h7.65c0.73,0,1.38,0.18,1.95,0.53c0.62,0.4,1.02,0.95,1.22,1.64
			c0.2,0.69,0.29,1.25,0.29,1.68c0,0.38-0.05,0.75-0.15,1.11c-0.15,0.54-0.39,0.98-0.72,1.32c-0.23,0.25-0.61,0.54-1.15,0.85
			c0.57,0.39,0.86,0.59,0.89,0.6c0.37,0.34,0.58,0.78,0.64,1.32c0.06,0.54,0.11,1.56,0.13,3.06c0.01,0.54,0.19,0.92,0.53,1.13v0.51
			h-3.04c-0.23-0.4-0.35-0.83-0.38-1.28v-2.78c0-0.92-0.57-1.38-1.7-1.38h-3.32v5.44H115.77z M118.61,251.9v3.61h3.87
			c0.4,0,0.79-0.18,1.15-0.53c0.43-0.4,0.6-0.91,0.53-1.53c0-1.03-0.57-1.55-1.72-1.55H118.61z"/>
		<path class="st0" d="M136.45,249.54l4.72,13.77h-2.89l-0.94-2.76h-5.1l-0.96,2.76h-2.89l4.8-13.77H136.45z M134.83,252.84
			l-1.7,5.34h3.53L134.83,252.84z"/>
		<path class="st0" d="M142.82,249.54h2.8l5.57,9.46v-9.46h2.83v13.77h-2.8l-5.57-9.59v9.59h-2.83V249.54z"/>
		<path class="st0" d="M166.67,253.73H164c0.02-0.59-0.2-1.09-0.68-1.49c-0.52-0.44-1.23-0.67-2.15-0.68
			c-1.57-0.03-2.4,0.5-2.49,1.59c-0.04,0.44,0.02,0.76,0.17,0.94c0.11,0.15,0.35,0.3,0.7,0.43c0.18,0.19,1.33,0.47,3.46,0.85
			c1.56,0.28,2.64,0.72,3.24,1.34c0.6,0.62,0.9,1.43,0.9,2.44c0,0.73-0.16,1.43-0.48,2.11c-0.32,0.67-0.75,1.18-1.28,1.52
			c-0.94,0.6-2.38,0.93-4.31,0.96c-0.45,0.01-0.98-0.06-1.57-0.21c-0.76-0.18-1.36-0.43-1.81-0.76c-1.17-0.84-1.81-2.03-1.93-3.55
			h2.76c0,0.54,0.2,1.01,0.59,1.42c0.55,0.58,1.42,0.85,2.59,0.81c1.04-0.03,1.77-0.24,2.19-0.64c0.34-0.31,0.51-0.72,0.51-1.21
			c0-0.43-0.15-0.8-0.45-1.11c-0.35-0.37-1.15-0.67-2.38-0.91c-1.7-0.31-2.71-0.53-3.02-0.64c-1.68-0.58-2.51-1.67-2.51-3.29
			c0-0.18,0.01-0.35,0.02-0.53c0.11-1.16,0.59-2.07,1.42-2.74c0.89-0.72,2.15-1.08,3.76-1.08c2.18,0,3.73,0.59,4.65,1.76
			c0.55,0.71,0.83,1.49,0.83,2.34C166.7,253.54,166.69,253.64,166.67,253.73z"/>
		<path class="st0" d="M169.2,263.31v-13.77h6.12c2.07,0,3.41,0.74,4.04,2.23c0.24,0.57,0.36,1.25,0.36,2.06
			c0,0.86-0.13,1.56-0.38,2.12c-0.77,1.64-2.08,2.45-3.93,2.45h-3.38v4.91H169.2z M172.03,251.9v4.14h3.17
			c0.71,0,1.22-0.38,1.55-1.15c0.15-0.35,0.23-0.75,0.23-1.21c0-0.28-0.04-0.52-0.11-0.72c-0.25-0.7-0.85-1.06-1.79-1.06H172.03z"/>
		<path class="st0" d="M194.37,256.53c0,1.04-0.18,2.06-0.54,3.03c-0.36,0.98-0.86,1.8-1.5,2.46c-1.11,1.15-2.64,1.72-4.59,1.72
			c-1.95,0-3.48-0.57-4.59-1.72c-0.64-0.67-1.14-1.49-1.5-2.46c-0.36-0.98-0.54-1.99-0.54-3.03c0-1.04,0.18-2.06,0.54-3.03
			c0.36-0.98,0.86-1.8,1.5-2.46c1.11-1.15,2.64-1.72,4.59-1.72c1.95,0,3.48,0.57,4.59,1.72c0.64,0.67,1.14,1.49,1.5,2.46
			C194.19,254.47,194.37,255.48,194.37,256.53z M187.74,261.27c1.02,0,1.86-0.31,2.53-0.93c0.92-0.84,1.38-2.12,1.38-3.81
			c0-1.7-0.46-2.97-1.38-3.81c-0.67-0.62-1.51-0.93-2.53-0.93c-1.02,0-1.86,0.31-2.53,0.93c-0.92,0.84-1.38,2.11-1.38,3.81
			c0,1.7,0.46,2.97,1.38,3.81C185.88,260.96,186.72,261.27,187.74,261.27z"/>
		<path class="st0" d="M196.56,263.31v-13.77h7.65c0.73,0,1.38,0.18,1.95,0.53c0.62,0.4,1.02,0.95,1.22,1.64
			c0.2,0.69,0.29,1.25,0.29,1.68c0,0.38-0.05,0.75-0.15,1.11c-0.15,0.54-0.39,0.98-0.72,1.32c-0.23,0.25-0.61,0.54-1.15,0.85
			c0.57,0.39,0.86,0.59,0.89,0.6c0.37,0.34,0.58,0.78,0.64,1.32c0.06,0.54,0.11,1.56,0.13,3.06c0.01,0.54,0.19,0.92,0.53,1.13v0.51
			h-3.04c-0.23-0.4-0.35-0.83-0.38-1.28v-2.78c0-0.92-0.57-1.38-1.7-1.38h-3.32v5.44H196.56z M199.4,251.9v3.61h3.87
			c0.4,0,0.79-0.18,1.15-0.53c0.43-0.4,0.6-0.91,0.53-1.53c0-1.03-0.57-1.55-1.72-1.55H199.4z"/>
		<path class="st0" d="M208.95,249.54h11.03v2.36h-4.02v11.41h-2.83V251.9h-4.17V249.54z"/>
		<path class="st0" d="M228.78,249.54l4.72,13.77h-2.89l-0.94-2.76h-5.1l-0.96,2.76h-2.89l4.8-13.77H228.78z M227.16,252.84
			l-1.7,5.34h3.53L227.16,252.84z"/>
		<path class="st0" d="M234.12,249.54h11.03v2.36h-4.02v11.41h-2.83V251.9h-4.17V249.54z"/>
		<path class="st0" d="M249.42,249.54v13.77h-2.83v-13.77H249.42z"/>
		<path class="st0" d="M264.66,256.53c0,1.04-0.18,2.06-0.54,3.03c-0.36,0.98-0.86,1.8-1.5,2.46c-1.11,1.15-2.64,1.72-4.59,1.72
			c-1.95,0-3.48-0.57-4.59-1.72c-0.64-0.67-1.14-1.49-1.5-2.46c-0.36-0.98-0.54-1.99-0.54-3.03c0-1.04,0.18-2.06,0.54-3.03
			c0.36-0.98,0.86-1.8,1.5-2.46c1.11-1.15,2.64-1.72,4.59-1.72c1.95,0,3.48,0.57,4.59,1.72c0.64,0.67,1.14,1.49,1.5,2.46
			C264.48,254.47,264.66,255.48,264.66,256.53z M258.03,261.27c1.02,0,1.86-0.31,2.53-0.93c0.92-0.84,1.38-2.12,1.38-3.81
			c0-1.7-0.46-2.97-1.38-3.81c-0.67-0.62-1.51-0.93-2.53-0.93c-1.02,0-1.86,0.31-2.53,0.93c-0.92,0.84-1.38,2.11-1.38,3.81
			c0,1.7,0.46,2.97,1.38,3.81C256.17,260.96,257.01,261.27,258.03,261.27z"/>
		<path class="st0" d="M266.62,249.54h2.8l5.57,9.46v-9.46h2.83v13.77h-2.8l-5.57-9.59v9.59h-2.83V249.54z"/>
	</g>
	<g>
		<polygon class="st0" points="342.22,87.25 326.1,87.25 313.65,150.05 313.78,150.05 304.72,195.73 320.84,195.73 333.29,132.93 
			333.16,132.93 		"/>
		<polygon class="st0" points="116.41,146.24 119.61,130.12 172.5,130.12 175.59,115.89 191.71,115.89 185.26,146.24 		"/>
		<polygon class="st0" points="318.18,86.26 308.39,132.92 298.59,179.61 295.31,195.73 131.51,195.73 140.55,149.93 156.67,149.93 
			151.08,179.61 162.49,179.61 165.36,165.95 181.48,165.95 178.6,179.61 191.87,179.61 200.68,137.39 209.46,95.14 225.58,95.14 
			216.8,137.39 207.99,179.61 220.22,179.61 225.68,154.06 225.73,154.06 228.93,138.18 279.94,138.18 276.66,154.3 276.61,154.3 
			272.27,175.17 256.15,175.17 260.49,154.3 241.75,154.3 236.34,179.61 282.47,179.61 292.27,132.92 302.07,86.26 		"/>
		<polygon class="st1" points="28.46,201.69 31.73,183.03 125.23,183.03 131.91,149.92 115.68,149.92 112.37,166.91 18.86,166.91 
			12.34,201.69 		"/>
		<polygon class="st1" points="196,95.1 179.88,95.1 176.87,106.52 192.99,106.52 		"/>
		<g>
			<g>
				<g>
					<polygon class="st1" points="10.5,211.75 320.31,206.48 12.39,201.46 					"/>
				</g>
			</g>
		</g>
		<polygon class="st1" points="9.93,215.57 145.69,213.2 143.84,220.32 7.78,228.14 		"/>
		<polygon class="st1" points="321.85,210.72 186.4,218.52 187.82,213.04 		"/>
		<polygon class="st0" points="149.29,211.96 146.27,223.48 162.39,222.92 165.41,211.39 		"/>
		<polygon class="st0" points="165.41,222.81 181.53,222.25 184.54,210.72 168.42,211.28 		"/>
	</g>
</g>
</svg>
