<?xml version="1.0" encoding="utf-8"?>
<!-- Generator: Adobe Illustrator 26.0.1, SVG Export Plug-In . SVG Version: 6.00 Build 0)  -->
<svg version="1.1" id="Layer_1" xmlns="http://www.w3.org/2000/svg" xmlns:xlink="http://www.w3.org/1999/xlink" x="0px" y="0px"
	 viewBox="0 0 350 350" style="enable-background:new 0 0 350 350;" xml:space="preserve">
<style type="text/css">
	.st0{fill:#103323;}
	.st1{fill:#D29F50;}
</style>
<g>
	<g>
		<g>
			<g>
				<path class="st0" d="M146.96,268.96c-0.1-0.27-0.37-0.43-0.67-0.46c-0.39-0.04-0.74,0.11-0.89,0.45
					c-0.14,0.31-0.2,0.68-0.21,1.02c-0.02,1.21-0.01,2.42-0.01,3.63c-0.01,0-0.03,0-0.04,0c0,1.42,0.02,2.84-0.01,4.27
					c-0.02,0.63-0.32,0.91-0.92,0.97c-0.49,0.05-0.99,0.05-1.49,0.05c-2.52,0.01-2.53,0-2.55-2.43c-0.01-1.78,0-3.56,0-5.33
					c0-0.5,0.01-1-0.03-1.49c-0.06-0.75-0.44-1.15-1.01-1.11c-0.49,0.03-0.83,0.4-0.87,1.02c-0.04,0.49-0.03,0.99-0.03,1.49
					c0,1.71,0,3.41,0,5.12c0,0.5,0.01,1-0.02,1.49c-0.06,0.87-0.34,1.17-1.16,1.22c-0.71,0.04-1.42,0.04-2.13,0.02
					c-1.13-0.05-1.32-0.25-1.38-1.42c-0.02-0.43-0.01-0.85-0.02-1.28c-0.01-0.36,0-0.71-0.04-1.07c-0.08-0.7-0.52-1.1-1.1-1.04
					c-0.49,0.05-0.83,0.42-0.87,1.03c-0.05,0.92-0.03,1.85-0.08,2.77c-0.04,0.62-0.32,0.94-0.93,0.96c-1.21,0.04-2.42,0.04-3.62,0
					c-0.59-0.02-0.86-0.34-0.91-0.97c-0.05-0.57-0.02-1.14-0.07-1.7c-0.22-2.72-1.69-4.12-4.38-4.14c-2.49-0.02-4.98,0.03-7.47-0.02
					c-1.25-0.03-2.2,0.43-2.95,1.4c-0.57,0.73-1.15,1.45-1.74,2.16c-0.17,0.2-0.36,0.52-0.68,0.3c-0.13-0.09-0.18-0.36-0.18-0.55
					c-0.02-1.64-0.01-3.27-0.02-4.91c0-0.42-0.03-0.85-0.12-1.26c-0.08-0.37-0.39-0.58-0.77-0.63c-0.43-0.05-0.9,0.22-0.97,0.64
					c-0.09,0.49-0.13,0.98-0.14,1.48c-0.02,1.78,0,3.56-0.01,5.33c-0.01,3.31,0.17,2.9-3.05,2.93c-0.14,0-0.29,0-0.43-0.01
					c-0.78-0.06-0.93-0.21-0.98-1.07c-0.03-0.5,0.02-1-0.04-1.49c-0.07-0.56-0.16-1.13-0.37-1.65c-0.65-1.67-1.79-2.69-3.7-2.65
					c-1.42,0.03-2.84,0.01-4.27,0.01c-1.34,0-2.28,0.69-2.99,1.75c-1.03,1.54-0.99,3.94,0.06,5.46c0.73,1.05,1.72,1.68,3.04,1.68
					c1.14,0,2.28,0,3.41,0.01c0.71,0.01,1.42,0.02,2.13,0.08c0.45,0.04,0.67,0.43,0.61,0.94c-0.06,0.49-0.33,0.79-0.81,0.83
					c-0.71,0.07-1.42,0.05-2.12,0.14c-0.54,0.07-0.9,0.58-0.82,1.06c0.08,0.48,0.39,0.77,0.85,0.82c0.56,0.06,1.14,0.06,1.7,0.05
					c2.11-0.05,2.92-0.75,3.3-2.83c0.18-0.98,0.22-1.06,1.19-1.08c1.92-0.03,3.84-0.02,5.76-0.02c3.77,0,7.54,0,11.31,0
					c1.35,0,2.72,0.1,3.93-0.68c1.38,0.2,2.64,0.91,4.11,0.72c1.26-0.16,2.56,0.1,3.79-0.41c0.23-0.1,0.57-0.08,0.82,0
					c1.89,0.59,3.78,0.52,5.67,0.07c0.43-0.11,0.83-0.13,1.25,0.02c1.45,0.5,2.96,0.33,4.44,0.26c1.86-0.09,2.86-1.15,2.9-3.02
					c0.06-2.63,0.02-5.26,0.01-7.89C147.18,269.64,147.09,269.28,146.96,268.96z M98.51,278.91c-0.64,0.02-1.28,0-1.91,0v-0.02
					c-0.85,0-1.71,0.05-2.55-0.01c-1.43-0.1-2.18-0.92-2.23-2.33c-0.05-1.5,0.72-2.46,2.22-2.56c1.27-0.09,2.56-0.08,3.83,0.01
					c1.4,0.1,2,0.78,2.13,2.18c0.04,0.42,0.03,0.85,0.02,1.28C99.97,278.78,99.87,278.87,98.51,278.91z M123.74,277.61
					c-0.3,0.69-0.84,1.14-1.61,1.23c-0.49,0.05-0.99,0.04-1.48,0.06c-0.07,0-0.14,0-0.21,0c-1.49,0-2.97,0-4.46,0
					c0-0.01,0-0.02,0-0.03c-1.84,0-3.68,0.01-5.52-0.01c-0.56-0.01-0.75-0.39-0.41-0.84c0.87-1.12,1.76-2.22,2.64-3.32
					c0.43-0.53,0.97-0.79,1.66-0.79c2.41,0.01,4.82-0.06,7.22,0.04C123.53,274.04,124.52,275.79,123.74,277.61z"/>
				<path class="st0" d="M315.48,271.96c-2.18,0.22-4.4,0.04-6.61,0.04c-0.5,0-1-0.01-1.49-0.07c-0.37-0.04-0.66-0.25-0.64-0.69
					c0.02-0.44,0.34-0.62,0.71-0.64c0.92-0.06,1.84-0.06,2.77-0.08c0.71-0.02,1.42-0.01,2.13-0.08c0.45-0.05,0.77-0.34,0.83-0.83
					c0.05-0.5-0.31-0.98-0.88-0.99c-1.78-0.03-3.56-0.08-5.33,0.01c-1.29,0.07-2.23,1.14-2.34,2.37c-0.13,1.46,0.75,2.66,2.23,2.88
					c0.84,0.13,1.7,0.11,2.55,0.11c2.2,0.02,4.41-0.03,6.61,0.06c1.37,0.05,2.15,1.03,2.14,2.42c-0.01,1.39-0.81,2.27-2.19,2.38
					c-0.42,0.03-0.85,0.02-1.28,0.02c-3.91,0-7.82,0-11.73,0c-0.5,0-0.99-0.02-1.49-0.05c-0.41-0.03-0.65-0.28-0.67-0.68
					c-0.04-0.57-0.06-1.14-0.05-1.7c0.01-0.8-0.2-1.56-0.56-2.26c-0.7-1.36-1.75-2.21-3.37-2.19c-1.42,0.02-2.84,0-4.26,0
					c-0.65,0-1.27,0.1-1.84,0.44c-2.74,1.65-2.75,6.36,0,7.97c0.76,0.45,1.61,0.51,2.47,0.51c3.7-0.01,7.39,0,11.09,0v0
					c3.34,0,6.68,0,10.02,0c0.14,0,0.28,0,0.43,0c0.5,0,1-0.01,1.49-0.01c1.61,0,2.67-0.84,3.35-2.23
					C321.07,275.56,319.07,271.59,315.48,271.96z M298.7,278.1c-0.02,0.51-0.36,0.75-0.84,0.76c-0.85,0.02-1.7,0-2.55,0v0.01
					c-0.85,0-1.7,0.05-2.55-0.01c-1.42-0.1-2.17-0.92-2.21-2.34c-0.04-1.42,0.67-2.4,2.03-2.5c1.41-0.1,2.83-0.09,4.24,0.01
					c1.15,0.09,1.77,0.78,1.88,1.95C298.77,276.68,298.73,277.39,298.7,278.1z"/>
				<path class="st0" d="M205.06,280.32c1.95,1.03,4.03,0.63,6.06,0.48c1.39-0.1,2.34-1.42,2.3-2.65c-0.04-1.35-0.01-2.7-0.01-4.05
					h0.02c0-1.14,0-2.27,0-3.41c0-0.43-0.01-0.85-0.05-1.28c-0.06-0.6-0.46-0.95-0.96-0.91c-0.5,0.04-0.84,0.4-0.89,1.01
					c-0.04,0.49-0.03,0.99-0.03,1.49c0,1.85,0,3.7,0,5.54c0,0.5,0,1-0.06,1.49c-0.04,0.38-0.29,0.68-0.67,0.73
					c-1.34,0.18-2.69,0.16-4.03,0.02c-0.39-0.04-0.63-0.35-0.67-0.72c-0.06-0.49-0.08-0.99-0.07-1.49c0.01-0.8-0.16-1.56-0.51-2.27
					c-0.71-1.45-1.79-2.35-3.51-2.31c-1.42,0.03-2.84,0.02-4.27,0.01c-1.43-0.02-2.41,0.72-3.14,1.87
					c-0.55,0.87-0.73,1.85-0.66,2.86c0.03,0.49,0.15,0.98,0.2,1.48c0.03,0.3-0.07,0.59-0.42,0.61c-0.78,0.03-1.56,0.05-2.34,0.01
					c-0.58-0.03-0.86-0.35-0.92-0.97c-0.05-0.49-0.03-0.99-0.05-1.49c-0.02-0.5-0.02-0.99-0.07-1.49c-0.05-0.48-0.36-0.76-0.84-0.81
					c-0.51-0.05-0.92,0.31-0.98,0.89c-0.04,0.35-0.04,0.71-0.05,1.06c-0.02,0.64,0,1.28-0.06,1.92c-0.04,0.46-0.3,0.85-0.79,0.87
					c-1.28,0.04-2.56,0.05-3.83,0.02c-0.48-0.01-0.76-0.38-0.8-0.85c-0.05-0.49-0.05-0.99-0.05-1.49c-0.01-1.92-0.01-3.84-0.02-5.76
					c0-0.49-0.01-1-0.11-1.48c-0.09-0.45-0.43-0.75-0.91-0.75c-0.47,0-0.81,0.26-0.94,0.71c-0.06,0.2-0.07,0.42-0.07,0.63
					c0,2.7-0.03,5.4,0.03,8.1c0.04,1.76,1,2.75,2.73,2.95c0.56,0.06,1.14,0.02,1.7,0.04c1.43,0.07,2.83-0.07,4.21-0.44
					c1.37,0.51,2.79,0.44,4.21,0.44c2.35,0,4.69-0.01,7.04,0c1.15,0.01,2.28,0,3.31-0.62C204.38,280.12,204.71,280.14,205.06,280.32
					z M202.04,278.84c-0.7,0.07-1.42,0.01-2.13,0.01c0,0,0,0,0,0c-0.71,0-1.43,0.06-2.13-0.01c-1.25-0.13-1.97-1-2-2.34
					c-0.03-1.34,0.63-2.32,1.85-2.47c1.55-0.19,3.13-0.22,4.68,0.04c0.93,0.15,1.48,0.81,1.61,1.75c0.05,0.35,0.06,0.71,0.02,1.06
					C203.84,277.99,203.15,278.73,202.04,278.84z"/>
				<path class="st0" d="M279.33,277.55c0.04-2.42,0.01-4.83,0.01-7.25c0-0.35-0.01-0.72-0.1-1.05c-0.11-0.44-0.43-0.76-0.91-0.75
					c-0.47,0-0.84,0.28-0.92,0.74c-0.09,0.48-0.08,0.99-0.09,1.48c-0.01,1.92,0,3.84-0.01,5.76c0,0.5-0.01,1-0.05,1.49
					c-0.04,0.47-0.33,0.84-0.8,0.85c-1.28,0.04-2.56,0.04-3.84,0.01c-0.48-0.01-0.8-0.32-0.85-0.8c-0.06-0.56-0.06-1.13-0.08-1.7
					c-0.02-0.88-0.27-1.69-0.72-2.43c-0.7-1.16-1.68-1.9-3.12-1.89c-1.49,0.01-2.99,0.01-4.48,0c-1.34-0.01-2.29,0.67-3,1.72
					c-0.58,0.85-0.8,1.82-0.76,2.84c0.02,0.49,0.12,0.99,0.18,1.48c0.06,0.59-0.08,0.8-0.65,0.81c-0.71,0.02-1.42,0.02-2.13-0.03
					c-0.58-0.04-0.87-0.37-0.93-0.97c-0.05-0.42-0.03-0.85-0.04-1.28c-0.01-0.5,0-1-0.03-1.49c-0.04-0.63-0.37-0.98-0.87-1.02
					c-0.57-0.04-0.94,0.35-0.99,1.12c-0.03,0.43-0.02,0.85-0.02,1.28c-0.01,0.43,0,0.85-0.04,1.28c-0.07,0.75-0.34,1.07-1.05,1.1
					c-0.99,0.05-1.99,0.05-2.98,0.02c-0.84-0.03-1.1-0.32-1.17-1.21c-0.04-0.49-0.03-0.99-0.03-1.49c-0.01-1.92-0.02-3.84-0.04-5.76
					c0-0.42-0.03-0.85-0.11-1.27c-0.08-0.38-0.39-0.58-0.77-0.62c-0.43-0.05-0.88,0.26-0.96,0.67c-0.06,0.35-0.08,0.71-0.09,1.06
					c-0.01,1.21,0,2.42,0,3.63h0.02c0,1.35-0.04,2.7,0.01,4.05c0.07,1.88,1.01,2.84,2.9,2.99c0.78,0.06,1.57-0.02,2.34,0.04
					c1.02,0.08,1.96-0.42,2.93-0.39c0.97,0.02,1.92,0.41,2.93,0.4c2.49-0.04,4.98-0.01,7.47-0.01c0.78,0,1.56-0.02,2.35-0.02
					c0.89,0,1.61-0.7,2.42-0.71c0.81-0.01,1.52,0.72,2.42,0.71c1.14-0.01,2.28,0.05,3.41,0
					C278.32,280.82,279.3,279.81,279.33,277.55z M267.74,278.84c-0.78,0.08-1.56,0.01-2.35,0.01v0c-0.64,0-1.29,0.06-1.92-0.01
					c-1.24-0.14-1.95-1.03-1.97-2.37c-0.02-1.34,0.65-2.29,1.88-2.44c1.48-0.18,2.99-0.19,4.47,0.01c1.27,0.18,1.84,1.02,1.83,2.46
					C269.69,277.87,269.02,278.72,267.74,278.84z"/>
				<path class="st0" d="M170.16,280.58c0.35-0.14,0.7-0.1,1.04,0.02c1.52,0.55,3.1,0.34,4.65,0.3c2.11-0.06,3.1-1.1,3.16-3.21
					c0.04-1.28,0.01-2.56,0.01-3.84h0c0-1.21,0.01-2.42-0.01-3.63c0-0.35-0.03-0.72-0.12-1.05c-0.13-0.45-0.46-0.72-0.95-0.68
					c-0.48,0.04-0.76,0.35-0.89,0.79c-0.06,0.2-0.05,0.42-0.05,0.64c-0.01,0.5-0.01,1-0.01,1.49c0,1.85,0.02,3.7-0.01,5.55
					c-0.02,1.78-0.13,1.87-1.99,1.9c-0.64,0.01-1.28,0.02-1.92-0.01c-1.16-0.05-1.4-0.27-1.46-1.36c-0.04-0.71-0.01-1.42-0.05-2.13
					c-0.05-0.82-0.33-1.21-0.87-1.26c-0.62-0.06-1,0.4-1.05,1.3c-0.04,0.85-0.02,1.71-0.07,2.56c-0.03,0.47-0.34,0.81-0.82,0.84
					c-0.85,0.06-1.7,0.08-2.56,0.06c-1.1-0.02-1.23-0.14-1.26-1.23c-0.03-1-0.05-1.99-0.4-2.95c-0.62-1.73-1.84-2.63-3.69-2.68
					c-1.42-0.03-2.85,0.02-4.27-0.01c-1.26-0.02-2.2,0.56-2.9,1.53c-1.13,1.57-1.28,3.28-0.46,5.04c0.78,1.66,2.11,2.39,3.94,2.37
					c3.13-0.03,6.26,0,9.39-0.01C167.78,280.93,169,281.05,170.16,280.58z M160.83,278.89c-0.5,0-0.99,0-1.49,0
					c0-0.01,0-0.02,0-0.03c-0.85,0-1.71,0.06-2.55-0.01c-1.3-0.11-2.01-0.92-2.07-2.25c-0.07-1.5,0.56-2.45,1.94-2.57
					c1.41-0.12,2.84-0.11,4.25-0.01c1.23,0.09,1.85,0.84,1.99,2.1c0.02,0.21,0.02,0.43,0.02,0.64
					C162.97,278.86,162.96,278.87,160.83,278.89z"/>
				<path class="st0" d="M242.51,280.87c1.52-0.19,2.44-1.14,2.57-2.67c0.09-0.99,0.03-1.99,0.02-2.98c0-0.21-0.07-0.42-0.15-0.61
					c-0.15-0.36-0.46-0.54-0.84-0.54c-0.38-0.01-0.72,0.17-0.85,0.53c-0.12,0.32-0.14,0.69-0.16,1.04
					c-0.04,0.78-0.02,1.57-0.07,2.35c-0.03,0.48-0.33,0.81-0.81,0.84c-0.78,0.05-1.56,0.07-2.34,0.05c-0.92-0.03-1.06-0.18-1.1-1.18
					c-0.04-0.99,0.03-2-0.07-2.98c-0.17-1.63-1.18-2.57-2.8-2.67c-0.78-0.05-1.57-0.03-2.35,0.02c-0.8,0.05-1.11,0.38-1.17,1.23
					c-0.05,0.71-0.03,1.42-0.03,2.13c-0.01,0.85,0.01,1.71-0.03,2.56c-0.03,0.68-0.24,0.9-0.91,0.91c-1.78,0.03-3.56,0.04-5.33,0
					c-0.94-0.02-1.16-0.32-1.24-1.35c-0.04-0.56-0.05-1.13-0.14-1.69c-0.06-0.42-0.56-0.74-0.95-0.68c-0.38,0.06-0.7,0.26-0.78,0.63
					c-0.26,1.13-0.29,2.27,0.09,3.37c0.3,0.85,0.96,1.41,1.85,1.61c0.48,0.11,0.98,0.16,1.48,0.16c1.92,0.02,3.84,0.01,5.76,0
					c0.36,0,0.71,0,1.06-0.05c0.65-0.09,1.01-0.45,1.06-1.13c0.06-0.71,0.04-1.42,0.05-2.13c0.01-0.92,0.01-1.85,0.03-2.77
					c0.01-0.29,0.11-0.55,0.39-0.71c0.79-0.46,1.86,0.04,1.92,0.92c0.05,0.78,0.02,1.56,0.03,2.35c0.01,0.78-0.01,1.57,0.04,2.35
					c0.04,0.67,0.41,1.08,1.06,1.13c0.78,0.06,1.56,0.02,2.34,0.02c0,0,0,0.01,0,0.01C240.95,280.89,241.74,280.96,242.51,280.87z"
					/>
				<path class="st0" d="M339.44,280.88c1.65-0.14,2.58-1.11,2.67-2.75c0.05-0.92,0.02-1.84,0-2.77c-0.01-0.27-0.07-0.57-0.19-0.81
					c-0.16-0.34-0.47-0.54-0.85-0.53c-0.38,0.02-0.69,0.24-0.81,0.6c-0.11,0.33-0.15,0.69-0.16,1.04c-0.03,0.71,0,1.42-0.04,2.13
					c-0.05,0.87-0.3,1.07-1.23,1.08c-0.14,0-0.28-0.01-0.43-0.01c-0.49-0.02-0.81-0.24-0.83-0.76c-0.03-0.78-0.01-1.56-0.06-2.34
					c-0.04-0.82-0.34-1.18-0.91-1.22c-0.63-0.04-1,0.38-1.06,1.29c-0.04,0.57-0.02,1.14-0.04,1.7c-0.06,1.19-0.25,1.36-1.38,1.35
					c-0.9-0.01-1.09-0.19-1.15-1.13c-0.05-0.85-0.06-1.7-0.15-2.54c-0.04-0.39-0.36-0.6-0.74-0.65c-0.42-0.06-0.88,0.23-0.97,0.64
					c-0.07,0.34-0.11,0.7-0.11,1.05c-0.02,2.98,0.19,2.61-2.86,2.64c-0.14,0-0.28,0-0.43,0c-1.28-0.06-1.5-0.25-1.58-1.47
					c-0.03-0.49,0-0.99-0.03-1.49c-0.02-0.42-0.05-0.85-0.16-1.26c-0.1-0.37-0.42-0.54-0.81-0.55c-0.4-0.01-0.73,0.2-0.82,0.55
					c-0.12,0.47-0.15,0.98-0.15,1.47c-0.02,1.77-0.01,3.55-0.02,5.32c0,0.79-0.24,1.36-1.23,1.36c-0.42,0-0.85,0.07-1.25,0.18
					c-0.37,0.1-0.56,0.42-0.62,0.79c-0.05,0.38,0.3,0.89,0.68,0.97c2.04,0.41,4.25-0.24,4.4-2.69c0.06-1.08,0.2-1.11,1.37-1.12
					c1.84-0.02,3.69,0,5.53-0.01c0.64,0,1.28,0,1.92,0c0.43,0,0.85,0,1.28-0.01C337.32,280.91,338.38,280.96,339.44,280.88z"/>
				<path class="st0" d="M20.79,276.18c0.05,0.49,0.06,0.99,0.06,1.49c0.01,0.99-0.01,1.99,0.03,2.98c0.04,0.94,0.37,1.39,0.96,1.42
					c0.58,0.03,0.99-0.47,1.03-1.34c0.03-0.71,0.01-1.42,0.01-2.13c-0.01,0-0.01,0-0.02,0c0-0.92,0.06-1.85-0.02-2.77
					c-0.12-1.38-1.1-2.39-2.46-2.52c-0.91-0.09-1.84-0.05-2.76,0c-0.65,0.04-1.01,0.43-1.09,1.1c-0.06,0.56-0.05,1.13-0.06,1.7
					c-0.02,1.06-0.02,2.13-0.04,3.19c-0.01,0.48-0.26,0.82-0.77,0.83c-1.84,0.02-3.69,0.03-5.53,0c-0.71-0.01-0.97-0.33-1.04-1.08
					c-0.06-0.63-0.06-1.28-0.17-1.9c-0.08-0.44-0.44-0.74-0.92-0.74c-0.48,0-0.82,0.29-0.9,0.75c-0.16,0.98-0.19,1.99,0.03,2.96
					c0.18,0.79,0.71,1.37,1.47,1.72c0.53,0.25,1.08,0.34,1.65,0.34c2.13,0,4.26,0,6.39,0c0.21,0,0.43,0,0.64-0.03
					c0.78-0.1,1.16-0.45,1.23-1.21c0.05-0.49,0.03-0.99,0.04-1.49c0.01-1.06-0.01-2.13,0.02-3.19c0.02-0.83,0.4-1.11,1.24-1
					C20.42,275.35,20.72,275.61,20.79,276.18z"/>
				<path class="st0" d="M85.56,280.86c1.52-0.23,2.37-1.2,2.49-2.74c0.04-0.49,0-0.99,0-1.49c0.02,0,0.03,0,0.05,0
					c-0.04-0.64-0.05-1.28-0.13-1.91c-0.05-0.41-0.54-0.72-0.96-0.66c-0.38,0.05-0.68,0.25-0.77,0.63c-0.08,0.34-0.09,0.7-0.1,1.05
					c-0.03,0.71-0.01,1.42-0.06,2.13c-0.05,0.6-0.36,0.91-0.95,0.95c-0.92,0.05-1.85,0.06-2.77,0.05c-2.09-0.02-2.11-0.05-2.16-2.16
					c-0.01-0.57,0-1.14-0.05-1.7c-0.05-0.56-0.49-0.97-0.95-0.98c-0.48-0.01-0.93,0.38-0.99,0.93c-0.05,0.49-0.05,0.99-0.05,1.49
					c-0.01,1.49-0.01,2.99,0,4.48c0.02,1.82-0.28,1.87-1.79,1.9c-0.21,0.01-0.43,0.05-0.62,0.12c-0.45,0.17-0.66,0.51-0.63,0.99
					c0.03,0.4,0.25,0.7,0.62,0.78c1.98,0.4,4.14,0.03,4.43-2.62c0.12-1.08,0.47-1.16,1.36-1.16c0.71,0,1.42,0.01,2.13,0
					C84.28,280.93,84.93,280.96,85.56,280.86z"/>
				<path class="st0" d="M188.99,289.04c-1.32-0.4-2.66-0.34-4.01-0.27c-1.27,0.07-1.5,0.3-1.52,1.52
					c-0.03,1.35-0.01,2.69-0.01,4.04c0.01,0,0.02,0,0.03,0c0,1.49-0.01,2.98,0.01,4.46c0,0.47,0.26,0.84,0.74,0.89
					c1.7,0.18,3.41,0.2,5.03-0.45c1.8-0.72,2.84-2.06,3.12-3.97c0.09-0.63,0.1-1.27,0.07-1.91
					C192.32,291.15,191.12,289.7,188.99,289.04z M190.27,296.74c-0.87,1.46-2.8,2.15-4.67,1.76c-0.43-0.09-0.57-0.41-0.58-0.78
					c-0.02-1.13-0.01-2.26-0.01-3.4H185c0-1.06-0.03-2.12,0.01-3.18c0.03-1.02,0.22-1.16,1.3-1.2c0.07,0,0.14,0,0.21-0.01
					c1.66-0.05,3.14,0.35,3.95,1.94C191.32,293.49,191.2,295.17,190.27,296.74z"/>
				<path class="st0" d="M48.57,293.87c0.23-0.3,0.35-0.47,0.47-0.63c1.4-1.95,0.77-3.74-1.54-4.34c-0.98-0.26-1.98-0.17-2.96-0.11
					c-0.97,0.06-1.23,0.32-1.24,1.33c-0.02,2.77-0.01,5.53,0,8.3c0,0.21,0.02,0.43,0.06,0.63c0.05,0.29,0.21,0.57,0.51,0.61
					c1.63,0.22,3.27,0.29,4.79-0.46c1.68-0.82,2.09-2.84,0.93-4.32C49.33,294.54,48.99,294.27,48.57,293.87z M44.75,290.59
					c0.03-0.31,0.21-0.53,0.5-0.59c0.69-0.16,1.39-0.17,2.06,0.1c1.16,0.47,1.38,1.93,0.43,2.74c-0.76,0.65-1.65,0.7-2.57,0.47
					c-0.16-0.04-0.35-0.26-0.39-0.43c-0.08-0.41-0.08-0.83-0.11-1.19C44.7,291.29,44.72,290.94,44.75,290.59z M47.52,298.35
					c-0.6,0.29-1.24,0.27-1.88,0.24c-0.64-0.04-0.87-0.27-0.92-0.92c-0.02-0.35,0-0.71,0-1.07c-0.01,0-0.02,0-0.03,0
					c0.02-0.43,0.03-0.85,0.06-1.28c0.03-0.41,0.28-0.64,0.68-0.69c0.71-0.09,1.42-0.08,2.1,0.22c0.79,0.35,1.23,1.05,1.18,1.85
					C48.65,297.5,48.21,298.02,47.52,298.35z"/>
				<path class="st0" d="M114.65,293.77c1.73-2.03,0.92-4.41-1.7-4.93c-0.69-0.13-1.41-0.11-2.12-0.1
					c-1.97,0.04-2.07,0.13-2.09,2.04c-0.02,1.98,0,3.97,0,5.95c0,0.49,0,0.99,0.01,1.49c0.01,0.28,0.01,0.57,0.08,0.84
					c0.1,0.38,0.37,0.59,0.78,0.55c0.31-0.03,0.56-0.23,0.58-0.52c0.07-0.85,0.07-1.7,0.1-2.54c0.05-1.38,0.52-1.75,1.84-1.44
					c0.78,0.18,1.19,0.74,1.41,1.44c0.26,0.81,0.45,1.64,0.69,2.45c0.11,0.36,0.37,0.57,0.76,0.65c0.39,0.08,0.8-0.19,0.72-0.54
					c-0.39-1.57-0.53-3.23-1.83-4.71C114.22,294.13,114.47,293.98,114.65,293.77z M112.52,293.73c-0.47,0.11-0.98,0.09-1.47,0.09
					c-0.41,0-0.67-0.24-0.7-0.64c-0.04-0.63-0.07-1.27-0.05-1.91c0.03-1.17,0.25-1.37,1.51-1.35c0.07,0,0.28,0,0.49,0.03
					c1.05,0.15,1.75,0.85,1.79,1.78C114.14,292.64,113.5,293.5,112.52,293.73z"/>
				<path class="st0" d="M248.15,291.9c-0.33,0.12-0.65,0.3-0.91,0.53c-0.45,0.38-0.81,0.45-1.29,0.02
					c-0.95-0.88-2.06-0.97-3.14-0.32c-0.61,0.36-0.98,0.25-1.5-0.13c-0.37-0.28-0.84,0.07-0.85,0.58c-0.03,0.99-0.01,1.99-0.01,2.98
					h-0.02c0,0.28,0,0.57,0,0.85c0.02,0.85,0.01,1.7,0.06,2.55c0.02,0.39,0.27,0.67,0.69,0.64c0.41-0.03,0.6-0.33,0.63-0.72
					c0.02-0.28,0.03-0.57,0.03-0.85c0.01-0.92,0.01-1.85,0.01-2.77c0-0.75,0.25-1.39,0.83-1.88c0.84-0.71,2.09-0.42,2.45,0.61
					c0.14,0.39,0.17,0.83,0.18,1.26c0.03,0.99,0,1.99,0.03,2.98c0.01,0.35,0.06,0.71,0.18,1.03c0.06,0.16,0.3,0.3,0.49,0.34
					c0.29,0.07,0.61-0.06,0.69-0.35c0.11-0.4,0.15-0.83,0.16-1.25c0.03-1.07-0.02-2.13,0.05-3.2c0.08-1.13,0.76-1.8,1.71-1.81
					c0.8-0.01,1.45,0.62,1.6,1.69c0.1,0.77,0.05,1.56,0.08,2.34c0.02,0.71,0.04,1.42,0.1,2.12c0.03,0.31,0.32,0.46,0.62,0.45
					c0.3-0.01,0.56-0.16,0.6-0.48c0.06-0.42,0.09-0.85,0.09-1.27c-0.02-1.28,0.06-2.57-0.12-3.83
					C251.36,292.25,249.73,291.32,248.15,291.9z"/>
				<path class="st0" d="M304.74,292.03c-0.44,0.21-0.83,0.52-1.22,0.77c-0.16-0.07-0.32-0.09-0.42-0.18
					c-1.23-1.1-2.51-1.21-3.87-0.25c-0.27,0.19-0.43,0.1-0.71-0.1c-0.79-0.59-1.22-0.43-1.23,0.42c-0.02,1.99,0,3.97,0.01,5.96
					c0,0.21,0.02,0.45,0.12,0.61c0.1,0.15,0.32,0.28,0.5,0.32c0.3,0.06,0.57-0.09,0.65-0.39c0.08-0.27,0.1-0.56,0.1-0.84
					c0.02-0.99,0.02-1.99,0.02-2.98c0-0.66,0.17-1.26,0.61-1.77c0.86-1,2.3-0.79,2.72,0.45c0.18,0.53,0.21,1.11,0.24,1.67
					c0.04,0.92,0.01,1.85,0.04,2.77c0.01,0.27,0.06,0.57,0.19,0.81c0.08,0.15,0.34,0.27,0.52,0.27c0.18,0,0.47-0.14,0.51-0.27
					c0.12-0.4,0.17-0.82,0.18-1.24c0.03-1.13-0.02-2.27,0.06-3.4c0.07-0.95,0.8-1.62,1.63-1.67c0.85-0.05,1.55,0.54,1.67,1.58
					c0.11,0.98,0.06,1.98,0.09,2.98c0.02,0.57,0.04,1.13,0.13,1.69c0.02,0.14,0.3,0.29,0.48,0.34c0.3,0.08,0.61-0.07,0.67-0.36
					c0.1-0.48,0.14-0.98,0.13-1.47c-0.02-1.28,0.06-2.57-0.14-3.82C308.17,292.08,306.42,291.25,304.74,292.03z"/>
				<path class="st0" d="M18.49,288.71c-0.08-0.31-0.34-0.42-0.65-0.42c-0.31-0.01-0.56,0.12-0.65,0.42
					c-0.08,0.27-0.1,0.56-0.12,0.84c-0.06,0.84,0.08,1.69-0.13,2.44c-0.57,0.29-0.92-0.06-1.32-0.14c-2.19-0.45-4,0.77-4.32,2.98
					c-0.1,0.69-0.11,1.43,0.02,2.12c0.49,2.5,2.96,3.41,4.69,2.47c0.19-0.1,0.37-0.21,0.55-0.33c0.4-0.28,0.56,0.01,0.84,0.26
					c0.58,0.51,1.1,0.29,1.17-0.41c0.01-0.14,0.02-0.28,0.02-0.43c0-2.99,0-5.97-0.01-8.96C18.58,289.27,18.55,288.99,18.49,288.71z
					 M16.91,297.07c-0.23,0.83-0.8,1.32-1.65,1.44c-0.83,0.12-1.54-0.15-2.05-0.84c-0.78-1.06-0.72-2.96,0.12-3.98
					c0.55-0.67,1.28-0.87,2.1-0.71c0.85,0.17,1.37,0.72,1.53,1.56c0.08,0.41,0.09,0.84,0.13,1.3
					C17.03,296.24,17.02,296.67,16.91,297.07z"/>
				<path class="st0" d="M97.55,296c0-1.21,0.01-2.41-0.01-3.62c-0.01-0.34-0.52-0.67-0.78-0.45c-0.59,0.5-1.07,0.31-1.7,0.08
					c-1.94-0.71-3.7,0.14-4.48,2.06c-0.31,0.75-0.35,1.52-0.29,2.3c0.21,2.42,2.19,3.75,4.53,3.05c0.2-0.06,0.39-0.18,0.59-0.25
					c0.39-0.15,0.73,0.1,0.67,0.48c-0.2,1.38-1.04,2.17-2.44,2.16c-0.63,0-1.25-0.2-1.88-0.26c-0.17-0.01-0.44,0.13-0.51,0.28
					c-0.13,0.28,0.02,0.54,0.29,0.7c0.64,0.4,1.36,0.38,2.06,0.37c2.55-0.01,3.82-1.19,3.94-3.72
					C97.6,298.13,97.55,297.06,97.55,296L97.55,296z M95.97,297.03c-0.25,0.8-0.79,1.32-1.64,1.46c-0.87,0.14-1.7-0.24-2.15-1.03
					c-0.69-1.21-0.63-2.44,0.1-3.61c0.47-0.76,1.32-1.07,2.21-0.88c0.85,0.18,1.34,0.74,1.54,1.56c0.1,0.41,0.11,0.83,0.16,1.29
					C96.12,296.21,96.09,296.64,95.97,297.03z"/>
				<path class="st0" d="M145.81,298.6c-0.62-0.24-1.26-0.14-1.9-0.15c-2.6-0.01-2.46,0.16-2.43-2.66c0-0.14,0.02-0.28,0.04-0.42
					c0.06-0.4,0.29-0.65,0.69-0.67c0.64-0.04,1.28-0.03,1.92-0.06c0.42-0.02,0.86,0.06,1.24-0.19c0.2-0.13,0.27-0.32,0.22-0.54
					c-0.03-0.12-0.13-0.29-0.23-0.32c-0.33-0.09-0.68-0.16-1.03-0.18c-0.71-0.04-1.42-0.02-2.13-0.07
					c-0.19-0.01-0.42-0.13-0.54-0.28c-0.3-0.38-0.28-2.35,0.02-2.69c0.13-0.14,0.36-0.24,0.55-0.27c0.42-0.05,0.85-0.04,1.28-0.06
					c0.64-0.03,1.28-0.04,1.91-0.11c0.2-0.02,0.38-0.22,0.34-0.46c-0.03-0.19-0.12-0.41-0.27-0.52c-0.15-0.12-0.39-0.17-0.59-0.18
					c-1.28-0.02-2.56-0.04-3.84-0.01c-0.89,0.02-1.13,0.27-1.16,1.16c-0.03,1.42-0.01,2.84-0.01,4.27h-0.01c0,0.71,0,1.42,0,2.13
					c0,0.71-0.01,1.42,0.02,2.13c0.05,0.94,0.25,1.19,1.12,1.21c1.42,0.04,2.84,0.01,4.26-0.01c0.2,0,0.41-0.11,0.58-0.22
					c0.1-0.07,0.19-0.23,0.2-0.35C146.09,298.91,146.05,298.69,145.81,298.6z"/>
				<path class="st0" d="M233.85,292.03c-0.13,0.05-0.28,0.09-0.38,0.18c-0.55,0.51-0.91,0.34-1.36-0.2
					c-0.3-0.36-0.87-0.06-0.94,0.4c-0.02,0.14-0.04,0.28-0.04,0.42c0.01,2.98,0.02,5.96,0.03,8.93c0,0.14,0.02,0.28,0.05,0.42
					c0.07,0.42,0.32,0.59,0.74,0.55c0.33-0.03,0.52-0.22,0.54-0.54c0.07-0.98,0.11-1.96,0.16-2.9c0.46-0.16,0.78,0.04,1.09,0.18
					c2.13,0.95,4.72-0.62,4.83-3.19c0.02-0.56,0.04-1.14-0.06-1.7C238.09,292.33,236,291.19,233.85,292.03z M236.96,296.88
					c-0.35,1.18-1.23,1.77-2.39,1.68c-1.11-0.09-1.87-0.89-2.01-2.12c-0.02-0.21,0-0.43,0-0.43c-0.04-0.86,0.06-1.48,0.41-2.04
					c0.89-1.4,2.86-1.39,3.71,0.03C237.23,294.91,237.26,295.9,236.96,296.88z"/>
				<path class="st0" d="M75.51,289.44c-0.05-0.85-0.19-1.09-0.67-1.13c-0.49-0.04-0.72,0.25-0.74,1.05c-0.02,0.92,0,1.84,0,3
					c-0.74-0.24-1.13-0.41-1.53-0.5c-1.74-0.39-3.29,0.41-4.01,2.03c-0.42,0.94-0.5,1.93-0.31,2.92c0.48,2.43,2.51,3.54,4.81,2.58
					c0.56-0.23,0.95-0.43,1.5,0.06c0.38,0.34,0.87,0.06,0.93-0.41c0.04-0.35,0.05-0.71,0.05-1.06c0-2.49,0-4.98-0.01-7.47
					C75.52,290.15,75.53,289.79,75.51,289.44z M74.03,296.73c-0.17,0.98-0.9,1.68-1.84,1.8c-1.04,0.13-1.98-0.45-2.31-1.47
					c-0.25-0.76-0.26-1.54-0.07-2.31c0.29-1.19,1.16-1.88,2.28-1.82c1.11,0.05,1.86,0.85,1.98,2.1c0.03,0.28,0,0.57,0,1.22
					C74.08,296.17,74.08,296.45,74.03,296.73z"/>
				<path class="st0" d="M313.58,292.03c-0.66,0.28-1.22,0.59-1.87-0.05c-0.24-0.24-0.74,0.07-0.79,0.42
					c-0.04,0.28-0.07,0.56-0.07,0.84c0,2.62,0.02,5.24,0.03,7.86c0,0.21,0,0.43,0.02,0.64c0.05,0.78,0.28,1.08,0.75,1.02
					c0.57-0.07,0.59-0.5,0.63-0.93c0.08-0.84-0.12-1.7,0.17-2.52c0.55-0.14,0.95,0.24,1.42,0.35c1.88,0.43,3.56-0.5,4.22-2.33
					c0.3-0.82,0.29-1.67,0.19-2.52C318.04,292.87,316.11,290.97,313.58,292.03z M316.44,297.45c-0.47,0.87-1.32,1.26-2.34,1.09
					c-0.84-0.14-1.58-0.79-1.72-1.66c-0.1-0.62-0.11-1.28-0.04-1.91c0.14-1.17,1.01-1.96,2.11-2.02c1.05-0.06,1.83,0.5,2.21,1.63
					c0.13,0.4,0.18,0.83,0.22,1.06C316.87,296.4,316.71,296.95,316.44,297.45z"/>
				<path class="st0" d="M58.71,295.89c0-0.92,0.01-1.85,0-2.77c0-0.28,0-0.58-0.1-0.84c-0.06-0.17-0.28-0.33-0.46-0.39
					c-0.28-0.09-0.59-0.02-0.74,0.26c-0.13,0.24-0.21,0.53-0.22,0.8c-0.03,0.92-0.01,1.85-0.04,2.77c-0.02,0.49-0.03,1-0.16,1.48
					c-0.23,0.85-1.11,1.37-1.98,1.28c-0.73-0.08-1.26-0.57-1.39-1.4c-0.1-0.63-0.09-1.28-0.1-1.91c-0.02-0.85-0.01-1.71-0.06-2.56
					c-0.02-0.49-0.43-0.81-0.85-0.74c-0.41,0.06-0.63,0.34-0.63,0.73c-0.02,1.49-0.12,3,0.03,4.48c0.24,2.32,2.01,3.26,4.16,2.35
					c0.13-0.06,0.26-0.12,0.37-0.21c0.44-0.36,0.66-0.16,1.03,0.2c0.52,0.5,1.1,0.2,1.12-0.52
					C58.73,297.88,58.71,296.89,58.71,295.89L58.71,295.89z"/>
				<path class="st0" d="M291.76,291.73c-2.34-0.03-3.91,1.59-3.92,4.04c-0.02,2.37,1.48,3.98,3.71,4c2.28,0.02,3.99-1.72,4-4.04
					C295.54,293.43,293.96,291.75,291.76,291.73z M292.25,298.51c-0.94,0.26-1.88-0.08-2.42-0.87c-0.72-1.06-0.73-2.77,0.01-3.81
					c0.44-0.62,1.04-0.94,2.02-0.91c0.07,0.01,0.35,0.03,0.61,0.13c0.92,0.34,1.52,1.49,1.49,2.81
					C293.93,297.18,293.24,298.24,292.25,298.51z"/>
				<path class="st0" d="M225.47,291.73c-2.33,0.04-3.83,1.69-3.8,4.17c-0.08,2.65,2.09,3.95,3.83,3.88
					c2.27-0.09,3.94-1.86,3.87-4.18C229.29,293.29,227.68,291.69,225.47,291.73z M227.07,297.87c-0.9,1.02-2.52,0.98-3.32-0.13
					c-0.77-1.06-0.83-2.23-0.34-3.42c0.4-0.98,1.12-1.42,2.14-1.42c0.98,0,1.59,0.54,1.95,1.37c0.19,0.44,0.25,0.94,0.29,1.11
					C227.82,296.52,227.61,297.25,227.07,297.87z"/>
				<path class="st0" d="M284.62,289.99c0.14,0.01,0.28,0.02,0.43,0.02c0.35,0.05,0.7,0.11,1.05,0.14c0.35,0.03,0.52-0.22,0.56-0.51
					c0.05-0.31-0.13-0.53-0.42-0.65c-0.96-0.39-1.97-0.35-2.95-0.2c-2.21,0.34-3.81,1.5-4.52,3.7c-0.72,2.22-0.14,4.74,1.51,6.05
					c1.83,1.45,3.9,1.54,6.05,0.84c0.28-0.09,0.4-0.38,0.27-0.7c-0.09-0.21-0.25-0.34-0.48-0.33c-0.78,0.05-1.56,0.18-2.33,0.14
					c-1.98-0.1-3.28-1.3-3.65-3.26C279.65,292.54,281.14,289.8,284.62,289.99z"/>
				<path class="st0" d="M165.19,293.85c-0.35-1.27-1.11-1.97-2.37-2.09c-0.56-0.05-1.13,0.02-1.69,0.09
					c-0.27,0.03-0.54,0.16-0.8,0.29c-0.27,0.13-0.46,0.34-0.34,0.67c0.08,0.21,0.25,0.31,0.49,0.28c0.56-0.07,1.12-0.15,1.69-0.17
					c0.51-0.02,0.96,0.15,1.3,0.58c0.37,0.47,0.24,1.06-0.31,1.14c-0.78,0.11-1.55,0.22-2.27,0.54c-1.39,0.6-2.06,1.86-1.65,3.05
					c0.42,1.21,1.72,1.81,3.15,1.43c0.2-0.05,0.41-0.14,0.59-0.25c0.47-0.28,0.84-0.24,1.34,0.09c0.54,0.36,0.99,0.05,1.02-0.56
					c0.03-0.71,0.01-1.42,0.01-2.38C165.32,295.82,165.46,294.82,165.19,293.85z M162,298.59c-0.58,0.01-1.05-0.26-1.21-0.69
					c-0.2-0.54-0.02-1.16,0.39-1.55c0.39-0.37,0.87-0.45,1.36-0.55c0.95-0.18,1.37,0.19,1.27,1.11
					C163.7,297.98,163.06,298.58,162,298.59z"/>
				<path class="st0" d="M29.42,292.36c-0.08,0.06-0.09,0.27-0.06,0.39c0.03,0.11,0.16,0.29,0.24,0.29
					c0.42-0.01,0.83-0.08,1.25-0.11c0.49-0.04,0.99-0.06,1.47,0.14c0.47,0.2,0.83,0.78,0.71,1.18c-0.13,0.44-0.52,0.38-0.85,0.45
					c-0.55,0.12-1.11,0.24-1.65,0.38c-0.56,0.15-1.03,0.47-1.41,0.91c-0.54,0.63-0.77,1.36-0.51,2.17c0.29,0.89,0.94,1.41,1.85,1.56
					c0.56,0.1,1.14,0.07,1.66-0.21c0.59-0.31,1.1-0.46,1.73,0.03c0.37,0.29,0.85-0.06,0.87-0.56c0.03-0.71,0.01-1.42,0.01-2.13
					c0.02,0,0.04,0,0.06,0c-0.05-0.92,0-1.86-0.17-2.75C34.19,291.81,31.29,290.85,29.42,292.36z M31.39,298.59
					c-0.53,0.01-0.99-0.14-1.21-0.67c-0.22-0.54-0.05-1.15,0.37-1.55c0.38-0.37,0.87-0.46,1.35-0.56c0.96-0.19,1.38,0.17,1.29,1.09
					C33.08,297.97,32.44,298.57,31.39,298.59z"/>
				<path class="st0" d="M342.81,291.97c-0.26-0.16-0.54-0.17-0.8-0.02c-0.4,0.23-0.52,0.65-0.66,1.05c-0.49,1.4-0.96,2.8-1.45,4.2
					c-0.13-0.02-0.27-0.04-0.4-0.06c-0.5-1.31-0.99-2.63-1.5-3.94c-0.15-0.39-0.33-0.79-0.58-1.12c-0.23-0.3-0.63-0.32-0.96-0.14
					c-0.29,0.16-0.31,0.46-0.21,0.74c0.16,0.47,0.33,0.93,0.52,1.39c0.58,1.44,1.14,2.9,1.78,4.32c0.41,0.92,0.18,1.66-0.47,2.31
					c-0.4,0.4-0.86,0.72-1.3,1.08c-0.33,0.28-0.32,0.6-0.12,0.94c0.18,0.32,0.47,0.3,0.73,0.16c0.37-0.19,0.75-0.4,1.08-0.66
					c0.79-0.64,1.3-1.5,1.68-2.42c0.95-2.29,1.85-4.59,2.77-6.89c0.05-0.13,0.09-0.27,0.11-0.41
					C343.03,292.32,343.02,292.1,342.81,291.97z"/>
				<path class="st0" d="M121.21,291.75c-1.7-0.22-3.34,0.71-3.85,2.34c-0.99,3.18,0.45,5.98,4.24,5.67
					c0.42-0.03,0.83-0.16,1.24-0.27c0.13-0.03,0.26-0.13,0.34-0.24c0.07-0.1,0.12-0.26,0.1-0.38c-0.02-0.12-0.14-0.29-0.23-0.3
					c-0.34-0.04-0.7-0.01-1.05-0.01v-0.01c-0.49,0-0.99,0.04-1.48-0.01c-0.84-0.09-1.42-0.58-1.8-1.32
					c-0.32-0.63-0.07-1.14,0.63-1.16c1.27-0.04,2.55-0.02,3.82-0.06c0.61-0.02,0.85-0.35,0.81-0.98
					C123.88,293.24,122.78,291.95,121.21,291.75z M121.75,295c-0.14,0.02-0.28,0.04-0.41,0.04c-0.35,0.01-0.7,0-1.05,0v0.01
					c-0.14,0-0.28,0.01-0.42,0c-0.4-0.04-0.85,0.09-1.14-0.3c-0.22-0.29,0.1-1.03,0.59-1.45c0.98-0.83,2.47-0.53,2.98,0.6
					C122.54,294.43,122.3,294.91,121.75,295z"/>
				<path class="st0" d="M214.09,291.78c-1.66-0.34-3.34,0.52-4.01,2.09c-0.49,1.15-0.53,2.36-0.16,3.54
					c0.7,2.18,3.94,3.19,5.88,1.87c0.09-0.06,0.13-0.25,0.11-0.37c-0.02-0.12-0.12-0.3-0.21-0.31c-0.34-0.05-0.69-0.05-1.04-0.06
					c0,0.01,0,0.02,0,0.02c-0.49,0-0.99,0.04-1.48-0.01c-0.84-0.08-1.43-0.56-1.81-1.3c-0.33-0.63-0.09-1.16,0.59-1.18
					c1.27-0.04,2.55-0.02,3.82-0.06c0.63-0.02,0.88-0.34,0.84-0.95C216.53,293.36,215.53,292.07,214.09,291.78z M214.42,294.99
					c-0.14,0.02-0.28,0.04-0.41,0.05c-0.35,0.01-0.7,0-1.05,0v0.01c-0.21,0-0.42,0.01-0.63,0c-0.34-0.02-0.7,0.03-0.96-0.26
					c-0.2-0.23,0-0.89,0.41-1.31c0.97-1.01,2.56-0.82,3.15,0.39C215.18,294.38,214.94,294.9,214.42,294.99z"/>
				<path class="st0" d="M330.94,291.89c-0.2,0.07-0.43,0.12-0.58,0.26c-0.54,0.51-0.91,0.35-1.38-0.16
					c-0.32-0.34-0.9-0.03-0.91,0.45c-0.03,1.06-0.01,2.13-0.01,3.19c-0.01,0-0.02,0-0.03,0c0,0.43,0,0.85,0,1.28
					c0,0.5-0.01,0.99,0.01,1.49c0.01,0.28,0.02,0.58,0.11,0.84c0.1,0.29,0.38,0.43,0.68,0.36c0.19-0.05,0.43-0.17,0.49-0.32
					c0.11-0.25,0.13-0.55,0.13-0.83c0.02-0.92,0.01-1.84,0.02-2.76c0-0.5,0.02-0.99,0.24-1.46c0.39-0.83,1.2-1.32,2.05-1.19
					c0.78,0.11,1.35,0.69,1.43,1.61c0.08,0.92,0.04,1.84,0.07,2.76c0.02,0.56,0.02,1.13,0.09,1.69c0.04,0.29,0.28,0.49,0.58,0.52
					c0.4,0.05,0.77-0.15,0.79-0.53c0.12-1.76,0.31-3.55-0.14-5.28C334.16,292.11,332.61,291.35,330.94,291.89z"/>
				<path class="st0" d="M131.31,294.22c-0.07-0.98-0.54-1.78-1.47-2.18c-1.24-0.54-2.49-0.44-3.67,0.23
					c-0.18,0.1-0.25,0.34-0.13,0.56c0.11,0.19,0.28,0.3,0.52,0.28c0.56-0.07,1.12-0.17,1.68-0.2c0.43-0.02,0.85,0.06,1.16,0.42
					c0.23,0.27,0.45,0.57,0.34,0.95c-0.09,0.32-0.39,0.38-0.67,0.4c-1.07,0.1-2.11,0.3-2.97,1.01c-0.79,0.65-1.09,1.76-0.7,2.69
					c0.36,0.87,1.09,1.27,2,1.36c0.66,0.07,1.26-0.12,1.84-0.41c0.24-0.12,0.46-0.2,0.78-0.11c1.33,0.35,1.34,0.32,1.36-0.97
					c0.01-0.5,0-0.99,0-1.49c-0.02,0-0.04,0-0.05,0C131.32,295.92,131.37,295.07,131.31,294.22z M128.02,298.6
					c-0.65,0-1.13-0.36-1.27-0.92c-0.13-0.56,0.11-1.13,0.63-1.46c0.43-0.28,1.17-0.47,1.6-0.48c0.64,0,0.91,0.2,0.96,0.61
					C130.09,297.69,129.29,298.61,128.02,298.6z"/>
				<path class="st0" d="M198.07,291.76c-1.7-0.27-3.28,0.6-3.94,2.22c-0.44,1.08-0.54,2.19-0.16,3.32c0.74,2.21,3.8,3.28,5.83,2.01
					c0.09-0.06,0.13-0.24,0.15-0.36c0.03-0.27-0.19-0.37-0.38-0.4c-0.28-0.04-0.56-0.01-0.85-0.01c0,0,0,0,0,0
					c-0.49,0-0.99,0.02-1.48-0.01c-0.52-0.03-0.94-0.29-1.3-0.65c-0.5-0.48-0.72-1.15-0.48-1.51c0.29-0.43,0.75-0.32,1.15-0.34
					c0.71-0.03,1.42-0.01,2.13-0.01c0.43,0,0.85,0,1.27-0.04c0.51-0.04,0.76-0.35,0.73-0.85
					C200.65,293.33,199.6,292.01,198.07,291.76z M198.54,294.99c-0.48,0.05-0.97,0.05-1.46,0.08c0-0.01,0-0.02,0-0.03
					c-0.21,0-0.42,0.01-0.63,0c-0.4-0.03-0.9,0.06-1.03-0.47c-0.1-0.44,0.17-0.8,0.48-1.1c1.01-0.99,2.56-0.78,3.16,0.43
					C199.32,294.41,199.09,294.93,198.54,294.99z"/>
				<path class="st0" d="M258.41,291.91c-1.49-0.54-3.25,0-4.12,1.36c-0.9,1.41-1.06,2.93-0.38,4.47c0.86,1.95,3.9,2.75,5.68,1.54
					c0.09-0.06,0.09-0.24,0.12-0.37c0.03-0.17-0.05-0.29-0.22-0.3c-0.35-0.03-0.7-0.04-1.04-0.06c0,0.02,0,0.04,0,0.06
					c-0.49-0.02-0.99-0.01-1.48-0.07c-0.76-0.09-1.29-0.54-1.67-1.18c-0.41-0.67-0.11-1.27,0.7-1.3c1.27-0.04,2.55-0.03,3.82-0.07
					c0.4-0.01,0.66-0.25,0.68-0.67C260.54,293.78,259.68,292.38,258.41,291.91z M258.19,295.01c-0.14,0.01-0.28,0.03-0.42,0.03
					c-0.28,0-0.56,0-1.23,0c-0.03,0-0.45-0.01-0.86-0.05c-0.37-0.04-0.62-0.42-0.5-0.74c0.33-0.88,0.98-1.37,1.88-1.4
					c0.76-0.03,1.37,0.27,1.72,0.96C259.1,294.42,258.9,294.96,258.19,295.01z"/>
				<path class="st0" d="M88.28,293.71c-0.5-1.56-1.95-2.32-3.53-1.85c-0.27,0.08-0.56,0.18-0.77,0.35
					c-0.48,0.39-0.77,0.27-1.21-0.14c-0.46-0.43-1-0.15-1.02,0.47c-0.03,1.06-0.01,2.13-0.01,3.19h-0.01c0,0.92-0.01,1.84,0.01,2.76
					c0,0.28,0.04,0.58,0.16,0.82c0.08,0.15,0.33,0.28,0.51,0.29c0.18,0.01,0.47-0.1,0.53-0.24c0.13-0.31,0.2-0.67,0.21-1.01
					c0.03-0.99,0.02-1.98,0.03-2.98c0-0.58,0.13-1.13,0.5-1.59c0.48-0.6,1.1-0.88,1.87-0.74c0.7,0.13,1.22,0.66,1.33,1.47
					c0.09,0.63,0.07,1.27,0.09,1.91c0.02,0.85,0.02,1.7,0.07,2.55c0.02,0.4,0.29,0.63,0.69,0.65c0.42,0.02,0.7-0.23,0.73-0.61
					c0.11-1.62,0.17-3.25-0.06-4.87C88.36,293.98,88.32,293.85,88.28,293.71z"/>
				<path class="st0" d="M25.16,291.89c-1.34-0.46-2.93-0.01-3.85,1.09c-1.09,1.29-1.29,3.51-0.45,5c1,1.77,3.89,2.44,5.61,1.29
					c0.09-0.06,0.1-0.24,0.12-0.37c0.04-0.18-0.05-0.29-0.22-0.3c-0.35-0.03-0.7-0.04-0.85-0.05c-0.69,0-1.18,0.02-1.68-0.01
					c-0.69-0.04-1.2-0.43-1.58-0.96c-0.24-0.34-0.4-0.76-0.18-1.19c0.2-0.39,0.59-0.33,0.93-0.35c0.64-0.03,1.27-0.01,1.91-0.02
					c0.49,0,0.99,0.01,1.48-0.03c0.63-0.04,0.86-0.33,0.85-0.96C27.21,293.5,26.44,292.33,25.16,291.89z M25.24,294.99
					c-0.48,0.05-0.97,0.06-1.42,0.08c-0.46-0.03-0.87-0.04-1.29-0.09c-0.34-0.04-0.58-0.46-0.47-0.78c0.3-0.88,0.96-1.35,1.89-1.35
					c0.87,0,1.41,0.36,1.77,1.2C25.9,294.5,25.69,294.94,25.24,294.99z"/>
				<path class="st0" d="M177.08,291.87c-1.35-0.44-2.97,0-3.83,1.15c-1.11,1.48-1.3,3.13-0.49,4.8c0.74,1.52,2.11,2.01,3.71,1.94
					c0.49-0.02,0.98-0.11,1.46-0.21c0.19-0.04,0.38-0.18,0.53-0.32c0.08-0.08,0.11-0.26,0.08-0.37c-0.03-0.11-0.15-0.26-0.25-0.27
					c-0.35-0.03-0.7-0.01-1.05-0.01c0-0.01,0-0.02,0-0.03c-0.49,0-0.99,0.04-1.48-0.01c-0.76-0.08-1.29-0.52-1.66-1.18
					c-0.39-0.7-0.09-1.28,0.71-1.31c1.13-0.04,2.26-0.01,3.4-0.05c0.78-0.02,1.04-0.31,1.01-1.02
					C179.16,293.45,178.37,292.29,177.08,291.87z M177.38,294.93c-0.55,0.09-1.1,0.11-1.46,0.14c-0.55-0.02-0.9-0.03-1.24-0.06
					c-0.59-0.06-0.83-0.53-0.58-1.03c0.43-0.85,1.13-1.19,2.05-1.11c0.85,0.07,1.37,0.53,1.57,1.42
					C177.79,294.57,177.7,294.88,177.38,294.93z"/>
				<path class="st0" d="M325.63,294.22c-0.02-0.74-0.33-1.38-0.91-1.86c-1.03-0.85-3.09-0.88-4.21-0.05
					c-0.08,0.06-0.1,0.27-0.07,0.39c0.03,0.12,0.15,0.31,0.23,0.31c0.42,0,0.83-0.07,1.25-0.1c0.5-0.04,0.99-0.05,1.47,0.15
					c0.45,0.19,0.84,0.82,0.72,1.19c-0.14,0.43-0.53,0.38-0.87,0.45c-0.49,0.09-0.97,0.2-1.46,0.31c-0.49,0.11-0.93,0.34-1.32,0.67
					c-0.83,0.7-1.11,1.74-0.74,2.69c0.32,0.83,1.18,1.4,2.21,1.38c0.42-0.01,0.87-0.07,1.23-0.25c0.63-0.3,1.15-0.34,1.77,0.07
					c0.39,0.26,0.79-0.12,0.8-0.66c0.01-0.71,0-1.42,0-2.13h-0.09C325.64,295.93,325.66,295.08,325.63,294.22z M322.31,298.6
					c-0.54-0.01-0.95-0.22-1.15-0.76c-0.19-0.51-0.1-0.98,0.27-1.37c0.65-0.65,1.48-0.8,2.34-0.68c0.55,0.08,0.47,0.61,0.49,1.01
					C324.14,298,323.45,298.62,322.31,298.6z"/>
				<path class="st0" d="M281.17,279.84c0.06,0.56,0.5,0.97,0.96,0.96c0.46-0.01,0.91-0.42,0.99-0.95c0.05-0.28,0.06-0.56,0.06-0.85
					c0-2.91,0.01-5.82,0-8.73c0-0.35-0.02-0.71-0.11-1.05c-0.12-0.45-0.45-0.74-0.92-0.74c-0.47,0-0.83,0.26-0.93,0.72
					c-0.09,0.41-0.09,0.84-0.09,1.27c-0.01,1.35,0,2.7,0,4.05c0,1.28,0,2.56,0,3.83C281.12,278.85,281.12,279.35,281.17,279.84z"/>
				<path class="st0" d="M267.1,291.93c-0.84-0.33-1.7-0.27-2.46,0.18c-0.56,0.33-0.96,0.38-1.5-0.08c-0.37-0.31-0.88-0.01-0.9,0.48
					c-0.03,0.99-0.01,1.99-0.01,2.98c0,0,0.01,0,0.01,0c0,1.14-0.02,2.27,0.01,3.41c0.01,0.38,0.22,0.68,0.65,0.7
					c0.42,0.02,0.67-0.24,0.69-0.64c0.04-1.06,0.02-2.13,0.06-3.19c0.02-0.49,0.04-1.01,0.18-1.47c0.27-0.85,1.14-1.37,1.99-1.3
					c0.77,0.06,1.39,0.63,1.54,1.53c0.09,0.56,0.07,1.13,0.09,1.7c0.02,0.92,0.02,1.85,0.06,2.77c0.02,0.41,0.29,0.63,0.71,0.59
					c0.31-0.02,0.55-0.2,0.57-0.52c0.15-1.7,0.18-3.41-0.03-5.1C268.65,292.98,268.03,292.29,267.1,291.93z"/>
				<path class="st0" d="M28.95,280.04h0.01c0-0.99,0.01-1.98,0-2.97c0-0.35-0.03-0.71-0.09-1.05c-0.07-0.42-0.51-0.73-0.93-0.68
					c-0.47,0.05-0.79,0.31-0.86,0.78c-0.06,0.42-0.06,0.85-0.07,1.27c-0.01,1.63,0.01,3.25-0.01,4.88c-0.02,1.6-0.06,1.62-1.61,1.83
					c-0.28,0.04-0.57,0.05-0.83,0.14c-0.43,0.16-0.7,0.49-0.66,0.97c0.04,0.47,0.35,0.78,0.81,0.85c0.42,0.06,0.85,0.07,1.27,0.05
					c1.85-0.07,2.87-1.05,2.96-2.89C28.99,282.16,28.95,281.1,28.95,280.04z"/>
				<path class="st0" d="M208.11,291.83c-0.39,0.07-0.66,0.27-0.79,0.62c-0.35,0.93-0.63,1.89-1.01,2.81
					c-0.29,0.7-0.35,1.52-0.98,2.11c-0.34-0.31-0.47-0.72-0.61-1.12c-0.4-1.14-0.82-2.28-1.22-3.42c-0.12-0.34-0.24-0.67-0.56-0.87
					c-0.26-0.17-0.56-0.18-0.82-0.07c-0.28,0.13-0.38,0.42-0.27,0.72c0.81,2.12,1.63,4.25,2.46,6.37c0.17,0.44,0.51,0.66,0.98,0.68
					c0.51,0.02,0.79-0.31,0.96-0.71c0.85-2.11,1.68-4.23,2.51-6.35c0.03-0.07,0.04-0.14,0.06-0.21
					C208.88,292.06,208.49,291.77,208.11,291.83z"/>
				<path class="st0" d="M217.11,269.09c-0.09-0.39-0.42-0.55-0.8-0.58c-0.39-0.02-0.74,0.16-0.84,0.52
					c-0.13,0.47-0.16,0.98-0.16,1.47c-0.02,2.35-0.01,4.69-0.01,7.03c0,0.71-0.01,1.42,0.03,2.13c0.04,0.74,0.46,1.16,1.01,1.11
					c0.48-0.04,0.81-0.41,0.86-1.04c0.04-0.42,0.03-0.85,0.03-1.28c0-1.28,0-2.56,0-3.84c0-1.42,0.01-2.84-0.01-4.26
					C217.23,269.93,217.2,269.5,217.11,269.09z"/>
				<path class="st0" d="M150.46,295.09c-0.31-0.17-0.64-0.31-0.93-0.51c-0.31-0.22-0.41-0.58-0.32-0.95
					c0.09-0.38,0.38-0.62,0.75-0.65c0.56-0.05,1.13,0,1.7-0.03c0.1,0,0.22-0.16,0.28-0.28c0.13-0.22,0.01-0.44-0.16-0.55
					c-1.08-0.65-2.18-0.56-3.21,0.11c-1.3,0.86-1.32,2.46-0.05,3.38c0.34,0.25,0.75,0.4,1.12,0.6c0.31,0.17,0.63,0.32,0.91,0.54
					c0.37,0.29,0.46,0.72,0.33,1.15c-0.11,0.36-0.43,0.57-0.8,0.62c-0.35,0.05-0.71,0.04-0.7,0.04c-0.72-0.04-1.07-0.08-1.42-0.07
					c-0.1,0-0.27,0.17-0.28,0.26c-0.01,0.19,0.01,0.48,0.13,0.56c1.12,0.75,3.03,0.59,3.98-0.3c0.97-0.91,0.97-2.3-0.06-3.18
					C151.36,295.53,150.89,295.34,150.46,295.09z"/>
				<path class="st0" d="M103.17,295.47c-0.56-0.31-1.14-0.57-1.69-0.9c-0.32-0.19-0.47-0.54-0.37-0.92
					c0.09-0.38,0.38-0.62,0.75-0.66c0.49-0.05,0.99-0.01,1.48-0.02c0.31,0,0.56-0.1,0.57-0.46c0.01-0.22-0.09-0.41-0.31-0.5
					c-1.13-0.48-2.22-0.45-3.21,0.33c-1.03,0.81-1.05,2.33-0.03,3.14c0.44,0.35,0.98,0.56,1.48,0.82c0.91,0.48,1.32,1.07,1.06,1.6
					c-0.35,0.69-1,0.72-1.66,0.67c-0.42-0.03-0.84-0.13-1.26-0.15c-0.22-0.01-0.39,0.16-0.43,0.39c-0.04,0.22,0.01,0.41,0.22,0.54
					c0.5,0.32,1.05,0.42,1.59,0.41c0.8,0.01,1.15-0.05,1.7-0.3c1.05-0.48,1.54-1.32,1.37-2.38
					C104.31,296.32,103.82,295.83,103.17,295.47z"/>
				<path class="st0" d="M134.97,288.66c-0.07-0.3-0.37-0.39-0.67-0.39c-0.3,0-0.57,0.11-0.66,0.41c-0.09,0.26-0.13,0.55-0.14,0.83
					c-0.01,2.97-0.01,5.94,0,8.91c0,0.28,0.04,0.57,0.15,0.82c0.11,0.27,0.36,0.41,0.68,0.41c0.32,0,0.58-0.15,0.66-0.43
					c0.1-0.33,0.12-0.69,0.12-1.04c0.01-1.34,0-2.69,0-4.03h0c0-1.41,0.01-2.83-0.01-4.24
					C135.11,289.49,135.07,289.06,134.97,288.66z"/>
				<path class="st0" d="M38.43,288.81c-0.08-0.4-0.4-0.55-0.79-0.53c-0.31,0.02-0.54,0.19-0.6,0.5c-0.05,0.28-0.07,0.56-0.07,0.85
					c0,2.91,0,5.82,0,8.73c0,0.28,0,0.58,0.09,0.84c0.09,0.28,0.33,0.43,0.65,0.44c0.32,0.01,0.59-0.15,0.66-0.43
					c0.11-0.4,0.15-0.83,0.15-1.25c0.02-1.35,0.01-2.7,0.01-4.05h0c0-1.28,0.01-2.55,0-3.83C38.52,289.65,38.51,289.22,38.43,288.81
					z"/>
				<path class="st0" d="M66.19,288.6c-0.04-0.15-0.31-0.28-0.49-0.31c-0.28-0.06-0.61,0-0.72,0.28c-0.13,0.32-0.2,0.68-0.21,1.02
					c-0.02,1.41-0.01,2.83-0.01,4.24h0.02c0,1.63-0.02,3.25,0.01,4.88c0.01,0.67,0.38,1.01,0.88,0.95c0.53-0.06,0.66-0.46,0.69-0.91
					c0.02-0.21,0.02-0.42,0.02-0.64c0-2.76,0.01-5.52,0-8.28C66.38,289.42,66.31,289,66.19,288.6z"/>
				<path class="st0" d="M170.11,291.77c-0.49-0.05-0.78-0.26-0.81-0.78c-0.01-0.28-0.02-0.58-0.12-0.83
					c-0.06-0.15-0.31-0.3-0.48-0.31c-0.19-0.01-0.39,0.12-0.58,0.21c-0.05,0.03-0.1,0.11-0.11,0.17c-0.12,0.78-0.3,1.49-1.14,1.86
					c-0.2,0.09-0.23,0.6,0.08,0.71c0.86,0.29,0.92,0.94,0.91,1.69c-0.01,1.06-0.03,2.13,0.04,3.19c0.1,1.49,0.86,2.13,2.45,2.09
					c0.11-0.03,0.32-0.07,0.5-0.17c0.11-0.06,0.2-0.21,0.23-0.34c0.06-0.21,0.02-0.43-0.19-0.55c-0.11-0.07-0.25-0.13-0.39-0.15
					c-0.88-0.1-1.19-0.65-1.2-1.46c-0.01-0.92-0.02-1.84-0.01-2.76c0.01-0.35,0.02-0.73,0.17-1.03c0.22-0.45,0.75-0.27,1.14-0.36
					c0.07-0.02,0.14-0.02,0.21-0.04c0.2-0.08,0.42-0.18,0.38-0.43c-0.03-0.18-0.13-0.43-0.28-0.51
					C170.68,291.83,170.39,291.79,170.11,291.77z"/>
				<path class="st0" d="M273.05,293.78c0.01-0.5,0.26-0.78,0.78-0.79c0.14,0,0.28-0.02,0.42-0.04c0.36-0.05,0.73-0.14,0.68-0.61
					c-0.03-0.31-0.28-0.47-0.59-0.52c-0.14-0.02-0.28-0.05-0.42-0.05c-0.61-0.01-0.89-0.3-0.91-0.92c0-0.27-0.05-0.57-0.17-0.81
					c-0.15-0.32-0.48-0.25-0.74-0.15c-0.28,0.11-0.47,0.34-0.47,0.65c0,0.72-0.35,1.14-0.97,1.49c-0.34,0.19-0.28,0.7,0.11,0.84
					c0.67,0.24,0.81,0.69,0.8,1.31c0,1.2-0.03,2.41,0.06,3.61c0.1,1.37,0.84,1.97,2.25,1.98c0.14-0.02,0.28-0.03,0.42-0.05
					c0.33-0.05,0.5-0.29,0.51-0.58c0-0.17-0.18-0.48-0.3-0.49c-1.36-0.11-1.54-1-1.5-2.1C273.06,295.62,273.04,294.7,273.05,293.78z
					"/>
				<path class="st0" d="M156.88,291.76c-0.49-0.05-0.78-0.26-0.81-0.78c-0.01-0.28-0.02-0.58-0.13-0.83
					c-0.06-0.15-0.31-0.3-0.48-0.31c-0.19-0.01-0.43,0.09-0.57,0.22c-0.13,0.13-0.23,0.37-0.23,0.57c-0.01,0.63-0.3,1.01-0.87,1.32
					c-0.45,0.24-0.42,0.72,0.1,0.96c0.55,0.26,0.71,0.62,0.72,1.15c0.01,1.2-0.02,2.41,0.06,3.61c0.09,1.5,0.85,2.13,2.45,2.1
					c0.11-0.03,0.32-0.07,0.5-0.16c0.11-0.06,0.2-0.21,0.23-0.34c0.05-0.21,0.02-0.43-0.18-0.55c-0.11-0.07-0.25-0.13-0.39-0.15
					c-0.88-0.09-1.19-0.65-1.2-1.46c-0.01-0.92-0.02-1.84-0.01-2.76c0.01-0.35,0.02-0.73,0.17-1.03c0.22-0.45,0.75-0.27,1.14-0.37
					c0.07-0.02,0.14-0.02,0.21-0.04c0.2-0.08,0.42-0.19,0.38-0.43c-0.03-0.18-0.13-0.43-0.28-0.51
					C157.45,291.83,157.15,291.79,156.88,291.76z"/>
				<path class="st0" d="M219.56,288.57c-0.09-0.24-0.34-0.28-0.53-0.25c-0.18,0.02-0.45,0.13-0.51,0.27
					c-0.12,0.32-0.18,0.68-0.19,1.02c-0.02,1.41-0.01,2.83-0.01,4.24h0c0,1.48-0.01,2.97,0.01,4.45c0,0.34,0.06,0.7,0.19,1.02
					c0.05,0.14,0.34,0.27,0.51,0.26c0.18,0,0.41-0.13,0.52-0.28c0.12-0.15,0.16-0.39,0.16-0.59c0.01-3.18,0.01-6.36,0-9.54
					C219.72,288.97,219.63,288.76,219.56,288.57z"/>
				<path class="st0" d="M9.21,289.52c-0.01-0.4-0.27-0.64-0.7-0.61c-0.31,0.02-0.52,0.2-0.58,0.51c-0.04,0.21-0.07,0.42-0.07,0.63
					c0,2.83,0,5.67,0.01,8.5c0,0.21,0.03,0.43,0.09,0.63c0.1,0.3,0.35,0.46,0.65,0.4c0.18-0.04,0.43-0.16,0.5-0.31
					c0.11-0.24,0.14-0.54,0.14-0.82c0.01-1.35,0.01-2.69,0.01-4.04c-0.01,0-0.03,0-0.04,0C9.22,292.78,9.24,291.15,9.21,289.52z"/>
				<path class="st0" d="M62.48,292.44c-0.07-0.4-0.34-0.6-0.73-0.61c-0.4-0.01-0.74,0.2-0.74,0.59c-0.04,2.18-0.05,4.36-0.03,6.54
					c0,0.47,0.43,0.78,0.86,0.72c0.4-0.06,0.65-0.3,0.66-0.69c0.03-1.05,0.01-2.11,0.01-3.16c0.02,0,0.04,0,0.05,0
					c0-0.85,0.01-1.69,0-2.53C62.55,293,62.53,292.71,62.48,292.44z"/>
				<path class="st0" d="M78.63,291.9c-0.42-0.02-0.69,0.22-0.69,0.62c-0.02,2.12-0.03,4.24-0.02,6.36c0,0.38,0.2,0.68,0.63,0.7
					c0.42,0.02,0.68-0.23,0.69-0.62c0.03-1.13,0.01-2.26,0.01-3.39c0.01,0,0.01,0,0.02,0c0-0.99,0.02-1.98-0.01-2.97
					C79.26,292.23,79.06,291.93,78.63,291.9z"/>
				<path class="st0" d="M243.9,272.86c0.58,0.06,1.12-0.4,1.15-0.99c0.03-0.59-0.45-1.1-1.03-1.11c-0.52-0.01-0.94,0.36-1.01,0.88
					C242.91,272.26,243.31,272.8,243.9,272.86z"/>
				<path class="st0" d="M335.23,272.85c0.57,0.04,1.05-0.46,1.04-1.07c0-0.53-0.38-0.96-0.88-1c-0.6-0.05-1.13,0.37-1.18,0.95
					C334.16,272.26,334.65,272.81,335.23,272.85z"/>
				<path class="st0" d="M336.74,271.87c0.05,0.53,0.65,1.01,1.21,0.96c0.48-0.03,0.88-0.49,0.9-1.01c0.02-0.54-0.34-0.99-0.84-1.06
					C337.36,270.68,336.68,271.27,336.74,271.87z"/>
				<path class="st0" d="M83.36,283.04c0.01,0.56,0.53,1.02,1.13,1c0.51-0.01,0.92-0.42,0.94-0.94c0.02-0.62-0.43-1.13-0.99-1.13
					C83.86,281.97,83.35,282.48,83.36,283.04z"/>
				<path class="st0" d="M336.71,270.26c0.55-0.09,0.94-0.68,0.83-1.26c-0.09-0.51-0.56-0.86-1.07-0.81
					c-0.59,0.06-1.05,0.59-0.98,1.15C335.57,269.91,336.16,270.35,336.71,270.26z"/>
				<path class="st0" d="M157.66,270.85c0.53-0.07,0.94-0.51,0.93-0.99c-0.02-0.57-0.57-1.11-1.1-1.08
					c-0.56,0.03-1.03,0.57-1.01,1.16C156.5,270.51,157.04,270.93,157.66,270.85z"/>
				<path class="st0" d="M255.98,283.22c0.09-0.6-0.31-1.17-0.86-1.24c-0.57-0.07-1.12,0.36-1.19,0.94
					c-0.07,0.54,0.41,1.08,1.01,1.12C255.46,284.09,255.91,283.73,255.98,283.22z"/>
				<path class="st0" d="M293.49,270.84c0.52-0.04,0.92-0.46,0.92-0.96c0-0.57-0.51-1.1-1.05-1.1c-0.54,0-1.05,0.54-1.03,1.12
					C292.34,270.47,292.87,270.9,293.49,270.84z"/>
				<path class="st0" d="M295.96,270.86c0.52,0.01,0.97-0.38,1.01-0.88c0.05-0.61-0.39-1.15-0.96-1.18
					c-0.55-0.04-1.13,0.47-1.16,1.02C294.81,270.32,295.37,270.85,295.96,270.86z"/>
				<path class="st0" d="M188.02,272.86c0.59,0.04,1.09-0.44,1.1-1.04c0.01-0.6-0.49-1.08-1.08-1.05c-0.59,0.03-1.02,0.54-0.98,1.14
					C187.11,272.42,187.51,272.83,188.02,272.86z"/>
				<path class="st0" d="M85.9,283.07c0.02,0.55,0.56,0.99,1.18,0.97c0.51-0.02,0.91-0.45,0.92-0.97c0.01-0.62-0.47-1.13-1.03-1.11
					C86.4,281.99,85.89,282.53,85.9,283.07z"/>
				<path class="st0" d="M160.08,270.86c0.61,0.01,1.1-0.49,1.06-1.06c-0.04-0.58-0.6-1.07-1.14-1.01c-0.57,0.07-1.01,0.62-0.95,1.2
					C159.1,270.48,159.55,270.86,160.08,270.86z"/>
				<path class="st0" d="M189.66,271.8c0,0.62,0.48,1.1,1.06,1.06c0.58-0.04,1.05-0.58,0.99-1.15c-0.06-0.59-0.59-1.01-1.19-0.93
					C190.01,270.84,189.66,271.26,189.66,271.8z"/>
				<path class="st0" d="M12.54,284.34c0-0.56-0.5-1.1-1.05-1.11c-0.54-0.01-1.04,0.52-1.04,1.1c0,0.5,0.41,0.92,0.92,0.96
					C11.99,285.33,12.54,284.88,12.54,284.34z"/>
				<path class="st0" d="M15.08,284.41c0.04-0.59-0.39-1.12-0.95-1.17c-0.54-0.04-1.08,0.46-1.12,1.03
					c-0.04,0.55,0.48,1.04,1.08,1.03C14.61,285.28,15.04,284.89,15.08,284.41z"/>
				<path class="st0" d="M131.17,272.85c0.58-0.02,1.12-0.54,1.11-1.06c-0.01-0.53-0.57-1.02-1.15-1.01
					c-0.51,0.01-0.92,0.42-0.95,0.94C130.14,272.35,130.6,272.87,131.17,272.85z"/>
				<path class="st0" d="M133.67,272.84c0.58,0.02,1.12-0.44,1.15-0.99c0.04-0.54-0.48-1.05-1.07-1.07c-0.5-0.02-0.94,0.38-1,0.89
					C132.69,272.27,133.11,272.82,133.67,272.84z"/>
				<path class="st0" d="M189.42,270.27c0.59-0.05,1.02-0.56,0.96-1.14c-0.06-0.58-0.6-1.01-1.17-0.92
					c-0.57,0.08-0.94,0.64-0.83,1.24C188.47,269.94,188.93,270.31,189.42,270.27z"/>
				<path class="st0" d="M169.43,281.99c-0.55-0.07-1.08,0.42-1.09,1c-0.01,0.61,0.46,1.09,1.04,1.06c0.57-0.03,1.08-0.58,1.03-1.1
					C170.35,282.49,169.91,282.05,169.43,281.99z"/>
				<path class="st0" d="M172.97,282.98c-0.03-0.55-0.57-1.02-1.15-0.99c-0.56,0.03-0.98,0.57-0.91,1.19c0.06,0.51,0.49,0.9,1,0.88
					C172.49,284.04,173,283.52,172.97,282.98z"/>
				<path class="st0" d="M45.85,272.13c0.52-0.02,0.92-0.41,0.95-0.93c0.03-0.6-0.44-1.14-0.99-1.12c-0.56,0.01-1.08,0.52-1.1,1.07
					C44.7,271.66,45.26,272.15,45.85,272.13z"/>
				<path class="st0" d="M43.33,272.12c0.51-0.04,0.9-0.45,0.9-0.98c0.01-0.6-0.48-1.12-1.03-1.09c-0.57,0.03-1.05,0.55-1.04,1.12
					C42.19,271.74,42.71,272.17,43.33,272.12z"/>
				<path class="st0" d="M229.79,281.98c-0.37,0.03-0.64,0.26-0.78,0.62c0.25,0.26,0.27,0.54,0.13,0.83
					c0.15-0.29,0.12-0.56-0.13-0.83c-0.49,0.15-0.74-0.27-1.09-0.45c-0.6-0.29-1.14-0.18-1.46,0.3c-0.25,0.38-0.26,0.78,0.01,1.16
					c0.32,0.45,0.77,0.57,1.28,0.38c0.44-0.16,0.78-0.61,1.32-0.44c0,0,0,0,0,0c0.18,0.35,0.47,0.52,0.85,0.5
					c0.64-0.03,1.04-0.48,1.01-1.1C230.89,282.35,230.41,281.92,229.79,281.98z"/>
				<path class="st0" d="M61.71,288.88c-0.41,0.01-0.78,0.35-0.83,0.77c-0.06,0.49,0.36,0.93,0.87,0.92
					c0.44-0.01,0.79-0.33,0.82-0.76C62.62,289.32,62.2,288.87,61.71,288.88z"/>
				<path class="st0" d="M78.56,288.86c-0.5,0.03-0.9,0.54-0.82,1.03c0.07,0.42,0.47,0.74,0.9,0.71c0.52-0.03,0.92-0.52,0.82-1.02
					C79.39,289.16,78.97,288.83,78.56,288.86z"/>
				<path class="st0" d="M68.92,275.35h0.02c0-1.14,0-2.28,0-3.41c0-0.42-0.01-0.85-0.05-1.28c-0.06-0.6-0.46-0.95-0.96-0.91
					c-0.5,0.04-0.84,0.4-0.89,1.01C67,271.25,67,271.75,67,272.25c0,1.85,0,3.7,0,5.55c0,0.5,0,1-0.06,1.49
					c-0.04,0.38-0.29,0.68-0.67,0.73c-0.64,0.09-1.29,0.12-1.94,0.13v0.03c-0.17-0.01-0.34-0.01-0.51-0.02
					c-1.71-0.02-3.42,0.03-5.12-0.04c-1.42-0.06-2.17-0.93-2.19-2.36c-0.03-1.48,0.63-2.29,2.06-2.49c0.42-0.06,0.85-0.05,1.28-0.06
					c1.14-0.01,2.28,0.01,3.41-0.02c0.42-0.01,0.85-0.05,1.26-0.16c0.37-0.1,0.56-0.41,0.55-0.81c0-0.4-0.22-0.67-0.57-0.81
					c-0.19-0.08-0.41-0.11-0.62-0.12c-1.92-0.01-3.84,0-5.76-0.01c-1.09,0-1.91,0.51-2.54,1.34c-0.85,1.12-1.2,2.4-1.01,3.81
					c0.07,0.49,0.32,0.95,0.14,1.46c-1.62,0.35-2.64,0.35-4.38,0.02c0.08-0.84,0.24-1.68,0.21-2.52c-0.09-2.51-1.71-4.07-4.21-4.11
					c-1.35-0.02-2.7,0.01-4.05,0c-1.43,0-2.4,0.74-3.12,1.9c-0.54,0.88-0.67,1.85-0.65,2.87c0.01,0.63,0.33,1.23,0.08,2.02
					c-1.36,0.15-2.77,0.08-4.18,0.06c-1.29-0.02-1.5-0.24-1.57-1.47c-0.02-0.36-0.01-0.71-0.01-1.07c-0.01-1.92-0.01-3.84-0.03-5.76
					c-0.01-0.49-0.04-0.99-0.13-1.48c-0.08-0.39-0.42-0.56-0.79-0.58c-0.39-0.03-0.69,0.16-0.85,0.51
					c-0.09,0.18-0.14,0.41-0.14,0.62c0,2.84-0.04,5.69,0.02,8.54c0.03,1.52,0.98,2.49,2.51,2.7c0.7,0.1,1.42,0.07,2.13,0.07
					c9.25,0,18.5,0,27.74,0c0.35,0,0.7-0.01,1.06-0.01v0.04c0.77-0.04,1.54-0.13,2.3-0.18c1.39-0.1,2.34-1.42,2.3-2.65
					C68.89,278.05,68.92,276.7,68.92,275.35z M46.7,280.11c-0.77,0.08-1.55,0.02-2.33,0.02v0.01c-0.63,0-1.27,0.05-1.9-0.01
					c-1.26-0.11-2.01-0.95-2.08-2.24c-0.07-1.29,0.57-2.36,1.72-2.56c1.6-0.27,3.24-0.29,4.84,0.02c1.18,0.22,1.72,1.2,1.64,2.6
					C48.51,279.19,47.86,279.99,46.7,280.11z"/>
				<path class="st0" d="M71.85,282.01c0.48-0.04,0.81-0.41,0.86-1.04c0.04-0.42,0.03-0.85,0.03-1.28c0-1.28,0-2.56,0-3.84
					c0-1.42,0.01-2.84-0.01-4.26c0-0.42-0.04-0.85-0.13-1.26c-0.09-0.39-0.42-0.55-0.8-0.58c-0.39-0.03-0.74,0.16-0.84,0.52
					c-0.13,0.47-0.16,0.98-0.16,1.47c-0.02,2.35-0.01,4.69-0.01,7.03c0,0.71-0.01,1.42,0.03,2.13
					C70.88,281.64,71.3,282.06,71.85,282.01z"/>
			</g>
		</g>
	</g>
	<g>
		<path class="st1" d="M214.26,217.15c0.19-0.42,0.13-0.86,0.13-1.3c0-12.96,0-25.92,0-38.88c0-0.44,0.06-0.88-0.13-1.3l0,0
			c-0.02-0.88-0.05-1.76-0.05-2.64c0-24.74,0.01-49.49,0.01-74.23c0-0.63-0.01-1.25-0.02-1.88c-0.01-0.41-0.18-0.72-0.53-0.94
			c-0.37-0.24-0.74-0.48-1.12-0.7c-2.92-1.72-5.83-3.45-8.77-5.16c-1.72-1.01-1.6-0.88-1.6-2.8c0-0.19,0-0.38,0-0.56
			c0.01-12.37,0.02-24.74,0.03-37.12c0-0.63-0.01-1.25-0.03-1.88c-0.01-0.33-0.14-0.61-0.45-0.77l-0.03,0.02
			c-0.07,0.13-0.18,0.22-0.32,0.27c0,0,0,0,0,0c-0.09,0.09-0.19,0.14-0.31,0.15c-0.18,0.07-0.31,0.21-0.47,0.3l-0.04,0.03
			c-0.06,0.14-0.16,0.22-0.31,0.26l0,0c-0.09,0.09-0.2,0.14-0.33,0.16c-0.16,0.08-0.29,0.21-0.46,0.3l-0.05,0.03
			c-0.05,0.14-0.14,0.22-0.29,0.25c0,0,0,0,0,0c-0.12,0.05-0.23,0.11-0.35,0.17c-0.14,0.1-0.27,0.19-0.41,0.28
			c-0.25,0.15-0.49,0.31-0.74,0.46c-0.12,0.11-0.25,0.2-0.39,0.28c-0.07,0.08-0.16,0.12-0.26,0.14c-0.17,0.11-0.33,0.22-0.5,0.33
			c-0.11,0.11-0.23,0.21-0.37,0.28c0,0,0,0,0,0c-0.08,0.08-0.17,0.12-0.28,0.14c-0.2,0.05-0.34,0.19-0.49,0.31l-0.02,0.01
			c-0.09,0.13-0.2,0.22-0.34,0.28v0c-0.08,0.08-0.18,0.13-0.29,0.14c-0.19,0.06-0.33,0.19-0.49,0.31l-0.03,0.02
			c-0.07,0.13-0.18,0.22-0.32,0.27c0,0,0,0,0,0c-0.09,0.09-0.19,0.14-0.31,0.15c-0.18,0.07-0.31,0.21-0.47,0.3l-0.04,0.03
			c-0.06,0.13-0.16,0.22-0.31,0.26l0,0c-0.09,0.09-0.2,0.14-0.33,0.16c-0.16,0.08-0.29,0.22-0.46,0.3l-0.05,0.03
			c-0.05,0.14-0.15,0.22-0.29,0.25l0,0c-0.12,0.06-0.23,0.11-0.35,0.17c-0.14,0.1-0.27,0.19-0.42,0.28
			c-0.25,0.15-0.49,0.31-0.73,0.46c-0.12,0.11-0.26,0.2-0.4,0.28c-0.07,0.08-0.16,0.12-0.26,0.13c-0.17,0.11-0.34,0.22-0.5,0.33
			c-0.11,0.12-0.23,0.21-0.37,0.28c0,0,0,0,0,0c-0.08,0.08-0.17,0.13-0.28,0.14c-0.2,0.05-0.34,0.19-0.49,0.32l-0.02,0.01
			c-0.09,0.12-0.2,0.22-0.34,0.27v0c-0.08,0.08-0.18,0.13-0.29,0.14c-0.19,0.06-0.33,0.2-0.48,0.31l-0.03,0.02
			c-0.07,0.13-0.18,0.22-0.32,0.27c0,0,0,0,0,0c-0.09,0.09-0.19,0.14-0.31,0.15c-0.18,0.07-0.31,0.21-0.47,0.3l-0.04,0.02
			c-0.06,0.14-0.16,0.22-0.31,0.26l0,0c-0.09,0.09-0.2,0.14-0.33,0.16c-0.01,0-0.01,0.01-0.02,0.01c-0.15,0.08-0.28,0.21-0.44,0.29
			l-0.05,0.03c-0.05,0.14-0.14,0.22-0.29,0.25l0,0c-0.12,0.06-0.23,0.12-0.35,0.17c-0.13,0.1-0.27,0.19-0.41,0.28
			c-0.25,0.15-0.49,0.31-0.74,0.47c-0.12,0.11-0.25,0.2-0.39,0.27c0,0,0,0,0,0c-0.07,0.08-0.16,0.12-0.27,0.14
			c-0.17,0.11-0.33,0.22-0.5,0.33l0,0c-0.1,0.12-0.22,0.21-0.36,0.28h0c-0.08,0.08-0.17,0.13-0.28,0.14
			c-0.2,0.05-0.34,0.19-0.49,0.31l-0.02,0.01c-0.08,0.13-0.2,0.22-0.34,0.28l0,0c-0.08,0.08-0.18,0.13-0.3,0.15
			c-0.18,0.07-0.33,0.2-0.48,0.31l-0.03,0.02c-0.07,0.13-0.18,0.22-0.32,0.26c0,0,0,0,0,0c-0.09,0.09-0.19,0.14-0.32,0.15
			c-0.17,0.07-0.3,0.21-0.46,0.3l-0.05,0.03c-0.06,0.14-0.16,0.22-0.3,0.26c0,0,0,0,0,0c-0.09,0.09-0.2,0.15-0.33,0.16c0,0,0,0,0,0
			c-0.16,0.08-0.29,0.22-0.45,0.3c0,0,0,0,0,0l-0.06,0.03c-0.05,0.14-0.14,0.22-0.29,0.24l0,0c-0.12,0.06-0.23,0.12-0.35,0.17
			c-0.03,0.02-0.06,0.04-0.09,0.06c-0.11,0.08-0.21,0.15-0.32,0.22c-0.06,0.07-0.15,0.12-0.24,0.13c-0.23,0.03-0.38,0.17-0.52,0.34
			L175,64.4c-0.12,0.11-0.25,0.2-0.38,0.27c0,0,0,0,0,0c-0.07,0.08-0.16,0.12-0.27,0.14c-0.17,0.11-0.33,0.22-0.5,0.33h0
			c-0.1,0.12-0.22,0.21-0.36,0.27c0,0,0,0,0,0c-0.08,0.08-0.17,0.13-0.28,0.14c-0.19,0.06-0.34,0.19-0.49,0.32l-0.02,0.01
			c-0.08,0.13-0.2,0.22-0.34,0.27c0,0,0,0,0,0c-0.08,0.08-0.18,0.13-0.3,0.15c-0.18,0.07-0.32,0.2-0.48,0.31l-0.03,0.02
			c-0.07,0.13-0.18,0.22-0.32,0.27l0,0c-0.09,0.09-0.19,0.14-0.32,0.15c-0.17,0.07-0.3,0.21-0.47,0.3l-0.04,0.03
			c-0.06,0.14-0.16,0.22-0.3,0.26l0,0c-0.09,0.09-0.2,0.15-0.33,0.16c-0.16,0.08-0.29,0.22-0.45,0.3c0,0,0,0,0,0l-0.06,0.03
			c-0.04,0.14-0.14,0.22-0.28,0.24h0c-0.12,0.06-0.23,0.12-0.35,0.17c-0.13,0.1-0.27,0.19-0.41,0.28c-0.07,0.07-0.15,0.12-0.25,0.13
			c-0.11,0.2-0.28,0.31-0.51,0.34c-0.12,0.1-0.24,0.19-0.38,0.27l0,0c-0.07,0.08-0.16,0.12-0.26,0.14c-0.17,0.11-0.33,0.22-0.5,0.33
			l0,0c-0.1,0.12-0.22,0.21-0.36,0.27v0c-0.08,0.08-0.18,0.13-0.29,0.14c-0.19,0.06-0.34,0.19-0.49,0.31l-0.02,0.01
			c-0.08,0.13-0.19,0.22-0.33,0.27l0,0c-0.08,0.08-0.19,0.13-0.3,0.15c-0.18,0.07-0.32,0.2-0.48,0.31l-0.04,0.02
			c-0.07,0.13-0.17,0.22-0.31,0.26l0,0c-0.09,0.09-0.19,0.14-0.32,0.16c-0.11,0.07-0.22,0.14-0.32,0.21
			c-0.04,0.03-0.09,0.06-0.14,0.09l0,0l-0.05,0.03c-0.05,0.14-0.15,0.22-0.3,0.25l0,0c-0.11,0.06-0.23,0.11-0.34,0.17
			c-0.14,0.1-0.28,0.19-0.42,0.29c-0.06,0.07-0.14,0.11-0.23,0.12c-0.12,0.2-0.29,0.31-0.52,0.35c-0.12,0.1-0.24,0.19-0.38,0.27
			c-0.07,0.08-0.15,0.12-0.25,0.13c-0.17,0.12-0.34,0.24-0.5,0.36l0,0l0.02-0.01c-0.03,0.75-0.09,1.5-0.08,2.25
			c0.11,18.46,0.02,36.92,0.31,55.38c0.03,1.94-0.18,3.88-0.18,5.82c-0.03,23.04-0.05,46.09-0.07,69.13c0,0.82-0.03,1.63-0.05,2.45
			c0.03,0.94,0.07,1.88,0.07,2.82c-0.01,4.71-0.03,9.43-0.04,14.14c0.03,0.12,0.04,0.24,0.03,0.37c0.46,0.64,0.43,1.43,0.66,2.14
			c0.49,1.53,1.27,2.86,2.46,3.94c0.77,0.7,1.66,1.12,2.72,1.12c1.19,0,2.39-0.02,3.57,0.01c0.85,0.02,1.49-0.32,1.81-1.09
			c0.75-1.82,2.06-3.29,3.01-4.98c0.11-0.2,0.22-0.49,0.56-0.31c0.29,0.3,0.22,0.7,0.29,1.06c0.16,0.8,0.25,1.62,0.52,2.38
			c0.6,1.68,1.84,2.64,3.62,2.88c0.67,0.09,1.22-0.07,1.65-0.64c0.34-0.45,0.75-0.84,1.15-1.24c0.28-0.27,0.58-0.2,0.8,0.09
			c0.3,0.4,0.58,0.82,0.86,1.23c1.08,1.58,2.47,2.84,4.08,3.85c2.36,1.49,4.94,2.44,7.68,2.97c0.18,0.04,0.37,0.07,0.56,0.05
			c0.41-0.03,0.73-0.25,0.83-0.65c0.09-0.36,0.11-0.74,0.12-1.12c0.05-1.89-0.22-3.75-0.58-5.6c-0.33-1.74-0.93-3.39-1.72-4.96
			c-0.35-0.69-0.2-1.16,0.31-1.66c1.07-1.05,2.1-2.14,3.15-3.22l0-0.01c0.12-0.13,0.26-0.25,0.33-0.43c0,0,0,0,0,0l-0.03,0.02
			c0.53-0.33,0.48-1,0.85-1.43l0.01-0.03c0.1-0.16,0.23-0.3,0.29-0.49c0.01-0.1,0.04-0.2,0.1-0.29c0.11-0.15,0.24-0.29,0.28-0.48
			c0-0.1,0.03-0.19,0.08-0.27c0.26-0.18,0.6-0.34,0.34-0.76c0.03-0.13,0.06-0.26,0.09-0.38c0.07-0.16,0.2-0.29,0.25-0.47
			c0-0.1,0.02-0.2,0.07-0.29c0.04-0.04,0.06-0.09,0.1-0.13c0.21-0.29,0.29-0.62,0.26-0.99c0.02-0.13,0.04-0.26,0.06-0.39
			c0,0,0,0,0,0c0.2-0.23,0.29-0.5,0.27-0.81c0.03-0.23,0.07-0.46,0.1-0.69l0,0c0.27-0.35,0.35-0.75,0.29-1.18
			c0.03-0.36,0.07-0.73,0.1-1.09l0,0c0.4-0.59,0.35-1.24,0.29-1.9c0.02-0.5,0.04-0.99,0.06-1.49l0,0c0.28-0.73,0.14-1.49,0.14-2.24
			c0.01-37.07,0-74.15,0.04-111.22c0-0.67-0.62-1.67,0.59-2.05c2.45,1.42,4.89,2.84,7.34,4.24c0.61,0.35,0.89,0.84,0.86,1.54
			c-0.02,0.5,0,1.01,0,1.51c-0.01,23.51,0.12,47.02-0.1,70.53c-0.13,13.58-0.1,27.15-0.21,40.72c0,0.5-0.04,1.01-0.05,1.51
			c0,0,0,0,0,0c0.16,1.79,0.01,3.59-0.04,5.38c-0.01,0.22-0.07,0.44-0.15,0.66c-0.04,0.14-0.09,0.27-0.13,0.41
			c-0.01,0.24-0.02,0.48-0.03,0.71c-0.3,0.11-0.54,0.28-0.59,0.57c-0.01,0.07-0.02,0.16-0.01,0.25c0.01,0.09,0.03,0.17,0.04,0.26
			c0.01,0.44,0.02,0.88,0.14,1.3c0.03,0.08,0.05,0.16,0.07,0.24c0,0.01,0,0.03,0.01,0.04c0,0,0,0,0,0l0.01-0.01c0,0,0,0,0,0
			c0,0,0,0,0,0l0,0c-0.04,0.5-0.02,1.01-0.13,1.49c-1.02,4.44-2.67,8.6-5.53,12.22c-0.89,1.13-1.76,2.28-2.76,3.32
			c-1.04,1.08-2.08,2.18-3.1,3.27c-0.14,0.15-0.43,0.32-0.05,0.63c2.88-2.13,5.42-4.63,7.64-7.43c1.79-2.26,3.41-4.65,4.57-7.31
			c0.1-0.22,0.28-0.41,0.42-0.62c0.01-0.11,0.04-0.22,0.09-0.31c0.07-0.08,0.1-0.18,0.13-0.28c0.07-0.15,0.14-0.31,0.21-0.46l0-0.01
			c0.22-0.23,0.34-0.49,0.34-0.81c0,0,0,0,0,0c0,0,0,0,0,0c0-0.11,0.03-0.22,0.08-0.33c0.2-0.22,0.31-0.47,0.32-0.77c0,0,0,0,0,0
			s0,0,0,0c0-0.13,0.03-0.25,0.08-0.36c0.2-0.22,0.3-0.47,0.3-0.76l0,0l0,0c0-0.13,0.02-0.25,0.07-0.37
			c0.19-0.23,0.3-0.48,0.29-0.79v0v0c0.04-0.24,0.08-0.49,0.12-0.73c0.19-0.22,0.28-0.46,0.27-0.75c0.03-0.25,0.07-0.5,0.1-0.76
			c0.19-0.23,0.27-0.49,0.26-0.78c0,0,0,0,0,0c0,0,0,0,0,0c0.03-0.24,0.05-0.48,0.08-0.72c0.34-0.46,0.36-0.99,0.3-1.53c0,0,0,0,0,0
			c0,0,0,0,0-0.01C214.21,217.89,214.24,217.52,214.26,217.15 M197.98,217.76c-0.38,2.83-1.54,5.29-3.47,7.39
			c-0.66,0.71-0.86,0.72-1.51,0.05c-0.44-0.45-0.85-0.93-1.3-1.36c-0.31-0.3-0.65-0.59-1.01-0.84c-0.43-0.29-0.86-0.2-1.16,0.2
			c-0.07,0.1-0.15,0.2-0.2,0.32c-0.69,1.41-1.38,2.82-2.07,4.24c-0.11,0.22-0.17,0.47-0.23,0.71c-0.15,0.61,0,1.14,0.51,1.51
			c0.82,0.59,1.65,1.15,2.71,1.2c0.44,0.02,0.9,0.01,1.3,0.16c0.53,0.2,1.34-0.12,1.56,0.74c-0.54,0.34-1.11,0.18-1.64,0.05
			c-4.35-1.1-7.39-3.65-8.68-8.04c-0.52-1.76-0.68-3.57-0.51-5.41c0.38-4.2,1.68-8.1,3.75-11.76c0.39-0.69,0.97-1.3,1-2.15
			c-0.36,0.14-0.56,0.44-0.76,0.75c-2.74,4.23-4.61,8.79-5.14,13.83c-0.26,2.44-0.15,4.9,0.02,7.35c0.03,0.5,0.08,1,0.03,1.5
			c-0.06,0.58-0.83,0.88-1.32,0.56c-0.5-0.33-0.75-0.85-0.92-1.39c-0.34-1.08-0.52-2.2-0.53-3.34c0-2.52-0.03-5.03-0.03-7.55
			c-0.01-4.02-0.01-8.05-0.02-12.07c0-0.5,0-1.01-0.02-1.51c-0.01-0.31,0-0.66-0.36-0.8c-0.35-0.13-0.6,0.08-0.79,0.35
			c-0.7,1.04-1.39,2.09-2.09,3.14c-0.41,0.62-0.39,1.3-0.34,2c0.23,3.45,0.27,6.91,0.18,10.37c-0.06,2.07-0.34,4.13-0.74,6.17
			c-0.26,1.37-0.79,2.64-1.47,3.86c-0.3,0.52-0.7,0.88-1.32,0.94c-1.75,0.18-3.5,0.27-5.26,0.01c-0.81-0.12-1.41-0.48-1.86-1.14
			c-0.53-0.79-0.97-1.62-1.05-2.59c-0.08-1-0.23-2.01-0.17-3.01c0.2-3.58,0.09-7.17,0.12-10.75c0.04-6.04,0.03-12.07,0.04-18.11
			c0-0.63,0.03-1.25,0.07-1.88c0.01-0.09,0.12-0.22,0.22-0.25c0.1-0.03,0.26-0.01,0.34,0.06c0.37,0.34,0.7,0.73,1.08,1.06
			c0.47,0.41,0.94,0.84,1.47,1.17c1.72,1.07,3.45,1.06,5.11-0.15c0.5-0.37,0.95-0.82,1.4-1.26c0.54-0.52,1.04-1.1,1.6-1.6
			c0.6-0.55,1.02-0.56,1.66-0.01c0.52,0.45,0.98,0.97,1.47,1.46c0.66,0.67,1.28,1.39,1.99,2c1.38,1.19,2.39,1.22,3.93,0.2
			c0.31-0.21,0.61-0.45,0.88-0.7c1-0.94,0.96-1.23,0.05-2.13c-0.8-0.8-1.55-1.65-2.33-2.47c-0.71-0.73-1.54-1.29-2.46-1.72
			c-1.24-0.57-2.42-0.52-3.6,0.19c-0.76,0.46-1.42,1.04-2.04,1.66c-0.57,0.58-1.14,1.17-1.76,1.71c-0.45,0.4-0.91,0.4-1.37,0.03
			c-0.39-0.31-0.74-0.68-1.09-1.03c-0.8-0.8-1.59-1.61-2.4-2.41c-0.98-0.98-2.07-1.39-3.4-0.71c-0.11,0.05-0.24,0.05-0.37,0.06
			c-0.06,0-0.12-0.02-0.2-0.04c-0.36-0.5-0.21-1.08-0.21-1.63c0.01-8.86,0.02-17.73,0.04-26.59c0.01-5.97,0.02-11.95,0.04-17.92
			c0-0.5-0.01-1.01,0.02-1.51c0.01-0.17,0.06-0.4,0.18-0.48c0.27-0.18,0.47,0.05,0.63,0.23c1.96,2.13,3.92,4.25,5.87,6.39
			c1.53,1.67,3.05,3.35,4.57,5.02c0.21,0.23,0.42,0.46,0.65,0.69c0.17,0.17,0.34,0.4,0.62,0.34c0.34-0.07,0.28-0.38,0.29-0.61
			c0.03-0.44,0.02-0.88,0.02-1.32c0-19.24,0.01-38.47,0.01-57.71c0-3.9,0.01-7.8,0.02-11.69c0-0.44,0-0.88,0.03-1.32
			c0.04-0.59,0.33-0.73,0.9-0.43c0.39,0.2,0.77,0.43,1.15,0.65c5.85,3.45,11.69,6.9,17.53,10.36c0.86,0.51,1.72,1.04,2.59,1.54
			c0.48,0.28,0.71,0.68,0.7,1.24c-0.01,0.57,0.01,1.13,0.01,1.7c-0.01,11.76-0.01,23.51-0.04,35.27c-0.01,4.27-0.15,8.55-0.18,12.82
			c-0.04,4.96-0.04,9.93-0.05,14.89c-0.05,16.91-0.1,33.82-0.15,50.74C198.67,210.76,198.46,214.27,197.98,217.76 M198.75,86.81
			c-0.6,0.32-1.24-0.42-1.82-0.76c-7.2-4.23-14.4-8.49-21.6-12.72c-0.62-0.36-1.16-0.98-2.01-0.77c-0.33,0.65-0.17,1.35-0.17,2.03
			c-0.04,22.12-0.06,44.24-0.08,66.36c0,0.69,0,1.38,0,2.2c-0.8-0.12-1.04-0.6-1.37-0.95c-2.43-2.64-4.8-5.32-7.27-7.91
			c-0.84-0.89-1.19-1.79-1.19-3.01c0.01-7.6,0.03-15.21-0.11-22.81c-0.18-9.93-0.13-19.86-0.21-29.78c-0.02-2.99-0.29-2.37,2.06-3.9
			c10.69-6.96,21.38-13.91,32.08-20.85c0.56-0.36,1.17-1.17,1.77-0.85c0.71,0.38,0.33,1.36,0.33,2.07c0,9.87-0.01,19.73-0.05,29.6
			C199.11,85.46,199.47,86.43,198.75,86.81"/>
		<path class="st1" d="M150.43,225.03c0-14.96,0-29.92-0.01-44.88c0-17.73-0.01-35.46-0.01-53.18c0-0.57,0-1.13-0.02-1.7
			c-0.01-0.24,0-0.56-0.32-0.58c-0.27-0.02-0.39,0.27-0.49,0.49c-0.16,0.34-0.31,0.68-0.45,1.04c-0.47,1.17-0.9,2.35-1.4,3.5
			c-0.46,1.06-0.63,2.14-0.63,3.3c-0.06,30.42,0.01,60.85-0.32,91.27c0,0.5-0.03,1.01-0.01,1.51c0.04,0.87-0.39,1.42-1.16,1.75
			c-0.98,0.43-1.95,0.87-2.93,1.3c-0.17,0.07-0.35,0.13-0.53,0.18c-1.84,0.55-2.46,0.2-3.04-1.69c-0.23-0.73-0.32-1.47-0.33-2.23
			c-0.02-1.32-0.04-2.64-0.04-3.96c-0.01-5.47-0.02-10.94-0.03-16.41c0-0.63-0.04-1.25-0.1-1.88c-0.01-0.16-0.18-0.36-0.33-0.42
			c-0.24-0.11-0.51-0.02-0.67,0.2c-0.68,0.98-1.33,1.98-2.02,2.96c-0.42,0.59-0.59,1.23-0.56,1.95c0.07,1.57,0.07,3.14,0.18,4.71
			c0.28,4.04,0,8.04-0.67,12.02c-0.24,1.44-0.79,2.77-1.53,4.04c-0.34,0.58-0.8,0.98-1.5,0.98c-2.01,0.01-4.03,0.1-6.03-0.02
			c-1.83-0.11-2.69-1.28-2.4-3.09c0.21-1.3,0.56-2.58,0.87-3.86c0.35-1.47,0.78-2.92,1.07-4.39c0.31-1.54,0.54-3.08,0.36-4.68
			c-0.32-2.85-1.53-5.29-3.24-7.52c-0.69-0.89-1.48-1.71-2.23-2.56c-0.29-0.26-0.53-0.24-0.73,0.11l0,0
			c-0.04,0.23-0.08,0.46-0.12,0.69c-0.19,0.23-0.27,0.49-0.26,0.78l0,0c-0.03,0.37-0.06,0.74-0.09,1.11
			c-0.36,0.51-0.36,1.01,0.05,1.5l0.01,0.01c0.09,0.12,0.19,0.23,0.28,0.35l0,0c0.32,1.74,0.16,3.49,0.14,5.24
			c0.35,0.78,0.24,1.6,0.25,2.41c0.07,8.41,0.12,16.82,0.18,25.23c0,0.61,0,1.21,0,1.82c0.14-0.12,0.18-0.24,0.19-0.37
			c0.15-6.84,0.31-13.68,0.44-20.52c0.06-2.95,0.07-5.9,0.11-8.85c0.01-0.5,0.02-1,0.05-1.5c0.01-0.18,0.04-0.4,0.26-0.45
			c0.2-0.05,0.35,0.07,0.45,0.23c0.71,1.19,1.31,2.43,1.71,3.76c0.3,1.03,0.41,2.07,0.25,3.16c-0.2,1.37-0.47,2.72-0.9,4.04
			c-0.21,0.66-0.42,1.32-0.58,1.99c-0.42,1.72-0.68,3.46-0.49,5.22c0.29,2.71,1.62,4.93,5.25,5.01c1.13,0.02,2.26,0,3.39,0
			c0.7,0,1.2-0.31,1.53-0.91c0.21-0.38,0.41-0.78,0.6-1.17c0.7-1.49,1.86-2.68,2.65-4.11c0.05-0.09,0.2-0.12,0.34-0.19
			c0.49,0.77,0.41,1.68,0.6,2.52c0.63,2.84,2.91,4.53,5.93,3.7c2.88-0.79,5.47-2.23,7.02-5c0.12-0.21,0.32-0.38,0.49-0.56
			c0.02-0.12,0.06-0.22,0.13-0.32c0.08-0.15,0.17-0.28,0.27-0.41c0.01-0.12,0.05-0.24,0.12-0.34c0.07-0.15,0.16-0.28,0.26-0.41
			c0.01-0.12,0.05-0.24,0.11-0.35c0.08-0.15,0.17-0.3,0.26-0.44c0-0.11,0.02-0.21,0.07-0.31
			C150.32,225.61,150.44,225.34,150.43,225.03C150.43,225.03,150.43,225.03,150.43,225.03S150.43,225.03,150.43,225.03"/>
		<path class="st1" d="M133.45,253.93c-0.45-0.44-0.92-0.86-1.33-1.33c-0.61-0.71-0.61-1.13,0.01-1.81c0.5-0.56,1.06-1.07,1.6-1.59
			c0.55-0.53,1.04-1.09,1.43-1.74c0.43-0.72,0.7-1.47,0.63-2.26c0.04-1.48-0.64-2.61-1.58-3.57c-1.09-1.13-2.27-2.17-3.4-3.26
			c-0.33-0.31-0.65-0.33-0.99-0.02c-0.62,0.55-1.11,1.19-1.52,1.91c-0.63,1.11-0.6,2.15,0.27,3.12c0.42,0.47,0.85,0.93,1.3,1.37
			c0.71,0.71,1.46,1.39,2.15,2.12c0.79,0.84,0.8,1.27,0.04,2.1c-0.5,0.56-1.06,1.08-1.6,1.6c-0.59,0.57-1.1,1.2-1.53,1.91
			c-0.67,1.1-0.76,2.23-0.25,3.42c0.4,0.94,0.95,1.77,1.67,2.49c0.76,0.75,1.56,1.46,2.31,2.22c1.28,1.32,1.34,1.25,2.62-0.15
			c0.21-0.23,0.38-0.5,0.54-0.77c0.87-1.46,0.84-2.32-0.26-3.6C134.92,255.31,134.16,254.64,133.45,253.93"/>
		<path class="st1" d="M119.98,191c-0.46,0.51-0.9,1.05-1.3,1.61c-0.93,1.31-0.91,2.7-0.2,4.1c0.46,0.9,1.06,1.71,1.8,2.41
			c0.86,0.82,1.73,1.64,2.61,2.45c0.6,0.56,0.82,0.56,1.42-0.05c0.44-0.45,0.86-0.93,1.19-1.45c0.82-1.3,0.77-2.48-0.26-3.63
			c-0.92-1.03-1.98-1.92-2.95-2.9c-1.21-1.21-1.2-1.61-0.04-2.8c0.61-0.63,1.28-1.21,1.86-1.87c0.8-0.91,1.4-1.94,1.45-3.34
			c-0.05-1.32-0.69-2.53-1.69-3.54c-1.05-1.08-2.15-2.12-3.24-3.16c-0.54-0.51-0.79-0.51-1.28-0.05c-0.61,0.56-1.09,1.21-1.49,1.93
			c-0.63,1.13-0.54,2.16,0.34,3.11c0.38,0.42,0.76,0.84,1.16,1.24c0.67,0.67,1.36,1.31,2.02,1.98c1.06,1.08,1.07,1.46,0.07,2.51
			C120.97,190.03,120.44,190.49,119.98,191"/>
		<path class="st1" d="M187.1,204.68c0.46-0.2,0.66-0.57,0.68-1.06c-0.42,0.23-0.7,0.55-0.71,1.05c-0.01,0.01-0.02,0.03-0.03,0.04
			c0,0.01,0,0.03,0,0.04c0.01,0,0.02-0.01,0.03-0.02C187.08,204.71,187.09,204.69,187.1,204.68"/>
		<path class="st1" d="M173.07,183.08c-1.44-1.49-2.9-2.95-4.37-4.41c-0.4-0.4-0.75-0.37-1.15,0c-0.75,0.7-1.18,1.61-1.67,2.49
			c-0.39,0.7-0.26,1.34,0.18,1.94c0.22,0.3,0.48,0.58,0.76,0.82c1.45,1.21,2.81,2.51,4.11,3.87c0.17,0.18,0.36,0.34,0.56,0.5
			c0.22,0.17,0.47,0.21,0.69,0.04c1.05-0.78,1.69-1.83,1.98-3.18c-0.07-0.24-0.1-0.57-0.25-0.83
			C173.67,183.89,173.41,183.44,173.07,183.08"/>
		<path class="st1" d="M187.79,203.57c0,0.01,0,0.03,0,0.04c0.01,0,0.02-0.01,0.03-0.01L187.79,203.57z"/>
		<path class="st1" d="M188.42,202.56c-0.17,0.17-0.22,0.38-0.22,0.61c0.16-0.15,0.33-0.3,0.49-0.46c0.04-0.04,0.06-0.14,0.04-0.16
			C188.63,202.43,188.52,202.45,188.42,202.56"/>
		<path class="st1" d="M188.2,203.21c0-0.01,0-0.03,0-0.05c-0.01,0.01-0.02,0.02-0.03,0.02L188.2,203.21z"/>
		<path class="st1" d="M188.2,203.21l-0.02-0.02c-0.02,0.02-0.03,0.03-0.05,0.05C188.15,203.23,188.17,203.22,188.2,203.21"/>
		<path class="st1" d="M187.81,203.6c0.01-0.03,0.02-0.06,0.04-0.08c-0.02,0.02-0.04,0.04-0.06,0.06L187.81,203.6"/>
		<path class="st1" d="M187.85,203.52c0.09-0.09,0.18-0.18,0.28-0.27C187.99,203.29,187.9,203.39,187.85,203.52"/>
	</g>
</g>
</svg>
