<?xml version="1.0" encoding="utf-8"?>
<!-- Generator: Adobe Illustrator 26.0.1, SVG Export Plug-In . SVG Version: 6.00 Build 0)  -->
<svg version="1.1" id="Layer_1" xmlns="http://www.w3.org/2000/svg" xmlns:xlink="http://www.w3.org/1999/xlink" x="0px" y="0px"
	 viewBox="0 0 350 350" style="enable-background:new 0 0 350 350;" xml:space="preserve">
<style type="text/css">
	.st0{fill:#A41D18;}
</style>
<g>
	<path d="M336.89,74.14c-0.24,1.03-0.3,2.15-0.75,3.08c-4.23,8.72-8.43,17.46-12.82,26.1c-6.06,11.95-12.23,23.84-18.45,35.71
		c-4.34,8.27-7.82,17.05-13.81,24.35c-2.09,2.55-4.56,4.96-7.3,6.77c-4.06,2.69-7.73,2.09-10.74-1.77c-2.06-2.64-3.9-5.75-4.82-8.94
		c-4.04-14-7.66-28.13-11.55-42.18c-3.44-12.43-6.04-25.11-11.04-37.06c-1.24-2.98-3.03-5.86-5.12-8.32
		c-3.29-3.87-6.68-4.09-10.93-1.18c-4.37,2.98-7.31,7.28-10,11.7c-3.62,5.96-7.06,12.04-10.52,18.1
		c-12.7,22.24-25.41,44.48-38.07,66.74c-9.52,16.74-18.88,33.58-28.54,50.25c-2.25,3.88-5.31,7.31-8.19,10.78
		c-1.66,2.01-4.07,2.92-6.71,2.97c-3.84,0.06-7.68-0.05-11.52,0.13c-5.18,0.25-8.49-2.31-10.53-6.74
		c-1.83-3.99-3.84-7.97-5.05-12.16c-3.27-11.32-6.17-22.74-9.19-34.13c-2.02-7.62-3.9-15.27-6.03-22.86
		c-0.42-1.48-1.71-2.71-2.6-4.05c-1.19,1.06-2.73,1.91-3.5,3.22c-9.09,15.3-18.05,30.67-27.07,46.01
		c-5.05,8.6-9.76,17.41-16.09,25.2c-3.09,3.79-6.83,5.78-11.79,5.53c-3.62-0.18-7.26,0.01-10.89-0.18
		c-3.38-0.18-4.49-1.43-4.87-4.82c-0.62-5.58,0.47-10.58,3.53-15.52c9.47-15.31,18.51-30.88,27.81-46.29
		c9.37-15.53,18.87-30.98,28.31-46.47c5.88-9.65,11.69-19.34,17.72-28.9c1.62-2.56,3.76-4.86,5.96-6.97
		c2.63-2.52,5.34-2.52,8.4-0.54c3.31,2.14,5.43,5.25,6.79,8.82c1.68,4.43,3.35,8.9,4.54,13.47c2.3,8.84,4.23,17.78,6.38,26.66
		c3.05,12.6,5.6,25.36,11.03,37.25c0.95,2.08,2.08,4.13,3.4,5.99c2.49,3.49,6.86,3.92,10.01,1c1.42-1.31,2.69-2.86,3.72-4.5
		c12.94-20.72,25.92-41.41,38.68-62.24c9.51-15.53,18.7-31.27,28.07-46.88c2.9-4.83,6.48-9.13,11.05-12.46
		c7.78-5.68,14.52-5.92,21.89,1.37c4.31,4.26,7.24,9.51,9.11,15.13c3.32,9.98,6.16,20.13,9.04,30.25
		c4.15,14.62,7.29,29.55,13.52,43.51c0.99,2.21,2.23,4.37,3.71,6.28c2.79,3.61,5.91,3.72,8.64,0.08c2.84-3.78,5.26-7.89,7.76-11.92
		c9.52-15.36,18.95-30.78,28.54-46.11c2.58-4.13,5.56-8.02,8.41-11.98c0.45-0.63,1.15-1.1,1.73-1.64
		C336.4,73.9,336.64,74.02,336.89,74.14z"/>
	<path class="st0" d="M342.22,83.03c-0.15,0.82-0.16,1.7-0.48,2.45c-2.61,6.31-5.13,12.67-7.97,18.89
		c-5.76,12.63-11.69,25.18-17.57,37.76c-5.32,11.38-10.67,22.74-16.03,34.1c-4.91,10.41-9.77,20.85-14.8,31.21
		c-2.8,5.77-5.85,11.42-8.91,17.05c-2.57,4.73-6.56,6.98-12.06,6.64c-3.62-0.22-7.27-0.18-10.89-0.02
		c-4.85,0.21-8.26-1.99-10.28-6.16c-1.97-4.07-4-8.21-5.17-12.55c-3.28-12.11-6.12-24.35-9.16-36.53
		c-1.81-7.24-3.67-14.47-5.52-21.7c-0.14-0.54-0.32-1.08-0.57-1.57c-1-1.99-2.49-2.26-3.9-0.53c-1.31,1.62-2.48,3.38-3.53,5.18
		c-9.59,16.46-19.07,32.99-28.73,49.41c-3.53,6-7.42,11.81-11.26,17.62c-3.25,4.92-7.73,7.45-13.83,6.92c-2.98-0.26-6-0.04-9-0.14
		c-3.66-0.12-5.09-1.63-5.43-5.26c-0.52-5.48,0.77-10.32,3.7-15.09c9.86-16.05,19.46-32.27,29.04-48.49
		c9.79-16.58,19.33-33.32,29.22-49.85c5.15-8.61,10.74-16.97,16.3-25.33c1.25-1.88,3.04-3.46,4.79-4.92c2.41-2.01,5.3-2.28,7.72-0.3
		c2.27,1.85,4.68,4.04,5.85,6.62c2.39,5.24,4.33,10.74,5.82,16.3c2.74,10.24,5.03,20.6,7.48,30.91c2.13,8.96,4,17.98,6.39,26.86
		c1.39,5.16,3.21,10.27,5.48,15.1c3.71,7.91,12.59,9.32,18.39,2.83c3.11-3.48,5.55-7.68,7.73-11.85
		c8.64-16.51,16.93-33.19,25.59-49.69c5.45-10.37,11.28-20.54,17.03-30.75c1.09-1.93,2.55-3.65,3.85-5.47
		C341.75,82.8,341.98,82.92,342.22,83.03z"/>
	<path class="st0" d="M254.09,278.91c-3.59-3.46-6.85-6.7-11.31-8.29c-1.37-0.49-1.66-1.14-1.68-2.58c-0.05-3.66,1.56-5.85,4.8-7.46
		c5.25-2.61,10.5-4.95,16.53-4.55c4.88,0.33,9.4,1.62,11.6,6.5c2.37,5.25,0.54,9.94-2.73,14.23c-0.66,0.87-1.41,1.66-2.5,2.95
		c2.12,0.43,3.79,1,5.46,1.06c4.32,0.14,8.65,0.02,12.97,0.08c1.49,0.02,1.91-0.59,1.9-2c-0.05-6.28-0.02-12.57-0.02-18.85
		c0-2.96,0-2.96,3.06-2.96c1.4,0,2.8,0.07,4.19-0.02c1.65-0.11,2.2,0.57,2.18,2.2c-0.06,6.42,0.04,12.85-0.06,19.27
		c-0.03,1.85,0.54,2.45,2.38,2.38c3.27-0.13,6.56-0.11,9.83,0c1.73,0.05,2.28-0.54,2.27-2.28c-0.06-11.31-0.03-22.62-0.03-33.93
		c0-2.91,0.01-2.91,2.89-2.92c1.26,0,2.51,0,3.77,0c2.73,0.01,2.73,0.01,2.73,2.84c0,13.82-0.03,27.65,0.03,41.47
		c0.01,1.69-0.44,2.35-2.22,2.34c-13.27-0.08-26.53-0.08-39.8-0.1c-2.3,0-4.61,0.06-6.91,0.05c-4-0.02-7.68-1.16-11.21-3.02
		c-0.8-0.42-2.04-0.6-2.84-0.29c-5.28,2.01-10.76,3.12-16.37,3.22c-9.28,0.17-18.57,0.11-27.86,0.03
		c-3.89-0.03-7.62-0.86-10.84-3.28c-2.39-1.8-3.83-4.2-4.56-7.07c-0.24-0.95-0.09-2.26-1.66-2.2c-1.51,0.05-2.87,0.54-3.17,2.17
		c-0.25,1.42-0.36,2.93-0.16,4.35c0.93,6.42,1.99,12.83,3,19.24c0.11,0.69,0.17,1.39,0.32,2.07c0.29,1.33-0.36,1.78-1.57,1.78
		c-1.96-0.01-3.92,0.09-5.86-0.06c-0.54-0.04-1.4-0.75-1.48-1.25c-1.25-7.64-2.75-15.27-3.45-22.97c-0.73-7.89,3.8-12.5,11.75-12.82
		c1.6-0.07,2.43-0.46,3.02-2.1c1.53-4.22,4.56-7.13,8.78-8.72c4.25-1.59,8.62-1.76,12.97-0.56c5.54,1.53,8.54,5.46,9.21,10.99
		c0.44,3.65,0.27,7.38,0.37,11.08c0.02,0.94-0.01,1.85,1.35,1.87c6.49,0.06,12.99,0.27,19.37-1.29
		C252.93,279.44,253.29,279.23,254.09,278.91z M222.64,275.27c0.04,0,0.08-0.01,0.12-0.01c-0.15-2.01-0.17-4.04-0.48-6.02
		c-0.52-3.28-2.33-5.1-5.15-5.48c-3.34-0.45-6.2,1.03-7.59,3.94c-3.24,6.76,0.49,13.03,7.93,13.11c6.22,0.06,5.04,0.79,5.18-4.9
		C222.64,275.69,222.64,275.48,222.64,275.27z M251.3,266.24c2.98,2.39,5.77,4.56,8.48,6.82c2.56,2.13,3.13,2.1,4.78-0.8
		c0.47-0.84,0.83-1.78,1.02-2.73c0.71-3.54-1.16-6.1-4.75-6.43C257.24,262.77,254.29,264.42,251.3,266.24z"/>
	<path class="st0" d="M146.84,128.61c0-5.51-0.16-11.04,0.08-16.54c0.1-2.21,0.61-4.68,1.74-6.53
		c8.02-13.17,16.25-26.21,24.43-39.28c0.48-0.76,0.98-1.58,1.67-2.13c0.65-0.52,1.71-1.16,2.31-0.95c0.73,0.26,1.34,1.27,1.7,2.09
		c0.32,0.73,0.29,1.64,0.29,2.47c-0.08,11.38-0.21,22.75-0.28,34.13c-0.02,3.81-2.14,6.72-3.99,9.74
		c-7.15,11.66-14.32,23.3-21.52,34.92c-0.72,1.17-1.61,2.31-2.64,3.19c-1.45,1.23-2.81,0.76-3.35-1.06
		c-0.29-0.99-0.41-2.06-0.41-3.09C146.83,139.92,146.85,134.26,146.84,128.61C146.85,128.61,146.84,128.61,146.84,128.61z"/>
	<path d="M63.17,276.5c0-2.79,0.01-5.07,0-7.36c-0.01-3.42-0.05-6.84-0.06-10.26c-0.01-5.24,0.6-5.77,5.83-4.85
		c0.49,0.09,1.19,0.97,1.19,1.49c0.07,10.53,0.04,21.07,0.06,31.6c0,1.18-0.52,1.66-1.65,1.57c-0.21-0.02-0.42-0.03-0.63,0.01
		c-5.13,0.97-8.25-0.95-10.42-5.86c-2.5-5.64-5.92-10.87-9.16-16.67c-0.07,0.89-0.14,1.4-0.13,1.9c0.05,6.21,0.07,12.42,0.18,18.63
		c0.03,1.56-0.53,2.08-2.07,2.04c-5.97-0.17-4.97,0.81-5.01-4.93c-0.05-9.14,0.04-18.28-0.06-27.42c-0.02-1.97,0.7-2.22,2.5-2.51
		c5.21-0.85,8.08,1.24,10.23,5.95C56.54,265.44,59.92,270.69,63.17,276.5z"/>
	<path class="st0" d="M341.27,265.18c0,6.97-0.04,13.95,0.03,20.92c0.02,1.7-0.49,2.41-2.25,2.29c-1.74-0.12-3.49-0.08-5.23,0
		c-1.48,0.07-1.94-0.58-1.94-1.99c0.03-14.23,0.03-28.45,0-42.68c0-1.42,0.53-2.04,1.96-2c1.81,0.06,3.63,0.09,5.44,0
		c1.6-0.08,2.02,0.64,2.01,2.12C341.25,250.95,341.27,258.07,341.27,265.18z"/>
	<path d="M95.7,287.68c-1.52-2.9-1.51-3.14,0.35-6.18c-2.26-2.46-2.69-5.3-1.06-8.23c1.7-3.07,4.67-3.74,7.9-3.63
		c2.09,0.07,4.17,0.19,6.25,0.36c0.92,0.07,2.36-0.54,2.38,1.16c0.02,1.31,0.9,3.22-1.76,3.15c0.53,2.99,0.21,5.76-2.46,7.14
		c-2.16,1.11-4.74,1.41-7.23,2.55c0.79,0.17,1.57,0.41,2.37,0.5c1.79,0.21,3.67,0.07,5.37,0.57c3.63,1.08,5.05,4.76,3.07,8.01
		c-0.83,1.35-2.19,2.55-3.58,3.33c-2.85,1.59-6.04,1.66-9.15,0.87c-4.66-1.18-5.93-5.21-2.92-8.94
		C95.4,288.12,95.55,287.89,95.7,287.68z M102.48,288.73c0-0.01,0-0.02,0-0.03c-0.35,0-0.7,0.03-1.04,0
		c-1.67-0.17-2.49,0.77-2.68,2.25c-0.19,1.43,0.75,2.22,2.03,2.45c0.94,0.16,1.94,0.17,2.88,0.04c1.57-0.21,2.94-0.93,2.8-2.75
		c-0.14-1.87-1.73-1.89-3.16-1.95C103.04,288.72,102.76,288.73,102.48,288.73z M105.01,276.33c-0.05-1.78-1.3-2.9-3.14-2.8
		c-1.75,0.09-2.81,1.21-2.8,2.95c0.01,1.8,1.19,2.83,3.13,2.74C104.02,279.14,105.06,278.07,105.01,276.33z"/>
	<path d="M159.26,271.74c4.29-2.97,7.17-2.78,10.31,0.62c0.56-0.45,1.11-0.94,1.7-1.37c2.1-1.51,4.41-1.78,6.75-0.79
		c2.31,0.97,2.91,3.07,2.94,5.35c0.04,3.77-0.03,7.54,0.04,11.31c0.04,2.46-1.75,1.58-2.96,1.71c-1.29,0.15-2.31,0.02-2.24-1.79
		c0.12-3.28,0.13-6.57-0.03-9.84c-0.05-0.95-0.77-2.58-1.3-2.63c-0.97-0.09-2.44,0.49-2.96,1.28c-0.8,1.2-1.22,2.8-1.36,4.27
		c-0.22,2.28-0.11,4.6-0.04,6.9c0.04,1.37-0.49,1.8-1.83,1.83c-3.31,0.05-3.31,0.11-3.31-3.28c0-2.86,0.08-5.73-0.05-8.58
		c-0.04-0.85-0.62-2.31-1.1-2.37c-0.93-0.13-2.38,0.24-2.88,0.94c-0.84,1.18-1.39,2.73-1.55,4.18c-0.25,2.28-0.14,4.6-0.04,6.9
		c0.07,1.57-0.34,2.26-2.08,2.23c-3.17-0.07-3.17,0.03-3.17-3.21c0-4.33-0.03-8.66,0.02-12.98c0.01-0.92-0.52-2.43,1.16-2.37
		C156.7,270.11,158.8,268.9,159.26,271.74z"/>
	<path d="M119.68,270.97c2.15-0.48,3.99-1.18,5.86-1.24c2.88-0.08,4.82,1.7,4.97,4.59c0.22,4.31,0.14,8.64,0.08,12.96
		c-0.01,0.44-0.71,1.06-1.21,1.24c-0.62,0.22-1.38,0.01-2.07,0.07c-1.37,0.12-1.84-0.47-1.81-1.82c0.07-3.2,0.13-6.42-0.04-9.61
		c-0.05-1.02-0.6-2.51-1.36-2.87c-1.44-0.7-2.75,0.37-3.36,1.7c-0.56,1.23-0.9,2.64-0.99,3.99c-0.16,2.29-0.09,4.6-0.02,6.9
		c0.04,1.26-0.42,1.81-1.69,1.73c-0.69-0.05-1.46,0.16-2.07-0.07c-0.56-0.21-1.35-0.84-1.36-1.29c-0.08-8.08-0.09-16.17,0-24.25
		c0.01-0.48,0.88-1.13,1.49-1.36c0.6-0.24,1.38-0.02,2.07-0.06c1.2-0.08,1.57,0.49,1.55,1.63
		C119.65,265.87,119.68,268.56,119.68,270.97z"/>
	<path d="M85.37,287.37c-1.68,0.53-3.21,1.27-4.81,1.45c-2.79,0.32-4.76-1.06-5.53-3.46c-0.78-2.43-0.03-5.21,2.23-6.41
		c1.8-0.95,3.92-1.31,5.91-1.88c0.58-0.17,1.2-0.17,1.79-0.25c0.03-3.38-0.77-3.57-8.04-2.15c-1.77-2.96-1.36-4.12,1.95-4.6
		c2.12-0.31,4.32-0.41,6.44-0.19c3.07,0.31,4.82,2.2,4.95,5.27c0.18,4.04,0.14,8.09,0.09,12.14c-0.01,0.44-0.79,1.27-1.15,1.23
		C87.79,288.37,85.81,289.63,85.37,287.37z M84.98,280.4c-1.55,0.36-2.94,0.49-4.14,1.04c-0.52,0.24-0.95,1.36-0.87,2.02
		c0.05,0.45,1.02,1.06,1.63,1.13C83.64,284.85,84.85,283.43,84.98,280.4z"/>
	<path d="M144.6,287.47c-1.8,0.51-3.35,1.2-4.95,1.35c-2.7,0.25-4.62-1.14-5.33-3.43c-0.8-2.6-0.02-5.35,2.31-6.54
		c1.75-0.9,3.82-1.17,5.72-1.81c0.71-0.24,1.33-0.76,1.99-1.16c-0.66-0.7-1.25-1.9-1.98-1.98c-1.47-0.18-3.01,0.24-4.52,0.45
		c-0.6,0.08-1.19,0.27-1.98,0.45c-0.23-0.94-0.63-1.76-0.55-2.52c0.06-0.64,0.62-1.68,1.06-1.74c2.74-0.36,5.53-0.81,8.26-0.63
		c3.14,0.22,4.73,2.09,4.89,5.27c0.2,4.03,0.18,8.08,0.14,12.12c0,0.44-0.78,1.25-1.15,1.23
		C147.09,288.43,145.2,289.46,144.6,287.47z M144.19,280.47c-1.44,0.31-2.87,0.44-4.12,0.99c-0.51,0.22-0.93,1.37-0.84,2.03
		c0.06,0.46,1.03,1.04,1.65,1.12C142.89,284.84,144.17,283.33,144.19,280.47z"/>
	<path class="st0" d="M25.85,288.06c-3.68,0.76-3.78,0.71-5.08-2.46c-0.05-0.13-0.06-0.3-0.15-0.39c-1.88-1.87-4.21-0.51-6.32-0.81
		c-0.51-0.07-1.43,0.72-1.69,1.32c-1.28,2.94-1.39,3.05-4.84,2.34c0.37-1.19,0.69-2.37,1.09-3.54c1.68-4.88,3.41-9.74,5.04-14.64
		c0.41-1.22,1.07-1.74,2.29-1.56c1.19,0.18,2.72-0.66,3.37,1.2c2.03,5.87,4.1,11.71,6.15,17.57
		C25.8,287.36,25.79,287.64,25.85,288.06z M19.24,280.95c-0.84-2.42-1.59-4.56-2.34-6.71c-0.18,0.01-0.35,0.02-0.53,0.03
		c-0.73,2.15-1.46,4.31-2.27,6.68C15.98,280.95,17.44,280.95,19.24,280.95z"/>
	<path class="st0" d="M27.8,278.38c0-2.51,0.02-5.02-0.01-7.53c-0.02-1.39-0.11-2.56,1.96-2.59c2.18-0.03,2.1,1.21,2.08,2.69
		c-0.03,3.84,0.05,7.67-0.05,11.51c-0.04,1.67,0.39,2.51,2.2,2.27c0.69-0.09,1.4,0.02,2.09-0.02c1.3-0.07,2.28-0.01,2.23,1.81
		c-0.04,1.72-0.88,1.91-2.25,1.87c-2.02-0.07-4.05-0.12-6.07,0.01c-1.8,0.12-2.29-0.6-2.22-2.29
		C27.88,283.54,27.8,280.96,27.8,278.38z"/>
	<path d="M264.78,247.2c-0.07,2.79-2.4,4.94-5.23,4.83c-2.63-0.11-4.67-2.28-4.64-4.95c0.04-2.85,2.3-5.04,5.1-4.94
		C262.75,242.25,264.85,244.47,264.78,247.2z"/>
	<path d="M293.73,252.4c-2.77-0.03-4.87-2.16-4.85-4.92c0.02-2.83,2.28-5.02,5.08-4.93c2.7,0.09,4.8,2.32,4.76,5.06
		C298.7,250.31,296.48,252.43,293.73,252.4z"/>
</g>
</svg>
