<?xml version="1.0" encoding="utf-8"?>
<!-- Generator: Adobe Illustrator 26.0.1, SVG Export Plug-In . SVG Version: 6.00 Build 0)  -->
<svg version="1.1" id="Layer_1" xmlns="http://www.w3.org/2000/svg" xmlns:xlink="http://www.w3.org/1999/xlink" x="0px" y="0px"
	 viewBox="0 0 350 350" style="enable-background:new 0 0 350 350;" xml:space="preserve">
<style type="text/css">
	.st0{fill:url(#SVGID_1_);}
	.st1{fill:url(#SVGID_00000180351897655435647010000000137371955479497614_);}
	.st2{fill:#333A44;}
	.st3{fill:#0A92B5;}
	.st4{fill:url(#SVGID_00000023969035007276176030000010943053206363764367_);}
	.st5{fill:#50565A;}
	.st6{fill:url(#SVGID_00000183220983193318874870000008661620833228777348_);}
	.st7{fill:url(#SVGID_00000044175619781273158580000016940492497833511325_);}
	.st8{fill:#312782;}
	.st9{fill:#565A5D;}
</style>
<g>
	<g>
		<g>
			<linearGradient id="SVGID_1_" gradientUnits="userSpaceOnUse" x1="188.1517" y1="99.6619" x2="207.7322" y2="99.6619">
				<stop  offset="0" style="stop-color:#28348A"/>
				<stop  offset="1" style="stop-color:#35A8E0"/>
			</linearGradient>
			<path class="st0" d="M188.29,91.17c-0.04,9.13-0.09,18.25-0.13,27.38c0.36-0.26,0.73-0.53,1.09-0.79
				c0.02-7.96,0.04-15.91,0.06-23.87l1.22-0.67v22.64h2.03V92.1l1.22-0.67c0,7.52,0,15.05,0,22.57c0.68-0.61,1.35-1.22,2.03-1.83
				c0-7.29,0-14.58,0-21.86l1.22-0.67c0,7.13,0,14.27,0,21.4c0.68-0.46,1.35-0.92,2.03-1.39c0-7.04,0-14.09,0-21.13l1.22-0.67
				c0,7.01,0,14.01,0,21.02c0.68-0.41,1.35-0.83,2.03-1.24c0-6.97,0-13.93,0-20.9l1.22-0.67c0,6.96,0,13.92,0,20.88
				c0.68-0.18,1.35-0.36,2.03-0.54c0-7.15,0-14.31,0-21.46l1.22-0.67c0,6.6,0,13.2,0,19.81c0.32-0.97,0.64-1.95,0.97-2.92
				c0-6.78,0-13.57,0-20.35L188.29,91.17z"/>
			
				<linearGradient id="SVGID_00000080180199131020024860000007342198366798832030_" gradientUnits="userSpaceOnUse" x1="184.1535" y1="146.9104" x2="219.1867" y2="146.9104">
				<stop  offset="0" style="stop-color:#28348A"/>
				<stop  offset="1" style="stop-color:#35A8E0"/>
			</linearGradient>
			<path style="fill:url(#SVGID_00000080180199131020024860000007342198366798832030_);" d="M192.99,202.07v-83.64l1.22-1.05v84.28
				c0.68-0.23,1.35-0.44,2.03-0.64v-85.38l1.22-1.05v86.06c0.68-0.19,1.35-0.36,2.03-0.52v-87.29l1.22-1.05v88.08
				c0.68-0.14,1.35-0.25,2.03-0.35v-89.47l1.22-1.05v90.34c0.68-0.07,1.35-0.12,2.03-0.15v-91.94l1.22-1.05v92.99
				c0.68,0,1.36,0.04,2.03,0.1v-94.83l1.22-1.05v95.99c0.68,0.1,1.36,0.23,2.03,0.39v-98.13l1.22-1.05V200
				c0.68-0.05,1.35-0.05,2.03,0V98.9l1.22-1.05v102.29c0.75,0.12,1.5,0.29,2.24,0.52V88.38l-35.03,32.61v84.45
				c0.1-0.04,0.19-0.1,0.29-0.14c0.68-0.26,1.36-0.53,2.04-0.79v-80.5l1.22-1.05v81.08c0.67-0.26,1.35-0.52,2.03-0.78v-82.04
				l1.22-1.05v82.63C191.63,202.55,192.31,202.31,192.99,202.07z"/>
		</g>
	</g>
	<g>
		<path class="st2" d="M220.38,88.15v23.92h14.75c14.35,0,25.99-10.7,25.99-23.91v-0.01H220.38z"/>
		<path class="st3" d="M92.76,213.54h61.53v-25.07h-22.28C110.33,188.47,92.76,199.69,92.76,213.54z"/>
		
			<linearGradient id="SVGID_00000002378133883375171630000003852577404925701252_" gradientUnits="userSpaceOnUse" x1="92.8734" y1="125.7652" x2="182.3286" y2="125.7652">
			<stop  offset="0" style="stop-color:#009EE2"/>
			<stop  offset="0.0473" style="stop-color:#068ACC"/>
			<stop  offset="0.1204" style="stop-color:#0E72B1"/>
			<stop  offset="0.204" style="stop-color:#145D9A"/>
			<stop  offset="0.3007" style="stop-color:#194E89"/>
			<stop  offset="0.419" style="stop-color:#1C437D"/>
			<stop  offset="0.5818" style="stop-color:#1E3D76"/>
			<stop  offset="1" style="stop-color:#1F3B74"/>
		</linearGradient>
		<path style="fill:url(#SVGID_00000002378133883375171630000003852577404925701252_);" d="M182.33,138.3h-64.39
			c0.02-8.84,0.04-17.69,0.06-26.53c8.35,0,16.71,0,25.06,0c1.68-7.8,3.36-15.61,5.04-23.41c-10.05-0.07-20.11-0.14-30.16-0.22
			c-13.85,0-25.07,11.22-25.07,25.07v50.17h89.46V138.3z"/>
		<rect x="142.91" y="164.75" class="st5" width="25.07" height="73.87"/>
		<path class="st5" d="M168.41,86.87c1.13-4.94,5.37-8.36,9.86-8.36c5.41,0,10.33,4.99,10.08,11.25
			c6.46-3.39,12.92-6.77,19.39-10.16c-0.4-2.23-2.76-14.24-13.39-20.69c-6.25-3.79-12.63-4.1-15.16-4.05
			c-6.4,0.12-11.15,1.57-14.25,2.87c-20.06,8.42-21.9,31.7-22.01,33.43v46.02h25.59C168.47,120.42,168.44,103.64,168.41,86.87z"/>
		
			<linearGradient id="SVGID_00000160898524536465852660000003969780184649805197_" gradientUnits="userSpaceOnUse" x1="170.6262" y1="175.919" x2="260.6216" y2="175.919">
			<stop  offset="0" style="stop-color:#009EE2"/>
			<stop  offset="0.0473" style="stop-color:#068ACC"/>
			<stop  offset="0.1204" style="stop-color:#0E72B1"/>
			<stop  offset="0.204" style="stop-color:#145D9A"/>
			<stop  offset="0.3007" style="stop-color:#194E89"/>
			<stop  offset="0.419" style="stop-color:#1C437D"/>
			<stop  offset="0.5818" style="stop-color:#1E3D76"/>
			<stop  offset="1" style="stop-color:#1F3B74"/>
		</linearGradient>
		<path style="fill:url(#SVGID_00000160898524536465852660000003969780184649805197_);" d="M221.09,138.3v25.08h14.3v25.08h-64.76
			v25.07h64.78c13.93,0,25.22-11.22,25.22-25.07V138.3H221.09z"/>
		<rect x="184.15" y="214.77" class="st2" width="35.03" height="23.86"/>
		
			<linearGradient id="SVGID_00000038406333158862749100000000005134269660862645_" gradientUnits="userSpaceOnUse" x1="126.9543" y1="88.3773" x2="130.892" y2="88.3773">
			<stop  offset="0" style="stop-color:#009EE2"/>
			<stop  offset="0.0473" style="stop-color:#068ACC"/>
			<stop  offset="0.1204" style="stop-color:#0E72B1"/>
			<stop  offset="0.204" style="stop-color:#145D9A"/>
			<stop  offset="0.3007" style="stop-color:#194E89"/>
			<stop  offset="0.419" style="stop-color:#1C437D"/>
			<stop  offset="0.5818" style="stop-color:#1E3D76"/>
			<stop  offset="1" style="stop-color:#1F3B74"/>
		</linearGradient>
		
			<rect x="126.95" y="88.38" style="fill:url(#SVGID_00000038406333158862749100000000005134269660862645_);" width="3.94" height="0"/>
	</g>
	<g>
		<path class="st8" d="M23.76,271.1h-2.33c-1.22,0-2.24-0.26-3.07-0.78c-0.88-0.62-1.46-1.29-1.75-2.02
			c-0.57,0.35-0.99,0.6-1.25,0.74c-0.47,0.28-1.22,0.42-2.25,0.42c-1.1,0-2.06-0.19-2.89-0.56c-0.83-0.38-1.45-1.01-1.87-1.89
			c-0.38-0.76-0.56-1.61-0.56-2.55c0-0.59,0.08-1.14,0.23-1.64c0.29-0.99,0.78-1.81,1.46-2.46c0.41-0.4,1.03-0.82,1.86-1.28
			c0.93-0.42,2.18-0.62,3.74-0.61h4.7l0.03,6.37c-0.03,0-0.04,0.5-0.02,1.5c0.13,1.34,0.74,2.04,1.83,2.1h2.15V271.1z M16.45,260.44
			c-1.03-0.04-1.84-0.01-2.43,0.1c-1.2,0.25-1.99,0.78-2.36,1.6c-0.27,0.57-0.41,1.19-0.41,1.86c0,0.61,0.11,1.13,0.33,1.57
			c0.26,0.49,0.62,0.89,1.08,1.21c0.49,0.34,0.98,0.48,1.46,0.42c0.82-0.11,1.46-0.53,1.91-1.25c0.3-0.49,0.45-1.1,0.45-1.82
			C16.48,263.87,16.47,262.65,16.45,260.44z M11.71,254.96h2.61v2.14h-2.61V254.96z M16.06,254.96h2.61v2.14h-2.61V254.96z"/>
		<path class="st8" d="M34.58,271.22c-1.18,1.18-2.69,1.77-4.52,1.77c-1.71,0-3.01-0.59-3.9-1.77c-0.08-0.1-0.19-0.15-0.33-0.13
			h-3.57v-2.68h2.75c0-0.57,0.1-1.16,0.31-1.77c0.23-0.66,0.55-1.22,0.95-1.69c0.87-1.02,2.21-1.56,4.04-1.61h0.16
			c1.53,0,2.91,0.61,4.12,1.82c0.67,0.77,1.04,1.86,1.11,3.26C35.65,269.57,35.28,270.5,34.58,271.22z M29.04,265.87
			c-0.29,0.19-0.54,0.47-0.74,0.83c-0.22,0.42-0.33,0.88-0.33,1.38c0,0.43,0.09,0.86,0.27,1.3c0.38,0.9,1.1,1.35,2.16,1.35
			c0.33,0,0.61-0.04,0.83-0.11c0.26-0.08,0.54-0.31,0.85-0.69c0.42-0.51,0.63-1.1,0.63-1.77c0-0.28-0.04-0.57-0.13-0.88
			c-0.41-1.25-1.1-1.88-2.07-1.88c-0.09,0-0.19,0.01-0.3,0.03C29.87,265.43,29.48,265.58,29.04,265.87z"/>
		<path class="st8" d="M37.62,256.27h3.23v9.77c-0.06,1.42,0.62,2.21,2.03,2.36h1.99v2.69h-3.55c-1.55,0-2.63-0.64-3.24-1.93
			c-0.26-0.53-0.41-1.17-0.45-1.91V256.27z"/>
		<path class="st8" d="M59.08,271.13c-2.25-0.02-3.84-0.02-4.76,0c-0.56,0-1.15-0.14-1.75-0.42c-0.5-0.22-0.85-0.46-1.05-0.72
			c-0.1-0.15-0.21-0.22-0.33-0.22c-0.1,0-0.19,0.05-0.25,0.16c-0.64,0.78-1.67,1.17-3.1,1.17h-3.8v-2.66h3.84
			c0.58-0.1,1.04-0.34,1.38-0.72c-0.52-1.04-1.31-1.73-2.38-2.05c-0.48-0.14-0.93-0.3-1.36-0.48l-0.44-2.05
			c0.78-0.74,1.97-1.32,3.55-1.74c0.65-0.21,1.47-0.33,2.47-0.38c1.77,0.02,3.3,0.39,4.59,1.11c0.52,0.28,0.99,0.59,1.39,0.92
			c0.59,0.54,0.64,1.05,0.14,1.53c-0.87,0.3-2.01,1.41-3.44,3.32c0.21,0.31,0.61,0.49,1.19,0.53h4.12V271.13z M51.33,266.06
			c0.45-0.44,1.1-1.06,1.94-1.88c-0.7-0.36-1.45-0.55-2.24-0.55c-0.68,0-1.3,0.15-1.88,0.44C50.05,264.36,50.78,265.02,51.33,266.06
			z"/>
		<path class="st8" d="M61.57,256.37h3.27v11.44c0,1.35-0.72,2.34-2.16,2.99c-0.56,0.2-1.2,0.3-1.91,0.3h-3.15v-2.69h1.31
			c0.21,0.02,0.5,0.02,0.88-0.02c1.03-0.1,1.62-0.7,1.75-1.78V256.37z"/>
		<path class="st8" d="M66.84,256.32l3.32-0.02v14.78l-3.35,0.03L66.84,256.32z"/>
		<path class="st8" d="M92.97,261.69h3.08v6.14c0,1.37-0.55,2.32-1.66,2.86c-0.46,0.23-1.01,0.37-1.66,0.41H84.3l-2.05-0.02
			c-3.67-0.04-5.57-2.2-5.68-6.46v-2.93h2.93v1.11v2c0.07,2.54,1.6,3.74,4.57,3.62h7.34c1,0.03,1.52-0.39,1.57-1.27v-1.44V261.69z
			 M82.4,258.31H85v2.15h-2.61L82.4,258.31z M86.41,258.31h2.6v2.15h-2.61L86.41,258.31z"/>
		<path class="st8" d="M107.2,256.22h3.27v11.35c0,1.5-0.61,2.55-1.83,3.15c-0.51,0.25-1.12,0.4-1.83,0.44h-8.83v-2.76h3.76
			l-2.99-10.49h3.37l3.16,10.46c0.14,0.02,0.27,0.03,0.39,0.03c0.94-0.07,1.45-0.56,1.52-1.47v-1.58L107.2,256.22z"/>
		<path class="st8" d="M119.99,270.66c-0.75,0.3-1.59,0.45-2.52,0.45c-1.71,0-3.05-0.56-4.01-1.68c-0.61-0.69-0.95-1.65-1.03-2.9
			c0-0.57,0.1-1.16,0.31-1.77c0.23-0.66,0.55-1.22,0.96-1.69c0.87-1.02,2.21-1.56,4.04-1.61h0.16c1.53,0,2.91,0.61,4.12,1.82
			c0.67,0.77,1.04,1.86,1.11,3.26c0,0.1-0.01,0.19-0.02,0.28l-0.03,2.55c0.02,0.2,0.03,0.39,0.03,0.58c0,1.45-0.54,2.68-1.63,3.68
			c-0.97,0.77-2.32,1.16-4.05,1.16h-0.52l0.03-2.07c0.14,0.02,0.27,0.03,0.39,0.03c0.82,0,1.53-0.3,2.11-0.89
			C119.71,271.56,119.9,271.16,119.99,270.66z M116.45,263.99c-0.29,0.19-0.54,0.46-0.73,0.83c-0.22,0.42-0.33,0.88-0.33,1.38
			c0,0.43,0.09,0.86,0.27,1.3c0.38,0.9,1.1,1.35,2.16,1.35c0.33,0,0.61-0.04,0.83-0.11c0.26-0.08,0.54-0.31,0.85-0.69
			c0.42-0.51,0.63-1.1,0.63-1.77c0-0.28-0.04-0.57-0.13-0.88c-0.3-1.23-0.99-1.86-2.07-1.88c-0.09,0-0.19,0.01-0.3,0.03
			C117.28,263.55,116.89,263.7,116.45,263.99z"/>
		<path class="st8" d="M124.83,256.27h3.23v9.77c-0.06,1.42,0.62,2.21,2.03,2.36h1.99v2.69h-3.55c-1.55,0-2.63-0.64-3.24-1.93
			c-0.26-0.53-0.41-1.17-0.45-1.91V256.27z"/>
		<path class="st8" d="M131.28,268.4h3.71c-0.48-0.95-0.72-1.84-0.72-2.66c0-1,0.26-1.92,0.77-2.74c0.7-1.01,1.57-1.7,2.6-2.05
			c0.59-0.21,1.4-0.33,2.41-0.36c1.06-0.02,2.09,0.24,3.08,0.78c1.41,0.76,2.27,1.95,2.58,3.55c0.07,0.38,0.11,0.74,0.11,1.1
			c0,0.87-0.2,1.67-0.61,2.4h2.65v2.68h-6.98c-0.28,0.02-0.58,0.03-0.89,0.03h-8.7V268.4z M136.19,256.4h2.61v2.15h-2.61V256.4z
			 M137.37,266.06c0,0.22,0.02,0.44,0.06,0.66c0.26,1.36,1.08,2.04,2.46,2.04c0.2,0,0.38-0.02,0.55-0.05
			c0.41-0.07,0.81-0.31,1.21-0.72c0.55-0.55,0.83-1.27,0.83-2.14c0-0.13-0.01-0.26-0.02-0.41c-0.26-1.54-1.09-2.33-2.47-2.4
			c-0.7-0.04-1.31,0.24-1.83,0.84C137.63,264.48,137.37,265.21,137.37,266.06z M140.55,256.4h2.61v2.15h-2.61V256.4z"/>
		<path class="st8" d="M162.38,271.1h-2.72c-0.22,0-0.37,0.04-0.45,0.13c-1.18,1.18-2.69,1.77-4.52,1.77c-1.71,0-3.01-0.59-3.9-1.77
			c-0.08-0.1-0.19-0.15-0.33-0.13h-3.57v-2.68h2.75c0-0.57,0.1-1.16,0.31-1.77c0.23-0.66,0.55-1.22,0.95-1.69
			c0.87-1.02,2.21-1.56,4.04-1.61h0.16c1.53,0,2.91,0.61,4.12,1.82c0.67,0.77,1.04,1.86,1.11,3.26h2.05V271.1z M153.66,265.87
			c-0.29,0.19-0.54,0.47-0.74,0.83c-0.22,0.42-0.33,0.88-0.33,1.38c0,0.43,0.09,0.86,0.27,1.3c0.38,0.9,1.1,1.35,2.16,1.35
			c0.33,0,0.61-0.04,0.83-0.11c0.26-0.08,0.54-0.31,0.85-0.69c0.42-0.51,0.63-1.1,0.63-1.77c0-0.28-0.04-0.57-0.13-0.88
			c-0.41-1.25-1.1-1.88-2.07-1.88c-0.09,0-0.19,0.01-0.3,0.03C154.49,265.43,154.1,265.58,153.66,265.87z"/>
		<path class="st8" d="M165.09,271.06c-0.26,0.02-0.54,0.03-0.83,0.03h-2.75v-2.69h1c0.21,0.02,0.5,0.02,0.88-0.02
			c1.03-0.1,1.62-0.7,1.75-1.78v-10.24h3.27v11.44c0,0.2-0.02,0.39-0.05,0.56h2.88l0.05,2.69H165.09z"/>
		<path class="st8" d="M174.05,256.37h3.27v11.44c0,1.35-0.72,2.34-2.16,2.99c-0.56,0.2-1.2,0.3-1.91,0.3h-3.15v-2.69h1.31
			c0.21,0.02,0.5,0.02,0.88-0.02c1.03-0.1,1.62-0.7,1.75-1.78V256.37z"/>
		<path class="st8" d="M200.5,271.1h-2.33c-1.22,0-2.24-0.26-3.07-0.78c-0.88-0.62-1.46-1.29-1.75-2.02
			c-0.57,0.35-0.99,0.6-1.25,0.74c-0.47,0.28-1.22,0.42-2.25,0.42c-1.1,0-2.06-0.19-2.89-0.56c-0.83-0.38-1.45-1.01-1.87-1.89
			c-0.38-0.76-0.56-1.61-0.56-2.55c0-0.59,0.08-1.14,0.23-1.64c0.29-0.99,0.78-1.81,1.46-2.46c0.41-0.4,1.03-0.82,1.86-1.28
			c0.93-0.42,2.18-0.62,3.74-0.61h4.7l0.03,6.37c-0.03,0-0.04,0.5-0.02,1.5c0.13,1.34,0.74,2.04,1.83,2.1h2.15V271.1z
			 M193.19,260.44c-1.03-0.04-1.84-0.01-2.43,0.1c-1.2,0.25-1.99,0.78-2.36,1.6c-0.27,0.57-0.41,1.19-0.41,1.86
			c0,0.61,0.11,1.13,0.33,1.57c0.26,0.49,0.62,0.89,1.08,1.21c0.49,0.34,0.98,0.48,1.46,0.42c0.82-0.11,1.46-0.53,1.91-1.25
			c0.3-0.49,0.45-1.1,0.45-1.82C193.22,263.87,193.21,262.65,193.19,260.44z M188.45,254.96h2.61v2.14h-2.61V254.96z M192.8,254.96
			h2.61v2.14h-2.61V254.96z"/>
		<path class="st8" d="M203.93,261.69H207v6.14c0,1.37-0.55,2.32-1.66,2.86c-0.46,0.23-1.01,0.37-1.66,0.41h-4.65v-2.68h3.32
			c1,0.03,1.52-0.39,1.57-1.27v-1.44L203.93,261.69z M199.7,272.55h2.61v2.15h-2.61V272.55z M204.06,272.55h2.61v2.15h-2.61V272.55z
			"/>
		<path class="st8" d="M214.73,271.1c-0.21,0.96-0.71,1.81-1.5,2.54c-1.06,0.86-2.59,1.24-4.57,1.16l0.03-2.07
			c0.14,0.02,0.27,0.03,0.39,0.03c0.82,0,1.53-0.3,2.11-0.89c0.42-0.46,0.63-1.15,0.63-2.08v-8.08h3.01v6.72h2.3v2.68H214.73z"/>
		<path class="st8" d="M216.41,271.1v-2.69h2.72v-6.79h3.08v2.4c1.06-1.53,2.5-2.58,4.32-3.15c0.76-0.24,1.57-0.38,2.41-0.41
			c1.92-0.03,3.49,0.38,4.71,1.22c1.01,0.67,1.8,1.72,2.38,3.15c0.4,1.09,0.62,2.29,0.66,3.6h2.38v2.68H216.41z M222.07,268.37
			h11.08c0.04-0.45,0.06-0.81,0.06-1.1c-0.1-1.23-0.57-2.25-1.39-3.05c-0.34-0.35-0.76-0.63-1.24-0.85
			c-0.52-0.21-1.06-0.31-1.61-0.31c-1.01,0-2.04,0.32-3.08,0.96c-0.73,0.45-1.34,0.95-1.83,1.5
			C223.09,266.64,222.43,267.59,222.07,268.37z"/>
		<path class="st8" d="M252.55,271.13c-2.25-0.02-3.84-0.02-4.76,0c-0.56,0-1.15-0.14-1.75-0.42c-0.5-0.22-0.85-0.46-1.05-0.72
			c-0.1-0.15-0.21-0.22-0.33-0.22c-0.1,0-0.19,0.05-0.25,0.16c-0.64,0.78-1.67,1.17-3.1,1.17h-3.8v-2.66h3.84
			c0.58-0.1,1.04-0.34,1.38-0.72c-0.52-1.04-1.31-1.73-2.38-2.05c-0.48-0.14-0.93-0.3-1.36-0.48l-0.44-2.05
			c0.78-0.74,1.97-1.32,3.55-1.74c0.65-0.21,1.47-0.33,2.47-0.38c1.77,0.02,3.3,0.39,4.59,1.11c0.52,0.28,0.99,0.59,1.39,0.92
			c0.59,0.54,0.64,1.05,0.14,1.53c-0.87,0.3-2.01,1.41-3.44,3.32c0.21,0.31,0.61,0.49,1.19,0.53h4.12V271.13z M244.8,266.06
			c0.45-0.44,1.1-1.06,1.94-1.88c-0.7-0.36-1.45-0.55-2.24-0.55c-0.68,0-1.3,0.15-1.88,0.44
			C243.53,264.36,244.25,265.02,244.8,266.06z"/>
		<path class="st8" d="M255.04,256.37h3.27v11.44c0,1.35-0.72,2.34-2.16,2.99c-0.56,0.2-1.2,0.3-1.91,0.3h-3.15v-2.69h1.31
			c0.21,0.02,0.5,0.02,0.88-0.02c1.03-0.1,1.62-0.7,1.75-1.78V256.37z"/>
		<path class="st8" d="M260.32,256.32l3.32-0.02v14.78l-3.35,0.03L260.32,256.32z"/>
		<path class="st8" d="M278.95,269.34c-1.18,1.18-2.69,1.77-4.52,1.77c-1.71,0-3.03-0.56-3.94-1.68c-0.65-0.72-1.01-1.68-1.1-2.9
			c0-0.57,0.1-1.16,0.31-1.77c0.23-0.66,0.55-1.22,0.95-1.69c0.87-1.02,2.21-1.56,4.04-1.61c1.6-0.04,3.02,0.56,4.27,1.82
			c0.67,0.77,1.04,1.86,1.11,3.26C280.02,267.69,279.65,268.62,278.95,269.34z M271.04,257.98h2.61v2.15h-2.61V257.98z
			 M273.4,263.86c-0.29,0.2-0.54,0.5-0.74,0.91c-0.22,0.45-0.33,0.95-0.33,1.5c0,0.46,0.09,0.93,0.27,1.41
			c0.38,0.98,1.1,1.47,2.16,1.47c0.33,0,0.61-0.04,0.83-0.13c0.34-0.14,0.63-0.39,0.85-0.75c0.39-0.52,0.59-1.16,0.63-1.92
			c0-0.3-0.04-0.62-0.13-0.96c-0.29-1.14-0.98-1.82-2.07-2.05c-0.09,0-0.19,0.01-0.3,0.03C274.23,263.38,273.84,263.54,273.4,263.86
			z M275.39,257.98h2.61v2.15h-2.61V257.98z"/>
		<path class="st8" d="M289.15,270.66c-0.75,0.3-1.59,0.45-2.52,0.45c-1.71,0-3.05-0.56-4.01-1.68c-0.61-0.69-0.95-1.65-1.03-2.9
			c0-0.57,0.1-1.16,0.31-1.77c0.23-0.66,0.55-1.22,0.96-1.69c0.87-1.02,2.21-1.56,4.04-1.61h0.16c1.53,0,2.91,0.61,4.12,1.82
			c0.67,0.77,1.04,1.86,1.11,3.26c0,0.1-0.01,0.19-0.02,0.28l-0.01,1.58h1.89l0.02,2.69h-2.02c-0.22,0.96-0.72,1.81-1.5,2.54
			c-0.97,0.77-2.32,1.16-4.05,1.16h-0.52l0.03-2.07c0.14,0.02,0.27,0.03,0.39,0.03c0.82,0,1.53-0.3,2.11-0.89
			C288.88,271.56,289.06,271.16,289.15,270.66z M285.62,263.99c-0.29,0.19-0.54,0.46-0.74,0.83c-0.22,0.42-0.33,0.88-0.33,1.38
			c0,0.43,0.09,0.86,0.27,1.3c0.38,0.9,1.1,1.35,2.16,1.35c0.33,0,0.61-0.04,0.83-0.11c0.26-0.08,0.54-0.31,0.85-0.69
			c0.42-0.51,0.63-1.1,0.63-1.77c0-0.28-0.04-0.57-0.13-0.88c-0.3-1.23-0.99-1.86-2.07-1.88c-0.09,0-0.19,0.01-0.3,0.03
			C286.44,263.55,286.05,263.7,285.62,263.99z"/>
		<path class="st8" d="M292.91,268.4h3.71c-0.48-0.95-0.72-1.84-0.72-2.66c0-1,0.26-1.92,0.77-2.74c0.7-1.01,1.57-1.7,2.6-2.05
			c0.59-0.21,1.4-0.33,2.41-0.36c1.06-0.02,2.09,0.24,3.08,0.78c1.41,0.76,2.27,1.95,2.58,3.55c0.07,0.38,0.11,0.74,0.11,1.1
			c0,0.87-0.2,1.67-0.61,2.4h2.65v2.68h-6.98c-0.28,0.02-0.58,0.03-0.89,0.03h-8.7V268.4z M299,266.06c0,0.22,0.02,0.44,0.06,0.66
			c0.26,1.36,1.08,2.04,2.46,2.04c0.2,0,0.38-0.02,0.55-0.05c0.41-0.07,0.81-0.31,1.21-0.72c0.55-0.55,0.83-1.27,0.83-2.14
			c0-0.13-0.01-0.26-0.02-0.41c-0.26-1.54-1.09-2.33-2.47-2.4c-0.7-0.04-1.31,0.24-1.83,0.84C299.26,264.48,299,265.21,299,266.06z
			 M300.46,256.4h2.61v2.15h-2.61V256.4z"/>
		<path class="st8" d="M308.64,271.1v-2.69h2.72v-6.79h3.08v2.4c1.06-1.53,2.5-2.58,4.32-3.15c0.76-0.24,1.57-0.38,2.41-0.41
			c1.92-0.03,3.49,0.38,4.71,1.22c1.01,0.67,1.8,1.72,2.38,3.15c0.4,1.09,0.62,2.29,0.66,3.6h2.38v2.68H308.64z M314.31,268.37
			h11.08c0.04-0.45,0.06-0.81,0.06-1.1c-0.1-1.23-0.57-2.25-1.39-3.05c-0.34-0.35-0.76-0.63-1.24-0.85
			c-0.52-0.21-1.06-0.31-1.61-0.31c-1.01,0-2.04,0.32-3.08,0.96c-0.73,0.45-1.34,0.95-1.83,1.5
			C315.33,266.64,314.66,267.59,314.31,268.37z"/>
		<path class="st8" d="M333.63,256.37h3.27v11.44c0,1.35-0.72,2.34-2.16,2.99c-0.56,0.2-1.2,0.3-1.91,0.3h-3.15v-2.69H331
			c0.21,0.02,0.5,0.02,0.88-0.02c1.03-0.1,1.62-0.7,1.75-1.78V256.37z"/>
		<path class="st8" d="M338.9,256.32l3.32-0.02v14.78l-3.35,0.03L338.9,256.32z"/>
	</g>
	<g>
		<path class="st9" d="M12.52,292.43l-0.71,2.55H9.48l3.04-9.94h2.95l3.08,9.94h-2.42l-0.77-2.55H12.52z M15.04,290.75l-0.62-2.11
			c-0.18-0.59-0.35-1.33-0.5-1.92h-0.03c-0.15,0.59-0.29,1.34-0.46,1.92l-0.59,2.11H15.04z"/>
		<path class="st9" d="M19.89,285.04h2.26v8.05h3.95v1.89h-6.21V285.04z"/>
		<path class="st9" d="M27.51,292.67c0.61,0.31,1.53,0.62,2.49,0.62c1.03,0,1.58-0.43,1.58-1.08c0-0.62-0.47-0.97-1.67-1.4
			c-1.65-0.58-2.73-1.49-2.73-2.93c0-1.7,1.42-3,3.76-3c1.12,0,1.95,0.24,2.54,0.5l-0.5,1.81c-0.4-0.19-1.11-0.47-2.08-0.47
			c-0.97,0-1.45,0.44-1.45,0.96c0,0.63,0.56,0.91,1.84,1.4c1.75,0.65,2.58,1.57,2.58,2.97c0,1.67-1.28,3.08-4.01,3.08
			c-1.14,0-2.26-0.3-2.82-0.61L27.51,292.67z"/>
		<path class="st9" d="M37.72,292.43l-0.71,2.55h-2.33l3.04-9.94h2.95l3.08,9.94h-2.42l-0.77-2.55H37.72z M40.24,290.75l-0.62-2.11
			c-0.18-0.59-0.35-1.33-0.5-1.92h-0.03c-0.15,0.59-0.29,1.34-0.46,1.92l-0.59,2.11H40.24z"/>
		<path class="st9" d="M45.09,285.04h6.08v1.84h-3.82v2.27h3.57v1.83h-3.57v4h-2.26V285.04z"/>
		<path class="st9" d="M54.47,294.98l-2.36-9.94h2.4l0.75,4.1c0.22,1.18,0.43,2.46,0.59,3.47h0.03c0.16-1.08,0.4-2.27,0.65-3.5
			l0.84-4.07h2.39l0.8,4.19c0.22,1.16,0.38,2.23,0.53,3.33h0.03c0.15-1.11,0.37-2.27,0.58-3.45l0.81-4.07h2.29l-2.57,9.94H59.8
			l-0.84-4.28c-0.19-1-0.35-1.93-0.47-3.07h-0.03c-0.18,1.12-0.34,2.07-0.58,3.07l-0.94,4.28H54.47z"/>
		<path class="st9" d="M67.49,292.43l-0.71,2.55h-2.33l3.04-9.94h2.95l3.08,9.94h-2.42l-0.77-2.55H67.49z M70.02,290.75l-0.62-2.11
			c-0.18-0.59-0.35-1.33-0.5-1.92h-0.03c-0.15,0.59-0.29,1.34-0.46,1.92l-0.59,2.11H70.02z"/>
		<path class="st9" d="M80.16,292.43l-0.71,2.55h-2.33l3.04-9.94h2.95l3.08,9.94h-2.42l-0.77-2.55H80.16z M82.68,290.75l-0.62-2.11
			c-0.18-0.59-0.35-1.33-0.5-1.92h-0.03c-0.15,0.59-0.29,1.34-0.46,1.92l-0.59,2.11H82.68z"/>
		<path class="st9" d="M87.53,285.04h2.26v8.05h3.95v1.89h-6.21V285.04z"/>
		<path class="st9" d="M97.48,292.43l-0.71,2.55h-2.33l3.04-9.94h2.95l3.08,9.94h-2.42l-0.77-2.55H97.48z M100,290.75l-0.62-2.11
			c-0.18-0.59-0.35-1.33-0.5-1.92h-0.03c-0.15,0.59-0.29,1.34-0.46,1.92l-0.59,2.11H100z"/>
		<path class="st9" d="M104.92,292.67c0.61,0.31,1.53,0.62,2.49,0.62c1.03,0,1.58-0.43,1.58-1.08c0-0.62-0.47-0.97-1.67-1.4
			c-1.65-0.58-2.73-1.49-2.73-2.93c0-1.7,1.42-3,3.76-3c1.12,0,1.95,0.24,2.54,0.5l-0.5,1.81c-0.4-0.19-1.11-0.47-2.08-0.47
			s-1.45,0.44-1.45,0.96c0,0.63,0.56,0.91,1.84,1.4c1.75,0.65,2.58,1.57,2.58,2.97c0,1.67-1.28,3.08-4.01,3.08
			c-1.14,0-2.26-0.3-2.82-0.61L104.92,292.67z"/>
		<path class="st9" d="M112.81,285.18c0.72-0.12,1.8-0.21,2.99-0.21c1.47,0,2.51,0.22,3.22,0.78c0.59,0.47,0.91,1.16,0.91,2.08
			c0,1.27-0.9,2.14-1.75,2.45v0.05c0.69,0.28,1.08,0.94,1.33,1.86c0.31,1.12,0.62,2.42,0.81,2.8h-2.3c-0.16-0.28-0.4-1.09-0.69-2.32
			c-0.27-1.24-0.69-1.58-1.61-1.59h-0.68v3.91h-2.23V285.18z M115.04,289.45h0.88c1.12,0,1.79-0.56,1.79-1.43
			c0-0.91-0.62-1.37-1.65-1.39c-0.55,0-0.86,0.04-1.02,0.07V289.45z"/>
		<path class="st9" d="M123.59,294.98v-4.07l-3.14-5.87h2.57l1.02,2.39c0.31,0.72,0.52,1.25,0.77,1.9h0.03
			c0.22-0.62,0.46-1.19,0.75-1.9l1-2.39h2.52l-3.27,5.8v4.14H123.59z"/>
		<path class="st9" d="M131.15,292.43l-0.71,2.55h-2.33l3.04-9.94h2.95l3.08,9.94h-2.42l-0.77-2.55H131.15z M133.67,290.75
			l-0.62-2.11c-0.18-0.59-0.35-1.33-0.5-1.92h-0.03c-0.15,0.59-0.29,1.34-0.46,1.92l-0.59,2.11H133.67z"/>
		<path class="st9" d="M140.77,285.04v3.82h3.7v-3.82h2.24v9.94h-2.24v-4.16h-3.7v4.16h-2.26v-9.94H140.77z"/>
		<path class="st9" d="M151.67,285.04h6.08v1.84h-3.82v2.27h3.57v1.83h-3.57v4h-2.26V285.04z"/>
		<path class="st9" d="M168.55,289.91c0,3.26-1.98,5.24-4.88,5.24c-2.95,0-4.68-2.23-4.68-5.06c0-2.98,1.9-5.21,4.84-5.21
			C166.88,284.88,168.55,287.17,168.55,289.91z M161.37,290.04c0,1.95,0.91,3.32,2.42,3.32c1.52,0,2.39-1.45,2.39-3.38
			c0-1.79-0.86-3.32-2.4-3.32C162.25,286.67,161.37,288.11,161.37,290.04z"/>
		<path class="st9" d="M170.03,285.18c0.72-0.12,1.8-0.21,2.99-0.21c1.47,0,2.51,0.22,3.22,0.78c0.59,0.47,0.91,1.16,0.91,2.08
			c0,1.27-0.9,2.14-1.75,2.45v0.05c0.69,0.28,1.08,0.94,1.33,1.86c0.31,1.12,0.62,2.42,0.81,2.8h-2.3c-0.16-0.28-0.4-1.09-0.69-2.32
			c-0.27-1.24-0.69-1.58-1.61-1.59h-0.68v3.91h-2.23V285.18z M172.26,289.45h0.88c1.12,0,1.79-0.56,1.79-1.43
			c0-0.91-0.62-1.37-1.65-1.39c-0.55,0-0.86,0.04-1.02,0.07V289.45z"/>
		<path class="st9" d="M190.07,294.53c-0.69,0.24-2.01,0.56-3.32,0.56c-1.81,0-3.13-0.46-4.04-1.34c-0.91-0.86-1.42-2.15-1.4-3.61
			c0.01-3.31,2.42-5.19,5.68-5.19c1.28,0,2.27,0.25,2.76,0.49l-0.47,1.8c-0.55-0.24-1.22-0.43-2.32-0.43
			c-1.87,0-3.29,1.06-3.29,3.22c0,2.05,1.28,3.26,3.13,3.26c0.52,0,0.93-0.06,1.11-0.15v-2.08h-1.53v-1.76h3.7V294.53z"/>
		<path class="st9" d="M197.75,290.78h-3.66v2.36h4.09v1.84h-6.34v-9.94h6.14v1.84h-3.88v2.07h3.66V290.78z"/>
		<path class="st9" d="M199.72,294.98v-9.94h2.63l2.07,3.64c0.59,1.05,1.18,2.29,1.62,3.41h0.04c-0.15-1.31-0.19-2.65-0.19-4.14
			v-2.9h2.06v9.94h-2.36l-2.12-3.84c-0.59-1.06-1.24-2.35-1.73-3.51l-0.04,0.01c0.06,1.31,0.09,2.71,0.09,4.34v2.99H199.72z"/>
		<path class="st9" d="M215.82,290.78h-3.66v2.36h4.09v1.84h-6.34v-9.94h6.14v1.84h-3.88v2.07h3.66V290.78z"/>
		<path class="st9" d="M217.79,285.18c0.72-0.12,1.8-0.21,2.99-0.21c1.47,0,2.51,0.22,3.22,0.78c0.59,0.47,0.91,1.16,0.91,2.08
			c0,1.27-0.9,2.14-1.75,2.45v0.05c0.69,0.28,1.08,0.94,1.33,1.86c0.31,1.12,0.62,2.42,0.81,2.8h-2.3c-0.16-0.28-0.4-1.09-0.69-2.32
			c-0.26-1.24-0.69-1.58-1.61-1.59h-0.68v3.91h-2.23V285.18z M220.01,289.45h0.88c1.12,0,1.79-0.56,1.79-1.43
			c0-0.91-0.62-1.37-1.65-1.39c-0.55,0-0.86,0.04-1.02,0.07V289.45z"/>
		<path class="st9" d="M228.99,292.43l-0.71,2.55h-2.33l3.04-9.94h2.95l3.08,9.94h-2.42l-0.77-2.55H228.99z M231.51,290.75
			l-0.62-2.11c-0.18-0.59-0.35-1.33-0.5-1.92h-0.03c-0.15,0.59-0.29,1.34-0.46,1.92l-0.59,2.11H231.51z"/>
		<path class="st9" d="M236.36,285.04h2.26v8.05h3.95v1.89h-6.21V285.04z"/>
		<path class="st9" d="M254.18,294.7c-0.41,0.21-1.34,0.43-2.55,0.43c-3.44,0-5.21-2.14-5.21-4.97c0-3.39,2.42-5.28,5.43-5.28
			c1.17,0,2.05,0.24,2.45,0.44l-0.46,1.78c-0.46-0.19-1.09-0.37-1.89-0.37c-1.78,0-3.17,1.08-3.17,3.29c0,1.99,1.18,3.25,3.19,3.25
			c0.68,0,1.43-0.15,1.87-0.33L254.18,294.7z"/>
		<path class="st9" d="M264.32,289.91c0,3.26-1.98,5.24-4.88,5.24c-2.95,0-4.68-2.23-4.68-5.06c0-2.98,1.9-5.21,4.84-5.21
			C262.66,284.88,264.32,287.17,264.32,289.91z M257.14,290.04c0,1.95,0.91,3.32,2.42,3.32c1.52,0,2.39-1.45,2.39-3.38
			c0-1.79-0.86-3.32-2.4-3.32C258.03,286.67,257.14,288.11,257.14,290.04z"/>
		<path class="st9" d="M265.81,294.98v-9.94h2.63l2.07,3.64c0.59,1.05,1.18,2.29,1.62,3.41h0.04c-0.15-1.31-0.19-2.65-0.19-4.14
			v-2.9h2.07v9.94h-2.36l-2.12-3.84c-0.59-1.06-1.24-2.35-1.73-3.51l-0.04,0.01c0.06,1.31,0.09,2.71,0.09,4.34v2.99H265.81z"/>
		<path class="st9" d="M277.91,286.93h-2.67v-1.89h7.64v1.89h-2.71v8.05h-2.26V286.93z"/>
		<path class="st9" d="M284.08,285.18c0.72-0.12,1.8-0.21,2.99-0.21c1.47,0,2.51,0.22,3.22,0.78c0.59,0.47,0.91,1.16,0.91,2.08
			c0,1.27-0.9,2.14-1.75,2.45v0.05c0.69,0.28,1.08,0.94,1.33,1.86c0.31,1.12,0.62,2.42,0.81,2.8h-2.3c-0.16-0.28-0.4-1.09-0.69-2.32
			c-0.26-1.24-0.69-1.58-1.61-1.59h-0.68v3.91h-2.23V285.18z M286.31,289.45h0.88c1.12,0,1.79-0.56,1.79-1.43
			c0-0.91-0.62-1.37-1.65-1.39c-0.55,0-0.86,0.04-1.02,0.07V289.45z"/>
		<path class="st9" d="M295.29,292.43l-0.71,2.55h-2.33l3.04-9.94h2.95l3.08,9.94h-2.42l-0.77-2.55H295.29z M297.81,290.75
			l-0.62-2.11c-0.18-0.59-0.35-1.33-0.5-1.92h-0.03c-0.15,0.59-0.29,1.34-0.46,1.92l-0.59,2.11H297.81z"/>
		<path class="st9" d="M309.59,294.7c-0.41,0.21-1.34,0.43-2.55,0.43c-3.44,0-5.21-2.14-5.21-4.97c0-3.39,2.42-5.28,5.43-5.28
			c1.17,0,2.05,0.24,2.45,0.44l-0.46,1.78c-0.46-0.19-1.09-0.37-1.89-0.37c-1.78,0-3.17,1.08-3.17,3.29c0,1.99,1.18,3.25,3.19,3.25
			c0.68,0,1.43-0.15,1.87-0.33L309.59,294.7z"/>
		<path class="st9" d="M313.19,286.93h-2.67v-1.89h7.64v1.89h-2.71v8.05h-2.26V286.93z"/>
		<path class="st9" d="M321.62,285.04v9.94h-2.26v-9.94H321.62z"/>
		<path class="st9" d="M323.57,294.98v-9.94h2.63l2.07,3.64c0.59,1.05,1.18,2.29,1.62,3.41h0.04c-0.15-1.31-0.19-2.65-0.19-4.14
			v-2.9h2.07v9.94h-2.36l-2.12-3.84c-0.59-1.06-1.24-2.35-1.73-3.51l-0.04,0.01c0.06,1.31,0.09,2.71,0.09,4.34v2.99H323.57z"/>
		<path class="st9" d="M342.06,294.53c-0.69,0.24-2.01,0.56-3.32,0.56c-1.81,0-3.13-0.46-4.04-1.34c-0.91-0.86-1.42-2.15-1.4-3.61
			c0.01-3.31,2.42-5.19,5.68-5.19c1.28,0,2.27,0.25,2.76,0.49l-0.47,1.8c-0.55-0.24-1.22-0.43-2.32-0.43
			c-1.87,0-3.29,1.06-3.29,3.22c0,2.05,1.28,3.26,3.13,3.26c0.52,0,0.93-0.06,1.11-0.15v-2.08h-1.53v-1.76h3.7V294.53z"/>
	</g>
</g>
</svg>
