<?xml version="1.0" encoding="utf-8"?>
<!-- Generator: Adobe Illustrator 26.0.1, SVG Export Plug-In . SVG Version: 6.00 Build 0)  -->
<svg version="1.1" id="Layer_1" xmlns="http://www.w3.org/2000/svg" xmlns:xlink="http://www.w3.org/1999/xlink" x="0px" y="0px"
	 viewBox="0 0 350 350" style="enable-background:new 0 0 350 350;" xml:space="preserve">
<style type="text/css">
	.st0{fill:#F6A322;}
	.st1{fill:#020303;}
</style>
<g>
	<g>
		<path class="st0" d="M254.17,21.21c-1.97-5.52-6.17-8.58-11.71-9.72c-3.9-0.8-7.9-1.13-11.86-1.65c-0.3-0.04-0.61-0.01-0.9-0.01
			c0.4,0.93,0.89,1.71,1.07,2.56c0.66,3.21,1.22,6.44,1.82,9.66c0.51,2.77,0.35,5.54-0.47,8.2c-1.65,5.36-4.6,9.98-8.45,14.04
			c-0.42,0.44-0.9,0.87-1.65,0.41c0.11-1.05,0.65-1.88,1.23-2.67c0.9-1.22,1.94-2.35,2.78-3.61c1.59-2.39,2.21-5.16,2.66-7.92
			c0.86-5.21,0.63-10.33-1.83-15.17c-0.91-1.79-0.56-4.18,1.08-5.28c0.08-0.06,0.1-0.22,0.17-0.39c-2.39-0.23-4.69-0.48-7-0.65
			c-0.33-0.02-0.76,0.3-1.03,0.58c-0.65,0.69-1.23,1.45-1.85,2.17c-0.28,0.33-0.56,0.68-1.03,0.46c-0.31-0.88-0.56-1.74-0.93-2.55
			c-0.4-0.88-1.07-1.07-1.82-0.47c-0.51,0.4-0.89,0.97-1.27,1.51c-1.51,2.13-2.96,4.31-4.51,6.41c-0.67,0.91-1.55,1.65-2.97,1.7
			c0.04-0.72,0.03-1.38,0.11-2.02c0.21-1.7,0.44-3.4,0.69-5.09c0.29-1.95-0.33-3.4-2.98-3.46c-4.14-0.1-8.28-0.13-12.41-0.18
			c-0.24,0-0.48,0.01-0.71,0.01c-0.63-0.01-0.96,0.34-1.08,0.92c-0.5,2.51-0.97,5.03-1.51,7.54c-0.48,2.23-1,4.44-1.57,6.65
			c-0.17,0.68-0.51,1.34-0.88,1.94c-0.39,0.64-1.14,0.56-1.44-0.12c-0.15-0.34-0.19-0.73-0.23-1.11c-0.11-1.17-0.2-2.34-0.3-3.51
			c-0.11-0.04-0.23-0.07-0.34-0.11c-0.29,0.53-0.6,1.05-0.87,1.6c-0.6,1.24-1.15,2.5-1.76,3.73c-1.2,2.43-2.43,4.84-3.62,7.26
			c-0.64,1.3-0.5,1.85,0.59,2.86c1.47,1.37,2.78,2.87,3.59,4.73c0.57,1.3,1.12,2.62,1.65,3.94c0.2,0.51,0.63,1.14,0.04,1.56
			c-0.63,0.45-1.03-0.26-1.42-0.62c-1.86-1.71-3.92-3.15-6.12-4.39c-0.91-0.52-1.09-0.46-1.51,0.45c-1.16,2.5-2.29,5.01-3.44,7.51
			c-2.02,4.4-4.05,8.8-6.06,13.2c-0.13,0.28-0.16,0.59-0.27,1.02c0.57,0,0.99,0.01,1.41,0c2.9-0.11,5.8-0.26,8.7-0.34
			c2.53-0.08,5-0.47,7.41-1.28c0.29-0.1,0.55-0.27,1.01-0.51c-0.42-0.46-0.72-0.8-1.02-1.13c-2.12-2.26-1.85-3.73-0.31-5.69
			c2.53-3.2,5.49-5.97,9.32-7.57c1.7-0.71,3.48-1.43,5.28-1.64c3.68-0.43,7.39-0.55,11.09-0.73c0.9-0.04,1.66-0.24,2.34-0.84
			c0.73-0.64,1.13-0.68,1.84-0.03c0.47,0.43,0.83,1.02,1.14,1.59c0.65,1.18,0.38,2.65-0.66,3.48c-0.29,0.23-0.86,0.41-1.14,0.27
			c-0.71-0.33-1.12,0-1.47,0.46c-0.55,0.71-1.09,1.44-1.53,2.22c-1.35,2.37-2.9,4.58-4.97,6.37c-1.17,1.01-2.51,1.87-4.07,1.87
			c-1.48,0-2.5,0.6-3.52,1.53c-0.81,0.73-1.74,1.27-2.84,1.55c-2.23,0.57-4.37,0.16-6.42-0.62c-1.15-0.44-2.02-0.27-2.84,0.55
			c-0.61,0.61-1.23,1.19-1.81,1.83c-1.74,1.92-3.86,3.22-6.37,3.85c-1.37,0.35-2.47,1.12-3.19,2.24c-1.79,2.79-2.73,5.74-1.95,9.18
			c0.55,2.45,1.71,4.45,3.44,6.1c3.1,2.94,6.91,4.23,11.14,4.42c3.12,0.14,6.15-0.56,9.21-0.94c2.87-0.36,5.71-0.95,8.57-1.37
			c0.86-0.13,1.76-0.02,2.86-0.02c-0.17,0.68-0.24,1.18-0.42,1.64c-0.14,0.35-0.44,0.62-0.63,0.95c-0.67,1.14-1.59,2.22-1.93,3.46
			c-0.8,2.89,0.15,5.46,2.12,7.63c1.96,2.16,4.58,2.95,7.39,3.24c2.99,0.31,5.74-0.53,8.38-1.83c0.94-0.47,1.74-1.09,2.23-2.11
			c1.34-2.78,2.75-5.53,4.13-8.29c2.74-5.47,5.47-10.95,8.21-16.42c0.66-1.31,1.42-2.57,2.06-3.89c0.38-0.78,0.93-1.54,0.92-2.54
			c-0.45-0.1-0.85-0.12-1.17-0.29c-0.35-0.18-0.75-0.43-0.92-0.75c-0.61-1.15-0.23-3.21,0.68-4.13c1.3-1.32,2.56-2.68,3.92-3.92
			c0.73-0.67,1.34-1.59,2.58-1.58c0.37,0,0.87-0.57,1.08-0.99c1.2-2.37,2.33-4.79,3.48-7.18c0.52-1.07,1.04-2.13,1.57-3.19
			c1.17-2.33,2.34-4.66,3.49-7c0.16-0.32,0.19-0.71,0.33-1.21c-0.62-0.03-1.13-0.07-1.63-0.07c-2.24-0.01-4.47,0-6.71-0.01
			c-0.42,0-0.91,0.09-1.02-0.5c-0.1-0.5,0.18-0.82,0.61-1.01c0.64-0.28,1.28-0.69,1.96-0.77c2.26-0.27,4.54-0.43,6.81-0.61
			c1.26-0.1,1.45-0.22,1.69-1.46c0.38-1.86,0.8-3.72,1.09-5.6C255.25,26.7,255.13,23.89,254.17,21.21z M190.09,23.01
			c0.34-1.68,1.21-3.14,2.35-4.32c1.77-1.83,3.72-3.48,5.6-5.2c0.17-0.16,0.38-0.32,0.6-0.36c0.25-0.05,0.71-0.04,0.76,0.08
			c0.11,0.24,0.14,0.69-0.02,0.87c-0.8,0.93-1.65,1.82-2.51,2.7c-0.95,0.99-1.96,1.92-2.86,2.95c-0.72,0.82-0.89,1.88-0.73,2.95
			c0.05,0.34,0.26,0.66,0.42,1.06c0.8-0.34,1.47-0.63,2.32-1c0,0.57,0.1,0.96-0.02,1.27c-0.46,1.21-1.31,2.16-2.52,2.54
			C191.39,27.21,189.62,25.32,190.09,23.01z M206.92,36.13c-0.39,0.65-1.15,1.15-1.84,1.51c-0.36,0.18-1.02,0.02-1.44-0.19
			c-0.63-0.31-1.19-0.78-1.74-1.23c-0.67-0.54-1.28-0.58-2.06-0.12c-2.14,1.25-4.42,2.2-6.82,2.82c-3.42,0.88-6.9,1.39-10.44,1.2
			c-0.47-0.03-1.22,0.16-1.25-0.58c-0.02-0.68,0.65-0.83,1.23-0.93c2.06-0.37,4.11-0.74,6.16-1.13c1.91-0.36,3.84-0.66,5.72-1.14
			c1.42-0.36,2.78-0.95,4.15-1.49c0.28-0.11,0.48-0.42,0.75-0.66c-0.27-0.42-0.46-0.82-0.74-1.12c-1.31-1.41-1.18-3.26,0.47-4.78
			c1.25-1.16,2.55-2.26,3.82-3.39c1.51-1.34,2.2-1.36,3.37,0.23C208.8,28.59,208.84,32.97,206.92,36.13z M183.69,69.5
			c1.54-1.11,2.94-2.4,4.44-3.56c0.39-0.3,0.91-0.47,1.39-0.58c0.2-0.05,0.58,0.17,0.66,0.36c0.09,0.21-0.01,0.57-0.15,0.78
			c-0.15,0.22-0.45,0.32-0.67,0.5c-1.56,1.25-3.09,2.52-3.96,4.4c-0.27,0.58-0.33,0.98,0.68,1.35c0.07-0.13,0.14-0.45,0.34-0.63
			c0.39-0.36,0.96-0.42,1.26,0.01c0.18,0.26,0.14,0.92-0.07,1.16c-0.61,0.71-2.32,2.06-2.45,2.13c-2.38,1.34-3.31,0.42-3.33-2.1
			C181.82,71.8,182.35,70.47,183.69,69.5z M194.68,82.93c-0.99-0.05-1.99-0.21-2.98-0.23c-3.51-0.05-7.02-0.06-10.53-0.1
			c-2.52-0.03-5.03-0.09-7.54-0.18c-0.32-0.01-0.8-0.2-0.93-0.45c-0.24-0.46,0.14-0.8,0.57-0.97c0.69-0.28,1.38-0.66,2.1-0.77
			c2.97-0.46,5.96-0.39,8.95-0.24c3.51,0.17,7.02,0.27,10.53,0.42c0.89,0.04,1.78,0.16,2.78,0.26
			C197.23,82.34,196.31,83.01,194.68,82.93z M215.62,26.95c0.34-0.97,0.89-1.9,1.49-2.75c0.91-1.27,1.93-2.47,2.95-3.65
			c0.42-0.49,0.89-1.03,1.89-0.64c-0.23,0.42-0.39,0.83-0.64,1.17c-0.68,0.91-1.41,1.8-2.11,2.7c-0.58,0.74-0.86,1.57-0.74,2.61
			c0.6,0.1,1.18,0.21,1.75,0.31c-0.06,1.29-1.02,2.33-2.38,2.64C215.99,29.76,215,28.74,215.62,26.95z M206.23,67.26
			c0.84-2.55,2.18-4.83,3.82-6.93c0.26-0.34,0.69-0.54,1.29-0.99c0.17,1.28-0.25,1.95-0.7,2.62c-0.84,1.26-1.8,2.46-2.04,4.02
			c-0.55,3.65,0.04,7,2.73,9.75c0.33,0.34,0.71,0.63,1.03,0.98c0.5,0.55,0.56,1.7,0.17,2.41c-0.35,0.64-1.15,0.98-1.98,0.72
			c-0.37-0.11-0.79-0.39-0.99-0.71c-1.12-1.76-2.29-3.5-3.23-5.35C205.29,71.68,205.5,69.45,206.23,67.26z M218.22,94.39
			c-0.97,2.48-4.11,4.08-6.54,3.17c-2.14-0.81-3.03-3.21-1.89-5.32c0.4-0.74,0.99-1.38,1.58-1.99c1.39-1.42,2.82-2.81,4.26-4.19
			c0.53-0.51,1.14-0.82,2.08-0.5c-0.06,0.38-0.03,0.69-0.16,0.92c-0.54,0.97-0.27,1.86,0.24,2.7
			C218.81,90.86,218.9,92.66,218.22,94.39z M220.3,59.71c-0.65,0.46-1.38,0.84-2.12,1.15c-1.43,0.61-2.73,0.21-3.78-0.82
			c-0.95-0.93-1.14-2.09-0.69-3.41c0.72-2.12,2.28-3.55,3.85-4.98c0.66-0.6,1.39-1.13,2.11-1.67c0.14-0.1,0.35-0.1,0.72-0.2
			c0.18,0.57,0.28,1.02,0.45,1.45c0.21,0.52,0.4,1.07,0.72,1.52C223.41,55.3,223.09,57.72,220.3,59.71z M231.35,63.54
			c-1.08,2.12-2.03,4.29-2.63,6.6c-0.29,1.14-0.41,2.33-0.63,3.49c-0.24,1.3-0.49,2.61-0.77,3.9c-0.74,3.43-1.5,6.86-2.26,10.29
			c-0.09,0.39-0.22,0.77-0.35,1.24c-1.04-0.49-1.45-1.32-1.93-2.04c-1.78-2.71-1.87-5.74-1.4-8.8c0.29-1.87,0.69-3.74,1.25-5.55
			c0.28-0.9,1.01-1.69,1.62-2.46c1.85-2.34,3.73-4.67,5.64-6.97c0.45-0.54,0.82-1.28,2.1-1.39C231.7,62.62,231.57,63.1,231.35,63.54
			z M239.29,53.05c-1.83,1.35-3.69,2.65-5.56,3.94c-0.77,0.54-1.03,0.47-1.44-0.31c-1.07-2.06-2.14-4.12-3.2-6.18
			c-0.53-1.03-0.52-1.42,0.33-2.1c1.7-1.36,3.42-2.69,5.2-3.93c1.15-0.8,1.38-0.67,2.07,0.59c1.02,1.87,2.02,3.75,3.01,5.64
			c0.17,0.33,0.25,0.71,0.44,1.24C239.88,52.27,239.66,52.77,239.29,53.05z M250.04,25.13c-0.36,1.38-0.68,2.77-1.17,4.1
			c-0.69,1.89-2.03,3.07-4.12,3.21c-1.6,0.11-2.29-0.4-2.66-1.93c-0.03-0.14-0.01-0.29-0.05-0.42c-0.21-0.82-0.61-0.98-1.33-0.5
			c-0.32,0.21-0.59,0.48-0.92,0.67c-0.98,0.58-2,0.53-2.79-0.11c-1.07-0.86-1.44-1.87-1.02-3c1.06-2.84,2.16-5.67,3.25-8.51
			c0.08-0.22,0.18-0.45,0.33-0.62c0.33-0.39,0.85-0.38,1.04,0.09c0.18,0.46,0.36,1.06,0.22,1.49c-0.47,1.43-1.04,2.84-1.68,4.21
			c-0.36,0.76-0.65,1.47-0.46,2.31c0.28,1.24,1.02,1.66,2.21,1.18c1.42-0.57,2.12-1.65,2.26-3.18c0.09-1.03,0.27-2.07,0.53-3.07
			c0.12-0.48,0.52-0.9,0.83-1.31c0.44-0.59,1.01-0.86,2.03-0.4c-0.08,0.64-0.07,1.3-0.25,1.91c-0.49,1.63-1.06,3.25-1.6,4.87
			c-0.45,1.32-0.18,2.36,0.82,3.02c0.18,0.12,0.43,0.12,0.8,0.21c0.11-0.58,0.27-1.08,0.3-1.58c0.09-1.71,0.87-3.18,1.59-4.67
			c0.12-0.25,0.26-0.59,0.48-0.68c0.37-0.14,0.84-0.23,1.19-0.11c0.26,0.09,0.54,0.56,0.53,0.86
			C250.36,23.83,250.21,24.49,250.04,25.13z"/>
		<path class="st0" d="M228.29,249.18c-0.88-0.99-1.59-2.13-2.37-3.21c-1.05-1.45-1.79-2.99-1.77-4.86
			c0.02-2.14-0.11-4.28-0.18-6.43c-0.02-0.51-0.08-1.02-0.14-1.62c-0.59-0.03-1.05-0.08-1.51-0.08c-1.33-0.01-2.67,0.01-4-0.01
			c-3.14-0.04-6.1-0.69-8.8-2.45c-2.58-1.68-4.4-3.96-5.3-6.82c-0.67-2.11-0.87-4.37-1.28-6.56c-0.06-0.31-0.14-0.61-0.24-1.05
			c-6.75,1.53-13.5,1.65-20.24,1.42c-0.22-0.87,0.17-0.99,0.71-1.08c5.44-0.9,10.87-1.81,16.3-2.72c0.89-0.15,1.79-0.27,2.67-0.43
			c1.13-0.21,1.87-0.82,2.11-2.01c0.17-0.83,0.4-1.66,0.67-2.46c0.95-2.81,2.17-5.5,4.15-7.74c2.92-3.32,5.94-6.54,8.89-9.83
			c0.29-0.32,0.54-0.83,0.53-1.25c-0.02-0.98-0.21-1.96-0.34-2.92c-1.87-0.03-2.8,0.56-3.46,2.27c-0.84,2.18-1.8,4.27-2.98,6.3
			c-2.64,4.56-6.32,8.06-10.68,10.87c-3.07,1.99-6.34,3.62-9.78,4.9c-3.17,1.18-6.41,2.09-9.74,2.72c-1.77,0.33-3.55,0.73-5.34,0.85
			c-2.42,0.16-4.85,0.1-7.28,0.12c-3.38,0.03-6.59-0.84-9.74-1.93c-1.48-0.51-2.88-1.22-4.31-1.86c-1.16-0.52-1.49-0.47-2.38,0.43
			c-0.63,0.64-1.27,1.28-1.89,1.94c-1,1.06-1.2,2.64-0.47,3.72c0.83-0.21,1.38-1.43,2.67-0.71c-0.21,0.47-0.29,1.06-0.63,1.34
			c-0.97,0.82-1.98,1.63-3.1,2.23c-1.2,0.64-2.1,0.14-2.56-1.13c-0.61-1.68-0.49-3.17,0.93-4.41c0.39-0.34,0.71-0.77,1.09-1.11
			c1.03-0.92,2.07-1.82,3.11-2.71c1.09-0.93,1.16-1.63,0.15-2.59c-0.79-0.75-1.66-1.42-2.44-2.19c-0.75-0.73-1.62-1.43-2.08-2.32
			c-1.06-2.06-2.14-4.17-2.79-6.38c-1.69-5.73-1.34-11.48,0.38-17.16c0.85-2.83,1.98-5.54,3.33-8.16c1.9-3.68,4-7.24,6.75-10.37
			c1.66-1.89,3.36-3.76,5.1-5.58c1.2-1.25,1.69-2.64,1.07-4.3c-0.68-1.82-1.38-3.64-2.19-5.41c-0.43-0.94-1.01-1.84-1.68-2.62
			c-1.94-2.24-4.61-3.1-7.39-3.64c-3.44-0.68-6.89-0.69-10.34-0.07c-1.33,0.24-1.62,0.47-1.66,1.82c-0.05,1.38,0.07,2.78-0.08,4.14
			c-0.23,2.09,0.61,3.83,1.59,5.51c1.28,2.2,1.26,2.87-0.87,4.33c-0.98,0.67-1.34,1.5-1.5,2.58c-0.33,2.26-0.71,4.51-1.06,6.76
			c-0.06,0.4-0.08,0.81-0.12,1.25c1.18,0.34,2.23,0.56,3.33,0.24c2.04-0.6,4.09-1.19,6.14-1.77c0.34-0.1,0.69-0.14,1.08-0.21
			c-0.11,1.05-0.11,1.05-0.9,1.79c-2.74,2.58-5.79,4.62-9.48,5.6c-1.08,0.29-1.63,0.92-1.83,2.08c-0.82,4.82-1.74,9.63-2.61,14.45
			c-0.18,1.01-0.26,2.04-0.4,3.19c3.19-0.5,6.21-0.97,9.16-1.43c0.45,0.73,0.02,1.07-0.31,1.37c-1.39,1.23-2.77,2.45-4.21,3.62
			c-1.24,1-2.69,1.6-4.22,2.01c-0.98,0.27-1.53,0.84-1.62,1.9c-0.07,0.75-0.31,1.48-0.43,2.23c-0.12,0.78-0.19,1.58-0.31,2.55
			c0.53-0.24,0.85-0.49,1.2-0.52c0.59-0.05,1.24-0.08,1.78,0.11c0.76,0.27,1.12,0.93,1.25,1.76c0.27,1.71,0.21,3.41,0.03,5.12
			c-0.09,0.81-0.34,1.68,0.2,2.43c0.13-0.02,0.19-0.01,0.22-0.04c0.1-0.1,0.21-0.2,0.27-0.32c1.2-2.69,3.42-4.25,5.96-5.47
			c1.22-0.59,2.24-0.18,2.75,1.11c0.38,0.97,0.39,1.95,0.04,2.93c-0.33,0.93-1.08,1.61-1.81,1.58c-0.92-0.04-1.26-0.73-1.55-1.46
			c-0.19-0.48-0.38-0.95-0.64-1.63c-0.68,0.56-1.34,0.95-1.81,1.51c-1.78,2.15-3.49,4.36-5.22,6.54c-0.59,0.75-1.33,1.15-1.77,0.87
			c-0.7-0.44-0.52-1.16-0.42-1.81c0.28-1.74,0.58-3.47,0.86-5.2c0.26-1.63-0.23-2.59-1.76-3.44c-0.06,0.24-0.14,0.47-0.17,0.7
			c-0.56,4.92-1.11,9.83-1.67,14.75c-0.08,0.72,0.19,1.18,0.86,1.46c1.23,0.5,2.47,0.91,3.78,1.21c3.52,0.81,7.05,0.93,10.63,0.61
			c4.09-0.36,8.03-1.41,11.98-2.41c2.48-0.63,4.97-1.22,7.47-1.79c1-0.23,2.04-0.43,3.1,0.34c-0.15,0.3-0.23,0.47-0.32,0.63
			c-0.83,1.44-1.7,2.85-2.48,4.32c-0.64,1.21-0.86,2.49-0.48,3.87c0.36,1.32,0.96,1.64,2.17,1.02c1.81-0.93,3.61-1.87,5.41-2.83
			c1.05-0.56,2.06-1.17,3.1-1.74c2.67-1.46,5.28-3.05,8.23-3.87c2.33-0.65,4.69-1.25,7.08-1.61c3.07-0.46,6.17-0.5,9.16,0.6
			c2.32,0.86,4.22,2.27,5.23,4.56c0.99,2.25,1.88,4.57,2.56,6.93c0.58,1.99,1.08,4.05,0.54,6.19c-0.18,0.72-0.17,1.5-0.18,2.25
			c0,0.94-0.25,1.77-0.78,2.55c-0.75,1.09-1.47,2.21-2.21,3.3c-2.23,3.26-5.22,5.43-9.05,6.47c-1.63,0.45-3.26,0.58-4.92,0.68
			c-3.38,0.21-6.74-0.16-10.1-0.46c-1.47-0.13-2.94-0.31-4.37-0.66c-3.25-0.79-6.3-2.09-9.12-3.9c-2.75-1.77-5.24-3.73-6.69-6.82
			c-0.53-1.12-1.52-2.01-2.28-2.99c-0.29,0.11-0.43,0.14-0.55,0.22c-1.52,1.06-3.03,2.13-4.56,3.18c-0.41,0.28-0.84,0.69-1.55,0.07
			c0.29-0.62,0.57-1.31,0.92-1.96c0.81-1.48,1.99-2.64,3.35-3.61c1.37-0.97,2.04-2.3,2.32-3.93c0.23-1.35,0.65-2.67,0.98-4
			c0.07-0.3,0.12-0.61,0.22-1.15c-1.05,0.18-1.93,0.29-2.79,0.47c-5.15,1.1-10.29,2.34-15.47,3.3c-2.89,0.54-5.84,0.86-8.81,0.46
			c-1.02-0.14-2.06-0.19-3.23-0.3c-0.22,2.7-0.32,5.26-0.31,8.01c1.54-0.57,2.85-1.1,4.2-1.55c1.03-0.34,2.08-0.68,3.16-0.84
			c1.25-0.18,2.47-0.03,3.33,1.11c0.2,0.26,0.5,0.44,0.75,0.66c0.56,0.51,1.16,0.6,1.82,0.18c0.64-0.41,1.27-0.84,1.93-1.21
			c1.36-0.76,2.7-1.61,4.38-1.46c2.37,0.21,3.88,2.98,2.71,4.99c-1.75,3.01-6.47,4.66-9.47,3.39c-0.65-0.28-1.34-0.51-2.03-0.64
			c-0.72-0.14-1.46-0.12-2.42-0.19c0.33-0.79,0.6-1.46,0.94-2.26c-1.38-0.99-2.92-1.49-4.63-1.24c-2.66,0.4-4.91,1.69-6.92,3.44
			c-1.5,1.3-2.73,2.79-3.25,4.75c-0.16,0.59-0.3,1.2-0.38,1.81c-0.31,2.34-0.59,4.69-0.88,7.01c1.57,0.36,110.83,0.31,111.94-0.02
			c-0.28-2.25-0.51-4.51-0.85-6.77C229.86,251.89,229.39,250.42,228.29,249.18z M145.54,160.43c-0.9-0.33-0.81-0.92-0.71-1.48
			c0.24-1.35,0.5-2.7,0.79-4.05c0.24-1.1,0.1-1.96-0.82-2.81c-1.09-1-1.31-2.39-0.87-3.82c0.4-1.31,1.15-1.77,2.45-1.63
			c0.98,0.11,1.89,1.03,1.98,2.1c0.09,0.99,0.07,1.99,0.12,2.99c0.04,0.65,0.12,1.3,0.21,2.24c0.54-0.47,0.88-0.76,1.21-1.07
			c1.41-1.31,2.98-2.33,4.91-2.7c1.68-0.32,2.39,0.31,2.09,1.98c-0.14,0.77-0.46,1.54-0.85,2.23c-0.5,0.88-1.35,0.84-1.88-0.01
			c-0.18-0.28-0.32-0.58-0.48-0.87c-0.16-0.28-0.33-0.56-0.55-0.92C150.49,155.33,148,157.9,145.54,160.43z M141.68,175.13
			c-0.7,0.7-1.44,1.37-2.13,2.08c-0.82,0.84-1.67,1.66-2.41,2.56c-1.04,1.27-0.99,1.36,0.45,2.39c0.43-0.11,0.87-0.23,1.29-0.34
			c0.46,0.5,0.39,1,0.01,1.32c-0.86,0.72-1.71,1.56-2.72,1.99c-1.65,0.69-3.16-0.78-2.65-2.61c0.33-1.21,0.9-2.43,1.64-3.44
			c1.09-1.48,2.47-2.73,4.1-3.68c0.8-0.46,1.48-1.13,2.23-1.72C142.17,174.16,142.17,174.63,141.68,175.13z M162.95,256.14
			c-0.5,0.11-1.04,0.14-1.56,0.13c-7.66-0.13-15.32-0.28-22.98-0.41c-1.04-0.02-2.09,0.09-3.14,0.09c-0.23,0-0.6-0.16-0.67-0.34
			c-0.08-0.2,0.04-0.62,0.21-0.73c0.57-0.39,1.17-0.84,1.83-1c4.44-1.09,8.94-1.04,13.47-0.69c2.03,0.16,4.08,0.25,6.11,0.18
			c2.74-0.1,5.37,0.46,8.17,0.9C164.34,255.41,163.82,255.95,162.95,256.14z M217.21,238.62c-1.12,1.02-2.3,1.98-3.42,3.01
			c-0.56,0.51-1.06,1.09-1.53,1.68c-0.96,1.21-1.01,2.41-0.12,3.71c0.73-0.39,1.46-0.83,2.23-1.15c0.29-0.12,0.69,0.04,1.04,0.08
			c-0.05,0.35,0.02,0.83-0.18,1.01c-1.24,1.1-2.5,2.19-3.84,3.16c-1.05,0.76-2.19,0.41-2.92-0.68c-0.73-1.09-0.71-2.27-0.29-3.42
			c0.3-0.82,0.72-1.68,1.32-2.31c2.26-2.37,4.45-4.81,7.12-6.75c0.55-0.4,1.1-0.75,1.95-0.43
			C218.66,237.64,217.82,238.06,217.21,238.62z"/>
		<path class="st0" d="M110.79,50.93c1.18-0.69,2.28-1.54,3.32-2.42c2.78-2.37,5.48-4.84,8.27-7.21c4.04-3.42,8.43-6.17,13.85-6.84
			c1.72-0.21,3.38-0.27,5,0.55c1.15,0.59,1.36,0.8,1.19,2.09c-0.17,1.32-0.34,2.64-0.56,3.96c-0.65,3.98-0.44,7.87,1.18,11.62
			c0.66,1.51,1.36,3.01,3.07,3.93c0-0.37,0.04-0.59-0.01-0.8c-0.59-2.77-0.56-5.58-0.48-8.39c0.08-2.58,0.96-4.93,2.06-7.2
			c1.43-2.94,3.52-5.4,6.05-7.46c2.76-2.25,5.88-3.49,9.47-3.08c2.03,0.23,4.03,0.67,6.04,1.01c0.56,0.09,1.13,0.16,1.69,0.22
			c0.64,0.07,1.12-0.2,1.38-0.79c1.33-2.99,2.65-5.99,3.98-8.99c1.25-2.82,2.53-5.64,3.77-8.46c0.66-1.51,1.29-3.03,2.04-4.8
			c-0.64,0-0.96,0-1.29,0c-8.28,0.03-16.56,0.03-24.84,0.1c-4.28,0.03-8.56,0.08-12.84,0.3c-6.27,0.32-12.53,0.77-18.79,1.24
			c-3.22,0.24-6.44,0.61-9.65,0.98c-2.08,0.24-4.13,0.67-6.21,0.87c-2.02,0.2-3.94,0.84-5.7,1.71c-3.2,1.58-5.56,4.09-6.82,7.51
			c-1.44,3.9-1.2,7.83-0.34,11.8c0.18,0.84,0.42,1.51,1.37,1.61c0,0.25,0.04,0.4-0.01,0.52c-0.53,1.19-0.3,2.3,0.22,3.43
			c0.42,0.9,0.69,1.87,1.07,2.79c0.31,0.75,0.68,1.47,1.02,2.2c0.32-0.44,0.39-0.81,0.5-1.16c0.56-1.86,1.03-3.76,1.73-5.57
			c1.67-4.32,4.25-8.16,6.72-12.04c0.32-0.51,0.98-0.91,1.57-1.1c0.71-0.24,1.12,0.2,0.96,0.94c-0.11,0.5-0.36,0.98-0.61,1.42
			c-2.46,4.29-4.97,8.54-5.95,13.5c-0.6,3.03-0.93,6.07-0.17,9.06C105.03,51.84,107.93,52.61,110.79,50.93z M156.52,19.81
			c-0.56,0.76-1.2,1.47-1.79,2.21c-0.47,0.59-0.96,1.18-1.38,1.8c-0.48,0.71-0.41,1.4,0.14,2.12c0.88-0.31,1.62-1.01,2.68-0.58
			c-0.08,0.33-0.06,0.7-0.23,0.93c-0.86,1.16-1.89,2.14-3.27,2.67c-1.38,0.53-2.54-0.14-2.66-1.6c-0.06-0.73,0-1.55,0.28-2.21
			c1.07-2.59,3.1-4.38,5.28-6.02c0.24-0.18,0.6-0.19,1.1-0.34C156.61,19.24,156.67,19.6,156.52,19.81z M161.9,15.91
			c1.78-1.42,3.59-2.8,5.43-4.15c0.7-0.52,1.18-0.39,1.66,0.37c0.55,0.89,1.01,1.83,1.51,2.74c0.48,0.87,0.99,1.73,1.44,2.61
			c0.24,0.46,0.41,0.96,0.56,1.46c0.2,0.61,0,1.15-0.51,1.51c-2.05,1.46-4.11,2.89-6.17,4.32c-0.1,0.07-0.27,0.04-0.62,0.09
			c-0.96-1.8-1.89-3.55-2.82-5.31c-0.29-0.54-0.57-1.09-0.85-1.64C161.1,17.04,161.15,16.5,161.9,15.91z M133.75,10.51
			c0.5-0.23,1.07-0.47,1.61-0.48c3.38-0.05,6.76-0.2,10.13-0.02c3.94,0.21,7.86,0.71,11.78,1.1c0.43,0.04,0.85,0.23,1.3,0.35
			c-0.24,0.98-0.9,0.84-1.42,0.86c-3.18,0.08-6.37,0.22-9.55,0.18c-3.76-0.05-7.51-0.25-11.26-0.43c-0.8-0.04-1.59-0.26-2.38-0.44
			c-0.2-0.04-0.49-0.26-0.49-0.41C133.45,10.99,133.57,10.6,133.75,10.51z M123.43,16.5c0.95-0.71,1.91-1.39,2.9-2.05
			c0.87-0.58,1.77-1.1,2.66-1.64c0.96-0.58,1.28-0.51,1.74,0.5c0.92,2.03,1.78,4.08,2.69,6.12c0.13,0.3,0.34,0.56,0.62,1.01
			c1.9-1.48,3.66-2.84,5.41-4.21c0.26-0.2,0.49-0.46,0.78-0.63c0.65-0.39,1.17-0.27,1.55,0.38c0.82,1.39,1.61,2.8,2.41,4.2
			c0.4,0.7,0.85,1.37,1.22,2.09c0.45,0.87,0.34,1.18-0.45,1.77c-1.64,1.22-3.26,2.45-4.9,3.66c-0.26,0.2-0.55,0.38-0.86,0.5
			c-0.91,0.35-1.4,0.17-1.89-0.69c-0.92-1.6-1.82-3.22-2.73-4.83c-0.14-0.25-0.27-0.51-0.45-0.73c-0.48-0.6-0.8-0.63-1.44-0.15
			c-0.19,0.14-0.34,0.33-0.52,0.48c-1.55,1.25-3.09,2.51-4.65,3.73c-0.52,0.41-0.95,0.32-1.27-0.31c-1.14-2.29-2.27-4.6-3.36-6.92
			C122.49,17.94,122.62,17.1,123.43,16.5z M111.42,44.7c0.84-1.37,1.61-2.81,2.59-4.08c2.71-3.54,3.24-7.51,2.54-11.75
			c-0.3-1.82-0.73-3.63-1.15-5.42c-0.35-1.51-0.11-2.82,1.01-3.93c0.96-0.95,1.43-0.89,1.92,0.4c1.08,2.9,1.91,5.87,1.85,8.13
			c-0.01,4.5-1.14,7.77-3,10.82c-1.31,2.14-2.65,4.27-3.97,6.4c-0.1,0.16-0.18,0.34-0.3,0.49c-0.37,0.48-0.88,0.63-1.38,0.32
			C110.93,45.72,111.14,45.17,111.42,44.7z"/>
		<path class="st0" d="M167.88,71.08c0.18-0.29,0.22-0.65,0.39-1.14c-2.33,0-4.46-0.01-6.6,0.01c-0.71,0.01-1.25,0.31-1.56,1.03
			c-0.57,1.3-1.22,2.57-1.81,3.86c-1.07,2.33-2.11,4.68-3.19,7c-1.74,3.75-3.51,7.48-5.27,11.23c-1.19,2.54-2.38,5.08-3.56,7.62
			c-1.52,3.27-3.04,6.54-4.55,9.82c-0.13,0.27-0.13,0.6-0.21,0.98c0.34,0.03,0.58,0.09,0.81,0.07c2.99-0.16,5.99-0.26,8.98-0.51
			c2.45-0.21,2.75-0.65,2.77-3.15c0-0.19,0.01-0.38,0-0.57c-0.12-1.94,0.58-3.67,1.56-5.26c2.05-3.3,5.23-4.73,8.97-5.01
			c1.3-0.1,2.55,0.42,3.55,1.27c1.27,1.08,2.31,2.36,2.94,3.95c0.49,1.24,1.07,2.43,1.6,3.65c0.94,2.18,1.93,4.34,2.8,6.54
			c0.49,1.24,0.56,2.57-0.33,3.67c-1.1,1.36-2.31,2.63-3.49,3.91c-0.96,1.04-2.19,1.23-3.54,1.02c-2.58-0.39-5.17-0.76-7.75-1.13
			c-0.47-0.07-0.95-0.1-1.42-0.15c-0.87-0.1-1.45,0.21-1.77,1.08c-0.18,0.48-0.5,0.91-0.83,1.31c-0.42,0.51-0.99,0.77-1.66,0.5
			c-0.6-0.25-0.56-0.83-0.57-1.35c-0.02-0.7-0.01-1.39-0.01-2.1c-0.36-0.06-0.59-0.12-0.82-0.13c-4.66-0.04-9.33-0.09-13.99-0.07
			c-0.69,0-1.41,0.25-2.05,0.53c-1.36,0.6-1.68,1.42-1.43,2.88c0.51,3.05,0.96,6.1,1.44,9.15c0.09,0.59,0.26,1.16,0.41,1.79
			c2.02-0.44,3.86-0.9,5.72-1.24c1.63-0.3,3.28-0.53,4.93-0.66c1.08-0.09,2.18,0.06,3.28,0.08c3.81,0.08,7.31,1.07,10.29,3.56
			c2.61,2.19,4.28,4.91,4.83,8.3c0.17,1.08,0.33,2.17,0.58,3.23c0.16,0.67,0.47,1.31,0.83,2.3c1.16-0.79,2.06-1.38,2.93-2.01
			c1.69-1.23,3.35-2.51,5.34-3.25c2.53-0.94,5.08-1.83,7.62-2.75c1.1-0.4,1.36-0.87,0.95-1.94c-0.36-0.93-0.82-1.82-1.26-2.71
			c-1.72-3.55-3.42-7.12-5.18-10.65c-0.95-1.91-1.3-3.87-0.83-5.94c0.79-3.44,2.43-6.37,5.27-8.55c2.58-1.97,5.44-2.3,8.51-1.46
			c2.14,0.58,4,1.73,5.9,2.79c1.95,1.09,3.89,2.18,5.84,3.26c3.15,1.76,6.3,3.52,9.46,5.27c0.4,0.22,0.79,0.43,1.36,0.74
			c1.18-4.12,2.3-8.06,3.43-12c-0.96,0.18-1.68,0.5-2.37,0.88c-3.16,1.74-6.57,2.19-10.09,1.9c-1.89-0.16-3.77-0.55-5.42-1.62
			c-1.74-1.13-3.14-2.55-4.12-4.43c-1.56-2.99-1.62-7.3-0.01-10.29c0.22-0.4,0.37-0.84,0.65-1.49c-0.7,0.09-1.15,0.13-1.6,0.21
			c-2.75,0.52-5.5,1.02-8.24,1.59c-2.93,0.61-5.86,1.35-8.88,1.17c-4.55-0.28-8.61-1.75-11.87-5.13
			c-4.04-4.19-4.36-10.75-1.41-15.59C165.35,75,166.64,73.06,167.88,71.08z M157.72,92.38c0.04,1.16-0.86,2.39-1.91,2.69
			c-0.32,0.09-0.65,0.14-0.98,0.17c-1.97,0.18-2.86-0.96-2.12-2.82c0.69-1.74,1.83-3.19,3.18-4.47c0.76-0.71,1.53-1.41,2.34-2.06
			c0.33-0.27,0.78-0.38,1.18-0.56c0.11,0.12,0.22,0.24,0.33,0.36c-1.04,2.17-2.79,3.9-4.09,6.04
			C156.43,91.98,157.09,92.19,157.72,92.38z M176.69,133.34c-0.57,0.56-1.11,1.18-1.77,1.61c-1.26,0.83-2.6,1.56-3.91,2.31
			c-0.28,0.16-0.62,0.22-0.89,0.31c-0.88-0.04-1.33-0.58-1.67-1.23c-0.5-0.97-0.98-1.95-1.46-2.94c-0.39-0.81-0.77-1.62-1.17-2.43
			c-0.58-1.2-0.39-1.74,0.78-2.42c1.8-1.05,3.56-2.16,5.37-3.19c1.21-0.68,1.49-0.54,2.07,0.67c0.91,1.93,1.81,3.87,2.79,5.77
			C177.15,132.42,177.15,132.89,176.69,133.34z"/>
		<path class="st0" d="M170.53,162.96c-2.28-0.18-4.4-0.78-6.13-2.35c-0.52-0.47-0.92-1.08-1.37-1.63c-0.59-0.7-0.97-0.75-1.68-0.19
			c-0.22,0.17-0.44,0.37-0.61,0.6c-1.71,2.16-3.5,4.26-5.09,6.5c-2.16,3.03-3.75,6.38-4.91,9.93c-1.22,3.72-1.73,7.49-1.1,11.39
			c0.45,2.81,1.56,5.36,2.97,7.8c2.22,3.84,5.22,6.84,9.09,9.01c3.73,2.09,7.8,2.99,11.96,3.45c4.02,0.44,8.04,0.34,12.07-0.37
			c4.1-0.72,8.05-1.82,11.85-3.47c1.87-0.81,3.66-1.81,5.52-2.65c4.22-1.9,6.28-5.77,5.47-10.83c-1.4,0.48-2.7,0.91-3.99,1.35
			c-4.39,1.51-8.77,3.07-13.18,4.53c-3.24,1.07-6.55,1.94-9.96,2.32c-3.46,0.39-6.92,0.58-10.37-0.09c-1.66-0.32-3.2-0.92-4.61-1.8
			c-4.38-2.73-6.33-6.87-6.4-11.88c-0.07-4.78,1.66-9.07,4.47-12.84c1.83-2.47,4.04-4.65,6.08-6.97c0.45-0.51,0.87-1.06,1.33-1.62
			c-0.23-0.09-0.31-0.15-0.4-0.16C171.2,162.96,170.86,162.99,170.53,162.96z"/>
		<path class="st0" d="M119.94,84.17c0.55-0.89,0.96-1.82,1.61-2.53c1.15-1.26,2.44-2.39,3.68-3.56c0.48-0.45,1-0.72,1.67-0.18
			c-0.48,1.41-1.11,2.64-2.52,3.29c-1.04,0.48-1.56,1.35-1.81,2.42c-0.17,0.72,0.13,1.07,0.88,1.05c0.45-0.01,0.9-0.07,1.36-0.11
			c0,1.48-0.05,1.61-0.87,2.25c-0.34,0.26-0.71,0.48-1.05,0.73c-0.84,0.62-0.89,0.85-0.43,1.79c0.81,1.66,1.59,3.34,2.43,4.99
			c0.47,0.91,1.02,1.78,1.69,2.93c0.2-0.71,0.37-1.14,0.44-1.58c0.22-1.41,0.38-2.83,0.59-4.24c0.55-3.64,1.84-7.07,3-10.53
			c0.87-2.61,1.83-5.19,2.73-7.78c0.69-1.99,1.52-3.86,3.26-5.22c0.82-0.64,1.51-1.44,2.25-2.19c0.29-0.29,0.54-0.63,0.83-0.97
			c-0.2-0.32-0.26-0.45-0.36-0.56c-2.41-2.6-3.7-5.72-4.15-9.19c-0.4-3.09-0.24-6.17,0.34-9.23c0.15-0.79,0.16-1.61,0.14-2.41
			c-0.02-0.68-0.43-1.27-1.13-1.26c-1.46,0.03-2.98,0-4.37,0.38c-2.3,0.63-4.3,1.97-6.17,3.44c-2.87,2.26-5.78,4.47-8.58,6.81
			c-2.01,1.68-4,3.36-6.24,4.72c-0.67,0.41-1.32,0.86-2.04,1.33c2.35,4.67,4.63,9.23,7.02,14c0.21-0.48,0.33-0.71,0.41-0.96
			c0.74-2.1,1.41-4.23,2.23-6.3c0.46-1.18,1.1-2.3,1.75-3.39c1.18-1.98,3.13-3.15,4.91-4.49c0.33-0.25,0.83-0.29,1.42-0.47
			c0,0.6,0.05,0.98-0.01,1.33c-0.14,0.84-0.31,1.68-0.5,2.51c-0.89,3.95-1.94,7.84-3.69,11.51c-0.78,1.63-1.56,3.26-2.46,4.83
			c-0.69,1.2-0.72,2.29-0.05,3.48c0.46,0.82,0.8,1.72,1.22,2.57C119.55,83.66,119.76,83.91,119.94,84.17z M122.48,53.52
			c-0.01-0.82,0.2-1.7,0.52-2.46c0.48-1.13,1.14-2.19,1.76-3.25c0.41-0.69,0.88-0.82,1.41-0.52c0.52,0.3,0.64,0.77,0.28,1.48
			c-0.43,0.84-0.92,1.66-1.38,2.49c-0.5,0.9-0.48,1.59,0.06,1.91c0.64,0.39,1.28,0.13,1.81-0.84c0.68-1.25,1.33-2.52,1.92-3.81
			c0.27-0.59,0.63-0.84,1.21-0.67c0.68,0.2,0.66,0.77,0.48,1.29c-0.24,0.67-0.61,1.29-0.85,1.96c-0.27,0.75-0.51,1.52-0.65,2.31
			c-0.12,0.63,0.19,1.09,1.02,1.21c0.27-0.96,0.52-1.92,0.81-2.86c0.14-0.45,0.31-0.9,0.53-1.31c0.25-0.44,0.66-0.73,1.19-0.54
			c0.55,0.2,0.63,0.72,0.54,1.19c-0.12,0.65-0.32,1.29-0.55,1.91c-0.28,0.75-0.59,1.5-0.96,2.21c-0.28,0.54-0.63,1.06-1.04,1.51
			c-0.78,0.85-1.95,0.84-2.77,0.03c-0.2-0.2-0.35-0.45-0.53-0.67c-0.44-0.52-0.96-0.77-1.63-0.44c-0.04,0.02-0.09,0.03-0.13,0.05
			C123.33,56.69,122.5,55.51,122.48,53.52z"/>
		<path class="st0" d="M181.06,160.29c-1.85,0.4-3.16,1.37-4.48,2.25c-3.11,2.08-5.73,4.68-7.71,7.88
			c-1.25,2.03-2.28,4.16-2.66,6.54c-0.81,5.1,1.58,9.16,6.11,11.45c2.71,1.37,5.67,1.79,8.71,1.72c3.59-0.09,7.06-0.95,10.5-1.78
			c4.51-1.09,8.97-2.43,13.44-3.69c0.72-0.2,1.41-0.5,2.21-0.79c-0.14-0.33-0.16-0.49-0.25-0.59c-2.41-2.49-4.79-5.01-7.26-7.43
			c-2.33-2.29-4.36-4.67-4.06-8.25c0.03-0.37-0.17-0.76-0.32-1.4c-1.48,1.57-2.97,2.59-4.66,3.38c-2.08,0.98-4.2,1.08-6.39,0.79
			c-0.27-0.04-0.54-0.17-0.79-0.31c-2.96-1.66-4.1-4.85-2.92-8.07C180.72,161.48,180.85,160.95,181.06,160.29z M187.26,182.95
			c0.23,0.07,0.52,0.32,0.55,0.52c0.02,0.21-0.23,0.45-0.39,0.67c-0.05,0.07-0.17,0.09-0.26,0.11c-3.54,0.62-6.99,0.64-10.11-1.49
			c-0.74-0.5-1.32-1.22-1.02-2.17c0.35-1.1,0.71-2.28,2.03-2.65c0.21-0.06,0.44,0.01,0.57,0.18c0.02,0.03,0.03,0.05,0.04,0.08
			c0.23,2.06,1.72,2.81,3.43,3.31C183.81,182,185.54,182.44,187.26,182.95z M181.17,171.68c1.28-0.19,2.43,0.31,3.45,1.04
			c1.01,0.72,1.07,2.74-0.32,3.32c-1.3,0.55-2.54,1.25-3.81,1.89c-0.13,0.06-0.27,0.19-0.38,0.16c-0.06-0.02-0.13-0.03-0.19-0.06
			c-0.4-0.14-0.57-0.63-0.3-0.96c0.03-0.04,0.06-0.07,0.1-0.09c0.3-0.21,0.71-0.26,1.07-0.35c0.64-0.16,1.12-0.5,1.36-1.34
			c-0.79-0.45-1.53-0.84-2.24-1.29c-0.75-0.47-0.85-0.99-0.2-1.59C180.09,172.05,180.65,171.75,181.17,171.68z"/>
		<path class="st0" d="M214.67,177.76c0.36,0.66,0.63,1.38,1.01,2.03c0.11,0.18,0.49,0.35,0.69,0.3c0.2-0.05,0.37-0.37,0.46-0.61
			c0.06-0.15-0.05-0.37-0.09-0.55c-0.58-2.93-1.18-5.86-1.75-8.79c-0.19-0.97-0.76-1.62-1.54-2.12c-0.48-0.31-1.01-0.54-1.47-0.87
			c-0.26-0.19-0.43-0.51-0.75-0.92c0.64-0.2,1.04-0.32,1.43-0.45c1.26-0.41,1.35-0.55,1.18-1.82c-0.38-2.83-0.77-5.65-1.12-8.48
			c-0.1-0.78-0.51-1.21-1.26-1.31c-0.42-0.06-0.85-0.07-1.28-0.07c-2.52-0.01-5.05,0.02-7.57-0.02c-2.33-0.04-4.66-0.14-6.99-0.24
			c-0.46-0.02-1.01,0.02-1.13-0.62c-0.11-0.6,0.4-0.78,0.76-1.08c1.43-1.22,3.11-1.19,4.86-1.13c3.66,0.12,7.32,0.12,10.98,0.17
			c0.72,0.01,1.02-0.33,1.01-1.05c-0.02-1.33,0.02-2.67,0-4c-0.02-1.12-0.31-1.41-1.44-1.47c-0.33-0.02-0.67,0-1,0.02
			c-4.47,0.16-8.94,0.34-13.41,0.48c-3.18,0.11-3.16,0.1-4.37,3.14c-0.42,1.06-0.95,2.07-1.44,3.1c-0.22,0.46-0.59,0.89-1.09,0.71
			c-0.37-0.14-0.7-0.58-0.9-0.96c-0.18-0.37-0.18-0.83-0.23-1.26c-0.08-0.61-0.12-1.23-0.23-1.84c-0.26-1.42-0.63-1.77-2.02-1.53
			c-1.82,0.32-3.67,0.61-5.39,1.22c-2.94,1.05-5.8,2.34-8.69,3.54c-0.56,0.23-1.1,0.51-1.83,0.84c0.91,1.17,1.69,2.18,2.89,2.57
			c1.44,0.47,2.93,0.78,4.42,1.04c1.59,0.28,3.13-0.17,4.61-0.66c1.98-0.66,3.92-1.44,5.88-2.16c0.31-0.11,0.64-0.28,0.95-0.26
			c0.34,0.02,0.83,0.13,0.96,0.36c0.11,0.2-0.11,0.7-0.32,0.95c-0.3,0.36-0.72,0.61-1.1,0.9c-1.08,0.8-1.57,1.86-1.49,3.2
			c0.21,3.65,3.97,5.97,7.49,4.65c1.63-0.61,3-1.61,4.37-2.64c0.68-0.51,1.38-1.04,2.15-1.38c0.41-0.18,1.04-0.1,1.46,0.09
			c0.18,0.08,0.23,0.8,0.11,1.15c-0.8,2.32,0.03,4.28,1.27,6.16c1.3,1.99,3.28,3.28,5.05,4.76
			C211.15,172.83,213.19,175.05,214.67,177.76z"/>
		<path class="st0" d="M181.13,248.19c4.72,0.89,9.53,1.11,14.33,1.14c1.74,0.01,2.41-0.9,2.16-2.66c-0.41-2.92-1.04-5.78-1.7-8.65
			c-1.55-6.81-6.8-9.49-12.83-8.54c-2.75,0.43-5.48,1.13-8.13,1.99c-3.15,1.02-6.21,2.32-9.3,3.55c-0.83,0.33-1.59,0.81-2.52,1.3
			c0.33,0.54,0.55,1.07,0.92,1.48c1.2,1.34,2.38,2.69,3.68,3.92C171.5,245.29,176.11,247.25,181.13,248.19z"/>
		<path class="st0" d="M140.58,99.47c1.64-3.58,3.31-7.15,4.96-10.73c2.28-4.96,4.56-9.92,6.83-14.89c0.59-1.28,1.14-2.58,1.79-4.06
			c-4.63-0.58-9.02-1.55-13.03-4.11c-0.07,0.58-0.13,0.9-0.14,1.22c-0.18,3.61-0.33,7.23-0.55,10.84c-0.05,0.84-0.25,1.69-0.47,2.51
			c-0.07,0.25-0.41,0.58-0.64,0.59c-0.22,0.01-0.54-0.3-0.67-0.55c-0.34-0.6-0.6-1.25-0.89-1.87c-0.09,0.01-0.18,0.03-0.27,0.04
			c-0.13,0.43-0.26,0.86-0.39,1.29c-1.25,4.14-2.25,8.33-2.85,12.62c-0.37,2.64-1.05,5.22-2.46,7.54c-0.35,0.57-0.7,1.13-1.02,1.71
			c-0.83,1.49-0.73,3.01-0.05,4.52c0.72,1.6,1.47,3.19,2.14,4.81c0.61,1.48,1.23,1.62,2.25,0.41c0.21-0.25,0.41-0.53,0.55-0.83
			c0.53-1.17,1.03-2.35,1.55-3.52C138.33,104.49,139.43,101.97,140.58,99.47z"/>
		<path class="st0" d="M195.66,138.25c5.21-0.42,10.4-1.11,15.64-1.05c0.23,0,0.46-0.07,0.67-0.1c1.11-2.52,0.63-4.5-1.61-5.95
			c-4.86-3.14-9.69-6.33-14.66-9.29c-2.6-1.55-5.45-2.68-8.22-3.92c-1.21-0.55-2.55-0.61-3.98-0.61c0.09,0.41,0.11,0.74,0.24,1.02
			c0.96,2.12,1.93,4.23,2.9,6.34c1.73,3.75,3.5,7.49,5.2,11.25C192.95,138.45,193,138.47,195.66,138.25z"/>
		<path class="st0" d="M167.49,38.33c-1.66-0.38-3.32-0.77-5-1.11c-1.63-0.33-3.26-0.71-4.91-0.88c-2.21-0.22-3.05,0.42-3.94,2.45
			c-0.82,1.87-1,3.86-1.23,5.83c-0.58,4.98,0.44,9.63,2.96,13.96c0.64,1.09,1.57,1.75,3.01,2.05c3.39-7.23,6.68-14.52,10.08-21.95
			C168.01,38.52,167.75,38.39,167.49,38.33z"/>
		<path class="st0" d="M222.57,219.03c-0.17-2.17-0.44-4.33-0.71-6.86c-0.52,0.53-0.77,0.81-1.04,1.05
			c-1.74,1.55-2.45,1.47-3.87-0.4c-0.09-0.11-0.16-0.24-0.25-0.35c-0.76-0.89-1.52-1.77-2.17-2.52c-1.65,1.14-3.16,2.19-4.69,3.21
			c-0.56,0.37-0.83,0.82-0.52,1.43c0.82,1.6,1.56,3.26,2.55,4.75c1.92,2.88,4.76,4.4,8.12,5c1.01,0.18,2.04,0.24,3.05,0.35
			c0.21-1.37,0.21-1.67-0.58-2.32c-0.71-0.59-0.66-1.16-0.35-1.88C222.31,220.02,222.61,219.51,222.57,219.03z"/>
		<path class="st0" d="M219,193.37c-0.43,0.41-0.75,0.69-1.04,0.99c-3.49,3.7-6.96,7.43-8.49,12.47c-0.41,1.35-0.83,2.68-0.63,4.12
			c1.11,0.21,1.95-0.17,2.71-0.8c0.95-0.79,1.88-1.6,2.85-2.36c1.62-1.26,3.35-2.32,5.45-2.62c0.32-0.05,0.63-0.15,1.1-0.26
			c-0.33-2.02-0.65-3.89-0.95-5.76C219.7,197.27,219.73,195.31,219,193.37z"/>
		<path class="st0" d="M195.71,56.38c1.8,0.51,3.24-0.15,4.25-1.54c1.11-1.52,1.99-3.2,3.09-5c-0.57-0.13-0.88-0.25-1.2-0.28
			c-2.8-0.21-5.61-0.14-8.38,0.29c-1.68,0.26-3.36,0.64-4.87,1.51c-1.11,0.64-1.26,1.55-0.31,2.4c0.59,0.52,1.32,0.96,2.06,1.19
			C192.13,55.5,193.94,55.88,195.71,56.38z"/>
		<path class="st0" d="M159.63,111.52c1.38,0.31,2.79,0.51,4.19,0.72c0.44,0.07,0.9,0.01,1.57,0.01c-0.14-0.57-0.13-0.89-0.28-1.1
			c-1.33-1.89-2.65-3.78-4.06-5.61c-0.27-0.35-0.89-0.52-1.38-0.6c-0.98-0.15-1.41,0.16-1.36,1.12c0.08,1.55,0.27,3.11,0.51,4.65
			C158.87,111.02,159.3,111.45,159.63,111.52z"/>
		<path class="st0" d="M144.7,243.68c-0.08-0.83-0.84-1.66-1.58-1.49c-1.09,0.25-2.14,0.68-3.19,1.08
			c-0.16,0.06-0.24,0.37-0.47,0.76c1.38,0.64,2.66,0.88,3.98,0.83C144.36,244.82,144.76,244.36,144.7,243.68z"/>
		<path class="st0" d="M209.95,12.69c1.12-0.71,2.26-2.57,2.51-4c-0.8,0-1.59,0-2.67,0C209.87,10.09,209.64,11.36,209.95,12.69z"/>
		<path class="st0" d="M237.94,66.18c1.39-0.27,2.72-2.22,3.14-4.65c-1.26,1.32-2.46,2.49-3.23,4
			C237.78,65.69,237.91,65.96,237.94,66.18z"/>
		<path class="st0" d="M202.33,28.38c-0.59-0.14-1.47,0.2-1.74,0.68c-0.36,0.64,0.03,1.1,0.47,1.48c0.46,0.4,0.98,0.72,1.61,1.17
			c0.3-0.5,0.51-0.82,0.68-1.15C203.93,29.43,203.57,28.67,202.33,28.38z"/>
		<path class="st0" d="M204.89,32.16c-0.84,1.36-0.71,1.77,0.6,2.19C205.9,33.13,205.87,33,204.89,32.16z"/>
		<path class="st0" d="M214.57,91.24c-0.21-0.35-0.64-0.57-0.97-0.85c-1.71,2.16-1.58,2.81,0.88,4.69c0.83-0.45,1.21-1.06,0.94-1.9
			C215.2,92.5,214.93,91.83,214.57,91.24z"/>
		<path class="st0" d="M216.79,56.39c0.32,0.8,1.52,1.38,2.55,1.1c-0.41-1.14-0.82-2.26-1.23-3.39
			C216.89,54.64,216.44,55.52,216.79,56.39z"/>
	</g>
	<g>
		<path class="st1" d="M244.83,329.42c0.02-1.64-0.67-2.97-1.68-4.08c-2.48-2.74-6.82-2.47-8.86-0.33
			c-0.28,0.29-0.58,0.55-0.97,0.91c-0.38-0.43-0.67-0.84-1.05-1.17c-0.41-0.36-0.85-0.75-1.34-0.93c-4.87-1.73-8.85,1.62-8.78,5.77
			c0.06,3.57,0.03,7.13,0,10.7c-0.01,0.81,0.18,1.43,0.93,1.81c0.18,0,0.37,0,0.55,0c0.69-0.62,0.86-1.39,0.85-2.32
			c-0.05-3.25-0.05-6.5,0-9.74c0.02-0.84,0.14-1.79,0.55-2.49c0.82-1.4,2.18-2.12,3.83-1.87c1.67,0.25,2.83,1.23,3.28,2.9
			c0.16,0.61,0.22,1.26,0.23,1.9c0.03,1.88-0.01,3.75,0.03,5.63c0.01,0.8,0.38,1.14,1.06,1.15c0.68,0.02,1.06-0.33,1.14-1.09
			c0.04-0.36,0.02-0.73,0.02-1.1c0-1.83-0.04-3.66,0.02-5.49c0.06-1.85,1.16-3.24,2.86-3.76c1.61-0.5,3.19,0.09,4.35,1.54
			c0.69,0.87,0.66,1.88,0.67,2.87c0.03,3.25,0.03,6.5,0,9.74c-0.01,0.88,0.14,1.61,0.9,2.13c0.18,0,0.37,0,0.55,0
			c0.65-0.45,0.89-1.04,0.88-1.85C244.79,336.65,244.78,333.03,244.83,329.42z"/>
		<path class="st1" d="M182.92,333.04c0.02-3.03-1.18-5.51-3.44-7.47c-2.71-2.35-5.86-2.75-9.11-1.56
			c-3.78,1.38-6.14,5.15-6.06,8.94c0.09,4.29,3.42,8.29,7.98,8.89c2.56,0.34,4.78-0.41,6.76-2.01c0.43-0.35,0.88-0.68,1.4-1.08
			c0.27,1.26-0.29,2.54,0.87,3.36c0.27,0,0.55,0,0.82,0c0.59-0.57,0.82-1.22,0.8-2.07C182.88,337.71,182.91,335.37,182.92,333.04z
			 M173.55,339.71c-2.94,0.02-6.89-2.57-6.85-6.98c0.03-4.06,3.02-6.99,6.91-6.99c4.08,0,6.96,3.19,6.93,6.82
			C180.7,336.46,177.22,339.68,173.55,339.71z"/>
		<path class="st1" d="M97.05,337.8c-1.29,1.06-2.72,1.83-4.45,1.9c-3.62,0.15-7.11-2.84-7.21-6.75c-0.06-2.2-0.02-4.39,0-6.59
			c0-0.25,0.1-0.51,0.16-0.77c0.39-0.02,0.71-0.04,1.03-0.04c2.19,0,4.39,0,6.58-0.01c0.41,0,0.83-0.01,1.21-0.13
			c0.49-0.16,0.91-0.47,0.88-1.08c-0.02-0.6-0.46-0.89-0.95-1.04c-0.34-0.11-0.72-0.08-1.09-0.08c-2.19-0.01-4.39,0-6.58-0.01
			c-0.39,0-0.78-0.06-1.26-0.1c0-1.53,0.02-2.94-0.01-4.36c-0.02-0.94-0.44-1.48-1.08-1.51c-0.68-0.04-1.17,0.56-1.25,1.52
			c-0.01,0.09,0,0.18,0,0.27c0,4.53-0.07,9.06,0.02,13.59c0.09,4.73,3.05,7.98,7.01,9.08c0.47,0.13,0.95,0.27,1.42,0.41
			c0.55,0,1.1,0,1.65,0c0.29-0.1,0.58-0.21,0.88-0.28c1.72-0.4,3.3-1.08,4.59-2.32c0.68-0.65,0.74-1.36,0.21-1.92
			C98.31,337.07,97.82,337.16,97.05,337.8z"/>
		<path class="st1" d="M315.72,337.62c-0.45-0.53-1.05-0.45-1.81,0.12c-0.69,0.52-1.4,1.04-2.17,1.4c-3.9,1.86-8.4-1.09-9.1-4.3
			c-0.2-0.93-0.37-1.89-0.4-2.83c-0.06-2.09-0.02-4.19-0.02-6.38c0.58-0.03,1.03-0.07,1.47-0.07c2.11-0.01,4.21,0.01,6.32-0.01
			c0.49-0.01,1.02-0.07,1.46-0.26c0.26-0.12,0.54-0.55,0.53-0.83c-0.01-0.34-0.24-0.81-0.53-0.98c-0.36-0.21-0.87-0.24-1.31-0.25
			c-2.15-0.02-4.3-0.01-6.45-0.01c-0.44,0-0.89-0.04-1.41-0.07c-0.03-0.54-0.06-0.99-0.07-1.43c-0.01-1.01,0.02-2.02-0.01-3.02
			c-0.03-0.9-0.47-1.42-1.15-1.43c-0.71-0.01-1.09,0.43-1.09,1.43c-0.01,4.99,0.01,9.99,0.02,14.98c0,1.89,0.88,3.43,1.99,4.85
			c1.5,1.91,3.5,3.03,5.91,3.4c0.12,0.02,0.22,0.14,0.33,0.21c0.55,0,1.1,0,1.65,0c0.3-0.09,0.59-0.21,0.9-0.27
			c1.73-0.38,3.3-1.07,4.62-2.27C316,339.04,316.15,338.13,315.72,337.62z"/>
		<path class="st1" d="M157.59,337.81c-1.24,1.07-2.65,1.79-4.31,1.88c-3.64,0.2-7.27-2.69-7.36-7.06c-0.04-2.02-0.01-4.03,0-6.05
			c0-0.31,0.07-0.61,0.13-1.03c0.51,0,0.96,0,1.41,0c2.11,0,4.21,0.01,6.32,0c1.37-0.01,1.99-0.37,2.02-1.14
			c0.03-0.83-0.59-1.2-2.08-1.2c-2.11-0.01-4.21,0-6.32,0c-0.44,0-0.89-0.04-1.49-0.07c0-1.13,0-2.17,0-3.22
			c0-0.55,0.03-1.11-0.04-1.65c-0.08-0.6-0.45-1.02-1.1-1.02c-0.59,0-0.92,0.4-1.04,0.92c-0.08,0.35-0.07,0.73-0.07,1.09
			c-0.01,1.6,0,3.21,0,4.81c0,2.93-0.08,5.87,0.03,8.8c0.14,4.06,2.15,6.9,5.92,8.44c0.84,0.34,1.73,0.53,2.6,0.8
			c0.46,0,0.92,0,1.37,0c0.3-0.09,0.59-0.2,0.9-0.27c1.78-0.38,3.39-1.1,4.72-2.35c0.7-0.66,0.74-1.36,0.18-1.92
			C158.86,337.07,158.34,337.16,157.59,337.81z"/>
		<path class="st1" d="M286.4,323.51c-2.88-0.51-5.56,0.03-7.81,1.99c-2.23,1.94-3.27,4.44-3.26,7.39c0.01,2.33,0.04,4.67-0.02,7
			c-0.02,0.88,0.2,1.6,0.78,2.23c0.27,0,0.55,0,0.82,0c0.57-0.7,0.78-1.47,0.76-2.39c-0.05-2.56-0.12-5.13,0.02-7.68
			c0.27-4.9,5.29-7.4,9.05-6.08c3.08,1.08,4.74,3.83,4.77,6.67c0.02,2.42,0.04,4.85-0.01,7.27c-0.02,0.88,0.19,1.6,0.8,2.22
			c0.18,0,0.37,0,0.55,0c0.59-0.42,0.96-0.92,0.95-1.7c-0.04-2.83,0.02-5.67-0.07-8.5C293.59,327.82,290.52,324.23,286.4,323.51z"/>
		<path class="st1" d="M76.45,329.46c-0.85-2.2-2.23-3.95-4.37-5.07c-2.61-1.36-5.35-1.5-7.94-0.35c-3.65,1.61-5.61,4.57-5.65,8.65
			c-0.03,2.47,0.03,4.94-0.03,7.42c-0.02,0.86,0.22,1.5,0.88,2.01c0.18,0,0.37,0,0.55,0c0.69-0.42,0.91-1.02,0.89-1.84
			c-0.05-2.47,0.04-4.94-0.03-7.4c-0.09-3.17,2.06-6.26,5.48-7.1c2.25-0.56,5.45,0.5,6.96,2.48c1.1,1.44,1.45,3.03,1.47,4.74
			c0.03,2.38,0.04,4.75-0.01,7.13c-0.02,0.86,0.21,1.5,0.9,1.99c0.18,0,0.37,0,0.55,0c0.51-0.41,0.86-0.85,0.84-1.6
			c-0.05-2.97-0.01-5.95-0.07-8.93C76.86,330.87,76.71,330.12,76.45,329.46z"/>
		<path class="st1" d="M215.91,332.37c-0.05-4.28-3.13-8.08-7.33-8.85c-2.89-0.53-5.59-0.01-7.83,1.93
			c-2.13,1.84-3.28,4.22-3.25,7.11c0.02,2.51,0.03,5.03-0.01,7.54c-0.02,0.85,0.17,1.52,0.88,2.02c0.18,0,0.37,0,0.55,0
			c0.65-0.53,0.87-1.2,0.85-2.04c-0.05-2.56-0.06-5.12,0-7.68c0.07-2.83,1.91-5.35,4.61-6.36c2.51-0.94,5.79-0.04,7.42,1.8
			c1.3,1.47,1.88,3.22,1.89,5.16c0.02,2.42,0.03,4.85-0.01,7.27c-0.01,0.8,0.21,1.43,0.89,1.86c0.18,0,0.37,0,0.55,0
			c0.65-0.59,0.84-1.32,0.83-2.2C215.88,337.4,215.94,334.88,215.91,332.37z"/>
		<path class="st1" d="M137.14,323.37c-0.18-0.01-0.36,0.01-0.55,0.01c-4.79,0.11-8.56,4.72-8.53,8.75c0.01,2.7,0.03,5.39-0.02,8.09
			c-0.02,0.8,0.22,1.4,0.81,1.9c0.18,0,0.37,0,0.55,0c0.82-0.51,1.07-1.24,1.05-2.2c-0.05-2.47,0.01-4.94-0.02-7.4
			c-0.05-2.88,1.73-5.49,4.44-6.41c0.77-0.26,1.59-0.36,2.39-0.52c0.82-0.17,1.25-0.62,1.19-1.25
			C138.38,323.76,137.93,323.42,137.14,323.37z"/>
		<path class="st1" d="M191.27,325.16c0-0.27-0.01-0.55-0.02-0.82c-0.03-0.6-0.35-0.93-0.94-0.96c-0.61-0.02-1.09,0.23-1.22,0.86
			c-0.08,0.35-0.05,0.73-0.05,1.1c0,4.86,0.02,9.71-0.02,14.57c-0.01,0.89,0.21,1.59,0.82,2.2c0.18,0,0.37,0,0.55,0
			c0.87-0.4,0.9-1.16,0.9-1.97C191.27,335.15,191.27,330.16,191.27,325.16z"/>
		<path class="st1" d="M297.43,292.89c-0.61-0.31-1.23-0.61-1.88-0.8c-1.27-0.37-2.57-0.64-3.85-0.97c-4.04-1.06-8.12-1.8-12.31-1.9
			c-0.58-0.01-1.16-0.09-1.86-0.15c0-0.8,0.08-1.5-0.02-2.16c-0.27-1.85,0.2-3.24,1.96-4.18c0.6-0.32,1.07-0.57,1.75-0.44
			c2.11,0.42,4.22,0.8,6.34,1.17c0.6,0.1,1.23,0.08,1.8,0.12c0.32-0.92-0.07-1.39-0.66-1.59c-1.34-0.44-2.7-0.82-4.06-1.15
			c-0.83-0.2-1.68-0.26-2.71-0.42c0.4-0.64,0.7-1.14,1.01-1.63c2.36-3.69,2.6-7.64,1.32-11.73c-0.6-1.9-1.35-2.1-2.97-0.89
			c-0.07,0.05-0.13,0.13-0.2,0.19c-1.92,1.75-3.16,3.96-3.76,6.42c-0.48,1.98-0.48,4.08-0.69,6.12c-0.04,0.35-0.05,0.7-0.07,1.13
			c-1.08,0.07-2.09,0.11-3.09,0.19c-2.51,0.21-5.01,0.45-7.43,1.18c-3.8,1.13-7.2,2.86-9.55,6.24c-1.58,2.28-2.43,4.82-2.54,7.57
			c-0.03,0.84,0.29,1.7,0.52,2.53c0.16,0.55,0.7,0.8,1.2,0.69c0.31-0.07,0.66-0.5,0.74-0.83c0.23-0.93,0.36-1.89,0.49-2.84
			c0.65-4.69,2.96-8.15,7.3-10.22c1.76-0.84,3.6-1.34,5.46-1.77c1.02-0.23,2.06-0.34,3.09-0.5c-0.86,0.98-1.77,1.73-2.67,2.49
			c-2.76,2.34-4.39,5.22-4.22,8.95c0.03,0.58-0.11,1.05-0.46,1.52c-0.6,0.8-1.16,1.65-1.65,2.52c-1.37,2.48-2.64,5.01-4.05,7.46
			c-1.43,2.47-3.49,4.21-6.32,4.89c-3.08,0.73-5.89-0.1-8.55-1.61c-2.36-1.34-4.37-3.15-6.2-5.13c-1.61-1.74-3.06-3.62-4.2-5.61
			c1.04-1.6,2.01-3.15,3.03-4.66c3.07-4.57,2.03-9.99-1.05-13.62c-2.55-3.01-5.89-4.39-9.86-4.1c-4.45,0.32-7.65,2.61-9.65,6.49
			c-1.68,3.26-1.81,6.65-0.2,10.06c1.46,3.09,3.73,5.26,6.96,6.4c2.03,0.72,4.1,0.86,6.22,0.46c0.71-0.14,1.44-0.18,2.18-0.27
			c0.87,1.16,1.66,2.34,2.57,3.42c2.31,2.77,4.75,5.42,7.65,7.61c3.08,2.31,6.35,3.88,10.38,3.5c3.58-0.35,6.43-1.88,8.63-4.69
			c1.67-2.14,2.78-4.59,3.85-7.07c0.46-1.07,1.05-2.09,1.7-3.36c1.03,1.95,2.31,3.37,4.04,4.29c1.75,0.94,3.66,1.38,5.73,1.2
			c0,2.32,0.25,4.49-0.05,6.59c-0.59,4.07-4.96,4.61-7.03,3.08c-0.24-0.18-0.39-0.48-0.69-0.86c0.66-0.08,1.1-0.04,1.46-0.19
			c0.61-0.27,1.3-0.54,1.7-1.03c0.91-1.08,0.72-2.56-0.29-3.61c-0.91-0.94-2.36-1.07-3.53-0.32c-1.8,1.16-2.27,3.37-1.06,5.16
			c0.83,1.23,1.94,2.04,3.43,2.3c3.45,0.6,6.63-0.63,7.01-4.89c0.08-0.86,0.07-1.74,0.08-2.61c0.01-1.27,0-2.55,0-3.77
			c5.32-1.68,7.89-5.66,5.33-11.52c0.69,0.05,1.34,0.02,1.95,0.14c2.95,0.6,5.9,1.24,8.85,1.87c1.03,0.22,2.06,0.44,3.08,0.67
			c0.48,0.11,0.97,0.14,1.16-0.39C298.21,293.49,297.85,293.11,297.43,292.89z M280.16,271.08c0.47-0.56,1.2-1,1.9-1.23
			c1.16-0.39,1.93,0.27,1.99,1.5c0.06,1.36-0.56,2.46-1.27,3.54c-1.27,1.94-3.02,3.33-5.23,4.61
			C277.41,276.15,278.19,273.4,280.16,271.08z M227.37,296.75c-1.15-0.06-2.17-1.14-2.13-2.28c0.04-1.19,1.06-2.15,2.26-2.11
			c1.18,0.04,2.17,1.08,2.13,2.25C229.59,295.74,228.47,296.81,227.37,296.75z M231.95,295.45c-0.61-3.86-1.86-5.32-4.56-5.31
			c-2.62,0.01-3.87,1.49-4.48,5.29c-3.04-1.22-5.82-5.13-4.78-10.41c0.77-3.91,4.15-7.39,9.11-7.47c4.96-0.08,8.62,3.12,9.5,7.34
			C237.77,289.8,235.62,293.73,231.95,295.45z M276.6,302.31c-1.21,0.35-2.4,0.1-3.5-0.23c-2.13-0.63-3.83-1.92-4.93-3.91
			c-0.71-1.28-0.63-1.69,0.33-2.79c0.79-0.91,1.66-1.66,2.98-2.29c-0.46,2.01-0.27,3.76,0.91,5.28c0.49,0.62,1,1.3,2.2,1.4
			c-1.04-1.19-2.21-2.14-1.91-3.71c0.17-0.9,0.54-1.71,1.27-2.36c0.76-0.67,1.57-1.06,2.66-1.07
			C276.6,295.85,276.6,299.03,276.6,302.31z M276.63,289.18c-2.82,0.65-5.69,1.12-8.17,2.97c0.28-2.42,5.13-6.09,8.17-7.3
			C276.63,286.34,276.63,287.7,276.63,289.18z M277.69,302.19c0-3.15,0-6.28,0-9.48c2.44,0.35,3.87,1.95,3.96,4.34
			C281.74,299.53,280.15,301.66,277.69,302.19z"/>
		<path class="st1" d="M203.2,298.65c0.54,0.47,1.08,0.45,1.46,0.05c0.42-0.45,0.44-1.09,0.02-1.62c-0.17-0.21-0.4-0.38-0.59-0.57
			c-1.23-1.28-2.45-2.56-3.72-3.89c0.29-0.07,0.63-0.17,0.97-0.25c1.5-0.31,2.88-0.87,4.05-1.88c2.44-2.1,3.58-4.78,3.05-7.95
			c-0.55-3.32-2.51-5.82-5.68-6.84c-6.27-2-11.35,2.48-11.48,8c-0.1,4.49-0.02,8.98-0.02,13.47c0,0.23-0.01,0.46,0.01,0.69
			c0.06,0.63,0.39,1.02,1.03,1.09c0.65,0.07,1.05-0.3,1.23-0.88c0.1-0.34,0.08-0.72,0.09-1.09c0.01-2.06,0-4.12,0.01-6.19
			c0-0.33,0.07-0.66,0.13-1.16c2.37,2.29,4.6,4.44,6.83,6.59C201.44,297.06,202.3,297.88,203.2,298.65z M199.89,290.19
			c-2.91,0.32-6.39-2.77-6.33-6.35c0.05-3.34,2.85-6.43,6.36-6.38c3.49,0.05,6.3,2.73,6.35,6.4
			C206.31,287.66,202.86,290.44,199.89,290.19z"/>
		<path class="st1" d="M121.19,328.27c-1.22-2.21-3.05-3.84-5.48-4.49c-3.64-0.98-6.85-0.05-9.5,2.72
			c-2.62,2.74-3.06,7.3-1.45,10.36c1.31,2.49,3.29,4.16,6.02,4.78c3.14,0.7,6.1,0.32,8.55-2.03c0.53-0.5,0.66-1.39,0.31-1.86
			c-0.39-0.51-1.11-0.48-1.83,0.04c-0.59,0.42-1.19,0.85-1.83,1.19c-3.94,2.07-8.94-0.51-9.64-5.17c0.6,0,1.1,0,1.59,0
			c4.03,0,8.06,0,12.09,0c0.32,0,0.64,0.02,0.96-0.01c1.06-0.09,1.42-0.55,1.37-1.62C122.3,330.78,121.85,329.47,121.19,328.27z
			 M106.49,331.4c-0.09-2.84,3.13-5.71,6.59-5.68c3.29,0.03,6.42,2.42,6.66,5.68C115.32,331.4,110.9,331.4,106.49,331.4z"/>
		<path class="st1" d="M49.76,325.98c-2.76-2.62-6.01-3.24-9.52-1.98c-2.81,1.01-4.68,3.07-5.67,5.94
			c-1.29,3.75-0.13,6.92,2.49,9.51c2.36,2.35,5.44,2.9,8.68,2.25c1.49-0.3,2.87-0.92,3.94-2.08c0.58-0.62,0.71-1.46,0.24-1.97
			c-0.4-0.43-1.04-0.39-1.72,0.11c-0.07,0.05-0.14,0.12-0.21,0.18c-2.71,2.11-5.33,2.33-8.27,0.59c-1.73-1.02-2.76-2.57-3.19-4.74
			c0.66,0,1.16,0,1.65,0c4.21,0,8.42,0.01,12.63,0c1.66,0,2.06-0.4,1.86-2.06C52.4,329.48,51.41,327.55,49.76,325.98z M36.67,331.39
			c0.67-3.66,3.64-5.69,6.85-5.66c3.35,0.04,6.29,2.58,6.6,5.66C45.67,331.39,41.22,331.39,36.67,331.39z"/>
		<path class="st1" d="M264.95,324.72c-2.52-1.61-5.22-1.71-7.88-0.72c-3.03,1.13-5.13,3.34-5.8,6.6c-0.74,3.62,0.14,6.79,3.08,9.23
			c2.35,1.96,5.07,2.41,7.98,1.92c1.65-0.27,3.14-0.95,4.27-2.27c0.57-0.67,0.59-1.34,0.08-1.83c-0.48-0.46-0.98-0.41-1.68,0.15
			c-2.84,2.3-5.63,2.54-8.71,0.58c-1.6-1.01-2.53-2.55-2.89-4.59c0.63,0,1.12,0,1.62,0c4.11,0,8.23,0,12.34,0
			c0.37,0,0.74,0.02,1.09-0.03c0.61-0.09,1-0.48,1.02-1.1c0.02-0.5-0.04-1.01-0.12-1.5C268.89,328.34,267.35,326.26,264.95,324.72z
			 M253.61,331.37c0.18-2.96,3.03-5.51,6.42-5.64c3.28-0.12,6.52,2.23,6.93,5.64C262.5,331.37,258.06,331.37,253.61,331.37z"/>
		<path class="st1" d="M66.97,294.89c1.41,0,1.46,0.06,1.97,1.38c0.3,0.76,0.64,1.51,1.02,2.23c0.27,0.5,0.76,0.71,1.28,0.43
			c0.53-0.28,0.8-0.75,0.57-1.37c-0.25-0.69-0.49-1.38-0.77-2.05c-1.14-2.74-2.3-5.47-3.42-8.22c-1.48-3.63-2.94-7.27-4.4-10.91
			c-0.24-0.59-0.55-1.08-1.25-1.1c-0.73-0.02-0.96,0.5-1.2,1.09c-1.44,3.55-2.92,7.09-4.39,10.63c-1.42,3.41-2.84,6.82-4.25,10.24
			c-0.34,0.82-0.12,1.45,0.54,1.71c0.6,0.23,1.1-0.04,1.46-0.84c0.48-1.04,0.94-2.08,1.47-3.23
			C59.48,294.88,63.22,294.88,66.97,294.89z M62.04,279.57c1.8,4.38,3.55,8.65,5.35,13.04c-3.64,0-7.09,0-10.55,0
			C56.86,291.54,60.63,282.07,62.04,279.57z"/>
		<path class="st1" d="M183.63,297.08c-1.13-2.79-2.24-5.59-3.39-8.37c-1.71-4.13-3.46-8.25-5.15-12.39
			c-0.23-0.55-0.44-1.02-1.09-1.04c-0.71-0.03-1.06,0.44-1.28,1.04c-0.06,0.17-0.14,0.34-0.21,0.51c-1.58,3.84-3.14,7.69-4.73,11.53
			c-1.08,2.61-2.2,5.22-3.28,7.83c-0.21,0.5-0.36,1.03-0.51,1.5c-0.04,0.61,0.12,1.07,0.66,1.29c0.56,0.22,1.02,0,1.26-0.51
			c0.42-0.86,0.79-1.74,1.15-2.63c0.24-0.6,0.55-0.97,1.3-0.96c3.7,0.03,7.41,0.03,11.11,0c0.68,0,0.95,0.28,1.16,0.89
			c0.32,0.9,0.75,1.77,1.18,2.62c0.3,0.6,0.84,0.8,1.36,0.56c0.59-0.26,0.79-0.73,0.64-1.35
			C183.77,297.42,183.7,297.25,183.63,297.08z M168.46,292.6c1.8-4.36,3.54-8.56,5.29-12.79c0.74,0.72,5.25,11.53,5.33,12.79
			C175.62,292.6,172.16,292.6,168.46,292.6z"/>
		<path class="st1" d="M131.1,293.94c0.91-2.38,0.34-4.51-1.36-6.33c-1.66-1.77-3.79-2.67-6.19-2.9c-1.53-0.15-2.93-0.72-4.26-1.44
			c-1.52-0.83-2.05-2.21-1.25-3.4c0.46-0.69,1.14-1.36,1.87-1.73c1.5-0.76,3.17-0.91,4.82-0.6c1.35,0.26,2.71,0.64,3.53,1.89
			c0.36,0.56,0.56,1.23,0.79,1.86c0.22,0.59,0.56,0.95,1.23,0.82c0.6-0.12,0.79-0.58,0.8-1.12c0.02-1.08-0.25-2.08-0.97-2.92
			c-1.8-2.1-4.16-2.88-7.04-2.85c-1.76-0.01-3.59,0.42-5.22,1.59c-1.98,1.42-3.07,3.82-1.88,6.08c0.41,0.77,1.1,1.45,1.78,2.02
			c1.53,1.28,3.43,1.64,5.34,1.94c2.33,0.37,4.4,1.2,5.74,3.31c0.82,1.3,0.8,2.88-0.14,4.1c-1.74,2.25-4.08,2.96-6.81,2.58
			c-2.76-0.38-4.43-1.98-5-4.69c-0.03-0.13-0.03-0.27-0.07-0.41c-0.14-0.56-0.51-0.85-1.09-0.83c-0.57,0.02-1.03,0.46-0.98,1.1
			c0.06,0.72,0.17,1.47,0.45,2.13c1.38,3.23,4.64,5.15,8.45,4.87C127.05,298.75,129.79,297.34,131.1,293.94z"/>
		<path class="st1" d="M154.14,290.15c0,2.29,0,4.58,0.01,6.87c0,0.37-0.02,0.74,0.05,1.09c0.13,0.59,0.64,0.94,1.21,0.88
			c0.59-0.06,0.89-0.42,0.92-1c0.02-0.32,0.02-0.64,0.02-0.96c0-6.59,0-13.19,0-19.78c0-0.32,0.01-0.64-0.02-0.96
			c-0.07-0.69-0.4-1.01-1.03-1.01c-0.61,0-1.04,0.34-1.13,0.96c-0.05,0.31-0.03,0.64-0.03,0.96c0,2.75,0,5.49,0,8.24
			c0,0.44-0.04,0.89-0.07,1.36c-4.24,0-8.38,0-12.63,0c0-1.96,0-3.83,0-5.7c0-1.6,0.02-3.21-0.02-4.81
			c-0.02-0.66-0.42-0.99-1.05-1.01c-0.62-0.02-1.04,0.31-1.14,0.93c-0.05,0.31-0.04,0.64-0.04,0.96c0,6.64,0,13.28,0,19.92
			c0,0.41,0,0.84,0.12,1.22c0.14,0.49,0.56,0.71,1.07,0.69c0.51-0.02,0.89-0.28,1-0.78c0.08-0.35,0.06-0.73,0.06-1.09
			c0-2.24,0-4.49,0.01-6.73c0-0.39,0.06-0.78,0.1-1.22c4.21,0,8.3,0,12.52,0C154.1,289.61,154.14,289.88,154.14,290.15z"/>
		<path class="st1" d="M86.45,298.04c0.08-0.73-0.3-1.07-1.28-1.24c-0.57-0.1-1.18-0.22-1.67-0.5c-1.36-0.76-1.93-2.02-1.94-3.54
			c-0.02-2.66-0.01-5.31-0.01-7.97c0,0,0,0,0,0c0-1.92,0-3.85,0-5.77c0-0.92,0.02-1.83-0.02-2.75c-0.03-0.64-0.42-0.99-1.07-1.01
			c-0.64-0.02-0.98,0.29-1.07,0.98c-0.04,0.36-0.02,0.73-0.02,1.1c0,4.03,0,8.06,0,12.09c0,1.24-0.04,2.47,0.01,3.71
			c0.13,3.29,2.47,5.75,5.55,5.86C85.93,299.04,86.37,298.77,86.45,298.04z"/>
		<path class="st1" d="M106.21,288.62c0.58-0.18,0.95-0.59,0.89-1.22c-0.06-0.61-0.42-1.01-1.06-1.06
			c-0.32-0.03-0.64-0.02-0.96-0.02c-1.6,0-3.2,0-4.81,0c-1.6,0-3.2,0-4.81,0c-0.27,0-0.55-0.02-0.82,0.02
			c-0.71,0.09-1.16,0.52-1.19,1.11c-0.03,0.57,0.41,1.07,1.1,1.21c0.27,0.05,0.55,0.05,0.82,0.05c3.3,0,6.59,0,9.89,0
			C105.58,288.69,105.92,288.71,106.21,288.62z"/>
		<path class="st1" d="M190.22,317.61c-0.87,0-1.61,0.73-1.58,1.55c0.03,0.76,0.75,1.48,1.51,1.51c0.81,0.04,1.56-0.73,1.56-1.58
			C191.71,318.3,191.01,317.6,190.22,317.61z"/>
	</g>
</g>
</svg>
