<?xml version="1.0" encoding="utf-8"?>
<!-- Generator: Adobe Illustrator 26.0.1, SVG Export Plug-In . SVG Version: 6.00 Build 0)  -->
<svg version="1.1" id="Layer_1" xmlns="http://www.w3.org/2000/svg" xmlns:xlink="http://www.w3.org/1999/xlink" x="0px" y="0px"
	 viewBox="0 0 350 350" style="enable-background:new 0 0 350 350;" xml:space="preserve">
<style type="text/css">
	.st0{fill:#1A222A;}
	.st1{clip-path:url(#SVGID_00000175289628945837169180000012983346522576135059_);fill:#1A222A;}
</style>
<g>
	<path class="st0" d="M248.56,189.62v-19.9l-21.14-14.92v-41.63l-16.44-12.69V8.26l-78.67,45.15v68.26l-23.24,15.87l-0.31,26.9
		l-7.32,5.15v50.77h30.24v38.67h-15.4v-22.69h-14.83v37.59h45.45v-68.58H116.4v-28.27l15.15-10.27l0.06,22.06h14.96v-51.03
		l-27.12,19.08v-13.02l52.58-35.57v11.77l-19.88,13.68v140.15h15.28l0.13-42.91l7.23-5.45l7.67,5.45v42.91h14.96v-50.9l-8.81-6.97
		l8.81-5.9v-76.32l-14.99-10.47V89.91l-0.06,0.04l-7.31,4.4l-6.36,4.2V77.19l32.74,25.74l9.56,7.52l9.13,7.17v32l-16.8-11.86v136.15
		h45.26v-37.65h-14.7v22.63h-15.28v-38.73h29.98v-15.02h-30.17V166.8l14.9,10.9v11.92H248.56z M182.51,201.72l-15.21,10.59V141.7
		l7.61-5.32l7.61,5.26V201.72z M161.37,62.18v41.19l-18.64,12.31V59.38l58.7-33.66V93.1L161.37,62.18z"/>
	<g>
		<defs>
			<path id="SVGID_1_" d="M24.59,332.77l1.49,4.48h-2.96L24.59,332.77z M23.27,330.3l-3.94,11.14h2.4l0.73-2.27h4.24l0.75,2.27h2.47
				l-3.95-11.14H23.27z M31.4,330.3v11.14h7.87v-1.98h-5.54v-9.16H31.4z M60.81,330.3v4.18h-4.35v-4.18h-2.33v11.14h2.33v-5.04h4.35
				v5.04h2.33V330.3H60.81z M69.79,332.77l1.49,4.48h-2.96L69.79,332.77z M68.48,330.3l-3.94,11.14h2.4l0.73-2.27h4.23l0.75,2.27
				h2.47l-3.95-11.14H68.48z M75.65,330.3v1.98h3.37v9.16h2.32v-9.16h3.37v-1.98H75.65z M88.42,332.22h2.79c0.57,0,1,0.12,1.28,0.37
				c0.28,0.24,0.43,0.61,0.43,1.1c0,0.5-0.15,0.87-0.45,1.11c-0.3,0.25-0.75,0.37-1.35,0.37h-2.69V332.22z M86.09,330.3v11.14h2.33
				v-4.4h2.32c0.66,0,1.14,0.11,1.42,0.32c0.29,0.21,0.43,0.57,0.44,1.07l0.02,1.03c0,0.44,0.03,0.85,0.07,1.23
				c0.05,0.38,0.1,0.63,0.16,0.75h2.57v-0.3c-0.18-0.09-0.31-0.21-0.38-0.36c-0.06-0.15-0.1-0.41-0.11-0.77l-0.06-1.83
				c-0.02-0.89-0.35-1.53-0.98-1.91c-0.11-0.06-0.24-0.12-0.38-0.18c0.25-0.09,0.47-0.2,0.66-0.34c0.72-0.49,1.08-1.27,1.08-2.35
				c0-0.93-0.32-1.67-0.98-2.24c-0.65-0.57-1.51-0.85-2.57-0.85H86.09z M97.11,341.43h2.32V330.3h-2.32V341.43z M106.92,332.22h2.79
				c0.57,0,1,0.12,1.28,0.37c0.28,0.24,0.43,0.61,0.43,1.1c0,0.5-0.15,0.87-0.45,1.11c-0.3,0.25-0.75,0.37-1.35,0.37h-2.69V332.22z
				 M104.59,330.3v11.14h2.33v-4.4h2.31c0.66,0,1.14,0.11,1.42,0.32c0.28,0.21,0.43,0.57,0.44,1.07l0.02,1.03
				c0,0.44,0.03,0.85,0.08,1.23c0.04,0.38,0.1,0.63,0.16,0.75h2.57v-0.3c-0.18-0.09-0.31-0.21-0.38-0.36
				c-0.06-0.15-0.1-0.41-0.11-0.77l-0.06-1.83c-0.02-0.89-0.35-1.53-0.98-1.91c-0.11-0.06-0.24-0.12-0.38-0.18
				c0.25-0.09,0.47-0.2,0.66-0.34c0.72-0.49,1.09-1.27,1.09-2.35c0-0.93-0.33-1.67-0.98-2.24c-0.65-0.57-1.51-0.85-2.57-0.85H104.59
				z M115.79,330.3v11.14h8.46v-1.98h-6.13v-2.9h5.45v-1.91h-5.45v-2.37h5.87v-1.98H115.79z M130.52,332.77l1.49,4.48h-2.96
				L130.52,332.77z M129.21,330.3l-3.94,11.14h2.4l0.73-2.27h4.23l0.75,2.27h2.47l-3.95-11.14H129.21z M137.34,330.3v11.14h7.87
				v-1.98h-5.54v-9.16H137.34z M149.79,330.3v11.14h8.46v-1.98h-6.13v-2.9h5.45v-1.91h-5.45v-2.37h5.87v-1.98H149.79z M169.53,330.3
				v1.98h3.37v9.16h2.32v-9.16h3.37v-1.98H169.53z M184.35,332.77l1.49,4.48h-2.96L184.35,332.77z M183.03,330.3l-3.94,11.14h2.4
				l0.73-2.27h4.23l0.75,2.27h2.47l-3.95-11.14H183.03z M190.21,330.3v1.98h3.37v9.16h2.32v-9.16h3.37v-1.98H190.21z M200.64,330.3
				v11.14h8.46v-1.98h-6.13v-2.9h5.45v-1.91h-5.45v-2.37h5.87v-1.98H200.64z M216.3,332.22h2.15c0.89,0,1.55,0.29,1.99,0.87
				c0.44,0.58,0.66,1.45,0.66,2.6c0,1.28-0.23,2.24-0.71,2.87c-0.47,0.64-1.18,0.96-2.12,0.96h-1.96V332.22z M213.97,330.3v11.14
				h4.58c1.59,0,2.81-0.5,3.63-1.49c0.83-0.99,1.24-2.44,1.24-4.35c0-1.73-0.4-3.05-1.19-3.95c-0.8-0.9-1.96-1.35-3.49-1.35H213.97z
				 M225.17,330.3v11.14h8.46v-1.98h-6.13v-2.9h5.45v-1.91h-5.45v-2.37h5.87v-1.98H225.17z M241.99,330.3l-2.44,8.51l-2.45-8.51
				h-2.47l3.77,11.14h2.22l3.77-11.14H241.99z M245.86,330.3v11.14h8.46v-1.98h-6.13v-2.9h5.45v-1.91h-5.45v-2.37h5.87v-1.98H245.86
				z M256.21,330.3v11.14h7.87v-1.98h-5.54v-9.16H256.21z M280.09,332.22h1.94c0.65,0,1.14,0.13,1.46,0.4
				c0.33,0.26,0.49,0.66,0.49,1.2c0,0.58-0.16,1.01-0.49,1.3c-0.32,0.29-0.81,0.43-1.46,0.43h-1.94V332.22z M277.76,330.3v11.14
				h2.33v-3.96c0.66-0.01,1.43-0.02,2.33-0.01c1.27,0,2.23-0.31,2.89-0.94c0.66-0.63,0.99-1.54,0.99-2.74c0-1.13-0.33-2-0.99-2.59
				c-0.66-0.6-1.63-0.89-2.89-0.89H277.76z M295.43,330.3l-2,8.83l-2.03-8.83h-3.41v11.14h2.17v-9.57l2.09,9.57h2.28l2.09-9.36v9.36
				h2.17V330.3H295.43z M301.02,330.3v11.14h8.46v-1.98h-6.13v-2.9h5.45v-1.91h-5.45v-2.37h5.87v-1.98H301.02z M318.17,330.3v7.81
				l-4.47-7.81h-2.44v11.14h2.17v-8.02l4.59,8.02h2.32V330.3H318.17z M321.61,330.3v1.98h3.37v9.16h2.32v-9.16h3.37v-1.98H321.61z
				 M44.65,330.94c-0.78,0.63-1.17,1.49-1.17,2.58c0,0.96,0.29,1.67,0.88,2.12c0.6,0.46,1.78,0.89,3.54,1.29
				c0.96,0.21,1.59,0.41,1.88,0.61c0.3,0.2,0.45,0.51,0.45,0.92c0,0.43-0.21,0.76-0.62,1c-0.42,0.24-0.99,0.36-1.73,0.36
				c-0.72,0-1.29-0.16-1.69-0.47c-0.4-0.32-0.62-0.77-0.65-1.36h-2.24c0.06,1.2,0.48,2.13,1.27,2.78c0.79,0.65,1.89,0.98,3.31,0.98
				c1.4,0,2.51-0.31,3.34-0.92c0.82-0.61,1.23-1.44,1.23-2.49c0-1.04-0.27-1.79-0.82-2.27c-0.54-0.48-1.63-0.9-3.25-1.25
				c-1.12-0.25-1.84-0.47-2.19-0.65c-0.35-0.18-0.52-0.44-0.52-0.77c0-0.47,0.17-0.83,0.5-1.09c0.33-0.26,0.79-0.39,1.39-0.39
				c0.68,0,1.23,0.15,1.66,0.46c0.42,0.31,0.66,0.73,0.7,1.26h2.27c-0.09-1.12-0.53-2-1.31-2.66c-0.78-0.66-1.8-0.99-3.04-0.99
				C46.49,329.99,45.43,330.31,44.65,330.94 M160.93,330.94c-0.78,0.63-1.17,1.49-1.17,2.58c0,0.96,0.29,1.67,0.88,2.12
				c0.6,0.46,1.78,0.89,3.54,1.29c0.96,0.21,1.59,0.41,1.88,0.61c0.3,0.2,0.45,0.51,0.45,0.92c0,0.43-0.21,0.76-0.62,1
				c-0.42,0.24-0.99,0.36-1.74,0.36c-0.72,0-1.29-0.16-1.69-0.47c-0.4-0.32-0.62-0.77-0.65-1.36h-2.24c0.06,1.2,0.48,2.13,1.27,2.78
				c0.79,0.65,1.89,0.98,3.31,0.98c1.4,0,2.52-0.31,3.34-0.92c0.82-0.61,1.23-1.44,1.23-2.49c0-1.04-0.27-1.79-0.82-2.27
				c-0.54-0.48-1.63-0.9-3.25-1.25c-1.12-0.25-1.85-0.47-2.19-0.65c-0.35-0.18-0.52-0.44-0.52-0.77c0-0.47,0.17-0.83,0.5-1.09
				c0.33-0.26,0.79-0.39,1.39-0.39c0.68,0,1.23,0.15,1.65,0.46c0.42,0.31,0.66,0.73,0.7,1.26h2.26c-0.09-1.12-0.52-2-1.31-2.66
				c-0.78-0.66-1.8-0.99-3.04-0.99C162.77,329.99,161.71,330.31,160.93,330.94 M268.31,338.74c-0.53-0.68-0.8-1.62-0.8-2.83
				c0-1.24,0.27-2.2,0.81-2.9c0.53-0.7,1.27-1.04,2.22-1.04c0.95,0,1.7,0.35,2.23,1.04c0.53,0.7,0.8,1.66,0.8,2.9
				c0,1.21-0.27,2.15-0.8,2.83c-0.53,0.68-1.28,1.02-2.23,1.02C269.59,339.76,268.84,339.42,268.31,338.74 M266.64,331.6
				c-0.96,1.07-1.45,2.51-1.45,4.33c0,1.78,0.48,3.19,1.45,4.24c0.97,1.05,2.27,1.57,3.9,1.57c1.65,0,2.95-0.52,3.92-1.57
				c0.96-1.05,1.44-2.46,1.44-4.24c0-1.82-0.48-3.26-1.44-4.33c-0.96-1.07-2.27-1.6-3.92-1.6
				C268.9,329.99,267.6,330.53,266.64,331.6 M29.06,321.46c-0.38,0.37-0.56,0.81-0.56,1.34s0.18,0.98,0.56,1.36
				c0.37,0.38,0.82,0.57,1.35,0.57c0.52,0,0.97-0.19,1.35-0.57c0.37-0.38,0.56-0.83,0.56-1.36s-0.19-0.97-0.56-1.34
				c-0.38-0.37-0.82-0.55-1.35-0.55C29.88,320.91,29.43,321.1,29.06,321.46 M33.55,321.46c-0.37,0.37-0.56,0.81-0.56,1.34
				s0.19,0.98,0.56,1.36c0.38,0.38,0.82,0.57,1.35,0.57c0.52,0,0.97-0.19,1.35-0.57c0.37-0.38,0.56-0.83,0.56-1.36
				s-0.19-0.97-0.56-1.34c-0.38-0.37-0.82-0.55-1.35-0.55C34.37,320.91,33.92,321.1,33.55,321.46 M230.93,321.46
				c-0.38,0.37-0.56,0.81-0.56,1.34s0.19,0.98,0.56,1.36c0.37,0.38,0.82,0.57,1.35,0.57c0.52,0,0.97-0.19,1.35-0.57
				c0.37-0.38,0.56-0.83,0.56-1.36s-0.19-0.97-0.56-1.34c-0.38-0.37-0.82-0.55-1.35-0.55C231.76,320.91,231.31,321.1,230.93,321.46
				 M235.42,321.46c-0.37,0.37-0.56,0.81-0.56,1.34s0.19,0.98,0.56,1.36c0.37,0.38,0.82,0.57,1.35,0.57c0.52,0,0.97-0.19,1.35-0.57
				c0.37-0.38,0.56-0.83,0.56-1.36s-0.19-0.97-0.56-1.34c-0.38-0.37-0.82-0.55-1.35-0.55C236.25,320.91,235.8,321.1,235.42,321.46
				 M132.09,321.42c-0.37,0.37-0.56,0.81-0.56,1.34c0,0.52,0.19,0.98,0.56,1.36c0.37,0.38,0.82,0.57,1.35,0.57
				c0.52,0,0.97-0.19,1.35-0.57c0.38-0.38,0.56-0.83,0.56-1.36c0-0.52-0.19-0.97-0.56-1.34c-0.38-0.37-0.82-0.55-1.35-0.55
				C132.92,320.87,132.47,321.05,132.09,321.42 M136.59,321.42c-0.37,0.37-0.56,0.81-0.56,1.34c0,0.52,0.19,0.98,0.56,1.36
				c0.37,0.38,0.82,0.57,1.35,0.57c0.52,0,0.97-0.19,1.35-0.57c0.38-0.38,0.56-0.83,0.56-1.36c0-0.52-0.19-0.97-0.56-1.34
				c-0.37-0.37-0.82-0.55-1.35-0.55C137.41,320.87,136.96,321.05,136.59,321.42 M49.2,306.75v12.26c0,1.62-0.3,2.81-0.91,3.59
				c-0.61,0.78-1.55,1.17-2.84,1.17v1.68c2.46,0,4.26-0.52,5.41-1.56c1.15-1.04,1.73-2.67,1.73-4.88v-12.26H49.2z M136.14,306.75
				v6.35c0,1.51-0.3,2.63-0.91,3.36c-0.61,0.72-1.55,1.09-2.84,1.09H132h-0.2h-0.32c-1.29,0-2.24-0.36-2.84-1.09
				c-0.61-0.73-0.91-1.85-0.91-3.36v-6.35h-3.39v12.26c0,1.62-0.3,2.81-0.91,3.59c-0.61,0.78-1.55,1.17-2.84,1.17v1.68
				c2.46,0,4.26-0.52,5.41-1.56c1.15-1.04,1.73-2.67,1.73-4.88v-0.02c0.93,0.38,2.05,0.56,3.37,0.56h0.7h0.2h0.76
				c2.23,0,3.91-0.54,5.05-1.63c1.14-1.09,1.71-2.69,1.71-4.82v-6.35H136.14z M32.48,305.73c-0.98,0.63-1.73,1.56-2.24,2.81
				c-0.52,1.24-0.75,2.75-0.69,4.51l5.34-0.76c0.36-0.05,0.69-0.07,0.99-0.07c1.77,0,2.9,0.59,3.41,1.77
				c0.51,1.18,0.76,2.37,0.76,3.55H27.33c-1.87,0-3.07-0.54-3.6-1.61c-0.53-1.07-0.8-2.17-0.8-3.31v-3.16l-3.3,1.19v1.98
				c0,0.78,0.14,1.67,0.4,2.66c0.27,1,0.95,1.95,2.05,2.87c1.1,0.92,2.77,1.38,5,1.38h16.46v-2c0-0.73-0.16-1.63-0.47-2.71
				c-0.31-1.07-0.98-2.07-1.99-3c-1.01-0.93-2.48-1.39-4.39-1.39c-0.49,0-0.96,0.03-1.39,0.09l-2.42,0.38
				c0.09-0.78,0.42-1.65,0.99-2.61c0.57-0.96,1.61-1.44,3.14-1.44c1.21,0,2.66,0.42,4.36,1.26l1.01-1.35c-2.31-1.33-4.45-2-6.42-2
				C34.62,304.79,33.46,305.11,32.48,305.73 M234.36,305.73c-0.98,0.63-1.73,1.56-2.25,2.81c-0.52,1.24-0.74,2.75-0.69,4.51
				l5.34-0.76c0.36-0.05,0.69-0.07,0.99-0.07c1.77,0,2.9,0.59,3.41,1.77c0.51,1.18,0.76,2.37,0.76,3.55H229.2
				c-1.87,0-3.07-0.54-3.6-1.61c-0.53-1.07-0.8-2.17-0.8-3.31v-3.16l-3.3,1.19v1.98c0,0.78,0.14,1.67,0.4,2.66
				c0.27,1,0.95,1.95,2.05,2.87c1.1,0.92,2.77,1.38,5,1.38h16.46v-2c0-0.73-0.16-1.63-0.47-2.71c-0.31-1.07-0.98-2.07-1.99-3
				c-1.01-0.93-2.47-1.39-4.39-1.39c-0.49,0-0.96,0.03-1.39,0.09l-2.42,0.38c0.09-0.78,0.42-1.65,0.99-2.61
				c0.57-0.96,1.62-1.44,3.14-1.44c1.21,0,2.66,0.42,4.36,1.26l1.01-1.35c-2.3-1.33-4.45-2-6.42-2
				C236.49,304.79,235.34,305.11,234.36,305.73 M87.64,309.93l3.01-1.01c0.4-0.1,0.8-0.16,1.19-0.16c0.91,0,1.64,0.27,2.19,0.82
				c0.55,0.55,0.82,1.22,0.82,2.03c0,0.72-0.24,1.43-0.71,2.15c-0.47,0.71-1.19,1.32-2.14,1.83L87.64,309.93z M66.62,314.2v-1.28
				c0-1.06,0.17-1.97,0.5-2.73c0.33-0.75,0.76-1.32,1.3-1.71c0.54-0.38,1.11-0.57,1.73-0.57c0.6,0,1.17,0.19,1.71,0.57
				c0.54,0.38,0.97,0.95,1.3,1.71c0.33,0.76,0.49,1.67,0.49,2.73v4.63h-2.54L66.62,314.2z M104.28,302.48v10.62
				c0,1.51-0.3,2.63-0.91,3.36c-0.61,0.72-1.56,1.09-2.84,1.09h-0.36h-0.16h-3.61c-0.73,0-1.3-0.02-1.71-0.07
				c-0.4-0.05-0.75-0.16-1.03-0.34c1.35-0.78,2.37-1.72,3.06-2.84c0.7-1.12,1.04-2.24,1.04-3.38c0-0.84-0.19-1.6-0.56-2.29
				c-0.37-0.69-0.91-1.24-1.62-1.65c-0.7-0.41-1.53-0.62-2.49-0.62c-0.87,0-1.82,0.19-2.85,0.56l-8.62,3.14l0.76,1.68l1.77-0.67
				l4.94,6.06c-0.3,0.13-0.67,0.23-1.12,0.28c-0.45,0.05-1.21,0.09-2.28,0.1c-1.07,0.01-2.4,0.02-3.98,0.02h-1.57h-0.29h-2.72v-4.63
				c0-1.5-0.33-2.77-0.99-3.83c-0.66-1.05-1.52-1.85-2.58-2.38c-1.06-0.53-2.19-0.8-3.39-0.8c-1.21,0-2.36,0.27-3.42,0.8
				c-1.07,0.53-1.94,1.33-2.6,2.39c-0.67,1.06-1,2.34-1,3.82v1.91l3.82,2.72h-6.02H60.6h-2.38v-15.07h-3.39v17.06h5.77h0.34h8.82
				h2.38h4.04h0.94h2.72h0.29h3.05c1.68,0,2.9-0.01,3.67-0.05c0.77-0.03,1.41-0.1,1.93-0.21c0.52-0.11,1.13-0.3,1.85-0.55
				c0.57,0.3,1.17,0.51,1.81,0.63c0.64,0.12,1.58,0.18,2.82,0.18h4.74h0.16h0.74c2.23,0,3.91-0.54,5.05-1.63
				c1.14-1.09,1.71-2.69,1.71-4.82v-10.62H104.28z M109.91,319.54h3.39v-17.07h-3.39V319.54z M164.74,311.35l7.88-1.28
				c0.24-0.03,0.41-0.05,0.52-0.05c0.79,0,1.38,0.28,1.77,0.85c0.39,0.57,0.58,1.44,0.58,2.63v4.04h-10.76V311.35z M146.02,312.92
				c0-0.88,0.15-1.64,0.46-2.27c0.31-0.63,0.72-1.1,1.22-1.41c0.51-0.31,1.05-0.47,1.62-0.47c0.57,0,1.1,0.16,1.6,0.47
				c0.5,0.31,0.91,0.79,1.21,1.41c0.31,0.63,0.46,1.38,0.46,2.27v4.63h-6.58V312.92z M210.48,302.48v10.62
				c0,1.51-0.3,2.63-0.91,3.36c-0.61,0.72-1.56,1.09-2.84,1.09h-0.36h-0.16h-0.43c-1.29,0-2.23-0.36-2.84-1.09
				c-0.61-0.73-0.91-1.85-0.91-3.36v-10.62h-3.39v11.41l-3.66,3.66h-0.72h-0.36c-1.29,0-2.23-0.36-2.84-1.09
				c-0.61-0.73-0.91-1.85-0.91-3.36v-6.35h-3.39v7.14l-3.66,3.66h-0.72h-0.13h-3.37v-4.04c0-1.71-0.47-3.05-1.41-4.02
				c-0.94-0.97-2.22-1.46-3.84-1.46c-0.18,0-0.48,0.02-0.9,0.05l-8.02,1.3v-6.89h-3.39v15.07h-3.28h-0.16h-1.82v-4.63
				c0-1.3-0.32-2.42-0.96-3.36c-0.64-0.94-1.49-1.64-2.53-2.11c-1.04-0.47-2.14-0.71-3.31-0.71s-2.26,0.24-3.29,0.71
				c-1.03,0.47-1.86,1.17-2.49,2.1c-0.64,0.93-0.95,2.05-0.95,3.37v6.62h9.92c0,1.42-0.33,2.48-0.98,3.18
				c-0.65,0.7-1.53,1.04-2.64,1.04v1.68c2.18,0,3.91-0.5,5.18-1.51c1.27-1.01,1.91-2.48,1.91-4.39h1.95h0.16h24.2h0.13h1.75
				l3.1-3.14c0.46,1.02,1.24,1.8,2.31,2.34c1.08,0.54,2.4,0.81,3.97,0.81h0.38h0.36h1.75l3.1-3.14c0.46,1.02,1.24,1.8,2.31,2.34
				c1.08,0.54,2.4,0.81,3.97,0.81h0.81h0.16h0.74c2.23,0,3.91-0.54,5.05-1.63c1.14-1.09,1.71-2.69,1.71-4.82v-10.62H210.48z
				 M265.73,311.35l7.88-1.28c0.24-0.03,0.41-0.05,0.52-0.05c0.79,0,1.38,0.28,1.77,0.85c0.39,0.57,0.58,1.44,0.58,2.63v4.04h-10.76
				V311.35z M262.32,302.48v15.07h-3.59h-0.52c-1.29,0-2.24-0.36-2.84-1.09c-0.61-0.73-0.91-1.85-0.91-3.36v-6.35h-3.39v12.26
				c0,1.62-0.3,2.81-0.91,3.59c-0.61,0.78-1.55,1.17-2.84,1.17v1.68c2.46,0,4.26-0.52,5.41-1.56c1.15-1.04,1.73-2.67,1.73-4.88
				v-0.02c0.93,0.38,2.05,0.56,3.37,0.56h0.38h0.52h21.15v-6.04c0-1.71-0.47-3.05-1.41-4.02c-0.94-0.97-2.22-1.46-3.84-1.46
				c-0.18,0-0.48,0.02-0.9,0.05l-8.02,1.3v-6.89H262.32z M321.24,302.48v10.62c0,1.51-0.3,2.63-0.91,3.36
				c-0.61,0.72-1.55,1.09-2.84,1.09h-0.36h-0.16h-0.13c-0.84,0-1.54-0.3-2.11-0.91c-0.57-0.61-0.85-1.36-0.85-2.28v-7.61h-3.39v7.61
				c0,1-0.21,1.78-0.62,2.35c-0.41,0.56-0.97,0.84-1.67,0.84c-0.84,0-1.54-0.3-2.11-0.91c-0.57-0.61-0.85-1.36-0.85-2.28v-4.98
				h-3.37v5.25c0,0.51-0.13,0.99-0.39,1.44c-0.26,0.45-0.61,0.81-1.04,1.08c-0.43,0.27-0.89,0.4-1.37,0.4c-0.82,0-1.5-0.27-2.03-0.8
				c-0.53-0.53-0.8-1.21-0.8-2.03v-6.85h-3.39v5.23c0,1.51-0.3,2.63-0.91,3.36c-0.61,0.72-1.55,1.09-2.84,1.09h-0.85h-0.31h-2.4
				v-15.07h-3.39v17.06h5.79h0.31h1.23c2.19,0,3.85-0.52,4.99-1.57l0.67,0.52c0.52,0.36,1.1,0.62,1.74,0.8
				c0.64,0.17,1.37,0.26,2.19,0.26c0.93,0,1.77-0.15,2.52-0.46c0.75-0.31,1.46-0.78,2.13-1.43c0.66,0.58,1.38,1.05,2.18,1.38
				c0.79,0.34,1.57,0.5,2.34,0.5c0.85,0,1.64-0.15,2.37-0.45c0.73-0.3,1.36-0.73,1.9-1.3c0.66,0.55,1.37,0.98,2.13,1.29
				c0.76,0.31,1.51,0.46,2.25,0.46h0.11h0.16h0.74c2.23,0,3.91-0.54,5.05-1.63c1.14-1.09,1.71-2.69,1.71-4.82v-10.62H321.24z
				 M326.87,319.54h3.39v-17.07h-3.39V319.54z M184.75,301.23c-0.37,0.37-0.56,0.81-0.56,1.34c0,0.52,0.19,0.98,0.56,1.36
				c0.38,0.38,0.83,0.57,1.35,0.57c0.53,0,0.97-0.19,1.35-0.57c0.37-0.38,0.56-0.83,0.56-1.36c0-0.52-0.19-0.97-0.56-1.34
				c-0.37-0.37-0.82-0.55-1.35-0.55C185.57,300.68,185.12,300.87,184.75,301.23 M189.15,301.23c-0.38,0.37-0.56,0.81-0.56,1.34
				c0,0.52,0.19,0.98,0.56,1.36c0.37,0.38,0.82,0.57,1.35,0.57c0.52,0,0.97-0.19,1.35-0.57c0.38-0.38,0.56-0.83,0.56-1.36
				c0-0.52-0.19-0.97-0.56-1.34c-0.37-0.37-0.82-0.55-1.35-0.55C189.97,300.68,189.52,300.87,189.15,301.23 M300.02,301.23
				c-0.38,0.37-0.56,0.81-0.56,1.34c0,0.52,0.19,0.98,0.56,1.36c0.37,0.38,0.82,0.57,1.35,0.57c0.52,0,0.97-0.19,1.35-0.57
				c0.37-0.38,0.56-0.83,0.56-1.36c0-0.52-0.19-0.97-0.56-1.34c-0.38-0.37-0.83-0.55-1.35-0.55
				C300.84,300.68,300.39,300.87,300.02,301.23 M304.51,301.23c-0.37,0.37-0.56,0.81-0.56,1.34c0,0.52,0.19,0.98,0.56,1.36
				c0.38,0.38,0.82,0.57,1.35,0.57c0.52,0,0.97-0.19,1.35-0.57c0.37-0.38,0.56-0.83,0.56-1.36c0-0.52-0.19-0.97-0.56-1.34
				c-0.38-0.37-0.82-0.55-1.35-0.55C305.33,300.68,304.89,300.87,304.51,301.23 M66.33,301.01c-0.37,0.37-0.56,0.81-0.56,1.33
				c0,0.52,0.19,0.98,0.56,1.36c0.37,0.38,0.83,0.57,1.35,0.57c0.52,0,0.97-0.19,1.35-0.57c0.38-0.38,0.56-0.83,0.56-1.36
				c0-0.52-0.19-0.97-0.56-1.33c-0.37-0.37-0.82-0.55-1.35-0.55C67.15,300.46,66.7,300.64,66.33,301.01 M70.73,301.01
				c-0.37,0.37-0.56,0.81-0.56,1.33c0,0.52,0.19,0.98,0.56,1.36c0.37,0.38,0.82,0.57,1.35,0.57c0.52,0,0.97-0.19,1.35-0.57
				c0.37-0.38,0.56-0.83,0.56-1.36c0-0.52-0.19-0.97-0.56-1.33c-0.38-0.37-0.82-0.55-1.35-0.55
				C71.55,300.46,71.1,300.64,70.73,301.01 M302.31,297.19c-0.37,0.37-0.56,0.81-0.56,1.34s0.19,0.98,0.56,1.36
				c0.37,0.38,0.82,0.57,1.35,0.57c0.52,0,0.97-0.19,1.35-0.57c0.38-0.38,0.56-0.83,0.56-1.36s-0.19-0.97-0.56-1.34
				c-0.37-0.37-0.82-0.55-1.35-0.55C303.13,296.64,302.69,296.82,302.31,297.19"/>
		</defs>
		<use xlink:href="#SVGID_1_"  style="overflow:visible;fill:#1A222A;"/>
		<clipPath id="SVGID_00000016034186342858353630000013583758245757413548_">
			<use xlink:href="#SVGID_1_"  style="overflow:visible;"/>
		</clipPath>
		
			<rect x="19.33" y="296.64" style="clip-path:url(#SVGID_00000016034186342858353630000013583758245757413548_);fill:#1A222A;" width="311.33" height="45.09"/>
	</g>
</g>
</svg>
