<?xml version="1.0" encoding="utf-8"?>
<!-- Generator: Adobe Illustrator 26.0.1, SVG Export Plug-In . SVG Version: 6.00 Build 0)  -->
<svg version="1.1" id="Layer_1" xmlns="http://www.w3.org/2000/svg" xmlns:xlink="http://www.w3.org/1999/xlink" x="0px" y="0px"
	 viewBox="0 0 350 350" style="enable-background:new 0 0 350 350;" xml:space="preserve">
<style type="text/css">
	.st0{fill:#F39519;}
	.st1{fill:#F5A017;}
	.st2{fill:#F9B410;}
	.st3{fill:#FFD301;}
	.st4{fill:url(#SVGID_1_);}
	.st5{fill:#FFFFFF;}
	.st6{fill:url(#SVGID_00000094607541171301739360000005351951669602164401_);}
</style>
<g>
	<g>
		<path class="st0" d="M174.85,201.52v0.23H51.94c-19,0-35.18-12.01-41.39-28.87c-1.13-3.08-1.95-6.36-2.38-9.75
			c0.04,0,0.04,0,0.04-0.04c0.19-0.62,0.47-1.25,0.82-1.87c1.83-3.28,4.68-5.07,8-5.11h24.22c4.84,4.52,10.77,8,17.47,10.06
			l116.01,35.46L174.85,201.52z"/>
		<path class="st0" d="M174.85,200.15v1.05c0,0.04,0,0.04,0,0.08v0.23l-0.12,0.12L58.73,166.18c-6.71-2.07-12.64-5.54-17.47-10.06
			h89.52c2.61,0,5.19,0.23,7.68,0.7c6.09,1.01,11.7,3.35,16.66,6.63c1.09,0.7,2.15,1.48,3.2,2.34c0.66,0.51,1.33,1.05,1.95,1.6
			c2.73,2.5,5.19,5.3,7.18,8.43c2.61,3.86,4.6,8.15,5.81,12.72v0.04c0.31,1.05,0.59,2.07,0.78,3.16
			C174.58,194.46,174.85,197.27,174.85,200.15z"/>
		<path class="st1" d="M107.26,156.12h-66c-12.56-11.43-18.14-29.57-12.83-46.96l31.83,9.71c3.32,5.81,8,10.96,13.93,14.94
			L107.26,156.12z"/>
		<path class="st1" d="M176.73,188.88c0,0.04,0,0.08,0,0.08c0,3.47-0.47,6.9-1.4,10.38c0,0.04,0,0.04,0,0.08
			c-0.08,0.43-0.19,0.86-0.31,1.29v0.04c-0.04,0.12-0.08,0.19-0.12,0.31c0,0.04,0,0.12-0.04,0.16c0,0.04,0,0.04,0,0.08
			c-0.04,0-0.04,0-0.04,0c0,0.12-0.04,0.23-0.08,0.35L58.73,166.18c-6.71-2.07-12.64-5.54-17.47-10.06h66L74.18,133.8
			c-5.93-3.98-10.61-9.13-13.93-14.94l63.07,19.31l21.1,6.44c5.93,1.83,11.23,4.72,15.76,8.5c3.55,2.93,6.63,6.36,9.09,10.18v0.04
			c2.57,3.86,4.49,8.07,5.73,12.52C176.22,180.03,176.8,184.43,176.73,188.88z"/>
		<path class="st2" d="M123.33,138.17l-63.07-19.31c-8.54-14.63-8.5-33.47,1.6-48.45l27.54,18.57c1.52,6.51,4.49,12.79,9.01,18.37
			L123.33,138.17z"/>
		<path class="st2" d="M182.58,175.81c0.04,8.54-2.3,17.2-7.26,24.89c-0.04,0.12-0.12,0.23-0.23,0.35c0,0.08-0.04,0.16-0.08,0.19
			s-0.08,0.08-0.08,0.12c-0.04,0.04-0.04,0.04-0.08,0.08c-0.04,0.08-0.08,0.12-0.12,0.2l-67.48-45.52L74.18,133.8
			c-5.93-3.98-10.61-9.13-13.93-14.94l63.07,19.31L98.4,107.36c-4.52-5.58-7.49-11.86-9.01-18.37l73.06,49.27
			c1.21,0.82,2.38,1.68,3.47,2.61c3.59,2.93,6.63,6.36,9.09,10.06c2.54,3.82,4.45,8,5.73,12.36
			C181.91,167.35,182.54,171.56,182.58,175.81z"/>
		<path class="st3" d="M175.01,129.36l-6.51,8.04c-0.94,1.13-1.76,2.3-2.57,3.47c-1.09-0.94-2.26-1.79-3.47-2.61L89.39,88.99
			c-3.82-16.5,1.72-34.48,15.76-45.87L175.01,129.36z"/>
		<path class="st3" d="M191.67,165.71c0.08,8-1.95,15.99-6.01,23.05l-0.04,0.04c-2.34,4.13-5.38,7.96-9.09,11.23l-0.12,0.12
			c-0.35,0.35-0.7,0.66-1.09,0.98c-0.04,0.08-0.08,0.12-0.16,0.16c-0.04,0.04-0.08,0.04-0.12,0.08c0,0.04,0,0.04-0.04,0.04
			c-0.04,0.04-0.12,0.08-0.16,0.12l-0.12,0.12l-1.09-1.4c-0.04,0-0.04,0-0.08-0.08l-9.24-11.39v-0.04l-25.86-31.91l-15.13-18.65
			L98.4,107.36c-4.52-5.58-7.49-11.86-9.01-18.37l73.06,49.27c1.21,0.82,2.38,1.68,3.47,2.61c0.82-1.17,1.64-2.34,2.57-3.47
			l6.51-8.04l6.51,8.04c0.94,1.13,1.79,2.3,2.54,3.51c2.57,3.86,4.49,7.96,5.73,12.21C191,157.25,191.63,161.46,191.67,165.71z"/>
		<path class="st0" d="M341.96,163.1c-0.43,3.2-1.17,6.32-2.22,9.28c-6.12,17.01-22.39,29.18-41.5,29.18H175.52l115.73-35.38
			c6.87-2.11,12.83-5.66,17.75-10.3h23.33c1.91,0.08,3.86,0.74,5.66,1.91C340.05,159.12,341.41,160.95,341.96,163.1z"/>
		<path class="st0" d="M309,155.88c-4.91,4.64-10.88,8.19-17.75,10.3l-115.73,35.38h-0.19v-2.15c0-0.04,0-0.04,0-0.08
			c0.04-2.61,0.31-5.15,0.78-7.61c0.16-0.94,0.39-1.83,0.62-2.77c0,0,0-0.04,0-0.08c1.21-4.72,3.2-9.13,5.85-13.07
			c2.22-3.43,4.91-6.55,8.04-9.24c0.35-0.31,0.7-0.59,1.05-0.86c0.74-0.62,1.52-1.25,2.34-1.79c5.19-3.67,11.2-6.24,17.71-7.33
			c2.5-0.47,5.07-0.7,7.68-0.7H309z"/>
		<path class="st1" d="M309,155.88h-65.92l32.73-22.08c5.93-3.98,10.61-9.13,13.93-14.94l31.83-9.71
			C326.82,126.39,321.36,144.41,309,155.88z"/>
		<path class="st1" d="M309,155.88c-4.91,4.64-10.88,8.19-17.75,10.3l-115.73,35.38l-0.27,0.08c-0.04-0.12-0.08-0.23-0.08-0.35
			c-0.04-0.08-0.08-0.16-0.08-0.23c-0.04-0.12-0.08-0.19-0.08-0.31v-0.04c-0.08-0.16-0.12-0.35-0.16-0.51v-0.04
			c-1.09-3.86-1.56-7.72-1.6-11.59v-0.04c-0.04-4.33,0.55-8.58,1.76-12.68c1.25-4.45,3.16-8.7,5.73-12.56
			c2.46-3.82,5.5-7.25,9.05-10.18c4.52-3.74,9.83-6.67,15.76-8.5l21.1-6.44l63.07-19.31c-3.32,5.81-8,10.96-13.93,14.94
			l-32.73,22.08H309z"/>
		<path class="st2" d="M289.73,118.86l-63.07,19.31l24.92-30.82c4.49-5.54,7.49-11.82,8.97-18.33l27.58-18.61
			C298.27,85.4,298.27,104.24,289.73,118.86z"/>
		<path class="st2" d="M289.73,118.86c-3.32,5.81-8,10.96-13.93,14.94l-32.73,22.08l-67.72,45.68h-0.04l-0.08,0.08
			c-0.04-0.04-0.08-0.08-0.12-0.12c0-0.04-0.04-0.12-0.08-0.16c0-0.04-0.04-0.08-0.04-0.12c-0.08-0.04-0.12-0.12-0.12-0.19
			c0,0-0.04,0-0.04-0.04c-5.11-7.76-7.49-16.54-7.41-25.2c0.04-4.25,0.66-8.43,1.83-12.48v-0.04c1.29-4.37,3.2-8.5,5.73-12.36
			c2.42-3.71,5.46-7.1,9.05-10.02c1.13-0.94,2.3-1.83,3.51-2.65l72.98-49.23c-1.48,6.51-4.49,12.79-8.97,18.33l-24.92,30.82
			L289.73,118.86z"/>
		<path class="st3" d="M260.55,89.02l-72.98,49.23c-1.21,0.82-2.38,1.72-3.51,2.65c-0.74-1.21-1.6-2.38-2.54-3.51l-6.51-8.04
			l69.82-86.24C258.91,54.5,264.41,72.52,260.55,89.02z"/>
		<path class="st3" d="M260.55,89.02c-1.48,6.51-4.49,12.79-8.97,18.33l-24.92,30.82l-14.94,18.41l-26.06,32.18l-0.04,0.04
			l-9.09,11.23l-0.12,0.12l-1.09,1.4l-0.08,0.08c-0.04-0.04-0.08-0.08-0.12-0.12c-0.04,0-0.08-0.08-0.12-0.12
			c-0.04,0-0.08,0-0.08-0.04c-0.04,0-0.08-0.08-0.08-0.08c-0.04,0-0.04,0-0.04,0c-0.39-0.35-0.78-0.66-1.17-1.05
			c-0.04,0-0.04,0-0.08-0.08c-3.78-3.32-6.87-7.18-9.24-11.39v-0.04c-4.02-7.02-6.05-14.98-6.01-22.94
			c0.04-4.25,0.66-8.54,1.87-12.68c1.29-4.25,3.16-8.39,5.73-12.25c0.82-1.17,1.64-2.34,2.57-3.47l6.51-8.04l6.51,8.04
			c0.94,1.13,1.79,2.3,2.54,3.51c1.13-0.94,2.3-1.83,3.51-2.65L260.55,89.02z"/>
		<linearGradient id="SVGID_1_" gradientUnits="userSpaceOnUse" x1="174.9999" y1="153.8" x2="174.9999" y2="317.5189">
			<stop  offset="0.1445" style="stop-color:#2A327C"/>
			<stop  offset="0.6057" style="stop-color:#3461AA"/>
			<stop  offset="0.938" style="stop-color:#41A8DF"/>
		</linearGradient>
		<path class="st4" d="M342.22,165.25v104.56c0,21.19-34.87,38.38-167.21,38.38C43.73,308.18,7.78,291,7.78,269.81V165.72
			c0,2.78,1.4,5.35,3.24,7.83c15.64,21.13,45.84,22.83,65.8,8.95c6.19-4.3,11.26-10.18,17.09-15.03
			c12.92-10.76,23.04-10.65,35.84,0.02c5.69,4.74,11.51,9.33,17.16,14.12c17.17,14.54,40.97,12.66,57.3-0.63
			c6.6-5.37,12.73-11.33,19.26-16.79c7.53-6.31,15.99-7.02,24.16-1.89c6.2,3.9,12.05,8.59,17.3,13.7
			c10.03,9.75,21.62,15.33,36.24,15.53c2.37-0.28,5.39-0.36,8.27-1.01c12.41-2.81,23.79-7.53,30.8-18.98
			C341.58,169.36,342.22,167.22,342.22,165.25z"/>
		<g>
			<path class="st5" d="M22.96,235.21c0-3.98,1.13-6.99,3.39-9.05c1.77-1.59,4.1-2.39,6.99-2.41c3.33,0,5.91,1.08,7.76,3.25
				c1.69,1.96,2.54,4.61,2.55,7.95c0,2.42-0.31,4.36-0.93,5.82c-0.78,1.86-1.94,3.29-3.49,4.3c-1.66,1.11-3.64,1.67-5.94,1.67
				c-3.23,0-5.76-1.03-7.59-3.08C23.87,241.61,22.96,238.79,22.96,235.21z M25.51,216.05c0-0.91,0.34-1.7,1.03-2.39
				c0.65-0.65,1.43-0.98,2.34-0.98c0.87,0,1.66,0.33,2.36,0.98c0.68,0.68,1.03,1.48,1.03,2.39c0,0.91-0.34,1.69-1.03,2.34
				c-0.68,0.68-1.47,1.03-2.36,1.03c-0.88,0-1.66-0.33-2.34-0.98C25.86,217.75,25.51,216.95,25.51,216.05z M29.33,235.21
				c0,3.95,1.34,5.91,4.01,5.9c2.74,0,4.11-1.95,4.11-5.85c0-3.91-1.37-5.87-4.11-5.87C30.67,229.39,29.33,231.33,29.33,235.21z
				 M34.32,216.05c0-0.91,0.34-1.7,1.03-2.39c0.65-0.65,1.43-0.98,2.34-0.98c0.87,0,1.65,0.33,2.34,0.98
				c0.68,0.68,1.03,1.48,1.03,2.39c0,0.91-0.34,1.69-1.03,2.34c-0.68,0.68-1.46,1.03-2.34,1.03c-0.88,0-1.66-0.33-2.34-0.98
				C34.66,217.75,34.32,216.95,34.32,216.05z"/>
			<path class="st5" d="M88.7,223.66v13.94c0,2.9-0.92,5.16-2.72,6.8c-1.77,1.56-4.14,2.34-7.14,2.34H47.93l3.72-5.73H62.8v-6.88
				c0-1.4-0.46-2.51-1.36-3.34c-0.82-0.74-1.84-1.13-3.08-1.13c-2.12,0-4.31,1.19-6.57,3.54v-5.93c2.42-2.2,5.1-3.32,8.02-3.32
				c2.52,0,4.61,0.77,6.31,2.29c1.98,1.77,2.98,4.12,2.98,7.05v7.71h9.53c2.51,0,3.77-1.24,3.77-3.7v-11.61L88.7,223.66z"/>
			<path class="st5" d="M82.77,215.49v-1.16c0-0.54,0.2-1.03,0.61-1.46c0.35-0.4,0.73-0.59,1.16-0.59c0.66,0,1.26,0.3,1.82,0.88
				l2.6-2.75c-1.39-1.3-2.91-1.95-4.55-1.95c-0.82,0.02-1.58,0.17-2.3,0.46c-1.3,0.59-2.25,1.66-2.83,3.22
				c-0.26,0.78-0.42,1.91-0.48,3.37h-1.81l-2.25,3.82H89.1v-3.82H82.77z"/>
			<path class="st5" d="M94.42,246.74v-30l6.35-2.05v32.06H94.42z"/>
			<path class="st5" d="M142.38,214.69v22.91c0,2.9-0.92,5.16-2.72,6.8c-1.77,1.56-4.14,2.34-7.14,2.34H122.4
				c-0.32,1.68-0.73,2.97-1.22,3.86c-0.93,1.66-2.24,2.97-3.91,3.92c-1.93,1.11-4.02,1.66-6.3,1.65c-1.37,0-2.85-0.22-4.44-0.67
				c-0.82-0.26-1.6-0.57-2.34-0.93l-2.85-6.42c2.59,1.65,5.28,2.49,8.12,2.5c1.95,0,3.55-0.62,4.78-1.86c1.34-1.31,2-3.07,2-5.28
				V227.2l6.32-2.05v15.87h9.74c2.52,0,3.77-1.24,3.77-3.7v-20.57L142.38,214.69z"/>
			<path class="st5" d="M148.1,246.74v-30l6.35-2.05v32.06H148.1z"/>
			<path class="st5" d="M175.88,213.9c-0.69-0.66-1.48-0.98-2.36-0.98c-0.9,0-1.68,0.32-2.34,0.98c-0.68,0.68-1.03,1.48-1.03,2.39
				c0,0.9,0.35,1.71,1.03,2.39c0.68,0.66,1.47,0.98,2.34,0.98c0.89,0,1.68-0.35,2.36-1.03c0.69-0.66,1.03-1.44,1.03-2.34
				C176.91,215.38,176.58,214.58,175.88,213.9z M184.67,213.9c-0.68-0.66-1.46-0.98-2.34-0.98c-0.9,0-1.68,0.32-2.34,0.98
				c-0.68,0.68-1.03,1.48-1.03,2.39c0,0.9,0.35,1.71,1.03,2.39c0.68,0.66,1.46,0.98,2.34,0.98c0.88,0,1.66-0.35,2.34-1.03
				c0.68-0.66,1.03-1.44,1.03-2.34C185.69,215.38,185.35,214.58,184.67,213.9z"/>
			<path class="st5" d="M204.75,252.12c-0.69-0.66-1.47-0.98-2.34-0.98c-0.92,0-1.69,0.32-2.34,0.98c-0.69,0.69-1.03,1.5-1.03,2.41
				c0,0.9,0.33,1.69,1.03,2.39c0.68,0.64,1.46,0.98,2.34,0.98c0.87,0,1.65-0.35,2.34-1.03c0.68-0.66,1.03-1.44,1.03-2.34
				C205.77,253.6,205.43,252.8,204.75,252.12z M195.96,252.12c-0.71-0.66-1.5-0.98-2.36-0.98c-0.92,0-1.69,0.32-2.34,0.98
				c-0.69,0.69-1.03,1.5-1.03,2.41c0,0.9,0.33,1.69,1.03,2.39c0.68,0.64,1.46,0.98,2.34,0.98c0.89,0,1.67-0.35,2.36-1.03
				c0.68-0.66,1.03-1.44,1.03-2.34C196.99,253.6,196.64,252.8,195.96,252.12z"/>
			<path class="st5" d="M225.12,215.02c-0.68-0.66-1.46-0.98-2.34-0.98c-0.92,0-1.71,0.32-2.36,0.98c-0.68,0.68-1.03,1.47-1.03,2.39
				c0,0.9,0.35,1.71,1.03,2.41c0.71,0.64,1.48,0.98,2.36,0.98c0.88,0,1.66-0.35,2.34-1.03c0.69-0.67,1.03-1.46,1.03-2.36
				C226.15,216.5,225.82,215.7,225.12,215.02z"/>
			<path class="st5" d="M268.19,233.5c-0.93-2.91-2.52-5.2-4.8-6.85c-2.18-1.56-4.73-2.34-7.62-2.34c-2.64,0-5.18,0.78-7.63,2.34
				c-1.4,0.93-2.73,2.09-4.01,3.49v-14.59l-6.3,1.92v23.56h-7.76c-1.19,0.01-2.1-0.26-2.75-0.82c-0.69-0.66-1.03-1.58-1.03-2.8
				v-12.26l-6.31,2.05v10.12c0,2.46-1.2,3.7-3.63,3.7h-6.09c-1.18,0.01-2.09-0.26-2.75-0.82c-0.68-0.66-1.03-1.58-1.03-2.8v-12.26
				l-6.3,2.05v10.12c0,2.46-1.21,3.7-3.63,3.7h-6.09c-1.18,0.01-2.09-0.27-2.75-0.87c-0.68-0.62-1.03-1.53-1.03-2.75v-13.39h-9.53
				c-3.12,0-5.57,0.83-7.37,2.49c-2.17,1.95-3.24,4.87-3.24,8.76c0,3.64,0.9,6.46,2.7,8.45c1.74,2.02,4.19,3.03,7.32,3.03
				c1.71,0,3.23-0.33,4.57-0.98c0.78-0.4,1.6-0.99,2.47-1.77c2.09,1.83,4.22,2.75,6.4,2.75h6.85c2.5,0,4.68-0.8,6.54-2.39
				c1.84,1.58,3.97,2.39,6.4,2.39h6.84c2.5,0,4.68-0.8,6.54-2.39c1.84,1.58,3.97,2.39,6.4,2.39h39.45v-7.04
				C269.07,237.43,268.77,235.36,268.19,233.5z M180.37,235.21c0,0.45-0.05,0.98-0.15,1.6c-0.14,1.04-0.31,1.78-0.49,2.25
				c-0.56,1.3-1.58,1.95-3.08,1.95c-1.52,0-2.57-0.67-3.13-2c-0.38-0.92-0.57-2.17-0.57-3.75c0-1.77,0.25-3.11,0.77-4.01
				c0.68-1.18,1.89-1.77,3.63-1.77h3.03V235.21z M244.23,241.02c0.22-1.15,0.47-2.03,0.73-2.62c0.56-1.47,1.45-2.88,2.66-4.26
				c2.35-2.67,5.04-4.01,8.07-4.01c3.45,0,5.64,2.17,6.58,6.5c0.22,1.03,0.38,2.5,0.48,4.39H244.23z"/>
			<path class="st5" d="M308.01,216.74v20.57c0,2.46-1.26,3.7-3.77,3.7h-8.19v-4.59c0-3.48-0.61-6.29-1.82-8.4
				c-1.76-3.01-4.68-4.5-8.76-4.5c-2.02,0.01-3.81,0.47-5.37,1.39c-1.5,0.84-2.7,2.05-3.6,3.65c-1.15,1.98-1.72,4.23-1.72,6.76
				c0,3.51,1.08,6.35,3.23,8.49c1.95,1.97,4.43,2.94,7.41,2.94h4.21c-0.38,1.1-0.92,1.92-1.6,2.47c-1.06,0.97-2.5,1.44-4.29,1.44
				c-3.11-0.01-5.96-0.85-8.57-2.5l2.85,6.42c0.74,0.36,1.56,0.67,2.42,0.93c1.71,0.45,3.28,0.67,4.7,0.67
				c2.15,0,4.1-0.51,5.83-1.51c1.6-0.92,2.82-2.21,3.7-3.86c0.54-0.94,0.95-2.29,1.24-4.06h8.55c2.99,0,5.37-0.78,7.14-2.34
				c1.82-1.65,2.72-3.91,2.72-6.8v-22.91L308.01,216.74z M289.79,241.02h-4.38c-1.06,0-1.97-0.35-2.71-1.03
				c-1.09-1.04-1.63-2.59-1.63-4.63c0-1.83,0.42-3.35,1.27-4.57c0.8-1.13,1.83-1.69,3.07-1.69c1.09,0,2,0.43,2.75,1.31
				c0.89,0.99,1.42,2.31,1.58,3.96c0.02,0.38,0.05,1.11,0.05,2.2V241.02z"/>
			<path class="st5" d="M320.03,246.74v-30l6.35-2.05v32.06H320.03z"/>
		</g>
		
			<linearGradient id="SVGID_00000176013089782788848510000007036380409902049724_" gradientUnits="userSpaceOnUse" x1="324.7507" y1="155.7723" x2="10.5427" y2="181.5854">
			<stop  offset="0.1445" style="stop-color:#65B234"/>
			<stop  offset="0.938" style="stop-color:#4CAC33"/>
		</linearGradient>
		<path style="fill:url(#SVGID_00000176013089782788848510000007036380409902049724_);" d="M342.22,165.25
			c0,1.98-0.64,4.11-1.98,6.3c-0.17,0.28-0.34,0.55-0.52,0.82c-7.04,10.85-18.16,15.41-30.27,18.16c-2.88,0.65-5.89,0.73-8.27,1.01
			c-14.63-0.2-26.22-5.78-36.25-15.53c-5.25-5.11-11.1-9.8-17.3-13.69c-8.17-5.13-16.63-4.42-24.16,1.89
			c-6.53,5.46-12.65,11.42-19.26,16.79c-8.11,6.59-18.05,10.38-28.12,10.73c-0.68,0.03-1.36,0.04-2.04,0.03h-0.02
			c-9.52-0.1-19.05-3.31-27.11-10.14c-5.65-4.79-11.47-9.38-17.16-14.12c-12.81-10.67-22.92-10.78-35.84-0.02
			c-5.83,4.86-10.89,10.73-17.09,15.04c-19.96,13.89-50.16,12.18-65.8-8.95c-0.13-0.18-0.26-0.35-0.39-0.53
			c-0.02-0.03-0.05-0.08-0.08-0.11c-1.62-2.28-2.78-4.65-2.78-7.19c0-0.84,0.13-1.7,0.42-2.58c0.01-0.01,0.01-0.02,0.01-0.03
			c0.19-0.62,0.47-1.25,0.83-1.89c1.85-3.28,4.66-5.06,7.99-5.11h0.33c0.65,0.01,1.31,0.09,1.99,0.23c2.3,0.46,5.11,1.95,6.28,3.85
			c9.48,15.45,33.42,13.59,45.05,2.16c2.16-2.11,4.39-4.22,6.71-6.23c0.03-0.03,0.07-0.06,0.1-0.09
			c5.51-4.81,11.46-9.16,17.83-12.31c16.44-8.09,32.24-3.85,46.24,7.2c4.64,3.67,8.74,8.04,13.07,12.1c0.03,0.03,0.07,0.06,0.1,0.09
			c0.12,0.12,0.24,0.23,0.37,0.34c1.68,1.54,3.39,2.86,5.12,3.97c0.12,0.08,0.24,0.15,0.35,0.23c9.72,6.11,20.2,5.79,30.02-1.07
			c1.14-0.79,2.27-1.67,3.39-2.65c0.02-0.02,0.04-0.03,0.06-0.05c4.19-3.64,7.92-7.82,12.11-11.5c9.85-8.65,20.21-12.99,30.72-12.99
			c9.64,0,19.39,3.65,28.94,10.98c2.31,1.77,4.58,3.61,6.8,5.53c2.57,2.21,5.05,4.54,7.37,6.99c10.86,11.43,34.83,11.85,43.83-2.23
			c2.03-3.16,4.9-4.7,7.92-4.76h0.57c1.89,0.08,3.83,0.72,5.63,1.89c2.07,1.35,3.44,3.18,3.98,5.31
			C342.13,163.78,342.22,164.5,342.22,165.25z"/>
		<g>
			<path class="st5" d="M77.43,278.28c-0.31,0-0.56-0.07-0.76-0.22c-0.19-0.14-0.32-0.34-0.37-0.58c-0.05-0.24,0-0.52,0.14-0.82
				l4.27-9.36c0.18-0.38,0.39-0.65,0.63-0.83c0.24-0.17,0.53-0.26,0.85-0.26c0.32,0,0.61,0.09,0.85,0.26
				c0.24,0.17,0.45,0.45,0.62,0.83l4.3,9.36c0.14,0.3,0.2,0.58,0.16,0.83c-0.04,0.25-0.15,0.45-0.34,0.58
				c-0.19,0.14-0.43,0.21-0.73,0.21c-0.38,0-0.67-0.09-0.88-0.27c-0.21-0.18-0.39-0.46-0.54-0.83l-1-2.32l1.03,0.72h-6.96l1.03-0.72
				l-0.98,2.32c-0.17,0.39-0.34,0.67-0.53,0.84S77.79,278.28,77.43,278.28z M82.17,269.12l-2.14,5.09l-0.45-0.65h5.22l-0.45,0.65
				l-2.15-5.09H82.17z"/>
			<path class="st5" d="M90.9,278.13c-0.42,0-0.75-0.12-0.98-0.35c-0.23-0.23-0.34-0.56-0.34-0.97v-9.16c0-0.43,0.11-0.76,0.33-0.98
				c0.22-0.22,0.54-0.33,0.97-0.33c0.41,0,0.73,0.11,0.95,0.33c0.22,0.22,0.33,0.55,0.33,0.98v8.29h4.47c0.36,0,0.63,0.09,0.83,0.28
				c0.19,0.19,0.29,0.46,0.29,0.8c0,0.36-0.1,0.63-0.29,0.82c-0.19,0.19-0.47,0.28-0.83,0.28H90.9z"/>
			<path class="st5" d="M101.62,278.28c-0.36,0-0.65-0.09-0.87-0.26c-0.22-0.17-0.4-0.44-0.53-0.79l-3.37-9.48
				c-0.14-0.42-0.11-0.78,0.09-1.08c0.21-0.3,0.56-0.45,1.08-0.45c0.36,0,0.63,0.08,0.83,0.25c0.19,0.17,0.35,0.43,0.48,0.78
				l2.75,8.19h-0.72l2.9-8.18c0.13-0.36,0.3-0.62,0.49-0.79c0.19-0.17,0.45-0.26,0.78-0.26c0.31,0,0.56,0.09,0.75,0.26
				c0.19,0.17,0.35,0.44,0.48,0.81l2.77,8.16h-0.62l2.8-8.19c0.11-0.34,0.27-0.6,0.47-0.78c0.2-0.17,0.47-0.26,0.82-0.26
				c0.43,0,0.75,0.15,0.95,0.45c0.2,0.3,0.22,0.66,0.07,1.08l-3.4,9.49c-0.12,0.34-0.29,0.6-0.5,0.78c-0.21,0.17-0.5,0.26-0.87,0.26
				c-0.36,0-0.64-0.09-0.85-0.26c-0.21-0.17-0.38-0.44-0.52-0.79l-2.64-7.46h0.4l-2.67,7.47c-0.13,0.34-0.3,0.6-0.51,0.78
				C102.26,278.19,101.98,278.28,101.62,278.28z"/>
			<path class="st5" d="M115.15,278.28c-0.31,0-0.56-0.07-0.76-0.22c-0.19-0.14-0.32-0.34-0.37-0.58c-0.05-0.24,0-0.52,0.14-0.82
				l4.27-9.36c0.18-0.38,0.39-0.65,0.63-0.83c0.24-0.17,0.53-0.26,0.85-0.26c0.32,0,0.61,0.09,0.85,0.26
				c0.24,0.17,0.45,0.45,0.62,0.83l4.3,9.36c0.14,0.3,0.2,0.58,0.16,0.83c-0.04,0.25-0.15,0.45-0.34,0.58
				c-0.19,0.14-0.43,0.21-0.73,0.21c-0.38,0-0.67-0.09-0.88-0.27c-0.21-0.18-0.39-0.46-0.54-0.83l-1-2.32l1.03,0.72h-6.96l1.03-0.72
				l-0.98,2.32c-0.17,0.39-0.34,0.67-0.53,0.84C115.78,278.19,115.51,278.28,115.15,278.28z M119.89,269.12l-2.14,5.09l-0.45-0.65
				h5.22l-0.45,0.65l-2.15-5.09H119.89z"/>
			<path class="st5" d="M130.09,278.28c-0.42,0-0.75-0.12-0.97-0.35c-0.22-0.23-0.33-0.56-0.33-0.98v-8.44h-2.95
				c-0.34,0-0.61-0.09-0.8-0.28c-0.19-0.19-0.28-0.45-0.28-0.78c0-0.34,0.09-0.61,0.28-0.79c0.19-0.18,0.46-0.28,0.8-0.28h8.49
				c0.34,0,0.61,0.09,0.8,0.28c0.19,0.18,0.28,0.45,0.28,0.79c0,0.33-0.09,0.6-0.28,0.78c-0.19,0.19-0.46,0.28-0.8,0.28h-2.95v8.44
				c0,0.42-0.11,0.75-0.33,0.98C130.83,278.16,130.51,278.28,130.09,278.28z"/>
			<path class="st5" d="M135.46,278.28c-0.31,0-0.56-0.07-0.76-0.22c-0.19-0.14-0.32-0.34-0.37-0.58c-0.05-0.24,0-0.52,0.14-0.82
				l4.27-9.36c0.18-0.38,0.39-0.65,0.63-0.83c0.24-0.17,0.53-0.26,0.85-0.26c0.32,0,0.61,0.09,0.85,0.26
				c0.24,0.17,0.45,0.45,0.62,0.83l4.3,9.36c0.14,0.3,0.2,0.58,0.16,0.83c-0.04,0.25-0.15,0.45-0.34,0.58
				c-0.19,0.14-0.43,0.21-0.73,0.21c-0.38,0-0.67-0.09-0.88-0.27c-0.21-0.18-0.39-0.46-0.54-0.83l-1-2.32l1.03,0.72h-6.96l1.03-0.72
				l-0.98,2.32c-0.17,0.39-0.34,0.67-0.53,0.84S135.81,278.28,135.46,278.28z M140.2,269.12l-2.14,5.09l-0.45-0.65h5.22l-0.45,0.65
				l-2.15-5.09H140.2z"/>
			<path class="st5" d="M148.8,278.28c-0.39,0-0.69-0.11-0.89-0.33c-0.21-0.22-0.31-0.53-0.31-0.93v-9.51c0-0.42,0.1-0.74,0.31-0.97
				c0.21-0.22,0.48-0.33,0.83-0.33c0.3,0,0.53,0.06,0.69,0.18c0.16,0.12,0.35,0.31,0.56,0.58l5.86,7.46h-0.45v-6.97
				c0-0.39,0.1-0.69,0.31-0.91c0.21-0.22,0.5-0.33,0.89-0.33c0.39,0,0.69,0.11,0.89,0.33c0.21,0.22,0.31,0.52,0.31,0.91v9.63
				c0,0.37-0.09,0.66-0.28,0.88c-0.19,0.22-0.44,0.33-0.77,0.33c-0.31,0-0.56-0.06-0.74-0.18c-0.18-0.12-0.38-0.32-0.59-0.58
				l-5.84-7.46h0.43v6.97c0,0.4-0.1,0.71-0.3,0.93C149.5,278.17,149.2,278.28,148.8,278.28z"/>
			<path class="st5" d="M161.38,278.28c-0.42,0-0.75-0.12-0.97-0.35c-0.22-0.23-0.33-0.56-0.33-0.98v-9.39
				c0-0.42,0.11-0.75,0.33-0.98c0.22-0.23,0.54-0.35,0.97-0.35c0.41,0,0.73,0.12,0.95,0.35c0.22,0.23,0.33,0.56,0.33,0.98v9.39
				c0,0.42-0.11,0.75-0.33,0.98C162.13,278.16,161.81,278.28,161.38,278.28z"/>
			<path class="st5" d="M169.04,278.28c-0.42,0-0.75-0.12-0.97-0.35c-0.22-0.23-0.33-0.57-0.33-1v-4.84l0.53,1.48l-3.94-5.59
				c-0.16-0.23-0.22-0.49-0.2-0.76c0.02-0.27,0.13-0.51,0.33-0.71c0.2-0.2,0.48-0.3,0.85-0.3c0.27,0,0.51,0.07,0.73,0.2
				c0.22,0.13,0.43,0.34,0.63,0.63l2.67,3.85h-0.53l2.67-3.85c0.21-0.3,0.42-0.51,0.63-0.64c0.21-0.13,0.45-0.19,0.73-0.19
				c0.36,0,0.63,0.09,0.83,0.28s0.31,0.41,0.32,0.68c0.01,0.27-0.08,0.55-0.28,0.84l-3.89,5.56l0.52-1.48v4.84
				C170.33,277.83,169.9,278.28,169.04,278.28z"/>
			<path class="st5" d="M174.65,278.28c-0.31,0-0.56-0.07-0.76-0.22c-0.19-0.14-0.32-0.34-0.37-0.58c-0.05-0.24,0-0.52,0.14-0.82
				l4.27-9.36c0.18-0.38,0.39-0.65,0.63-0.83c0.24-0.17,0.53-0.26,0.85-0.26s0.61,0.09,0.85,0.26c0.24,0.17,0.45,0.45,0.62,0.83
				l4.3,9.36c0.14,0.3,0.2,0.58,0.16,0.83c-0.04,0.25-0.15,0.45-0.34,0.58c-0.19,0.14-0.43,0.21-0.73,0.21
				c-0.38,0-0.67-0.09-0.88-0.27c-0.21-0.18-0.39-0.46-0.54-0.83l-1-2.32l1.03,0.72h-6.96l1.03-0.72l-0.98,2.32
				c-0.17,0.39-0.34,0.67-0.53,0.84C175.27,278.19,175,278.28,174.65,278.28z M179.38,269.12l-2.14,5.09l-0.45-0.65h5.22l-0.45,0.65
				l-2.15-5.09H179.38z"/>
			<path class="st5" d="M192.66,278.28c-0.42,0-0.75-0.12-0.97-0.35c-0.22-0.23-0.33-0.56-0.33-0.98v-9.26
				c0-0.43,0.11-0.76,0.34-0.98s0.55-0.33,0.98-0.33h4.05c1.31,0,2.32,0.33,3.04,0.99c0.71,0.66,1.07,1.58,1.07,2.76
				c0,1.18-0.36,2.1-1.07,2.77c-0.71,0.67-1.72,1-3.04,1h-2.79v3.05c0,0.42-0.11,0.75-0.33,0.98
				C193.41,278.16,193.09,278.28,192.66,278.28z M193.95,271.89h2.35c0.67,0,1.18-0.15,1.53-0.45c0.35-0.3,0.53-0.74,0.53-1.32
				c0-0.58-0.18-1.01-0.53-1.3c-0.35-0.29-0.86-0.43-1.53-0.43h-2.35V271.89z"/>
			<path class="st5" d="M203.66,278.28c-0.42,0-0.75-0.12-0.97-0.35c-0.22-0.23-0.33-0.56-0.33-0.98v-9.39
				c0-0.42,0.11-0.75,0.33-0.98c0.22-0.23,0.54-0.35,0.97-0.35c0.41,0,0.73,0.12,0.95,0.35c0.22,0.23,0.33,0.56,0.33,0.98v9.39
				c0,0.42-0.11,0.75-0.33,0.98C204.4,278.16,204.08,278.28,203.66,278.28z"/>
			<path class="st5" d="M212.68,278.31c-1.16,0-2.17-0.25-3.04-0.76c-0.87-0.51-1.55-1.21-2.04-2.13c-0.48-0.91-0.73-1.97-0.73-3.19
				c0-0.92,0.14-1.75,0.41-2.49c0.27-0.74,0.66-1.37,1.18-1.9s1.13-0.94,1.84-1.23c0.72-0.29,1.51-0.43,2.38-0.43
				c1.18,0,2.2,0.25,3.07,0.75s1.54,1.2,2.03,2.11c0.48,0.91,0.73,1.97,0.73,3.18c0,0.92-0.14,1.76-0.42,2.5
				c-0.28,0.75-0.67,1.38-1.18,1.92c-0.51,0.53-1.12,0.95-1.84,1.23C214.36,278.17,213.56,278.31,212.68,278.31z M212.68,276.11
				c0.66,0,1.22-0.15,1.68-0.46c0.46-0.31,0.82-0.75,1.07-1.33c0.25-0.58,0.38-1.28,0.38-2.08c0-1.22-0.27-2.17-0.82-2.84
				c-0.54-0.67-1.31-1.01-2.3-1.01c-0.65,0-1.2,0.15-1.67,0.45c-0.47,0.3-0.82,0.74-1.07,1.32c-0.24,0.58-0.37,1.27-0.37,2.09
				c0,1.21,0.27,2.16,0.82,2.84C210.94,275.77,211.7,276.11,212.68,276.11z"/>
			<path class="st5" d="M221.63,278.28c-0.39,0-0.69-0.11-0.89-0.33c-0.21-0.22-0.31-0.53-0.31-0.93v-9.51
				c0-0.42,0.1-0.74,0.31-0.97c0.21-0.22,0.48-0.33,0.83-0.33c0.3,0,0.53,0.06,0.69,0.18c0.16,0.12,0.35,0.31,0.56,0.58l5.86,7.46
				h-0.45v-6.97c0-0.39,0.1-0.69,0.31-0.91c0.21-0.22,0.5-0.33,0.89-0.33s0.69,0.11,0.89,0.33c0.21,0.22,0.31,0.52,0.31,0.91v9.63
				c0,0.37-0.09,0.66-0.28,0.88c-0.19,0.22-0.45,0.33-0.77,0.33c-0.31,0-0.56-0.06-0.74-0.18c-0.18-0.12-0.38-0.32-0.59-0.58
				l-5.84-7.46h0.43v6.97c0,0.4-0.1,0.71-0.3,0.93C222.33,278.17,222.03,278.28,221.63,278.28z"/>
			<path class="st5" d="M234.25,278.13c-0.43,0-0.77-0.12-1-0.35s-0.35-0.57-0.35-1v-9.06c0-0.43,0.12-0.77,0.35-1s0.57-0.35,1-0.35
				h5.82c0.33,0,0.59,0.09,0.76,0.26c0.17,0.17,0.26,0.42,0.26,0.74c0,0.33-0.09,0.59-0.26,0.76c-0.17,0.17-0.43,0.26-0.76,0.26
				h-4.7v2.75h4.32c0.34,0,0.6,0.09,0.78,0.26c0.17,0.17,0.26,0.43,0.26,0.76c0,0.33-0.09,0.59-0.26,0.76
				c-0.17,0.17-0.43,0.26-0.78,0.26h-4.32v2.94h4.7c0.33,0,0.59,0.09,0.76,0.26c0.17,0.17,0.26,0.42,0.26,0.74
				c0,0.33-0.09,0.59-0.26,0.76c-0.17,0.17-0.43,0.26-0.76,0.26H234.25z"/>
			<path class="st5" d="M244.26,278.13c-0.43,0-0.77-0.12-1-0.35c-0.23-0.23-0.35-0.57-0.35-1v-9.06c0-0.43,0.12-0.77,0.35-1
				c0.23-0.23,0.57-0.35,1-0.35h5.82c0.33,0,0.59,0.09,0.76,0.26c0.17,0.17,0.26,0.42,0.26,0.74c0,0.33-0.09,0.59-0.26,0.76
				c-0.17,0.17-0.43,0.26-0.76,0.26h-4.7v2.75h4.32c0.34,0,0.6,0.09,0.78,0.26c0.17,0.17,0.26,0.43,0.26,0.76
				c0,0.33-0.09,0.59-0.26,0.76c-0.17,0.17-0.43,0.26-0.78,0.26h-4.32v2.94h4.7c0.33,0,0.59,0.09,0.76,0.26
				c0.17,0.17,0.26,0.42,0.26,0.74c0,0.33-0.09,0.59-0.26,0.76c-0.17,0.17-0.43,0.26-0.76,0.26H244.26z"/>
			<path class="st5" d="M254.22,278.28c-0.42,0-0.75-0.12-0.97-0.35c-0.22-0.23-0.33-0.56-0.33-0.98v-9.26
				c0-0.43,0.11-0.76,0.34-0.98c0.23-0.22,0.55-0.33,0.98-0.33h4.05c1.31,0,2.32,0.32,3.04,0.95c0.71,0.63,1.07,1.52,1.07,2.65
				c0,0.73-0.16,1.37-0.48,1.9c-0.32,0.53-0.79,0.95-1.39,1.23c-0.61,0.29-1.35,0.43-2.23,0.43l0.13-0.28h0.68
				c0.47,0,0.88,0.11,1.23,0.34c0.35,0.23,0.65,0.58,0.91,1.04l1.03,1.92c0.16,0.28,0.23,0.55,0.22,0.82
				c-0.01,0.27-0.11,0.48-0.3,0.65c-0.19,0.17-0.47,0.25-0.83,0.25c-0.37,0-0.66-0.08-0.89-0.23c-0.23-0.16-0.43-0.39-0.61-0.72
				l-1.6-2.95c-0.17-0.31-0.37-0.52-0.61-0.63c-0.24-0.11-0.53-0.17-0.88-0.17h-1.27v3.37c0,0.42-0.11,0.75-0.33,0.98
				C254.97,278.16,254.65,278.28,254.22,278.28z M255.51,271.71h2.32c0.69,0,1.21-0.14,1.56-0.42c0.35-0.28,0.53-0.69,0.53-1.25
				c0-0.54-0.18-0.96-0.53-1.23c-0.35-0.28-0.87-0.42-1.56-0.42h-2.32V271.71z"/>
		</g>
	</g>
</g>
</svg>
