<?xml version="1.0" encoding="utf-8"?>
<!-- Generator: Adobe Illustrator 26.0.1, SVG Export Plug-In . SVG Version: 6.00 Build 0)  -->
<svg version="1.1" id="Layer_1" xmlns="http://www.w3.org/2000/svg" xmlns:xlink="http://www.w3.org/1999/xlink" x="0px" y="0px"
	 viewBox="0 0 400 400" style="enable-background:new 0 0 400 400;" xml:space="preserve">
<style type="text/css">
	.st0{fill:#153C5E;}
	.st1{fill:none;}
	.st2{fill:#959290;}
	.st3{fill:url(#SVGID_1_);}
	.st4{fill:url(#SVGID_00000006709680425723378510000008568981526782891163_);}
</style>
<g>
	<g>
		<path class="st0" d="M262.53,180.43v4.61l-9.45,9.33v-10.17c0-4.82-3.91-8.73-8.74-8.73h-0.01c-7.83,0-14.18,6.35-14.18,14.19
			v29.74h-10.6v-35.2c0-4.82-3.91-8.73-8.74-8.73c-3.91,0-7.46,1.59-10.03,4.16l-4.73,4.72l-19.65,19.65v15.4h-9.58v-5.7
			c-4.66,3.97-10.7,6.37-17.29,6.37c-14.72,0-26.69-11.98-26.69-26.69c0-14.73,11.98-26.7,26.69-26.7c6.6,0,12.63,2.4,17.29,6.37
			v-6.22h9.58v17.97l-1.22,1.16l-7.8,7.42c0-1.54-0.2-3.04-0.56-4.46c-1.99-7.7-8.98-13.39-17.29-13.39
			c-9.85,0-17.85,7.99-17.85,17.86c0,10.87,10.21,18.15,17.85,17.85c3.02-0.12,6.76-1.47,9.82-3.81c2.17-1.66,3.55-3.49,4.37-4.75
			c4.13-3.96,8.26-7.93,12.39-11.91l0.29-0.3l10.08-10.07v-13.57h9.58v3.99c0.06,0.46,0.11,0.93,0.17,1.4
			c1.33-1.6,4.17-4.54,8.71-5.98c0.52-0.17,2.98-0.91,6.29-0.83c1.6,0.04,4.88,0.17,8.33,2.04c4.47,2.42,6.56,6.31,7.31,7.91
			c0.3-0.48,0.78-1.17,1.41-1.94c0.57-0.69,7.69-9.05,17.66-8.01C253.53,166.19,260.24,172.18,262.53,180.43z"/>
		<path class="st0" d="M378.67,180.43v38.97h-9.78v-35.2c-0.07-1.07-0.39-3.88-2.56-6.17c-2.75-2.91-7.36-3.78-11.67-2.18
			c-1.54,1.11-3.15,2.34-4.79,3.72c-1.53,1.28-2.94,2.54-4.23,3.77l-19.97,19.97v16.1h-10.28v-5.7c-4.66,3.97-10.7,6.37-17.28,6.37
			c-12.19,0-22.5-8.2-25.67-19.37l7.84-8.17c-0.01,0.28-0.02,0.56-0.02,0.85c0,9.85,7.99,17.85,17.86,17.85
			c8.31,0,15.3-5.69,17.28-13.38c0.36-1.43,0.56-2.92,0.56-4.46s-0.2-3.04-0.56-4.46c-1.99-7.7-8.98-13.39-17.28-13.39
			c-3.23,0-6.27,0.86-8.89,2.37c-2.73,1.56-5.01,3.84-6.58,6.58l-0.01,0.01L271.5,195.6l-8.97,8.97v14.84h-9.45v-18.92l9.45-9.45
			c2.52-2.65,5.65-5.93,9.31-9.66c7.72-7.88,11.14-11.06,16.5-13.56c1.76-0.83,3.26-1.35,4.21-1.66c1.99-0.53,7.04-1.59,12.97,0.36
			c5.28,1.74,8.5,4.98,9.87,6.53v-6.22h10.28v22.93l9.69-9.68v-13.24h10.27c0.01,1.54,0.02,3.08,0.02,4.62
			c1.16-1.37,3.69-3.95,7.76-5.28c2.8-0.91,5.13-0.83,6.71-0.76c1.89,0.09,6.38,0.29,10.69,3.18
			C376.68,172.51,378.29,178.77,378.67,180.43z"/>
		<polygon class="st0" points="196.06,190.61 196.06,219.4 186.48,219.4 186.48,200.15 		"/>
		<polygon class="st0" points="345.64,189.47 345.64,219.4 335.51,219.4 335.51,199.18 		"/>
		<line class="st1" x1="262.53" y1="185.04" x2="253.08" y2="194.37"/>
	</g>
	<g>
		<path class="st2" d="M143.8,237.7v-2.03h5.23v4.79c-0.58,0.57-1.39,1.03-2.41,1.38c-0.94,0.33-1.85,0.49-2.73,0.49
			c-2.63,0-4.42-1.02-5.4-3.06c-0.47-0.98-0.71-2.04-0.71-3.2c0-2.66,1.03-4.52,3.09-5.58c0.78-0.4,1.74-0.6,2.88-0.6
			c2.9,0,4.61,1.18,5.12,3.54l-2.42,0.46c-0.36-1.28-1.26-1.92-2.7-1.92c-1.16,0-2.04,0.38-2.64,1.15c-0.54,0.7-0.81,1.65-0.81,2.86
			c0,1.24,0.26,2.24,0.77,2.99c0.59,0.87,1.48,1.31,2.66,1.31c1.01,0,1.96-0.34,2.84-1.03v-1.53H143.8z"/>
		<path class="st2" d="M160.56,230.09H163v6.51c0,1.05,0.03,1.72,0.09,2.02c0.22,1.09,1,1.63,2.33,1.63c1.29,0,2.02-0.49,2.18-1.46
			c0.07-0.41,0.11-1.09,0.11-2.04v-6.66h2.43v6.32c0,1.15-0.03,1.95-0.08,2.38c-0.12,0.95-0.4,1.68-0.84,2.19
			c-0.77,0.9-2.01,1.35-3.73,1.35c-1.9,0-3.24-0.48-4.02-1.44c-0.35-0.43-0.57-0.87-0.68-1.33c-0.16-0.68-0.24-1.7-0.24-3.05V230.09
			z"/>
		<path class="st2" d="M182.07,242.12v-11.93h2.44v9.9h6.03v2.03H182.07z"/>
		<path class="st2" d="M201.59,242.12v-12.02h8.24v2.04h-5.81v2.83h5.01V237h-5.01v5.11H201.59z"/>
		<path class="st2" d="M244.05,237.7l2.36,0.75c-0.71,2.59-2.38,3.88-5,3.88c-1.72,0-3.08-0.6-4.07-1.8
			c-0.94-1.12-1.4-2.56-1.4-4.32c0-1.86,0.46-3.36,1.39-4.49c1-1.22,2.42-1.83,4.24-1.83c1.46,0,2.66,0.43,3.58,1.3
			c0.55,0.52,0.96,1.25,1.23,2.22l-2.4,0.57c-0.14-0.63-0.44-1.12-0.89-1.48c-0.45-0.36-1-0.54-1.64-0.54c-2,0-3,1.36-3,4.07
			c0,2.82,0.98,4.23,2.95,4.23C242.77,240.26,243.66,239.4,244.05,237.7z"/>
		<path class="st2" d="M257.29,236.17c0-2.01,0.56-3.58,1.67-4.73c1.01-1.04,2.39-1.56,4.15-1.56c1.86,0,3.31,0.58,4.35,1.74
			c1,1.12,1.5,2.62,1.5,4.49c0,1.87-0.5,3.36-1.49,4.47c-1.04,1.16-2.48,1.74-4.32,1.74c-1.85,0-3.29-0.57-4.34-1.7
			C257.79,239.52,257.29,238.04,257.29,236.17z M259.8,236.09c0,1.18,0.25,2.14,0.76,2.89c0.59,0.85,1.44,1.28,2.56,1.28
			c1.13,0,1.98-0.43,2.56-1.3c0.49-0.74,0.74-1.7,0.74-2.9c0-1.21-0.25-2.16-0.74-2.88c-0.56-0.82-1.42-1.23-2.56-1.23
			s-2.01,0.42-2.58,1.25C260.05,233.92,259.8,234.89,259.8,236.09z"/>
		<path class="st2" d="M280.11,242.12v-12.02h3.64l2.19,8.2l2.15-8.2h3.65v12.02h-2.27v-9.47l-2.38,9.47h-2.33l-2.37-9.47v9.47
			H280.11z"/>
		<path class="st2" d="M303.44,242.12v-12.02h3.9c1.47,0,2.43,0.06,2.88,0.17c0.79,0.21,1.4,0.65,1.83,1.32
			c0.4,0.62,0.6,1.36,0.6,2.21c0,1.37-0.47,2.38-1.42,3.04c-0.43,0.29-0.85,0.48-1.27,0.56c-0.55,0.12-1.39,0.17-2.51,0.17h-1.58
			v4.54H303.44z M305.87,232.14v3.39h1.33c0.71,0,1.2-0.02,1.46-0.07c0.56-0.1,0.96-0.34,1.21-0.7c0.18-0.27,0.27-0.58,0.27-0.93
			c0-0.91-0.45-1.44-1.35-1.6c-0.3-0.05-0.88-0.08-1.74-0.08H305.87z"/>
		<path class="st2" d="M334.79,242.12h-2.64l-1.05-2.73h-4.81l-0.98,2.73h-2.58l4.69-12.02h2.57L334.79,242.12z M330.31,237.35
			l-1.65-4.47l-1.63,4.47H330.31z"/>
		<path class="st2" d="M345.4,242.12v-12.02h2.37l4.9,8.03v-8.03h2.26v12.02h-2.44l-4.83-7.84v7.84H345.4z"/>
		<path class="st2" d="M369.96,242.12v-5.06l-4.41-6.96h2.85l2.83,4.76l2.78-4.76h2.8l-4.42,6.98v5.04H369.96z"/>
	</g>
	<g>
		<linearGradient id="SVGID_1_" gradientUnits="userSpaceOnUse" x1="96.2538" y1="162.9603" x2="43.8231" y2="243.8113">
			<stop  offset="0.1088" style="stop-color:#E2131A"/>
			<stop  offset="0.3454" style="stop-color:#C1425F"/>
			<stop  offset="0.5359" style="stop-color:#A15790"/>
			<stop  offset="0.6215" style="stop-color:#925DA3"/>
			<stop  offset="0.7906" style="stop-color:#8D99B9"/>
			<stop  offset="0.9334" style="stop-color:#88BDBD"/>
			<stop  offset="1" style="stop-color:#86C9BB"/>
		</linearGradient>
		<path class="st3" d="M105.03,198.08c-0.08,0-0.08-0.24-0.16-0.24c-1.58-0.87-4.1-1.89-7.17-1.66
			c-7.41,0.39-12.22,7.65-24.51,25.46c-2.44,3.47-7.02,10.01-12.93,18.45c-1.02,1.58-2.76,2.44-4.65,2.44l-25.54,0.16h-0.08
			c-3.47,0-5.99-1.66-7.41-4.02c-1.81-3.23-1.73-7.8,0.79-11.67l42.33-65.58c2.05-3.15,5.52-4.49,8.91-4.02
			c2.05,0.16,4.02,1.18,5.44,2.84c0.47,0.39,0.71,0.79,1.02,1.18L105.03,198.08z"/>
		
			<linearGradient id="SVGID_00000042734262603944169850000011092858842216674226_" gradientUnits="userSpaceOnUse" x1="83.2231" y1="205.0688" x2="117.0336" y2="243.0443">
			<stop  offset="0" style="stop-color:#E4042A"/>
			<stop  offset="0.0979" style="stop-color:#E5282B"/>
			<stop  offset="0.2904" style="stop-color:#E7572D"/>
			<stop  offset="0.5586" style="stop-color:#ED9228"/>
			<stop  offset="0.8893" style="stop-color:#F4D300"/>
			<stop  offset="1" style="stop-color:#F6E700"/>
		</linearGradient>
		<path style="fill:url(#SVGID_00000042734262603944169850000011092858842216674226_);" d="M116.62,242.69H92.19
			c-2.57,0-4.99-1.25-6.48-3.35l-12.53-17.7c12.3-17.81,17.11-25.07,24.51-25.46c3.07-0.24,5.6,0.79,7.17,1.66l19.47,29.48
			C129.07,233.63,124.5,242.69,116.62,242.69z"/>
	</g>
</g>
</svg>
