<?xml version="1.0" encoding="utf-8"?>
<!-- Generator: Adobe Illustrator 26.0.1, SVG Export Plug-In . SVG Version: 6.00 Build 0)  -->
<svg version="1.1" id="Layer_1" xmlns="http://www.w3.org/2000/svg" xmlns:xlink="http://www.w3.org/1999/xlink" x="0px" y="0px"
	 viewBox="0 0 350 350" style="enable-background:new 0 0 350 350;" xml:space="preserve">
<style type="text/css">
	.st0{fill:#143C5D;}
	.st1{fill:none;}
	.st2{fill:#95918F;}
	.st3{fill:url(#SVGID_1_);}
	.st4{fill:url(#SVGID_00000038382755333660744980000004618720084581719739_);}
</style>
<g>
	<g>
		<path class="st0" d="M233.52,156.68V161l-8.84,8.73v-9.52c0-4.51-3.66-8.17-8.18-8.17h-0.01c-7.33,0-13.27,5.94-13.27,13.28v27.84
			h-9.92v-32.94c0-4.51-3.66-8.17-8.18-8.17c-3.66,0-6.98,1.49-9.39,3.89l-4.43,4.42l-18.4,18.4v14.41h-8.96v-5.34
			c-4.36,3.72-10.01,5.96-16.19,5.96c-13.78,0-24.98-11.21-24.98-24.98c0-13.79,11.21-24.99,24.98-24.99
			c6.17,0,11.82,2.25,16.19,5.96v-5.83h8.96v16.82l-1.14,1.09l-7.3,6.95c0-1.44-0.18-2.84-0.52-4.18
			c-1.86-7.21-8.4-12.53-16.19-12.53c-9.22,0-16.7,7.48-16.7,16.71c0,10.18,9.55,16.99,16.7,16.7c2.83-0.11,6.33-1.38,9.19-3.56
			c2.03-1.56,3.32-3.27,4.09-4.44c3.86-3.71,7.73-7.43,11.59-11.14l0.28-0.29l9.43-9.42v-12.7h8.96v3.74
			c0.06,0.43,0.1,0.87,0.16,1.31c1.24-1.5,3.9-4.25,8.15-5.6c0.49-0.16,2.79-0.86,5.89-0.77c1.5,0.04,4.56,0.16,7.79,1.9
			c4.19,2.26,6.14,5.91,6.84,7.41c0.29-0.45,0.73-1.1,1.32-1.81c0.53-0.64,7.2-8.47,16.53-7.5
			C225.1,143.36,231.38,148.96,233.52,156.68z"/>
		<path class="st0" d="M342.22,156.68v36.48h-9.16v-32.94c-0.06-1-0.37-3.63-2.39-5.78c-2.58-2.72-6.89-3.53-10.92-2.04
			c-1.44,1.04-2.94,2.19-4.48,3.48c-1.44,1.2-2.75,2.37-3.96,3.52l-18.69,18.69v15.07H283v-5.34c-4.36,3.72-10.01,5.96-16.18,5.96
			c-11.41,0-21.05-7.67-24.03-18.13l7.33-7.65c-0.01,0.26-0.02,0.52-0.02,0.79c0,9.22,7.48,16.7,16.71,16.7
			c7.78,0,14.32-5.33,16.18-12.52c0.34-1.33,0.52-2.73,0.52-4.18c0-1.44-0.18-2.84-0.52-4.18c-1.86-7.21-8.4-12.53-16.18-12.53
			c-3.03,0-5.87,0.8-8.32,2.22c-2.56,1.46-4.69,3.6-6.16,6.16l-0.01,0.01l-10.42,10.41l-8.39,8.39v13.89h-8.84v-17.71l8.84-8.84
			c2.36-2.48,5.29-5.55,8.71-9.05c7.22-7.37,10.43-10.35,15.44-12.69c1.65-0.77,3.06-1.26,3.94-1.56c1.86-0.5,6.59-1.49,12.14,0.34
			c4.94,1.63,7.96,4.66,9.24,6.11v-5.83h9.63v21.46l9.07-9.06v-12.4h9.62c0.01,1.44,0.02,2.88,0.02,4.33
			c1.09-1.28,3.45-3.7,7.26-4.94c2.62-0.86,4.8-0.77,6.28-0.71c1.77,0.08,5.97,0.27,10,2.97
			C340.36,149.27,341.87,155.13,342.22,156.68z"/>
		<polygon class="st0" points="171.31,166.21 171.31,193.16 162.34,193.16 162.34,175.14 		"/>
		<polygon class="st0" points="311.31,165.14 311.31,193.16 301.83,193.16 301.83,174.23 		"/>
		<line class="st1" x1="233.52" y1="161" x2="224.68" y2="169.73"/>
	</g>
	<g>
		<path class="st2" d="M122.4,210.28v-1.9h4.9v4.49c-0.55,0.53-1.3,0.96-2.25,1.29c-0.88,0.31-1.73,0.46-2.56,0.46
			c-2.46,0-4.14-0.96-5.05-2.87c-0.44-0.92-0.67-1.91-0.67-2.99c0-2.49,0.96-4.23,2.89-5.22c0.73-0.38,1.63-0.56,2.7-0.56
			c2.71,0,4.31,1.1,4.79,3.31l-2.27,0.43c-0.34-1.2-1.18-1.8-2.53-1.8c-1.09,0-1.91,0.36-2.48,1.08c-0.5,0.66-0.76,1.55-0.76,2.68
			c0,1.16,0.24,2.1,0.72,2.8c0.56,0.81,1.39,1.22,2.49,1.22c0.95,0,1.83-0.32,2.65-0.97v-1.43H122.4z"/>
		<path class="st2" d="M138.08,203.17h2.29v6.1c0,0.98,0.03,1.61,0.09,1.89c0.2,1.02,0.93,1.53,2.18,1.53
			c1.21,0,1.89-0.46,2.04-1.37c0.07-0.39,0.1-1.02,0.1-1.91v-6.23h2.28v5.91c0,1.08-0.03,1.82-0.08,2.23
			c-0.11,0.89-0.38,1.57-0.78,2.05c-0.72,0.84-1.89,1.26-3.49,1.26c-1.78,0-3.03-0.45-3.76-1.35c-0.32-0.4-0.54-0.81-0.64-1.25
			c-0.15-0.64-0.22-1.59-0.22-2.86V203.17z"/>
		<path class="st2" d="M158.22,214.42v-11.17h2.29v9.27h5.64v1.9H158.22z"/>
		<path class="st2" d="M176.48,214.42v-11.25h7.71v1.91h-5.43v2.65h4.69v1.91h-4.69v4.79H176.48z"/>
		<path class="st2" d="M216.23,210.28l2.21,0.7c-0.67,2.42-2.23,3.63-4.68,3.63c-1.61,0-2.88-0.56-3.81-1.68
			c-0.88-1.05-1.31-2.39-1.31-4.04c0-1.74,0.44-3.14,1.31-4.21c0.94-1.14,2.26-1.71,3.97-1.71c1.37,0,2.49,0.41,3.35,1.22
			c0.51,0.48,0.9,1.17,1.15,2.07l-2.25,0.54c-0.13-0.59-0.41-1.05-0.83-1.39c-0.42-0.34-0.94-0.51-1.54-0.51
			c-1.87,0-2.8,1.27-2.8,3.81c0,2.64,0.92,3.96,2.76,3.96C215.03,212.68,215.86,211.88,216.23,210.28z"/>
		<path class="st2" d="M228.62,208.86c0-1.88,0.52-3.35,1.56-4.43c0.94-0.97,2.24-1.46,3.88-1.46c1.74,0,3.1,0.54,4.07,1.63
			c0.94,1.05,1.41,2.45,1.41,4.21c0,1.75-0.47,3.15-1.4,4.18c-0.97,1.09-2.32,1.63-4.04,1.63c-1.73,0-3.08-0.53-4.06-1.6
			C229.09,211.99,228.62,210.6,228.62,208.86z M230.97,208.78c0,1.11,0.24,2.01,0.71,2.7c0.55,0.8,1.35,1.2,2.4,1.2
			c1.05,0,1.85-0.4,2.4-1.21c0.46-0.69,0.69-1.59,0.69-2.71c0-1.13-0.23-2.03-0.69-2.69c-0.53-0.77-1.33-1.15-2.4-1.15
			c-1.07,0-1.88,0.39-2.42,1.17C231.21,206.75,230.97,207.65,230.97,208.78z"/>
		<path class="st2" d="M249.98,214.42v-11.25h3.4l2.05,7.68l2.01-7.68h3.41v11.25h-2.12v-8.86l-2.23,8.86h-2.18l-2.22-8.86v8.86
			H249.98z"/>
		<path class="st2" d="M271.81,214.42v-11.25h3.65c1.38,0,2.27,0.05,2.7,0.16c0.74,0.2,1.31,0.61,1.71,1.24
			c0.38,0.58,0.56,1.27,0.56,2.06c0,1.28-0.44,2.23-1.33,2.85c-0.4,0.27-0.79,0.45-1.18,0.53c-0.52,0.11-1.3,0.16-2.35,0.16h-1.48
			v4.25H271.81z M274.09,205.08v3.17h1.24c0.67,0,1.12-0.02,1.37-0.07c0.52-0.1,0.9-0.31,1.13-0.65c0.17-0.25,0.25-0.54,0.25-0.87
			c0-0.85-0.42-1.35-1.27-1.5c-0.28-0.05-0.82-0.08-1.63-0.08H274.09z"/>
		<path class="st2" d="M301.15,214.42h-2.47l-0.98-2.56h-4.5l-0.92,2.56h-2.41l4.39-11.25h2.41L301.15,214.42z M296.96,209.96
			l-1.54-4.18l-1.53,4.18H296.96z"/>
		<path class="st2" d="M311.08,214.42v-11.25h2.22l4.59,7.52v-7.52h2.12v11.25h-2.29l-4.52-7.34v7.34H311.08z"/>
		<path class="st2" d="M334.07,214.42v-4.74l-4.13-6.52h2.67l2.65,4.45l2.6-4.45h2.62l-4.14,6.54v4.72H334.07z"/>
	</g>
	<g>
		<linearGradient id="SVGID_1_" gradientUnits="userSpaceOnUse" x1="77.8992" y1="140.3328" x2="28.827" y2="216.005">
			<stop  offset="0.1088" style="stop-color:#E11019"/>
			<stop  offset="0.1515" style="stop-color:#DA1725"/>
			<stop  offset="0.475" style="stop-color:#A6497E"/>
			<stop  offset="0.6215" style="stop-color:#915DA1"/>
			<stop  offset="0.6653" style="stop-color:#8F6BA4"/>
			<stop  offset="0.8931" style="stop-color:#87AEB4"/>
			<stop  offset="1" style="stop-color:#84C8BA"/>
		</linearGradient>
		<path class="st3" d="M86.12,173.2c-0.07,0-0.07-0.22-0.15-0.22c-1.48-0.81-3.84-1.77-6.71-1.55c-6.93,0.37-11.44,7.16-22.94,23.83
			c-2.29,3.25-6.57,9.37-12.1,17.26c-0.96,1.48-2.58,2.29-4.35,2.29l-23.9,0.15h-0.07c-3.25,0-5.61-1.55-6.94-3.76
			c-1.7-3.03-1.62-7.3,0.74-10.92l39.62-61.38c1.92-2.95,5.16-4.21,8.34-3.76c1.92,0.15,3.76,1.11,5.09,2.66
			c0.44,0.37,0.66,0.74,0.96,1.11L86.12,173.2z"/>
		
			<linearGradient id="SVGID_00000056399953874509894610000009136366119988330883_" gradientUnits="userSpaceOnUse" x1="65.7032" y1="179.7441" x2="97.348" y2="215.2871">
			<stop  offset="0" style="stop-color:#E3042A"/>
			<stop  offset="0.1084" style="stop-color:#E41427"/>
			<stop  offset="0.3213" style="stop-color:#E83F1F"/>
			<stop  offset="0.6182" style="stop-color:#ED8412"/>
			<stop  offset="0.9846" style="stop-color:#F5E201"/>
			<stop  offset="1" style="stop-color:#F5E600"/>
		</linearGradient>
		<path style="fill:url(#SVGID_00000056399953874509894610000009136366119988330883_);" d="M96.96,214.96H74.1
			c-2.41,0-4.67-1.17-6.06-3.14l-11.72-16.56c11.51-16.67,16.01-23.46,22.94-23.83c2.88-0.22,5.24,0.74,6.71,1.55l18.22,27.59
			C108.62,206.47,104.34,214.96,96.96,214.96z"/>
	</g>
</g>
</svg>
