<?xml version="1.0" encoding="utf-8"?>
<!-- Generator: Adobe Illustrator 26.0.1, SVG Export Plug-In . SVG Version: 6.00 Build 0)  -->
<svg version="1.1" id="Layer_1" xmlns="http://www.w3.org/2000/svg" xmlns:xlink="http://www.w3.org/1999/xlink" x="0px" y="0px"
	 viewBox="0 0 400 400" style="enable-background:new 0 0 400 400;" xml:space="preserve">
<style type="text/css">
	.st0{fill:#2596CE;}
	.st1{fill:#293377;}
</style>
<g>
	<g>
		<polygon class="st0" points="371.67,255.95 358.07,255.95 358.07,99.17 190.45,37.94 190.45,142.85 176.86,142.85 176.86,21.55 
			371.67,94.36 		"/>
		<polygon class="st1" points="336.96,255.95 323.37,255.95 323.37,124.3 43.95,164.25 43.95,255.95 30.35,255.95 30.35,152.46 
			336.96,108.62 		"/>
		<g>
			<polygon class="st1" points="241.6,255.95 259.1,255.95 259.1,142.85 241.6,146.59 			"/>
			<polygon class="st1" points="315.35,177 290.84,177 259.67,215.8 289.71,255.95 314.22,255.95 280.22,215.91 			"/>
			<path class="st1" d="M51.97,255.95H67.2v-25.64h45.42v25.64h15.23v-89.38l-75.88,13.57V255.95z M67.2,193.88l45.42-7.34v28.55
				H67.2V193.88z"/>
			<polygon class="st0" points="234.26,147.5 206.85,151.87 184.69,236.15 161.48,161.18 135.08,165.38 135.1,184.94 135.1,255.95 
				151.59,255.95 151.59,243.84 151.65,243.83 151.59,195.82 151.59,180.56 174.67,256.76 194.98,255.95 217.25,169.36 
				217.87,231.21 217.87,255.95 234.36,255.95 234.36,147.5 234.26,147.52 			"/>
		</g>
	</g>
	<g>
		<path class="st0" d="M30.35,378.45l9.52-26.94h6.53l9.54,26.94h-5.98l-1.81-5.48H37.93l-1.79,5.48H30.35z M43.05,357.51
			l-3.56,10.82h7.16L43.05,357.51z"/>
		<path class="st0" d="M64.53,378.45h-5.24v-26.94h8.23l4.91,21.35l4.84-21.35h8.13v26.94h-5.24v-22.64l-5.05,22.64h-5.52
			l-5.05-23.14V378.45z"/>
		<path class="st0" d="M90.81,378.45v-26.94h5.62v22.15h13.39v4.78H90.81z"/>
		<path class="st0" d="M111.62,378.45l9.52-26.94h6.53l9.54,26.94h-5.98l-1.81-5.48H119.2l-1.79,5.48H111.62z M124.32,357.51
			l-3.56,10.82h7.16L124.32,357.51z"/>
		<path class="st0" d="M141.23,378.45v-26.94h5.62v11.16l10.32-11.16h7.18l-10.76,11.02l11.48,15.92h-7.37l-8.11-11.86l-2.74,2.8
			v9.05H141.23z"/>
		<path class="st0" d="M174.98,378.45l9.52-26.94h6.53l9.54,26.94h-5.98l-1.81-5.48h-10.21l-1.79,5.48H174.98z M187.68,357.51
			l-3.56,10.82h7.16L187.68,357.51z"/>
		<path class="st0" d="M204.19,378.45v-26.94h5.62v22.15h13.39v4.78H204.19z"/>
		<path class="st0" d="M232.07,378.45h-5.24v-26.94h8.23l4.91,21.35l4.84-21.35h8.13v26.94h-5.24v-22.64l-5.05,22.64h-5.52
			l-5.05-23.14V378.45z"/>
		<path class="st0" d="M256.25,378.45l9.52-26.94h6.53l9.54,26.94h-5.98l-1.81-5.48h-10.21l-1.79,5.48H256.25z M268.95,357.51
			l-3.56,10.82h7.16L268.95,357.51z"/>
		<path class="st0" d="M285.46,378.45v-26.94h11.52c3.71,0,6.52,1.09,8.45,3.27c1.92,2.18,2.88,5.36,2.88,9.54
			c0,4.62-1,8.13-3,10.53c-2,2.4-4.93,3.6-8.79,3.6H285.46z M291.08,373.82h4.74c2.29,0,4.01-0.77,5.15-2.32
			c1.15-1.54,1.72-3.86,1.72-6.95c0-2.81-0.53-4.91-1.6-6.31c-1.07-1.4-2.67-2.1-4.8-2.1h-5.2V373.82z"/>
		<path class="st0" d="M312.09,378.45v-26.94h5.62v26.94H312.09z"/>
		<path class="st0" d="M327.95,378.45h-5.24v-26.94h5.9l10.8,18.89v-18.89h5.26v26.94h-5.6l-11.12-19.4V378.45z"/>
		<path class="st0" d="M349.87,378.45v-26.94h5.62v10.09h10.53v-10.09h5.64v26.94h-5.64v-12.19h-10.53v12.19H349.87z"/>
	</g>
	<g>
		<path class="st1" d="M60.15,319.68h3.73v7.58H38.09c-2.17,0-3.79-0.08-4.84-0.24l0.08,0.04c-0.9-0.19-1.67-0.48-2.3-0.87
			c-0.63-0.4-1.15-0.93-1.55-1.59c-0.4-0.66-0.69-1.47-0.87-2.42c-0.19-0.95-0.28-2.09-0.28-3.41v-12.66c0-2.57,0.36-4.48,1.07-5.73
			c0.72-1.25,1.92-2.03,3.61-2.32c0.53-0.13,1.21-0.23,2.04-0.3c0.83-0.06,1.85-0.1,3.04-0.1h22.06V319.68z M43.49,293.49h-8.05
			v-6.35h8.05V293.49z M52.06,319.76v-14.6H40.63c-0.95,0-1.71,0.02-2.28,0.04c-0.57,0.03-1.01,0.16-1.31,0.4
			c-0.3,0.24-0.5,0.62-0.58,1.13c-0.08,0.51-0.12,1.26-0.12,2.24v7.06c0,0.58,0.03,1.06,0.08,1.43c0.05,0.37,0.21,0.71,0.48,1.03
			c0.29,0.53,0.79,0.87,1.51,1.03c0.71,0.16,1.72,0.24,3.02,0.24H52.06z M55,293.49h-8.02v-6.35H55V293.49z"/>
		<path class="st1" d="M76.38,315.95c0,1.03,0.2,1.85,0.59,2.46c0.4,0.61,1.02,1.06,1.87,1.35h2.98v7.46
			c-0.79,0.03-1.67,0-2.62-0.08s-1.86-0.28-2.74-0.62c-0.87-0.33-1.65-0.83-2.34-1.49c-0.69-0.66-1.16-1.56-1.43-2.7
			c-0.21,0.69-0.44,1.34-0.69,1.96c-0.25,0.62-0.63,1.17-1.15,1.65c-0.51,0.48-1.2,0.84-2.06,1.09c-0.86,0.25-2,0.35-3.43,0.3
			l-1.94-0.08v-7.54c0.55-0.05,1.09-0.09,1.6-0.12c0.52-0.02,0.85-0.05,1.01-0.08c1.56-0.5,2.34-1.72,2.34-3.65v-18.21h8.02V315.95z
			 M76.46,293.49h-8.02v-6.35h8.02V293.49z"/>
		<path class="st1" d="M81.3,327.26v-7.58h11.55c1.69-0.4,2.54-1.64,2.54-3.73v-18.29h7.97v21.03c0,2.51-0.34,4.4-1.01,5.65
			c-0.67,1.26-1.77,2.07-3.27,2.44c-1.4,0.32-3.24,0.48-5.52,0.48H81.3z M91.86,338.25H83.8v-6.35h8.06V338.25z M103.36,338.25
			h-8.01v-6.35h8.01V338.25z"/>
		<path class="st1" d="M108.2,319.68h25.71v-9.84c0-1.88-0.61-3.21-1.82-4v0.04c-0.37-0.24-0.81-0.41-1.33-0.5
			c-0.52-0.09-1.16-0.14-1.92-0.14h-17.46v-7.62h20.83c1.11,0,2.08,0.03,2.9,0.1c0.82,0.07,1.52,0.17,2.1,0.3
			c1.69,0.29,2.9,1.07,3.63,2.32c0.73,1.26,1.09,3.17,1.09,5.73v13.61h3.53v7.58H108.2V319.68z"/>
		<path class="st1" d="M160.66,327.26c-0.66,0-1.29-0.05-1.89-0.16c-0.59-0.11-1.16-0.32-1.68-0.65c-0.53-0.33-1.03-0.81-1.51-1.45
			c-0.48-0.63-0.93-1.47-1.35-2.5c-0.45,1.11-0.89,1.98-1.31,2.6c-0.42,0.62-0.87,1.08-1.35,1.39c-0.48,0.3-0.98,0.5-1.51,0.59
			c-0.53,0.09-1.11,0.15-1.75,0.18h-3.17v-7.54l2.62-0.2c1.56-0.5,2.34-1.72,2.34-3.65v-9.76c0-2.54,0.36-4.44,1.07-5.71
			c0.72-1.27,1.89-2.05,3.53-2.34c0.58-0.13,1.29-0.23,2.14-0.3c0.85-0.06,1.87-0.1,3.06-0.1h13.41c1.01,0,1.91,0.03,2.7,0.1
			c0.79,0.07,1.5,0.17,2.1,0.3c1.75,0.29,3,1.06,3.77,2.3c0.77,1.24,1.15,3.16,1.15,5.75v13.57h3.49v7.58H160.66z M158.08,315.95
			c0,1.98,0.83,3.25,2.5,3.81l14.44-0.08v-10.71c0-1.01-0.2-1.81-0.59-2.42c-0.4-0.61-1.01-1.07-1.82-1.39h-11.23
			c-1.09,0.08-1.91,0.44-2.46,1.09c-0.55,0.65-0.83,1.56-0.83,2.72V315.95z"/>
		<path class="st1" d="M186.13,327.26v-7.58h2.06c1.69-0.4,2.54-1.64,2.54-3.73v-27.93h7.94v30.67c0,2.49-0.33,4.36-0.99,5.61
			c-0.66,1.26-1.76,2.08-3.29,2.48c-1.35,0.32-3.18,0.48-5.48,0.48H186.13z"/>
		<path class="st1" d="M213.67,327.26h-8.05v-39.24h8.05V327.26z"/>
		<path class="st1" d="M245.29,327.26c-2.3,0-4.14-0.16-5.52-0.48c-1.51-0.37-2.6-1.19-3.27-2.46c-0.67-1.27-1.01-3.15-1.01-5.63
			v-21.03h7.98v18.29c0,2.09,0.85,3.33,2.54,3.73h26.26c1.67-0.4,2.5-1.64,2.5-3.73v-27.89h7.94v30.63c0,2.49-0.32,4.36-0.97,5.61
			c-0.65,1.26-1.75,2.08-3.31,2.48c-1.35,0.32-3.16,0.48-5.44,0.48H245.29z M268.31,305c0,1.32-0.22,2.29-0.65,2.9
			c-0.44,0.61-1.22,1.01-2.36,1.19c-0.63,0.08-1.53,0.12-2.7,0.12h-12.5v-4.44h11.78c0.48-0.05,0.72-0.33,0.72-0.83v-1.03
			c-0.13-0.16-0.41-0.24-0.83-0.24h-6.15c-1.3,0-2.46-0.25-3.49-0.75c-1.35-0.61-2.02-1.56-2.02-2.86v-3.1
			c0-1.37,0.22-2.35,0.67-2.94c0.45-0.58,1.23-0.97,2.34-1.15c0.77-0.08,1.68-0.12,2.74-0.12h10.51v4.45h-9.76
			c-0.5,0-0.75,0.28-0.75,0.83c0,0.66,0.08,1.06,0.24,1.19h7.34c1.3,0,2.41,0.32,3.33,0.95c1.03,0.71,1.55,1.81,1.55,3.29V305z"/>
		<path class="st1" d="M286.08,327.26v-7.58h3.61v-31.66h8.06v31.66h8.29c1.67-0.4,2.5-1.64,2.5-3.73v-28.01h7.94v31.74h3.45v7.58
			H286.08z"/>
		<path class="st1" d="M335.44,327.26c-0.66,0-1.29-0.05-1.89-0.16c-0.6-0.11-1.16-0.32-1.69-0.65c-0.53-0.33-1.03-0.81-1.51-1.45
			c-0.48-0.63-0.93-1.47-1.35-2.5c-0.32,0.9-0.66,1.63-1.03,2.2c-0.37,0.57-0.77,1.02-1.19,1.35c-0.42,0.33-0.86,0.57-1.31,0.73
			c-0.45,0.16-0.91,0.28-1.39,0.36c-0.18,0.05-0.66,0.09-1.43,0.1c-0.77,0.02-1.78,0.02-3.05,0.02h-0.28v-7.74
			c0.9-0.02,1.69-0.05,2.38-0.06c0.69-0.01,1.04,0.01,1.07,0.06c1.56-0.5,2.34-1.72,2.34-3.65v-9.76c0-2.54,0.36-4.44,1.09-5.71
			c0.73-1.27,1.91-2.05,3.55-2.34c0.56-0.13,1.26-0.23,2.12-0.3c0.86-0.06,1.87-0.1,3.04-0.1h13.41c1.01,0,1.9,0.03,2.7,0.1
			c0.79,0.07,1.51,0.17,2.14,0.3c1.75,0.29,3,1.06,3.77,2.3c0.77,1.24,1.15,3.16,1.15,5.75v12.66c0,1.32-0.09,2.45-0.26,3.39
			c-0.17,0.94-0.45,1.73-0.83,2.38c-0.38,0.65-0.88,1.17-1.49,1.55c-0.61,0.38-1.34,0.67-2.18,0.85h0.04
			c-0.53,0.13-1.22,0.22-2.06,0.26s-1.84,0.06-2.98,0.06H335.44z M333.14,315.95c0,1.98,0.82,3.25,2.46,3.81h9.48
			c1.32,0,2.38-0.13,3.18-0.38c0.79-0.25,1.31-0.69,1.55-1.33l-0.04,0.04c0.18-0.45,0.28-1.14,0.28-2.06v-7.06
			c0-1.01-0.2-1.81-0.59-2.42c-0.4-0.61-1.01-1.07-1.83-1.39h-11.23c-1.08,0.08-1.9,0.44-2.44,1.09c-0.54,0.65-0.81,1.56-0.81,2.72
			V315.95z"/>
		<path class="st1" d="M371.67,282.11c0,0.77-0.11,1.32-0.32,1.67c-0.21,0.34-0.59,0.57-1.15,0.67c-0.32,0.05-0.77,0.08-1.35,0.08
			h-6.11v-2.54h5.79c0.24-0.02,0.36-0.18,0.36-0.48c0-0.32-0.02-0.51-0.04-0.59c-0.05-0.11-0.17-0.16-0.36-0.16h-3.05
			c-0.63,0-1.2-0.15-1.71-0.44c-0.66-0.34-0.99-0.89-0.99-1.63v-1.78c0-0.77,0.11-1.32,0.34-1.67s0.59-0.57,1.09-0.68
			c0.4-0.05,0.86-0.08,1.39-0.08h5.16v2.58h-4.8c-0.26,0-0.4,0.15-0.4,0.44c0,0.4,0.07,0.64,0.2,0.72c0.03,0.03,0.24,0.04,0.64,0.04
			h2.9c0.66,0,1.2,0.17,1.63,0.51c0.53,0.42,0.79,1.04,0.79,1.86V282.11z M371.27,327.26h-8.05v-39.24h8.05V327.26z"/>
	</g>
</g>
</svg>
