<?xml version="1.0" encoding="utf-8"?>
<!-- Generator: Adobe Illustrator 26.0.1, SVG Export Plug-In . SVG Version: 6.00 Build 0)  -->
<svg version="1.1" id="Layer_1" xmlns="http://www.w3.org/2000/svg" xmlns:xlink="http://www.w3.org/1999/xlink" x="0px" y="0px"
	 viewBox="0 0 350 350" style="enable-background:new 0 0 350 350;" xml:space="preserve">
<style type="text/css">
	.st0{fill:#2494CD;}
	.st1{fill:#293377;}
</style>
<g>
	<g>
		<polygon class="st0" points="334.81,227.09 322.16,227.09 322.16,81.13 166.11,24.13 166.11,121.8 153.46,121.8 153.46,8.87 
			334.81,76.65 		"/>
		<polygon class="st1" points="302.51,227.09 289.85,227.09 289.85,104.53 29.72,141.72 29.72,227.09 17.07,227.09 17.07,130.75 
			302.51,89.93 		"/>
		<g>
			<polygon class="st1" points="213.72,227.09 230.02,227.09 230.02,121.8 213.72,125.28 			"/>
			<polygon class="st1" points="282.38,153.59 259.57,153.59 230.55,189.71 258.52,227.09 281.33,227.09 249.69,189.81 			"/>
			<path class="st1" d="M37.19,227.09h14.18v-23.87h42.28v23.87h14.18v-83.21l-70.64,12.63V227.09z M51.37,169.3l42.28-6.84v26.58
				H51.37V169.3z"/>
			<polygon class="st0" points="206.9,126.13 181.37,130.2 160.75,208.66 139.14,138.86 114.56,142.77 114.58,160.98 114.58,227.09 
				129.94,227.09 129.94,215.81 129.99,215.81 129.94,171.11 129.94,156.9 151.42,227.84 170.33,227.09 191.06,146.47 
				191.64,204.05 191.64,227.09 206.99,227.09 206.99,126.13 206.9,126.14 			"/>
		</g>
	</g>
	<g>
		<path class="st0" d="M17.07,341.13l8.86-25.08h6.08l8.88,25.08h-5.57l-1.69-5.1h-9.51l-1.67,5.1H17.07z M28.89,321.64l-3.31,10.08
			h6.67L28.89,321.64z"/>
		<path class="st0" d="M48.88,341.13H44v-25.08h7.67l4.57,19.88l4.51-19.88h7.57v25.08h-4.88v-21.07l-4.7,21.07h-5.14l-4.7-21.55
			V341.13z"/>
		<path class="st0" d="M73.35,341.13v-25.08h5.23v20.62h12.47v4.45H73.35z"/>
		<path class="st0" d="M92.72,341.13l8.86-25.08h6.08l8.88,25.08h-5.57l-1.69-5.1h-9.51l-1.67,5.1H92.72z M104.54,321.64
			l-3.31,10.08h6.67L104.54,321.64z"/>
		<path class="st0" d="M120.28,341.13v-25.08h5.23v10.39l9.61-10.39h6.68l-10.02,10.26l10.69,14.82h-6.86l-7.55-11.04l-2.55,2.61
			v8.43H120.28z"/>
		<path class="st0" d="M151.71,341.13l8.86-25.08h6.08l8.88,25.08h-5.57l-1.69-5.1h-9.51l-1.67,5.1H151.71z M163.53,321.64
			l-3.31,10.08h6.67L163.53,321.64z"/>
		<path class="st0" d="M178.9,341.13v-25.08h5.23v20.62h12.47v4.45H178.9z"/>
		<path class="st0" d="M204.86,341.13h-4.88v-25.08h7.67l4.57,19.88l4.51-19.88h7.57v25.08h-4.88v-21.07l-4.7,21.07h-5.14
			l-4.7-21.55V341.13z"/>
		<path class="st0" d="M227.36,341.13l8.86-25.08h6.08l8.88,25.08h-5.57l-1.69-5.1h-9.51l-1.67,5.1H227.36z M239.19,321.64
			l-3.31,10.08h6.67L239.19,321.64z"/>
		<path class="st0" d="M254.56,341.13v-25.08h10.72c3.45,0,6.07,1.01,7.86,3.04c1.79,2.03,2.68,4.99,2.68,8.88
			c0,4.3-0.93,7.57-2.79,9.8c-1.86,2.24-4.59,3.35-8.19,3.35H254.56z M259.79,336.81h4.41c2.13,0,3.73-0.72,4.79-2.16
			c1.07-1.44,1.6-3.59,1.6-6.47c0-2.61-0.5-4.57-1.49-5.87c-0.99-1.3-2.48-1.95-4.47-1.95h-4.84V336.81z"/>
		<path class="st0" d="M279.35,341.13v-25.08h5.23v25.08H279.35z"/>
		<path class="st0" d="M294.12,341.13h-4.88v-25.08h5.49l10.06,17.59v-17.59h4.9v25.08h-5.22l-10.35-18.06V341.13z"/>
		<path class="st0" d="M314.52,341.13v-25.08h5.23v9.39h9.8v-9.39h5.25v25.08h-5.25v-11.35h-9.8v11.35H314.52z"/>
	</g>
	<g>
		<path class="st1" d="M44.81,286.42h3.47v7.05H24.27c-2.02,0-3.52-0.07-4.51-0.22l0.07,0.04c-0.84-0.17-1.55-0.45-2.14-0.81
			c-0.59-0.37-1.07-0.86-1.44-1.48c-0.37-0.62-0.64-1.37-0.81-2.25c-0.17-0.88-0.26-1.94-0.26-3.18v-11.78c0-2.39,0.33-4.17,1-5.34
			c0.67-1.17,1.79-1.89,3.36-2.16c0.49-0.12,1.13-0.22,1.9-0.28c0.77-0.06,1.72-0.09,2.83-0.09h20.54V286.42z M29.29,262.04h-7.5
			v-5.91h7.5V262.04z M37.27,286.49V272.9H26.63c-0.88,0-1.59,0.01-2.12,0.04c-0.53,0.03-0.94,0.15-1.22,0.37
			c-0.28,0.22-0.46,0.57-0.54,1.05c-0.07,0.48-0.11,1.18-0.11,2.09v6.57c0,0.54,0.03,0.98,0.07,1.33c0.05,0.35,0.2,0.66,0.45,0.96
			c0.27,0.49,0.74,0.81,1.4,0.96c0.66,0.15,1.6,0.22,2.81,0.22H37.27z M40.01,262.04h-7.46v-5.91h7.46V262.04z"/>
		<path class="st1" d="M59.92,282.94c0,0.96,0.18,1.72,0.55,2.29c0.37,0.57,0.95,0.98,1.74,1.26h2.77v6.94
			c-0.74,0.03-1.55,0-2.44-0.07c-0.89-0.07-1.74-0.26-2.55-0.57c-0.81-0.31-1.54-0.77-2.18-1.39c-0.64-0.62-1.08-1.45-1.33-2.51
			c-0.2,0.64-0.41,1.25-0.65,1.83c-0.23,0.58-0.59,1.09-1.07,1.53c-0.48,0.44-1.12,0.78-1.92,1.02c-0.8,0.24-1.87,0.33-3.2,0.28
			l-1.81-0.07v-7.02c0.52-0.05,1.02-0.09,1.49-0.11c0.48-0.02,0.79-0.05,0.94-0.07c1.45-0.46,2.18-1.6,2.18-3.4v-16.95h7.46V282.94z
			 M59.99,262.04h-7.46v-5.91h7.46V262.04z"/>
		<path class="st1" d="M64.5,293.47v-7.05h10.75c1.57-0.37,2.36-1.53,2.36-3.47v-17.03h7.42v19.58c0,2.34-0.31,4.09-0.94,5.26
			c-0.63,1.17-1.64,1.93-3.05,2.27c-1.3,0.29-3.02,0.44-5.13,0.44H64.5z M74.32,303.7h-7.5v-5.91h7.5V303.7z M85.03,303.7h-7.46
			v-5.91h7.46V303.7z"/>
		<path class="st1" d="M89.54,286.42h23.94v-9.16c0-1.75-0.57-2.99-1.7-3.73v0.04c-0.35-0.22-0.76-0.38-1.24-0.46
			c-0.48-0.09-1.08-0.13-1.79-0.13H92.5v-7.09h19.39c1.03,0,1.93,0.03,2.7,0.09c0.76,0.06,1.42,0.16,1.96,0.28
			c1.57,0.27,2.7,0.99,3.38,2.16c0.68,1.17,1.02,2.95,1.02,5.34v12.67h3.29v7.05H89.54V286.42z"/>
		<path class="st1" d="M138.37,293.47c-0.62,0-1.2-0.05-1.76-0.15c-0.55-0.1-1.08-0.3-1.57-0.61c-0.49-0.31-0.96-0.76-1.4-1.35
			c-0.45-0.59-0.86-1.37-1.26-2.32c-0.42,1.03-0.83,1.84-1.22,2.42c-0.39,0.58-0.81,1.01-1.26,1.29c-0.45,0.28-0.91,0.47-1.4,0.55
			c-0.49,0.09-1.03,0.14-1.63,0.17h-2.95v-7.02l2.44-0.19c1.45-0.46,2.18-1.6,2.18-3.4v-9.09c0-2.36,0.33-4.14,1-5.32
			c0.67-1.18,1.76-1.91,3.29-2.18c0.54-0.12,1.2-0.22,1.99-0.28c0.79-0.06,1.74-0.09,2.85-0.09h12.48c0.94,0,1.77,0.03,2.51,0.09
			c0.74,0.06,1.39,0.16,1.96,0.28c1.62,0.27,2.79,0.98,3.51,2.14c0.71,1.16,1.07,2.94,1.07,5.36v12.63h3.25v7.05H138.37z
			 M135.97,282.94c0,1.85,0.78,3.03,2.33,3.55l13.44-0.07v-9.97c0-0.94-0.18-1.69-0.55-2.25c-0.37-0.57-0.94-1-1.7-1.29h-10.45
			c-1.01,0.07-1.77,0.41-2.29,1.02c-0.52,0.6-0.78,1.45-0.78,2.53V282.94z"/>
		<path class="st1" d="M162.09,293.47v-7.05h1.92c1.58-0.37,2.36-1.53,2.36-3.47v-26h7.39v28.55c0,2.31-0.31,4.06-0.92,5.23
			c-0.62,1.17-1.64,1.94-3.06,2.31c-1.26,0.29-2.96,0.44-5.1,0.44H162.09z"/>
		<path class="st1" d="M187.72,293.47h-7.5v-36.53h7.5V293.47z"/>
		<path class="st1" d="M217.16,293.47c-2.14,0-3.85-0.15-5.13-0.44c-1.4-0.35-2.42-1.11-3.05-2.29c-0.63-1.18-0.94-2.93-0.94-5.25
			v-19.58h7.43v17.03c0,1.94,0.79,3.1,2.36,3.47h24.45c1.55-0.37,2.33-1.53,2.33-3.47v-25.97H252v28.52c0,2.31-0.3,4.06-0.9,5.23
			c-0.6,1.17-1.63,1.94-3.08,2.31c-1.26,0.29-2.94,0.44-5.06,0.44H217.16z M238.59,272.75c0,1.23-0.2,2.13-0.61,2.7
			c-0.41,0.57-1.14,0.94-2.2,1.11c-0.59,0.07-1.43,0.11-2.51,0.11h-11.64v-4.14h10.97c0.44-0.05,0.67-0.31,0.67-0.78v-0.96
			c-0.12-0.15-0.38-0.22-0.78-0.22h-5.72c-1.21,0-2.29-0.23-3.25-0.7c-1.26-0.57-1.88-1.45-1.88-2.66v-2.88
			c0-1.28,0.21-2.19,0.63-2.73c0.42-0.54,1.15-0.9,2.18-1.07c0.71-0.08,1.56-0.11,2.55-0.11h9.79v4.14h-9.09
			c-0.47,0-0.7,0.26-0.7,0.77c0,0.62,0.07,0.99,0.22,1.11h6.83c1.21,0,2.24,0.29,3.1,0.89c0.96,0.66,1.44,1.69,1.44,3.06V272.75z"/>
		<path class="st1" d="M255.14,293.47v-7.05h3.36v-29.48h7.5v29.48h7.72c1.55-0.37,2.33-1.53,2.33-3.47v-26.08h7.39v29.55h3.21v7.05
			H255.14z"/>
		<path class="st1" d="M301.09,293.47c-0.62,0-1.2-0.05-1.76-0.15c-0.56-0.1-1.08-0.3-1.57-0.61c-0.49-0.31-0.96-0.76-1.4-1.35
			c-0.44-0.59-0.86-1.37-1.26-2.32c-0.29,0.84-0.62,1.52-0.96,2.05c-0.35,0.53-0.71,0.95-1.11,1.26c-0.39,0.31-0.8,0.53-1.22,0.68
			c-0.42,0.15-0.85,0.26-1.29,0.33c-0.17,0.05-0.62,0.08-1.33,0.09c-0.71,0.01-1.66,0.02-2.84,0.02h-0.26v-7.2
			c0.84-0.02,1.58-0.04,2.22-0.05c0.64-0.01,0.97,0.01,1,0.05c1.45-0.46,2.18-1.6,2.18-3.4v-9.09c0-2.36,0.34-4.14,1.02-5.32
			c0.68-1.18,1.78-1.91,3.31-2.18c0.52-0.12,1.18-0.22,1.98-0.28c0.8-0.06,1.74-0.09,2.83-0.09h12.49c0.94,0,1.77,0.03,2.51,0.09
			c0.74,0.06,1.4,0.16,1.99,0.28c1.62,0.27,2.8,0.98,3.51,2.14c0.71,1.16,1.07,2.94,1.07,5.36v11.78c0,1.23-0.08,2.29-0.24,3.16
			c-0.16,0.87-0.42,1.61-0.78,2.21c-0.36,0.6-0.82,1.09-1.38,1.44s-1.24,0.62-2.03,0.79h0.04c-0.49,0.12-1.13,0.2-1.92,0.24
			c-0.79,0.04-1.71,0.06-2.77,0.06H301.09z M298.95,282.94c0,1.85,0.76,3.03,2.29,3.55h8.83c1.23,0,2.22-0.12,2.96-0.35
			c0.74-0.24,1.22-0.65,1.44-1.24l-0.04,0.04c0.17-0.42,0.26-1.06,0.26-1.92v-6.57c0-0.94-0.18-1.69-0.55-2.25
			c-0.37-0.57-0.94-1-1.7-1.29h-10.45c-1.01,0.07-1.77,0.41-2.27,1.02c-0.5,0.6-0.76,1.45-0.76,2.53V282.94z"/>
		<path class="st1" d="M334.81,251.44c0,0.71-0.1,1.23-0.3,1.55c-0.2,0.32-0.55,0.53-1.07,0.63c-0.3,0.05-0.71,0.07-1.26,0.07h-5.69
			v-2.36h5.39c0.22-0.02,0.33-0.17,0.33-0.44c0-0.29-0.01-0.48-0.04-0.55c-0.05-0.1-0.16-0.15-0.33-0.15h-2.84
			c-0.59,0-1.12-0.14-1.59-0.41c-0.62-0.32-0.92-0.83-0.92-1.51v-1.66c0-0.71,0.1-1.23,0.31-1.55c0.21-0.32,0.55-0.53,1.02-0.63
			c0.37-0.05,0.8-0.07,1.29-0.07h4.8v2.4h-4.47c-0.25,0-0.37,0.14-0.37,0.41c0,0.37,0.06,0.59,0.18,0.67
			c0.03,0.03,0.22,0.04,0.59,0.04h2.7c0.62,0,1.12,0.16,1.51,0.48c0.49,0.39,0.74,0.97,0.74,1.74V251.44z M334.44,293.47h-7.5
			v-36.53h7.5V293.47z"/>
	</g>
</g>
</svg>
