<?xml version="1.0" encoding="utf-8"?>
<!-- Generator: Adobe Illustrator 26.0.1, SVG Export Plug-In . SVG Version: 6.00 Build 0)  -->
<svg version="1.1" id="Layer_1" xmlns="http://www.w3.org/2000/svg" xmlns:xlink="http://www.w3.org/1999/xlink" x="0px" y="0px"
	 viewBox="0 0 350 350" style="enable-background:new 0 0 350 350;" xml:space="preserve">
<style type="text/css">
	.st0{fill:#1E2F57;}
	.st1{fill:#212D54;}
</style>
<g>
	<g>
		<path class="st0" d="M126.89,81.15h2.65v74.53l10.87,10.01v-34.91h1.29l12.41,10.86l-0.4,0.15v36.77l18.36,17.71v-61.49
			l-9.06-9.15l9.06-8.87l0.24-8.73v-26.9h5.01v115.14L196.63,178v-47.21h13.3v34.91l11.16-10.01V81.15h2.47l3.33-5.04H123.45
			L126.89,81.15z M153.71,108.04l-11.73,12.59h-1.57V81.15h13.3V108.04z M209.93,116.77h-13.3V81.15h13.3V116.77z"/>
		<polygon class="st0" points="119.97,66.55 122.38,71.6 227.75,71.6 230.69,66.55 		"/>
	</g>
	<g>
		<g>
			<path class="st0" d="M25.59,241.93c1.54,0,2.6-0.19,3.16-0.58s0.85-0.87,0.85-1.47c0-0.49-0.15-0.91-0.44-1.25
				c-0.29-0.35-0.76-0.68-1.39-1c-0.63-0.32-1.43-0.65-2.39-1c-0.97-0.35-2.1-0.76-3.41-1.25c-0.23-0.08-0.31-0.23-0.23-0.46
				l1.04-3.05c0.08-0.25,0.23-0.35,0.46-0.27c0.82,0.31,1.61,0.62,2.35,0.94c0.75,0.32,1.48,0.6,2.2,0.85
				c0.72,0.24,1.42,0.45,2.12,0.62c0.69,0.17,1.41,0.25,2.16,0.25h3.85c0.51,0,0.9,0.13,1.16,0.39s0.39,0.72,0.39,1.39
				c0,0.75-0.12,1.27-0.37,1.58c-0.24,0.31-0.64,0.46-1.18,0.46h-2.66c0.13,0.2,0.27,0.53,0.44,0.98c0.17,0.45,0.25,0.93,0.25,1.45
				c0,0.72-0.14,1.4-0.42,2.04c-0.29,0.64-0.73,1.21-1.33,1.7c-0.61,0.49-1.39,0.88-2.35,1.17s-2.14,0.45-3.53,0.45h-8.79
				c-3.34,0-5.83-0.77-7.46-2.32c-1.63-1.54-2.45-3.64-2.45-6.28c0-0.72,0.07-1.45,0.21-2.18c0.14-0.73,0.33-1.44,0.56-2.12
				c0.23-0.68,0.49-1.32,0.79-1.93c0.29-0.61,0.61-1.14,0.94-1.6c0.13-0.2,0.31-0.23,0.54-0.08l3.05,1.58
				c0.2,0.13,0.24,0.29,0.11,0.5c-0.44,0.72-0.84,1.56-1.21,2.5c-0.37,0.95-0.56,1.93-0.56,2.93c0,0.98,0.17,1.79,0.52,2.43
				c0.35,0.65,0.8,1.16,1.37,1.54c0.56,0.39,1.21,0.66,1.93,0.83c0.72,0.17,1.45,0.25,2.2,0.25H25.59z"/>
			<path class="st0" d="M35.88,238.08c-0.51,0-0.87-0.13-1.06-0.39c-0.19-0.25-0.29-0.73-0.29-1.42c0-0.77,0.09-1.3,0.27-1.58
				c0.18-0.28,0.54-0.42,1.08-0.42h4.63c0.51,0,0.9,0.14,1.15,0.42c0.26,0.28,0.39,0.77,0.39,1.47c0,0.8-0.12,1.32-0.36,1.56
				c-0.24,0.24-0.64,0.37-1.18,0.37H35.88z"/>
			<path class="st0" d="M49.96,231.87c0,0.83,0.21,1.43,0.64,1.81c0.42,0.39,1.1,0.58,2.02,0.58c0.64,0,1.15-0.04,1.53-0.13
				c0.37-0.09,0.65-0.28,0.83-0.56c0.18-0.28,0.29-0.67,0.33-1.16c0.04-0.49,0.06-1.15,0.06-1.97v-4.93c0-0.26,0.13-0.39,0.39-0.39
				h3.58c0.26,0,0.39,0.13,0.39,0.39v6.44c0,0.8,0.24,1.38,0.73,1.75c0.49,0.37,1.13,0.56,1.93,0.56c0.59,0,1.07-0.04,1.43-0.13
				c0.36-0.09,0.63-0.27,0.83-0.54c0.19-0.27,0.31-0.66,0.37-1.15c0.05-0.5,0.08-1.15,0.08-1.95v-8.02c0-0.26,0.13-0.39,0.39-0.39
				h3.59c0.26,0,0.39,0.13,0.39,0.39v9.41c0,0.77,0.29,1.37,0.87,1.77c0.58,0.41,1.36,0.62,2.33,0.62h0.66
				c0.51,0,0.9,0.14,1.15,0.42c0.26,0.28,0.39,0.76,0.39,1.43c0,0.74-0.13,1.26-0.39,1.54c-0.26,0.28-0.64,0.43-1.15,0.43
				c-1,0-1.87-0.13-2.6-0.37c-0.73-0.24-1.32-0.78-1.75-1.6c-0.36,0.72-0.88,1.23-1.56,1.52c-0.68,0.29-1.6,0.45-2.76,0.45h-1.66
				c-0.9,0-1.66-0.18-2.29-0.52c-0.63-0.35-1.11-0.84-1.45-1.49c-0.36,0.75-0.88,1.27-1.56,1.56c-0.68,0.29-1.6,0.45-2.76,0.45H53.2
				c-1.83,0-3.08-0.68-3.74-2.05c-0.36,0.75-0.88,1.27-1.56,1.58c-0.68,0.31-1.6,0.46-2.76,0.46h-4.16c-0.28,0-0.54-0.01-0.77-0.04
				c-0.23-0.03-0.42-0.1-0.58-0.21c-0.15-0.12-0.27-0.29-0.35-0.52c-0.08-0.23-0.12-0.55-0.12-0.97c0-0.77,0.12-1.31,0.36-1.62
				c0.24-0.31,0.64-0.46,1.18-0.46h3.08c0.46,0,0.82-0.07,1.06-0.21c0.24-0.14,0.42-0.37,0.54-0.68c0.12-0.31,0.18-0.7,0.19-1.17
				c0.01-0.48,0.02-1.06,0.02-1.76v-4.93c0-0.26,0.13-0.39,0.39-0.39h3.58c0.26,0,0.39,0.13,0.39,0.39V231.87z M53.39,218.22
				c-0.26,0-0.39-0.13-0.39-0.39v-3.31c0-0.26,0.13-0.39,0.39-0.39h3.24c0.26,0,0.39,0.13,0.39,0.39v3.31
				c0,0.26-0.13,0.39-0.39,0.39H53.39z M55.85,213.24c-0.26,0-0.39-0.13-0.39-0.39v-3.32c0-0.26,0.13-0.38,0.39-0.38h3.24
				c0.25,0,0.38,0.13,0.38,0.38v3.32c0,0.26-0.13,0.39-0.38,0.39H55.85z M58.4,218.22c-0.26,0-0.38-0.13-0.38-0.39v-3.31
				c0-0.26,0.13-0.39,0.38-0.39h3.24c0.25,0,0.38,0.13,0.38,0.39v3.31c0,0.26-0.13,0.39-0.38,0.39H58.4z"/>
			<path class="st0" d="M75.13,224.5c0.8-0.9,1.75-1.64,2.85-2.23c1.1-0.59,2.46-0.89,4.05-0.89c1.72,0,3.16,0.26,4.32,0.79
				c1.15,0.53,2.08,1.24,2.78,2.12c0.69,0.89,1.19,1.92,1.48,3.09c0.29,1.17,0.44,2.41,0.44,3.72c0,0.18-0.01,0.35-0.02,0.5
				c-0.01,0.15-0.02,0.31-0.02,0.46c0.08,0.7,0.39,1.24,0.94,1.62c0.55,0.39,1.3,0.58,2.26,0.58h0.65c0.51,0,0.9,0.14,1.16,0.42
				c0.26,0.28,0.39,0.76,0.39,1.43c0,0.74-0.12,1.26-0.37,1.54c-0.24,0.28-0.63,0.43-1.18,0.43c-1.08,0-2.02-0.14-2.83-0.43
				c-0.81-0.28-1.43-0.9-1.87-1.85c-0.49,0.88-1.16,1.47-2.02,1.79c-0.86,0.32-1.91,0.48-3.14,0.48H73.09
				c-0.51,0-0.9-0.15-1.16-0.45c-0.26-0.29-0.39-0.79-0.39-1.48c0-0.74,0.12-1.25,0.37-1.5c0.24-0.26,0.64-0.39,1.18-0.39h10.25
				c0.67,0,1.21-0.05,1.62-0.15c0.41-0.1,0.73-0.28,0.97-0.54c0.23-0.26,0.39-0.6,0.46-1.02c0.08-0.42,0.12-0.94,0.12-1.56
				c0-0.82-0.08-1.58-0.23-2.27c-0.15-0.7-0.41-1.3-0.77-1.81c-0.36-0.51-0.83-0.92-1.41-1.21s-1.31-0.44-2.18-0.44
				c-0.85,0-1.62,0.17-2.32,0.5c-0.69,0.33-1.31,0.78-1.85,1.35c-0.18,0.18-0.36,0.19-0.54,0.04l-2.01-2.08
				C75.01,224.83,74.98,224.66,75.13,224.5z M80.53,218.22c-0.26,0-0.39-0.13-0.39-0.39v-3.31c0-0.26,0.13-0.39,0.39-0.39h3.7
				c0.26,0,0.39,0.13,0.39,0.39v3.31c0,0.26-0.13,0.39-0.39,0.39H80.53z"/>
			<path class="st0" d="M94.88,238.08c-0.51,0-0.9-0.13-1.15-0.37c-0.26-0.24-0.39-0.74-0.39-1.48c0-0.72,0.12-1.23,0.36-1.53
				c0.24-0.29,0.64-0.44,1.18-0.44h1.89c0.64,0,1.11-0.15,1.41-0.44s0.44-0.83,0.44-1.6v-19.98c0-0.26,0.13-0.38,0.39-0.38h3.59
				c0.26,0,0.39,0.13,0.39,0.38v20.98c0,1.67-0.35,2.9-1.04,3.68c-0.69,0.78-1.85,1.18-3.47,1.18H94.88z"/>
			<path class="st0" d="M112.34,237.69c0,0.26-0.13,0.39-0.39,0.39h-3.59c-0.26,0-0.39-0.13-0.39-0.39v-25.45
				c0-0.26,0.13-0.38,0.39-0.38h3.59c0.25,0,0.39,0.13,0.39,0.38V237.69z"/>
			<path class="st0" d="M128,225.24c-0.25,0-0.38-0.13-0.38-0.39v-3.08c0-0.26,0.13-0.39,0.38-0.39h5.86c2.16,0,3.88,0.54,5.15,1.62
				c1.27,1.08,1.91,2.84,1.91,5.28v3.63c0,0.74,0.28,1.32,0.85,1.73c0.56,0.41,1.34,0.62,2.32,0.62h0.65c0.51,0,0.9,0.14,1.16,0.42
				c0.26,0.28,0.39,0.76,0.39,1.43c0,0.74-0.12,1.26-0.37,1.54c-0.24,0.28-0.63,0.43-1.18,0.43c-1.08,0-2.01-0.14-2.79-0.43
				c-0.78-0.28-1.4-0.87-1.83-1.77c-0.49,0.88-1.15,1.46-1.99,1.75s-1.91,0.45-3.22,0.45h-8.64c-0.26,0-0.39-0.13-0.39-0.39v-3.04
				c0-0.26,0.13-0.39,0.39-0.39h7.17c0.69,0,1.25-0.05,1.66-0.15c0.41-0.1,0.73-0.28,0.95-0.52c0.22-0.24,0.36-0.56,0.42-0.94
				c0.06-0.39,0.09-0.86,0.09-1.43v-2.58c0-1.18-0.33-2.04-0.98-2.58c-0.66-0.54-1.64-0.81-2.95-0.81H128z"/>
			<path class="st0" d="M144.73,238.08c-0.51,0-0.87-0.13-1.06-0.39c-0.19-0.25-0.29-0.73-0.29-1.42c0-0.77,0.09-1.3,0.27-1.58
				c0.18-0.28,0.54-0.42,1.08-0.42h4.63c0.51,0,0.9,0.14,1.15,0.42c0.26,0.28,0.39,0.77,0.39,1.47c0,0.8-0.12,1.32-0.36,1.56
				c-0.24,0.24-0.64,0.37-1.18,0.37H144.73z"/>
			<path class="st0" d="M153.25,229.59c0.03-1.49,0.24-2.76,0.64-3.8c0.4-1.04,0.95-1.89,1.66-2.54c0.71-0.66,1.53-1.13,2.49-1.43
				c0.95-0.29,1.99-0.44,3.12-0.44c1.13,0,2.18,0.15,3.16,0.46c0.98,0.31,1.82,0.8,2.53,1.47c0.71,0.67,1.26,1.56,1.66,2.66
				c0.4,1.11,0.6,2.44,0.6,4.01c0,0.23,0,0.46,0,0.67c0,0.22-0.01,0.43-0.04,0.64c0.03,1.08,0.28,1.84,0.75,2.29
				c0.47,0.45,1.02,0.67,1.64,0.67h1.12c0.51,0,0.9,0.14,1.16,0.42c0.26,0.28,0.39,0.76,0.39,1.43c0,0.74-0.12,1.26-0.37,1.54
				c-0.24,0.28-0.64,0.43-1.18,0.43c-0.44,0-0.89-0.01-1.37-0.04c-0.48-0.03-0.95-0.11-1.43-0.25c-0.47-0.14-0.93-0.35-1.35-0.62
				c-0.42-0.27-0.8-0.65-1.14-1.14c-0.7,0.82-1.56,1.42-2.6,1.78c-1.04,0.36-2.22,0.54-3.53,0.54c-1.29,0-2.44-0.18-3.47-0.52
				c-1.03-0.35-1.89-0.92-2.58-1.72c-0.26,0.41-0.57,0.74-0.93,1c-0.36,0.26-0.73,0.46-1.12,0.6c-0.38,0.14-0.78,0.24-1.2,0.29
				s-0.8,0.08-1.15,0.08h-1.35c-0.51,0-0.9-0.15-1.16-0.45s-0.39-0.79-0.39-1.48c0-0.74,0.12-1.25,0.37-1.5
				c0.24-0.26,0.64-0.39,1.18-0.39h1.5c0.62,0,1.17-0.25,1.66-0.75c0.49-0.5,0.75-1.42,0.77-2.76c-0.03-0.2-0.04-0.4-0.04-0.58
				C153.25,229.99,153.25,229.8,153.25,229.59z M161.16,225.24c-1.23,0-2.15,0.4-2.74,1.19c-0.59,0.8-0.88,1.95-0.88,3.47
				c0,1.65,0.29,2.83,0.88,3.55c0.59,0.72,1.51,1.08,2.74,1.08c1.26,0,2.18-0.37,2.78-1.1c0.59-0.73,0.88-1.91,0.88-3.53
				C164.82,226.79,163.6,225.24,161.16,225.24z"/>
			<path class="st0" d="M174.58,224.5c0.8-0.9,1.75-1.64,2.85-2.23c1.1-0.59,2.46-0.89,4.05-0.89c1.72,0,3.16,0.26,4.32,0.79
				c1.15,0.53,2.08,1.24,2.78,2.12c0.69,0.89,1.19,1.92,1.48,3.09c0.29,1.17,0.44,2.41,0.44,3.72c0,0.18-0.01,0.35-0.02,0.5
				c-0.01,0.15-0.02,0.31-0.02,0.46c0.08,0.7,0.39,1.24,0.94,1.62c0.55,0.39,1.3,0.58,2.26,0.58h0.65c0.51,0,0.9,0.14,1.16,0.42
				c0.26,0.28,0.39,0.76,0.39,1.43c0,0.74-0.12,1.26-0.37,1.54c-0.24,0.28-0.63,0.43-1.18,0.43c-1.08,0-2.02-0.14-2.83-0.43
				c-0.81-0.28-1.43-0.9-1.87-1.85c-0.49,0.88-1.16,1.47-2.02,1.79c-0.86,0.32-1.91,0.48-3.14,0.48h-11.91
				c-0.51,0-0.9-0.15-1.16-0.45s-0.39-0.79-0.39-1.48c0-0.74,0.12-1.25,0.37-1.5c0.24-0.26,0.64-0.39,1.18-0.39h10.25
				c0.67,0,1.21-0.05,1.62-0.15c0.41-0.1,0.73-0.28,0.97-0.54c0.23-0.26,0.39-0.6,0.46-1.02c0.08-0.42,0.12-0.94,0.12-1.56
				c0-0.82-0.08-1.58-0.23-2.27c-0.15-0.7-0.41-1.3-0.77-1.81c-0.36-0.51-0.83-0.92-1.41-1.21c-0.58-0.29-1.31-0.44-2.18-0.44
				c-0.85,0-1.62,0.17-2.32,0.5c-0.69,0.33-1.31,0.78-1.85,1.35c-0.18,0.18-0.36,0.19-0.54,0.04l-2.01-2.08
				C174.45,224.83,174.42,224.66,174.58,224.5z"/>
			<path class="st0" d="M206.12,238.35c-1.28,0-2.44-0.18-3.47-0.52c-1.03-0.35-1.89-0.92-2.58-1.72c-0.26,0.41-0.56,0.74-0.93,1
				c-0.36,0.26-0.73,0.46-1.12,0.6c-0.39,0.14-0.78,0.24-1.2,0.29s-0.8,0.08-1.16,0.08h-1.35c-0.51,0-0.9-0.15-1.15-0.45
				s-0.39-0.79-0.39-1.48c0-0.74,0.12-1.25,0.36-1.5c0.24-0.26,0.64-0.39,1.18-0.39h1.5c0.29,0,0.57-0.06,0.85-0.17
				c0.28-0.12,0.54-0.31,0.77-0.58c0.23-0.27,0.42-0.63,0.58-1.08c0.15-0.45,0.23-1.01,0.23-1.68c-0.03-0.2-0.04-0.4-0.04-0.58
				c0-0.18,0-0.37,0-0.58c0.03-1.49,0.24-2.76,0.64-3.8c0.4-1.04,0.95-1.89,1.66-2.54c0.71-0.66,1.54-1.13,2.49-1.43
				c0.95-0.29,1.99-0.44,3.12-0.44c1.13,0,2.19,0.15,3.16,0.46s1.82,0.8,2.53,1.47c0.71,0.67,1.26,1.56,1.66,2.66
				c0.4,1.11,0.6,2.44,0.6,4.01c0,1.52-0.19,2.8-0.58,3.86c-0.38,1.05-0.93,1.91-1.62,2.58c-0.69,0.67-1.53,1.16-2.5,1.47
				C208.38,238.19,207.3,238.35,206.12,238.35z M206.12,225.24c-1.23,0-2.15,0.4-2.74,1.19c-0.59,0.8-0.89,1.95-0.89,3.47
				c0,1.65,0.29,2.83,0.89,3.55c0.59,0.72,1.5,1.08,2.74,1.08c1.26,0,2.19-0.37,2.78-1.1s0.89-1.91,0.89-3.53
				C209.78,226.79,208.56,225.24,206.12,225.24z"/>
			<path class="st0" d="M241.4,225.7c0-0.25,0.13-0.39,0.39-0.39h3.59c0.25,0,0.39,0.13,0.39,0.39v6.17c0,0.77,0.29,1.37,0.87,1.77
				c0.58,0.41,1.36,0.62,2.33,0.62h0.43c0.51,0,0.9,0.14,1.15,0.42c0.26,0.28,0.39,0.76,0.39,1.43c0,0.74-0.12,1.26-0.37,1.54
				c-0.24,0.28-0.63,0.43-1.17,0.43c-0.77,0-1.46-0.08-2.06-0.23c-0.6-0.16-1.12-0.49-1.56-1v0.43c0,1.46-0.23,2.75-0.67,3.85
				c-0.45,1.1-1.1,2.03-1.93,2.76s-1.83,1.28-2.99,1.64c-1.16,0.36-2.44,0.54-3.86,0.54c-1.36,0-2.62-0.18-3.76-0.54
				c-1.15-0.36-2.14-0.91-2.99-1.64c-0.85-0.73-1.51-1.65-1.99-2.76c-0.48-1.1-0.72-2.4-0.72-3.89c0-1.39,0.22-2.78,0.66-4.16
				c0.44-1.39,0.98-2.58,1.62-3.58c0.13-0.23,0.32-0.26,0.58-0.08l3.12,1.24c0.13,0.05,0.2,0.12,0.21,0.21
				c0.01,0.09-0.01,0.19-0.06,0.29c-0.41,0.72-0.8,1.56-1.18,2.52c-0.37,0.97-0.56,2.03-0.56,3.18c0,1,0.16,1.85,0.48,2.53
				c0.32,0.68,0.73,1.23,1.23,1.64c0.5,0.41,1.06,0.7,1.68,0.87c0.62,0.17,1.22,0.25,1.81,0.25c1.47,0,2.65-0.4,3.57-1.18
				c0.91-0.78,1.37-2.05,1.37-3.8V225.7z M235.54,223.38c-0.26,0-0.39-0.13-0.39-0.39v-3.32c0-0.26,0.13-0.39,0.39-0.39h3.7
				c0.26,0,0.39,0.13,0.39,0.39V223c0,0.26-0.13,0.39-0.39,0.39H235.54z"/>
			<path class="st0" d="M249.38,238.08c-0.51,0-0.87-0.13-1.06-0.39c-0.19-0.25-0.29-0.73-0.29-1.42c0-0.77,0.09-1.3,0.27-1.58
				c0.18-0.28,0.54-0.42,1.08-0.42h4.63c0.51,0,0.9,0.14,1.15,0.42c0.26,0.28,0.39,0.77,0.39,1.47c0,0.8-0.12,1.32-0.36,1.56
				c-0.24,0.24-0.64,0.37-1.18,0.37H249.38z"/>
			<path class="st0" d="M254.01,238.08c-0.51,0-0.9-0.09-1.15-0.27c-0.26-0.18-0.39-0.54-0.39-1.08c0-0.65,0.12-1.22,0.36-1.72
				c0.24-0.5,0.64-0.75,1.18-0.75h1.89c0.64,0,1.11-0.15,1.41-0.44c0.29-0.29,0.44-0.83,0.44-1.6v-9.76c0-0.26,0.13-0.39,0.39-0.39
				h3.59c0.26,0,0.39,0.13,0.39,0.39v10.76c0,1.67-0.35,2.9-1.04,3.68c-0.69,0.78-1.85,1.18-3.47,1.18H254.01z M257.4,245.4
				c-0.26,0-0.39-0.13-0.39-0.38v-3.32c0-0.26,0.13-0.38,0.39-0.38h3.7c0.26,0,0.39,0.13,0.39,0.38v3.32c0,0.25-0.13,0.38-0.39,0.38
				H257.4z"/>
			<path class="st0" d="M277.76,225.24c-0.25,0-0.38-0.13-0.38-0.39v-3.08c0-0.26,0.13-0.39,0.38-0.39h5.86
				c2.16,0,3.88,0.54,5.15,1.62c1.27,1.08,1.91,2.84,1.91,5.28v3.63c0,0.74,0.28,1.32,0.85,1.73c0.56,0.41,1.34,0.62,2.32,0.62h0.65
				c0.51,0,0.9,0.14,1.16,0.42c0.26,0.28,0.39,0.76,0.39,1.43c0,0.74-0.12,1.26-0.37,1.54c-0.24,0.28-0.63,0.43-1.18,0.43
				c-1.08,0-2.01-0.14-2.79-0.43c-0.78-0.28-1.4-0.87-1.83-1.77c-0.49,0.88-1.15,1.46-1.99,1.75s-1.91,0.45-3.22,0.45h-8.64
				c-0.26,0-0.39-0.13-0.39-0.39v-3.04c0-0.26,0.13-0.39,0.39-0.39h7.17c0.69,0,1.25-0.05,1.66-0.15c0.41-0.1,0.73-0.28,0.95-0.52
				c0.22-0.24,0.36-0.56,0.42-0.94c0.06-0.39,0.09-0.86,0.09-1.43v-2.58c0-1.18-0.33-2.04-0.98-2.58c-0.66-0.54-1.64-0.81-2.95-0.81
				H277.76z"/>
			<path class="st0" d="M294.49,238.08c-0.51,0-0.87-0.13-1.06-0.39c-0.19-0.25-0.29-0.73-0.29-1.42c0-0.77,0.09-1.3,0.27-1.58
				c0.18-0.28,0.54-0.42,1.08-0.42h4.63c0.51,0,0.9,0.14,1.15,0.42c0.26,0.28,0.39,0.77,0.39,1.47c0,0.8-0.12,1.32-0.36,1.56
				c-0.24,0.24-0.64,0.37-1.18,0.37H294.49z"/>
			<path class="st0" d="M299.12,238.08c-0.51,0-0.87-0.13-1.06-0.39c-0.19-0.25-0.29-0.73-0.29-1.42c0-0.77,0.09-1.3,0.27-1.58
				c0.18-0.28,0.54-0.42,1.08-0.42h4.63c0.51,0,0.9,0.14,1.16,0.42c0.26,0.28,0.39,0.77,0.39,1.47c0,0.8-0.12,1.32-0.37,1.56
				c-0.24,0.24-0.64,0.37-1.18,0.37H299.12z"/>
			<path class="st0" d="M303.75,238.08c-0.51,0-0.9-0.13-1.15-0.37c-0.26-0.24-0.39-0.74-0.39-1.48c0-0.72,0.12-1.23,0.36-1.53
				c0.24-0.29,0.64-0.44,1.18-0.44h1.89c0.64,0,1.11-0.15,1.41-0.44c0.29-0.29,0.44-0.83,0.44-1.6v-19.98
				c0-0.26,0.13-0.38,0.39-0.38h3.59c0.26,0,0.39,0.13,0.39,0.38v20.98c0,1.67-0.35,2.9-1.04,3.68c-0.69,0.78-1.85,1.18-3.47,1.18
				H303.75z"/>
			<path class="st0" d="M316.86,212.24c0-0.26,0.13-0.38,0.39-0.38h3.59c0.25,0,0.39,0.13,0.39,0.38v19.98
				c0,0.77,0.15,1.31,0.44,1.6c0.29,0.29,0.76,0.44,1.41,0.44h1.35c0.51,0,0.9,0.15,1.16,0.44c0.26,0.29,0.39,0.8,0.39,1.53
				c0,0.8-0.12,1.31-0.37,1.52c-0.24,0.22-0.64,0.33-1.18,0.33h-3.04c-1.62,0-2.78-0.4-3.47-1.18c-0.69-0.78-1.04-2.01-1.04-3.68
				V212.24z"/>
			<path class="st0" d="M324.41,238.08c-0.51,0-0.9-0.15-1.15-0.45s-0.39-0.79-0.39-1.48c0-0.74,0.12-1.25,0.36-1.5
				c0.24-0.26,0.64-0.39,1.18-0.39h10.26c0.67,0,1.21-0.05,1.62-0.15c0.41-0.1,0.73-0.28,0.96-0.54s0.39-0.6,0.46-1.02
				c0.08-0.42,0.11-0.94,0.11-1.56c0-0.82-0.08-1.58-0.23-2.29c-0.15-0.71-0.41-1.32-0.77-1.83c-0.36-0.51-0.83-0.91-1.41-1.2
				c-0.58-0.29-1.3-0.42-2.18-0.42c-0.85,0-1.62,0.17-2.31,0.5c-0.69,0.33-1.31,0.78-1.85,1.35c-0.18,0.18-0.36,0.19-0.54,0.04
				l-2.01-2.08c-0.21-0.21-0.23-0.38-0.08-0.54c0.79-0.9,1.75-1.64,2.85-2.23c1.1-0.59,2.45-0.89,4.05-0.89
				c1.72,0,3.16,0.26,4.32,0.79c1.16,0.53,2.08,1.24,2.78,2.12c0.69,0.89,1.19,1.92,1.48,3.09c0.29,1.17,0.44,2.41,0.44,3.72
				c0,1.39-0.13,2.53-0.38,3.43c-0.26,0.9-0.64,1.61-1.14,2.14c-0.5,0.53-1.13,0.89-1.89,1.1c-0.76,0.21-1.64,0.31-2.64,0.31H324.41
				z M331.86,218.22c-0.26,0-0.39-0.13-0.39-0.39v-3.31c0-0.26,0.13-0.39,0.39-0.39h3.7c0.26,0,0.39,0.13,0.39,0.39v3.31
				c0,0.26-0.13,0.39-0.39,0.39H331.86z"/>
		</g>
	</g>
	<g>
		<g>
			<path class="st1" d="M28.34,266.22v-1.2c0-0.19,0.09-0.28,0.28-0.28h0.98c0.19,0,0.28,0.09,0.28,0.28v9.91
				c0,0.56,0.11,0.94,0.32,1.16c0.21,0.21,0.56,0.32,1.02,0.32h1.42c0.37,0,0.65,0.06,0.84,0.17c0.18,0.11,0.28,0.33,0.28,0.64
				c0,0.37-0.09,0.59-0.26,0.66c-0.18,0.06-0.46,0.09-0.85,0.09h-1.51c-0.33,0-0.67-0.03-1-0.09c-0.33-0.07-0.63-0.18-0.89-0.35
				c-0.26-0.17-0.48-0.41-0.64-0.72c-0.17-0.32-0.25-0.72-0.25-1.23c-0.34,0.33-0.76,0.6-1.26,0.79c-0.5,0.2-1.16,0.29-1.98,0.29
				c-1.4,0-2.51-0.4-3.34-1.21c-0.83-0.81-1.24-2.05-1.24-3.73c0-1,0.13-1.86,0.38-2.55c0.25-0.7,0.61-1.26,1.06-1.7
				c0.46-0.44,1-0.75,1.62-0.95c0.62-0.19,1.31-0.29,2.05-0.29H28.34z M25.21,275.1c1.19,0,2.01-0.27,2.46-0.81
				c0.45-0.54,0.67-1.27,0.67-2.2v-4.3h-2.99c-1,0-1.8,0.29-2.39,0.87c-0.58,0.58-0.88,1.6-0.88,3.07c0,1.19,0.27,2.05,0.8,2.58
				C23.41,274.83,24.19,275.1,25.21,275.1z M22.87,262.87c-0.19,0-0.28-0.09-0.28-0.28v-1.68c0-0.19,0.09-0.28,0.28-0.28h1.45
				c0.19,0,0.28,0.09,0.28,0.28v1.68c0,0.19-0.09,0.28-0.28,0.28H22.87z M26.44,262.87c-0.19,0-0.28-0.09-0.28-0.28v-1.68
				c0-0.19,0.09-0.28,0.28-0.28h1.45c0.19,0,0.28,0.09,0.28,0.28v1.68c0,0.19-0.09,0.28-0.28,0.28H26.44z"/>
			<path class="st1" d="M37.77,274.32c0,0.7,0.25,1.23,0.74,1.58c0.49,0.35,1.15,0.51,1.97,0.51h0.17c0.37,0,0.65,0.05,0.83,0.16
				c0.19,0.1,0.28,0.3,0.28,0.6c0,0.3-0.08,0.51-0.25,0.63c-0.17,0.13-0.46,0.18-0.86,0.18c-0.78,0-1.46-0.09-2.01-0.26
				c-0.56-0.18-0.97-0.58-1.23-1.21c-0.23,0.45-0.52,0.81-0.89,1.08s-0.91,0.4-1.62,0.4h-2.26c-0.35,0-0.61-0.05-0.77-0.15
				c-0.16-0.1-0.24-0.3-0.24-0.6c0-0.31,0.08-0.53,0.23-0.64c0.15-0.11,0.41-0.17,0.78-0.17h2.1c0.35,0,0.63-0.04,0.83-0.14
				c0.21-0.09,0.35-0.24,0.45-0.43c0.09-0.19,0.15-0.44,0.18-0.74c0.03-0.29,0.04-0.64,0.04-1.03v-7.06c0-0.19,0.09-0.28,0.28-0.28
				h0.98c0.19,0,0.28,0.09,0.28,0.28V274.32z M34.06,282.55c-0.19,0-0.28-0.09-0.28-0.28v-1.68c0-0.18,0.09-0.28,0.28-0.28h1.45
				c0.19,0,0.28,0.09,0.28,0.28v1.68c0,0.19-0.09,0.28-0.28,0.28H34.06z M37.63,282.55c-0.18,0-0.28-0.09-0.28-0.28v-1.68
				c0-0.18,0.09-0.28,0.28-0.28h1.45c0.19,0,0.28,0.09,0.28,0.28v1.68c0,0.19-0.09,0.28-0.28,0.28H37.63z"/>
			<path class="st1" d="M40.65,277.97c-0.37,0-0.65-0.04-0.84-0.14c-0.18-0.09-0.28-0.3-0.28-0.62c0-0.35,0.09-0.58,0.26-0.67
				s0.46-0.14,0.85-0.14h2.04c0.46,0,0.82-0.11,1.08-0.33c0.25-0.23,0.38-0.61,0.38-1.15v-7.93c0-0.19,0.09-0.28,0.28-0.28h0.98
				c0.19,0,0.28,0.09,0.28,0.28v7.45c0,0.6-0.04,1.12-0.14,1.56c-0.09,0.45-0.26,0.82-0.5,1.1c-0.24,0.29-0.57,0.51-0.99,0.64
				c-0.42,0.14-0.96,0.21-1.63,0.21H40.65z M44.33,263.99c-0.19,0-0.28-0.09-0.28-0.28v-1.68c0-0.19,0.09-0.28,0.28-0.28h1.12
				c0.18,0,0.28,0.09,0.28,0.28v1.68c0,0.18-0.09,0.28-0.28,0.28H44.33z"/>
			<path class="st1" d="M51.81,283.45c-0.19,0-0.28-0.09-0.28-0.28v-1.01c0-0.18,0.09-0.28,0.28-0.28h3.4c0.91,0,1.59-0.17,2.02-0.5
				c0.44-0.34,0.66-1,0.66-2.01v-1.4h-3.15c-0.78,0-1.49-0.09-2.12-0.28c-0.63-0.19-1.18-0.5-1.63-0.92s-0.81-1-1.04-1.72
				c-0.24-0.72-0.36-1.6-0.36-2.66c0-1,0.13-1.9,0.39-2.67s0.62-1.41,1.07-1.93c0.46-0.51,0.99-0.9,1.59-1.17
				c0.6-0.27,1.26-0.4,1.96-0.4c1.66,0,2.88,0.49,3.67,1.48c0.79,0.99,1.19,2.49,1.19,4.52v4.19h1.95c0.37,0,0.65,0.05,0.84,0.14
				c0.19,0.09,0.28,0.28,0.28,0.56c0,0.37-0.09,0.61-0.27,0.71c-0.18,0.1-0.46,0.15-0.85,0.15h-1.95v1.37c0,1.45-0.3,2.5-0.9,3.14
				c-0.61,0.64-1.56,0.96-2.86,0.96H51.81z M54.6,267.79c-1.02,0-1.85,0.39-2.47,1.17c-0.62,0.78-0.94,1.94-0.94,3.49
				c0,0.74,0.07,1.37,0.21,1.87c0.14,0.5,0.36,0.9,0.66,1.21c0.29,0.31,0.67,0.53,1.11,0.67c0.45,0.14,0.97,0.21,1.56,0.21h3.15
				v-4.13c0-1.43-0.25-2.54-0.75-3.32C56.64,268.18,55.79,267.79,54.6,267.79z"/>
			<path class="st1" d="M61.41,277.97c-0.37,0-0.65-0.04-0.84-0.14c-0.19-0.09-0.28-0.3-0.28-0.62c0-0.35,0.09-0.58,0.27-0.67
				s0.46-0.14,0.85-0.14h2.04c0.46,0,0.82-0.11,1.08-0.33c0.25-0.23,0.38-0.61,0.38-1.15v-7.93c0-0.19,0.09-0.28,0.28-0.28h0.98
				c0.19,0,0.28,0.09,0.28,0.28v7.45c0,0.6-0.05,1.12-0.14,1.56c-0.09,0.45-0.26,0.82-0.5,1.1c-0.24,0.29-0.57,0.51-0.99,0.64
				c-0.42,0.14-0.96,0.21-1.63,0.21H61.41z M65.1,263.99c-0.19,0-0.28-0.09-0.28-0.28v-1.68c0-0.19,0.09-0.28,0.28-0.28h1.12
				c0.19,0,0.28,0.09,0.28,0.28v1.68c0,0.18-0.09,0.28-0.28,0.28H65.1z"/>
			<path class="st1" d="M70.62,259.27c0-0.19,0.09-0.28,0.28-0.28h0.98c0.19,0,0.28,0.09,0.28,0.28v15.66
				c0,0.56,0.12,0.94,0.36,1.16c0.24,0.21,0.59,0.32,1.06,0.32h1.4c0.74,0,1.12,0.26,1.12,0.78c0,0.37-0.09,0.6-0.27,0.67
				c-0.18,0.07-0.46,0.11-0.85,0.11h-1.09c-1.17,0-2.01-0.24-2.51-0.71c-0.5-0.48-0.75-1.25-0.75-2.33V259.27z"/>
			<path class="st1" d="M81.81,266.22c0.86,0,1.62,0.13,2.28,0.39c0.66,0.26,1.21,0.62,1.66,1.09c0.45,0.46,0.79,1.01,1.02,1.63
				c0.23,0.62,0.35,1.3,0.35,2.02c0,0.54-0.07,1.06-0.22,1.56c-0.15,0.5-0.35,0.98-0.62,1.42c-0.26,0.45-0.57,0.85-0.92,1.2
				c-0.35,0.36-0.72,0.64-1.12,0.87h4.8c0.37,0,0.65,0.04,0.84,0.13c0.18,0.08,0.28,0.31,0.28,0.68c0,0.28-0.09,0.48-0.26,0.59
				c-0.18,0.11-0.46,0.17-0.85,0.17h-3.6c-0.67,0-1.3-0.03-1.9-0.08s-1.16-0.25-1.7-0.59c-0.62,0.34-1.27,0.53-1.97,0.59
				c-0.7,0.06-1.31,0.08-1.85,0.08h-3.04c-0.75,0-1.12-0.27-1.12-0.81c0-0.29,0.09-0.5,0.26-0.6c0.18-0.1,0.46-0.16,0.85-0.16h4.38
				c-0.82-0.6-1.49-1.3-2.02-2.12c-0.53-0.82-0.79-1.77-0.79-2.85c0-0.69,0.12-1.35,0.36-1.98c0.24-0.63,0.59-1.19,1.03-1.68
				s1-0.87,1.65-1.14C80.23,266.36,80.98,266.22,81.81,266.22z M81.81,267.84c-0.52,0-1,0.08-1.44,0.25
				c-0.44,0.17-0.82,0.41-1.14,0.72c-0.33,0.32-0.58,0.7-0.77,1.15c-0.19,0.45-0.28,0.95-0.28,1.51c0,0.54,0.1,1.05,0.29,1.53
				c0.19,0.49,0.46,0.92,0.8,1.31c0.33,0.39,0.72,0.73,1.15,1.02c0.44,0.29,0.9,0.53,1.38,0.71c0.49-0.19,0.95-0.42,1.38-0.71
				c0.44-0.29,0.82-0.63,1.15-1.02c0.33-0.39,0.58-0.83,0.78-1.31c0.2-0.48,0.29-0.99,0.29-1.53c0-1.15-0.34-2.05-1.02-2.68
				C83.72,268.16,82.85,267.84,81.81,267.84z M79.28,263.99c-0.19,0-0.28-0.09-0.28-0.28v-1.68c0-0.19,0.09-0.28,0.28-0.28h1.45
				c0.19,0,0.28,0.09,0.28,0.28v1.68c0,0.18-0.09,0.28-0.28,0.28H79.28z M82.85,263.99c-0.19,0-0.28-0.09-0.28-0.28v-1.68
				c0-0.19,0.09-0.28,0.28-0.28h1.45c0.19,0,0.28,0.09,0.28,0.28v1.68c0,0.18-0.09,0.28-0.28,0.28H82.85z"/>
			<path class="st1" d="M89.04,277.97c-0.37,0-0.65-0.04-0.83-0.14c-0.19-0.09-0.28-0.3-0.28-0.62c0-0.35,0.09-0.58,0.27-0.67
				c0.18-0.09,0.46-0.14,0.85-0.14h2.04c0.46,0,0.82-0.11,1.07-0.33c0.25-0.23,0.38-0.61,0.38-1.15v-15.66
				c0-0.19,0.09-0.28,0.28-0.28h0.97c0.19,0,0.28,0.09,0.28,0.28v15.18c0,0.6-0.05,1.12-0.14,1.56c-0.09,0.45-0.26,0.82-0.5,1.1
				c-0.24,0.29-0.57,0.51-0.99,0.64c-0.42,0.14-0.96,0.21-1.63,0.21H89.04z"/>
			<path class="st1" d="M99.79,277.7c0,0.19-0.09,0.28-0.28,0.28h-0.98c-0.19,0-0.28-0.09-0.28-0.28v-18.42
				c0-0.19,0.09-0.28,0.28-0.28h0.98c0.19,0,0.28,0.09,0.28,0.28V277.7z"/>
			<path class="st1" d="M127.66,276.09c0.21-0.21,0.32-0.6,0.32-1.16v-7.93c0-0.19,0.09-0.28,0.28-0.28h0.98
				c0.19,0,0.28,0.09,0.28,0.28v7.95c0,1.06-0.23,1.83-0.7,2.3c-0.47,0.47-1.2,0.71-2.21,0.71H113.3c-1.17,0-2.01-0.23-2.51-0.7
				c-0.51-0.46-0.76-1.26-0.76-2.37v-6.11c0-0.19,0.09-0.28,0.28-0.28h0.98c0.19,0,0.28,0.09,0.28,0.28v6.14
				c0,0.54,0.11,0.92,0.32,1.15c0.21,0.22,0.55,0.33,1.02,0.33h13.7C127.09,276.41,127.44,276.3,127.66,276.09z M117.34,265.64
				c-0.19,0-0.28-0.09-0.28-0.28v-1.68c0-0.19,0.09-0.28,0.28-0.28h1.45c0.19,0,0.28,0.09,0.28,0.28v1.68
				c0,0.19-0.09,0.28-0.28,0.28H117.34z M120.92,265.64c-0.19,0-0.28-0.09-0.28-0.28v-1.68c0-0.19,0.09-0.28,0.28-0.28h1.45
				c0.19,0,0.28,0.09,0.28,0.28v1.68c0,0.19-0.09,0.28-0.28,0.28H120.92z"/>
			<path class="st1" d="M134.79,277.7c0,0.19-0.09,0.28-0.28,0.28h-0.98c-0.19,0-0.28-0.09-0.28-0.28v-18.42
				c0-0.19,0.09-0.28,0.28-0.28h0.98c0.18,0,0.28,0.09,0.28,0.28V277.7z"/>
			<path class="st1" d="M137.13,283.45c-0.19,0-0.28-0.09-0.28-0.28v-1.01c0-0.18,0.09-0.28,0.28-0.28h0.64
				c0.76,0,1.34-0.19,1.74-0.59c0.4-0.39,0.6-0.99,0.6-1.79v-12.5c0-0.19,0.09-0.28,0.28-0.28h0.98c0.19,0,0.28,0.09,0.28,0.28
				v12.34c0,1.32-0.33,2.33-0.98,3.04c-0.65,0.71-1.67,1.06-3.07,1.06H137.13z"/>
			<path class="st1" d="M145.67,259.27c0-0.19,0.09-0.28,0.28-0.28h0.98c0.18,0,0.28,0.09,0.28,0.28v15.66
				c0,0.56,0.12,0.94,0.36,1.16c0.24,0.21,0.6,0.32,1.06,0.32h1.39c0.75,0,1.12,0.26,1.12,0.78c0,0.37-0.09,0.6-0.26,0.67
				s-0.46,0.11-0.85,0.11h-1.09c-1.17,0-2.01-0.24-2.51-0.71c-0.51-0.48-0.76-1.25-0.76-2.33V259.27z"/>
			<path class="st1" d="M155.92,274.35c0,0.67,0.25,1.18,0.75,1.54c0.5,0.35,1.17,0.53,2.01,0.53c0.52,0,0.94-0.03,1.24-0.08
				c0.31-0.06,0.54-0.17,0.7-0.35c0.16-0.18,0.26-0.42,0.29-0.74c0.03-0.32,0.05-0.74,0.05-1.26v-4.38c0-0.19,0.09-0.28,0.28-0.28h1
				c0.19,0,0.28,0.09,0.28,0.28v4.88c0,0.63,0.26,1.11,0.78,1.44c0.52,0.33,1.21,0.49,2.06,0.49c0.52,0,0.93-0.03,1.23-0.09
				c0.29-0.07,0.51-0.19,0.66-0.38s0.23-0.43,0.27-0.74s0.05-0.72,0.05-1.22v-6.98c0-0.19,0.09-0.28,0.28-0.28h1
				c0.19,0,0.28,0.09,0.28,0.28v7.31c0,0.7,0.24,1.23,0.74,1.58c0.49,0.35,1.15,0.51,1.97,0.51h0.14c0.37,0,0.65,0.06,0.84,0.17
				c0.18,0.11,0.28,0.33,0.28,0.64c0,0.32-0.09,0.52-0.26,0.62s-0.46,0.14-0.85,0.14c-0.76,0-1.41-0.09-1.95-0.28
				c-0.54-0.19-0.96-0.59-1.26-1.2c-0.23,0.49-0.54,0.85-0.94,1.1c-0.4,0.25-0.99,0.38-1.77,0.38h-1.28c-0.52,0-1.04-0.11-1.54-0.35
				c-0.5-0.24-0.87-0.59-1.11-1.08c-0.22,0.45-0.54,0.79-0.95,1.04c-0.41,0.25-0.99,0.38-1.73,0.38h-1.28
				c-0.52,0-1.04-0.11-1.54-0.35c-0.5-0.24-0.87-0.59-1.12-1.08c-0.22,0.45-0.53,0.79-0.93,1.04c-0.4,0.25-0.99,0.38-1.77,0.38
				h-2.99c-0.28,0-0.5-0.06-0.67-0.17c-0.17-0.11-0.25-0.28-0.25-0.5c0-0.37,0.09-0.61,0.27-0.72c0.18-0.11,0.46-0.17,0.85-0.17
				h2.87c0.35,0,0.63-0.05,0.83-0.15c0.2-0.1,0.34-0.25,0.43-0.45c0.09-0.19,0.15-0.45,0.17-0.75s0.03-0.67,0.03-1.08v-4.38
				c0-0.19,0.09-0.28,0.28-0.28h1c0.19,0,0.28,0.09,0.28,0.28V274.35z M159.21,263.99c-0.19,0-0.28-0.09-0.28-0.28v-1.68
				c0-0.19,0.09-0.28,0.28-0.28h1.45c0.18,0,0.28,0.09,0.28,0.28v1.68c0,0.18-0.09,0.28-0.28,0.28H159.21z M160.97,260.42
				c-0.19,0-0.28-0.09-0.28-0.28v-1.68c0-0.19,0.09-0.28,0.28-0.28h1.45c0.19,0,0.28,0.09,0.28,0.28v1.68
				c0,0.19-0.09,0.28-0.28,0.28H160.97z M162.78,263.99c-0.19,0-0.28-0.09-0.28-0.28v-1.68c0-0.19,0.09-0.28,0.28-0.28h1.45
				c0.19,0,0.28,0.09,0.28,0.28v1.68c0,0.18-0.09,0.28-0.28,0.28H162.78z"/>
			<path class="st1" d="M177.13,274.32c0,0.7,0.25,1.23,0.74,1.58c0.49,0.35,1.15,0.51,1.97,0.51h0.17c0.37,0,0.65,0.05,0.83,0.16
				c0.19,0.1,0.28,0.3,0.28,0.6c0,0.3-0.08,0.51-0.25,0.63c-0.17,0.13-0.46,0.18-0.86,0.18c-0.78,0-1.46-0.09-2.01-0.26
				c-0.56-0.18-0.97-0.58-1.23-1.21c-0.23,0.45-0.52,0.81-0.89,1.08c-0.37,0.27-0.91,0.4-1.62,0.4h-2.26
				c-0.35,0-0.61-0.05-0.77-0.15c-0.16-0.1-0.24-0.3-0.24-0.6c0-0.31,0.08-0.53,0.23-0.64c0.15-0.11,0.41-0.17,0.78-0.17h2.1
				c0.35,0,0.63-0.04,0.83-0.14c0.21-0.09,0.35-0.24,0.45-0.43c0.09-0.19,0.15-0.44,0.18-0.74c0.03-0.29,0.04-0.64,0.04-1.03v-7.06
				c0-0.19,0.09-0.28,0.28-0.28h0.98c0.19,0,0.28,0.09,0.28,0.28V274.32z M173.75,263.99c-0.19,0-0.28-0.09-0.28-0.28v-1.68
				c0-0.19,0.09-0.28,0.28-0.28h1.45c0.18,0,0.28,0.09,0.28,0.28v1.68c0,0.18-0.09,0.28-0.28,0.28H173.75z M177.33,263.99
				c-0.19,0-0.28-0.09-0.28-0.28v-1.68c0-0.19,0.09-0.28,0.28-0.28h1.45c0.19,0,0.28,0.09,0.28,0.28v1.68
				c0,0.18-0.09,0.28-0.28,0.28H177.33z"/>
			<path class="st1" d="M199.12,274.32c0,0.78-0.08,1.41-0.25,1.88c-0.17,0.47-0.4,0.84-0.68,1.1c-0.29,0.26-0.63,0.44-1.02,0.53
				c-0.39,0.09-0.81,0.14-1.26,0.14h-1.15c-0.52,0-1.03-0.11-1.53-0.35c-0.5-0.24-0.88-0.59-1.11-1.08
				c-0.23,0.45-0.54,0.79-0.95,1.04c-0.41,0.25-0.99,0.38-1.73,0.38h-1.29c-0.52,0-1.03-0.11-1.53-0.35
				c-0.5-0.24-0.88-0.59-1.12-1.08c-0.22,0.45-0.54,0.79-0.93,1.04c-0.4,0.25-0.99,0.38-1.78,0.38h-2.99c-0.28,0-0.5-0.06-0.67-0.17
				c-0.17-0.11-0.25-0.28-0.25-0.5c0-0.37,0.09-0.61,0.27-0.72s0.46-0.17,0.85-0.17h2.87c0.35,0,0.63-0.05,0.83-0.15
				c0.19-0.1,0.34-0.25,0.43-0.45c0.09-0.19,0.15-0.45,0.17-0.75c0.02-0.31,0.03-0.67,0.03-1.08v-4.38c0-0.19,0.09-0.28,0.28-0.28
				h1.01c0.19,0,0.28,0.09,0.28,0.28v4.74c0,0.67,0.25,1.18,0.75,1.54c0.5,0.35,1.17,0.53,2.01,0.53c0.52,0,0.94-0.03,1.24-0.08
				c0.31-0.06,0.54-0.17,0.7-0.35c0.16-0.18,0.26-0.42,0.29-0.74c0.04-0.32,0.06-0.74,0.06-1.26v-4.38c0-0.19,0.09-0.28,0.28-0.28
				h1.01c0.19,0,0.28,0.09,0.28,0.28v4.88c0,0.63,0.26,1.11,0.78,1.44c0.52,0.33,1.21,0.49,2.06,0.49c0.52,0,0.93-0.03,1.23-0.09
				c0.3-0.07,0.52-0.19,0.66-0.38c0.14-0.19,0.23-0.43,0.26-0.74s0.06-0.72,0.06-1.22v-6.98c0-0.19,0.09-0.28,0.28-0.28h1.01
				c0.19,0,0.28,0.09,0.28,0.28V274.32z"/>
			<path class="st1" d="M210.12,276.41h3.63c0.46,0,0.81-0.11,1.02-0.32c0.21-0.21,0.32-0.6,0.32-1.16v-15.66
				c0-0.19,0.09-0.28,0.28-0.28h0.98c0.19,0,0.28,0.09,0.28,0.28v15.18c0,1.3-0.25,2.22-0.75,2.74s-1.34,0.78-2.51,0.78h-10.8
				c-0.19,0-0.28-0.09-0.28-0.28v-1c0-0.19,0.09-0.28,0.28-0.28h6.03v-13.2c0-0.19,0.09-0.28,0.28-0.28h0.98
				c0.19,0,0.28,0.09,0.28,0.28V276.41z"/>
			<path class="st1" d="M222.34,277.7c0,0.19-0.09,0.28-0.28,0.28h-0.98c-0.19,0-0.28-0.09-0.28-0.28v-18.42
				c0-0.19,0.09-0.28,0.28-0.28h0.98c0.18,0,0.28,0.09,0.28,0.28V277.7z"/>
			<path class="st1" d="M228.48,283.45c-0.18,0-0.28-0.09-0.28-0.28v-1.01c0-0.18,0.09-0.28,0.28-0.28h3.41
				c0.91,0,1.59-0.17,2.02-0.5c0.44-0.34,0.66-1,0.66-2.01v-1.4h-3.16c-0.78,0-1.49-0.09-2.12-0.28c-0.63-0.19-1.17-0.5-1.63-0.92
				c-0.46-0.43-0.8-1-1.04-1.72c-0.24-0.72-0.36-1.6-0.36-2.66c0-1,0.13-1.9,0.39-2.67c0.26-0.77,0.62-1.41,1.07-1.93
				c0.46-0.51,0.99-0.9,1.59-1.17c0.61-0.27,1.26-0.4,1.97-0.4c1.66,0,2.88,0.49,3.67,1.48c0.79,0.99,1.19,2.49,1.19,4.52v7.12
				c0,1.45-0.3,2.5-0.91,3.14c-0.61,0.64-1.56,0.96-2.86,0.96H228.48z M231.27,267.79c-1.02,0-1.85,0.39-2.47,1.17
				c-0.62,0.78-0.94,1.94-0.94,3.49c0,0.74,0.07,1.37,0.21,1.87c0.14,0.5,0.36,0.9,0.66,1.21c0.3,0.31,0.67,0.53,1.11,0.67
				c0.45,0.14,0.97,0.21,1.56,0.21h3.16v-4.13c0-1.43-0.25-2.54-0.75-3.32C233.31,268.18,232.47,267.79,231.27,267.79z"/>
			<path class="st1" d="M251.12,278.17c-1.6,0-2.82-0.49-3.66-1.45c-0.84-0.97-1.26-2.49-1.26-4.55c0-3.96,1.64-5.94,4.91-5.94
				s4.91,1.98,4.91,5.94c0,2.06-0.41,3.58-1.24,4.55C253.96,277.68,252.74,278.17,251.12,278.17z M251.12,267.79
				c-1.17,0-2.02,0.4-2.54,1.19s-0.78,1.88-0.78,3.28c0,1.47,0.26,2.56,0.78,3.28s1.37,1.07,2.54,1.07s2.02-0.36,2.55-1.07
				c0.53-0.72,0.8-1.81,0.8-3.28c0-1.38-0.27-2.46-0.8-3.27C253.14,268.19,252.29,267.79,251.12,267.79z M248.61,263.99
				c-0.19,0-0.28-0.09-0.28-0.28v-1.68c0-0.19,0.09-0.28,0.28-0.28h1.45c0.19,0,0.28,0.09,0.28,0.28v1.68
				c0,0.18-0.09,0.28-0.28,0.28H248.61z M252.18,263.99c-0.19,0-0.28-0.09-0.28-0.28v-1.68c0-0.19,0.09-0.28,0.28-0.28h1.45
				c0.19,0,0.28,0.09,0.28,0.28v1.68c0,0.18-0.09,0.28-0.28,0.28H252.18z"/>
			<path class="st1" d="M259.77,259.27c0-0.19,0.09-0.28,0.28-0.28h0.98c0.19,0,0.28,0.09,0.28,0.28v15.66
				c0,0.56,0.12,0.94,0.36,1.16c0.24,0.21,0.6,0.32,1.06,0.32h1.4c0.74,0,1.12,0.26,1.12,0.78c0,0.37-0.09,0.6-0.27,0.67
				s-0.46,0.11-0.85,0.11h-1.09c-1.17,0-2.01-0.24-2.51-0.71c-0.5-0.48-0.75-1.25-0.75-2.33V259.27z"/>
			<path class="st1" d="M272.27,278.17c-0.82,0-1.57-0.12-2.25-0.36c-0.68-0.24-1.22-0.64-1.63-1.2c-0.34,0.62-0.73,1-1.17,1.15
				c-0.45,0.15-0.93,0.22-1.45,0.22h-1.65c-0.37,0-0.65-0.04-0.84-0.14c-0.19-0.09-0.28-0.3-0.28-0.62c0-0.37,0.09-0.6,0.27-0.68
				c0.18-0.08,0.46-0.13,0.85-0.13h1.53c0.21,0,0.41-0.04,0.62-0.11c0.2-0.08,0.39-0.21,0.56-0.4c0.17-0.19,0.31-0.45,0.42-0.77
				c0.11-0.32,0.17-0.72,0.17-1.2c-0.02-0.22-0.03-0.46-0.04-0.71c-0.01-0.25-0.01-0.51-0.01-0.77c0-4.15,1.63-6.23,4.91-6.23
				c1.62,0,2.84,0.49,3.67,1.48c0.83,0.99,1.24,2.47,1.24,4.46c0,2.06-0.41,3.58-1.24,4.55S273.89,278.17,272.27,278.17z
				 M272.27,267.79c-1.17,0-2.02,0.4-2.54,1.19c-0.52,0.79-0.78,1.88-0.78,3.28c0,1.47,0.26,2.56,0.78,3.28
				c0.52,0.72,1.37,1.07,2.54,1.07c1.17,0,2.02-0.36,2.55-1.07c0.53-0.72,0.8-1.81,0.8-3.28c0-1.38-0.27-2.46-0.8-3.27
				C274.3,268.19,273.45,267.79,272.27,267.79z"/>
			<path class="st1" d="M280.93,259.27c0-0.19,0.09-0.28,0.28-0.28h0.98c0.19,0,0.28,0.09,0.28,0.28v15.66
				c0,0.56,0.12,0.94,0.36,1.16c0.24,0.21,0.6,0.32,1.06,0.32h1.4c0.74,0,1.12,0.26,1.12,0.78c0,0.37-0.09,0.6-0.27,0.67
				s-0.46,0.11-0.85,0.11h-1.09c-1.17,0-2.01-0.24-2.51-0.71c-0.5-0.48-0.75-1.25-0.75-2.33V259.27z"/>
			<path class="st1" d="M297.9,274.54c0,0.63,0.22,1.1,0.65,1.41c0.44,0.31,1.01,0.46,1.72,0.46h0.45c0.37,0,0.65,0.05,0.83,0.16
				c0.19,0.1,0.28,0.31,0.28,0.63c0,0.33-0.09,0.55-0.27,0.64s-0.46,0.14-0.85,0.14c-0.78,0-1.46-0.09-2.04-0.29
				c-0.58-0.19-0.99-0.62-1.26-1.27c-0.28,0.56-0.67,0.96-1.19,1.2c-0.51,0.24-1.19,0.36-2.02,0.36h-8.93
				c-0.74,0-1.12-0.24-1.12-0.72c0-0.39,0.09-0.63,0.27-0.71c0.18-0.08,0.46-0.13,0.85-0.13h8.43c0.56,0,1-0.04,1.33-0.14
				c0.33-0.09,0.58-0.26,0.75-0.49s0.29-0.53,0.33-0.91c0.05-0.37,0.07-0.84,0.07-1.4c0-0.87-0.07-1.66-0.21-2.36
				c-0.14-0.7-0.38-1.29-0.71-1.77c-0.34-0.48-0.78-0.85-1.31-1.12c-0.54-0.26-1.21-0.39-2.01-0.39c-0.65,0-1.28,0.12-1.87,0.35
				c-0.6,0.23-1.14,0.64-1.62,1.21c-0.11,0.17-0.24,0.19-0.39,0.06l-0.75-0.67c-0.17-0.09-0.19-0.22-0.08-0.39
				c0.48-0.62,1.1-1.13,1.85-1.55c0.76-0.42,1.72-0.63,2.89-0.63c1.21,0,2.2,0.2,2.97,0.62c0.77,0.41,1.37,0.94,1.8,1.6
				c0.43,0.66,0.73,1.41,0.9,2.25c0.16,0.84,0.25,1.69,0.25,2.57V274.54z"/>
			<path class="st1" d="M313.72,273.98c0,0.49,0.05,0.88,0.14,1.2c0.09,0.32,0.22,0.57,0.39,0.75c0.17,0.19,0.37,0.31,0.61,0.38
				c0.24,0.06,0.51,0.09,0.81,0.09h0.59c0.37,0,0.65,0.06,0.83,0.17c0.19,0.11,0.28,0.33,0.28,0.64c0,0.32-0.09,0.52-0.27,0.62
				s-0.46,0.14-0.85,0.14h-0.48c-0.65,0-1.25-0.09-1.8-0.29c-0.55-0.19-0.98-0.56-1.3-1.1c-0.43,0.58-0.97,0.99-1.62,1.23
				c-0.65,0.24-1.39,0.36-2.21,0.36c-0.82,0-1.57-0.12-2.25-0.36c-0.68-0.24-1.22-0.64-1.63-1.2c-0.33,0.62-0.72,1-1.17,1.15
				c-0.45,0.15-0.93,0.22-1.45,0.22h-1.64c-0.37,0-0.65-0.04-0.84-0.14c-0.18-0.09-0.28-0.3-0.28-0.62c0-0.37,0.09-0.6,0.26-0.68
				c0.18-0.08,0.46-0.13,0.85-0.13h1.53c0.21,0,0.41-0.04,0.62-0.11c0.21-0.08,0.39-0.21,0.56-0.4c0.17-0.19,0.31-0.45,0.42-0.77
				c0.11-0.32,0.17-0.72,0.17-1.2c-0.02-0.22-0.03-0.46-0.04-0.71c-0.01-0.25-0.01-0.51-0.01-0.77c0-4.15,1.63-6.23,4.91-6.23
				c1.62,0,2.85,0.49,3.69,1.48c0.84,0.99,1.26,2.47,1.26,4.46c0,0.24,0,0.56-0.02,0.94C313.78,273.49,313.76,273.78,313.72,273.98z
				 M308.86,267.79c-1.17,0-2.01,0.4-2.54,1.19c-0.52,0.79-0.78,1.88-0.78,3.28c0,1.47,0.26,2.56,0.78,3.28
				c0.52,0.72,1.37,1.07,2.54,1.07c1.17,0,2.03-0.36,2.55-1.07c0.53-0.72,0.8-1.81,0.8-3.28c0-1.38-0.26-2.46-0.8-3.27
				C310.89,268.19,310.04,267.79,308.86,267.79z"/>
			<path class="st1" d="M321.26,274.32c0,0.7,0.24,1.23,0.74,1.58c0.49,0.35,1.15,0.51,1.97,0.51h0.17c0.37,0,0.65,0.05,0.84,0.16
				c0.19,0.1,0.28,0.3,0.28,0.6c0,0.3-0.08,0.51-0.25,0.63c-0.17,0.13-0.46,0.18-0.87,0.18c-0.78,0-1.45-0.09-2.01-0.26
				c-0.56-0.18-0.97-0.58-1.23-1.21c-0.22,0.45-0.52,0.81-0.89,1.08c-0.37,0.27-0.91,0.4-1.62,0.4h-2.15
				c-0.35,0-0.63-0.05-0.83-0.15c-0.19-0.1-0.29-0.3-0.29-0.6c0-0.31,0.09-0.53,0.28-0.64c0.19-0.11,0.46-0.17,0.84-0.17h1.98
				c0.35,0,0.63-0.04,0.84-0.14c0.2-0.09,0.35-0.24,0.45-0.43c0.09-0.19,0.15-0.44,0.18-0.74c0.03-0.29,0.04-0.64,0.04-1.03v-14.79
				c0-0.19,0.09-0.28,0.28-0.28h0.98c0.19,0,0.28,0.09,0.28,0.28V274.32z"/>
			<path class="st1" d="M324.11,277.97c-0.37,0-0.65-0.04-0.84-0.14c-0.18-0.09-0.28-0.3-0.28-0.62c0-0.35,0.09-0.58,0.26-0.67
				c0.18-0.09,0.46-0.14,0.85-0.14h2.04c0.46,0,0.82-0.11,1.08-0.33c0.25-0.23,0.38-0.61,0.38-1.15v-15.66
				c0-0.19,0.09-0.28,0.28-0.28h0.98c0.19,0,0.28,0.09,0.28,0.28v15.18c0,0.6-0.04,1.12-0.14,1.56s-0.26,0.82-0.5,1.1
				c-0.24,0.29-0.57,0.51-0.99,0.64c-0.42,0.14-0.96,0.21-1.63,0.21H324.11z"/>
		</g>
	</g>
</g>
</svg>
