<?xml version="1.0" encoding="utf-8"?>
<!-- Generator: Adobe Illustrator 26.0.1, SVG Export Plug-In . SVG Version: 6.00 Build 0)  -->
<svg version="1.1" id="Layer_1" xmlns="http://www.w3.org/2000/svg" xmlns:xlink="http://www.w3.org/1999/xlink" x="0px" y="0px"
	 viewBox="0 0 400 400" style="enable-background:new 0 0 400 400;" xml:space="preserve">
<style type="text/css">
	.st0{fill:#1D2F57;}
	.st1{fill:#222D54;}
</style>
<g>
	<g>
		<path class="st0" d="M148.64,99.82h2.83v79.56l11.6,10.69v-37.26h1.38l13.25,11.6l-0.43,0.16v39.25l19.59,18.91v-65.64l-9.67-9.77
			l9.67-9.47l0.26-9.32V99.82h5.34v122.9l20.62-19.52v-50.39h14.2v37.26l11.91-10.69V99.82h2.64l3.55-5.38H144.98L148.64,99.82z
			 M177.28,128.53l-12.52,13.44h-1.68V99.82h14.2V128.53z M237.29,137.84h-14.2V99.82h14.2V137.84z"/>
		<polygon class="st0" points="141.26,84.24 143.83,89.63 256.3,89.63 259.44,84.24 		"/>
	</g>
	<g>
		<g>
			<path class="st0" d="M40.51,271.44c1.65,0,2.77-0.2,3.38-0.62s0.9-0.93,0.9-1.56c0-0.52-0.16-0.97-0.47-1.34
				c-0.31-0.37-0.81-0.73-1.48-1.07c-0.67-0.34-1.52-0.7-2.55-1.07c-1.03-0.37-2.24-0.81-3.64-1.33c-0.25-0.08-0.33-0.25-0.25-0.5
				l1.11-3.25c0.08-0.27,0.25-0.37,0.5-0.29c0.88,0.33,1.71,0.67,2.51,1.01c0.8,0.34,1.58,0.64,2.35,0.9
				c0.77,0.26,1.52,0.48,2.26,0.66c0.74,0.18,1.51,0.27,2.3,0.27h4.11c0.55,0,0.96,0.14,1.24,0.41c0.27,0.27,0.41,0.77,0.41,1.48
				c0,0.8-0.13,1.36-0.39,1.69s-0.68,0.5-1.26,0.5h-2.84c0.13,0.22,0.29,0.57,0.47,1.05c0.18,0.48,0.27,0.99,0.27,1.54
				c0,0.77-0.15,1.49-0.45,2.18c-0.3,0.69-0.78,1.29-1.42,1.81c-0.65,0.52-1.48,0.94-2.51,1.25c-1.03,0.31-2.28,0.48-3.76,0.48
				h-9.39c-3.57,0-6.22-0.82-7.97-2.47c-1.74-1.64-2.61-3.88-2.61-6.71c0-0.77,0.08-1.55,0.23-2.33c0.15-0.78,0.35-1.54,0.6-2.26
				c0.25-0.73,0.53-1.41,0.84-2.06c0.31-0.65,0.65-1.22,1.01-1.71c0.14-0.22,0.33-0.24,0.58-0.08l3.25,1.69
				c0.22,0.14,0.26,0.31,0.12,0.54c-0.47,0.77-0.9,1.66-1.3,2.67c-0.4,1.02-0.6,2.06-0.6,3.13c0,1.05,0.18,1.91,0.56,2.59
				c0.37,0.69,0.86,1.24,1.46,1.65c0.6,0.41,1.29,0.71,2.06,0.88c0.77,0.18,1.55,0.27,2.34,0.27H40.51z"/>
			<path class="st0" d="M51.5,267.33c-0.55,0-0.92-0.14-1.13-0.42c-0.2-0.27-0.31-0.78-0.31-1.52c0-0.82,0.1-1.39,0.29-1.69
				c0.19-0.3,0.58-0.45,1.15-0.45h4.94c0.55,0,0.96,0.15,1.23,0.45c0.27,0.3,0.41,0.82,0.41,1.56c0,0.85-0.13,1.41-0.39,1.67
				c-0.26,0.26-0.68,0.39-1.26,0.39H51.5z"/>
			<path class="st0" d="M66.53,260.7c0,0.88,0.23,1.52,0.68,1.93c0.45,0.42,1.17,0.62,2.16,0.62c0.69,0,1.23-0.05,1.63-0.14
				c0.4-0.09,0.69-0.29,0.88-0.6c0.19-0.3,0.31-0.71,0.35-1.24c0.04-0.52,0.06-1.22,0.06-2.1v-5.27c0-0.27,0.14-0.42,0.41-0.42h3.83
				c0.27,0,0.41,0.14,0.41,0.42v6.87c0,0.85,0.26,1.47,0.78,1.87c0.52,0.4,1.21,0.6,2.06,0.6c0.63,0,1.14-0.05,1.52-0.14
				c0.38-0.09,0.68-0.29,0.88-0.58c0.2-0.29,0.33-0.7,0.39-1.23c0.05-0.54,0.08-1.23,0.08-2.08v-8.56c0-0.27,0.14-0.41,0.41-0.41
				h3.83c0.27,0,0.41,0.14,0.41,0.41v10.04c0,0.82,0.31,1.46,0.92,1.89c0.62,0.44,1.45,0.66,2.49,0.66h0.7
				c0.55,0,0.96,0.15,1.23,0.45s0.41,0.81,0.41,1.52c0,0.79-0.14,1.34-0.41,1.64s-0.69,0.46-1.23,0.46c-1.07,0-2-0.13-2.78-0.39
				c-0.78-0.26-1.41-0.83-1.87-1.71c-0.39,0.77-0.94,1.31-1.67,1.62c-0.73,0.31-1.71,0.48-2.94,0.48H80.4
				c-0.96,0-1.78-0.19-2.45-0.56c-0.67-0.37-1.19-0.9-1.54-1.59c-0.38,0.8-0.94,1.35-1.66,1.67c-0.73,0.31-1.71,0.48-2.94,0.48
				h-1.81c-1.95,0-3.28-0.73-3.99-2.18c-0.39,0.8-0.94,1.36-1.67,1.69s-1.71,0.5-2.94,0.5h-4.44c-0.3,0-0.58-0.01-0.82-0.04
				c-0.24-0.03-0.45-0.1-0.62-0.22c-0.16-0.12-0.29-0.31-0.37-0.56c-0.08-0.25-0.12-0.59-0.12-1.03c0-0.82,0.13-1.4,0.39-1.73
				c0.26-0.33,0.68-0.49,1.26-0.49h3.29c0.5,0,0.87-0.08,1.13-0.22c0.26-0.15,0.45-0.4,0.58-0.72c0.12-0.33,0.19-0.74,0.21-1.25
				c0.01-0.51,0.02-1.13,0.02-1.88v-5.27c0-0.27,0.14-0.42,0.41-0.42h3.83c0.27,0,0.41,0.14,0.41,0.42V260.7z M70.19,246.13
				c-0.27,0-0.41-0.14-0.41-0.41v-3.54c0-0.27,0.14-0.42,0.41-0.42h3.46c0.27,0,0.41,0.14,0.41,0.42v3.54
				c0,0.27-0.14,0.41-0.41,0.41H70.19z M72.82,240.82c-0.27,0-0.41-0.14-0.41-0.41v-3.54c0-0.27,0.14-0.41,0.41-0.41h3.46
				c0.27,0,0.41,0.13,0.41,0.41v3.54c0,0.27-0.14,0.41-0.41,0.41H72.82z M75.54,246.13c-0.27,0-0.41-0.14-0.41-0.41v-3.54
				c0-0.27,0.13-0.42,0.41-0.42H79c0.27,0,0.41,0.14,0.41,0.42v3.54c0,0.27-0.14,0.41-0.41,0.41H75.54z"/>
			<path class="st0" d="M93.4,252.84c0.85-0.96,1.87-1.76,3.04-2.38c1.18-0.63,2.62-0.95,4.32-0.95c1.84,0,3.37,0.28,4.61,0.84
				c1.23,0.56,2.22,1.32,2.96,2.26c0.74,0.95,1.27,2.05,1.58,3.3c0.31,1.25,0.47,2.57,0.47,3.97c0,0.19-0.01,0.37-0.02,0.53
				c-0.01,0.16-0.02,0.33-0.02,0.49c0.08,0.74,0.42,1.32,1.01,1.73c0.59,0.42,1.39,0.62,2.41,0.62h0.7c0.55,0,0.96,0.15,1.24,0.45
				s0.41,0.81,0.41,1.52c0,0.79-0.13,1.34-0.39,1.64s-0.68,0.46-1.26,0.46c-1.15,0-2.16-0.15-3.02-0.46c-0.86-0.3-1.53-0.96-2-1.98
				c-0.52,0.93-1.24,1.57-2.16,1.92c-0.92,0.34-2.04,0.52-3.35,0.52H91.22c-0.55,0-0.96-0.16-1.24-0.48
				c-0.27-0.31-0.41-0.84-0.41-1.58c0-0.79,0.13-1.33,0.39-1.6s0.68-0.41,1.26-0.41h10.95c0.71,0,1.29-0.06,1.73-0.16
				c0.44-0.11,0.78-0.3,1.03-0.58c0.24-0.27,0.41-0.64,0.49-1.09c0.08-0.45,0.12-1.01,0.12-1.67c0-0.88-0.08-1.69-0.25-2.43
				c-0.16-0.74-0.44-1.39-0.82-1.94c-0.38-0.55-0.88-0.98-1.5-1.3c-0.62-0.31-1.39-0.47-2.32-0.47c-0.91,0-1.73,0.18-2.47,0.54
				c-0.74,0.36-1.4,0.84-1.97,1.44c-0.19,0.19-0.39,0.2-0.58,0.04l-2.14-2.22C93.26,253.19,93.24,253.01,93.4,252.84z M99.16,246.13
				c-0.27,0-0.41-0.14-0.41-0.41v-3.54c0-0.27,0.14-0.42,0.41-0.42h3.95c0.27,0,0.41,0.14,0.41,0.42v3.54
				c0,0.27-0.14,0.41-0.41,0.41H99.16z"/>
			<path class="st0" d="M114.47,267.33c-0.55,0-0.96-0.13-1.23-0.39c-0.27-0.26-0.41-0.79-0.41-1.58c0-0.77,0.13-1.31,0.39-1.63
				c0.26-0.31,0.68-0.47,1.26-0.47h2.02c0.69,0,1.19-0.16,1.5-0.47c0.31-0.31,0.47-0.88,0.47-1.71v-21.32
				c0-0.27,0.14-0.41,0.41-0.41h3.83c0.27,0,0.41,0.13,0.41,0.41v22.39c0,1.79-0.37,3.09-1.11,3.93c-0.74,0.84-1.98,1.26-3.7,1.26
				H114.47z"/>
			<path class="st0" d="M133.12,266.91c0,0.27-0.14,0.42-0.41,0.42h-3.83c-0.27,0-0.41-0.14-0.41-0.42v-27.16
				c0-0.27,0.14-0.41,0.41-0.41h3.83c0.27,0,0.41,0.13,0.41,0.41V266.91z"/>
			<path class="st0" d="M149.83,253.62c-0.27,0-0.41-0.14-0.41-0.42v-3.29c0-0.27,0.14-0.41,0.41-0.41h6.26
				c2.3,0,4.14,0.58,5.5,1.73c1.36,1.15,2.04,3.03,2.04,5.64v3.87c0,0.79,0.3,1.41,0.9,1.85c0.6,0.44,1.43,0.66,2.47,0.66h0.7
				c0.55,0,0.96,0.15,1.24,0.45s0.41,0.81,0.41,1.52c0,0.79-0.13,1.34-0.39,1.64s-0.68,0.46-1.26,0.46c-1.15,0-2.15-0.15-2.98-0.46
				c-0.84-0.3-1.49-0.93-1.96-1.89c-0.52,0.93-1.23,1.56-2.12,1.87c-0.89,0.31-2.04,0.48-3.44,0.48h-9.22
				c-0.27,0-0.41-0.14-0.41-0.42v-3.25c0-0.27,0.14-0.41,0.41-0.41h7.65c0.74,0,1.33-0.06,1.77-0.16c0.44-0.11,0.78-0.29,1.01-0.56
				c0.23-0.26,0.38-0.6,0.45-1.01c0.07-0.41,0.1-0.92,0.1-1.52v-2.76c0-1.26-0.35-2.18-1.05-2.76c-0.7-0.58-1.75-0.86-3.15-0.86
				H149.83z"/>
			<path class="st0" d="M167.69,267.33c-0.55,0-0.92-0.14-1.13-0.42c-0.2-0.27-0.31-0.78-0.31-1.52c0-0.82,0.1-1.39,0.29-1.69
				c0.19-0.3,0.58-0.45,1.15-0.45h4.94c0.55,0,0.96,0.15,1.23,0.45s0.41,0.82,0.41,1.56c0,0.85-0.13,1.41-0.39,1.67
				c-0.26,0.26-0.68,0.39-1.26,0.39H167.69z"/>
			<path class="st0" d="M176.79,258.27c0.03-1.59,0.25-2.94,0.68-4.05c0.43-1.11,1.01-2.02,1.77-2.72c0.75-0.7,1.64-1.21,2.66-1.52
				c1.01-0.31,2.12-0.47,3.33-0.47c1.21,0,2.33,0.16,3.37,0.49c1.05,0.33,1.94,0.85,2.7,1.56c0.76,0.71,1.35,1.66,1.77,2.84
				c0.43,1.18,0.64,2.61,0.64,4.28c0,0.24,0,0.49,0,0.72s-0.01,0.46-0.04,0.68c0.03,1.15,0.29,1.97,0.8,2.45
				c0.51,0.48,1.09,0.72,1.75,0.72h1.19c0.55,0,0.96,0.15,1.24,0.45s0.41,0.81,0.41,1.52c0,0.79-0.13,1.34-0.39,1.64
				s-0.68,0.46-1.26,0.46c-0.47,0-0.95-0.01-1.46-0.04c-0.51-0.03-1.01-0.12-1.52-0.26c-0.51-0.15-0.99-0.38-1.44-0.66
				s-0.86-0.69-1.21-1.21c-0.74,0.88-1.67,1.51-2.78,1.9c-1.11,0.38-2.36,0.58-3.76,0.58c-1.37,0-2.61-0.19-3.7-0.56
				c-1.1-0.37-2.02-0.98-2.76-1.83c-0.27,0.44-0.61,0.79-0.99,1.07c-0.39,0.27-0.78,0.49-1.2,0.64c-0.41,0.15-0.84,0.25-1.28,0.31
				s-0.85,0.08-1.23,0.08h-1.44c-0.55,0-0.96-0.16-1.24-0.48c-0.27-0.31-0.41-0.84-0.41-1.58c0-0.79,0.13-1.33,0.39-1.6
				s0.68-0.41,1.26-0.41h1.6c0.66,0,1.25-0.27,1.77-0.8c0.52-0.54,0.8-1.52,0.82-2.94c-0.03-0.22-0.04-0.43-0.04-0.62
				C176.79,258.7,176.79,258.49,176.79,258.27z M185.23,253.62c-1.32,0-2.29,0.42-2.92,1.27c-0.63,0.85-0.94,2.09-0.94,3.7
				c0,1.76,0.31,3.02,0.94,3.79c0.63,0.77,1.61,1.15,2.92,1.15c1.34,0,2.33-0.39,2.96-1.17c0.63-0.78,0.94-2.04,0.94-3.77
				C189.13,255.28,187.83,253.62,185.23,253.62z"/>
			<path class="st0" d="M199.55,252.84c0.85-0.96,1.87-1.76,3.04-2.38c1.18-0.63,2.62-0.95,4.32-0.95c1.84,0,3.37,0.28,4.61,0.84
				c1.23,0.56,2.22,1.32,2.96,2.26c0.74,0.95,1.27,2.05,1.58,3.3c0.31,1.25,0.47,2.57,0.47,3.97c0,0.19-0.01,0.37-0.02,0.53
				s-0.02,0.33-0.02,0.49c0.08,0.74,0.42,1.32,1.01,1.73c0.59,0.42,1.39,0.62,2.41,0.62h0.7c0.55,0,0.96,0.15,1.24,0.45
				s0.41,0.81,0.41,1.52c0,0.79-0.13,1.34-0.39,1.64s-0.68,0.46-1.26,0.46c-1.15,0-2.16-0.15-3.02-0.46c-0.86-0.3-1.53-0.96-2-1.98
				c-0.52,0.93-1.24,1.57-2.16,1.92c-0.92,0.34-2.04,0.52-3.35,0.52h-12.72c-0.55,0-0.96-0.16-1.24-0.48
				c-0.27-0.31-0.41-0.84-0.41-1.58c0-0.79,0.13-1.33,0.39-1.6s0.68-0.41,1.26-0.41h10.95c0.71,0,1.29-0.06,1.73-0.16
				c0.44-0.11,0.78-0.3,1.03-0.58c0.24-0.27,0.41-0.64,0.49-1.09c0.08-0.45,0.12-1.01,0.12-1.67c0-0.88-0.08-1.69-0.25-2.43
				c-0.16-0.74-0.44-1.39-0.82-1.94c-0.38-0.55-0.88-0.98-1.5-1.3c-0.62-0.31-1.39-0.47-2.32-0.47c-0.91,0-1.73,0.18-2.47,0.54
				c-0.74,0.36-1.4,0.84-1.97,1.44c-0.19,0.19-0.39,0.2-0.58,0.04l-2.14-2.22C199.41,253.19,199.38,253.01,199.55,252.84z"/>
			<path class="st0" d="M233.21,267.62c-1.37,0-2.61-0.19-3.7-0.56c-1.1-0.37-2.02-0.98-2.76-1.83c-0.27,0.44-0.6,0.79-0.99,1.07
				s-0.78,0.49-1.19,0.64s-0.84,0.25-1.28,0.31c-0.44,0.06-0.85,0.08-1.24,0.08h-1.44c-0.55,0-0.96-0.16-1.23-0.48
				c-0.27-0.31-0.41-0.84-0.41-1.58c0-0.79,0.13-1.33,0.39-1.6c0.26-0.27,0.68-0.41,1.26-0.41h1.6c0.3,0,0.61-0.06,0.91-0.18
				c0.3-0.12,0.58-0.33,0.82-0.62c0.24-0.29,0.45-0.68,0.62-1.15c0.16-0.48,0.25-1.08,0.25-1.79c-0.03-0.22-0.04-0.43-0.04-0.62
				c0-0.19,0-0.4,0-0.62c0.03-1.59,0.25-2.94,0.68-4.05c0.43-1.11,1.01-2.02,1.77-2.72c0.76-0.7,1.64-1.21,2.66-1.52
				s2.13-0.47,3.33-0.47c1.21,0,2.33,0.16,3.38,0.49c1.04,0.33,1.94,0.85,2.7,1.56c0.75,0.71,1.34,1.66,1.77,2.84
				c0.43,1.18,0.64,2.61,0.64,4.28c0,1.62-0.21,2.99-0.62,4.12c-0.41,1.13-0.99,2.04-1.73,2.76c-0.74,0.71-1.63,1.24-2.67,1.56
				C235.63,267.45,234.48,267.62,233.21,267.62z M233.21,253.62c-1.32,0-2.29,0.42-2.92,1.27c-0.63,0.85-0.95,2.09-0.95,3.7
				c0,1.76,0.31,3.02,0.95,3.79c0.63,0.77,1.6,1.15,2.92,1.15c1.35,0,2.33-0.39,2.96-1.17c0.63-0.78,0.95-2.04,0.95-3.77
				C237.13,255.28,235.82,253.62,233.21,253.62z"/>
			<path class="st0" d="M270.88,254.12c0-0.27,0.14-0.41,0.41-0.41h3.83c0.27,0,0.41,0.14,0.41,0.41v6.59
				c0,0.82,0.31,1.46,0.92,1.89c0.62,0.44,1.45,0.66,2.49,0.66h0.46c0.55,0,0.96,0.15,1.23,0.45s0.41,0.81,0.41,1.52
				c0,0.79-0.13,1.34-0.39,1.64s-0.68,0.46-1.25,0.46c-0.82,0-1.56-0.08-2.2-0.25c-0.64-0.17-1.2-0.52-1.66-1.07v0.46
				c0,1.56-0.24,2.93-0.72,4.11c-0.48,1.18-1.17,2.16-2.06,2.94c-0.89,0.78-1.96,1.36-3.19,1.75c-1.24,0.39-2.61,0.58-4.12,0.58
				c-1.45,0-2.79-0.19-4.01-0.58c-1.22-0.39-2.28-0.97-3.19-1.75c-0.91-0.78-1.61-1.77-2.12-2.94c-0.51-1.18-0.76-2.57-0.76-4.16
				c0-1.48,0.23-2.96,0.7-4.44c0.47-1.48,1.05-2.76,1.73-3.83c0.14-0.25,0.35-0.27,0.62-0.09l3.33,1.32
				c0.14,0.05,0.21,0.13,0.23,0.23c0.01,0.09-0.01,0.2-0.06,0.31c-0.44,0.77-0.86,1.67-1.26,2.69c-0.4,1.03-0.6,2.16-0.6,3.4
				c0,1.07,0.17,1.97,0.52,2.7c0.34,0.73,0.78,1.31,1.32,1.75c0.54,0.44,1.13,0.74,1.79,0.92c0.66,0.18,1.3,0.27,1.93,0.27
				c1.56,0,2.83-0.42,3.81-1.26c0.97-0.84,1.46-2.19,1.46-4.06V254.12z M264.62,251.65c-0.27,0-0.41-0.14-0.41-0.41v-3.54
				c0-0.27,0.14-0.41,0.41-0.41h3.95c0.27,0,0.41,0.14,0.41,0.41v3.54c0,0.27-0.14,0.41-0.41,0.41H264.62z"/>
			<path class="st0" d="M279.39,267.33c-0.55,0-0.92-0.14-1.13-0.42c-0.2-0.27-0.31-0.78-0.31-1.52c0-0.82,0.1-1.39,0.29-1.69
				c0.19-0.3,0.58-0.45,1.15-0.45h4.94c0.55,0,0.96,0.15,1.23,0.45s0.41,0.82,0.41,1.56c0,0.85-0.13,1.41-0.39,1.67
				c-0.26,0.26-0.68,0.39-1.26,0.39H279.39z"/>
			<path class="st0" d="M284.33,267.33c-0.55,0-0.96-0.1-1.23-0.29c-0.27-0.19-0.41-0.58-0.41-1.15c0-0.69,0.13-1.3,0.39-1.84
				c0.26-0.53,0.68-0.8,1.26-0.8h2.02c0.69,0,1.19-0.16,1.5-0.47s0.47-0.88,0.47-1.71v-10.41c0-0.27,0.14-0.41,0.41-0.41h3.83
				c0.27,0,0.41,0.14,0.41,0.41v11.48c0,1.79-0.37,3.09-1.11,3.93c-0.74,0.84-1.98,1.26-3.7,1.26H284.33z M287.96,275.15
				c-0.27,0-0.41-0.14-0.41-0.41v-3.54c0-0.27,0.14-0.41,0.41-0.41h3.95c0.27,0,0.41,0.13,0.41,0.41v3.54
				c0,0.27-0.14,0.41-0.41,0.41H287.96z"/>
			<path class="st0" d="M309.69,253.62c-0.27,0-0.41-0.14-0.41-0.42v-3.29c0-0.27,0.14-0.41,0.41-0.41h6.26
				c2.3,0,4.14,0.58,5.5,1.73c1.36,1.15,2.04,3.03,2.04,5.64v3.87c0,0.79,0.3,1.41,0.9,1.85c0.6,0.44,1.43,0.66,2.47,0.66h0.7
				c0.55,0,0.96,0.15,1.24,0.45s0.41,0.81,0.41,1.52c0,0.79-0.13,1.34-0.39,1.64s-0.68,0.46-1.26,0.46c-1.15,0-2.15-0.15-2.98-0.46
				c-0.84-0.3-1.49-0.93-1.96-1.89c-0.52,0.93-1.23,1.56-2.12,1.87c-0.89,0.31-2.04,0.48-3.44,0.48h-9.22
				c-0.27,0-0.41-0.14-0.41-0.42v-3.25c0-0.27,0.14-0.41,0.41-0.41h7.65c0.74,0,1.33-0.06,1.77-0.16c0.44-0.11,0.78-0.29,1.01-0.56
				c0.23-0.26,0.38-0.6,0.45-1.01c0.07-0.41,0.1-0.92,0.1-1.52v-2.76c0-1.26-0.35-2.18-1.05-2.76c-0.7-0.58-1.75-0.86-3.15-0.86
				H309.69z"/>
			<path class="st0" d="M327.55,267.33c-0.55,0-0.92-0.14-1.13-0.42c-0.2-0.27-0.31-0.78-0.31-1.52c0-0.82,0.1-1.39,0.29-1.69
				c0.19-0.3,0.58-0.45,1.15-0.45h4.94c0.55,0,0.96,0.15,1.23,0.45s0.41,0.82,0.41,1.56c0,0.85-0.13,1.41-0.39,1.67
				c-0.26,0.26-0.68,0.39-1.26,0.39H327.55z"/>
			<path class="st0" d="M332.49,267.33c-0.55,0-0.93-0.14-1.13-0.42c-0.21-0.27-0.31-0.78-0.31-1.52c0-0.82,0.09-1.39,0.29-1.69
				c0.19-0.3,0.58-0.45,1.15-0.45h4.94c0.55,0,0.96,0.15,1.24,0.45s0.41,0.82,0.41,1.56c0,0.85-0.13,1.41-0.39,1.67
				c-0.26,0.26-0.68,0.39-1.26,0.39H332.49z"/>
			<path class="st0" d="M337.43,267.33c-0.55,0-0.96-0.13-1.23-0.39c-0.27-0.26-0.41-0.79-0.41-1.58c0-0.77,0.13-1.31,0.39-1.63
				c0.26-0.31,0.68-0.47,1.26-0.47h2.02c0.69,0,1.19-0.16,1.5-0.47c0.31-0.31,0.47-0.88,0.47-1.71v-21.32
				c0-0.27,0.14-0.41,0.41-0.41h3.83c0.27,0,0.41,0.13,0.41,0.41v22.39c0,1.79-0.37,3.09-1.11,3.93c-0.74,0.84-1.98,1.26-3.7,1.26
				H337.43z"/>
			<path class="st0" d="M351.42,239.75c0-0.27,0.14-0.41,0.41-0.41h3.83c0.27,0,0.41,0.13,0.41,0.41v21.32
				c0,0.82,0.16,1.39,0.47,1.71s0.81,0.47,1.5,0.47h1.44c0.55,0,0.96,0.16,1.24,0.47s0.41,0.86,0.41,1.63
				c0,0.85-0.13,1.39-0.39,1.62c-0.26,0.23-0.68,0.35-1.26,0.35h-3.25c-1.73,0-2.96-0.42-3.7-1.26c-0.74-0.83-1.11-2.14-1.11-3.93
				V239.75z"/>
			<path class="st0" d="M359.49,267.33c-0.55,0-0.96-0.16-1.23-0.48c-0.27-0.31-0.41-0.84-0.41-1.58c0-0.79,0.13-1.33,0.39-1.6
				c0.26-0.27,0.68-0.41,1.26-0.41h10.95c0.71,0,1.29-0.06,1.73-0.16c0.44-0.11,0.78-0.3,1.03-0.58s0.41-0.64,0.5-1.09
				c0.08-0.45,0.12-1.01,0.12-1.67c0-0.88-0.08-1.69-0.24-2.45c-0.16-0.76-0.44-1.41-0.82-1.96c-0.39-0.55-0.88-0.97-1.5-1.28
				c-0.62-0.3-1.39-0.45-2.32-0.45c-0.9,0-1.73,0.18-2.47,0.54c-0.74,0.36-1.4,0.84-1.98,1.44c-0.19,0.19-0.39,0.2-0.58,0.04
				l-2.14-2.22c-0.22-0.22-0.25-0.41-0.08-0.58c0.85-0.96,1.87-1.76,3.04-2.38c1.18-0.63,2.62-0.95,4.32-0.95
				c1.84,0,3.38,0.28,4.61,0.84c1.24,0.56,2.22,1.32,2.96,2.26c0.74,0.95,1.27,2.05,1.58,3.3c0.31,1.25,0.47,2.57,0.47,3.97
				c0,1.48-0.14,2.7-0.41,3.66c-0.27,0.96-0.68,1.72-1.22,2.28s-1.21,0.95-2.02,1.17c-0.81,0.22-1.75,0.33-2.82,0.33H359.49z
				 M367.43,246.13c-0.27,0-0.41-0.14-0.41-0.41v-3.54c0-0.27,0.14-0.42,0.41-0.42h3.95c0.27,0,0.41,0.14,0.41,0.42v3.54
				c0,0.27-0.14,0.41-0.41,0.41H367.43z"/>
		</g>
	</g>
	<g>
		<g>
			<path class="st1" d="M43.45,297.37v-1.28c0-0.2,0.1-0.3,0.3-0.3h1.04c0.2,0,0.3,0.1,0.3,0.3v10.57c0,0.6,0.11,1.01,0.34,1.24
				c0.23,0.23,0.59,0.34,1.09,0.34h1.52c0.4,0,0.7,0.06,0.9,0.18c0.19,0.12,0.29,0.35,0.29,0.68c0,0.4-0.09,0.63-0.28,0.7
				c-0.19,0.07-0.49,0.1-0.91,0.1h-1.61c-0.36,0-0.71-0.03-1.07-0.1c-0.36-0.07-0.68-0.19-0.95-0.38c-0.28-0.18-0.51-0.44-0.69-0.77
				c-0.18-0.34-0.27-0.77-0.27-1.31c-0.36,0.36-0.81,0.64-1.34,0.85c-0.54,0.21-1.24,0.31-2.11,0.31c-1.49,0-2.68-0.43-3.56-1.29
				c-0.88-0.86-1.33-2.19-1.33-3.98c0-1.07,0.13-1.98,0.4-2.73c0.27-0.74,0.65-1.35,1.13-1.82c0.49-0.47,1.07-0.8,1.73-1.01
				c0.67-0.21,1.4-0.31,2.19-0.31H43.45z M40.11,306.85c1.27,0,2.15-0.29,2.63-0.86c0.48-0.58,0.71-1.36,0.71-2.35v-4.59h-3.19
				c-1.07,0-1.92,0.31-2.55,0.92c-0.62,0.62-0.94,1.71-0.94,3.28c0,1.27,0.28,2.19,0.85,2.76
				C38.19,306.57,39.02,306.85,40.11,306.85z M37.61,293.8c-0.2,0-0.3-0.1-0.3-0.29v-1.79c0-0.2,0.1-0.3,0.3-0.3h1.55
				c0.2,0,0.3,0.1,0.3,0.3v1.79c0,0.2-0.1,0.29-0.3,0.29H37.61z M41.42,293.8c-0.2,0-0.3-0.1-0.3-0.29v-1.79c0-0.2,0.1-0.3,0.3-0.3
				h1.55c0.2,0,0.3,0.1,0.3,0.3v1.79c0,0.2-0.1,0.29-0.3,0.29H41.42z"/>
			<path class="st1" d="M53.52,306.02c0,0.75,0.26,1.31,0.79,1.68c0.53,0.37,1.23,0.55,2.1,0.55h0.18c0.4,0,0.69,0.06,0.89,0.17
				c0.2,0.11,0.3,0.32,0.3,0.64c0,0.32-0.09,0.54-0.27,0.67c-0.18,0.13-0.49,0.19-0.92,0.19c-0.84,0-1.55-0.09-2.15-0.28
				c-0.6-0.19-1.04-0.62-1.31-1.3c-0.24,0.48-0.56,0.86-0.95,1.15c-0.4,0.29-0.97,0.43-1.73,0.43h-2.42c-0.38,0-0.65-0.05-0.82-0.16
				c-0.17-0.11-0.25-0.32-0.25-0.64c0-0.33,0.08-0.56,0.24-0.68c0.16-0.12,0.44-0.18,0.83-0.18h2.24c0.38,0,0.67-0.05,0.89-0.15
				c0.22-0.1,0.38-0.25,0.48-0.46c0.1-0.21,0.16-0.47,0.19-0.79c0.03-0.31,0.05-0.68,0.05-1.1v-7.54c0-0.2,0.1-0.3,0.3-0.3h1.04
				c0.2,0,0.3,0.1,0.3,0.3V306.02z M49.56,314.8c-0.2,0-0.3-0.1-0.3-0.3v-1.79c0-0.19,0.1-0.29,0.3-0.29h1.55
				c0.2,0,0.3,0.1,0.3,0.29v1.79c0,0.2-0.1,0.3-0.3,0.3H49.56z M53.37,314.8c-0.19,0-0.29-0.1-0.29-0.3v-1.79
				c0-0.19,0.1-0.29,0.29-0.29h1.55c0.2,0,0.3,0.1,0.3,0.29v1.79c0,0.2-0.1,0.3-0.3,0.3H53.37z"/>
			<path class="st1" d="M56.59,309.92c-0.4,0-0.7-0.05-0.9-0.15c-0.19-0.1-0.29-0.32-0.29-0.66c0-0.38,0.09-0.62,0.28-0.71
				c0.19-0.1,0.49-0.15,0.91-0.15h2.17c0.5,0,0.88-0.12,1.15-0.36c0.27-0.24,0.4-0.65,0.4-1.22v-8.46c0-0.2,0.1-0.3,0.29-0.3h1.05
				c0.2,0,0.29,0.1,0.29,0.3v7.96c0,0.64-0.05,1.19-0.15,1.67c-0.1,0.48-0.28,0.87-0.54,1.18c-0.26,0.31-0.61,0.54-1.06,0.69
				c-0.45,0.15-1.02,0.22-1.74,0.22H56.59z M60.52,294.99c-0.2,0-0.3-0.1-0.3-0.29v-1.79c0-0.2,0.1-0.3,0.3-0.3h1.19
				c0.19,0,0.29,0.1,0.29,0.3v1.79c0,0.19-0.1,0.29-0.29,0.29H60.52z"/>
			<path class="st1" d="M68.5,315.76c-0.2,0-0.3-0.1-0.3-0.3v-1.08c0-0.19,0.1-0.29,0.3-0.29h3.63c0.97,0,1.69-0.18,2.16-0.54
				c0.47-0.36,0.7-1.07,0.7-2.15v-1.49h-3.37c-0.83,0-1.59-0.1-2.26-0.29c-0.67-0.2-1.26-0.53-1.74-0.98
				c-0.49-0.46-0.86-1.07-1.12-1.83c-0.26-0.76-0.39-1.71-0.39-2.84c0-1.07,0.14-2.02,0.42-2.85c0.28-0.82,0.66-1.51,1.15-2.06
				c0.49-0.54,1.06-0.96,1.7-1.25c0.64-0.29,1.35-0.43,2.1-0.43c1.77,0,3.07,0.53,3.92,1.58c0.84,1.05,1.27,2.66,1.27,4.82v4.47
				h2.09c0.4,0,0.69,0.05,0.89,0.15c0.2,0.1,0.3,0.3,0.3,0.6c0,0.4-0.1,0.65-0.28,0.76c-0.19,0.11-0.49,0.16-0.91,0.16h-2.09v1.46
				c0,1.55-0.32,2.67-0.96,3.35c-0.65,0.69-1.67,1.03-3.05,1.03H68.5z M71.48,299.04c-1.09,0-1.97,0.42-2.63,1.25
				c-0.67,0.83-1,2.07-1,3.72c0,0.79,0.07,1.46,0.22,2c0.15,0.54,0.38,0.96,0.7,1.29c0.31,0.33,0.71,0.57,1.19,0.72
				c0.48,0.15,1.03,0.22,1.67,0.22H75v-4.41c0-1.53-0.27-2.71-0.8-3.54C73.66,299.46,72.76,299.04,71.48,299.04z"/>
			<path class="st1" d="M78.75,309.92c-0.4,0-0.69-0.05-0.89-0.15c-0.2-0.1-0.3-0.32-0.3-0.66c0-0.38,0.1-0.62,0.28-0.71
				c0.19-0.1,0.49-0.15,0.91-0.15h2.17c0.5,0,0.88-0.12,1.15-0.36c0.27-0.24,0.4-0.65,0.4-1.22v-8.46c0-0.2,0.1-0.3,0.3-0.3h1.04
				c0.2,0,0.3,0.1,0.3,0.3v7.96c0,0.64-0.05,1.19-0.15,1.67c-0.1,0.48-0.28,0.87-0.54,1.18c-0.26,0.31-0.61,0.54-1.06,0.69
				c-0.45,0.15-1.03,0.22-1.74,0.22H78.75z M82.69,294.99c-0.2,0-0.3-0.1-0.3-0.29v-1.79c0-0.2,0.1-0.3,0.3-0.3h1.19
				c0.2,0,0.3,0.1,0.3,0.3v1.79c0,0.19-0.1,0.29-0.3,0.29H82.69z"/>
			<path class="st1" d="M88.58,289.96c0-0.2,0.1-0.3,0.3-0.3h1.04c0.2,0,0.3,0.1,0.3,0.3v16.71c0,0.6,0.13,1.01,0.39,1.24
				c0.26,0.23,0.63,0.34,1.13,0.34h1.49c0.79,0,1.19,0.28,1.19,0.84c0,0.4-0.1,0.64-0.28,0.71c-0.19,0.08-0.49,0.12-0.91,0.12h-1.16
				c-1.25,0-2.15-0.25-2.68-0.76c-0.54-0.51-0.8-1.34-0.8-2.49V289.96z"/>
			<path class="st1" d="M100.53,297.37c0.92,0,1.72,0.14,2.43,0.42c0.7,0.28,1.29,0.67,1.77,1.17c0.48,0.5,0.84,1.08,1.09,1.74
				c0.25,0.66,0.37,1.38,0.37,2.16c0,0.58-0.08,1.13-0.23,1.67c-0.16,0.54-0.38,1.05-0.66,1.52c-0.28,0.48-0.61,0.9-0.98,1.28
				c-0.38,0.38-0.77,0.69-1.19,0.92h5.12c0.4,0,0.7,0.05,0.9,0.13c0.19,0.09,0.29,0.33,0.29,0.73c0,0.3-0.09,0.51-0.28,0.63
				c-0.19,0.12-0.49,0.18-0.91,0.18h-3.84c-0.71,0-1.39-0.03-2.03-0.09c-0.64-0.06-1.24-0.27-1.82-0.63
				c-0.66,0.36-1.36,0.57-2.1,0.63c-0.74,0.06-1.4,0.09-1.98,0.09h-3.25c-0.8,0-1.19-0.29-1.19-0.86c0-0.31,0.09-0.53,0.28-0.64
				c0.19-0.11,0.49-0.17,0.91-0.17h4.68c-0.87-0.64-1.59-1.39-2.16-2.26c-0.57-0.87-0.85-1.89-0.85-3.04c0-0.73,0.13-1.44,0.39-2.11
				s0.63-1.27,1.1-1.79c0.48-0.52,1.07-0.92,1.76-1.22C98.84,297.52,99.64,297.37,100.53,297.37z M100.53,299.1
				c-0.56,0-1.07,0.09-1.53,0.27c-0.47,0.18-0.87,0.44-1.22,0.77c-0.35,0.34-0.62,0.75-0.82,1.22c-0.2,0.48-0.3,1.01-0.3,1.61
				c0,0.58,0.11,1.12,0.31,1.64c0.21,0.52,0.49,0.98,0.85,1.4c0.36,0.42,0.77,0.78,1.23,1.09c0.47,0.31,0.96,0.56,1.47,0.76
				c0.52-0.2,1.01-0.45,1.48-0.76c0.47-0.31,0.87-0.67,1.22-1.09c0.35-0.42,0.62-0.88,0.83-1.4c0.21-0.52,0.31-1.06,0.31-1.64
				c0-1.23-0.36-2.18-1.09-2.86C102.56,299.44,101.64,299.1,100.53,299.1z M97.82,294.99c-0.2,0-0.3-0.1-0.3-0.29v-1.79
				c0-0.2,0.1-0.3,0.3-0.3h1.55c0.2,0,0.29,0.1,0.29,0.3v1.79c0,0.19-0.1,0.29-0.29,0.29H97.82z M101.63,294.99
				c-0.2,0-0.3-0.1-0.3-0.29v-1.79c0-0.2,0.1-0.3,0.3-0.3h1.55c0.2,0,0.3,0.1,0.3,0.3v1.79c0,0.19-0.1,0.29-0.3,0.29H101.63z"/>
			<path class="st1" d="M108.25,309.92c-0.4,0-0.69-0.05-0.89-0.15c-0.2-0.1-0.3-0.32-0.3-0.66c0-0.38,0.1-0.62,0.28-0.71
				c0.19-0.1,0.49-0.15,0.91-0.15h2.18c0.5,0,0.88-0.12,1.15-0.36c0.27-0.24,0.4-0.65,0.4-1.22v-16.71c0-0.2,0.1-0.3,0.3-0.3h1.04
				c0.2,0,0.3,0.1,0.3,0.3v16.21c0,0.64-0.05,1.19-0.15,1.67c-0.1,0.48-0.28,0.87-0.54,1.18c-0.26,0.31-0.61,0.54-1.06,0.69
				c-0.45,0.15-1.03,0.22-1.74,0.22H108.25z"/>
			<path class="st1" d="M119.72,309.62c0,0.2-0.1,0.29-0.3,0.29h-1.05c-0.2,0-0.29-0.1-0.29-0.29v-19.67c0-0.2,0.1-0.3,0.29-0.3
				h1.05c0.2,0,0.3,0.1,0.3,0.3V309.62z"/>
			<path class="st1" d="M149.47,307.91c0.23-0.23,0.34-0.64,0.34-1.24v-8.46c0-0.2,0.1-0.3,0.3-0.3h1.04c0.2,0,0.3,0.1,0.3,0.3v8.49
				c0,1.13-0.25,1.95-0.74,2.46c-0.5,0.51-1.28,0.76-2.35,0.76h-14.21c-1.25,0-2.15-0.25-2.68-0.74c-0.54-0.5-0.81-1.34-0.81-2.53
				v-6.52c0-0.2,0.1-0.3,0.3-0.3h1.04c0.2,0,0.3,0.1,0.3,0.3v6.55c0,0.58,0.11,0.98,0.34,1.22c0.23,0.24,0.59,0.36,1.09,0.36h14.63
				C148.86,308.25,149.24,308.13,149.47,307.91z M138.46,296.75c-0.2,0-0.3-0.1-0.3-0.3v-1.79c0-0.2,0.1-0.29,0.3-0.29h1.55
				c0.2,0,0.29,0.1,0.29,0.29v1.79c0,0.2-0.1,0.3-0.29,0.3H138.46z M142.27,296.75c-0.2,0-0.3-0.1-0.3-0.3v-1.79
				c0-0.2,0.1-0.29,0.3-0.29h1.55c0.2,0,0.3,0.1,0.3,0.29v1.79c0,0.2-0.1,0.3-0.3,0.3H142.27z"/>
			<path class="st1" d="M157.08,309.62c0,0.2-0.1,0.29-0.29,0.29h-1.05c-0.2,0-0.3-0.1-0.3-0.29v-19.67c0-0.2,0.1-0.3,0.3-0.3h1.05
				c0.19,0,0.29,0.1,0.29,0.3V309.62z"/>
			<path class="st1" d="M159.58,315.76c-0.2,0-0.3-0.1-0.3-0.3v-1.08c0-0.19,0.1-0.29,0.3-0.29h0.69c0.81,0,1.43-0.21,1.86-0.63
				c0.43-0.42,0.64-1.06,0.64-1.91v-13.35c0-0.2,0.1-0.3,0.3-0.3h1.04c0.2,0,0.3,0.1,0.3,0.3v13.17c0,1.41-0.35,2.49-1.05,3.25
				c-0.69,0.75-1.79,1.13-3.28,1.13H159.58z"/>
			<path class="st1" d="M168.7,289.96c0-0.2,0.1-0.3,0.3-0.3h1.05c0.19,0,0.29,0.1,0.29,0.3v16.71c0,0.6,0.13,1.01,0.39,1.24
				c0.26,0.23,0.64,0.34,1.13,0.34h1.49c0.8,0,1.19,0.28,1.19,0.84c0,0.4-0.09,0.64-0.28,0.71c-0.19,0.08-0.49,0.12-0.91,0.12h-1.16
				c-1.25,0-2.14-0.25-2.68-0.76c-0.54-0.51-0.81-1.34-0.81-2.49V289.96z"/>
			<path class="st1" d="M179.63,306.04c0,0.72,0.27,1.26,0.8,1.64c0.54,0.38,1.25,0.56,2.14,0.56c0.56,0,1-0.03,1.33-0.09
				s0.58-0.18,0.74-0.38c0.17-0.19,0.27-0.45,0.31-0.79c0.04-0.34,0.06-0.79,0.06-1.34v-4.68c0-0.2,0.1-0.3,0.3-0.3h1.07
				c0.2,0,0.3,0.1,0.3,0.3v5.21c0,0.68,0.27,1.19,0.83,1.53c0.56,0.35,1.29,0.52,2.2,0.52c0.56,0,0.99-0.03,1.31-0.1
				c0.31-0.07,0.55-0.21,0.7-0.41c0.15-0.2,0.24-0.46,0.28-0.79c0.04-0.33,0.06-0.76,0.06-1.3v-7.45c0-0.2,0.1-0.3,0.3-0.3h1.07
				c0.2,0,0.3,0.1,0.3,0.3v7.81c0,0.75,0.26,1.31,0.79,1.68c0.53,0.37,1.23,0.55,2.1,0.55h0.15c0.4,0,0.7,0.06,0.9,0.18
				c0.19,0.12,0.29,0.35,0.29,0.68c0,0.34-0.09,0.56-0.28,0.66c-0.19,0.1-0.49,0.15-0.91,0.15c-0.81,0-1.51-0.1-2.08-0.29
				c-0.58-0.2-1.02-0.63-1.34-1.28c-0.24,0.52-0.57,0.91-1,1.18c-0.43,0.27-1.06,0.4-1.89,0.4h-1.37c-0.56,0-1.11-0.12-1.64-0.37
				c-0.54-0.25-0.93-0.63-1.19-1.15c-0.24,0.48-0.58,0.85-1.01,1.12c-0.44,0.27-1.05,0.4-1.85,0.4h-1.37
				c-0.56,0-1.11-0.12-1.64-0.37c-0.54-0.25-0.93-0.63-1.19-1.15c-0.23,0.48-0.57,0.85-0.99,1.12c-0.43,0.27-1.06,0.4-1.89,0.4
				h-3.19c-0.29,0-0.54-0.06-0.71-0.18c-0.18-0.12-0.27-0.3-0.27-0.54c0-0.4,0.1-0.65,0.28-0.77c0.19-0.12,0.49-0.18,0.91-0.18h3.07
				c0.38,0,0.67-0.05,0.88-0.16c0.21-0.11,0.36-0.27,0.46-0.48c0.1-0.21,0.16-0.48,0.18-0.8c0.02-0.33,0.03-0.71,0.03-1.15v-4.68
				c0-0.2,0.1-0.3,0.3-0.3h1.07c0.2,0,0.3,0.1,0.3,0.3V306.04z M183.15,294.99c-0.2,0-0.3-0.1-0.3-0.29v-1.79c0-0.2,0.1-0.3,0.3-0.3
				h1.55c0.19,0,0.29,0.1,0.29,0.3v1.79c0,0.19-0.1,0.29-0.29,0.29H183.15z M185.02,291.18c-0.2,0-0.3-0.1-0.3-0.3v-1.79
				c0-0.2,0.1-0.3,0.3-0.3h1.55c0.2,0,0.29,0.1,0.29,0.3v1.79c0,0.2-0.1,0.3-0.29,0.3H185.02z M186.96,294.99
				c-0.2,0-0.3-0.1-0.3-0.29v-1.79c0-0.2,0.1-0.3,0.3-0.3h1.55c0.2,0,0.3,0.1,0.3,0.3v1.79c0,0.19-0.1,0.29-0.3,0.29H186.96z"/>
			<path class="st1" d="M202.27,306.02c0,0.75,0.26,1.31,0.79,1.68c0.53,0.37,1.23,0.55,2.1,0.55h0.18c0.4,0,0.69,0.06,0.89,0.17
				c0.2,0.11,0.3,0.32,0.3,0.64c0,0.32-0.09,0.54-0.27,0.67c-0.18,0.13-0.49,0.19-0.92,0.19c-0.84,0-1.55-0.09-2.15-0.28
				c-0.6-0.19-1.03-0.62-1.31-1.3c-0.24,0.48-0.56,0.86-0.95,1.15s-0.97,0.43-1.73,0.43h-2.42c-0.38,0-0.65-0.05-0.82-0.16
				c-0.17-0.11-0.25-0.32-0.25-0.64c0-0.33,0.08-0.56,0.24-0.68c0.16-0.12,0.44-0.18,0.83-0.18h2.24c0.38,0,0.67-0.05,0.89-0.15
				c0.22-0.1,0.38-0.25,0.48-0.46c0.1-0.21,0.16-0.47,0.19-0.79c0.03-0.31,0.05-0.68,0.05-1.1v-7.54c0-0.2,0.1-0.3,0.3-0.3h1.04
				c0.2,0,0.3,0.1,0.3,0.3V306.02z M198.67,294.99c-0.2,0-0.3-0.1-0.3-0.29v-1.79c0-0.2,0.1-0.3,0.3-0.3h1.55
				c0.19,0,0.29,0.1,0.29,0.3v1.79c0,0.19-0.1,0.29-0.29,0.29H198.67z M202.48,294.99c-0.2,0-0.3-0.1-0.3-0.29v-1.79
				c0-0.2,0.1-0.3,0.3-0.3h1.55c0.2,0,0.3,0.1,0.3,0.3v1.79c0,0.19-0.1,0.29-0.3,0.29H202.48z"/>
			<path class="st1" d="M225.75,306.02c0,0.83-0.09,1.5-0.27,2.01c-0.18,0.51-0.42,0.9-0.73,1.18c-0.31,0.28-0.67,0.47-1.09,0.57
				c-0.42,0.1-0.86,0.15-1.34,0.15h-1.22c-0.56,0-1.1-0.12-1.64-0.37c-0.54-0.25-0.93-0.63-1.19-1.15
				c-0.24,0.48-0.58,0.85-1.01,1.12c-0.44,0.27-1.06,0.4-1.85,0.4h-1.37c-0.56,0-1.1-0.12-1.64-0.37c-0.54-0.25-0.93-0.63-1.19-1.15
				c-0.24,0.48-0.57,0.85-0.99,1.12c-0.43,0.27-1.06,0.4-1.9,0.4h-3.19c-0.29,0-0.54-0.06-0.71-0.18c-0.18-0.12-0.27-0.3-0.27-0.54
				c0-0.4,0.1-0.65,0.28-0.77c0.19-0.12,0.49-0.18,0.91-0.18h3.07c0.38,0,0.67-0.05,0.88-0.16c0.21-0.11,0.36-0.27,0.46-0.48
				c0.1-0.21,0.16-0.48,0.18-0.8c0.02-0.33,0.03-0.71,0.03-1.15v-4.68c0-0.2,0.1-0.3,0.29-0.3h1.08c0.2,0,0.3,0.1,0.3,0.3v5.06
				c0,0.72,0.27,1.26,0.8,1.64c0.54,0.38,1.25,0.56,2.14,0.56c0.56,0,1-0.03,1.33-0.09c0.33-0.06,0.58-0.18,0.74-0.38
				c0.17-0.19,0.27-0.45,0.31-0.79c0.04-0.34,0.06-0.79,0.06-1.34v-4.68c0-0.2,0.1-0.3,0.29-0.3h1.08c0.2,0,0.3,0.1,0.3,0.3v5.21
				c0,0.68,0.28,1.19,0.83,1.53c0.56,0.35,1.29,0.52,2.2,0.52c0.56,0,0.99-0.03,1.31-0.1c0.32-0.07,0.55-0.21,0.7-0.41
				c0.15-0.2,0.24-0.46,0.28-0.79c0.04-0.33,0.06-0.76,0.06-1.3v-7.45c0-0.2,0.1-0.3,0.29-0.3h1.08c0.2,0,0.3,0.1,0.3,0.3V306.02z"
				/>
			<path class="st1" d="M237.48,308.25h3.87c0.5,0,0.86-0.11,1.09-0.34c0.23-0.23,0.35-0.64,0.35-1.24v-16.71
				c0-0.2,0.1-0.3,0.29-0.3h1.05c0.2,0,0.29,0.1,0.29,0.3v16.21c0,1.39-0.27,2.36-0.8,2.92c-0.54,0.56-1.43,0.83-2.68,0.83h-11.53
				c-0.2,0-0.3-0.1-0.3-0.29v-1.07c0-0.2,0.1-0.3,0.3-0.3h6.43v-14.09c0-0.2,0.1-0.3,0.3-0.3h1.04c0.2,0,0.3,0.1,0.3,0.3V308.25z"/>
			<path class="st1" d="M250.53,309.62c0,0.2-0.1,0.29-0.29,0.29h-1.05c-0.2,0-0.3-0.1-0.3-0.29v-19.67c0-0.2,0.1-0.3,0.3-0.3h1.05
				c0.19,0,0.29,0.1,0.29,0.3V309.62z"/>
			<path class="st1" d="M257.09,315.76c-0.19,0-0.29-0.1-0.29-0.3v-1.08c0-0.19,0.1-0.29,0.29-0.29h3.64c0.97,0,1.69-0.18,2.16-0.54
				c0.47-0.36,0.7-1.07,0.7-2.15v-1.49h-3.37c-0.83,0-1.59-0.1-2.26-0.29c-0.67-0.2-1.25-0.53-1.74-0.98
				c-0.49-0.46-0.86-1.07-1.12-1.83c-0.26-0.76-0.39-1.71-0.39-2.84c0-1.07,0.14-2.02,0.42-2.85c0.27-0.82,0.66-1.51,1.15-2.06
				c0.49-0.54,1.05-0.96,1.7-1.25s1.35-0.43,2.1-0.43c1.77,0,3.07,0.53,3.92,1.58c0.84,1.05,1.27,2.66,1.27,4.82v7.6
				c0,1.55-0.32,2.67-0.97,3.35c-0.65,0.69-1.66,1.03-3.05,1.03H257.09z M260.07,299.04c-1.09,0-1.97,0.42-2.64,1.25
				c-0.67,0.83-1,2.07-1,3.72c0,0.79,0.08,1.46,0.22,2c0.15,0.54,0.38,0.96,0.7,1.29s0.71,0.57,1.19,0.72
				c0.48,0.15,1.04,0.22,1.67,0.22h3.37v-4.41c0-1.53-0.27-2.71-0.8-3.54C262.24,299.46,261.34,299.04,260.07,299.04z"/>
			<path class="st1" d="M281.25,310.13c-1.71,0-3.01-0.52-3.9-1.55s-1.34-2.65-1.34-4.86c0-4.23,1.75-6.34,5.25-6.34
				s5.25,2.12,5.25,6.34c0,2.2-0.44,3.83-1.33,4.86S282.98,310.13,281.25,310.13z M281.25,299.04c-1.25,0-2.16,0.42-2.71,1.27
				c-0.56,0.84-0.83,2.01-0.83,3.5c0,1.57,0.27,2.74,0.83,3.5c0.56,0.76,1.46,1.15,2.71,1.15s2.16-0.38,2.73-1.15
				c0.57-0.76,0.85-1.93,0.85-3.5c0-1.47-0.28-2.63-0.85-3.49C283.41,299.47,282.5,299.04,281.25,299.04z M278.57,294.99
				c-0.2,0-0.3-0.1-0.3-0.29v-1.79c0-0.2,0.1-0.3,0.3-0.3h1.55c0.2,0,0.3,0.1,0.3,0.3v1.79c0,0.19-0.1,0.29-0.3,0.29H278.57z
				 M282.38,294.99c-0.2,0-0.3-0.1-0.3-0.29v-1.79c0-0.2,0.1-0.3,0.3-0.3h1.55c0.2,0,0.3,0.1,0.3,0.3v1.79c0,0.19-0.1,0.29-0.3,0.29
				H282.38z"/>
			<path class="st1" d="M290.49,289.96c0-0.2,0.1-0.3,0.29-0.3h1.05c0.2,0,0.3,0.1,0.3,0.3v16.71c0,0.6,0.13,1.01,0.39,1.24
				c0.26,0.23,0.64,0.34,1.13,0.34h1.49c0.79,0,1.19,0.28,1.19,0.84c0,0.4-0.1,0.64-0.28,0.71c-0.19,0.08-0.49,0.12-0.91,0.12h-1.16
				c-1.25,0-2.14-0.25-2.68-0.76c-0.54-0.51-0.8-1.34-0.8-2.49V289.96z"/>
			<path class="st1" d="M303.83,310.13c-0.87,0-1.67-0.13-2.4-0.39c-0.72-0.26-1.31-0.69-1.74-1.28c-0.36,0.66-0.78,1.07-1.25,1.23
				c-0.48,0.16-0.99,0.23-1.55,0.23h-1.76c-0.4,0-0.69-0.05-0.89-0.15c-0.2-0.1-0.3-0.32-0.3-0.66c0-0.4,0.1-0.64,0.28-0.73
				c0.19-0.09,0.49-0.13,0.91-0.13h1.64c0.22,0,0.44-0.04,0.66-0.12c0.22-0.08,0.42-0.22,0.6-0.43c0.18-0.21,0.33-0.48,0.45-0.82
				c0.12-0.34,0.18-0.76,0.18-1.28c-0.02-0.24-0.03-0.49-0.04-0.76s-0.01-0.54-0.01-0.82c0-4.43,1.75-6.65,5.24-6.65
				c1.73,0,3.03,0.53,3.92,1.58c0.88,1.05,1.33,2.64,1.33,4.76c0,2.2-0.44,3.83-1.33,4.86S305.56,310.13,303.83,310.13z
				 M303.83,299.04c-1.25,0-2.15,0.42-2.71,1.27c-0.56,0.84-0.83,2.01-0.83,3.5c0,1.57,0.27,2.74,0.83,3.5
				c0.56,0.76,1.46,1.15,2.71,1.15s2.16-0.38,2.73-1.15c0.57-0.76,0.85-1.93,0.85-3.5c0-1.47-0.28-2.63-0.85-3.49
				C305.99,299.47,305.08,299.04,303.83,299.04z"/>
			<path class="st1" d="M313.07,289.96c0-0.2,0.1-0.3,0.29-0.3h1.05c0.2,0,0.3,0.1,0.3,0.3v16.71c0,0.6,0.13,1.01,0.39,1.24
				c0.26,0.23,0.64,0.34,1.13,0.34h1.49c0.79,0,1.19,0.28,1.19,0.84c0,0.4-0.1,0.64-0.28,0.71c-0.19,0.08-0.49,0.12-0.91,0.12h-1.16
				c-1.25,0-2.14-0.25-2.68-0.76c-0.54-0.51-0.8-1.34-0.8-2.49V289.96z"/>
			<path class="st1" d="M331.18,306.25c0,0.68,0.23,1.18,0.7,1.51c0.47,0.33,1.08,0.49,1.84,0.49h0.48c0.4,0,0.69,0.06,0.89,0.17
				c0.2,0.11,0.3,0.33,0.3,0.67c0,0.36-0.09,0.58-0.28,0.68c-0.19,0.1-0.49,0.15-0.91,0.15c-0.84,0-1.56-0.1-2.18-0.31
				c-0.62-0.21-1.06-0.66-1.34-1.36c-0.3,0.6-0.72,1.02-1.27,1.28c-0.55,0.26-1.27,0.39-2.16,0.39h-9.54
				c-0.79,0-1.19-0.25-1.19-0.77c0-0.42,0.1-0.67,0.28-0.76c0.19-0.09,0.49-0.13,0.91-0.13h9c0.6,0,1.07-0.05,1.42-0.15
				c0.35-0.1,0.62-0.27,0.8-0.52s0.31-0.57,0.36-0.97c0.05-0.4,0.08-0.89,0.08-1.49c0-0.93-0.08-1.77-0.22-2.52
				c-0.15-0.75-0.4-1.38-0.76-1.89c-0.36-0.52-0.83-0.91-1.4-1.19c-0.58-0.27-1.29-0.42-2.14-0.42c-0.7,0-1.36,0.12-2,0.37
				c-0.64,0.25-1.21,0.68-1.73,1.3c-0.12,0.18-0.26,0.2-0.42,0.06l-0.8-0.72c-0.18-0.1-0.21-0.24-0.09-0.42
				c0.52-0.66,1.18-1.21,1.98-1.65c0.81-0.45,1.83-0.67,3.08-0.67c1.29,0,2.35,0.22,3.17,0.66c0.82,0.44,1.46,1,1.92,1.71
				c0.46,0.71,0.78,1.5,0.96,2.4c0.17,0.89,0.27,1.81,0.27,2.74V306.25z"/>
			<path class="st1" d="M348.07,305.65c0,0.52,0.05,0.94,0.15,1.28c0.1,0.34,0.24,0.61,0.42,0.8c0.18,0.2,0.4,0.33,0.65,0.41
				c0.26,0.07,0.55,0.1,0.86,0.1h0.63c0.4,0,0.7,0.06,0.89,0.18c0.2,0.12,0.3,0.35,0.3,0.68c0,0.34-0.09,0.56-0.28,0.66
				c-0.19,0.1-0.49,0.15-0.91,0.15h-0.51c-0.69,0-1.33-0.1-1.92-0.31c-0.59-0.21-1.05-0.6-1.38-1.18c-0.46,0.62-1.04,1.05-1.73,1.31
				c-0.7,0.26-1.48,0.39-2.36,0.39c-0.87,0-1.67-0.13-2.4-0.39c-0.72-0.26-1.31-0.69-1.74-1.28c-0.36,0.66-0.77,1.07-1.25,1.23
				c-0.48,0.16-0.99,0.23-1.55,0.23h-1.76c-0.4,0-0.7-0.05-0.9-0.15c-0.19-0.1-0.29-0.32-0.29-0.66c0-0.4,0.09-0.64,0.28-0.73
				c0.19-0.09,0.49-0.13,0.91-0.13h1.63c0.22,0,0.44-0.04,0.66-0.12c0.22-0.08,0.42-0.22,0.6-0.43c0.18-0.21,0.33-0.48,0.45-0.82
				c0.12-0.34,0.18-0.76,0.18-1.28c-0.02-0.24-0.04-0.49-0.04-0.76c-0.01-0.27-0.01-0.54-0.01-0.82c0-4.43,1.75-6.65,5.24-6.65
				c1.73,0,3.04,0.53,3.94,1.58c0.89,1.05,1.34,2.64,1.34,4.76c0,0.26,0,0.59-0.02,1C348.14,305.13,348.11,305.44,348.07,305.65z
				 M342.89,299.04c-1.25,0-2.15,0.42-2.71,1.27c-0.56,0.84-0.84,2.01-0.84,3.5c0,1.57,0.28,2.74,0.84,3.5
				c0.56,0.76,1.46,1.15,2.71,1.15c1.25,0,2.16-0.38,2.73-1.15c0.57-0.76,0.85-1.93,0.85-3.5c0-1.47-0.28-2.63-0.85-3.49
				C345.05,299.47,344.14,299.04,342.89,299.04z"/>
			<path class="st1" d="M356.12,306.02c0,0.75,0.26,1.31,0.79,1.68c0.53,0.37,1.23,0.55,2.1,0.55h0.18c0.4,0,0.7,0.06,0.89,0.17
				c0.2,0.11,0.3,0.32,0.3,0.64c0,0.32-0.09,0.54-0.27,0.67c-0.18,0.13-0.49,0.19-0.92,0.19c-0.83,0-1.55-0.09-2.14-0.28
				s-1.03-0.62-1.31-1.3c-0.23,0.48-0.56,0.86-0.95,1.15c-0.4,0.29-0.97,0.43-1.73,0.43h-2.29c-0.38,0-0.67-0.05-0.88-0.16
				c-0.21-0.11-0.31-0.32-0.31-0.64c0-0.33,0.1-0.56,0.3-0.68c0.2-0.12,0.5-0.18,0.89-0.18h2.11c0.38,0,0.68-0.05,0.9-0.15
				c0.21-0.1,0.38-0.25,0.48-0.46s0.16-0.47,0.19-0.79c0.03-0.31,0.04-0.68,0.04-1.1v-15.79c0-0.2,0.1-0.3,0.3-0.3h1.04
				c0.2,0,0.3,0.1,0.3,0.3V306.02z"/>
			<path class="st1" d="M359.16,309.92c-0.4,0-0.7-0.05-0.9-0.15c-0.19-0.1-0.29-0.32-0.29-0.66c0-0.38,0.09-0.62,0.28-0.71
				c0.19-0.1,0.49-0.15,0.91-0.15h2.17c0.5,0,0.88-0.12,1.15-0.36c0.27-0.24,0.4-0.65,0.4-1.22v-16.71c0-0.2,0.1-0.3,0.29-0.3h1.05
				c0.2,0,0.29,0.1,0.29,0.3v16.21c0,0.64-0.05,1.19-0.15,1.67c-0.1,0.48-0.28,0.87-0.54,1.18c-0.26,0.31-0.61,0.54-1.06,0.69
				c-0.45,0.15-1.02,0.22-1.74,0.22H359.16z"/>
		</g>
	</g>
</g>
</svg>
