<?xml version="1.0" encoding="utf-8"?>
<!-- Generator: Adobe Illustrator 26.0.1, SVG Export Plug-In . SVG Version: 6.00 Build 0)  -->
<svg version="1.1" id="Layer_1" xmlns="http://www.w3.org/2000/svg" xmlns:xlink="http://www.w3.org/1999/xlink" x="0px" y="0px"
	 viewBox="0 0 400 400" style="enable-background:new 0 0 400 400;" xml:space="preserve">
<style type="text/css">
	.st0{fill:#1A1D39;}
	.st1{fill:#EC671B;}
</style>
<g>
	<g>
		<path class="st0" d="M74.96,279.64h10.33v2.52h-7.3v3.35h6.44v2.52h-6.44v6.32h-3.03V279.64z"/>
		<path class="st0" d="M100.76,287.11c0,1.12-0.19,2.2-0.57,3.24c-0.38,1.04-0.92,1.92-1.6,2.63c-1.18,1.22-2.82,1.84-4.9,1.84
			c-2.09,0-3.72-0.61-4.9-1.84c-0.69-0.71-1.22-1.59-1.6-2.63c-0.38-1.04-0.58-2.12-0.58-3.24s0.19-2.2,0.58-3.24
			c0.38-1.04,0.92-1.92,1.6-2.63c1.18-1.22,2.82-1.84,4.9-1.84c2.08,0,3.72,0.61,4.9,1.84c0.69,0.71,1.22,1.59,1.6,2.63
			C100.57,284.91,100.76,285.99,100.76,287.11z M93.68,292.17c1.09,0,1.99-0.33,2.7-0.99c0.98-0.9,1.47-2.26,1.47-4.08
			c0-1.82-0.49-3.17-1.47-4.08c-0.71-0.66-1.61-0.99-2.7-0.99c-1.09,0-1.99,0.33-2.7,0.99c-0.98,0.9-1.47,2.26-1.47,4.08
			c0,1.82,0.49,3.17,1.47,4.08C91.69,291.84,92.59,292.17,93.68,292.17z"/>
		<path class="st0" d="M103.1,294.35v-14.71h8.17c0.78,0,1.47,0.19,2.08,0.56c0.66,0.43,1.09,1.02,1.3,1.76
			c0.21,0.74,0.31,1.34,0.31,1.8c0,0.4-0.05,0.8-0.16,1.19c-0.16,0.58-0.42,1.05-0.77,1.41c-0.24,0.27-0.65,0.57-1.23,0.91
			c0.61,0.42,0.92,0.63,0.95,0.65c0.39,0.36,0.62,0.83,0.69,1.41c0.07,0.58,0.11,1.67,0.14,3.27c0.01,0.58,0.2,0.98,0.56,1.21v0.54
			h-3.25c-0.24-0.43-0.38-0.89-0.4-1.37v-2.97c0-0.98-0.61-1.47-1.82-1.47h-3.55v5.81H103.1z M106.13,282.16v3.85h4.14
			c0.43,0,0.84-0.19,1.23-0.56c0.46-0.43,0.65-0.98,0.56-1.63c0-1.1-0.61-1.65-1.84-1.65H106.13z"/>
		<path class="st0" d="M123.06,279.64h11.78v2.52h-4.3v12.19h-3.03v-12.19h-4.46V279.64z"/>
		<path class="st0" d="M136.72,294.35v-14.71h8.17c0.78,0,1.47,0.19,2.08,0.56c0.66,0.43,1.09,1.02,1.3,1.76
			c0.21,0.74,0.31,1.34,0.31,1.8c0,0.4-0.05,0.8-0.16,1.19c-0.16,0.58-0.42,1.05-0.77,1.41c-0.24,0.27-0.65,0.57-1.23,0.91
			c0.61,0.42,0.92,0.63,0.95,0.65c0.39,0.36,0.62,0.83,0.69,1.41c0.07,0.58,0.11,1.67,0.14,3.27c0.01,0.58,0.2,0.98,0.56,1.21v0.54
			h-3.25c-0.24-0.43-0.38-0.89-0.4-1.37v-2.97c0-0.98-0.61-1.47-1.82-1.47h-3.55v5.81H136.72z M139.75,282.16v3.85h4.14
			c0.43,0,0.84-0.19,1.23-0.56c0.46-0.43,0.65-0.98,0.56-1.63c0-1.1-0.61-1.65-1.84-1.65H139.75z"/>
		<path class="st0" d="M158.81,279.64l5.04,14.71h-3.09l-1.01-2.95h-5.45l-1.03,2.95h-3.09l5.12-14.71H158.81z M157.08,283.17
			l-1.82,5.71h3.77L157.08,283.17z"/>
		<path class="st0" d="M165.61,279.64h2.99l5.95,10.11v-10.11h3.03v14.71h-2.99l-5.95-10.25v10.25h-3.03V279.64z"/>
		<path class="st0" d="M191.1,284.12h-2.84c0.03-0.63-0.22-1.16-0.73-1.59c-0.55-0.47-1.32-0.71-2.3-0.73
			c-1.68-0.03-2.57,0.54-2.66,1.69c-0.04,0.47,0.02,0.81,0.18,1.01c0.12,0.16,0.37,0.32,0.75,0.46c0.19,0.2,1.42,0.5,3.69,0.91
			c1.67,0.3,2.82,0.77,3.46,1.43c0.64,0.66,0.96,1.53,0.96,2.6c0,0.78-0.17,1.53-0.51,2.25c-0.34,0.72-0.8,1.26-1.36,1.62
			c-1.01,0.65-2.54,0.99-4.6,1.03c-0.48,0.01-1.04-0.06-1.67-0.22c-0.81-0.19-1.45-0.46-1.94-0.81c-1.25-0.9-1.94-2.17-2.06-3.79
			h2.94c0,0.58,0.21,1.08,0.63,1.51c0.59,0.62,1.51,0.91,2.76,0.87c1.12-0.03,1.9-0.26,2.34-0.69c0.36-0.34,0.54-0.77,0.54-1.29
			c0-0.46-0.16-0.85-0.48-1.19c-0.38-0.39-1.22-0.71-2.54-0.97c-1.82-0.34-2.89-0.56-3.23-0.69c-1.79-0.62-2.68-1.79-2.68-3.51
			c0-0.19,0.01-0.38,0.02-0.56c0.12-1.24,0.63-2.21,1.51-2.93c0.96-0.77,2.29-1.15,4.02-1.15c2.33,0,3.98,0.63,4.96,1.88
			c0.59,0.75,0.89,1.59,0.89,2.5C191.14,283.91,191.12,284.02,191.1,284.12z"/>
		<path class="st0" d="M193.8,294.35v-14.71h6.54c2.21,0,3.65,0.79,4.32,2.38c0.26,0.61,0.38,1.34,0.38,2.2
			c0,0.92-0.14,1.67-0.4,2.26c-0.82,1.75-2.22,2.62-4.2,2.62h-3.61v5.25H193.8z M196.83,282.16v4.42h3.39
			c0.75,0,1.31-0.41,1.65-1.23c0.16-0.38,0.24-0.81,0.24-1.29c0-0.3-0.04-0.55-0.12-0.77c-0.27-0.75-0.91-1.13-1.92-1.13H196.83z"/>
		<path class="st0" d="M220.7,287.11c0,1.12-0.19,2.2-0.57,3.24c-0.38,1.04-0.92,1.92-1.6,2.63c-1.18,1.22-2.82,1.84-4.9,1.84
			c-2.09,0-3.72-0.61-4.9-1.84c-0.69-0.71-1.22-1.59-1.6-2.63c-0.38-1.04-0.58-2.12-0.58-3.24s0.19-2.2,0.58-3.24
			c0.38-1.04,0.92-1.92,1.6-2.63c1.18-1.22,2.82-1.84,4.9-1.84c2.08,0,3.72,0.61,4.9,1.84c0.69,0.71,1.22,1.59,1.6,2.63
			C220.51,284.91,220.7,285.99,220.7,287.11z M213.61,292.17c1.09,0,1.99-0.33,2.7-0.99c0.98-0.9,1.47-2.26,1.47-4.08
			c0-1.82-0.49-3.17-1.47-4.08c-0.71-0.66-1.61-0.99-2.7-0.99c-1.09,0-1.99,0.33-2.7,0.99c-0.98,0.9-1.47,2.26-1.47,4.08
			c0,1.82,0.49,3.17,1.47,4.08C211.62,291.84,212.52,292.17,213.61,292.17z"/>
		<path class="st0" d="M223.04,294.35v-14.71h8.17c0.78,0,1.47,0.19,2.08,0.56c0.66,0.43,1.09,1.02,1.3,1.76
			c0.21,0.74,0.31,1.34,0.31,1.8c0,0.4-0.05,0.8-0.16,1.19c-0.16,0.58-0.42,1.05-0.77,1.41c-0.24,0.27-0.65,0.57-1.23,0.91
			c0.61,0.42,0.92,0.63,0.95,0.65c0.39,0.36,0.62,0.83,0.69,1.41c0.07,0.58,0.11,1.67,0.14,3.27c0.01,0.58,0.2,0.98,0.56,1.21v0.54
			h-3.25c-0.24-0.43-0.38-0.89-0.4-1.37v-2.97c0-0.98-0.61-1.47-1.82-1.47h-3.55v5.81H223.04z M226.07,282.16v3.85h4.14
			c0.43,0,0.84-0.19,1.23-0.56c0.46-0.43,0.65-0.98,0.56-1.63c0-1.1-0.61-1.65-1.84-1.65H226.07z"/>
		<path class="st0" d="M236.27,279.64h11.78v2.52h-4.3v12.19h-3.03v-12.19h-4.46V279.64z"/>
		<path class="st0" d="M257.46,279.64l5.04,14.71h-3.09l-1.01-2.95h-5.45l-1.03,2.95h-3.09l5.12-14.71H257.46z M255.72,283.17
			l-1.82,5.71h3.77L255.72,283.17z"/>
		<path class="st0" d="M263.17,279.64h11.78v2.52h-4.3v12.19h-3.03v-12.19h-4.46V279.64z"/>
		<path class="st0" d="M279.51,279.64v14.71h-3.03v-14.71H279.51z"/>
		<path class="st0" d="M295.8,287.11c0,1.12-0.19,2.2-0.57,3.24c-0.38,1.04-0.92,1.92-1.6,2.63c-1.18,1.22-2.82,1.84-4.9,1.84
			c-2.09,0-3.72-0.61-4.9-1.84c-0.69-0.71-1.22-1.59-1.6-2.63c-0.38-1.04-0.58-2.12-0.58-3.24s0.19-2.2,0.58-3.24
			c0.38-1.04,0.92-1.92,1.6-2.63c1.18-1.22,2.82-1.84,4.9-1.84c2.08,0,3.72,0.61,4.9,1.84c0.69,0.71,1.22,1.59,1.6,2.63
			C295.61,284.91,295.8,285.99,295.8,287.11z M288.71,292.17c1.09,0,1.99-0.33,2.7-0.99c0.98-0.9,1.47-2.26,1.47-4.08
			c0-1.82-0.49-3.17-1.47-4.08c-0.71-0.66-1.61-0.99-2.7-0.99c-1.09,0-1.99,0.33-2.7,0.99c-0.98,0.9-1.47,2.26-1.47,4.08
			c0,1.82,0.49,3.17,1.47,4.08C286.72,291.84,287.62,292.17,288.71,292.17z"/>
		<path class="st0" d="M297.89,279.64h2.99l5.95,10.11v-10.11h3.03v14.71h-2.99l-5.95-10.25v10.25h-3.03V279.64z"/>
	</g>
	<g>
		<polygon class="st0" points="378.67,106.24 361.45,106.24 348.14,173.34 348.28,173.34 338.6,222.15 355.82,222.15 369.13,155.05 
			368.99,155.05 		"/>
		<polygon class="st0" points="137.4,169.27 140.82,152.05 197.33,152.05 200.63,136.84 217.85,136.84 210.97,169.27 		"/>
		<polygon class="st0" points="352.98,105.19 342.52,155.04 332.05,204.93 328.54,222.15 153.54,222.15 163.2,173.22 180.42,173.22 
			174.45,204.93 186.63,204.93 189.7,190.33 206.92,190.33 203.85,204.93 218.03,204.93 227.44,159.81 236.82,114.67 254.04,114.67 
			244.66,159.81 235.25,204.93 248.32,204.93 254.15,177.63 254.2,177.63 257.63,160.66 312.12,160.66 308.62,177.88 308.57,177.88 
			303.93,200.18 286.7,200.18 291.35,177.88 271.31,177.88 265.54,204.93 314.83,204.93 325.3,155.04 335.76,105.19 		"/>
		<polygon class="st1" points="43.43,228.51 46.92,208.58 146.82,208.58 153.96,173.2 136.62,173.2 133.09,191.36 33.17,191.36 
			26.21,228.51 		"/>
		<polygon class="st1" points="222.44,114.63 205.22,114.63 202,126.83 219.22,126.83 		"/>
		<g>
			<g>
				<g>
					<polygon class="st1" points="24.24,239.26 355.26,233.63 26.26,228.27 					"/>
				</g>
			</g>
		</g>
		<polygon class="st1" points="23.63,243.35 168.69,240.82 166.7,248.42 21.33,256.78 		"/>
		<polygon class="st1" points="356.9,238.17 212.17,246.49 213.7,240.64 		"/>
		<polygon class="st0" points="172.53,239.48 169.31,251.8 186.53,251.2 189.75,238.88 		"/>
		<polygon class="st0" points="189.75,251.08 206.97,250.48 210.19,238.17 192.97,238.77 		"/>
	</g>
</g>
</svg>
