<?xml version="1.0" encoding="utf-8"?>
<!-- Generator: Adobe Illustrator 26.0.1, SVG Export Plug-In . SVG Version: 6.00 Build 0)  -->
<svg version="1.1" id="Layer_1" xmlns="http://www.w3.org/2000/svg" xmlns:xlink="http://www.w3.org/1999/xlink" x="0px" y="0px"
	 viewBox="0 0 400 400" style="enable-background:new 0 0 400 400;" xml:space="preserve">
<style type="text/css">
	.st0{fill:url(#SVGID_1_);}
	.st1{fill:url(#SVGID_00000041994404384200343400000014068284910200761744_);}
	.st2{fill:url(#SVGID_00000021088975343827142070000017573368307158754948_);}
	.st3{fill:url(#SVGID_00000001637670345176862040000003268170213157409213_);}
	.st4{fill:#F1E623;}
	.st5{fill:#064061;}
</style>
<g>
	<g>
		<g>
			<linearGradient id="SVGID_1_" gradientUnits="userSpaceOnUse" x1="41.3934" y1="191.3999" x2="57.0282" y2="209.0279">
				<stop  offset="0" style="stop-color:#E1211E"/>
				<stop  offset="0.1843" style="stop-color:#C53A52"/>
				<stop  offset="0.4712" style="stop-color:#8D509A"/>
				<stop  offset="0.8145" style="stop-color:#7CC6B4"/>
			</linearGradient>
			<path class="st0" d="M63.25,193.19c0,4.09-2.96,7.5-6.86,8.19c-0.48,0.09-0.97,0.13-1.47,0.13H39.25
				c-2.48,0.31-4.71,1.43-6.4,3.1c2.94-6.85,8.29-11.42,14.41-11.42H63.25z"/>
			
				<linearGradient id="SVGID_00000069379374237677128430000016475539174315206808_" gradientUnits="userSpaceOnUse" x1="34.1523" y1="209.8875" x2="64.0277" y2="243.5717">
				<stop  offset="0" style="stop-color:#E1211E"/>
				<stop  offset="0.1843" style="stop-color:#C53A52"/>
				<stop  offset="0.4712" style="stop-color:#8D509A"/>
				<stop  offset="0.8145" style="stop-color:#7CC6B4"/>
			</linearGradient>
			<path style="fill:url(#SVGID_00000069379374237677128430000016475539174315206808_);" d="M63.25,231.69H46.31
				c-5.92,0-13.13-6.96-15.35-13.86c1.6,2.89,4.45,4.98,7.82,5.54h16.15c0.52,0,1.02,0.05,1.51,0.14
				C60.31,224.22,63.25,227.61,63.25,231.69z"/>
			
				<linearGradient id="SVGID_00000071519559833866474150000002447700942154486676_" gradientUnits="userSpaceOnUse" x1="24.267" y1="195.1882" x2="59.4408" y2="234.8462">
				<stop  offset="0" style="stop-color:#E1211E"/>
				<stop  offset="0.1843" style="stop-color:#C53A52"/>
				<stop  offset="0.4712" style="stop-color:#8D509A"/>
				<stop  offset="0.8145" style="stop-color:#7CC6B4"/>
			</linearGradient>
			<path style="fill:url(#SVGID_00000071519559833866474150000002447700942154486676_);" d="M46.31,231.69h-7.36
				c-3.47-0.3-6.68-1.51-9.38-3.41c-4.98-3.48-8.24-9.27-8.24-15.81c0-6.54,3.26-12.32,8.24-15.81c3.13-2.2,6.94-3.48,11.05-3.48
				h6.64c-6.12,0-11.47,4.58-14.41,11.42c-2.03,2-3.28,4.79-3.28,7.86c0,1.94,0.5,3.77,1.38,5.35
				C33.17,224.73,40.39,231.69,46.31,231.69z"/>
			
				<linearGradient id="SVGID_00000001655473301084317110000010967508835258756254_" gradientUnits="userSpaceOnUse" x1="38.4271" y1="222.6126" x2="59.2293" y2="204.7822">
				<stop  offset="0" style="stop-color:#DC341C"/>
				<stop  offset="0.3178" style="stop-color:#E37620"/>
				<stop  offset="1" style="stop-color:#F1E623"/>
			</linearGradient>
			<path style="fill:url(#SVGID_00000001655473301084317110000010967508835258756254_);" d="M37.32,216.73h23.27
				c1.47,0,2.66-1.19,2.66-2.66v-5.91H39.98c-1.47,0-2.66,1.19-2.66,2.66V216.73z"/>
		</g>
		<g>
			<path class="st4" d="M86.52,209.93c0,0.65-0.23,1.13-0.68,1.44c-0.36,0.25-0.98,0.37-1.86,0.37h-2.73v-3.61h2.86
				c0.66,0,1.15,0.07,1.49,0.22C86.21,208.64,86.52,209.17,86.52,209.93z"/>
			<path class="st4" d="M86.66,218.52l-15.64,9.03v-30.21l14.94,8.62c-0.37-0.05-0.78-0.07-1.22-0.07h-6.35V219h2.86v-5.16h2.58
				c0.78,0,1.34,0.11,1.69,0.34c0.53,0.33,0.83,1.04,0.92,2.12c0.09,1.21,0.15,1.91,0.19,2.11
				C86.65,218.45,86.65,218.49,86.66,218.52z"/>
			<path class="st4" d="M97.19,212.44L89.3,217c-0.09-0.95-0.14-1.51-0.17-1.68c-0.09-0.65-0.26-1.16-0.51-1.54
				c-0.33-0.5-0.78-0.82-1.36-0.97c0.46-0.17,0.85-0.42,1.17-0.76c0.61-0.64,0.91-1.45,0.91-2.45c0-0.77-0.17-1.44-0.52-1.99
				L97.19,212.44z"/>
		</g>
	</g>
	<g>
		<g>
			<path class="st5" d="M199.74,202.47v8.73l-3.93,4.61l3.93,3.93v12.06h-13.11v-12.62c0-0.79-0.64-1.44-1.44-1.44h-19.7
				c-0.79,0-1.44,0.64-1.44,1.44v12.62h-13.23v-23.85h35.81v-4.69h-35.81v-9.93h39.79C195.65,193.33,199.74,197.42,199.74,202.47z"
				/>
			<rect x="102.94" y="193.33" class="st5" width="43.11" height="9.79"/>
			<polygon class="st5" points="146.05,207.89 146.05,217.74 116.76,217.74 116.76,221.95 146.05,221.95 146.05,231.74 
				102.94,231.74 102.94,207.89 			"/>
			<path class="st5" d="M318.19,203.73v14.91c0,7.2-5.84,13.04-13.04,13.04H265v-10.16h35.57c2.11,0,3.84-1.57,4.1-3.61
				c0.02-0.17,0.03-0.35,0.03-0.52v-9.83c0-2.28-1.85-4.13-4.13-4.13H265v-10.08h42.8C313.53,193.33,318.19,197.99,318.19,203.73z"
				/>
			<polygon class="st5" points="260.22,231.68 247.67,231.68 242.63,222.38 240.17,217.87 237.38,212.73 235.13,208.58 
				232.55,203.83 232.57,203.81 232.54,203.81 232.55,203.83 229.98,208.58 227.73,212.73 224.94,217.87 222.48,222.38 
				217.44,231.68 204.51,231.68 209.56,222.38 212.01,217.87 214.8,212.73 217.06,208.58 219.65,203.81 224.96,193.33 
				239.78,193.33 245.09,203.81 247.68,208.58 249.94,212.73 252.73,217.87 255.18,222.38 			"/>
			<rect x="225.3" y="221.95" class="st5" width="14.13" height="9.79"/>
			<polygon class="st5" points="378.67,231.68 366.11,231.68 361.07,222.38 358.62,217.87 355.83,212.73 353.57,208.58 351,203.83 
				351.01,203.81 350.98,203.81 351,203.83 348.42,208.58 346.17,212.73 343.38,217.87 340.93,222.38 335.88,231.68 322.96,231.68 
				328,222.38 330.46,217.87 333.25,212.73 335.5,208.58 338.09,203.81 343.4,193.33 358.22,193.33 363.53,203.81 366.12,208.58 
				368.38,212.73 371.17,217.87 373.62,222.38 			"/>
			<rect x="343.75" y="221.95" class="st5" width="14.13" height="9.79"/>
			<rect x="265" y="207.96" class="st5" width="14.13" height="9.79"/>
		</g>
		<g>
			<path class="st5" d="M338.96,170.92v0.9c0.52-0.73,1.27-1.1,2.23-1.1c0.95,0,1.72,0.35,2.32,1.05c0.59,0.69,0.88,1.62,0.88,2.78
				c0,1.07-0.26,1.94-0.78,2.62c-0.58,0.75-1.36,1.13-2.35,1.13c-0.94,0-1.68-0.36-2.21-1.08v3.43h-1.96v-9.74H338.96z
				 M340.72,172.29c-0.55,0-0.98,0.19-1.29,0.58c-0.3,0.38-0.46,0.93-0.46,1.64c0,0.72,0.16,1.27,0.48,1.66
				c0.3,0.38,0.72,0.56,1.26,0.56c0.53,0,0.94-0.19,1.23-0.56c0.31-0.4,0.46-0.95,0.46-1.64c0-0.71-0.16-1.27-0.47-1.67
				C341.64,172.48,341.24,172.29,340.72,172.29z"/>
			<path class="st5" d="M348.09,168.2v9.91h-1.96v-9.91H348.09z"/>
			<path class="st5" d="M356.76,170.92v7.19h-1.87v-1.02c-0.56,0.81-1.32,1.22-2.27,1.22c-0.85,0-1.49-0.29-1.92-0.86
				c-0.31-0.41-0.46-1.07-0.46-1.98v-4.55h1.96v3.97c0,0.68,0.06,1.13,0.18,1.33c0.19,0.32,0.52,0.49,0.98,0.49
				c0.58,0,1-0.27,1.26-0.81c0.13-0.26,0.19-0.73,0.19-1.41v-3.57H356.76z"/>
			<path class="st5" d="M364.65,173.02h-1.83c-0.04-0.25-0.11-0.45-0.22-0.58c-0.21-0.26-0.58-0.39-1.13-0.39
				c-0.44,0-0.75,0.1-0.94,0.3c-0.1,0.1-0.15,0.24-0.15,0.41c0,0.17,0.05,0.3,0.15,0.4c0.11,0.11,0.26,0.19,0.44,0.24
				c0.29,0.08,0.68,0.17,1.17,0.27c0.95,0.19,1.64,0.43,2.06,0.71c0.5,0.33,0.75,0.83,0.75,1.51c0,0.77-0.31,1.37-0.93,1.79
				c-0.6,0.42-1.4,0.63-2.4,0.63c-2.14,0-3.26-0.85-3.38-2.54h1.88c0.04,0.33,0.13,0.58,0.27,0.75c0.25,0.3,0.67,0.46,1.26,0.46
				c0.53,0,0.9-0.13,1.13-0.39c0.13-0.15,0.19-0.31,0.19-0.5c0-0.21-0.07-0.37-0.2-0.48c-0.13-0.11-0.3-0.19-0.52-0.26
				c-0.26-0.07-0.55-0.14-0.89-0.22c-0.78-0.18-1.3-0.31-1.54-0.39c-0.95-0.34-1.42-0.94-1.42-1.81c0-0.75,0.32-1.32,0.96-1.72
				c0.52-0.32,1.24-0.48,2.17-0.48c1.22,0,2.1,0.3,2.63,0.91C364.44,171.96,364.6,172.42,364.65,173.02z"/>
		</g>
	</g>
</g>
</svg>
