<?xml version="1.0" encoding="utf-8"?>
<!-- Generator: Adobe Illustrator 26.0.1, SVG Export Plug-In . SVG Version: 6.00 Build 0)  -->
<svg version="1.1" id="Layer_1" xmlns="http://www.w3.org/2000/svg" xmlns:xlink="http://www.w3.org/1999/xlink" x="0px" y="0px"
	 viewBox="0 0 350 350" style="enable-background:new 0 0 350 350;" xml:space="preserve">
<style type="text/css">
	.st0{fill:url(#SVGID_1_);}
	.st1{fill:url(#SVGID_00000158707423770720985240000017096609352705546112_);}
	.st2{fill:url(#SVGID_00000026157544054262828500000009005821221879868573_);}
	.st3{fill:url(#SVGID_00000119094304451734986080000017139994004346156710_);}
	.st4{fill:#F0E521;}
	.st5{fill:#043F61;}
</style>
<g>
	<g>
		<g>
			<linearGradient id="SVGID_1_" gradientUnits="userSpaceOnUse" x1="26.5529" y1="166.9508" x2="41.1862" y2="183.4496">
				<stop  offset="0" style="stop-color:#E0201D"/>
				<stop  offset="0.3427" style="stop-color:#A34276"/>
				<stop  offset="0.4712" style="stop-color:#8B4F99"/>
				<stop  offset="0.8145" style="stop-color:#7BC4B3"/>
			</linearGradient>
			<path class="st0" d="M47.01,168.63c0,3.83-2.77,7.02-6.42,7.66c-0.45,0.08-0.91,0.12-1.37,0.12H24.55
				c-2.32,0.29-4.41,1.34-5.99,2.91c2.75-6.41,7.76-10.69,13.48-10.69H47.01z"/>
			
				<linearGradient id="SVGID_00000049942505027216225480000014353364890248329917_" gradientUnits="userSpaceOnUse" x1="19.7756" y1="184.2542" x2="47.7374" y2="215.7807">
				<stop  offset="0" style="stop-color:#E0201D"/>
				<stop  offset="0.3427" style="stop-color:#A34276"/>
				<stop  offset="0.4712" style="stop-color:#8B4F99"/>
				<stop  offset="0.8145" style="stop-color:#7BC4B3"/>
			</linearGradient>
			<path style="fill:url(#SVGID_00000049942505027216225480000014353364890248329917_);" d="M47.01,204.66H31.15
				c-5.54,0-12.29-6.51-14.37-12.97c1.5,2.7,4.17,4.66,7.32,5.18h15.12c0.48,0,0.96,0.05,1.41,0.13
				C44.26,197.67,47.01,200.84,47.01,204.66z"/>
			
				<linearGradient id="SVGID_00000129906146085903862280000014222621700610131382_" gradientUnits="userSpaceOnUse" x1="10.5236" y1="170.4964" x2="43.4443" y2="207.6142">
				<stop  offset="0" style="stop-color:#E0201D"/>
				<stop  offset="0.3427" style="stop-color:#A34276"/>
				<stop  offset="0.4712" style="stop-color:#8B4F99"/>
				<stop  offset="0.8145" style="stop-color:#7BC4B3"/>
			</linearGradient>
			<path style="fill:url(#SVGID_00000129906146085903862280000014222621700610131382_);" d="M31.15,204.66h-6.89
				c-3.25-0.28-6.25-1.41-8.78-3.19c-4.66-3.26-7.71-8.67-7.71-14.79c0-6.12,3.05-11.53,7.71-14.79c2.93-2.06,6.49-3.26,10.34-3.26
				h6.22c-5.73,0-10.73,4.28-13.48,10.69c-1.9,1.87-3.07,4.48-3.07,7.36c0,1.82,0.47,3.53,1.3,5.01
				C18.86,198.15,25.61,204.66,31.15,204.66z"/>
			
				<linearGradient id="SVGID_00000003066589277597883430000000560220090735050133_" gradientUnits="userSpaceOnUse" x1="23.7766" y1="196.1642" x2="43.2463" y2="179.4759">
				<stop  offset="0" style="stop-color:#DB341B"/>
				<stop  offset="0.4066" style="stop-color:#E3791D"/>
				<stop  offset="1" style="stop-color:#F0E521"/>
			</linearGradient>
			<path style="fill:url(#SVGID_00000003066589277597883430000000560220090735050133_);" d="M22.74,190.66h21.61
				c1.47,0,2.66-1.19,2.66-2.66v-5.36H25.4c-1.47,0-2.66,1.19-2.66,2.66V190.66z"/>
		</g>
		<g>
			<path class="st4" d="M68.79,184.3c0,0.6-0.21,1.05-0.64,1.35c-0.34,0.23-0.92,0.35-1.74,0.35h-2.55v-3.38h2.67
				c0.62,0,1.08,0.07,1.39,0.21C68.5,183.09,68.79,183.58,68.79,184.3z"/>
			<path class="st4" d="M68.92,192.33l-14.64,8.45v-28.28l13.98,8.07c-0.35-0.05-0.73-0.07-1.14-0.07h-5.94v12.28h2.67v-4.83h2.41
				c0.73,0,1.26,0.1,1.59,0.31c0.49,0.31,0.78,0.97,0.86,1.99c0.08,1.13,0.14,1.79,0.18,1.98C68.91,192.27,68.91,192.3,68.92,192.33
				z"/>
			<path class="st4" d="M78.77,186.65l-7.38,4.26c-0.08-0.88-0.13-1.41-0.16-1.58c-0.09-0.6-0.25-1.08-0.48-1.44
				c-0.31-0.47-0.73-0.77-1.27-0.91c0.43-0.16,0.8-0.39,1.1-0.72c0.57-0.6,0.85-1.36,0.85-2.29c0-0.73-0.16-1.35-0.48-1.86
				L78.77,186.65z"/>
		</g>
	</g>
	<g>
		<g>
			<path class="st5" d="M174.76,177.31v8.17l-3.68,4.31l3.68,3.68v11.29h-12.27v-11.81c0-0.74-0.6-1.34-1.34-1.34H142.7
				c-0.74,0-1.34,0.6-1.34,1.34v11.81h-12.39v-22.32h33.51v-4.39h-33.51v-9.3h37.24C170.93,168.76,174.76,172.59,174.76,177.31z"/>
			<rect x="84.16" y="168.76" class="st5" width="40.35" height="9.16"/>
			<polygon class="st5" points="124.51,182.39 124.51,191.61 97.09,191.61 97.09,195.54 124.51,195.54 124.51,204.7 84.16,204.7 
				84.16,182.39 			"/>
			<path class="st5" d="M285.62,178.49v13.95c0,6.74-5.47,12.21-12.21,12.21h-37.57v-9.51h33.29c1.97,0,3.6-1.47,3.84-3.38
				c0.02-0.16,0.03-0.32,0.03-0.49v-9.2c0-2.14-1.73-3.87-3.87-3.87h-33.29v-9.44h40.05C281.26,168.76,285.62,173.12,285.62,178.49z
				"/>
			<polygon class="st5" points="231.37,204.65 219.62,204.65 214.9,195.95 212.6,191.72 209.99,186.91 207.88,183.03 205.47,178.59 
				205.48,178.56 205.46,178.56 205.47,178.59 203.06,183.03 200.95,186.91 198.34,191.72 196.04,195.95 191.32,204.65 
				179.22,204.65 183.95,195.95 186.24,191.72 188.86,186.91 190.97,183.03 193.39,178.56 198.36,168.76 212.23,168.76 
				217.2,178.56 219.63,183.03 221.74,186.91 224.35,191.72 226.64,195.95 			"/>
			<rect x="198.68" y="195.54" class="st5" width="13.23" height="9.16"/>
			<polygon class="st5" points="342.22,204.65 330.47,204.65 325.75,195.95 323.46,191.72 320.84,186.91 318.73,183.03 
				316.32,178.59 316.34,178.56 316.31,178.56 316.32,178.59 313.92,183.03 311.81,186.91 309.19,191.72 306.9,195.95 
				302.17,204.65 290.08,204.65 294.8,195.95 297.1,191.72 299.71,186.91 301.82,183.03 304.24,178.56 309.22,168.76 323.08,168.76 
				328.06,178.56 330.48,183.03 332.59,186.91 335.2,191.72 337.5,195.95 			"/>
			<rect x="309.54" y="195.54" class="st5" width="13.23" height="9.16"/>
			<rect x="235.83" y="182.45" class="st5" width="13.23" height="9.16"/>
		</g>
		<g>
			<path class="st5" d="M305.05,147.78v0.84c0.49-0.68,1.19-1.03,2.09-1.03c0.89,0,1.61,0.33,2.17,0.99
				c0.55,0.65,0.82,1.52,0.82,2.6c0,1-0.24,1.82-0.73,2.45c-0.54,0.71-1.27,1.06-2.2,1.06c-0.88,0-1.57-0.34-2.07-1.01v3.21h-1.84
				v-9.11H305.05z M306.71,149.07c-0.52,0-0.92,0.18-1.2,0.55c-0.29,0.36-0.43,0.87-0.43,1.53c0,0.67,0.15,1.19,0.45,1.55
				c0.29,0.35,0.68,0.53,1.18,0.53c0.49,0,0.88-0.18,1.15-0.53c0.29-0.37,0.43-0.88,0.43-1.53c0-0.67-0.15-1.19-0.44-1.57
				C307.57,149.25,307.19,149.07,306.71,149.07z"/>
			<path class="st5" d="M313.6,145.24v9.28h-1.84v-9.28H313.6z"/>
			<path class="st5" d="M321.72,147.78v6.73h-1.75v-0.95c-0.53,0.76-1.24,1.14-2.13,1.14c-0.79,0-1.39-0.27-1.8-0.8
				c-0.29-0.39-0.43-1-0.43-1.85v-4.26h1.84v3.71c0,0.64,0.05,1.06,0.16,1.24c0.18,0.3,0.49,0.45,0.92,0.45
				c0.54,0,0.94-0.25,1.18-0.76c0.12-0.25,0.18-0.68,0.18-1.32v-3.34H321.72z"/>
			<path class="st5" d="M329.1,149.75h-1.71c-0.04-0.24-0.11-0.42-0.2-0.54c-0.19-0.24-0.54-0.36-1.05-0.36
				c-0.41,0-0.7,0.09-0.88,0.28c-0.1,0.1-0.14,0.23-0.14,0.39c0,0.16,0.05,0.28,0.14,0.38c0.11,0.1,0.24,0.18,0.41,0.22
				c0.27,0.07,0.64,0.16,1.09,0.25c0.89,0.18,1.53,0.4,1.92,0.66c0.47,0.31,0.7,0.78,0.7,1.41c0,0.72-0.29,1.28-0.87,1.68
				c-0.56,0.39-1.31,0.59-2.25,0.59c-2,0-3.05-0.79-3.16-2.38h1.76c0.04,0.31,0.12,0.55,0.25,0.7c0.24,0.29,0.63,0.43,1.18,0.43
				c0.49,0,0.84-0.12,1.06-0.37c0.12-0.14,0.18-0.29,0.18-0.47c0-0.19-0.06-0.34-0.19-0.45c-0.12-0.1-0.29-0.18-0.49-0.24
				c-0.24-0.07-0.52-0.13-0.83-0.2c-0.73-0.17-1.21-0.29-1.44-0.37c-0.89-0.32-1.33-0.88-1.33-1.7c0-0.7,0.3-1.24,0.9-1.61
				c0.49-0.3,1.16-0.45,2.03-0.45c1.14,0,1.97,0.28,2.46,0.85C328.9,148.76,329.06,149.19,329.1,149.75z"/>
		</g>
	</g>
</g>
</svg>
