<?xml version="1.0" encoding="utf-8"?>
<!-- Generator: Adobe Illustrator 26.0.1, SVG Export Plug-In . SVG Version: 6.00 Build 0)  -->
<svg version="1.1" id="Layer_1" xmlns="http://www.w3.org/2000/svg" xmlns:xlink="http://www.w3.org/1999/xlink" x="0px" y="0px"
	 viewBox="0 0 400 400" style="enable-background:new 0 0 400 400;" xml:space="preserve">
<style type="text/css">
	.st0{fill:#E20E17;}
	.st1{fill:#29265B;}
	.st2{clip-path:url(#SVGID_00000167366261410203303660000003147111959032561087_);fill:#29265B;}
</style>
<g>
	<g>
		<path class="st0" d="M354.08,224.32l-27.84-16.07c0.21-2.99,0.29-13.56,0.17-15.81l27.67-15.97c2.82-1.62,4.15-4.97,3.22-8.09
			l-6.9-23.2c-0.91-3.07-3.79-5.14-7-5.02l-30.83,1.17c-2.84-5.51-6.07-10.77-9.65-15.77l14.04-26.23c1.53-2.87,0.9-6.41-1.53-8.57
			l-18.1-16.07c-2.4-2.13-5.94-2.36-8.6-0.57l-24.11,16.28c-2.91-1.73-5.9-3.35-8.95-4.85l0.15-30.88c0.02-3.21-2.14-6.02-5.25-6.83
			l-23.42-6.13c-3.15-0.82-6.44,0.62-7.98,3.49L204.47,72.8c-1.46-0.05-12.59,0.1-16.61,0.49L171.38,46.8
			c-1.72-2.76-5.11-3.98-8.19-2.95l-22.96,7.66c-3.04,1.02-5.01,3.96-4.78,7.16l2.17,30.52c-2.95,1.68-5.84,3.45-8.64,5.36
			L103.85,79.7c-2.76-1.63-6.28-1.19-8.54,1.09L78.2,97.91c-2.3,2.3-2.72,5.88-1.01,8.65l15.68,25.47c-1.9,3.02-3.67,6.13-5.31,9.32
			l-30.96-1.18c-3.21-0.12-6.09,1.94-7,5.02l-6.9,23.2c-0.93,3.12,0.41,6.46,3.22,8.09l27.79,16.04c-0.12,2.22-0.04,12.7,0.17,15.66
			l-27.97,16.14c-2.82,1.62-4.15,4.97-3.22,8.09l6.9,23.2c0.91,3.07,3.79,5.14,7,5.02l32.15-1.22c2.65,4.89,5.63,9.56,8.87,14.04
			l-14.58,27.24c-1.54,2.87-0.9,6.41,1.53,8.57l18.1,16.07c2.4,2.13,5.94,2.36,8.59,0.57l25.43-17.17c2.75,1.59,5.54,3.11,8.41,4.5
			l-0.16,32.1c-0.02,3.21,2.14,6.02,5.25,6.83l23.42,6.13c3.14,0.82,6.44-0.62,7.98-3.49l15.28-28.62l15.4-0.51l17.14,27.55
			c1.72,2.76,5.11,3.98,8.19,2.95l22.96-7.66c3.04-1.02,5.01-3.96,4.78-7.16l-2.31-32.37c2.31-1.33,4.58-2.72,6.8-4.18l26.33,15.55
			c2.76,1.63,6.28,1.19,8.54-1.08l17.1-17.13c2.3-2.3,2.72-5.88,1.01-8.65l-16.11-26.18c1.64-2.57,3.23-5.18,4.68-7.88l32.02,1.22
			c3.2,0.12,6.09-1.94,7-5.02l6.9-23.2C358.23,229.29,356.9,225.95,354.08,224.32z M200.07,307.25
			c-59.66,0-108.03-48.36-108.03-108.03c0-59.66,48.37-108.02,108.03-108.02s108.02,48.36,108.02,108.02
			C308.09,258.88,259.73,307.25,200.07,307.25z"/>
		<path class="st0" d="M200,118.03c-45.27,0-81.97,36.7-81.97,81.97s36.7,81.97,81.97,81.97s81.97-36.7,81.97-81.97
			S245.27,118.03,200,118.03z M200,276.52c-42.26,0-76.52-34.26-76.52-76.52s34.26-76.52,76.52-76.52
			c42.26,0,76.52,34.26,76.52,76.52S242.26,276.52,200,276.52z"/>
		<circle class="st1" cx="201.96" cy="294.82" r="11.25"/>
		<circle class="st1" cx="149.98" cy="280.28" r="11.25"/>
		<circle class="st1" cx="110.59" cy="233.26" r="11.25"/>
		<circle class="st1" cx="110.59" cy="167.76" r="11.25"/>
		<circle class="st1" cx="142.41" cy="125.04" r="11.25"/>
		<circle class="st1" cx="197.15" cy="105.85" r="11.25"/>
		<circle class="st1" cx="257.84" cy="125.04" r="11.25"/>
		<circle class="st1" cx="290.01" cy="170.45" r="11.25"/>
		<circle class="st1" cx="289.16" cy="232.3" r="11.25"/>
		<circle class="st1" cx="260.89" cy="273.35" r="11.25"/>
		<g>
			<path class="st0" d="M159.54,206.24c0.15-0.19,0.27-0.29,0.32-0.41c0.5-1.27,0.97-2.55,1.47-3.81c0.81-2.02,1.63-4.04,2.46-6.05
				c0.45-1.09,0.94-2.17,1.42-3.25c0.66-1.49,1.32-2.98,1.98-4.47c0.47-1.06,0.94-2.13,1.43-3.18c0.84-1.84,1.64-3.7,2.57-5.49
				c0.63-1.2,1.23-2.43,2.18-3.45c0.34-0.36,0.68-0.59,1.2-0.57c1.17,0.06,2.34,0.13,3.51,0.14c1.35,0.01,2.69-0.05,4.04-0.08
				c0.29-0.01,0.57-0.02,0.86-0.05c0.74-0.07,1.49-0.15,2.22-0.24c0.33-0.04,0.59,0.06,0.85,0.26c0.89,0.68,1.43,1.56,1.76,2.63
				c0.41,1.35,0.48,2.72,0.53,4.11c0.04,1.13-1,2.24-1.79,2.53c-0.76,0.28-1.54,0.51-2.37,0.53c-0.09,0-0.18,0.01-0.26,0.02
				c-0.57,0.07-0.64,0.14-0.62,0.7c0.01,0.31,0.01,0.62,0.01,0.93c0,8.41,0,16.82,0,25.24c0,0.3,0,0.61,0,0.98
				c0.44,0.06,0.83,0.14,1.21,0.17c0.83,0.06,1.6,0.27,2.34,0.65c0.89,0.46,1.39,1.18,1.44,2.2c0.09,1.65-0.18,3.26-0.83,4.77
				c-0.2,0.46-0.6,0.84-0.92,1.25c-0.12,0.15-0.32,0.24-0.46,0.38c-0.46,0.46-1.02,0.52-1.65,0.49c-2.23-0.12-4.45-0.28-6.68-0.28
				c-2.2,0.01-4.41,0.19-6.61,0.32c-0.46,0.03-0.84-0.01-1.21-0.34c-0.75-0.68-1.35-1.42-1.61-2.42c-0.32-1.2-0.53-2.4-0.59-3.64
				c-0.08-1.6,0.99-2.79,2.34-3.08c0.71-0.16,1.42-0.3,2.13-0.44c0.19-0.04,0.39-0.06,0.56-0.09c0.18-0.58,0.26-10.61,0.13-14.85
				c-0.01-0.21-0.06-0.42-0.08-0.63c-0.05-0.01-0.1-0.03-0.14-0.04c-0.1,0.14-0.24,0.27-0.31,0.43c-0.68,1.62-1.33,3.24-2.02,4.86
				c-0.49,1.15-1.02,2.29-1.52,3.44c-0.8,1.86-1.6,3.72-2.39,5.58c-0.52,1.21-0.99,2.45-1.56,3.63c-0.34,0.71-0.8,1.36-1.23,2.02
				c-0.3,0.45-0.53,0.89-0.56,1.45c-0.01,0.24-0.12,0.53-0.28,0.7c-0.94,1.03-2.11,1.76-3.48,2.02c-1.67,0.33-3.08-0.21-4.13-1.59
				c-0.54-0.7-0.99-1.44-1.34-2.26c-0.54-1.3-1.11-2.59-1.67-3.88c-0.71-1.65-1.42-3.3-2.15-4.95c-0.78-1.77-1.6-3.52-2.38-5.29
				c-0.76-1.73-1.49-3.48-2.24-5.21c-0.18-0.41-0.4-0.81-0.6-1.21c-0.05,0-0.1,0-0.15,0.01c-0.03,0.2-0.09,0.4-0.09,0.6
				c-0.01,4.84-0.01,9.67,0,14.51c0,0.22,0.05,0.43,0.07,0.66c0.47,0.08,0.9,0.14,1.33,0.23c0.54,0.11,1.07,0.23,1.6,0.38
				c1.04,0.28,1.96,1.32,2.01,2.43c0.08,1.65-0.14,3.26-0.67,4.82c-0.3,0.9-0.97,1.51-1.71,2.04c-0.19,0.13-0.5,0.16-0.75,0.14
				c-1.67-0.1-3.35-0.26-5.02-0.31c-1.43-0.04-2.87,0.03-4.3,0.09c-1.21,0.05-2.43,0.12-3.64,0.21c-0.42,0.03-0.77-0.09-1.11-0.33
				c-1.16-0.81-1.88-1.92-2.13-3.29c-0.18-0.99-0.26-2.01-0.31-3.02c-0.07-1.39,0.77-2.41,2.14-2.8c0.86-0.25,1.76-0.39,2.75-0.6
				c0.01-0.17,0.06-0.42,0.06-0.67c0-8.61-0.01-17.22-0.01-25.83c0-0.41,0-0.82,0-1.2c-0.73-0.11-1.38-0.21-2.03-0.3
				c-1.07-0.14-1.86-0.75-2.49-1.56c-0.21-0.26-0.34-0.63-0.37-0.97c-0.16-1.76,0.03-3.5,0.81-5.1c0.43-0.89,1.07-1.71,2.07-2.02
				c0.48-0.15,1.04-0.09,1.56-0.04c2.31,0.22,4.6,0.5,6.93,0.21c0.96-0.12,1.94-0.07,2.91-0.08c0.49,0,0.87,0.26,1.21,0.59
				c0.74,0.72,1.23,1.6,1.66,2.52c1.2,2.59,2.4,5.18,3.58,7.78c1.15,2.52,2.3,5.04,3.42,7.57c0.98,2.21,1.92,4.44,2.87,6.66
				c0.71,1.65,1.42,3.31,2.14,4.96C159.22,205.81,159.36,205.96,159.54,206.24z"/>
			<path class="st0" d="M252.79,223.19c-2.06-0.06-4.16-0.13-6.26-0.18c-1.15-0.03-2.29-0.03-3.44-0.05
				c-1.52-0.02-3.04-0.07-4.57-0.07c-1.61,0.01-3.22,0.05-4.83,0.11c-1.19,0.04-2.38,0.12-3.57,0.21c-0.65,0.05-1.09-0.31-1.51-0.69
				c-0.91-0.84-1.51-1.87-1.69-3.12c-0.1-0.67-0.27-1.33-0.36-2c-0.22-1.64,0.31-2.99,2.04-3.61c0.72-0.26,1.49-0.4,2.25-0.51
				c0.77-0.11,0.77-0.07,0.77-0.81c0-4.37-0.01-8.74-0.01-13.12c0-4.24,0-8.48,0-12.72c0-0.11,0-0.22,0-0.33
				c0-0.95-0.01-0.92-0.94-0.98c-1.36-0.09-2.62-0.46-3.51-1.57c-0.59-0.73-0.76-1.61-0.6-2.54c0.05-0.32,0.09-0.65,0.13-0.98
				c0.14-1.26,0.45-2.46,1.25-3.48c0.28-0.36,0.62-0.67,0.97-0.97c0.59-0.52,1.3-0.45,2.01-0.39c1.01,0.08,2.02,0.17,3.03,0.2
				c2.34,0.08,4.68,0.2,7.02,0.17c2.47-0.03,4.94-0.26,7.41-0.35c1.9-0.06,3.8-0.12,5.69-0.01c1.67,0.1,3.27,0.57,4.8,1.3
				c0.8,0.38,1.59,0.76,2.32,1.26c0.89,0.61,1.72,1.28,2.39,2.14c0.76,0.97,1.52,1.94,2.04,3.06c0.34,0.74,0.63,1.5,0.86,2.28
				c0.39,1.29,0.62,2.63,0.57,3.98c-0.06,1.67-0.5,3.27-1.35,4.72c-0.43,0.74-0.9,1.45-1.4,2.15c-0.4,0.56-0.4,0.69,0.1,1.14
				c0.73,0.64,1.48,1.25,2.13,1.97c1.36,1.49,2.4,3.19,2.98,5.16c0.51,1.76,0.65,3.56,0.46,5.36c-0.15,1.42-0.51,2.83-1.16,4.11
				c-1.07,2.11-2.45,4.02-4.36,5.47c-0.69,0.53-1.5,0.9-2.25,1.37c-1.19,0.74-2.51,1.17-3.83,1.57c-0.9,0.27-1.85,0.43-2.79,0.56
				C254.68,223.09,253.75,223.11,252.79,223.19z M248.12,213.92c0,0.02,0,0.04,0,0.06c2.05-0.07,4.1-0.12,6.15-0.21
				c1.39-0.06,2.6-0.59,3.64-1.52c0.97-0.86,1.61-1.94,1.79-3.22c0.32-2.21-0.54-3.98-2.29-5.3c-1.28-0.96-2.79-1.46-4.37-1.5
				c-3.44-0.08-6.89-0.05-10.33-0.06c-0.45,0-0.52,0.08-0.54,0.56c-0.01,0.46,0.01,0.93,0.01,1.39c0,2.98,0,5.96,0.01,8.94
				c0,0.76,0.1,0.84,0.83,0.84C244.72,213.92,246.42,213.92,248.12,213.92z M247.65,193.63
				C247.65,193.63,247.65,193.63,247.65,193.63c1.35,0,2.69-0.02,4.04,0c0.81,0.01,1.57-0.12,2.33-0.4
				c1.62-0.59,2.88-2.35,2.77-4.02c-0.07-1.13-0.39-2.18-1.03-3.09c-0.58-0.83-1.39-1.42-2.43-1.54c-0.79-0.09-1.58-0.13-2.38-0.13
				c-2.36-0.02-4.73-0.01-7.09-0.01c-0.37,0-0.75,0.01-1.12,0.04c-0.42,0.03-0.53,0.16-0.56,0.58c-0.01,0.15-0.01,0.31-0.01,0.46
				c0,2.45,0,4.9,0,7.35c0,0.69,0.07,0.75,0.77,0.75C244.51,193.64,246.08,193.63,247.65,193.63z"/>
			<path class="st0" d="M197.73,205.72c0.3,0.69,0.58,1.41,0.93,2.09c0.94,1.86,2.33,3.33,4.07,4.47c2.23,1.47,4.68,2.25,7.33,2.32
				c1.44,0.04,2.88-0.09,4.17-0.85c0.81-0.47,1.35-1.15,1.53-2.11c0.17-0.89,0.1-1.76-0.19-2.6c-0.39-1.1-1.16-1.9-2.17-2.47
				c-1.28-0.73-2.63-1.3-4.05-1.71c-0.88-0.25-1.74-0.6-2.62-0.86c-0.71-0.22-1.45-0.37-2.17-0.57c-1.19-0.32-2.39-0.62-3.56-1
				c-1.61-0.52-3.2-1.13-4.7-1.93c-1.62-0.86-3.12-1.87-4.42-3.17c-1.36-1.36-2.24-3.01-2.78-4.84c-0.62-2.08-0.78-4.2-0.4-6.35
				c0.4-2.3,1.42-4.28,3.06-5.95c0.6-0.61,1.23-1.19,1.91-1.7c0.95-0.72,2-1.27,3.11-1.7c1.15-0.44,2.31-0.82,3.49-1.15
				c0.67-0.19,1.38-0.27,2.08-0.32c1.23-0.1,2.47-0.21,3.7-0.18c1.18,0.03,2.36,0.23,3.55,0.35c1.63,0.17,3.09,0.82,4.55,1.51
				c0.56,0.26,0.59,0.24,1.02-0.21c0.56-0.59,1.21-0.94,2.07-1.02c1.66-0.16,3.31,0.05,4.96,0.11c0.32,0.01,0.64,0.11,0.99,0.18
				c0.13,0.66,0.24,1.28,0.37,1.9c0.22,1.05,0.46,2.1,0.66,3.16c0.2,1.06,0.36,2.13,0.54,3.2c0.15,0.89,0.34,1.78,0.42,2.67
				c0.08,0.92,0.1,1.85,0.06,2.78c-0.04,0.84-0.69,1.3-1.35,1.67c-0.38,0.21-0.82,0.33-1.25,0.43c-1.71,0.38-3.45,0.45-5.19,0.47
				c-0.65,0.01-0.68-0.03-0.9-0.62c-0.39-1-0.71-2.04-1.21-2.98c-1.02-1.92-2.54-3.32-4.56-4.21c-1.15-0.51-2.34-0.72-3.57-0.86
				c-1.26-0.14-2.51-0.08-3.76,0.1c-0.95,0.14-1.83,0.46-2.59,1.06c-1.04,0.81-1.53,2.42-1.16,3.68c0.39,1.35,1.39,2.11,2.57,2.67
				c0.83,0.39,1.71,0.69,2.58,0.99c1.62,0.55,3.25,1.09,4.89,1.6c1.38,0.43,2.8,0.75,4.17,1.2c1.22,0.4,2.45,0.79,3.61,1.38
				c1.14,0.57,2.28,1.15,3.35,1.84c1.53,0.99,2.9,2.13,3.95,3.64c0.87,1.26,1.46,2.65,1.89,4.11c0.48,1.63,0.55,3.3,0.42,4.98
				c-0.15,1.95-0.7,3.79-1.69,5.5c-0.62,1.08-1.37,2.05-2.23,2.93c-0.54,0.56-1.24,0.97-1.91,1.4c-1.92,1.24-4.05,2.03-6.28,2.45
				c-2.51,0.48-5.04,0.55-7.58,0.2c-2.11-0.29-4.12-0.91-6.06-1.77c-0.4-0.18-0.8-0.34-1.2-0.52c-0.29-0.13-0.5-0.03-0.59,0.23
				c-0.43,1.16-1.37,1.65-2.5,1.73c-1.61,0.11-3.22,0.11-4.83,0.16c-0.33,0.01-0.49-0.16-0.57-0.51c-0.37-1.7-0.82-3.38-1.13-5.08
				c-0.35-1.9-0.61-3.82-0.85-5.74c-0.12-0.98-0.14-1.98-0.19-2.97c-0.04-0.8,0.33-1.45,0.83-2.02c0.16-0.19,0.42-0.3,0.65-0.42
				c1.55-0.76,3.17-1.18,4.9-1.07C196.5,205.45,197.1,205.61,197.73,205.72z"/>
			<path class="st1" d="M146.2,163.16c-0.66-0.36-1.26-0.47-1.88-0.51c-0.95-0.07-1.89-0.13-2.84-0.17
				c-0.75-0.03-1.17-0.47-1.42-1.1c-0.21-0.55-0.38-1.13-0.52-1.7c-0.14-0.56,0.04-0.8,0.62-0.79c0.41,0.01,0.82,0.11,1.23,0.17
				c0.22,0.03,0.44,0.06,0.66,0.07c0.52,0.02,0.9,0.24,1.2,0.69c0.14,0.22,0.4,0.4,0.65,0.5c0.85,0.34,1.73,0.65,2.59,0.96
				c0.63,0.22,0.84,0.14,1.22-0.41c0.38-0.56,0.76-1.12,1.17-1.66c0.18-0.23,0.18-0.38-0.04-0.55c-0.1-0.08-0.19-0.18-0.25-0.3
				c-0.12-0.21-0.06-0.8,0.09-0.94c0.22-0.21,0.45-0.07,0.68,0.01c0.79,0.26,0.78,0.25,1.29-0.45c0.18-0.25,0.39-0.47,0.64-0.76
				c-0.18-0.17-0.33-0.36-0.52-0.47c-0.75-0.47-1.3-1.08-1.59-1.94c-0.22-0.64-0.09-1.18,0.37-1.63c0.22-0.21,0.47-0.41,0.75-0.53
				c1.07-0.48,2.18-0.7,3.33-0.29c0.22,0.08,0.4,0.26,0.58,0.42c0.18,0.16,0.34,0.34,0.49,0.53c0.2,0.24,0.38,0.25,0.61,0.04
				c0.44-0.4,0.88-0.8,1.34-1.18c0.27-0.22,0.55-0.43,0.84-0.61c0.45-0.27,0.56-0.5,0.27-0.88c-0.2-0.27-0.26-0.52-0.09-0.79
				c0.17-0.27,0.47-0.34,0.76-0.29c0.21,0.04,0.42,0.14,0.61,0.24c0.3,0.16,0.58,0.12,0.79-0.1c0.45-0.47,0.96-0.83,1.52-1.14
				c0.22-0.12,0.39-0.34,0.59-0.53c-0.06-0.16-0.11-0.28-0.15-0.4c-0.1-0.33-0.06-0.6,0.26-0.8c0.39-0.25,0.61-0.28,0.97-0.06
				c0.07,0.05,0.15,0.09,0.22,0.15c0.21,0.18,0.42,0.23,0.66,0.05c0.24-0.18,0.47-0.42,0.31-0.72c-0.19-0.37-0.12-0.61,0.18-0.86
				c0.31-0.25,0.61-0.31,0.97-0.11c0.19,0.11,0.4,0.18,0.6,0.26c0.45,0.18,0.73,0,0.76-0.49c0.01-0.2-0.04-0.39-0.05-0.59
				c-0.02-0.63,0.5-0.95,1.07-0.66c0.16,0.08,0.31,0.16,0.46,0.25c0.25,0.14,0.5,0.16,0.75,0c0.35-0.22,0.73-0.41,1.05-0.67
				c0.15-0.12,0.24-0.36,0.28-0.56c0.07-0.32,0.08-0.66,0.1-0.99c0.07-0.93,0.9-1.82,1.85-1.81c0.6,0,1.22,0.14,1.8,0.33
				c0.51,0.16,0.99,0.45,1.47,0.71c0.87,0.46,1.75,0.54,2.72,0.11c-0.02-0.19,0.03-0.42-0.07-0.56c-0.31-0.45-0.62-0.91-1.02-1.27
				c-0.52-0.47-0.91-1-1.21-1.62c-0.17-0.35-0.06-0.65,0.17-0.92c0.4-0.46,0.82-0.91,1.24-1.36c0.1-0.11,0.23-0.2,0.34-0.31
				c0.44-0.48,0.71-0.52,1.16-0.07c0.35,0.36,0.67,0.76,0.96,1.17c0.24,0.35,0.29,0.73,0.04,1.12c-0.21,0.32-0.18,0.67-0.06,1.02
				c0.37,1.03,0.78,2.05,1.1,3.1c0.15,0.5,0.18,1.04,0.2,1.57c0.03,0.79-0.5,1.2-1.17,1.4c-0.69,0.21-1.41,0.33-2.11,0.5
				c-0.4,0.09-0.85,0.08-1.03,0.59c-0.04,0.1-0.24,0.18-0.38,0.2c-0.61,0.07-1.23,0.17-1.84,0.17c-0.71,0-1.23,0.15-1.69,0.79
				c-0.48,0.68-1.33,0.91-2.11,1.13c-0.2,0.06-0.48-0.22-0.79-0.37c-0.54,0.85-1.38,1.09-2.39,0.81c-0.16,0.63-0.37,1.22-0.96,1.39
				c-0.51,0.14-1.08,0.09-1.65,0.13c-0.02,0.06-0.09,0.14-0.08,0.22c0.02,0.81-0.53,1.22-1.14,1.56c-0.56,0.32-1.13,0.57-1.82,0.39
				c-0.45-0.11-0.58,0.03-0.69,0.49c-0.02,0.09-0.05,0.17-0.05,0.26c0.02,0.72-0.38,1.18-0.93,1.57c-0.3,0.22-0.58,0.47-0.88,0.69
				c-0.72,0.52-1.48,0.93-2.39,1c-0.68,0.05-0.79,0.17-0.78,0.87c0.02,0.73-0.27,1.32-0.76,1.83c-0.17,0.17-0.31,0.37-0.47,0.55
				c-0.4,0.43-0.82,0.79-1.47,0.76c-0.24-0.01-0.49,0.13-0.71,0.19c-0.02,0.14-0.05,0.21-0.04,0.27c0.24,0.81,0.01,1.5-0.44,2.18
				c-0.37,0.56-0.83,0.88-1.49,0.96c-0.25,0.03-0.49,0.11-0.81,0.18c0.66,1.06,0.31,1.93-0.23,2.78c-0.34,0.54-0.66,1.1-1.34,1.29
				c-0.36,0.1-0.72,0.17-1.08,0.25c-0.2,0.05-0.41,0.08-0.7,0.14c0.17,0.22,0.28,0.36,0.38,0.49c0.3,0.36,0.6,0.74,0.39,1.25
				c-0.23,0.56-0.69,0.88-1.27,0.92c-0.52,0.04-1.05-0.05-1.57-0.13c-0.48-0.07-0.95-0.19-1.42-0.31c-0.26-0.06-0.51-0.15-0.74-0.27
				c-0.42-0.23-0.74-0.54-0.75-1.07c0-0.31-0.05-0.62-0.07-0.92c-0.02-0.34-0.16-0.6-0.49-0.72c-0.58-0.22-0.79-0.75-1.02-1.24
				c-0.24-0.5,0.03-0.88,0.61-0.85c0.59,0.03,1.18,0.14,1.77,0.21c0.77,0.09,1.54,0.17,2.3,0.27c0.28,0.04,0.49-0.05,0.62-0.27
				C145.66,164.16,145.9,163.69,146.2,163.16z M152.04,154.72c0.76,0.04,1.18-0.26,1.31-0.96c0.06-0.31-0.05-0.52-0.34-0.51
				c-0.64,0.03-1.29,0.09-1.76,0.6c-0.12,0.12-0.21,0.37-0.17,0.51c0.05,0.15,0.26,0.28,0.43,0.35
				C151.67,154.77,151.87,154.72,152.04,154.72z M143.63,166.75c-0.57-0.02-0.81,0.22-0.63,0.68c0.06,0.16,0.24,0.37,0.39,0.4
				c0.38,0.08,0.78,0.11,1.17,0.08c0.37-0.03,0.38-0.38,0.41-0.66c0.03-0.3-0.22-0.36-0.43-0.4
				C144.25,166.79,143.94,166.78,143.63,166.75z M171.96,141.87c0.6,0.57,1.61,0.43,2.01-0.23
				C172.87,141.11,172.42,141.15,171.96,141.87z"/>
			<path class="st1" d="M220.85,142.42c0.31,0.14,0.61,0.3,0.92,0.41c0.45,0.15,0.92,0.28,1.38,0.4c0.3,0.07,0.52-0.04,0.63-0.34
				c0.22-0.55,0.43-1.1,0.66-1.65c0.2-0.46,0.39-0.93,0.63-1.37c0.08-0.15,0.3-0.28,0.47-0.3c1.12-0.13,2.23-0.25,3.35-0.33
				c0.67-0.05,0.9,0.29,0.64,0.91c-0.18,0.43-0.41,0.83-0.62,1.24c-0.2,0.4-0.44,0.69-0.96,0.65c-0.19-0.02-0.42,0.11-0.58,0.25
				c-0.39,0.34-0.77,0.71-1.11,1.1c-0.69,0.79-1.33,1.62-2.05,2.38c-0.55,0.59-1.21,0.96-2.08,0.97c-0.98,0.01-1.86-0.16-2.66-0.74
				c-0.16-0.11-0.34-0.19-0.52-0.28c-0.59-0.29-1.08-0.68-1.3-1.32c-0.11-0.31-0.28-0.38-0.6-0.31c-1.18,0.25-2.36,0.28-3.53-0.05
				c-0.97-0.27-1.95-0.53-2.84-0.77c-0.25-0.4-0.45-0.74-0.67-1.06c-0.18-0.25-0.46-0.33-0.7-0.14c-0.8,0.67-1.71,0.42-2.6,0.37
				c-0.07,0-0.13-0.03-0.2-0.03c-0.54-0.04-0.7,0.06-0.89,0.57c-0.32,0.85-0.7,1.65-1.31,2.34c-0.62,0.7-1.35,0.98-2.25,0.73
				c-1.12-0.31-2.23-0.64-3.34-0.98c-0.29-0.09-0.58-0.19-0.85-0.33c-0.14-0.07-0.25-0.22-0.37-0.33c0.13-0.34,0.36-0.43,0.63-0.49
				c1.52-0.34,3.02-0.76,4.5-1.23c0.25-0.08,0.52-0.15,0.53-0.53c-0.54-0.11-1.07-0.2-1.59-0.32c-0.99-0.24-1.32-0.74-1.31-1.56
				c0.01-0.85,0.15-1.71,0.33-2.55c0.17-0.79,0.71-1.26,1.51-1.48c1.1-0.29,2.13-0.16,3.13,0.35c0.6,0.31,0.96,0.83,1.16,1.46
				c0.28,0.86,1.23,1.32,2.06,0.97c0.26-0.11,0.36-0.31,0.34-0.58c-0.03-0.64-0.04-1.28-0.11-1.92c-0.16-1.53,0.02-1.98,1.54-2.42
				c0.55-0.16,1.07-0.39,1.62-0.56c0.74-0.24,1.01-0.06,1.11,0.72c0.03,0.2,0.01,0.4,0.04,0.59c0.08,0.67-0.04,1.22-0.76,1.5
				c-0.2,0.08-0.39,0.3-0.47,0.51c-0.26,0.65-0.48,1.32-0.68,2c-0.07,0.24-0.01,0.52-0.01,0.85c0.28,0.08,0.57,0.17,0.87,0.24
				c0.34,0.09,0.68,0.18,1.02,0.25c0.19,0.04,0.39,0.06,0.59,0.05c0.3-0.02,0.58-0.06,0.7,0.32c0.02,0.07,0.11,0.13,0.19,0.15
				c0.55,0.17,1.09,0.36,1.65,0.48c0.49,0.1,1,0.14,1.51,0.17c0.18,0.01,0.36-0.07,0.67-0.14c-0.25-0.29-0.39-0.51-0.58-0.67
				c-0.46-0.37-0.94-0.72-1.43-1.06c-0.46-0.32-1-0.28-1.46,0.06c-0.23,0.16-0.47,0.31-0.72,0.45c-0.05,0.03-0.13,0.01-0.19,0.02
				c-0.39-0.69-0.34-1.19,0.18-1.71c0.99-0.97,3.14-1.55,4.58-0.11c0.72,0.73,1.66,1.2,2.63,1.57c0.41,0.16,0.82,0.32,1.2,0.53
				c0.31,0.17,0.33,0.36,0.12,0.65c-0.19,0.27-0.39,0.54-0.63,0.75c-0.19,0.16-0.45,0.24-0.69,0.34c-0.13,0.05-0.27,0.08-0.41,0.12
				C220.87,142.28,220.86,142.35,220.85,142.42z M203.99,138.6c-0.37-0.45-0.71-0.72-1.11-0.92c-0.11-0.06-0.26-0.05-0.38-0.03
				c-0.27,0.03-0.48,0.21-0.44,0.47c0.02,0.18,0.22,0.45,0.36,0.46C202.9,138.64,203.39,138.6,203.99,138.6z"/>
			<path class="st1" d="M243.76,157.8c-0.07,0.53-0.12,1.01-0.19,1.49c-0.06,0.42,0.07,0.74,0.36,1.07c0.35,0.39,0.63,0.84,0.87,1.3
				c0.3,0.58,0.67,0.88,1.36,0.72c0.45-0.1,0.65,0.07,0.76,0.44c0.08,0.29-0.01,0.51-0.25,0.69c-0.16,0.12-0.3,0.25-0.45,0.39
				c-0.04,0.04-0.05,0.12-0.07,0.18c0.08,0.3,0.28,0.44,0.57,0.46c0.18,0.01,0.35,0.02,0.53,0.02c0.5,0.01,0.7,0.11,0.8,0.43
				c0.11,0.34,0.02,0.51-0.4,0.8c-0.09,0.06-0.2,0.11-0.26,0.19c-0.08,0.11-0.2,0.28-0.16,0.38c0.05,0.14,0.21,0.3,0.35,0.33
				c0.37,0.08,0.75,0.05,1.03-0.26c0.22-0.25,0.44-0.47,0.83-0.45c0.45,0.02,0.81,0.23,1.13,0.5c0.32,0.26,0.32,0.77-0.04,1.03
				c-0.37,0.27-0.78,0.51-1.21,0.66c-0.83,0.29-1.67,0.57-2.52,0.73c-0.94,0.17-1.92,0.32-2.81-0.29c-0.46-0.32-0.71-0.71-0.64-1.28
				c0.04-0.3,0.08-0.61,0.14-0.99c-0.17-0.08-0.38-0.2-0.6-0.26c-0.82-0.24-1.13-0.75-0.94-1.59c0.01-0.06,0.04-0.13,0.07-0.19
				c0.09-0.23,0.02-0.4-0.22-0.46c-0.56-0.14-0.85-0.58-1.16-1c-0.09-0.12-0.16-0.26-0.25-0.39c-0.27-0.38-0.38-0.41-0.84-0.32
				c-0.99,0.2-1.97,0.43-2.97,0.54c-0.62,0.07-1.28-0.01-1.9-0.12c-0.7-0.13-1.06-0.68-1.25-1.32c-0.26-0.86-0.49-1.74-0.7-2.61
				c-0.15-0.64,0.09-0.87,0.69-0.64c0.53,0.2,1,0.53,1.5,0.8c0.92,0.5,1.83,1.05,2.79,1.47c0.46,0.2,1.04,0.16,1.56,0.19
				c0.11,0.01,0.28-0.07,0.35-0.16c0.34-0.48,0.76-0.92,0.72-1.59c-0.01-0.19,0.03-0.4,0.11-0.58c0.11-0.26,0.27-0.47,0.61-0.52
				C241.95,157.45,242.83,157.31,243.76,157.8z"/>
			<path class="st1" d="M233.75,152.31c-0.3-0.02-0.48-0.06-0.67-0.05c-0.35,0.01-0.71,0.01-1.05,0.07
				c-1.01,0.17-1.43-0.95-1.16-1.65c0.1-0.26,0.25-0.54,0.46-0.71c0.49-0.4,1-0.78,1.54-1.12c0.9-0.57,1.86-0.55,2.79-0.11
				c0.63,0.29,1.19,0.38,1.89,0.16c0.71-0.23,1.48-0.14,2.17,0.28c0.09,0.43-0.1,0.72-0.39,0.99c-0.62,0.59-1.23,1.18-1.84,1.79
				c-0.38,0.37-0.41,0.47-0.08,0.83c0.51,0.57,1.06,1.11,1.63,1.63c0.34,0.31,0.64,0.3,0.9,0.09c0.26-0.21,0.29-0.58,0.08-0.97
				c-0.15-0.27-0.34-0.52-0.47-0.79c-0.33-0.65-0.12-1.13,0.55-1.43c0.42-0.19,0.82-0.42,1.22-0.65c0.77-0.43,1.51-0.5,2.3-0.02
				c0.94,0.57,1.91,1.07,2.87,1.61c0.15,0.08,0.31,0.18,0.42,0.31c0.16,0.19,0.18,0.4-0.05,0.57c-0.53,0.4-1.11,0.7-1.77,0.85
				c-0.15,0.03-0.35-0.04-0.5-0.11c-0.48-0.21-0.95-0.46-1.43-0.68c-0.15-0.07-0.31-0.1-0.53-0.17c-0.01,0.3-0.03,0.52-0.03,0.74
				c-0.02,0.75-0.29,1.36-0.96,1.77c-0.58,0.35-1.13,0.74-1.73,1.07c-0.5,0.27-1.02,0.51-1.54,0.71c-0.87,0.33-1.73,0.15-2.42-0.4
				c-0.82-0.65-1.56-1.41-2.28-2.17c-0.47-0.5-0.44-1.13-0.21-1.74C233.51,152.79,233.61,152.62,233.75,152.31z M234.92,149.86
				c-0.01-0.03-0.02-0.05-0.03-0.08c-0.27,0.12-0.57,0.19-0.81,0.36c-0.28,0.19-0.28,0.55-0.06,0.81c0.33,0.39,0.63,0.43,1.03,0.12
				c0.17-0.13,0.34-0.28,0.48-0.45c0.3-0.35,0.17-0.68-0.27-0.74C235.14,149.86,235.03,149.86,234.92,149.86z"/>
			<path class="st1" d="M194.57,140.39c0.63-0.04,1.18-0.15,1.7-0.53c0.32-0.23,0.49-0.5,0.5-0.87c0.01-0.22-0.01-0.44-0.07-0.65
				c-0.23-0.87-0.53-1.72-0.71-2.6c-0.15-0.73-0.21-1.48-0.23-2.22c-0.02-0.52,0.27-0.89,0.78-1.11c0.35-0.15,0.66-0.43,0.98-0.65
				c0.13-0.09,0.23-0.21,0.36-0.29c0.63-0.37,0.91-0.3,1.26,0.36c0.2,0.39,0.36,0.8,0.52,1.2c0.15,0.39,0.08,0.74-0.26,1
				c-0.27,0.21-0.36,0.47-0.35,0.81c0.03,1.03-0.01,2.06,0.14,3.1c0.14,0.93,0.15,1.9,0.07,2.84c-0.12,1.4-1.4,2.69-2.83,2.75
				c-0.53,0.02-1.05,0.16-1.58,0.15c-0.77-0.02-1.54-0.08-2.3-0.2c-0.31-0.05-0.58-0.29-0.87-0.45c-0.73-0.41-1.29-0.99-1.61-1.76
				c-0.08-0.2-0.13-0.42-0.13-0.64c-0.01-0.49-0.01-0.97,0.02-1.46c0.02-0.26,0.09-0.52,0.2-0.75c0.4-0.93,0.37-0.91,1.51-0.87
				c0.41,0.02,0.49,0.14,0.4,0.56c-0.1,0.48-0.14,0.94,0.13,1.4c0.15,0.25,0.32,0.43,0.58,0.49
				C193.37,140.15,193.97,140.27,194.57,140.39z"/>
			<path class="st1" d="M224.73,147.86c-0.12-0.53,0.17-0.85,0.45-1.15c1.1-1.16,2.22-2.29,3.33-3.44c0.23-0.24,0.47-0.47,0.64-0.74
				c0.41-0.68,1.07-1,1.78-1.14c0.93-0.18,1.88-0.28,2.79,0.14c0.04,0.02,0.07,0.06,0.15,0.13c-0.02,0.15,0,0.36-0.08,0.53
				c-0.22,0.48-0.47,0.94-0.74,1.39c-0.16,0.28-0.43,0.44-0.77,0.44c-0.44,0-0.8,0.21-1.13,0.49c-1.08,0.95-2.19,1.88-3.24,2.87
				c-0.67,0.63-1.41,0.86-2.3,0.68C225.32,148,225.02,147.93,224.73,147.86z"/>
			<path class="st1" d="M184.97,134.77c-0.07,0.2-0.1,0.43-0.21,0.62c-0.22,0.41-0.15,0.77,0,1.19c0.24,0.68,0.39,1.39,0.56,2.09
				c0.13,0.53,0.25,1.06,0.39,1.59c0.1,0.4,0.02,0.73-0.3,1.01c-0.18,0.15-0.31,0.37-0.47,0.54c-0.52,0.54-1.1,0.48-1.42-0.2
				c-0.27-0.59-0.47-1.22-0.71-1.84c-0.46-1.23-0.95-2.45-1.39-3.69c-0.28-0.81-0.28-1.6,0.42-2.24c0.37-0.34,0.71-0.72,1.11-1.01
				c0.33-0.24,0.63-0.2,0.88,0.1c0.37,0.44,0.69,0.91,1,1.38C184.92,134.44,184.93,134.61,184.97,134.77z"/>
			<path class="st1" d="M251.62,162.57c0.58-0.47,1.22-0.42,1.85-0.13c0.49,0.23,0.59,0.46,0.41,0.96
				c-0.16,0.45-0.44,0.85-0.96,0.89c-0.46,0.03-0.67,0.26-0.8,0.65c-0.02,0.06-0.04,0.13-0.07,0.19c-0.29,0.72-0.69,0.86-1.41,0.5
				c-0.1-0.05-0.2-0.09-0.3-0.13c-0.62-0.29-0.71-0.41-0.54-1.07c0.08-0.32,0-0.5-0.27-0.65c-0.06-0.03-0.1-0.08-0.16-0.12
				c-0.27-0.17-0.63-0.26-0.51-0.72c0.14-0.53,0.51-0.88,0.99-0.92c0.57-0.04,1.08,0.16,1.56,0.45
				C251.49,162.49,251.54,162.52,251.62,162.57z"/>
			<path class="st1" d="M137.27,167.76c-0.72-0.01-1.41-0.73-1.34-1.27c0.02-0.14,0.18-0.33,0.31-0.37c0.6-0.19,0.68-0.58,0.55-1.13
				c-0.11-0.47,0-0.63,0.44-0.82c0.26-0.11,0.54-0.19,0.82-0.23c0.59-0.07,1.16,0.48,1.16,1.08c0,0.36-0.27,0.54-0.54,0.69
				c-0.59,0.33-0.49,0.32-0.32,0.86c0.16,0.53,0.08,0.74-0.44,0.96C137.66,167.63,137.4,167.71,137.27,167.76z"/>
			<path class="st1" d="M239.63,145.46c0.13,0.41,0.24,0.77,0.36,1.17c0.3,0.03,0.6,0.05,0.89,0.1c0.64,0.12,1.02,0.93,0.69,1.49
				c-0.05,0.09-0.15,0.21-0.23,0.22c-0.5,0.04-1,0.09-1.5,0.06c-0.25-0.01-0.41-0.24-0.43-0.52c-0.04-0.56-0.37-0.77-0.91-0.82
				c-0.68-0.07-0.78-0.17-0.86-0.62c-0.18-0.97,0.19-1.37,1.18-1.26C239.11,145.31,239.38,145.4,239.63,145.46z"/>
			<path class="st1" d="M147.13,152.58c-0.85,0.03-1.18-0.31-1.06-1.08c0.06-0.38,0.25-0.56,0.7-0.67c0.7-0.16,0.7-0.16,0.8-0.87
				c0.06-0.46,0.13-0.53,0.61-0.63c0.42-0.08,0.81-0.29,1.28-0.08c0.4,0.17,0.44,0.48,0.44,0.8c0,0.32,0.01,0.68-0.39,0.83
				c-0.2,0.08-0.41,0.15-0.63,0.19c-0.3,0.05-0.46,0.21-0.51,0.51c-0.04,0.25-0.04,0.59-0.2,0.71c-0.24,0.18-0.61,0.2-0.92,0.29
				C147.22,152.58,147.18,152.58,147.13,152.58z"/>
			<path class="st1" d="M154.49,149.37c-0.07,0.19-0.14,0.36-0.19,0.52c-0.2,0.63-0.23,0.66-0.85,0.68
				c-0.26,0.01-0.53-0.01-0.79,0.01c-0.33,0.02-0.51-0.15-0.53-0.45c-0.02-0.3,0-0.61,0.04-0.91c0.03-0.27,0.2-0.43,0.49-0.42
				c0.09,0,0.18-0.01,0.26-0.01c0.49-0.03,0.84-0.25,0.96-0.75c0.07-0.32,0.22-0.6,0.57-0.65c0.48-0.07,1-0.13,1.38,0.24
				c0.15,0.15,0.17,0.48,0.16,0.73c-0.01,0.69-0.06,0.72-0.74,0.83C154.99,149.24,154.74,149.32,154.49,149.37z"/>
			<path class="st1" d="M153.62,163.81c-0.61,0-1.14-0.58-1.1-1.19c0.02-0.29,0.22-0.42,0.44-0.51c0.3-0.12,0.62-0.21,0.94-0.27
				c0.5-0.11,0.71,0.02,0.89,0.52c0.38,1.04,0.15,1.38-0.98,1.46C153.75,163.81,153.68,163.81,153.62,163.81z"/>
		</g>
		<g>
			<path class="st1" d="M145.7,232.26l1.4-0.9l-0.73-1.14l0.06-0.04c0.3-0.2,0.59-0.3,0.82-0.3c0,0,0,0,0,0
				c0.24,0,0.43,0.11,0.57,0.34c0.11,0.18,0.19,0.35,0.23,0.53l0.07,0.32l1.54-0.8l-0.05-0.19c-0.08-0.32-0.23-0.66-0.45-1
				c-0.37-0.58-0.92-0.99-1.52-1.14c-0.71-0.17-1.55,0.02-2.36,0.54l-0.01,0.01l-0.45-0.7l-1.4,0.9l0.45,0.7l-4.2,2.7l1.11,1.73
				l4.2-2.7L145.7,232.26z"/>
			<path class="st1" d="M149.7,234.83l-3.15,2.42c-0.1,0.08-0.22,0.14-0.35,0.18c-0.34,0.09-0.82,0.05-1.12-0.34
				c-0.15-0.2-0.55-0.71,0.58-1.59l2.85-2.2l-1.25-1.63l-3.07,2.36c-0.79,0.61-1.25,1.27-1.36,1.96c-0.09,0.59,0.08,1.19,0.5,1.74
				c0.53,0.69,1.16,0.93,1.66,0.99l-0.42,0.38l1.14,1.48l0.2-0.17c0.4-0.34,0.85-0.72,1.42-1.16l3.62-2.78L149.7,234.83z"/>
			<path class="st1" d="M149.93,242.74c-0.19-0.21-0.32-0.45,0.28-1l1.82-1.67l1,1.09l1.23-1.13l-1-1.09l1.34-1.24l-1.73-1.15
				l-0.99,0.91l-0.6-0.65l-1.23,1.13l0.6,0.65l-1.95,1.79c-0.65,0.6-0.98,1.14-1.02,1.68c-0.04,0.51,0.18,1.06,0.6,1.52
				c0.34,0.37,0.68,0.65,0.95,0.78l0.16,0.08l1.22-1.17l-0.27-0.17C150.2,243,150.06,242.88,149.93,242.74z"/>
			<path class="st1" d="M159.09,244.53l-1.52-1.39l-2.68,2.93c-0.09,0.09-0.19,0.18-0.31,0.24c-0.32,0.15-0.8,0.19-1.17-0.14
				c-0.23-0.21-0.31-0.43-0.27-0.71c0.05-0.28,0.24-0.6,0.57-0.96l2.43-2.66l-1.52-1.39l-2.61,2.86c-0.67,0.74-1.01,1.46-1,2.16
				c0.01,0.6,0.28,1.16,0.79,1.62c0.64,0.58,1.31,0.7,1.8,0.69l-0.35,0.45l1.37,1.25l0.17-0.2c0.34-0.41,0.72-0.86,1.2-1.39
				L159.09,244.53z"/>
			<path class="st1" d="M161.44,248.6c0.13,0.1,0.21,0.19,0.3,0.28l0.2,0.23l1.2-1.57l-0.14-0.15c-0.1-0.11-0.17-0.18-0.3-0.29
				c-0.4-0.31-1.01-0.47-1.66-0.32l0.35-0.51l-1.48-1.13l-0.15,0.22c-0.29,0.43-0.62,0.89-1.16,1.59l-2.69,3.52l1.63,1.25l2.09-2.73
				c0.1-0.13,0.21-0.24,0.3-0.32C160.41,248.27,160.97,248.24,161.44,248.6z"/>
			<path class="st1" d="M165.87,249.24c-0.84-0.54-1.76-0.67-2.65-0.39c-0.79,0.26-1.51,0.83-2.02,1.62
				c-0.54,0.84-0.73,1.72-0.55,2.55c0.18,0.83,0.74,1.57,1.61,2.13c0.88,0.56,1.63,0.79,2.1,0.88l0.21,0.04l0.57-1.5l-0.29-0.06
				c-0.5-0.11-0.96-0.31-1.5-0.65c-0.29-0.19-1.16-0.84-0.77-1.79l3.41,2.19l0.14-0.15c0.08-0.08,0.24-0.27,0.43-0.56
				c0.45-0.69,0.67-1.45,0.64-2.15C167.15,250.51,166.69,249.77,165.87,249.24z M163.46,250.74c0.35-0.32,0.92-0.6,1.49-0.23
				c0.24,0.16,0.39,0.36,0.44,0.6c0.06,0.27-0.02,0.56-0.13,0.8L163.46,250.74z"/>
			<path class="st1" d="M174.71,254.44c-0.31-0.42-0.84-0.84-1.41-1.11c-1.37-0.65-2.71-0.29-3.26,0.87
				c-0.23,0.46-0.43,1.42,0.81,2.64c0.59,0.58,0.57,0.76,0.48,0.96c-0.12,0.26-0.41,0.28-0.85,0.08c-0.44-0.21-0.93-0.67-1.14-0.99
				l-0.18-0.28l-1.1,1.29l0.11,0.16c0.35,0.49,0.94,0.96,1.6,1.27c0.54,0.26,1.06,0.38,1.53,0.38c0.84,0,1.52-0.4,1.89-1.17
				c0.42-0.91,0.19-1.76-0.73-2.69c-0.64-0.63-0.63-0.79-0.55-0.95c0.05-0.1,0.12-0.16,0.23-0.19c0.13-0.03,0.3,0,0.49,0.09
				c0.52,0.25,0.84,0.67,0.93,0.79l0.18,0.26l1.09-1.26L174.71,254.44z"/>
			<path class="st1" d="M180.63,257.28c-0.35-0.79-1.02-1.39-1.93-1.72c-0.93-0.34-1.85-0.32-2.64,0.04
				c-0.81,0.38-1.43,1.1-1.79,2.08c-0.35,0.95-0.33,1.88,0.05,2.68c0.36,0.76,1.04,1.36,1.92,1.68c0.42,0.15,0.85,0.23,1.27,0.23
				c0.42,0,0.84-0.08,1.22-0.23c0.88-0.36,1.54-1.1,1.92-2.14C180.98,258.98,180.98,258.07,180.63,257.28z M178.65,259.22
				c-0.37,1.03-1.12,1.57-1.82,1.32c-0.35-0.13-0.59-0.4-0.69-0.78c-0.11-0.39-0.07-0.88,0.12-1.39c0.29-0.8,0.95-1.61,1.84-1.28
				C179.03,257.43,178.88,258.59,178.65,259.22z"/>
			
				<rect x="178.2" y="258.05" transform="matrix(0.2664 -0.9639 0.9639 0.2664 -115.5129 366.3849)" class="st1" width="9.48" height="2.07"/>
			<path class="st1" d="M188.64,262.48c-0.02,0.13-0.07,0.25-0.14,0.36c-0.2,0.3-0.58,0.58-1.07,0.49c-0.31-0.06-0.5-0.21-0.6-0.46
				c-0.1-0.26-0.11-0.64-0.02-1.12l0.68-3.54l-2.02-0.39l-0.73,3.8c-0.19,0.98-0.1,1.78,0.28,2.36c0.32,0.51,0.85,0.84,1.52,0.97
				c0.85,0.17,1.48-0.08,1.9-0.35l-0.06,0.56l1.83,0.35l0.04-0.26c0.07-0.49,0.16-1.09,0.3-1.81l0.87-4.48l-2.02-0.39L188.64,262.48
				z"/>
			<path class="st1" d="M194.96,257.49l-2.06,0.28l-0.14,1.33l-0.88-0.09l-0.17,1.66l0.88,0.09l-0.27,2.63
				c-0.09,0.88,0.02,1.5,0.35,1.94c0.3,0.41,0.83,0.67,1.46,0.74c0.19,0.02,0.38,0.03,0.55,0.03c0.27,0,0.51-0.02,0.68-0.07
				l0.17-0.05l0.14-1.68l-0.32,0.05c-0.11,0.02-0.3,0.04-0.54,0.01c-0.29-0.03-0.54-0.12-0.45-0.94l0.25-2.46l1.47,0.15l0.17-1.66
				l-1.47-0.15L194.96,257.49z"/>
			
				<rect x="194.41" y="261.82" transform="matrix(0.0457 -0.999 0.999 0.0457 -73.8694 448.3744)" class="st1" width="6.66" height="2.07"/>
			<path class="st1" d="M198.01,256.96c-0.64-0.03-1.14,0.42-1.17,1.05c-0.01,0.3,0.08,0.58,0.27,0.78
				c0.19,0.21,0.47,0.34,0.79,0.35c0.02,0,0.04,0,0.06,0c0.3,0,0.57-0.1,0.77-0.28c0.21-0.19,0.34-0.46,0.35-0.76l0-0.01
				C199.1,257.46,198.65,256.99,198.01,256.96z"/>
			<path class="st1" d="M203.06,259.42c-2.06,0.06-3.39,1.52-3.33,3.62c0.03,1.02,0.39,1.87,1.04,2.47c0.59,0.55,1.4,0.85,2.28,0.85
				c0.04,0,0.08,0,0.12,0c1.7-0.05,3.38-1.2,3.3-3.63C206.41,260.72,205.01,259.35,203.06,259.42z M204.37,262.83
				c0.03,1.1-0.46,1.88-1.2,1.9c-0.9,0.03-1.31-0.88-1.34-1.8c-0.03-0.85,0.28-1.85,1.24-1.88c0.41-0.01,0.71,0.16,0.95,0.52
				C204.23,261.9,204.36,262.35,204.37,262.83z"/>
			<path class="st1" d="M210.63,258.74c-0.79,0.11-1.34,0.51-1.68,0.94l-0.12-0.55l-1.85,0.26l0.06,0.26
				c0.1,0.47,0.19,1.03,0.3,1.79l0.63,4.53l2.05-0.29l-0.53-3.83c-0.03-0.19-0.03-0.33-0.01-0.43c0.07-0.36,0.34-0.8,0.87-0.87
				c0.61-0.08,0.98,0.31,1.1,1.17l0.51,3.69l2.04-0.28l-0.54-3.87C213.15,259.16,211.8,258.58,210.63,258.74z"/>
			<path class="st1" d="M222.23,261.18c-0.21,0.17-0.52,0.37-1.03,0.52c-0.95,0.27-1.76-0.21-2.05-1.23
				c-0.15-0.5-0.11-0.99,0.1-1.38c0.2-0.36,0.54-0.62,1-0.75c0.51-0.14,0.87-0.12,1.09-0.08l0.3,0.04l-0.07-1.7l-0.2-0.03
				c-0.45-0.07-1.09-0.02-1.64,0.14c-1.06,0.3-1.86,0.9-2.32,1.72c-0.43,0.78-0.52,1.74-0.25,2.68c0.45,1.59,1.61,2.49,3.08,2.49
				c0.36,0,0.74-0.05,1.14-0.17c0.79-0.22,1.39-0.58,1.69-0.83l0.15-0.13l-0.74-1.5L222.23,261.18z"/>
			<path class="st1" d="M224.66,255c-1.92,0.75-2.69,2.56-1.93,4.52c0.37,0.95,0.99,1.63,1.81,1.98c0.39,0.17,0.8,0.25,1.23,0.25
				c0.43,0,0.88-0.08,1.31-0.26c0.84-0.33,1.5-0.91,1.87-1.64c0.43-0.85,0.44-1.84,0.03-2.88C228.26,255.11,226.48,254.3,224.66,255
				z M224.51,257.4c0.08-0.42,0.32-0.71,0.71-0.86c0.14-0.05,0.27-0.08,0.39-0.08c0.71,0,1.22,0.78,1.43,1.31
				c0.4,1.02,0.2,1.92-0.49,2.19c-0.35,0.13-0.7,0.09-1.03-0.13c-0.34-0.22-0.63-0.62-0.83-1.12v0
				C224.5,258.25,224.44,257.78,224.51,257.4z"/>
			<path class="st1" d="M234.72,250.09c-0.47,0.26-0.8,0.6-1,1.02c-0.13,0.23-0.22,0.48-0.27,0.76c-0.61-0.33-1.34-0.32-1.99,0.04
				c-0.6,0.33-1,0.82-1.18,1.44l-0.3-0.46l-1.61,0.9l0.15,0.22c0.26,0.4,0.55,0.89,0.93,1.56l2.22,4l1.77-0.98l-1.89-3.4
				c-0.08-0.14-0.12-0.27-0.14-0.41c-0.07-0.37,0.03-0.83,0.42-1.05c0.23-0.13,0.45-0.14,0.67-0.03c0.23,0.11,0.45,0.36,0.64,0.7
				l1.85,3.34l1.77-0.98l-1.91-3.45c-0.06-0.11-0.11-0.25-0.16-0.41c-0.05-0.34,0.03-0.77,0.43-0.99c0.24-0.13,0.47-0.14,0.7-0.02
				c0.25,0.13,0.49,0.41,0.72,0.82l1.77,3.2l1.77-0.98l-1.88-3.39C237.11,249.64,235.69,249.55,234.72,250.09z"/>
			<path class="st1" d="M240.53,246.06c-0.62,0.47-1,1.06-1.11,1.75l-0.39-0.45l-1.49,1.11l0.17,0.2c0.38,0.46,0.79,0.97,1.26,1.6
				l4.12,5.5l1.65-1.23l-1.7-2.27c0,0,0,0,0.01,0c0.5,0,1.03-0.18,1.48-0.53c1.18-0.88,1.78-2.72,0.32-4.68
				C243.67,245.5,241.85,245.08,240.53,246.06z M243.23,250.59c-0.43,0.32-1.02,0.3-1.44-0.05c-0.09-0.07-0.16-0.15-0.25-0.27
				l-0.57-0.76c-0.06-0.07-0.11-0.18-0.16-0.3c-0.23-0.52-0.09-1.13,0.35-1.45c0.76-0.57,1.58-0.02,2.06,0.61
				C243.73,249.06,244.01,250.01,243.23,250.59z"/>
			<path class="st1" d="M250.6,244.04l-1.51-1.63c-1.25-1.35-2.66-1.41-3.98-0.19c-0.65,0.6-1.15,1.36-1.34,2.03l-0.05,0.19
				l1.36,0.8l0.08-0.32c0.12-0.46,0.45-0.98,0.83-1.34c0.29-0.27,0.57-0.39,0.82-0.36c0.15,0.02,0.28,0.1,0.37,0.18
				c-0.98,0.95-1.52,1.9-1.55,2.75c-0.02,0.6,0.19,1.14,0.62,1.62c0.37,0.4,0.93,0.67,1.52,0.67c0.5,0,1.02-0.18,1.5-0.62
				c0.47-0.44,0.77-0.99,0.84-1.56l0.34,0.28l1.41-1.3l-0.23-0.18C251.37,244.83,251,244.48,250.6,244.04z M247.65,246.26
				c-0.14-0.15-0.21-0.32-0.2-0.51c0.02-0.36,0.29-0.79,0.8-1.27l0.41,0.44c0.07,0.07,0.12,0.15,0.15,0.22
				c0.15,0.31,0.13,0.8-0.26,1.16C248.33,246.49,248.01,246.64,247.65,246.26z"/>
			<path class="st1" d="M251.9,236.05c-0.6,0.04-1.17,0.33-1.61,0.82c-0.52,0.6-0.69,1.26-0.66,1.81l-0.45-0.34l-1.23,1.4l0.21,0.16
				c0.38,0.29,0.81,0.65,1.4,1.16l3.44,3.02l1.37-1.55l-2.9-2.56c-0.14-0.13-0.24-0.23-0.29-0.32c-0.18-0.32-0.26-0.83,0.09-1.23
				c0.41-0.46,0.94-0.4,1.59,0.17l2.8,2.47l1.36-1.54l-2.93-2.58C253.36,236.31,252.62,236.01,251.9,236.05z"/>
			<path class="st1" d="M260.77,237.72c-0.09-1.03-0.62-2.13-2-4.18l-2.71-4l-1.29,1.8l2.23,2.85c0.08,0.1,0.17,0.21,0.26,0.32
				c-0.13-0.05-0.26-0.09-0.39-0.13l-3.5-1.08l-1.32,1.83l6.29,1.57c0.14,0.02,0.18,0.05,0.19,0.06c0.01,0.01,0.03,0.03,0.09,0.16
				c0.18,0.35,0.28,0.8,0.27,1.14c0,0.43-0.1,0.75-0.16,0.9l-0.1,0.24l1.72,0.65l0.1-0.19C260.57,239.39,260.87,238.7,260.77,237.72
				z"/>
		</g>
	</g>
	<g>
		<defs>
			<rect id="SVGID_1_" x="21.33" y="21.33" width="357.33" height="357.33"/>
		</defs>
		<clipPath id="SVGID_00000153663006671147312420000013274178930135758735_">
			<use xlink:href="#SVGID_1_"  style="overflow:visible;"/>
		</clipPath>
		<path style="clip-path:url(#SVGID_00000153663006671147312420000013274178930135758735_);fill:#29265B;" d="M200.01,32.36
			c-92.65,0-167.65,75-167.65,167.65s75,167.65,167.65,167.65s167.65-75,167.65-167.65C367.66,107.36,292.11,32.36,200.01,32.36z
			 M200.01,378.69c-98.71,0-178.68-80.52-178.68-178.68S101.3,21.33,200.01,21.33s178.68,79.96,178.68,178.68
			S298.18,378.69,200.01,378.69z"/>
	</g>
</g>
</svg>
