<?xml version="1.0" encoding="utf-8"?>
<!-- Generator: Adobe Illustrator 26.0.1, SVG Export Plug-In . SVG Version: 6.00 Build 0)  -->
<svg version="1.1" id="Layer_1" xmlns="http://www.w3.org/2000/svg" xmlns:xlink="http://www.w3.org/1999/xlink" x="0px" y="0px"
	 viewBox="0 0 400 400" style="enable-background:new 0 0 400 400;" xml:space="preserve">
<style type="text/css">
	.st0{fill:#262451;}
	.st1{fill:#E62C2B;}
</style>
<g>
	<path class="st0" d="M308.44,21.22H91.56c-19.24,0-34.83,15.6-34.83,34.83v214.17c0,19.24,15.6,34.83,34.83,34.83h37.31v-22.02
		H90.78c-7.14,0-12.92-5.79-12.92-12.92V56.17c0-7.14,5.79-12.92,12.92-12.92h218.44c7.14,0,12.92,5.79,12.92,12.92v213.95
		c0,7.14-5.79,12.92-12.92,12.92h-50v22.02h49.22c19.24,0,34.83-15.6,34.83-34.83V56.06C343.27,36.82,327.67,21.22,308.44,21.22z"/>
	<path class="st0" d="M185.8,60.25c0,0-11.39,13.48-7.79,25.77s15.88,29.07,10.49,42.85c0,0-26.67-23.07-45.55-23.37
		c0,0,14.98,8.39,11.09,28.77c-3.9,20.38-6.59,28.88-6.59,28.88s-18.88-11.8-26.37-12.4c-7.49-0.6,15.88,4.2,2.4,54.54
		c-3.94,14.7-1.8-16.18-31.76-19.18c-6.32-0.63,14.98,8.09,12.29,34.16c-2.7,26.07,30.86,56.63,69.52,54.84l-30.56-44.95l14.38-0.3
		c0,0,1.5-26.97,3.9-24.87c2.4,2.1,19.78,30.26,19.78,30.26s-7.19-35.66-1.2-46.45c0,0,19.1,21.28,20.19,19.48
		c1.09-1.8,2.58-35.66,5.28-38.35s13.48,9.29,12.59,24.87s-3.9,32.06-3.9,32.06s17.08-17.98,16.78-11.09
		c-0.3,6.89-2.7,18.58-2.7,18.58s26.07-19.48,22.17-3.6s-17.38,41.2-22.77,44.42c0,0,91.99-5.47,81.8-87.57
		c0,0-21.28,27.87-25.47,23.07c-4.2-4.79,19.18-32.06,3-62.63c0,0-10.79,45.25-36.86,38.06c0,0,17.08-51.54-5.69-68.62
		c0,0-7.19,37.76-19.48,35.66c-12.29-2.1,13.18-14.98-12.59-50.94S190.6,82.43,185.8,60.25z"/>
	<rect x="92.31" y="316.45" class="st1" width="16.18" height="62.33"/>
	<polygon class="st1" points="130.07,316.45 190,316.45 190,330.23 170.22,330.23 170.22,378.78 151.04,378.78 151.04,330.53 
		130.07,330.53 	"/>
	<polygon class="st1" points="210.37,316.45 255.32,316.45 255.32,330.23 226.86,330.23 226.86,342.52 252.03,342.52 252.03,353.01 
		227.45,353.01 227.45,378.78 210.37,378.78 	"/>
	<path class="st1" d="M308.36,316.45h-21.87l-21.57,62.33h18.58l3-11.69h21.87l4.49,11.69h17.38L308.36,316.45z M288.88,357.2
		l8.69-25.17l8.99,25.17H288.88z"/>
</g>
</svg>
