<?xml version="1.0" encoding="utf-8"?>
<!-- Generator: Adobe Illustrator 26.0.1, SVG Export Plug-In . SVG Version: 6.00 Build 0)  -->
<svg version="1.1" id="Layer_1" xmlns="http://www.w3.org/2000/svg" xmlns:xlink="http://www.w3.org/1999/xlink" x="0px" y="0px"
	 viewBox="0 0 350 350" style="enable-background:new 0 0 350 350;" xml:space="preserve">
<style type="text/css">
	.st0{fill:#262350;}
	.st1{fill:#E52A2A;}
</style>
<g>
	<path class="st0" d="M276,8.48H74c-17.92,0-32.44,14.53-32.44,32.45v199.49c0,17.92,14.53,32.45,32.44,32.45h34.75v-20.51H73.27
		c-6.65,0-12.04-5.39-12.04-12.04V41.03c0-6.65,5.39-12.04,12.04-12.04h203.46c6.65,0,12.04,5.39,12.04,12.04v199.28
		c0,6.65-5.39,12.04-12.04,12.04h-46.57v20.51H276c17.92,0,32.45-14.53,32.45-32.45V40.93C308.44,23.01,293.92,8.48,276,8.48z"/>
	<path class="st0" d="M161.78,44.83c0,0-10.61,12.56-7.26,24s14.79,27.07,9.77,39.91c0,0-24.84-21.49-42.42-21.77
		c0,0,13.95,7.81,10.33,26.79s-6.14,26.9-6.14,26.9s-17.58-10.99-24.56-11.55c-6.98-0.56,14.79,3.91,2.23,50.8
		c-3.67,13.69-1.67-15.07-29.58-17.86c-5.89-0.59,13.95,7.54,11.44,31.82c-2.51,24.28,28.75,52.75,64.75,51.08l-28.47-41.86
		l13.4-0.28c0,0,1.4-25.12,3.63-23.17c2.23,1.95,18.42,28.19,18.42,28.19s-6.7-33.21-1.12-43.26c0,0,17.79,19.82,18.8,18.14
		c1.01-1.67,2.41-33.21,4.92-35.72c2.51-2.51,12.56,8.65,11.72,23.17c-0.84,14.51-3.63,29.86-3.63,29.86s15.91-16.75,15.63-10.33
		c-0.28,6.42-2.51,17.3-2.51,17.3s24.28-18.14,20.65-3.35c-3.63,14.79-16.19,38.38-21.21,41.38c0,0,85.68-5.09,76.19-81.57
		c0,0-19.82,25.96-23.72,21.49c-3.91-4.47,17.86-29.86,2.79-58.33c0,0-10.05,42.14-34.33,35.45c0,0,15.91-48.01-5.3-63.91
		c0,0-6.7,35.17-18.14,33.21c-11.44-1.95,12.28-13.95-11.72-47.45S166.24,65.49,161.78,44.83z"/>
	<rect x="74.7" y="283.47" class="st1" width="15.07" height="58.05"/>
	<polygon class="st1" points="109.86,283.47 165.68,283.47 165.68,296.3 147.26,296.3 147.26,341.52 129.4,341.52 129.4,296.58 
		109.86,296.58 	"/>
	<polygon class="st1" points="184.66,283.47 226.53,283.47 226.53,296.3 200.01,296.3 200.01,307.75 223.46,307.75 223.46,317.52 
		200.57,317.52 200.57,341.52 184.66,341.52 	"/>
	<path class="st1" d="M275.93,283.46h-20.37l-20.09,58.05h17.3l2.79-10.88h20.37l4.19,10.88h16.19L275.93,283.46z M257.79,321.42
		l8.09-23.45l8.37,23.45H257.79z"/>
</g>
</svg>
