<?xml version="1.0" encoding="utf-8"?>
<!-- Generator: Adobe Illustrator 26.0.1, SVG Export Plug-In . SVG Version: 6.00 Build 0)  -->
<svg version="1.1" id="Layer_1" xmlns="http://www.w3.org/2000/svg" xmlns:xlink="http://www.w3.org/1999/xlink" x="0px" y="0px"
	 viewBox="0 0 350 350" style="enable-background:new 0 0 350 350;" xml:space="preserve">
<style type="text/css">
	.st0{fill:#1D70B6;}
	.st1{fill:#29265B;}
</style>
<g>
	<g>
		<path class="st0" d="M137.69,149.6v88.45c0.28,0.15,0.52,0.31,0.8,0.46c10.67,5.91,22.89,9.32,35.92,9.41h0.58v-63.96
			L137.69,149.6z M174.4,31.73c-3.22,4.29-19.4,26.08-35.92,52.22c-0.28,0.43-0.52,0.83-0.8,1.26l37.3,35.24V30.96
			C174.99,30.96,174.8,31.24,174.4,31.73z"/>
		<path class="st0" d="M234.01,122.9l-16.95,14.96l-25.74,22.65l-16.33,14.43v-43.86l0.03-0.03l42.08-38.09
			c2.18,3.49,4.29,7.08,6.37,10.67C227.18,110.03,230.76,116.53,234.01,122.9z"/>
		<polygon class="st0" points="175.01,131.04 175.01,174.89 137.7,140.56 137.7,95.8 		"/>
		<path class="st0" d="M246.33,197.37c-1.5,4.26-3.37,8.37-5.61,12.26c-3.52,6.22-7.91,11.86-12.96,16.76l-48.12-46.83l25.65-22.59
			L246.33,197.37z"/>
	</g>
	<path class="st1" d="M240.46,132.67c-1.44-3.13-3.1-6.58-5.07-10.46c-3.04-5.95-6.61-12.43-10.59-19.36
		c-1.88-3.19-4.07-6.95-6.39-10.68c-20.05-32.86-41.97-61.83-42.19-62.14l-1.32-1.69l-1.19,1.79c-0.03,0.03-0.19,0.25-0.53,0.69
		c-3.1,4.13-19.42,26.12-35.99,52.31l-0.81,1.28c-25.53,40.66-38.5,70.22-38.5,87.92c0,27.72,14.97,53.4,39.06,67.06l0.81,0.47
		c11.15,6.17,23.84,9.49,36.65,9.58h0.6c16.19,0,31.73-4.98,44.85-14.41c3.26-2.32,6.26-4.86,8.99-7.52
		c5.2-5.07,9.65-10.81,13.22-17.1c2.26-3.95,4.17-8.14,5.73-12.53c2.88-8.21,4.32-16.79,4.32-25.56
		C252.12,162.7,248.2,149.36,240.46,132.67z M244.88,196.88c-1.47,4.2-3.32,8.24-5.48,12c-3.45,6.05-7.71,11.59-12.72,16.44
		c-2.6,2.57-5.48,4.98-8.61,7.2c-12.62,9.08-27.5,13.84-43.07,13.84h-0.6c-12.28-0.06-24.46-3.26-35.17-9.21l-0.78-0.44
		c-23.15-13.12-37.49-37.81-37.49-64.4c0-16.85,13.16-46.7,38.03-86.29l0.81-1.25c15.6-24.71,30.98-45.64,35.17-51.27
		c4.89,6.55,23.55,31.98,40.81,60.26c2.32,3.7,4.51,7.45,6.36,10.62c3.98,6.86,7.52,13.31,10.49,19.2
		c1.97,3.88,3.63,7.27,5.04,10.37c7.55,16.29,11.37,29.22,11.37,38.37C249.05,180.75,247.67,188.98,244.88,196.88z"/>
	<g>
		<path class="st0" d="M16.73,308.01l11.63,12.95v0.23h-4.3l-11.51-12.95v12.95H8.98v-25.35h3.57v12.09l11.28-12.09h4.07v0.23
			L16.73,308.01z"/>
		<path class="st0" d="M52.54,295.85v25.35h-3.95l-11.05-16.43l-0.5-0.74c-0.05-0.1-0.21-0.35-0.48-0.74
			c-0.27-0.39-0.5-0.76-0.7-1.1c-0.19-0.34-0.37-0.68-0.52-1.02v20.03h-3.41v-25.35h3.76l11.36,16.78c0.1,0.16,0.32,0.48,0.66,0.96
			c0.34,0.48,0.62,0.93,0.85,1.33c0.23,0.4,0.43,0.79,0.58,1.15v-20.23H52.54z"/>
		<path class="st0" d="M62.85,320.3c-1.55-0.91-2.7-2.17-3.45-3.78c-0.75-1.6-1.12-3.42-1.12-5.46v-15.22h3.57v14.44
			c0,5.5,2.35,8.26,7.05,8.26c2.4,0,4.14-0.7,5.21-2.09c1.07-1.4,1.61-3.37,1.61-5.93v-14.67h3.57v15.1c0,2.48-0.47,4.52-1.4,6.12
			c-0.93,1.6-2.19,2.77-3.78,3.5c-1.59,0.73-3.4,1.1-5.45,1.1C66.34,321.67,64.4,321.21,62.85,320.3z"/>
		<path class="st0" d="M88.9,320c-1.76-1.11-3.08-2.65-3.97-4.64c-0.89-1.98-1.34-4.29-1.34-6.92c0-2.92,0.54-5.36,1.63-7.32
			c1.09-1.96,2.53-3.4,4.34-4.34c1.81-0.94,3.81-1.41,6.01-1.41c2.51,0,4.64,0.55,6.4,1.66c1.76,1.11,3.08,2.65,3.97,4.64
			c0.89,1.98,1.34,4.29,1.34,6.92c0,2.92-0.54,5.36-1.63,7.32c-1.08,1.96-2.53,3.4-4.34,4.34c-1.81,0.94-3.81,1.41-6.01,1.41
			C92.79,321.67,90.65,321.11,88.9,320z M99.89,317.34c1.23-0.85,2.14-2.02,2.75-3.5c0.61-1.49,0.91-3.22,0.91-5.2
			c0-2.03-0.29-3.81-0.87-5.34c-0.58-1.53-1.47-2.72-2.65-3.58c-1.19-0.86-2.67-1.29-4.46-1.29c-1.83,0-3.37,0.42-4.59,1.27
			c-1.23,0.85-2.14,2.02-2.75,3.5c-0.61,1.49-0.91,3.22-0.91,5.2c0,2.03,0.29,3.81,0.87,5.34c0.58,1.53,1.47,2.72,2.66,3.58
			c1.19,0.86,2.67,1.29,4.46,1.29C97.13,318.61,98.66,318.19,99.89,317.34z"/>
		<path class="st0" d="M116.07,320c-1.76-1.11-3.08-2.65-3.97-4.64c-0.89-1.98-1.34-4.29-1.34-6.92c0-2.92,0.54-5.36,1.63-7.32
			c1.09-1.96,2.53-3.4,4.34-4.34c1.81-0.94,3.81-1.41,6.01-1.41c2.51,0,4.64,0.55,6.4,1.66c1.76,1.11,3.08,2.65,3.97,4.64
			c0.89,1.98,1.34,4.29,1.34,6.92c0,2.92-0.54,5.36-1.63,7.32c-1.08,1.96-2.53,3.4-4.34,4.34c-1.81,0.94-3.81,1.41-6.01,1.41
			C119.96,321.67,117.82,321.11,116.07,320z M127.06,317.34c1.23-0.85,2.14-2.02,2.75-3.5c0.61-1.49,0.91-3.22,0.91-5.2
			c0-2.03-0.29-3.81-0.87-5.34c-0.58-1.53-1.47-2.72-2.65-3.58c-1.19-0.86-2.67-1.29-4.46-1.29c-1.83,0-3.37,0.42-4.59,1.27
			c-1.23,0.85-2.14,2.02-2.75,3.5c-0.61,1.49-0.91,3.22-0.91,5.2c0,2.03,0.29,3.81,0.87,5.34c0.58,1.53,1.47,2.72,2.66,3.58
			c1.19,0.86,2.67,1.29,4.46,1.29C124.3,318.61,125.83,318.19,127.06,317.34z"/>
		<path class="st0" d="M155.6,295.85v1.76l-13.68,20.46h13.29v3.13h-18.06v-1.76l13.76-20.46h-12.95l0.39-3.13H155.6z"/>
		<path class="st0" d="M181.09,295.85l9.44,25.12v0.23h-3.71l-2.63-7.24h-10.7l-2.6,7.24h-3.57v-0.23l9.44-25.12H181.09z
			 M174.57,310.99h8.53l-4.26-11.74L174.57,310.99z"/>
		<path class="st0" d="M197.93,318.07h12.33v3.13h-15.89v-25.35h3.57V318.07z"/>
		<path class="st0" d="M240.33,310.24c0.85,1.15,1.28,2.44,1.28,3.87c0,1.36-0.34,2.57-1.03,3.64s-1.71,1.91-3.08,2.52
			c-1.37,0.61-3.04,0.92-5,0.92h-9.07v-25.35h8.76c1.76,0,3.27,0.28,4.54,0.84c1.27,0.56,2.23,1.33,2.91,2.31
			c0.67,0.98,1.01,2.11,1.01,3.38c0,1.23-0.34,2.32-1.03,3.29c-0.68,0.96-1.76,1.7-3.24,2.19
			C238.16,308.3,239.48,309.1,240.33,310.24z M227,298.82v7.98h4.69c1.58,0,2.85-0.33,3.84-1c0.98-0.66,1.47-1.73,1.47-3.19
			c0-0.73-0.18-1.38-0.54-1.96c-0.36-0.57-0.9-1.02-1.61-1.35c-0.71-0.32-1.57-0.49-2.58-0.49H227z M236.61,317.05
			c0.83-0.78,1.24-1.79,1.24-3.01c0-1.33-0.44-2.39-1.32-3.17c-0.88-0.78-2.18-1.17-3.91-1.17H227v8.53h5.58
			C234.44,318.22,235.78,317.83,236.61,317.05z"/>
		<path class="st0" d="M257.21,295.85l9.44,25.12v0.23h-3.71l-2.63-7.24h-10.7l-2.6,7.24h-3.57v-0.23l9.44-25.12H257.21z
			 M250.69,310.99h8.53l-4.26-11.74L250.69,310.99z"/>
		<path class="st0" d="M287.93,295.85h3.57v25.35h-3.57v-11.38h-13.88v11.38h-3.57v-25.35h3.57v10.92h13.88V295.85z"/>
		<path class="st0" d="M309.11,295.85l9.44,25.12v0.23h-3.71l-2.63-7.24h-10.7l-2.6,7.24h-3.57v-0.23l9.44-25.12H309.11z
			 M302.59,310.99h8.53l-4.26-11.74L302.59,310.99z"/>
		<path class="st0" d="M341.02,320.96v0.23h-4.11l-7.25-9.9h-3.72v9.9h-3.57v-25.35h8.18c1.96,0,3.62,0.31,4.98,0.94
			c1.36,0.63,2.38,1.5,3.06,2.62c0.68,1.12,1.03,2.43,1.03,3.91c0,1.2-0.23,2.31-0.68,3.33c-0.45,1.02-1.13,1.9-2.03,2.64
			c-0.9,0.74-2.03,1.28-3.37,1.62L341.02,320.96z M325.95,308.33h4.07c1.94,0,3.4-0.42,4.4-1.27c0.99-0.85,1.49-2.04,1.49-3.58
			c0-1.49-0.46-2.62-1.38-3.4c-0.92-0.78-2.27-1.17-4.05-1.17h-4.53V308.33z"/>
	</g>
	<g>
		<path class="st0" d="M37.84,273.02c0,2.71-0.72,4.75-2.17,6.13c-1.45,1.38-3.59,2.07-6.43,2.07H17.81c-2.82,0-4.88-0.53-6.19-1.6
			c-1.31-1.07-2.08-2.14-2.31-3.21c-0.24-1.08-0.36-2.21-0.36-3.39v-2.43l4.31-1.66v4.09c0,1.92,0.38,3.35,1.14,4.27
			c0.76,0.92,1.96,1.39,3.6,1.39h10.74c1.64,0,2.84-0.46,3.61-1.39c0.77-0.92,1.16-2.35,1.16-4.27v-8.09h4.31V273.02z M18.53,261.35
			c-0.48-0.49-0.71-1.06-0.71-1.73s0.24-1.23,0.71-1.7c0.48-0.47,1.05-0.7,1.71-0.7c0.67,0,1.24,0.23,1.71,0.7
			c0.48,0.47,0.71,1.03,0.71,1.7s-0.24,1.24-0.71,1.73c-0.48,0.49-1.05,0.73-1.71,0.73C19.58,262.07,19,261.83,18.53,261.35z
			 M24.13,261.35c-0.48-0.49-0.71-1.06-0.71-1.73s0.24-1.23,0.71-1.7c0.48-0.47,1.05-0.7,1.71-0.7c0.67,0,1.24,0.23,1.71,0.7
			c0.48,0.47,0.71,1.03,0.71,1.7s-0.24,1.24-0.71,1.73c-0.48,0.49-1.05,0.73-1.71,0.73C25.18,262.07,24.6,261.83,24.13,261.35z"/>
		<path class="st0" d="M46.24,278.67c1.64,0,2.84-0.46,3.61-1.39c0.77-0.92,1.16-2.35,1.16-4.27V259.5h4.43v13.51
			c0,0.78-0.23,1.8-0.7,3.07c-0.47,1.27-1.38,2.44-2.74,3.51c-1.36,1.08-3.25,1.61-5.67,1.61H40.7v-2.54H46.24z M40.7,259.5h4.31
			v17.83H40.7V259.5z"/>
		<path class="st0" d="M76.1,280.53c0,2.82-0.75,4.89-2.24,6.21c-1.5,1.32-3.81,1.99-6.96,1.99v-2.14c1.54,0,2.7-0.44,3.47-1.33
			s1.19-2.23,1.27-4.04H58.87v-8.43c0-1.68,0.4-3.11,1.21-4.29c0.81-1.18,1.87-2.07,3.17-2.67c1.3-0.6,2.7-0.9,4.19-0.9
			s2.89,0.3,4.21,0.9c1.32,0.6,2.4,1.49,3.21,2.66c0.82,1.17,1.23,2.59,1.23,4.24V280.53z M63.3,278.67h8.37v-5.89
			c0-1.12-0.2-2.09-0.59-2.89c-0.39-0.8-0.9-1.4-1.54-1.8c-0.64-0.4-1.32-0.6-2.04-0.6s-1.41,0.2-2.06,0.6
			c-0.65,0.4-1.17,1-1.56,1.8c-0.39,0.8-0.59,1.76-0.59,2.89V278.67z"/>
		<path class="st0" d="M86.73,278.67v2.54h-7.77V259.5h4.31v19.17H86.73z"/>
		<path class="st0" d="M111.16,278.67v2.54h-3.83h-1.2h-5.14h-3.03H86.3c-0.36,0-0.65-0.13-0.87-0.4c-0.22-0.27-0.33-0.57-0.33-0.91
			c0-0.34,0.11-0.63,0.31-0.87c0.21-0.24,0.5-0.36,0.89-0.36h8.09l-4.86-3.46v-2.43c0-1.89,0.42-3.5,1.27-4.86
			c0.85-1.35,1.95-2.37,3.31-3.04c1.36-0.68,2.81-1.01,4.36-1.01c1.52,0,2.96,0.34,4.31,1.01c1.35,0.68,2.45,1.69,3.29,3.03
			c0.84,1.34,1.26,2.97,1.26,4.87v5.89H111.16z M93.59,261.06c-0.48-0.49-0.71-1.06-0.71-1.73c0-0.67,0.24-1.23,0.71-1.7
			c0.48-0.47,1.05-0.7,1.71-0.7c0.67,0,1.24,0.23,1.71,0.7c0.48,0.47,0.71,1.03,0.71,1.7c0,0.66-0.24,1.24-0.71,1.73
			c-0.48,0.49-1.05,0.73-1.71,0.73C94.63,261.79,94.06,261.55,93.59,261.06z M102.9,272.79c0-1.35-0.21-2.51-0.63-3.47
			c-0.42-0.96-0.97-1.69-1.66-2.17c-0.69-0.49-1.41-0.73-2.17-0.73c-0.78,0-1.51,0.24-2.2,0.73c-0.69,0.49-1.24,1.21-1.66,2.17
			c-0.42,0.96-0.63,2.12-0.63,3.47v1.63l5.71,4.26h3.23V272.79z M99.19,261.06c-0.48-0.49-0.71-1.06-0.71-1.73
			c0-0.67,0.24-1.23,0.71-1.7c0.48-0.47,1.05-0.7,1.71-0.7c0.67,0,1.24,0.23,1.71,0.7c0.48,0.47,0.71,1.03,0.71,1.7
			c0,0.66-0.24,1.24-0.71,1.73c-0.48,0.49-1.05,0.73-1.71,0.73C100.23,261.79,99.66,261.55,99.19,261.06z"/>
		<path class="st0" d="M137.76,278.67v2.54h-2.94h-2.17h-6.51l-4.86-3.6c-0.69,1.07-1.76,1.93-3.21,2.59
			c-1.46,0.66-3.15,1-5.07,1.01h-2.06c-0.25,0-0.44-0.12-0.59-0.36c-0.14-0.24-0.21-0.53-0.21-0.87c0-0.34,0.07-0.65,0.21-0.91
			c0.14-0.27,0.34-0.4,0.59-0.4h1.89c1.64,0,2.84-0.5,3.61-1.49c0.77-0.99,1.16-2.51,1.16-4.57c0.02-1.64,0.44-3.03,1.27-4.19
			c0.83-1.15,1.9-2.02,3.21-2.61c1.31-0.59,2.7-0.89,4.17-0.89c1.49,0,2.88,0.3,4.19,0.9c1.3,0.6,2.36,1.49,3.17,2.67
			c0.81,1.18,1.21,2.61,1.21,4.29v5.89H137.76z M130.39,272.79c0-1.12-0.2-2.09-0.59-2.89c-0.39-0.8-0.91-1.4-1.54-1.8
			c-0.64-0.4-1.32-0.6-2.04-0.6c-0.72,0-1.41,0.2-2.06,0.6c-0.65,0.4-1.17,1-1.56,1.8c-0.39,0.8-0.59,1.76-0.59,2.89v2.17l4.97,3.71
			h3.4V272.79z"/>
		<path class="st0" d="M136.59,280.82c-0.17-0.27-0.26-0.57-0.26-0.91c0-0.34,0.09-0.63,0.26-0.87c0.17-0.24,0.41-0.36,0.71-0.36
			h1.37l4.66-4.66V259.5h4.31v13.51c0,1.92,0.39,3.35,1.16,4.27c0.77,0.92,1.98,1.39,3.61,1.39h0.74v2.54h-1.23
			c-2,0-3.69-0.34-5.06-1.03c-1.37-0.69-2.35-1.68-2.94-2.97l-3.94,4h-2.69C137,281.22,136.76,281.08,136.59,280.82z"/>
		<path class="st0" d="M153.62,278.67c1.64,0,2.84-0.46,3.61-1.39c0.77-0.92,1.16-2.35,1.16-4.27V259.5h4.31v13.51
			c0,2.71-0.72,4.75-2.17,6.13s-3.59,2.07-6.43,2.07h-1.14c-0.25,0-0.43-0.12-0.56-0.37c-0.12-0.25-0.19-0.55-0.19-0.91
			c0-0.34,0.06-0.64,0.19-0.89c0.12-0.25,0.31-0.37,0.56-0.37H153.62z"/>
		<path class="st0" d="M175.6,285.1c0.77-0.99,1.16-2.52,1.16-4.57v-15.6h4.31v15.6c0,2.82-0.73,4.89-2.2,6.21
			c-1.47,1.32-3.76,1.99-6.89,1.99v-2.14C173.62,286.59,174.83,286.09,175.6,285.1z"/>
		<path class="st0" d="M191.7,278.67v2.54h-7.77V259.5h4.31v19.17H191.7z"/>
		<path class="st0" d="M213.21,278.67v2.54h-1.74h-2.37h-17.77c-0.27,0-0.49-0.14-0.66-0.41c-0.17-0.28-0.26-0.59-0.26-0.93
			c0-0.32,0.08-0.6,0.23-0.84c0.15-0.24,0.38-0.36,0.69-0.36h13.31c-0.53-0.7-0.87-1.4-1-2.07c-0.13-0.68-0.2-1.54-0.2-2.59v-1.8
			c0-1.37-0.38-2.45-1.14-3.24c-0.76-0.79-1.72-1.19-2.89-1.19c-0.69,0-1.4,0.16-2.14,0.47c-0.74,0.31-1.47,0.78-2.17,1.39
			l-1.51-2.54c2.02-1.47,4.17-2.2,6.46-2.2c0.63,0,1.2,0.05,1.71,0.16c0.51,0.11,0.9,0.21,1.17,0.33c2.11,0.86,3.47,1.95,4.06,3.29
			c0.59,1.33,0.89,2.48,0.89,3.46v1.89c0,0.08-0.01,0.53-0.03,1.37c-0.02,0.84,0.28,1.6,0.89,2.27c0.61,0.68,1.52,1.01,2.74,1.01
			H213.21z"/>
		<path class="st0" d="M219.24,278.67c0.38,0,0.68,0.12,0.89,0.37c0.21,0.25,0.31,0.54,0.31,0.89c0,0.36-0.1,0.67-0.31,0.91
			c-0.21,0.25-0.5,0.37-0.89,0.37h-6.14c-0.29,0-0.51-0.13-0.67-0.39c-0.16-0.26-0.24-0.56-0.24-0.9c0-0.34,0.08-0.64,0.24-0.89
			c0.16-0.25,0.39-0.37,0.67-0.37H219.24z"/>
		<path class="st0" d="M218.31,280.85c-0.16-0.25-0.24-0.54-0.24-0.89c0-0.34,0.08-0.64,0.24-0.9c0.16-0.26,0.39-0.39,0.67-0.39
			h1.26l4.66-4.66v-9.09h4.31v8.09c0,1.92,0.39,3.35,1.16,4.27c0.77,0.92,1.98,1.39,3.61,1.39h0.54v2.54h-1.03
			c-2,0-3.69-0.34-5.06-1.03c-1.37-0.69-2.35-1.68-2.94-2.97l-3.94,4h-2.57C218.7,281.22,218.48,281.09,218.31,280.85z
			 M224.61,287.06c-0.48-0.49-0.71-1.06-0.71-1.73s0.24-1.23,0.71-1.7c0.48-0.47,1.05-0.7,1.71-0.7s1.24,0.23,1.71,0.7
			c0.48,0.47,0.71,1.03,0.71,1.7s-0.24,1.24-0.71,1.73c-0.48,0.49-1.05,0.73-1.71,0.73S225.09,287.55,224.61,287.06z"/>
		<path class="st0" d="M234.99,278.67c1.64,0,2.84-0.46,3.61-1.39c0.77-0.92,1.16-2.35,1.16-4.27V259.5h4.31v13.51
			c0,2.71-0.72,4.75-2.17,6.13c-1.45,1.38-3.59,2.07-6.43,2.07h-1.14c-0.25,0-0.43-0.12-0.56-0.37c-0.12-0.25-0.19-0.55-0.19-0.91
			c0-0.34,0.06-0.64,0.19-0.89c0.12-0.25,0.31-0.37,0.56-0.37H234.99z"/>
		<path class="st0" d="M246.93,259.5h4.31v21.71h-4.31V259.5z"/>
		<path class="st0" d="M264.14,285.1c0.77-0.99,1.16-2.52,1.16-4.57v-15.6h4.31v15.6c0,2.82-0.73,4.89-2.2,6.21
			c-1.47,1.32-3.76,1.99-6.89,1.99v-2.14C262.17,286.59,263.37,286.09,264.14,285.1z M265.73,261.35c-0.48-0.49-0.71-1.06-0.71-1.73
			s0.24-1.23,0.71-1.7c0.48-0.47,1.05-0.7,1.71-0.7c0.67,0,1.24,0.23,1.71,0.7c0.48,0.47,0.71,1.03,0.71,1.7s-0.24,1.24-0.71,1.73
			c-0.48,0.49-1.05,0.73-1.71,0.73C266.78,262.07,266.2,261.83,265.73,261.35z"/>
		<path class="st0" d="M281.07,286.59c1.41,0,2.53-0.44,3.36-1.33c0.83-0.89,1.24-2.23,1.24-4.04h-12.63v-8.43
			c0-1.68,0.4-3.11,1.21-4.29c0.81-1.18,1.87-2.07,3.17-2.67c1.3-0.6,2.7-0.9,4.19-0.9c1.49,0,2.89,0.3,4.21,0.9
			c1.32,0.6,2.4,1.5,3.21,2.69c0.82,1.19,1.23,2.61,1.23,4.27v5.89h2.51v2.54h-2.69c0,2.44-0.81,4.3-2.43,5.59s-3.82,1.93-6.6,1.93
			V286.59z M285.84,278.67v-5.89c0-1.12-0.2-2.09-0.59-2.89c-0.39-0.8-0.9-1.4-1.54-1.8c-0.64-0.4-1.32-0.6-2.04-0.6
			c-0.72,0-1.41,0.2-2.06,0.6c-0.65,0.4-1.17,1-1.56,1.8c-0.39,0.8-0.59,1.76-0.59,2.89v5.89H285.84z"/>
		<path class="st0" d="M298.81,278.67c0.38,0,0.68,0.12,0.89,0.37c0.21,0.25,0.31,0.54,0.31,0.89c0,0.36-0.1,0.67-0.31,0.91
			c-0.21,0.25-0.5,0.37-0.89,0.37h-6.14c-0.29,0-0.51-0.13-0.67-0.39c-0.16-0.26-0.24-0.56-0.24-0.9c0-0.34,0.08-0.64,0.24-0.89
			c0.16-0.25,0.39-0.37,0.67-0.37H298.81z"/>
		<path class="st0" d="M297.63,280.8c-0.2-0.28-0.3-0.59-0.3-0.93c0-0.32,0.1-0.6,0.29-0.84c0.19-0.24,0.46-0.36,0.8-0.36h0.86
			l4.66-4.66v-9.09h4.32v8.09c0,1.92,0.39,3.35,1.16,4.27c0.77,0.92,1.98,1.39,3.61,1.39h0.6v2.54h-1.09c-2,0-3.69-0.34-5.06-1.03
			c-1.37-0.69-2.35-1.68-2.94-2.97l-3.94,4h-2.17C298.09,281.22,297.83,281.08,297.63,280.8z M304.33,261.06
			c-0.48-0.49-0.71-1.06-0.71-1.73c0-0.67,0.24-1.23,0.71-1.7c0.48-0.47,1.05-0.7,1.71-0.7c0.67,0,1.24,0.23,1.71,0.7
			c0.48,0.47,0.71,1.03,0.71,1.7c0,0.66-0.24,1.24-0.71,1.73c-0.48,0.49-1.05,0.73-1.71,0.73
			C305.37,261.79,304.8,261.55,304.33,261.06z"/>
		<path class="st0" d="M312.21,280.83c-0.21-0.26-0.31-0.56-0.31-0.9c0-0.34,0.11-0.64,0.31-0.89c0.21-0.25,0.5-0.37,0.86-0.37
			h23.54v-4.2c0-1.37-0.38-2.45-1.14-3.23c-0.76-0.78-1.74-1.17-2.94-1.17h-16.4l10.8-11.71h4.43l-7.71,8.83l9.6-0.03
			c2.02,0,3.6,0.43,4.76,1.29c1.15,0.86,1.95,1.84,2.39,2.96c0.44,1.11,0.66,2.11,0.66,2.99v6.83h-27.97
			C312.71,281.22,312.42,281.09,312.21,280.83z"/>
	</g>
</g>
</svg>
