<?xml version="1.0" encoding="utf-8"?>
<!-- Generator: Adobe Illustrator 26.0.1, SVG Export Plug-In . SVG Version: 6.00 Build 0)  -->
<svg version="1.1" id="Layer_1" xmlns="http://www.w3.org/2000/svg" xmlns:xlink="http://www.w3.org/1999/xlink" x="0px" y="0px"
	 viewBox="0 0 400 400" style="enable-background:new 0 0 400 400;" xml:space="preserve">
<style type="text/css">
	.st0{fill:#1F71B8;}
	.st1{fill:#29265B;}
</style>
<g>
	<g>
		<path class="st0" d="M159.85,172.66v95.17c0.3,0.16,0.56,0.33,0.86,0.49c11.48,6.36,24.63,10.02,38.65,10.12h0.63v-68.82
			L159.85,172.66z M199.36,45.83c-3.46,4.62-20.87,28.06-38.65,56.19c-0.3,0.46-0.56,0.89-0.86,1.35l40.13,37.92V45.01
			C199.99,45.01,199.79,45.31,199.36,45.83z"/>
		<path class="st0" d="M263.5,143.94l-18.24,16.09l-27.7,24.37l-17.58,15.53v-47.19l0.03-0.03l45.28-40.99
			c2.34,3.76,4.62,7.62,6.86,11.48C256.15,130.09,260,137.08,263.5,143.94z"/>
		<polygon class="st0" points="200.01,152.7 200.01,199.88 159.87,162.94 159.87,114.78 		"/>
		<path class="st0" d="M276.76,224.08c-1.62,4.58-3.63,9-6.03,13.19c-3.79,6.69-8.51,12.76-13.95,18.04L205,204.92l27.6-24.3
			L276.76,224.08z"/>
	</g>
	<path class="st1" d="M270.44,154.45c-1.55-3.37-3.34-7.08-5.46-11.26c-3.27-6.4-7.11-13.38-11.39-20.83
		c-2.02-3.44-4.38-7.48-6.88-11.49c-21.57-35.36-45.16-66.53-45.4-66.87l-1.42-1.82l-1.28,1.92c-0.03,0.03-0.2,0.27-0.57,0.74
		c-3.34,4.45-20.9,28.11-38.73,56.29l-0.88,1.38c-27.47,43.75-41.42,75.56-41.42,94.61c0,29.83,16.11,57.46,42.03,72.16l0.88,0.51
		c12,6.64,25.65,10.21,39.43,10.31H200c17.42,0,34.14-5.36,48.26-15.5c3.51-2.49,6.74-5.22,9.67-8.09
		c5.59-5.46,10.38-11.63,14.22-18.4c2.43-4.25,4.48-8.76,6.17-13.48c3.1-8.83,4.65-18.07,4.65-27.5
		C282.98,186.77,278.77,172.41,270.44,154.45z M275.19,223.54c-1.58,4.52-3.57,8.86-5.9,12.91c-3.71,6.5-8.29,12.47-13.68,17.69
		c-2.8,2.76-5.9,5.36-9.27,7.75c-13.58,9.77-29.59,14.9-46.34,14.9h-0.64c-13.21-0.07-26.32-3.51-37.85-9.91l-0.84-0.47
		c-24.91-14.12-40.34-40.68-40.34-69.29c0-18.13,14.16-50.25,40.92-92.85l0.88-1.35c16.78-26.59,33.33-49.11,37.85-55.17
		c5.26,7.04,25.35,34.41,43.92,64.85c2.49,3.98,4.85,8.02,6.84,11.43c4.28,7.38,8.09,14.32,11.29,20.66
		c2.12,4.18,3.91,7.82,5.43,11.16c8.12,17.53,12.23,31.45,12.23,41.29C279.68,206.18,278.19,215.05,275.19,223.54z"/>
	<g>
		<path class="st0" d="M29.69,343.13l12.51,13.93v0.25h-4.63l-12.39-13.93v13.93h-3.84v-27.28h3.84v13.01l12.14-13.01h4.38v0.25
			L29.69,343.13z"/>
		<path class="st0" d="M68.23,330.03v27.28h-4.25l-11.89-17.68l-0.54-0.8c-0.06-0.11-0.23-0.38-0.52-0.8
			c-0.29-0.42-0.54-0.81-0.75-1.18c-0.21-0.36-0.4-0.73-0.56-1.09v21.55h-3.67v-27.28h4.05l12.22,18.06
			c0.11,0.17,0.35,0.51,0.71,1.03c0.36,0.52,0.67,1,0.92,1.43s0.46,0.85,0.63,1.24v-21.77H68.23z"/>
		<path class="st0" d="M79.32,356.35c-1.67-0.98-2.91-2.34-3.71-4.06c-0.81-1.73-1.21-3.68-1.21-5.87v-16.38h3.84v15.53
			c0,5.92,2.53,8.88,7.59,8.88c2.59,0,4.46-0.75,5.61-2.25c1.15-1.5,1.73-3.63,1.73-6.38v-15.79h3.84v16.25
			c0,2.67-0.5,4.86-1.5,6.59c-1,1.73-2.36,2.98-4.07,3.77c-1.71,0.78-3.66,1.18-5.86,1.18C83.08,357.82,80.99,357.33,79.32,356.35z"
			/>
		<path class="st0" d="M107.35,356.03c-1.89-1.19-3.32-2.86-4.28-4.99c-0.96-2.13-1.44-4.62-1.44-7.45c0-3.14,0.58-5.77,1.75-7.87
			c1.17-2.11,2.72-3.66,4.67-4.67c1.95-1.01,4.1-1.52,6.46-1.52c2.7,0,4.99,0.6,6.88,1.79s3.32,2.86,4.28,4.99
			c0.96,2.13,1.44,4.62,1.44,7.45c0,3.14-0.58,5.77-1.75,7.87c-1.17,2.11-2.73,3.66-4.67,4.67c-1.95,1.01-4.1,1.52-6.46,1.52
			C111.54,357.82,109.24,357.22,107.35,356.03z M119.18,353.17c1.32-0.91,2.31-2.17,2.96-3.77c0.65-1.6,0.98-3.46,0.98-5.6
			c0-2.19-0.31-4.1-0.94-5.75c-0.63-1.64-1.58-2.93-2.86-3.85c-1.28-0.93-2.88-1.39-4.8-1.39c-1.97,0-3.62,0.46-4.94,1.37
			c-1.32,0.91-2.31,2.17-2.96,3.77c-0.65,1.6-0.98,3.47-0.98,5.6c0,2.19,0.31,4.1,0.94,5.75c0.63,1.64,1.58,2.93,2.86,3.85
			c1.28,0.93,2.88,1.39,4.8,1.39C116.21,354.53,117.85,354.08,119.18,353.17z"/>
		<path class="st0" d="M136.59,356.03c-1.89-1.19-3.32-2.86-4.28-4.99c-0.96-2.13-1.44-4.62-1.44-7.45c0-3.14,0.58-5.77,1.75-7.87
			c1.17-2.11,2.72-3.66,4.67-4.67c1.95-1.01,4.1-1.52,6.46-1.52c2.7,0,4.99,0.6,6.88,1.79s3.32,2.86,4.28,4.99
			c0.96,2.13,1.44,4.62,1.44,7.45c0,3.14-0.58,5.77-1.75,7.87c-1.17,2.11-2.73,3.66-4.67,4.67c-1.95,1.01-4.1,1.52-6.46,1.52
			C140.77,357.82,138.48,357.22,136.59,356.03z M148.41,353.17c1.32-0.91,2.31-2.17,2.96-3.77c0.65-1.6,0.98-3.46,0.98-5.6
			c0-2.19-0.31-4.1-0.94-5.75c-0.63-1.64-1.58-2.93-2.86-3.85c-1.28-0.93-2.88-1.39-4.8-1.39c-1.97,0-3.62,0.46-4.94,1.37
			c-1.32,0.91-2.31,2.17-2.96,3.77c-0.65,1.6-0.98,3.47-0.98,5.6c0,2.19,0.31,4.1,0.94,5.75c0.63,1.64,1.58,2.93,2.86,3.85
			c1.28,0.93,2.88,1.39,4.8,1.39C145.44,354.53,147.09,354.08,148.41,353.17z"/>
		<path class="st0" d="M179.13,330.03v1.89l-14.72,22.02h14.31v3.37h-19.43v-1.89l14.81-22.02h-13.93l0.42-3.37H179.13z"/>
		<path class="st0" d="M206.55,330.03l10.16,27.03v0.25h-4l-2.83-7.79h-11.51l-2.8,7.79h-3.84v-0.25l10.16-27.03H206.55z
			 M199.53,346.32h9.18l-4.58-12.63L199.53,346.32z"/>
		<path class="st0" d="M224.67,353.95h13.26v3.37h-17.1v-27.28h3.84V353.95z"/>
		<path class="st0" d="M270.3,345.53c0.92,1.23,1.38,2.62,1.38,4.17c0,1.46-0.37,2.77-1.11,3.92c-0.74,1.15-1.84,2.06-3.32,2.71
			c-1.47,0.66-3.27,0.99-5.38,0.99h-9.76v-27.28h9.43c1.89,0,3.52,0.3,4.88,0.9c1.36,0.6,2.4,1.43,3.13,2.48
			c0.72,1.05,1.08,2.27,1.08,3.64c0,1.32-0.37,2.5-1.11,3.54c-0.74,1.04-1.9,1.82-3.48,2.36
			C267.96,343.43,269.38,344.29,270.3,345.53z M255.95,333.23v8.59h5.05c1.7,0,3.07-0.36,4.13-1.07c1.06-0.72,1.58-1.86,1.58-3.43
			c0-0.78-0.19-1.49-0.58-2.1c-0.39-0.62-0.97-1.1-1.73-1.45c-0.77-0.35-1.69-0.53-2.77-0.53H255.95z M266.29,352.85
			c0.89-0.84,1.33-1.92,1.33-3.24c0-1.43-0.47-2.57-1.42-3.41c-0.95-0.84-2.35-1.26-4.21-1.26h-6.05v9.18h6.01
			C263.96,354.11,265.4,353.69,266.29,352.85z"/>
		<path class="st0" d="M288.46,330.03l10.16,27.03v0.25h-4l-2.83-7.79h-11.51l-2.8,7.79h-3.84v-0.25l10.16-27.03H288.46z
			 M281.44,346.32h9.18l-4.58-12.63L281.44,346.32z"/>
		<path class="st0" d="M321.51,330.03h3.84v27.28h-3.84v-12.25h-14.93v12.25h-3.84v-27.28h3.84v11.75h14.93V330.03z"/>
		<path class="st0" d="M344.3,330.03l10.16,27.03v0.25h-4l-2.83-7.79h-11.51l-2.8,7.79h-3.84v-0.25l10.16-27.03H344.3z
			 M337.29,346.32h9.18l-4.58-12.63L337.29,346.32z"/>
		<path class="st0" d="M378.65,357.06v0.25h-4.42l-7.8-10.65h-4v10.65h-3.84v-27.28h8.8c2.11,0,3.9,0.34,5.36,1.01
			c1.46,0.67,2.56,1.61,3.3,2.82c0.74,1.21,1.11,2.61,1.11,4.21c0,1.29-0.24,2.48-0.73,3.58c-0.49,1.09-1.22,2.04-2.19,2.84
			c-0.97,0.8-2.18,1.38-3.63,1.75L378.65,357.06z M362.42,343.46h4.38c2.08,0,3.66-0.46,4.73-1.37c1.07-0.91,1.61-2.2,1.61-3.85
			c0-1.6-0.49-2.82-1.48-3.66c-0.99-0.84-2.44-1.26-4.36-1.26h-4.88V343.46z"/>
	</g>
	<g>
		<path class="st0" d="M52.42,305.47c0,2.91-0.78,5.11-2.34,6.6c-1.56,1.49-3.86,2.23-6.92,2.23h-12.3c-3.03,0-5.25-0.57-6.66-1.72
			c-1.4-1.15-2.23-2.3-2.49-3.46c-0.26-1.16-0.38-2.37-0.38-3.64v-2.61l4.64-1.78v4.4c0,2.07,0.41,3.6,1.23,4.6
			c0.82,0.99,2.11,1.49,3.87,1.49h11.56c1.76,0,3.06-0.5,3.89-1.49c0.83-0.99,1.24-2.53,1.24-4.6v-8.7h4.64V305.47z M31.63,292.91
			c-0.51-0.52-0.77-1.14-0.77-1.86s0.26-1.33,0.77-1.83c0.51-0.5,1.13-0.75,1.84-0.75c0.72,0,1.33,0.25,1.84,0.75
			c0.51,0.5,0.77,1.11,0.77,1.83s-0.26,1.34-0.77,1.86c-0.51,0.52-1.13,0.78-1.84,0.78C32.76,293.69,32.14,293.43,31.63,292.91z
			 M37.66,292.91c-0.51-0.52-0.77-1.14-0.77-1.86s0.26-1.33,0.77-1.83c0.51-0.5,1.13-0.75,1.84-0.75c0.72,0,1.33,0.25,1.84,0.75
			c0.51,0.5,0.77,1.11,0.77,1.83s-0.26,1.34-0.77,1.86c-0.51,0.52-1.13,0.78-1.84,0.78C38.78,293.69,38.17,293.43,37.66,292.91z"/>
		<path class="st0" d="M61.45,311.56c1.76,0,3.06-0.5,3.89-1.49c0.83-0.99,1.24-2.53,1.24-4.6v-14.54h4.77v14.54
			c0,0.84-0.25,1.94-0.75,3.31c-0.5,1.36-1.49,2.62-2.95,3.78c-1.47,1.16-3.5,1.74-6.1,1.74h-6.06v-2.74H61.45z M55.49,290.93h4.64
			v19.18h-4.64V290.93z"/>
		<path class="st0" d="M93.58,313.56c0,3.03-0.8,5.26-2.41,6.69c-1.61,1.42-4.1,2.14-7.49,2.14v-2.31c1.66,0,2.91-0.48,3.74-1.43
			s1.29-2.4,1.37-4.35H75.04v-9.07c0-1.8,0.44-3.34,1.31-4.61c0.87-1.27,2.01-2.23,3.41-2.87c1.4-0.64,2.91-0.97,4.5-0.97
			s3.11,0.32,4.53,0.97c1.42,0.65,2.58,1.6,3.46,2.86c0.88,1.26,1.32,2.78,1.32,4.57V313.56z M79.81,311.56h9.01v-6.33
			c0-1.21-0.21-2.24-0.63-3.11c-0.42-0.86-0.97-1.51-1.66-1.94c-0.69-0.43-1.42-0.65-2.2-0.65s-1.52,0.22-2.21,0.65
			c-0.7,0.43-1.26,1.08-1.68,1.94c-0.42,0.86-0.63,1.9-0.63,3.11V311.56z"/>
		<path class="st0" d="M105.02,311.56v2.74h-8.36v-23.36h4.64v20.63H105.02z"/>
		<path class="st0" d="M131.3,311.56v2.74h-4.12h-1.29h-5.53h-3.26h-12.54c-0.39,0-0.7-0.14-0.94-0.43
			c-0.24-0.29-0.35-0.61-0.35-0.98c0-0.37,0.11-0.68,0.34-0.94c0.23-0.25,0.54-0.38,0.95-0.38h8.7l-5.23-3.72v-2.61
			c0-2.03,0.46-3.77,1.37-5.23c0.91-1.45,2.1-2.55,3.57-3.27c1.47-0.73,3.03-1.09,4.69-1.09c1.64,0,3.19,0.36,4.64,1.09
			c1.46,0.73,2.63,1.81,3.54,3.26c0.9,1.45,1.35,3.19,1.35,5.24v6.33H131.3z M112.4,292.6c-0.51-0.52-0.77-1.14-0.77-1.86
			c0-0.72,0.26-1.33,0.77-1.83c0.51-0.5,1.13-0.75,1.84-0.75c0.72,0,1.33,0.25,1.84,0.75c0.51,0.5,0.77,1.11,0.77,1.83
			c0,0.72-0.26,1.34-0.77,1.86c-0.51,0.52-1.13,0.78-1.84,0.78C113.52,293.39,112.91,293.13,112.4,292.6z M122.42,305.22
			c0-1.46-0.23-2.7-0.68-3.74c-0.45-1.03-1.04-1.81-1.78-2.34c-0.74-0.52-1.52-0.78-2.34-0.78c-0.84,0-1.63,0.26-2.37,0.78
			c-0.74,0.52-1.33,1.3-1.78,2.34c-0.45,1.04-0.68,2.28-0.68,3.74v1.75l6.15,4.58h3.47V305.22z M118.42,292.6
			c-0.51-0.52-0.77-1.14-0.77-1.86c0-0.72,0.26-1.33,0.77-1.83c0.51-0.5,1.13-0.75,1.84-0.75c0.72,0,1.33,0.25,1.84,0.75
			c0.51,0.5,0.77,1.11,0.77,1.83c0,0.72-0.26,1.34-0.77,1.86c-0.51,0.52-1.13,0.78-1.84,0.78
			C119.55,293.39,118.93,293.13,118.42,292.6z"/>
		<path class="st0" d="M159.93,311.56v2.74h-3.17h-2.34h-7.01l-5.23-3.87c-0.74,1.15-1.89,2.07-3.46,2.78s-3.39,1.07-5.46,1.09
			h-2.21c-0.27,0-0.48-0.13-0.63-0.38c-0.15-0.26-0.23-0.57-0.23-0.94c0-0.37,0.08-0.7,0.23-0.98c0.15-0.29,0.36-0.43,0.63-0.43
			h2.03c1.76,0,3.06-0.53,3.89-1.6c0.83-1.06,1.25-2.7,1.25-4.92c0.02-1.76,0.48-3.26,1.37-4.5c0.89-1.24,2.05-2.18,3.46-2.81
			c1.41-0.64,2.91-0.95,4.49-0.95c1.6,0,3.1,0.32,4.5,0.97c1.4,0.65,2.54,1.6,3.41,2.87c0.87,1.27,1.31,2.81,1.31,4.61v6.33H159.93z
			 M151.99,305.22c0-1.21-0.21-2.24-0.63-3.11c-0.42-0.86-0.97-1.51-1.66-1.94c-0.69-0.43-1.42-0.65-2.2-0.65
			c-0.78,0-1.52,0.22-2.21,0.65c-0.7,0.43-1.26,1.08-1.68,1.94c-0.42,0.86-0.63,1.9-0.63,3.11v2.34l5.35,4h3.66V305.22z"/>
		<path class="st0" d="M158.67,313.86c-0.18-0.29-0.28-0.61-0.28-0.98c0-0.37,0.09-0.68,0.28-0.94c0.18-0.25,0.44-0.38,0.77-0.38
			h1.48l5.01-5.01v-15.62h4.64v14.54c0,2.07,0.42,3.6,1.24,4.6c0.83,0.99,2.13,1.49,3.89,1.49h0.8v2.74h-1.32
			c-2.15,0-3.97-0.37-5.44-1.11s-2.53-1.8-3.17-3.2l-4.24,4.3h-2.89C159.11,314.29,158.85,314.15,158.67,313.86z"/>
		<path class="st0" d="M176.99,311.56c1.76,0,3.06-0.5,3.89-1.49c0.83-0.99,1.24-2.53,1.24-4.6v-14.54h4.64v14.54
			c0,2.91-0.78,5.11-2.34,6.6c-1.56,1.49-3.86,2.23-6.92,2.23h-1.23c-0.27,0-0.47-0.13-0.6-0.4c-0.13-0.27-0.2-0.59-0.2-0.98
			c0-0.37,0.07-0.69,0.2-0.95c0.13-0.27,0.33-0.4,0.6-0.4H176.99z"/>
		<path class="st0" d="M200.65,318.47c0.83-1.07,1.24-2.71,1.24-4.92v-16.79h4.64v16.79c0,3.03-0.79,5.26-2.37,6.69
			c-1.58,1.42-4.05,2.14-7.41,2.14v-2.31C198.52,320.07,199.82,319.54,200.65,318.47z"/>
		<path class="st0" d="M217.97,311.56v2.74h-8.36v-23.36h4.64v20.63H217.97z"/>
		<path class="st0" d="M241.12,311.56v2.74h-1.88h-2.55h-19.12c-0.29,0-0.52-0.15-0.71-0.45c-0.18-0.3-0.28-0.63-0.28-1
			c0-0.35,0.08-0.65,0.25-0.91c0.16-0.25,0.41-0.38,0.74-0.38h14.33c-0.57-0.76-0.93-1.5-1.07-2.23c-0.14-0.73-0.22-1.66-0.22-2.78
			v-1.94c0-1.48-0.41-2.64-1.23-3.49c-0.82-0.85-1.85-1.28-3.11-1.28c-0.74,0-1.51,0.17-2.31,0.51c-0.8,0.34-1.58,0.84-2.34,1.49
			L220,299.1c2.17-1.58,4.49-2.37,6.95-2.37c0.68,0,1.29,0.06,1.84,0.17c0.55,0.11,0.97,0.23,1.26,0.35
			c2.27,0.92,3.73,2.1,4.37,3.54c0.63,1.43,0.95,2.67,0.95,3.72v2.03c0,0.08-0.01,0.57-0.03,1.48c-0.02,0.9,0.3,1.72,0.95,2.44
			c0.66,0.73,1.64,1.09,2.95,1.09H241.12z"/>
		<path class="st0" d="M247.61,311.56c0.41,0,0.73,0.13,0.95,0.4c0.23,0.27,0.34,0.59,0.34,0.95c0,0.39-0.11,0.72-0.34,0.98
			c-0.23,0.27-0.54,0.4-0.95,0.4H241c-0.31,0-0.55-0.14-0.72-0.42c-0.17-0.28-0.26-0.6-0.26-0.97c0-0.37,0.09-0.69,0.26-0.95
			c0.17-0.27,0.42-0.4,0.72-0.4H247.61z"/>
		<path class="st0" d="M246.61,313.89c-0.17-0.27-0.26-0.59-0.26-0.95c0-0.37,0.09-0.69,0.26-0.97c0.17-0.28,0.42-0.42,0.72-0.42
			h1.35l5.01-5.01v-9.78h4.64v8.7c0,2.07,0.42,3.6,1.25,4.6c0.83,0.99,2.13,1.49,3.89,1.49h0.58v2.74h-1.11
			c-2.15,0-3.97-0.37-5.44-1.11s-2.53-1.8-3.17-3.2l-4.24,4.3h-2.77C247.02,314.29,246.78,314.16,246.61,313.89z M253.39,320.58
			c-0.51-0.52-0.77-1.14-0.77-1.86s0.26-1.33,0.77-1.83c0.51-0.5,1.13-0.75,1.84-0.75c0.72,0,1.33,0.25,1.84,0.75
			c0.51,0.5,0.77,1.11,0.77,1.83s-0.26,1.34-0.77,1.86c-0.51,0.52-1.13,0.78-1.84,0.78C254.51,321.36,253.9,321.1,253.39,320.58z"/>
		<path class="st0" d="M264.55,311.56c1.76,0,3.06-0.5,3.89-1.49c0.83-0.99,1.24-2.53,1.24-4.6v-14.54h4.64v14.54
			c0,2.91-0.78,5.11-2.34,6.6c-1.56,1.49-3.86,2.23-6.92,2.23h-1.23c-0.27,0-0.47-0.13-0.6-0.4c-0.13-0.27-0.2-0.59-0.2-0.98
			c0-0.37,0.07-0.69,0.2-0.95c0.13-0.27,0.33-0.4,0.6-0.4H264.55z"/>
		<path class="st0" d="M277.4,290.93h4.64v23.36h-4.64V290.93z"/>
		<path class="st0" d="M295.92,318.47c0.83-1.07,1.24-2.71,1.24-4.92v-16.79h4.64v16.79c0,3.03-0.79,5.26-2.37,6.69
			c-1.58,1.42-4.05,2.14-7.41,2.14v-2.31C293.79,320.07,295.09,319.54,295.92,318.47z M297.63,292.91
			c-0.51-0.52-0.77-1.14-0.77-1.86s0.26-1.33,0.77-1.83c0.51-0.5,1.13-0.75,1.84-0.75c0.72,0,1.33,0.25,1.84,0.75
			c0.51,0.5,0.77,1.11,0.77,1.83s-0.26,1.34-0.77,1.86c-0.51,0.52-1.13,0.78-1.84,0.78C298.75,293.69,298.14,293.43,297.63,292.91z"
			/>
		<path class="st0" d="M314.14,320.07c1.52,0,2.72-0.48,3.61-1.43c0.89-0.95,1.34-2.4,1.34-4.35H305.5v-9.07
			c0-1.8,0.44-3.34,1.31-4.61c0.87-1.27,2.01-2.23,3.41-2.87c1.4-0.64,2.91-0.97,4.5-0.97c1.6,0,3.11,0.32,4.53,0.97
			c1.42,0.65,2.58,1.61,3.46,2.89c0.88,1.28,1.32,2.81,1.32,4.6v6.33h2.71v2.74h-2.89c0,2.62-0.87,4.63-2.61,6.01
			c-1.74,1.38-4.11,2.08-7.1,2.08V320.07z M319.27,311.56v-6.33c0-1.21-0.21-2.24-0.63-3.11c-0.42-0.86-0.97-1.51-1.66-1.94
			c-0.69-0.43-1.42-0.65-2.2-0.65s-1.52,0.22-2.21,0.65c-0.7,0.43-1.26,1.08-1.68,1.94c-0.42,0.86-0.63,1.9-0.63,3.11v6.33H319.27z"
			/>
		<path class="st0" d="M333.23,311.56c0.41,0,0.73,0.13,0.95,0.4c0.23,0.27,0.34,0.59,0.34,0.95c0,0.39-0.11,0.72-0.34,0.98
			c-0.23,0.27-0.54,0.4-0.95,0.4h-6.61c-0.31,0-0.55-0.14-0.72-0.42c-0.17-0.28-0.26-0.6-0.26-0.97c0-0.37,0.09-0.69,0.26-0.95
			c0.17-0.27,0.42-0.4,0.72-0.4H333.23z"/>
		<path class="st0" d="M331.95,313.85c-0.22-0.3-0.32-0.63-0.32-1c0-0.35,0.1-0.65,0.31-0.91c0.21-0.25,0.49-0.38,0.86-0.38h0.92
			l5.01-5.01v-9.78h4.64v8.7c0,2.07,0.41,3.6,1.24,4.6c0.83,0.99,2.13,1.49,3.89,1.49h0.65v2.74h-1.17c-2.15,0-3.97-0.37-5.44-1.11
			s-2.53-1.8-3.17-3.2l-4.24,4.3h-2.34C332.45,314.29,332.17,314.14,331.95,313.85z M339.16,292.6c-0.51-0.52-0.77-1.14-0.77-1.86
			c0-0.72,0.26-1.33,0.77-1.83c0.51-0.5,1.13-0.75,1.84-0.75c0.72,0,1.33,0.25,1.84,0.75c0.51,0.5,0.77,1.11,0.77,1.83
			c0,0.72-0.26,1.34-0.77,1.86c-0.51,0.52-1.13,0.78-1.84,0.78C340.29,293.39,339.67,293.13,339.16,292.6z"/>
		<path class="st0" d="M347.65,313.88c-0.22-0.28-0.34-0.6-0.34-0.97c0-0.37,0.11-0.69,0.34-0.95c0.23-0.27,0.53-0.4,0.92-0.4h25.33
			v-4.52c0-1.48-0.41-2.63-1.23-3.47c-0.82-0.84-1.88-1.26-3.17-1.26h-17.65l11.62-12.6h4.76l-8.3,9.5l10.33-0.03
			c2.17,0,3.88,0.46,5.12,1.38c1.24,0.92,2.1,1.98,2.57,3.18c0.47,1.2,0.71,2.27,0.71,3.21v7.35h-30.1
			C348.18,314.29,347.87,314.15,347.65,313.88z"/>
	</g>
</g>
</svg>
