<?xml version="1.0" encoding="utf-8"?>
<!-- Generator: Adobe Illustrator 26.0.1, SVG Export Plug-In . SVG Version: 6.00 Build 0)  -->
<svg version="1.1" id="Layer_1" xmlns="http://www.w3.org/2000/svg" xmlns:xlink="http://www.w3.org/1999/xlink" x="0px" y="0px"
	 viewBox="0 0 400 400" style="enable-background:new 0 0 400 400;" xml:space="preserve">
<style type="text/css">
	.st0{fill:#EDEDED;}
	.st1{fill:#312783;}
	.st2{fill:#1D71B8;}
</style>
<g>
	<rect x="21.33" y="139.94" class="st0" width="125.38" height="120.12"/>
	<g>
		<polygon class="st1" points="134.34,248.2 100.85,248.2 132.46,197.56 90.18,256.29 142.78,256.29 142.78,182.69 134.34,194.5 		
			"/>
		<polygon class="st1" points="33.71,248.2 33.71,151.8 134.34,151.8 134.34,184.07 142.78,176.96 142.78,143.71 25.27,143.71 
			25.27,256.29 48.62,256.29 58.22,248.2 		"/>
		<polygon class="st2" points="131.14,186.76 131.14,154.86 104.95,154.86 83.72,214.47 61.62,154.86 36.39,154.86 36.39,244.75 
			52.13,244.75 52.13,171.36 74.12,230.21 79.57,230.21 99.86,213.13 114.86,172.64 114.86,200.47 		"/>
		<polygon class="st2" points="114.87,244.75 131.14,244.75 131.14,203.99 114.87,230.06 		"/>
		<polygon class="st1" points="87.91,256.31 143.09,179.09 51.45,256.31 		"/>
	</g>
	<path class="st1" d="M268.03,183.26c-0.79,0.79-1.19,1.75-1.19,2.87c0,1.09,0.4,2.01,1.19,2.77c0.79,0.76,1.75,1.14,2.87,1.14
		c1.09,0,2.01-0.38,2.77-1.14c0.76-0.75,1.13-1.68,1.13-2.77c0-1.13-0.38-2.08-1.13-2.87c-0.76-0.79-1.68-1.19-2.77-1.19
		C269.78,182.07,268.82,182.46,268.03,183.26z"/>
	<path class="st1" d="M285.51,186.13c0,1.09,0.4,2.01,1.19,2.77c0.79,0.76,1.75,1.14,2.87,1.14c1.09,0,2.01-0.38,2.77-1.14
		c0.76-0.75,1.13-1.68,1.13-2.77c0-1.13-0.38-2.08-1.13-2.87c-0.76-0.79-1.68-1.19-2.77-1.19c-1.13,0-2.08,0.4-2.87,1.19
		C285.91,184.05,285.51,185,285.51,186.13z"/>
	<path class="st1" d="M297.14,183.26c-0.79,0.79-1.19,1.75-1.19,2.87c0,1.09,0.4,2.01,1.19,2.77c0.79,0.76,1.75,1.14,2.87,1.14
		c1.09,0,2.01-0.38,2.77-1.14c0.76-0.75,1.13-1.68,1.13-2.77c0-1.13-0.38-2.08-1.13-2.87c-0.76-0.79-1.68-1.19-2.77-1.19
		C298.89,182.07,297.93,182.46,297.14,183.26z"/>
	<path class="st1" d="M378.28,208.28c-0.53-2.11-1.02-3.91-1.48-5.41c-0.46-1.49-0.91-2.73-1.37-3.72c-1.55-3.3-3.48-4.96-5.8-4.96
		c-0.91,0-1.91,0.39-2.98,1.16c-1.07,0.77-2.18,1.85-3.32,3.24c-1.14,1.39-2.29,3.08-3.45,5.06c-1.16,1.99-2.27,4.19-3.32,6.62
		h-2.32h-1.58h-5.91v-17.35l-6.7,1.9v15.45h-6.54v-17.35l-6.7,1.9v15.45h-6.7v-17.35l-6.7,1.9v15.45h-6.86h-1.58h-6.91v-17.35
		l-6.7,1.9v15.45h-8.33h-1.58h-6.91v-17.35l-6.7,1.9v15.45h-8.6h-1.32h-16.72h-1.06h-16.98h-1.06h-16.98h-1.05h-16.72h-1.32h-4.17
		c-0.25-2.04-0.64-3.87-1.19-5.51c-0.55-1.63-1.19-3.09-1.92-4.35c-0.74-1.27-1.53-2.36-2.37-3.3c-0.84-0.93-1.69-1.73-2.53-2.4
		c-1.97-1.55-4.13-2.64-6.49-3.27l-1.48,5.8c2.07,0.92,3.73,1.98,4.96,3.19c1.23,1.21,2.16,2.43,2.8,3.67
		c0.63,1.23,1.05,2.4,1.27,3.51c0.21,1.11,0.32,1.99,0.32,2.66h-11.92c-0.63,0-1.21-0.03-1.74-0.11c-0.53-0.07-0.98-0.16-1.37-0.26
		c-0.46-0.14-0.88-0.28-1.27-0.42l-0.47,5.75c0.39,0.14,0.81,0.28,1.27,0.42c0.39,0.11,0.84,0.19,1.37,0.26
		c0.53,0.07,1.11,0.11,1.74,0.11h23.2h1.32h16.72h1.05h16.98h1.06h16.98h1.06h16.72h1.32h22.2h1.58h21.94h1.58h46.09h1.58h1.85
		c1.37,0,2.35-0.11,2.95-0.32c0.77-0.32,1.46-1,2.06-2.06c2.57,1.3,4.76,2.39,6.57,3.27c1.81,0.88,3.24,1.53,4.3,1.95
		c0.53,0.24,1.02,0.37,1.48,0.37c1.27,0,2.6-1.44,4.01-4.32c0.74-1.41,1.14-2.57,1.21-3.48
		C378.72,210.78,378.6,209.72,378.28,208.28z M368.15,210.52c-1.58-0.79-3.11-1.75-4.59-2.87c0.39-0.74,0.87-1.57,1.45-2.5
		c0.58-0.93,1.13-1.66,1.66-2.19c0.88-0.81,1.49-1.21,1.85-1.21c1.02,0,1.87,0.98,2.56,2.93c0.69,1.95,1.24,4.51,1.66,7.67
		C371.26,211.92,369.74,211.31,368.15,210.52z"/>
	<path class="st2" d="M198.28,249.4c0,0.66-0.11,1.24-0.33,1.74c-0.22,0.5-0.53,0.91-0.94,1.24c-0.41,0.33-0.89,0.58-1.45,0.74
		c-0.56,0.16-1.18,0.24-1.85,0.24c-0.71,0-1.33-0.11-1.84-0.32c-0.52-0.21-0.94-0.49-1.27-0.84c-0.33-0.35-0.57-0.74-0.72-1.18
		c-0.15-0.44-0.23-0.89-0.23-1.35c0-0.88,0.16-1.79,0.48-2.74c0.32-0.95,0.7-1.79,1.14-2.51h-1.96c-0.19,0.32-0.41,0.67-0.69,1.03
		c-0.27,0.36-0.53,0.79-0.78,1.28c-0.24,0.49-0.46,1.08-0.63,1.77c-0.18,0.69-0.27,1.5-0.27,2.45c0,0.63,0.15,1.26,0.44,1.89
		c0.3,0.64,0.74,1.21,1.32,1.73c0.58,0.52,1.3,0.93,2.16,1.26c0.85,0.32,1.84,0.48,2.96,0.48c1.22,0,2.31-0.16,3.26-0.47
		c0.96-0.31,1.76-0.8,2.41-1.47c0.65-0.67,1.15-1.52,1.49-2.56c0.34-1.04,0.51-2.3,0.51-3.77v-14.75l-3.23,0.91V249.4z"/>
	<path class="st2" d="M231.93,246.47c-0.18-0.53-0.27-1.26-0.27-2.17c0-0.42,0.07-0.77,0.2-1.04c0.14-0.27,0.33-0.48,0.57-0.63
		c0.25-0.15,0.53-0.25,0.85-0.3c0.32-0.05,0.67-0.08,1.04-0.08c0.46,0,0.93,0.02,1.41,0.06c0.48,0.04,0.95,0.1,1.4,0.17
		c0.45,0.07,0.86,0.14,1.24,0.23c0.38,0.09,0.7,0.16,0.95,0.23v-2.84c-0.81-0.15-1.67-0.29-2.56-0.41c-0.9-0.12-1.7-0.16-2.41-0.13
		c-1.95,0.05-3.48,0.48-4.58,1.28c-1.11,0.8-1.66,1.89-1.66,3.26c0,0.71,0.05,1.38,0.16,2.02c0.11,0.64,0.33,1.17,0.67,1.61h-3.38
		h-0.69h-1.93c-0.03-0.27-0.09-0.59-0.15-0.97c-0.25-1.01-0.49-1.88-0.71-2.6c-0.22-0.72-0.44-1.32-0.66-1.79
		c-0.74-1.59-1.68-2.39-2.79-2.39c-0.44,0-0.92,0.19-1.43,0.56c-0.52,0.37-1.05,0.89-1.6,1.56c-0.55,0.67-1.1,1.48-1.66,2.44
		c-0.56,0.96-1.09,2.02-1.6,3.19h-1.12h-0.76h-2.08v-14.45l-3.23,0.91v16.3h5.31h0.76h0.89c0.66,0,1.13-0.05,1.42-0.15
		c0.37-0.15,0.7-0.48,0.99-0.99c1.24,0.63,2.29,1.15,3.16,1.57c0.87,0.42,1.56,0.74,2.07,0.94c0.25,0.12,0.49,0.18,0.71,0.18
		c0.53,0,1.08-0.52,1.65-1.55h2.77h0.69h13.86v-2.77h-6.8C232.34,247.42,232.11,247,231.93,246.47z M217.93,247.84
		c-0.76-0.38-1.5-0.84-2.21-1.38c0.19-0.35,0.42-0.76,0.7-1.21c0.28-0.45,0.55-0.8,0.8-1.05c0.42-0.39,0.72-0.58,0.89-0.58
		c0.49,0,0.9,0.47,1.23,1.41c0.33,0.94,0.6,2.17,0.8,3.69C219.43,248.51,218.69,248.22,217.93,247.84z"/>
	<path class="st2" d="M243.7,233.2l6.09-1.8v-1.65l-1.91,0.56c-0.15-0.02-0.33-0.06-0.53-0.14c-0.2-0.08-0.4-0.18-0.58-0.3
		c-0.19-0.13-0.34-0.28-0.47-0.47c-0.13-0.19-0.19-0.39-0.19-0.61c0-0.24,0.09-0.47,0.28-0.71c0.19-0.24,0.5-0.35,0.94-0.35
		c0.46,0,0.84,0.16,1.14,0.48c0.34-0.29,0.63-0.53,0.88-0.74c0.24-0.2,0.45-0.37,0.62-0.51c-0.34-0.44-0.69-0.72-1.04-0.85
		c-0.35-0.13-0.73-0.19-1.12-0.19c-0.37,0-0.77,0.08-1.19,0.23c-0.42,0.15-0.82,0.38-1.18,0.67c-0.36,0.3-0.66,0.65-0.9,1.07
		c-0.24,0.41-0.36,0.88-0.36,1.41c0,0.15,0.03,0.33,0.09,0.53c0.06,0.2,0.14,0.39,0.24,0.57c0.1,0.18,0.23,0.33,0.37,0.46
		c0.14,0.13,0.31,0.21,0.49,0.24l-1.68,0.51V233.2z"/>
	<path class="st2" d="M252.34,238.3v-5.13l-3.12,1.01v4.04c0,0.86-0.06,1.36-0.18,1.5c-0.51-0.66-1.07-1.28-1.69-1.87
		c-0.62-0.58-1.24-1.13-1.85-1.65c-0.62-0.52-1.22-1-1.8-1.45c-0.58-0.45-1.09-0.87-1.51-1.26l-1.47,2.84
		c0.44,0.36,0.94,0.74,1.51,1.14c0.57,0.41,1.15,0.85,1.74,1.32c0.59,0.47,1.18,0.99,1.75,1.55c0.58,0.56,1.1,1.17,1.57,1.83
		c-0.29,0.29-0.64,0.63-1.05,1.03c-0.42,0.4-0.88,0.81-1.38,1.24c-0.51,0.43-1.05,0.87-1.64,1.32c-0.58,0.45-1.19,0.88-1.82,1.28
		v3.43h11.53v-2.61c0-1.69-0.7-3.62-2.11-5.79C251.83,240.92,252.34,239.66,252.34,238.3z M244.31,247.73
		c0.49-0.31,0.94-0.59,1.33-0.85c0.4-0.26,0.77-0.53,1.12-0.81c0.35-0.28,0.68-0.57,1-0.86c0.32-0.3,0.66-0.62,1.01-0.98
		c0.2,0.29,0.39,0.6,0.56,0.93c0.17,0.33,0.32,0.65,0.46,0.96c0.13,0.31,0.25,0.61,0.34,0.89c0.09,0.28,0.16,0.52,0.22,0.72H244.31z
		"/>
	<polygon class="st2" points="255.51,250.49 258.74,250.49 258.74,233.28 255.51,234.19 	"/>
	<path class="st2" d="M277.82,237.43c0.36-0.36,0.55-0.81,0.55-1.33c0-0.54-0.18-1-0.55-1.38c-0.36-0.38-0.81-0.57-1.33-0.57
		c-0.54,0-1,0.19-1.38,0.57c-0.38,0.38-0.57,0.84-0.57,1.38c0,0.52,0.19,0.97,0.57,1.33c0.38,0.36,0.84,0.54,1.38,0.54
		C277.01,237.97,277.45,237.79,277.82,237.43z"/>
	<path class="st2" d="M284.66,247.73h-10.87c-0.71,0-1.27-0.11-1.66-0.33c-0.4-0.22-0.68-0.52-0.84-0.89
		c-0.16-0.37-0.22-0.8-0.18-1.28c0.04-0.48,0.15-0.99,0.33-1.52c0.18-0.53,0.4-1.07,0.67-1.61c0.27-0.54,0.56-1.06,0.86-1.55h-2.46
		c-0.19,0.32-0.42,0.67-0.69,1.03c-0.27,0.36-0.53,0.79-0.78,1.28c-0.25,0.49-0.46,1.08-0.63,1.77c-0.18,0.69-0.27,1.5-0.27,2.45
		c0,0.63,0.13,1.16,0.38,1.6c0.25,0.44,0.61,0.8,1.07,1.07c0.46,0.27,0.99,0.47,1.6,0.58c0.61,0.12,1.27,0.18,1.98,0.18h14.52v-11.1
		l-3.05,0.96V247.73z"/>
	<path class="st2" d="M282.85,237.43c0.36-0.36,0.55-0.81,0.55-1.33c0-0.54-0.18-1-0.55-1.38c-0.36-0.38-0.81-0.57-1.33-0.57
		c-0.54,0-1,0.19-1.38,0.57c-0.38,0.38-0.57,0.84-0.57,1.38c0,0.52,0.19,0.97,0.57,1.33c0.38,0.36,0.84,0.54,1.38,0.54
		C282.04,237.97,282.48,237.79,282.85,237.43z"/>
	<path class="st2" d="M307.79,244.16c-0.22-0.72-0.44-1.32-0.66-1.79c-0.75-1.59-1.68-2.39-2.79-2.39c-0.44,0-0.92,0.19-1.43,0.56
		c-0.52,0.37-1.05,0.89-1.6,1.56c-0.55,0.67-1.1,1.48-1.66,2.44c-0.56,0.96-1.09,2.02-1.6,3.19h-1.12h-0.76h-2.08v-14.45l-3.23,0.91
		v16.3h5.31h0.76h0.89c0.66,0,1.13-0.05,1.42-0.15c0.37-0.15,0.7-0.48,0.99-0.99c1.24,0.63,2.29,1.15,3.16,1.57
		c0.87,0.42,1.56,0.74,2.07,0.94c0.25,0.12,0.49,0.18,0.71,0.18c0.61,0,1.25-0.69,1.93-2.08c0.36-0.68,0.55-1.24,0.58-1.68
		c0.03-0.32-0.03-0.83-0.18-1.52C308.25,245.74,308.01,244.88,307.79,244.16z M303.63,247.84c-0.76-0.38-1.5-0.84-2.21-1.38
		c0.19-0.35,0.42-0.76,0.7-1.21c0.28-0.45,0.55-0.8,0.8-1.05c0.42-0.39,0.72-0.58,0.89-0.58c0.49,0,0.9,0.47,1.23,1.41
		c0.33,0.94,0.6,2.17,0.8,3.69C305.13,248.51,304.39,248.22,303.63,247.84z"/>
	<path class="st2" d="M332.27,237.97c0.52,0,0.97-0.18,1.33-0.54c0.36-0.36,0.55-0.81,0.55-1.33c0-0.54-0.18-1-0.55-1.38
		c-0.36-0.38-0.81-0.57-1.33-0.57c-0.54,0-1,0.19-1.38,0.57c-0.38,0.38-0.57,0.84-0.57,1.38c0,0.52,0.19,0.97,0.57,1.33
		C331.27,237.79,331.73,237.97,332.27,237.97z"/>
	<path class="st2" d="M344.18,247.73h-2.61h-0.76h-0.25c-0.37,0-0.72-0.09-1.04-0.28c-0.32-0.19-0.6-0.48-0.84-0.89
		c-0.71-1.24-1.34-2.32-1.89-3.24c-0.55-0.92-1.06-1.68-1.54-2.27c-0.47-0.59-0.95-1.04-1.42-1.33c-0.47-0.3-0.99-0.44-1.55-0.44
		c-0.51,0-1,0.08-1.49,0.24c-0.48,0.16-0.94,0.38-1.38,0.65c-0.44,0.27-0.85,0.58-1.23,0.94c-0.38,0.35-0.71,0.72-0.98,1.09
		l1.9,1.75c0.44-0.54,0.84-0.94,1.21-1.19c0.36-0.25,0.77-0.38,1.21-0.38c0.32,0,0.62,0.09,0.9,0.28c0.28,0.19,0.58,0.49,0.89,0.9
		c0.31,0.41,0.66,0.96,1.03,1.65c0.37,0.69,0.8,1.53,1.3,2.53h-10.72h-0.76h-1.88c-0.12-0.98-0.31-1.87-0.57-2.66
		c-0.26-0.79-0.57-1.48-0.93-2.09c-0.36-0.61-0.74-1.14-1.14-1.59c-0.41-0.45-0.81-0.83-1.22-1.16c-0.95-0.74-1.99-1.27-3.12-1.57
		l-0.71,2.79c1,0.44,1.79,0.95,2.39,1.54c0.59,0.58,1.04,1.17,1.35,1.77c0.3,0.59,0.51,1.16,0.61,1.69c0.1,0.53,0.15,0.96,0.15,1.28
		h-5.74c-0.3,0-0.58-0.02-0.84-0.05c-0.25-0.03-0.47-0.08-0.66-0.13c-0.22-0.07-0.42-0.14-0.61-0.2l-0.23,2.77
		c0.19,0.07,0.39,0.14,0.61,0.2c0.19,0.05,0.41,0.09,0.66,0.13c0.25,0.03,0.53,0.05,0.84,0.05h11.07h0.74h15.9h0.76h5.84v-17.22
		l-3.22,0.91V247.73z"/>
	<polygon class="st2" points="164.31,150.35 172.47,172.18 179.66,172.18 187.58,150.83 187.58,172.18 193.62,172.18 193.62,144.23 
		183.9,144.23 176.02,166.34 167.83,144.23 158.47,144.23 158.47,172.18 164.31,172.18 	"/>
	<path class="st2" d="M212.49,172.7c4.69,0,8.26-0.95,10.72-2.84c3.01-2.35,4.52-6.25,4.52-11.69c0-4.86-1.04-8.41-3.12-10.65
		c-2.37-2.54-6.45-3.8-12.23-3.8c-5.25,0-9.2,1.32-11.83,3.96c-2.43,2.43-3.64,5.82-3.64,10.17c0,5.31,1.36,9.17,4.08,11.57
		C203.45,171.6,207.29,172.7,212.49,172.7z M205.73,151.63c1.44-1.95,3.57-2.93,6.4-2.93c2.88,0,5.05,0.91,6.52,2.72
		c1.31,1.63,1.96,3.82,1.96,6.57c0,2.99-0.48,5.25-1.44,6.77c-1.23,1.95-3.36,2.93-6.4,2.93c-3.6,0-6.06-1-7.4-3.01
		c-0.96-1.44-1.44-3.67-1.44-6.69C203.93,155.38,204.53,153.26,205.73,151.63z"/>
	<path class="st2" d="M239.04,160.42h8.24c3.36,0,5.04,1.19,5.04,3.58c0,1.02-0.43,1.82-1.28,2.41c-0.75,0.51-1.67,0.76-2.76,0.76
		h-16.31v5h19.79c2.51,0,4.57-0.84,6.2-2.51c1.63-1.67,2.44-3.74,2.44-6.18c0-2.39-0.81-4.31-2.42-5.76
		c-1.61-1.45-3.83-2.17-6.66-2.17h-9.08c-1.04,0-1.93-0.32-2.66-0.97c-0.73-0.65-1.1-1.45-1.1-2.41c0-0.85,0.38-1.58,1.14-2.2
		c0.76-0.62,1.51-0.93,2.26-0.93h16.67v-4.8h-18.91c-2.85,0-5.15,0.78-6.9,2.33c-1.75,1.56-2.62,3.58-2.62,6.08
		c0,2.26,0.89,4.12,2.68,5.59C234.58,159.69,236.66,160.42,239.04,160.42z"/>
	<polygon class="st2" points="271.66,172.26 278.14,172.26 278.14,148.99 288.57,148.99 288.57,144.23 261.39,144.23 261.39,148.99 
		271.66,148.99 	"/>
	<polygon class="st2" points="297.29,151.51 310.8,172.18 319.68,172.18 319.68,144.23 312.88,144.23 312.88,165.18 299.61,144.23 
		290.61,144.23 290.61,172.18 297.29,172.18 	"/>
	<path class="st2" d="M330.03,165.82h11.55l2.36,6.36h7l-12.03-27.95h-6.84l-11.48,27.95h6.92L330.03,165.82z M335.63,151.1
		l3.8,9.84h-7.48L335.63,151.1z"/>
	<path class="st2" d="M370.14,171.9c2.53-0.51,4.52-2.09,5.96-4.75c1.33-2.42,2-5.27,2-8.54c0-3.06-0.6-5.8-1.8-8.22
		c-1.31-2.64-3.08-4.38-5.32-5.23c-1.65-0.61-3.32-0.92-5-0.92h-14.23v27.95h15.07C368.04,172.18,369.15,172.08,370.14,171.9z
		 M358.26,167.34v-18.11h7.8c2,0,3.49,1.04,4.48,3.12c0.77,1.65,1.16,3.77,1.16,6.36c0,2.35-0.36,4.29-1.08,5.84
		c-0.88,1.89-2.23,2.84-4.04,2.84L358.26,167.34z"/>
</g>
</svg>
