<?xml version="1.0" encoding="utf-8"?>
<!-- Generator: Adobe Illustrator 26.0.1, SVG Export Plug-In . SVG Version: 6.00 Build 0)  -->
<svg version="1.1" id="Layer_1" xmlns="http://www.w3.org/2000/svg" xmlns:xlink="http://www.w3.org/1999/xlink" x="0px" y="0px"
	 viewBox="0 0 350 350" style="enable-background:new 0 0 350 350;" xml:space="preserve">
<style type="text/css">
	.st0{fill:#E10B17;}
	.st1{fill:#29265B;}
	.st2{clip-path:url(#SVGID_00000047766242841535955010000001651198673796264380_);fill:#29265B;}
</style>
<g>
	<g>
		<path class="st0" d="M319.21,197.76l-26.06-15.04c0.2-2.8,0.27-12.69,0.16-14.79l25.9-14.94c2.64-1.52,3.88-4.65,3.02-7.57
			l-6.46-21.72c-0.85-2.88-3.55-4.81-6.55-4.7l-28.86,1.1c-2.66-5.15-5.68-10.08-9.03-14.76l13.14-24.55c1.44-2.68,0.84-6-1.43-8.02
			L266.1,57.73c-2.25-1.99-5.56-2.21-8.04-0.53l-22.56,15.23c-2.72-1.62-5.52-3.14-8.38-4.54l0.14-28.9c0.01-3-2.01-5.63-4.91-6.39
			l-21.92-5.73c-2.94-0.77-6.03,0.58-7.46,3.27l-13.78,25.82c-1.37-0.05-11.78,0.1-15.54,0.46l-15.43-24.79
			c-1.61-2.58-4.78-3.73-7.67-2.76l-21.49,7.17c-2.85,0.95-4.69,3.71-4.48,6.7l2.04,28.56c-2.76,1.57-5.47,3.23-8.09,5.01
			L85.01,62.4c-2.58-1.53-5.88-1.11-8,1.02L61,79.45c-2.15,2.15-2.54,5.5-0.95,8.09l14.67,23.84c-1.78,2.83-3.43,5.74-4.97,8.72
			l-28.98-1.1c-3-0.11-5.7,1.82-6.55,4.7l-6.46,21.72c-0.87,2.92,0.38,6.05,3.02,7.57L56.8,168c-0.11,2.08-0.03,11.88,0.16,14.66
			l-26.17,15.1c-2.64,1.52-3.88,4.65-3.02,7.57l6.46,21.72c0.86,2.88,3.55,4.81,6.55,4.7l30.09-1.14c2.48,4.57,5.27,8.95,8.31,13.14
			l-13.65,25.5c-1.44,2.68-0.84,6,1.43,8.02L83.9,292.3c2.25,1.99,5.56,2.21,8.04,0.53l23.8-16.07c2.57,1.49,5.18,2.91,7.87,4.21
			l-0.15,30.04c-0.01,3,2.01,5.63,4.91,6.39l21.92,5.73c2.94,0.77,6.03-0.58,7.46-3.27l14.3-26.79l14.41-0.48l16.04,25.78
			c1.61,2.58,4.78,3.73,7.67,2.76l21.49-7.17c2.85-0.95,4.69-3.71,4.48-6.7l-2.16-30.3c2.16-1.24,4.29-2.54,6.36-3.92l24.64,14.56
			c2.58,1.53,5.88,1.11,8-1.01L289,270.57c2.15-2.15,2.54-5.5,0.95-8.09l-15.08-24.5c1.54-2.41,3.02-4.85,4.38-7.37l29.97,1.14
			c3,0.11,5.7-1.82,6.55-4.7l6.46-21.72C323.09,202.42,321.85,199.28,319.21,197.76z M175.06,275.38
			c-55.84,0-101.11-45.27-101.11-101.11c0-55.84,45.27-101.1,101.11-101.1s101.1,45.27,101.1,101.1
			C276.17,230.11,230.9,275.38,175.06,275.38z"/>
		<path class="st0" d="M175,98.28c-42.37,0-76.72,34.35-76.72,76.72s34.35,76.72,76.72,76.72s76.72-34.35,76.72-76.72
			S217.37,98.28,175,98.28z M175,246.62c-39.55,0-71.62-32.07-71.62-71.62s32.07-71.62,71.62-71.62c39.55,0,71.62,32.07,71.62,71.62
			S214.55,246.62,175,246.62z"/>
		<circle class="st1" cx="176.83" cy="263.75" r="10.53"/>
		<circle class="st1" cx="128.19" cy="250.14" r="10.53"/>
		<circle class="st1" cx="91.31" cy="206.12" r="10.53"/>
		<circle class="st1" cx="91.31" cy="144.82" r="10.53"/>
		<circle class="st1" cx="121.1" cy="104.84" r="10.53"/>
		<circle class="st1" cx="172.33" cy="86.88" r="10.53"/>
		<circle class="st1" cx="229.13" cy="104.84" r="10.53"/>
		<circle class="st1" cx="259.24" cy="147.34" r="10.53"/>
		<circle class="st1" cx="258.45" cy="205.23" r="10.53"/>
		<circle class="st1" cx="231.99" cy="243.65" r="10.53"/>
		<g>
			<path class="st0" d="M137.13,180.84c0.14-0.18,0.25-0.27,0.3-0.38c0.46-1.19,0.9-2.38,1.38-3.57c0.76-1.89,1.52-3.78,2.3-5.66
				c0.42-1.02,0.88-2.03,1.33-3.04c0.62-1.4,1.23-2.79,1.85-4.18c0.44-0.99,0.88-1.99,1.33-2.98c0.79-1.72,1.53-3.46,2.41-5.13
				c0.59-1.12,1.16-2.28,2.04-3.23c0.32-0.34,0.64-0.56,1.12-0.53c1.09,0.06,2.19,0.13,3.28,0.13c1.26,0.01,2.52-0.04,3.78-0.07
				c0.27-0.01,0.54-0.02,0.8-0.05c0.69-0.07,1.39-0.14,2.08-0.23c0.31-0.04,0.56,0.05,0.8,0.24c0.83,0.63,1.34,1.46,1.65,2.46
				c0.39,1.26,0.45,2.54,0.5,3.84c0.04,1.06-0.93,2.1-1.67,2.37c-0.72,0.27-1.44,0.48-2.22,0.5c-0.08,0-0.17,0.01-0.25,0.02
				c-0.53,0.06-0.59,0.13-0.58,0.66c0.01,0.29,0.01,0.58,0.01,0.87c0,7.87,0,15.75,0,23.62c0,0.28,0,0.57,0,0.91
				c0.41,0.06,0.77,0.13,1.14,0.16c0.77,0.06,1.5,0.26,2.19,0.61c0.84,0.43,1.3,1.11,1.35,2.06c0.08,1.55-0.17,3.05-0.78,4.47
				c-0.19,0.43-0.56,0.79-0.86,1.17c-0.11,0.14-0.3,0.22-0.43,0.36c-0.43,0.44-0.95,0.49-1.54,0.46c-2.08-0.11-4.17-0.26-6.25-0.26
				c-2.06,0.01-4.13,0.17-6.19,0.29c-0.43,0.03-0.79-0.01-1.13-0.32c-0.7-0.63-1.26-1.33-1.51-2.27c-0.3-1.12-0.5-2.25-0.55-3.41
				c-0.07-1.5,0.93-2.61,2.19-2.89c0.66-0.15,1.33-0.28,2-0.41c0.18-0.04,0.36-0.06,0.53-0.08c0.17-0.54,0.24-9.93,0.12-13.9
				c-0.01-0.2-0.05-0.39-0.08-0.59c-0.04-0.01-0.09-0.03-0.13-0.04c-0.1,0.13-0.23,0.25-0.29,0.4c-0.64,1.51-1.25,3.04-1.89,4.55
				c-0.46,1.08-0.95,2.14-1.42,3.22c-0.75,1.74-1.5,3.48-2.24,5.22c-0.48,1.13-0.93,2.29-1.46,3.4c-0.32,0.66-0.75,1.27-1.15,1.89
				c-0.28,0.42-0.5,0.84-0.52,1.36c-0.01,0.22-0.11,0.49-0.27,0.66c-0.88,0.97-1.98,1.64-3.25,1.89c-1.56,0.31-2.88-0.19-3.87-1.49
				c-0.5-0.66-0.93-1.35-1.25-2.12c-0.51-1.22-1.04-2.42-1.56-3.63c-0.67-1.54-1.33-3.09-2.01-4.63c-0.73-1.65-1.5-3.29-2.23-4.95
				c-0.71-1.62-1.39-3.25-2.1-4.88c-0.17-0.39-0.37-0.76-0.56-1.14c-0.05,0-0.09,0-0.14,0.01c-0.03,0.19-0.08,0.37-0.09,0.56
				c0,4.53,0,9.05,0,13.58c0,0.2,0.04,0.4,0.07,0.61c0.44,0.07,0.84,0.13,1.24,0.21c0.5,0.1,1,0.22,1.5,0.35
				c0.97,0.27,1.84,1.23,1.89,2.28c0.07,1.54-0.13,3.05-0.62,4.51c-0.28,0.84-0.91,1.41-1.6,1.91c-0.18,0.13-0.47,0.15-0.7,0.13
				c-1.57-0.09-3.13-0.25-4.7-0.29c-1.34-0.04-2.68,0.03-4.03,0.08c-1.14,0.04-2.27,0.12-3.4,0.2c-0.4,0.03-0.72-0.09-1.04-0.31
				c-1.09-0.76-1.76-1.8-1.99-3.08c-0.17-0.93-0.24-1.88-0.29-2.83c-0.06-1.3,0.72-2.25,2-2.62c0.81-0.23,1.65-0.37,2.57-0.57
				c0.01-0.16,0.05-0.39,0.05-0.63c0-8.06-0.01-16.12-0.01-24.18c0-0.38,0-0.77,0-1.12c-0.68-0.1-1.29-0.2-1.9-0.28
				c-1-0.13-1.74-0.7-2.33-1.46c-0.19-0.25-0.32-0.59-0.35-0.91c-0.15-1.65,0.03-3.27,0.76-4.77c0.4-0.83,1-1.6,1.94-1.89
				c0.45-0.14,0.98-0.09,1.46-0.04c2.16,0.2,4.31,0.47,6.49,0.19c0.9-0.11,1.81-0.06,2.72-0.07c0.46,0,0.81,0.24,1.13,0.55
				c0.69,0.68,1.15,1.5,1.55,2.36c1.13,2.42,2.24,4.85,3.35,7.28c1.08,2.36,2.15,4.72,3.2,7.09c0.92,2.07,1.79,4.15,2.69,6.23
				c0.67,1.55,1.33,3.09,2.01,4.64C136.83,180.44,136.96,180.58,137.13,180.84z"/>
			<path class="st0" d="M224.41,196.7c-1.93-0.06-3.89-0.12-5.85-0.17c-1.07-0.03-2.15-0.03-3.22-0.05
				c-1.42-0.02-2.85-0.07-4.27-0.06c-1.51,0.01-3.02,0.05-4.52,0.11c-1.11,0.04-2.23,0.11-3.34,0.2c-0.61,0.05-1.02-0.29-1.41-0.65
				c-0.85-0.79-1.41-1.75-1.59-2.92c-0.09-0.63-0.26-1.25-0.34-1.88c-0.21-1.54,0.29-2.8,1.91-3.38c0.67-0.24,1.4-0.38,2.11-0.48
				c0.72-0.11,0.73-0.07,0.72-0.76c0-4.09-0.01-8.18-0.01-12.28c0-3.97,0-7.94,0-11.9c0-0.1,0-0.21,0-0.31
				c0-0.89-0.01-0.87-0.88-0.92c-1.27-0.08-2.45-0.43-3.29-1.47c-0.55-0.69-0.71-1.51-0.56-2.38c0.05-0.3,0.08-0.61,0.12-0.91
				c0.13-1.18,0.42-2.31,1.17-3.26c0.26-0.33,0.58-0.63,0.9-0.91c0.55-0.49,1.22-0.42,1.88-0.37c0.95,0.07,1.89,0.16,2.84,0.19
				c2.19,0.07,4.38,0.19,6.57,0.16c2.31-0.03,4.62-0.25,6.93-0.32c1.78-0.06,3.56-0.11,5.33-0.01c1.56,0.09,3.06,0.54,4.5,1.21
				c0.75,0.35,1.49,0.71,2.17,1.18c0.83,0.57,1.61,1.2,2.24,2c0.71,0.9,1.42,1.82,1.91,2.86c0.32,0.69,0.59,1.41,0.81,2.13
				c0.36,1.21,0.58,2.46,0.53,3.72c-0.06,1.57-0.47,3.06-1.27,4.42c-0.4,0.69-0.84,1.36-1.31,2.01c-0.38,0.53-0.38,0.64,0.1,1.06
				c0.68,0.6,1.39,1.17,2,1.84c1.28,1.4,2.25,2.98,2.79,4.83c0.48,1.65,0.61,3.33,0.43,5.02c-0.14,1.33-0.48,2.65-1.08,3.85
				c-1.01,1.98-2.29,3.76-4.08,5.12c-0.65,0.49-1.41,0.84-2.11,1.28c-1.11,0.69-2.35,1.09-3.58,1.47c-0.84,0.26-1.73,0.4-2.61,0.53
				C226.18,196.61,225.31,196.63,224.41,196.7z M220.04,188.03c0,0.02,0,0.04,0,0.06c1.92-0.06,3.84-0.11,5.76-0.19
				c1.3-0.06,2.43-0.56,3.4-1.42c0.91-0.81,1.51-1.81,1.68-3.01c0.3-2.07-0.51-3.72-2.14-4.96c-1.2-0.9-2.61-1.37-4.09-1.4
				c-3.22-0.08-6.45-0.05-9.67-0.05c-0.42,0-0.49,0.08-0.5,0.52c-0.01,0.43,0.01,0.87,0.01,1.3c0,2.79,0,5.58,0,8.37
				c0,0.71,0.09,0.79,0.78,0.79C216.85,188.03,218.45,188.03,220.04,188.03z M219.6,169.04C219.6,169.04,219.6,169.04,219.6,169.04
				c1.26,0,2.52-0.02,3.78,0c0.75,0.01,1.47-0.12,2.18-0.37c1.52-0.55,2.69-2.2,2.6-3.76c-0.06-1.06-0.37-2.04-0.96-2.89
				c-0.54-0.77-1.3-1.33-2.28-1.44c-0.74-0.09-1.48-0.12-2.22-0.12c-2.21-0.02-4.42-0.01-6.63-0.01c-0.35,0-0.7,0.01-1.05,0.04
				c-0.39,0.03-0.49,0.15-0.53,0.55c-0.01,0.14-0.01,0.29-0.01,0.43c0,2.29,0,4.59,0,6.88c0,0.64,0.06,0.7,0.72,0.7
				C216.66,169.04,218.13,169.04,219.6,169.04z"/>
			<path class="st0" d="M172.88,180.35c0.29,0.65,0.55,1.32,0.87,1.96c0.88,1.74,2.19,3.11,3.81,4.19c2.08,1.37,4.38,2.1,6.86,2.18
				c1.35,0.04,2.69-0.09,3.9-0.79c0.76-0.44,1.26-1.08,1.43-1.98c0.16-0.84,0.1-1.65-0.18-2.43c-0.36-1.03-1.09-1.78-2.03-2.32
				c-1.2-0.68-2.46-1.22-3.79-1.6c-0.83-0.24-1.63-0.56-2.46-0.81c-0.67-0.2-1.35-0.35-2.03-0.53c-1.11-0.3-2.23-0.58-3.33-0.93
				c-1.51-0.49-2.99-1.06-4.4-1.8c-1.51-0.8-2.92-1.75-4.14-2.97c-1.27-1.28-2.1-2.82-2.6-4.53c-0.58-1.95-0.73-3.93-0.38-5.94
				c0.38-2.15,1.33-4,2.86-5.57c0.56-0.57,1.15-1.11,1.79-1.59c0.89-0.67,1.88-1.19,2.91-1.59c1.07-0.41,2.17-0.77,3.27-1.08
				c0.63-0.18,1.29-0.25,1.95-0.3c1.15-0.09,2.31-0.2,3.46-0.17c1.11,0.03,2.21,0.22,3.32,0.33c1.52,0.16,2.89,0.77,4.26,1.41
				c0.52,0.24,0.55,0.22,0.95-0.2c0.52-0.56,1.13-0.88,1.93-0.95c1.56-0.15,3.09,0.05,4.64,0.11c0.3,0.01,0.6,0.11,0.93,0.17
				c0.12,0.62,0.23,1.2,0.34,1.78c0.2,0.99,0.43,1.97,0.62,2.96c0.19,0.99,0.34,1.99,0.51,2.99c0.14,0.83,0.32,1.66,0.39,2.5
				c0.08,0.86,0.1,1.74,0.05,2.6c-0.04,0.79-0.64,1.22-1.26,1.56c-0.36,0.2-0.77,0.31-1.17,0.4c-1.6,0.35-3.23,0.42-4.86,0.44
				c-0.61,0.01-0.63-0.03-0.85-0.58c-0.36-0.94-0.67-1.91-1.14-2.79c-0.95-1.8-2.38-3.11-4.27-3.94c-1.08-0.47-2.19-0.67-3.34-0.81
				c-1.18-0.13-2.35-0.07-3.52,0.09c-0.89,0.13-1.71,0.43-2.43,1c-0.97,0.76-1.43,2.26-1.08,3.45c0.37,1.26,1.3,1.97,2.4,2.5
				c0.78,0.37,1.6,0.65,2.41,0.93c1.52,0.52,3.04,1.02,4.57,1.5c1.29,0.4,2.62,0.7,3.9,1.12c1.14,0.38,2.29,0.74,3.38,1.29
				c1.07,0.54,2.13,1.07,3.14,1.72c1.43,0.92,2.72,1.99,3.69,3.41c0.82,1.18,1.36,2.48,1.77,3.85c0.45,1.53,0.52,3.09,0.39,4.66
				c-0.14,1.82-0.66,3.54-1.58,5.15c-0.58,1.01-1.28,1.92-2.08,2.74c-0.51,0.52-1.16,0.91-1.78,1.31c-1.8,1.16-3.79,1.9-5.88,2.29
				c-2.35,0.45-4.72,0.52-7.1,0.19c-1.98-0.27-3.86-0.85-5.67-1.66c-0.37-0.17-0.75-0.31-1.12-0.49c-0.27-0.13-0.47-0.02-0.55,0.21
				c-0.41,1.09-1.28,1.54-2.34,1.62c-1.5,0.11-3.01,0.11-4.52,0.15c-0.31,0.01-0.46-0.15-0.53-0.48c-0.34-1.59-0.77-3.16-1.06-4.76
				c-0.33-1.78-0.57-3.58-0.8-5.37c-0.12-0.92-0.13-1.85-0.18-2.78c-0.04-0.75,0.31-1.36,0.78-1.89c0.15-0.17,0.39-0.28,0.61-0.39
				c1.45-0.71,2.97-1.1,4.59-1C171.72,180.1,172.28,180.25,172.88,180.35z"/>
			<path class="st1" d="M124.64,140.52c-0.62-0.34-1.18-0.44-1.76-0.48c-0.89-0.06-1.77-0.12-2.66-0.16
				c-0.7-0.03-1.1-0.44-1.33-1.03c-0.2-0.52-0.35-1.05-0.49-1.59c-0.13-0.52,0.04-0.75,0.58-0.74c0.38,0.01,0.76,0.11,1.15,0.16
				c0.2,0.03,0.41,0.06,0.61,0.07c0.49,0.02,0.85,0.22,1.12,0.65c0.13,0.2,0.38,0.37,0.61,0.46c0.8,0.32,1.61,0.61,2.43,0.9
				c0.59,0.21,0.79,0.14,1.14-0.38c0.36-0.52,0.71-1.05,1.1-1.55c0.16-0.21,0.16-0.35-0.03-0.52c-0.09-0.08-0.18-0.17-0.24-0.28
				c-0.11-0.19-0.06-0.75,0.08-0.88c0.21-0.19,0.42-0.07,0.64,0c0.74,0.24,0.73,0.24,1.21-0.42c0.17-0.23,0.37-0.44,0.6-0.71
				c-0.17-0.16-0.31-0.33-0.48-0.44c-0.7-0.44-1.22-1.01-1.49-1.81c-0.2-0.6-0.08-1.1,0.35-1.53c0.2-0.2,0.44-0.38,0.7-0.5
				c1-0.45,2.04-0.66,3.11-0.27c0.2,0.07,0.37,0.25,0.54,0.4c0.17,0.15,0.32,0.32,0.46,0.49c0.18,0.23,0.35,0.24,0.57,0.04
				c0.41-0.38,0.83-0.75,1.25-1.1c0.25-0.21,0.51-0.4,0.79-0.57c0.42-0.25,0.52-0.47,0.26-0.82c-0.19-0.25-0.24-0.48-0.09-0.74
				c0.16-0.26,0.44-0.32,0.71-0.27c0.2,0.03,0.39,0.13,0.57,0.22c0.28,0.15,0.54,0.11,0.74-0.09c0.42-0.44,0.9-0.78,1.43-1.07
				c0.21-0.12,0.36-0.32,0.55-0.49c-0.06-0.15-0.1-0.26-0.14-0.38c-0.09-0.31-0.05-0.56,0.24-0.75c0.36-0.24,0.57-0.27,0.91-0.06
				c0.07,0.04,0.14,0.08,0.2,0.14c0.19,0.17,0.4,0.21,0.61,0.05c0.23-0.17,0.44-0.4,0.29-0.68c-0.18-0.35-0.11-0.57,0.17-0.8
				c0.29-0.24,0.57-0.29,0.91-0.1c0.18,0.1,0.37,0.17,0.56,0.25c0.42,0.16,0.68,0,0.71-0.46c0.01-0.18-0.04-0.37-0.04-0.55
				c-0.02-0.59,0.47-0.89,1-0.61c0.15,0.08,0.29,0.15,0.43,0.23c0.23,0.13,0.46,0.15,0.7,0c0.33-0.21,0.68-0.38,0.98-0.63
				c0.14-0.11,0.22-0.34,0.26-0.53c0.06-0.3,0.07-0.61,0.1-0.92c0.06-0.87,0.84-1.7,1.73-1.7c0.57,0,1.15,0.13,1.69,0.3
				c0.48,0.15,0.92,0.43,1.37,0.66c0.81,0.43,1.64,0.5,2.54,0.1c-0.02-0.18,0.03-0.4-0.06-0.53c-0.29-0.42-0.58-0.85-0.95-1.19
				c-0.48-0.44-0.85-0.94-1.13-1.51c-0.16-0.33-0.06-0.61,0.16-0.86c0.38-0.43,0.77-0.85,1.16-1.27c0.1-0.1,0.22-0.19,0.31-0.29
				c0.41-0.45,0.67-0.49,1.08-0.07c0.33,0.33,0.62,0.71,0.89,1.1c0.23,0.32,0.27,0.69,0.03,1.05c-0.2,0.3-0.17,0.63-0.06,0.95
				c0.34,0.97,0.73,1.92,1.03,2.9c0.14,0.47,0.16,0.98,0.18,1.47c0.03,0.74-0.47,1.12-1.09,1.31c-0.64,0.2-1.32,0.31-1.98,0.46
				c-0.37,0.09-0.79,0.08-0.96,0.55c-0.03,0.09-0.23,0.17-0.36,0.18c-0.57,0.07-1.15,0.16-1.72,0.16c-0.66,0-1.15,0.14-1.58,0.74
				c-0.45,0.63-1.25,0.85-1.98,1.05c-0.18,0.05-0.45-0.2-0.74-0.34c-0.51,0.79-1.29,1.02-2.24,0.76c-0.15,0.59-0.35,1.14-0.9,1.3
				c-0.48,0.13-1.01,0.08-1.55,0.12c-0.02,0.06-0.08,0.13-0.08,0.21c0.02,0.76-0.49,1.14-1.07,1.46c-0.53,0.3-1.05,0.53-1.7,0.37
				c-0.42-0.11-0.54,0.02-0.65,0.46c-0.02,0.08-0.05,0.16-0.04,0.24c0.02,0.67-0.36,1.11-0.87,1.47c-0.28,0.2-0.54,0.44-0.82,0.65
				c-0.67,0.49-1.39,0.87-2.24,0.94c-0.64,0.05-0.74,0.16-0.73,0.81c0.02,0.68-0.25,1.23-0.71,1.71c-0.16,0.16-0.29,0.35-0.44,0.51
				c-0.37,0.4-0.76,0.74-1.38,0.71c-0.23-0.01-0.46,0.12-0.67,0.18c-0.02,0.13-0.05,0.2-0.03,0.25c0.23,0.76,0.01,1.4-0.41,2.04
				c-0.34,0.52-0.78,0.82-1.39,0.9c-0.23,0.03-0.46,0.1-0.76,0.17c0.62,0.99,0.29,1.8-0.22,2.6c-0.32,0.51-0.62,1.03-1.25,1.2
				c-0.33,0.09-0.67,0.16-1.01,0.24c-0.19,0.04-0.38,0.08-0.65,0.13c0.16,0.21,0.26,0.33,0.36,0.45c0.28,0.34,0.56,0.69,0.36,1.17
				c-0.22,0.52-0.65,0.83-1.19,0.87c-0.49,0.03-0.98-0.05-1.47-0.12c-0.45-0.07-0.89-0.18-1.33-0.29c-0.24-0.06-0.48-0.14-0.7-0.25
				c-0.4-0.21-0.7-0.5-0.7-1.01c0-0.29-0.04-0.58-0.06-0.87c-0.02-0.32-0.15-0.56-0.46-0.67c-0.54-0.2-0.74-0.7-0.96-1.16
				c-0.22-0.47,0.03-0.82,0.57-0.79c0.55,0.03,1.1,0.13,1.66,0.19c0.72,0.08,1.44,0.16,2.15,0.26c0.26,0.04,0.46-0.05,0.58-0.25
				C124.14,141.45,124.37,141.02,124.64,140.52z M130.12,132.62c0.71,0.04,1.1-0.25,1.23-0.89c0.06-0.29-0.05-0.49-0.32-0.48
				c-0.6,0.02-1.2,0.09-1.65,0.56c-0.11,0.12-0.2,0.34-0.16,0.48c0.04,0.14,0.24,0.26,0.4,0.32
				C129.77,132.66,129.95,132.62,130.12,132.62z M122.24,143.88c-0.53-0.02-0.76,0.21-0.59,0.64c0.06,0.15,0.22,0.34,0.37,0.37
				c0.36,0.07,0.73,0.11,1.09,0.08c0.34-0.03,0.36-0.35,0.38-0.62c0.03-0.28-0.2-0.34-0.4-0.38
				C122.82,143.92,122.53,143.91,122.24,143.88z M148.75,120.59c0.56,0.53,1.51,0.41,1.88-0.22
				C149.61,119.88,149.19,119.92,148.75,120.59z"/>
			<path class="st1" d="M194.51,121.11c0.29,0.13,0.57,0.28,0.86,0.38c0.42,0.15,0.86,0.26,1.29,0.37c0.28,0.07,0.48-0.04,0.59-0.31
				c0.21-0.52,0.41-1.03,0.62-1.54c0.18-0.43,0.37-0.87,0.59-1.28c0.08-0.14,0.28-0.26,0.44-0.28c1.04-0.12,2.09-0.23,3.14-0.31
				c0.62-0.05,0.84,0.27,0.6,0.85c-0.16,0.4-0.39,0.77-0.58,1.16c-0.18,0.37-0.41,0.64-0.89,0.61c-0.17-0.01-0.4,0.11-0.54,0.23
				c-0.37,0.32-0.72,0.66-1.04,1.03c-0.65,0.74-1.25,1.52-1.92,2.23c-0.51,0.55-1.13,0.9-1.95,0.91c-0.92,0.01-1.74-0.15-2.49-0.69
				c-0.15-0.11-0.32-0.18-0.49-0.26c-0.55-0.27-1.01-0.64-1.22-1.24c-0.1-0.29-0.26-0.36-0.56-0.29c-1.1,0.23-2.21,0.27-3.31-0.04
				c-0.91-0.26-1.83-0.49-2.66-0.72c-0.24-0.38-0.42-0.7-0.63-1c-0.17-0.24-0.44-0.31-0.65-0.13c-0.75,0.62-1.6,0.39-2.44,0.35
				c-0.06,0-0.12-0.03-0.18-0.03c-0.5-0.04-0.65,0.05-0.83,0.53c-0.3,0.79-0.66,1.54-1.23,2.19c-0.58,0.65-1.26,0.91-2.1,0.68
				c-1.05-0.29-2.09-0.6-3.13-0.91c-0.27-0.08-0.54-0.18-0.8-0.31c-0.14-0.07-0.24-0.2-0.35-0.31c0.12-0.32,0.34-0.4,0.59-0.46
				c1.42-0.32,2.82-0.71,4.21-1.15c0.23-0.07,0.48-0.14,0.5-0.5c-0.5-0.1-1-0.18-1.49-0.3c-0.93-0.22-1.23-0.69-1.23-1.46
				c0-0.8,0.14-1.6,0.3-2.39c0.16-0.74,0.66-1.18,1.42-1.38c1.03-0.27,2-0.15,2.93,0.33c0.57,0.29,0.9,0.77,1.08,1.36
				c0.26,0.81,1.15,1.23,1.93,0.91c0.24-0.1,0.34-0.29,0.32-0.54c-0.03-0.6-0.04-1.2-0.1-1.79c-0.15-1.43,0.02-1.85,1.45-2.26
				c0.51-0.15,1-0.36,1.51-0.52c0.69-0.22,0.95-0.05,1.04,0.68c0.02,0.18,0.01,0.37,0.03,0.56c0.07,0.63-0.04,1.14-0.72,1.41
				c-0.18,0.07-0.37,0.29-0.44,0.48c-0.24,0.61-0.45,1.24-0.63,1.87c-0.06,0.23-0.01,0.49-0.01,0.8c0.27,0.07,0.54,0.15,0.81,0.23
				c0.32,0.08,0.63,0.17,0.95,0.24c0.18,0.04,0.37,0.06,0.55,0.05c0.28-0.02,0.54-0.06,0.65,0.3c0.02,0.06,0.11,0.12,0.17,0.14
				c0.51,0.16,1.02,0.34,1.54,0.45c0.46,0.1,0.94,0.13,1.41,0.16c0.17,0.01,0.34-0.07,0.63-0.13c-0.23-0.27-0.36-0.48-0.55-0.62
				c-0.43-0.35-0.88-0.68-1.34-0.99c-0.43-0.3-0.93-0.26-1.37,0.05c-0.21,0.15-0.44,0.29-0.67,0.42c-0.05,0.03-0.12,0.01-0.17,0.02
				c-0.37-0.65-0.32-1.11,0.17-1.6c0.92-0.91,2.94-1.45,4.29-0.1c0.68,0.68,1.56,1.12,2.47,1.47c0.38,0.15,0.76,0.3,1.12,0.5
				c0.29,0.16,0.31,0.34,0.11,0.61c-0.18,0.25-0.36,0.51-0.59,0.71c-0.17,0.15-0.42,0.22-0.64,0.31c-0.12,0.05-0.25,0.08-0.38,0.11
				C194.53,120.98,194.52,121.04,194.51,121.11z M178.74,117.53c-0.35-0.42-0.67-0.67-1.04-0.87c-0.1-0.05-0.24-0.05-0.36-0.03
				c-0.26,0.03-0.45,0.2-0.41,0.44c0.02,0.16,0.2,0.42,0.34,0.43C177.71,117.57,178.17,117.53,178.74,117.53z"/>
			<path class="st1" d="M215.95,135.5c-0.06,0.49-0.11,0.94-0.18,1.39c-0.06,0.39,0.06,0.7,0.34,1c0.32,0.36,0.59,0.79,0.82,1.22
				c0.28,0.54,0.62,0.82,1.28,0.67c0.42-0.09,0.61,0.07,0.71,0.41c0.08,0.27-0.01,0.48-0.23,0.65c-0.15,0.11-0.29,0.23-0.42,0.36
				c-0.04,0.04-0.05,0.11-0.07,0.17c0.08,0.28,0.27,0.41,0.54,0.44c0.16,0.01,0.33,0.02,0.49,0.02c0.47,0.01,0.65,0.11,0.75,0.4
				c0.1,0.31,0.02,0.48-0.37,0.75c-0.08,0.06-0.19,0.1-0.25,0.18c-0.08,0.11-0.19,0.26-0.15,0.35c0.05,0.13,0.2,0.28,0.33,0.31
				c0.35,0.07,0.7,0.05,0.97-0.24c0.21-0.23,0.41-0.44,0.77-0.43c0.42,0.02,0.75,0.22,1.06,0.46c0.3,0.25,0.3,0.72-0.04,0.96
				c-0.35,0.25-0.73,0.48-1.13,0.62c-0.77,0.27-1.56,0.53-2.36,0.68c-0.88,0.16-1.8,0.3-2.63-0.27c-0.43-0.3-0.66-0.67-0.6-1.19
				c0.04-0.28,0.08-0.57,0.13-0.92c-0.16-0.07-0.36-0.19-0.56-0.25c-0.76-0.22-1.06-0.71-0.88-1.48c0.01-0.06,0.04-0.12,0.06-0.17
				c0.08-0.21,0.02-0.37-0.2-0.43c-0.53-0.13-0.8-0.54-1.09-0.94c-0.08-0.12-0.15-0.25-0.23-0.36c-0.25-0.36-0.36-0.38-0.78-0.3
				c-0.92,0.18-1.85,0.41-2.78,0.51c-0.58,0.06-1.19-0.01-1.77-0.12c-0.65-0.12-0.99-0.64-1.17-1.24c-0.24-0.81-0.46-1.62-0.65-2.45
				c-0.14-0.6,0.08-0.81,0.65-0.6c0.49,0.19,0.94,0.5,1.41,0.75c0.87,0.47,1.71,0.98,2.61,1.37c0.43,0.19,0.97,0.15,1.46,0.18
				c0.11,0.01,0.26-0.06,0.32-0.15c0.32-0.45,0.71-0.86,0.67-1.48c-0.01-0.18,0.03-0.37,0.1-0.54c0.1-0.25,0.25-0.44,0.57-0.49
				C214.26,135.18,215.09,135.04,215.95,135.5z"/>
			<path class="st1" d="M206.59,130.36c-0.28-0.02-0.45-0.05-0.63-0.05c-0.33,0.01-0.66,0.01-0.99,0.06
				c-0.95,0.16-1.33-0.89-1.09-1.55c0.09-0.24,0.24-0.5,0.43-0.66c0.46-0.38,0.94-0.73,1.44-1.05c0.84-0.53,1.74-0.51,2.61-0.11
				c0.59,0.28,1.11,0.36,1.77,0.15c0.66-0.21,1.39-0.13,2.03,0.26c0.08,0.4-0.09,0.67-0.36,0.93c-0.58,0.55-1.15,1.11-1.72,1.67
				c-0.35,0.35-0.38,0.44-0.07,0.77c0.48,0.53,0.99,1.04,1.52,1.52c0.32,0.29,0.6,0.28,0.84,0.09c0.24-0.2,0.28-0.54,0.08-0.9
				c-0.14-0.25-0.31-0.48-0.44-0.74c-0.3-0.61-0.11-1.06,0.51-1.34c0.39-0.18,0.76-0.4,1.14-0.61c0.72-0.4,1.41-0.47,2.16-0.02
				c0.88,0.53,1.79,1,2.69,1.5c0.14,0.08,0.29,0.17,0.39,0.29c0.15,0.17,0.17,0.37-0.05,0.53c-0.5,0.37-1.04,0.66-1.65,0.79
				c-0.14,0.03-0.33-0.03-0.47-0.1c-0.45-0.2-0.89-0.43-1.34-0.63c-0.14-0.06-0.29-0.09-0.49-0.16c-0.01,0.28-0.02,0.49-0.03,0.69
				c-0.02,0.7-0.27,1.28-0.9,1.65c-0.54,0.33-1.06,0.69-1.62,1c-0.46,0.26-0.95,0.48-1.45,0.66c-0.82,0.31-1.62,0.14-2.27-0.37
				c-0.77-0.61-1.46-1.32-2.13-2.03c-0.44-0.46-0.41-1.05-0.19-1.63C206.37,130.81,206.45,130.65,206.59,130.36z M207.68,128.07
				c-0.01-0.02-0.02-0.05-0.03-0.07c-0.26,0.11-0.54,0.18-0.76,0.33c-0.26,0.18-0.26,0.51-0.05,0.76c0.31,0.36,0.59,0.4,0.96,0.11
				c0.16-0.12,0.32-0.26,0.45-0.42c0.28-0.33,0.16-0.63-0.26-0.69C207.89,128.07,207.79,128.07,207.68,128.07z"/>
			<path class="st1" d="M169.91,119.21c0.59-0.03,1.11-0.14,1.59-0.49c0.3-0.22,0.46-0.47,0.47-0.81c0.01-0.2-0.01-0.42-0.06-0.61
				c-0.22-0.81-0.5-1.61-0.67-2.43c-0.14-0.68-0.2-1.39-0.22-2.08c-0.02-0.49,0.25-0.83,0.73-1.04c0.33-0.14,0.61-0.4,0.92-0.61
				c0.12-0.08,0.21-0.2,0.34-0.27c0.59-0.35,0.85-0.28,1.18,0.34c0.19,0.36,0.34,0.74,0.49,1.13c0.14,0.36,0.07,0.69-0.25,0.94
				c-0.25,0.19-0.33,0.44-0.32,0.76c0.03,0.97-0.01,1.93,0.13,2.9c0.13,0.87,0.14,1.78,0.07,2.66c-0.11,1.31-1.31,2.52-2.65,2.58
				c-0.49,0.02-0.98,0.15-1.47,0.14c-0.72-0.01-1.44-0.07-2.15-0.18c-0.29-0.04-0.55-0.27-0.82-0.42c-0.69-0.38-1.2-0.92-1.51-1.65
				c-0.08-0.18-0.12-0.4-0.12-0.6c-0.01-0.45-0.01-0.91,0.02-1.36c0.02-0.24,0.09-0.48,0.18-0.71c0.38-0.87,0.34-0.86,1.41-0.81
				c0.39,0.01,0.45,0.13,0.37,0.52c-0.1,0.45-0.14,0.88,0.12,1.31c0.14,0.23,0.3,0.4,0.55,0.46
				C168.79,118.99,169.35,119.09,169.91,119.21z"/>
			<path class="st1" d="M198.15,126.2c-0.11-0.49,0.16-0.8,0.42-1.07c1.03-1.08,2.08-2.15,3.11-3.22c0.21-0.22,0.44-0.44,0.6-0.69
				c0.39-0.63,1-0.94,1.67-1.07c0.87-0.17,1.76-0.26,2.61,0.13c0.04,0.02,0.06,0.05,0.14,0.12c-0.02,0.14,0,0.34-0.08,0.49
				c-0.21,0.44-0.44,0.88-0.69,1.3c-0.15,0.26-0.4,0.41-0.72,0.41c-0.42,0-0.75,0.19-1.05,0.46c-1.02,0.89-2.05,1.76-3.04,2.69
				c-0.63,0.59-1.32,0.81-2.15,0.64C198.69,126.33,198.42,126.26,198.15,126.2z"/>
			<path class="st1" d="M160.93,113.95c-0.06,0.19-0.1,0.4-0.19,0.58c-0.21,0.38-0.14,0.72,0,1.12c0.23,0.63,0.36,1.3,0.53,1.96
				c0.13,0.5,0.24,0.99,0.36,1.49c0.09,0.37,0.02,0.68-0.28,0.95c-0.17,0.14-0.29,0.34-0.44,0.5c-0.49,0.51-1.03,0.45-1.33-0.19
				c-0.26-0.56-0.44-1.14-0.66-1.72c-0.44-1.15-0.89-2.29-1.3-3.45c-0.26-0.76-0.26-1.5,0.39-2.1c0.34-0.32,0.66-0.67,1.04-0.95
				c0.31-0.23,0.59-0.19,0.82,0.09c0.34,0.41,0.64,0.85,0.94,1.3C160.89,113.64,160.89,113.8,160.93,113.95z"/>
			<path class="st1" d="M223.32,139.97c0.54-0.44,1.14-0.4,1.73-0.12c0.45,0.21,0.55,0.43,0.38,0.89c-0.15,0.42-0.41,0.8-0.9,0.83
				c-0.43,0.03-0.63,0.25-0.74,0.61c-0.02,0.06-0.04,0.12-0.06,0.18c-0.27,0.67-0.64,0.8-1.32,0.47c-0.09-0.05-0.19-0.08-0.28-0.13
				c-0.58-0.27-0.66-0.39-0.51-1c0.08-0.3,0-0.47-0.25-0.61c-0.05-0.03-0.1-0.08-0.15-0.11c-0.25-0.16-0.59-0.24-0.48-0.67
				c0.13-0.49,0.48-0.83,0.93-0.86c0.54-0.04,1.01,0.15,1.46,0.42C223.19,139.9,223.24,139.92,223.32,139.97z"/>
			<path class="st1" d="M116.29,144.83c-0.67-0.01-1.32-0.68-1.25-1.19c0.02-0.13,0.17-0.31,0.29-0.35
				c0.56-0.18,0.63-0.54,0.52-1.06c-0.1-0.44,0-0.59,0.41-0.77c0.24-0.1,0.51-0.18,0.77-0.21c0.55-0.06,1.09,0.45,1.08,1.01
				c0,0.34-0.25,0.51-0.5,0.65c-0.55,0.31-0.46,0.3-0.3,0.81c0.15,0.5,0.08,0.69-0.41,0.9C116.66,144.7,116.41,144.78,116.29,144.83
				z"/>
			<path class="st1" d="M212.09,123.95c0.12,0.39,0.22,0.72,0.34,1.09c0.28,0.03,0.56,0.05,0.84,0.1c0.6,0.11,0.95,0.87,0.65,1.39
				c-0.05,0.08-0.14,0.2-0.22,0.2c-0.47,0.04-0.94,0.08-1.4,0.06c-0.24-0.01-0.38-0.23-0.4-0.48c-0.04-0.52-0.35-0.72-0.85-0.77
				c-0.64-0.06-0.73-0.16-0.8-0.58c-0.17-0.91,0.18-1.28,1.1-1.18C211.6,123.82,211.86,123.9,212.09,123.95z"/>
			<path class="st1" d="M125.52,130.62c-0.8,0.03-1.1-0.29-0.99-1.01c0.06-0.36,0.23-0.53,0.66-0.62c0.66-0.15,0.66-0.15,0.74-0.82
				c0.06-0.43,0.13-0.5,0.57-0.59c0.39-0.08,0.76-0.27,1.2-0.07c0.37,0.16,0.41,0.45,0.41,0.75c0,0.3,0.01,0.64-0.36,0.78
				c-0.19,0.07-0.39,0.14-0.59,0.18c-0.28,0.05-0.43,0.2-0.48,0.48c-0.04,0.23-0.04,0.56-0.19,0.66c-0.23,0.17-0.57,0.19-0.86,0.27
				C125.61,130.62,125.56,130.61,125.52,130.62z"/>
			<path class="st1" d="M132.41,127.62c-0.07,0.18-0.13,0.33-0.18,0.49c-0.19,0.59-0.22,0.62-0.8,0.64
				c-0.25,0.01-0.5-0.01-0.74,0.01c-0.31,0.02-0.48-0.14-0.5-0.42c-0.02-0.28,0-0.57,0.04-0.85c0.03-0.26,0.19-0.4,0.46-0.4
				c0.08,0,0.16-0.01,0.25-0.01c0.46-0.03,0.79-0.23,0.9-0.7c0.07-0.3,0.21-0.56,0.53-0.61c0.45-0.06,0.94-0.12,1.29,0.22
				c0.14,0.14,0.16,0.45,0.15,0.68c-0.01,0.65-0.05,0.67-0.69,0.78C132.87,127.49,132.64,127.56,132.41,127.62z"/>
			<path class="st1" d="M131.59,141.13c-0.57,0-1.07-0.54-1.03-1.12c0.02-0.27,0.21-0.4,0.42-0.47c0.28-0.11,0.58-0.19,0.88-0.26
				c0.47-0.1,0.67,0.02,0.83,0.48c0.35,0.97,0.14,1.29-0.91,1.36C131.71,141.13,131.65,141.13,131.59,141.13z"/>
		</g>
		<g>
			<path class="st1" d="M124.18,205.2l1.31-0.84l-0.69-1.07l0.05-0.03c0.28-0.18,0.55-0.28,0.77-0.28c0,0,0,0,0,0
				c0.22,0,0.4,0.1,0.54,0.32c0.11,0.16,0.18,0.33,0.21,0.5l0.06,0.3l1.44-0.75l-0.04-0.18c-0.07-0.3-0.21-0.62-0.42-0.94
				c-0.35-0.54-0.86-0.93-1.42-1.06c-0.67-0.16-1.45,0.02-2.21,0.51l-0.01,0.01l-0.42-0.66l-1.31,0.84l0.42,0.66l-3.93,2.53
				l1.04,1.62l3.93-2.53L124.18,205.2z"/>
			<path class="st1" d="M127.92,207.6l-2.94,2.27c-0.09,0.07-0.21,0.13-0.32,0.17c-0.32,0.09-0.77,0.05-1.05-0.32
				c-0.14-0.18-0.51-0.67,0.55-1.49l2.67-2.06l-1.17-1.53l-2.87,2.21c-0.74,0.57-1.17,1.19-1.27,1.83
				c-0.09,0.55,0.07,1.12,0.47,1.62c0.49,0.64,1.09,0.87,1.55,0.93l-0.39,0.36l1.06,1.38l0.19-0.16c0.38-0.32,0.8-0.68,1.33-1.09
				l3.38-2.61L127.92,207.6z"/>
			<path class="st1" d="M128.13,215c-0.18-0.2-0.3-0.42,0.27-0.94l1.7-1.56l0.94,1.02l1.15-1.06l-0.94-1.02l1.26-1.16l-1.61-1.08
				l-0.92,0.85l-0.56-0.61l-1.15,1.06l0.56,0.61l-1.82,1.68c-0.61,0.56-0.92,1.06-0.96,1.57c-0.04,0.47,0.17,0.99,0.56,1.42
				c0.31,0.34,0.64,0.61,0.89,0.73l0.15,0.07l1.14-1.09l-0.26-0.16C128.39,215.25,128.26,215.14,128.13,215z"/>
			<path class="st1" d="M136.71,216.68l-1.42-1.3l-2.51,2.74c-0.08,0.09-0.18,0.16-0.29,0.22c-0.3,0.14-0.75,0.18-1.09-0.13
				c-0.22-0.2-0.29-0.41-0.25-0.66c0.05-0.26,0.23-0.56,0.53-0.9l2.27-2.49l-1.42-1.3l-2.44,2.67c-0.63,0.69-0.94,1.37-0.93,2.02
				c0.01,0.56,0.27,1.09,0.74,1.52c0.6,0.55,1.22,0.66,1.69,0.65l-0.33,0.42l1.29,1.17l0.16-0.19c0.32-0.38,0.67-0.8,1.12-1.3
				L136.71,216.68z"/>
			<path class="st1" d="M138.91,220.49c0.12,0.09,0.2,0.18,0.28,0.26l0.19,0.21l1.12-1.47l-0.13-0.14c-0.09-0.1-0.16-0.17-0.28-0.27
				c-0.38-0.29-0.95-0.44-1.56-0.3l0.33-0.47l-1.38-1.06l-0.14,0.21c-0.27,0.41-0.58,0.84-1.08,1.49l-2.51,3.29l1.53,1.17l1.95-2.56
				c0.09-0.12,0.2-0.22,0.28-0.3C137.94,220.18,138.47,220.15,138.91,220.49z"/>
			<path class="st1" d="M143.06,221.08c-0.79-0.51-1.64-0.63-2.48-0.36c-0.74,0.24-1.42,0.78-1.89,1.52
				c-0.51,0.79-0.69,1.61-0.52,2.38c0.17,0.78,0.69,1.47,1.51,2c0.82,0.53,1.52,0.74,1.97,0.82l0.19,0.04l0.53-1.4l-0.27-0.06
				c-0.47-0.1-0.9-0.29-1.41-0.61c-0.27-0.18-1.08-0.79-0.72-1.68l3.19,2.05l0.13-0.14c0.07-0.08,0.22-0.25,0.4-0.53
				c0.42-0.65,0.63-1.36,0.6-2.01C144.26,222.28,143.83,221.58,143.06,221.08z M140.8,222.49c0.33-0.3,0.86-0.56,1.4-0.22
				c0.23,0.15,0.37,0.33,0.41,0.56c0.05,0.25-0.02,0.52-0.12,0.75L140.8,222.49z"/>
			<path class="st1" d="M151.33,225.95c-0.29-0.4-0.78-0.78-1.32-1.04c-1.28-0.61-2.54-0.27-3.06,0.81
				c-0.21,0.43-0.4,1.33,0.76,2.47c0.55,0.55,0.54,0.71,0.45,0.9c-0.12,0.24-0.38,0.27-0.8,0.07c-0.41-0.2-0.87-0.63-1.06-0.93
				l-0.17-0.26l-1.03,1.21l0.11,0.15c0.33,0.46,0.88,0.89,1.5,1.19c0.51,0.24,0.99,0.36,1.44,0.36c0.79,0,1.43-0.38,1.77-1.09
				c0.39-0.85,0.17-1.65-0.68-2.52c-0.59-0.59-0.59-0.74-0.52-0.89c0.05-0.1,0.12-0.15,0.21-0.18c0.12-0.03,0.28,0,0.46,0.09
				c0.48,0.23,0.79,0.63,0.87,0.74l0.17,0.25l1.02-1.18L151.33,225.95z"/>
			<path class="st1" d="M156.87,228.62c-0.33-0.74-0.95-1.3-1.8-1.61c-0.87-0.32-1.73-0.3-2.47,0.04c-0.76,0.35-1.34,1.03-1.68,1.95
				c-0.33,0.89-0.31,1.76,0.05,2.51c0.34,0.71,0.98,1.27,1.79,1.57c0.39,0.14,0.8,0.21,1.19,0.21c0.4,0,0.78-0.07,1.14-0.22
				c0.82-0.33,1.44-1.03,1.8-2.01C157.2,230.2,157.2,229.35,156.87,228.62z M155.02,230.43c-0.35,0.96-1.05,1.47-1.7,1.24
				c-0.33-0.12-0.55-0.37-0.65-0.73c-0.1-0.37-0.06-0.83,0.11-1.3c0.27-0.74,0.88-1.51,1.72-1.2
				C155.37,228.75,155.23,229.84,155.02,230.43z"/>
			
				<rect x="154.6" y="229.33" transform="matrix(0.2664 -0.9639 0.9639 0.2664 -105.3067 322.2264)" class="st1" width="8.88" height="1.94"/>
			<path class="st1" d="M164.37,233.48c-0.02,0.12-0.07,0.24-0.13,0.34c-0.19,0.28-0.55,0.54-1,0.46c-0.29-0.06-0.46-0.19-0.56-0.43
				c-0.1-0.25-0.1-0.6-0.02-1.04l0.64-3.31l-1.89-0.36l-0.69,3.55c-0.18,0.92-0.09,1.66,0.26,2.21c0.3,0.47,0.79,0.79,1.43,0.91
				c0.8,0.16,1.39-0.07,1.78-0.33l-0.06,0.53l1.71,0.33l0.03-0.24c0.07-0.46,0.15-1.02,0.28-1.69l0.81-4.19l-1.89-0.36
				L164.37,233.48z"/>
			<path class="st1" d="M170.28,228.81l-1.93,0.26l-0.13,1.25l-0.82-0.08l-0.16,1.55l0.82,0.08l-0.25,2.46
				c-0.09,0.83,0.02,1.4,0.33,1.81c0.28,0.38,0.78,0.63,1.36,0.69c0.18,0.02,0.35,0.03,0.51,0.03c0.25,0,0.47-0.02,0.64-0.07
				l0.16-0.04l0.13-1.57l-0.3,0.05c-0.1,0.02-0.28,0.04-0.51,0.01c-0.27-0.03-0.5-0.12-0.42-0.88l0.24-2.3l1.38,0.14l0.16-1.55
				l-1.38-0.14L170.28,228.81z"/>
			
				<rect x="169.77" y="232.86" transform="matrix(0.0457 -0.999 0.999 0.0457 -68.5934 395.8455)" class="st1" width="6.23" height="1.94"/>
			<path class="st1" d="M173.14,228.31c-0.6-0.02-1.07,0.39-1.1,0.98c-0.01,0.28,0.08,0.54,0.26,0.73c0.18,0.2,0.44,0.32,0.74,0.33
				c0.02,0,0.04,0,0.06,0c0.28,0,0.53-0.09,0.72-0.26c0.2-0.18,0.31-0.43,0.33-0.71l0-0.01
				C174.15,228.78,173.74,228.34,173.14,228.31z"/>
			<path class="st1" d="M177.86,230.61c-1.92,0.06-3.18,1.42-3.11,3.39c0.03,0.95,0.37,1.75,0.97,2.32
				c0.55,0.51,1.31,0.79,2.13,0.79c0.04,0,0.08,0,0.12,0c1.59-0.05,3.16-1.12,3.09-3.4C181,231.83,179.69,230.55,177.86,230.61z
				 M179.09,233.81c0.03,1.03-0.43,1.76-1.12,1.78c-0.84,0.02-1.22-0.83-1.25-1.68c-0.02-0.79,0.26-1.73,1.16-1.76
				c0.38-0.01,0.67,0.15,0.89,0.49C178.96,232.93,179.08,233.36,179.09,233.81z"/>
			<path class="st1" d="M184.95,229.98c-0.74,0.1-1.26,0.48-1.58,0.88l-0.12-0.52l-1.73,0.24l0.05,0.25
				c0.09,0.44,0.18,0.96,0.28,1.68l0.59,4.24l1.92-0.27l-0.5-3.59c-0.02-0.18-0.03-0.31-0.01-0.4c0.07-0.33,0.32-0.75,0.81-0.82
				c0.57-0.08,0.91,0.29,1.03,1.09l0.48,3.46l1.91-0.27l-0.5-3.62C187.31,230.37,186.04,229.83,184.95,229.98z"/>
			<path class="st1" d="M195.81,232.26c-0.2,0.16-0.48,0.35-0.96,0.49c-0.89,0.25-1.65-0.2-1.92-1.15
				c-0.14-0.47-0.11-0.93,0.09-1.29c0.19-0.34,0.51-0.58,0.93-0.7c0.47-0.13,0.81-0.11,1.02-0.08l0.28,0.04l-0.07-1.59l-0.19-0.03
				c-0.42-0.07-1.02-0.02-1.53,0.13c-0.99,0.28-1.74,0.84-2.17,1.61c-0.4,0.73-0.49,1.62-0.24,2.51c0.42,1.49,1.5,2.33,2.89,2.33
				c0.34,0,0.69-0.05,1.06-0.16c0.74-0.21,1.3-0.54,1.58-0.78l0.14-0.12l-0.7-1.4L195.81,232.26z"/>
			<path class="st1" d="M198.08,226.48c-1.79,0.7-2.52,2.4-1.8,4.23c0.35,0.89,0.93,1.53,1.69,1.86c0.36,0.16,0.75,0.23,1.15,0.23
				c0.41,0,0.82-0.08,1.23-0.24c0.78-0.3,1.4-0.85,1.75-1.54c0.4-0.79,0.41-1.72,0.03-2.7
				C201.45,226.58,199.78,225.82,198.08,226.48z M197.94,228.73c0.08-0.39,0.3-0.66,0.66-0.8c0.13-0.05,0.25-0.07,0.36-0.07
				c0.66,0,1.14,0.73,1.33,1.23c0.37,0.96,0.18,1.8-0.46,2.05c-0.32,0.13-0.66,0.09-0.97-0.12c-0.32-0.21-0.59-0.58-0.77-1.05v0
				C197.93,229.52,197.87,229.08,197.94,228.73z"/>
			<path class="st1" d="M207.49,221.88c-0.44,0.24-0.75,0.56-0.94,0.95c-0.12,0.21-0.21,0.45-0.26,0.71
				c-0.57-0.31-1.25-0.3-1.86,0.03c-0.56,0.31-0.93,0.77-1.1,1.35l-0.28-0.43l-1.51,0.84l0.14,0.21c0.25,0.38,0.51,0.83,0.87,1.46
				l2.08,3.75l1.65-0.92l-1.77-3.19c-0.07-0.13-0.12-0.26-0.13-0.39c-0.07-0.34,0.03-0.78,0.39-0.98c0.22-0.12,0.42-0.13,0.62-0.02
				c0.21,0.11,0.42,0.33,0.59,0.65l1.73,3.12l1.65-0.92l-1.79-3.23c-0.06-0.1-0.11-0.23-0.15-0.38c-0.05-0.31,0.03-0.72,0.4-0.93
				c0.23-0.13,0.44-0.13,0.65-0.02c0.23,0.12,0.46,0.38,0.67,0.77l1.66,2.99l1.65-0.92l-1.76-3.18
				C209.73,221.46,208.41,221.37,207.49,221.88z"/>
			<path class="st1" d="M212.94,218.11c-0.58,0.44-0.94,1-1.04,1.63l-0.37-0.42l-1.39,1.04l0.16,0.19c0.35,0.43,0.74,0.91,1.18,1.5
				l3.85,5.14l1.54-1.15l-1.59-2.13c0,0,0,0,0.01,0c0.46,0,0.96-0.17,1.39-0.49c1.1-0.83,1.67-2.55,0.3-4.38
				C215.87,217.59,214.17,217.19,212.94,218.11z M215.46,222.35c-0.4,0.3-0.95,0.28-1.35-0.05c-0.08-0.06-0.15-0.14-0.24-0.25
				l-0.53-0.71c-0.05-0.07-0.1-0.16-0.15-0.28c-0.22-0.48-0.08-1.06,0.32-1.36c0.71-0.53,1.48-0.02,1.93,0.57
				C215.93,220.92,216.19,221.8,215.46,222.35z"/>
			<path class="st1" d="M222.36,216.22l-1.42-1.53c-1.17-1.26-2.49-1.32-3.73-0.18c-0.6,0.56-1.07,1.27-1.25,1.9l-0.05,0.17
				l1.27,0.75l0.08-0.3c0.11-0.43,0.42-0.92,0.78-1.25c0.27-0.25,0.53-0.37,0.76-0.33c0.14,0.02,0.26,0.09,0.35,0.17
				c-0.92,0.89-1.42,1.77-1.45,2.57c-0.02,0.56,0.17,1.07,0.58,1.51c0.35,0.38,0.87,0.62,1.43,0.62c0.46,0,0.96-0.17,1.4-0.58
				c0.44-0.41,0.72-0.92,0.79-1.46l0.32,0.26l1.32-1.22l-0.22-0.17C223.08,216.96,222.74,216.63,222.36,216.22z M219.6,218.29
				c-0.13-0.14-0.19-0.3-0.18-0.47c0.02-0.33,0.27-0.74,0.74-1.19l0.38,0.41c0.06,0.07,0.11,0.14,0.14,0.21
				c0.14,0.29,0.12,0.75-0.24,1.08C220.24,218.51,219.93,218.65,219.6,218.29z"/>
			<path class="st1" d="M223.58,208.74c-0.56,0.03-1.1,0.3-1.5,0.77c-0.49,0.56-0.64,1.18-0.62,1.7l-0.42-0.32l-1.15,1.31l0.2,0.15
				c0.36,0.27,0.76,0.61,1.31,1.09l3.22,2.83l1.28-1.45l-2.72-2.39c-0.13-0.12-0.22-0.22-0.27-0.3c-0.17-0.3-0.24-0.77,0.08-1.15
				c0.38-0.43,0.88-0.38,1.49,0.16l2.62,2.31l1.27-1.44l-2.74-2.42C224.94,208.98,224.25,208.7,223.58,208.74z"/>
			<path class="st1" d="M231.87,210.3c-0.09-0.97-0.58-1.99-1.87-3.91l-2.54-3.75l-1.21,1.68l2.08,2.67c0.08,0.1,0.16,0.2,0.24,0.3
				c-0.12-0.04-0.25-0.08-0.37-0.12l-3.28-1.01l-1.23,1.72l5.88,1.47c0.13,0.02,0.17,0.05,0.18,0.06c0.01,0,0.03,0.03,0.08,0.15
				c0.17,0.33,0.27,0.74,0.25,1.07c0,0.4-0.1,0.7-0.15,0.84l-0.09,0.22l1.61,0.61l0.1-0.18
				C231.69,211.87,231.97,211.22,231.87,210.3z"/>
		</g>
	</g>
	<g>
		<defs>
			<rect id="SVGID_1_" x="7.78" y="7.78" width="334.44" height="334.44"/>
		</defs>
		<clipPath id="SVGID_00000106846748056569133970000015351336277940022957_">
			<use xlink:href="#SVGID_1_"  style="overflow:visible;"/>
		</clipPath>
		<path style="clip-path:url(#SVGID_00000106846748056569133970000015351336277940022957_);fill:#29265B;" d="M175.01,18.1
			C88.3,18.1,18.1,88.3,18.1,175.01s70.2,156.91,156.91,156.91s156.91-70.2,156.91-156.91C331.92,88.3,261.21,18.1,175.01,18.1z
			 M175.01,342.25c-92.39,0-167.23-75.36-167.23-167.23S82.62,7.78,175.01,7.78s167.23,74.84,167.23,167.23
			S266.89,342.25,175.01,342.25z"/>
	</g>
</g>
</svg>
