<?xml version="1.0" encoding="utf-8"?>
<!-- Generator: Adobe Illustrator 26.0.1, SVG Export Plug-In . SVG Version: 6.00 Build 0)  -->
<svg version="1.1" id="Layer_1" xmlns="http://www.w3.org/2000/svg" xmlns:xlink="http://www.w3.org/1999/xlink" x="0px" y="0px"
	 viewBox="0 0 350 350" style="enable-background:new 0 0 350 350;" xml:space="preserve">
<style type="text/css">
	.st0{fill:#ECECEC;}
	.st1{fill:#312782;}
	.st2{fill:#1D70B7;}
</style>
<g>
	<rect x="7.78" y="118.79" class="st0" width="117.35" height="112.42"/>
	<g>
		<polygon class="st1" points="113.54,220.11 82.2,220.11 111.79,172.72 72.21,227.68 121.45,227.68 121.45,158.8 113.54,169.85 		
			"/>
		<polygon class="st1" points="19.36,220.11 19.36,129.89 113.54,129.89 113.54,160.09 121.45,153.44 121.45,122.32 11.46,122.32 
			11.46,227.68 33.31,227.68 42.31,220.11 		"/>
		<polygon class="st2" points="110.55,162.61 110.55,132.75 86.04,132.75 66.17,188.54 45.48,132.75 21.87,132.75 21.87,216.88 
			36.6,216.88 36.6,148.19 57.19,203.28 62.28,203.28 81.27,187.29 95.32,149.39 95.32,175.44 		"/>
		<polygon class="st2" points="95.32,216.89 110.55,216.89 110.55,178.74 95.32,203.14 		"/>
		<polygon class="st1" points="70.09,227.7 121.73,155.43 35.97,227.7 		"/>
	</g>
	<path class="st1" d="M238.67,159.33c-0.74,0.74-1.11,1.64-1.11,2.69c0,1.02,0.37,1.88,1.11,2.59c0.74,0.71,1.64,1.06,2.69,1.06
		c1.02,0,1.88-0.35,2.59-1.06c0.71-0.71,1.06-1.57,1.06-2.59c0-1.05-0.35-1.95-1.06-2.69c-0.71-0.74-1.57-1.11-2.59-1.11
		C240.31,158.22,239.41,158.59,238.67,159.33z"/>
	<path class="st1" d="M255.04,162.02c0,1.02,0.37,1.88,1.11,2.59c0.74,0.71,1.64,1.06,2.69,1.06c1.02,0,1.88-0.35,2.59-1.06
		c0.71-0.71,1.06-1.57,1.06-2.59c0-1.05-0.35-1.95-1.06-2.69c-0.71-0.74-1.57-1.11-2.59-1.11c-1.05,0-1.95,0.37-2.69,1.11
		C255.41,160.07,255.04,160.96,255.04,162.02z"/>
	<path class="st1" d="M265.92,159.33c-0.74,0.74-1.11,1.64-1.11,2.69c0,1.02,0.37,1.88,1.11,2.59c0.74,0.71,1.64,1.06,2.69,1.06
		c1.02,0,1.88-0.35,2.59-1.06c0.71-0.71,1.06-1.57,1.06-2.59c0-1.05-0.35-1.95-1.06-2.69c-0.71-0.74-1.57-1.11-2.59-1.11
		C267.56,158.22,266.66,158.59,265.92,159.33z"/>
	<path class="st1" d="M341.86,182.75c-0.49-1.97-0.95-3.66-1.38-5.06c-0.43-1.4-0.86-2.56-1.28-3.48c-1.45-3.09-3.26-4.64-5.43-4.64
		c-0.86,0-1.79,0.36-2.79,1.09c-1,0.73-2.04,1.74-3.11,3.03c-1.07,1.3-2.15,2.88-3.23,4.74c-1.09,1.86-2.12,3.92-3.11,6.19h-2.17
		h-1.48h-5.53v-16.24l-6.27,1.78v14.46h-6.12v-16.24l-6.27,1.78v14.46h-6.27v-16.24l-6.27,1.78v14.46h-6.42h-1.48h-6.47v-16.24
		l-6.27,1.78v14.46h-7.8h-1.48h-6.47v-16.24l-6.27,1.78v14.46h-8.05h-1.23h-15.65h-0.99H196.7h-0.99h-15.89h-0.99h-15.65h-1.23h-3.9
		c-0.23-1.91-0.6-3.63-1.11-5.16c-0.51-1.53-1.11-2.89-1.8-4.07c-0.69-1.19-1.43-2.21-2.22-3.08c-0.79-0.87-1.58-1.62-2.37-2.25
		c-1.84-1.45-3.87-2.47-6.07-3.06l-1.38,5.43c1.94,0.86,3.49,1.85,4.64,2.99c1.15,1.14,2.02,2.28,2.62,3.43
		c0.59,1.15,0.99,2.25,1.18,3.28c0.2,1.04,0.3,1.87,0.3,2.49h-11.16c-0.59,0-1.14-0.03-1.63-0.1c-0.49-0.07-0.92-0.15-1.28-0.25
		c-0.43-0.13-0.82-0.26-1.18-0.39l-0.44,5.38c0.36,0.13,0.76,0.26,1.18,0.39c0.36,0.1,0.79,0.18,1.28,0.25
		c0.49,0.07,1.04,0.1,1.63,0.1h21.72h1.23h15.65h0.99h15.89h0.99h15.89h0.99h15.65h1.23h20.78h1.48h20.53h1.48h43.14h1.48h1.73
		c1.28,0,2.2-0.1,2.76-0.3c0.72-0.3,1.37-0.94,1.92-1.93c2.4,1.22,4.45,2.24,6.15,3.06c1.69,0.82,3.04,1.43,4.02,1.83
		c0.49,0.23,0.95,0.34,1.38,0.34c1.18,0,2.43-1.35,3.75-4.05c0.69-1.32,1.07-2.4,1.14-3.26
		C342.27,185.09,342.16,184.1,341.86,182.75z M332.38,184.85c-1.48-0.74-2.91-1.64-4.29-2.69c0.36-0.69,0.81-1.47,1.36-2.34
		c0.54-0.87,1.06-1.56,1.55-2.05c0.82-0.76,1.4-1.14,1.73-1.14c0.95,0,1.75,0.91,2.39,2.74c0.64,1.83,1.16,4.22,1.55,7.18
		C335.29,186.15,333.86,185.59,332.38,184.85z"/>
	<path class="st2" d="M173.39,221.24c0,0.62-0.1,1.16-0.31,1.63c-0.21,0.47-0.5,0.86-0.88,1.16c-0.38,0.31-0.83,0.54-1.35,0.69
		c-0.52,0.15-1.1,0.23-1.73,0.23c-0.67,0-1.24-0.1-1.72-0.3c-0.48-0.2-0.88-0.46-1.19-0.78c-0.31-0.32-0.54-0.69-0.68-1.1
		c-0.14-0.41-0.21-0.83-0.21-1.26c0-0.82,0.15-1.68,0.45-2.57c0.3-0.89,0.66-1.67,1.07-2.35H165c-0.17,0.3-0.39,0.62-0.64,0.96
		c-0.25,0.34-0.5,0.74-0.73,1.2c-0.23,0.46-0.43,1.01-0.59,1.65c-0.17,0.64-0.25,1.41-0.25,2.29c0,0.59,0.14,1.18,0.42,1.77
		c0.28,0.59,0.69,1.13,1.24,1.62c0.55,0.48,1.22,0.87,2.02,1.18c0.8,0.3,1.72,0.45,2.77,0.45c1.14,0,2.16-0.15,3.05-0.44
		c0.9-0.29,1.65-0.75,2.26-1.38c0.61-0.63,1.07-1.43,1.39-2.4c0.32-0.97,0.48-2.15,0.48-3.53v-13.81l-3.02,0.85V221.24z"/>
	<path class="st2" d="M204.89,218.49c-0.17-0.5-0.25-1.18-0.25-2.03c0-0.4,0.06-0.72,0.19-0.97c0.13-0.25,0.3-0.45,0.54-0.59
		c0.23-0.14,0.49-0.24,0.8-0.28c0.3-0.05,0.63-0.07,0.97-0.07c0.43,0,0.87,0.02,1.32,0.06c0.45,0.04,0.89,0.09,1.31,0.15
		c0.42,0.06,0.81,0.13,1.16,0.21c0.36,0.08,0.65,0.15,0.89,0.21v-2.66c-0.76-0.14-1.56-0.27-2.4-0.38
		c-0.84-0.11-1.59-0.15-2.26-0.12c-1.82,0.05-3.25,0.45-4.29,1.2s-1.56,1.77-1.56,3.05c0,0.67,0.05,1.29,0.15,1.89
		c0.1,0.59,0.31,1.1,0.63,1.51h-3.16h-0.64h-1.81c-0.03-0.25-0.08-0.56-0.14-0.9c-0.24-0.95-0.46-1.76-0.67-2.43
		c-0.21-0.67-0.41-1.23-0.62-1.68c-0.7-1.49-1.57-2.23-2.61-2.23c-0.41,0-0.86,0.18-1.34,0.52c-0.48,0.35-0.98,0.84-1.5,1.46
		c-0.51,0.63-1.03,1.39-1.56,2.28c-0.52,0.9-1.02,1.89-1.5,2.98h-1.05h-0.71h-1.95v-13.52l-3.02,0.85v15.26h4.97h0.71h0.83
		c0.62,0,1.06-0.05,1.33-0.14c0.35-0.14,0.66-0.45,0.93-0.93c1.16,0.59,2.14,1.08,2.96,1.47c0.82,0.4,1.46,0.69,1.94,0.88
		c0.24,0.11,0.46,0.17,0.66,0.17c0.49,0,1.01-0.48,1.54-1.45h2.59h0.64h12.98v-2.59h-6.37
		C205.27,219.38,205.06,218.99,204.89,218.49z M191.78,219.78c-0.71-0.36-1.4-0.79-2.07-1.3c0.17-0.33,0.39-0.71,0.65-1.13
		c0.26-0.42,0.51-0.75,0.75-0.99c0.4-0.36,0.67-0.55,0.83-0.55c0.46,0,0.84,0.44,1.15,1.32c0.31,0.88,0.56,2.03,0.75,3.46
		C193.18,220.4,192.5,220.13,191.78,219.78z"/>
	<path class="st2" d="M215.9,206.07l5.7-1.69v-1.54l-1.78,0.52c-0.14-0.02-0.31-0.06-0.5-0.13c-0.19-0.07-0.37-0.17-0.55-0.28
		c-0.17-0.12-0.32-0.27-0.44-0.44c-0.12-0.17-0.18-0.36-0.18-0.57c0-0.22,0.09-0.44,0.26-0.67c0.17-0.22,0.47-0.33,0.88-0.33
		c0.43,0,0.78,0.15,1.07,0.45c0.32-0.27,0.59-0.5,0.82-0.69c0.23-0.19,0.42-0.35,0.58-0.48c-0.32-0.41-0.64-0.68-0.97-0.8
		c-0.33-0.12-0.68-0.18-1.05-0.18c-0.35,0-0.72,0.07-1.12,0.21c-0.4,0.14-0.76,0.35-1.1,0.63c-0.34,0.28-0.62,0.61-0.84,1
		c-0.22,0.39-0.33,0.83-0.33,1.32c0,0.14,0.03,0.31,0.08,0.5c0.06,0.19,0.13,0.37,0.23,0.54c0.1,0.17,0.21,0.31,0.35,0.43
		c0.13,0.12,0.29,0.19,0.46,0.23l-1.57,0.47V206.07z"/>
	<path class="st2" d="M223.98,210.85v-4.8l-2.92,0.95v3.78c0,0.81-0.06,1.28-0.17,1.4c-0.48-0.62-1-1.2-1.58-1.75
		c-0.58-0.55-1.16-1.06-1.73-1.54c-0.58-0.48-1.14-0.93-1.69-1.36c-0.55-0.42-1.02-0.81-1.41-1.18l-1.38,2.66
		c0.41,0.33,0.88,0.69,1.41,1.07c0.53,0.38,1.07,0.79,1.63,1.24c0.55,0.44,1.1,0.93,1.64,1.45c0.54,0.52,1.03,1.09,1.47,1.71
		c-0.27,0.27-0.6,0.59-0.99,0.96c-0.39,0.37-0.82,0.76-1.3,1.16c-0.47,0.4-0.99,0.82-1.53,1.24c-0.55,0.42-1.11,0.82-1.7,1.2v3.21
		h10.79v-2.45c0-1.59-0.66-3.39-1.97-5.42C223.51,213.3,223.98,212.12,223.98,210.85z M216.47,219.67c0.46-0.29,0.88-0.55,1.25-0.8
		c0.37-0.25,0.72-0.5,1.05-0.76c0.32-0.26,0.64-0.53,0.94-0.81c0.3-0.28,0.62-0.58,0.95-0.91c0.19,0.27,0.36,0.56,0.52,0.87
		c0.16,0.31,0.3,0.61,0.43,0.9c0.13,0.29,0.23,0.57,0.32,0.83c0.09,0.26,0.15,0.49,0.2,0.68H216.47z"/>
	<polygon class="st2" points="226.96,222.26 229.97,222.26 229.97,206.15 226.96,207 	"/>
	<path class="st2" d="M247.83,210.03c0.34-0.34,0.51-0.76,0.51-1.25c0-0.51-0.17-0.94-0.51-1.3c-0.34-0.36-0.76-0.54-1.25-0.54
		c-0.51,0-0.94,0.18-1.3,0.54c-0.36,0.36-0.53,0.79-0.53,1.3c0,0.49,0.18,0.91,0.53,1.25c0.36,0.34,0.79,0.51,1.3,0.51
		C247.08,210.54,247.49,210.37,247.83,210.03z"/>
	<path class="st2" d="M254.24,219.67h-10.17c-0.67,0-1.18-0.1-1.56-0.31c-0.37-0.2-0.63-0.48-0.78-0.83
		c-0.15-0.35-0.21-0.75-0.17-1.2c0.04-0.45,0.14-0.93,0.31-1.43c0.17-0.5,0.38-1,0.63-1.51c0.25-0.51,0.52-0.99,0.81-1.45H241
		c-0.18,0.3-0.39,0.62-0.64,0.96c-0.25,0.34-0.5,0.74-0.73,1.2c-0.23,0.46-0.43,1.01-0.59,1.65c-0.17,0.64-0.25,1.41-0.25,2.29
		c0,0.59,0.12,1.08,0.36,1.5c0.24,0.41,0.57,0.75,1,1c0.43,0.25,0.93,0.44,1.5,0.55c0.57,0.11,1.19,0.17,1.85,0.17h13.59v-10.39
		l-2.85,0.9V219.67z"/>
	<path class="st2" d="M252.54,210.03c0.34-0.34,0.51-0.76,0.51-1.25c0-0.51-0.17-0.94-0.51-1.3c-0.34-0.36-0.76-0.54-1.25-0.54
		c-0.51,0-0.94,0.18-1.29,0.54c-0.36,0.36-0.54,0.79-0.54,1.3c0,0.49,0.18,0.91,0.54,1.25c0.36,0.34,0.79,0.51,1.29,0.51
		C251.78,210.54,252.2,210.37,252.54,210.03z"/>
	<path class="st2" d="M275.89,216.33c-0.21-0.67-0.41-1.23-0.62-1.68c-0.7-1.49-1.57-2.23-2.61-2.23c-0.41,0-0.86,0.18-1.34,0.52
		c-0.48,0.35-0.98,0.84-1.5,1.46c-0.52,0.63-1.03,1.39-1.56,2.28c-0.52,0.9-1.02,1.89-1.5,2.98h-1.05H265h-1.95v-13.52l-3.02,0.85
		v15.26H265h0.71h0.83c0.62,0,1.06-0.05,1.33-0.14c0.35-0.14,0.66-0.45,0.93-0.93c1.16,0.59,2.14,1.08,2.96,1.47
		c0.82,0.4,1.46,0.69,1.94,0.88c0.24,0.11,0.46,0.17,0.67,0.17c0.57,0,1.17-0.65,1.81-1.95c0.33-0.63,0.51-1.16,0.55-1.57
		c0.03-0.3-0.02-0.78-0.17-1.43C276.32,217.81,276.09,217,275.89,216.33z M271.99,219.78c-0.71-0.36-1.4-0.79-2.07-1.3
		c0.17-0.33,0.39-0.71,0.65-1.13c0.26-0.42,0.51-0.75,0.75-0.99c0.4-0.36,0.67-0.55,0.83-0.55c0.46,0,0.84,0.44,1.15,1.32
		c0.31,0.88,0.56,2.03,0.75,3.46C273.39,220.4,272.7,220.13,271.99,219.78z"/>
	<path class="st2" d="M298.8,210.54c0.49,0,0.91-0.17,1.25-0.51c0.34-0.34,0.51-0.76,0.51-1.25c0-0.51-0.17-0.94-0.51-1.3
		c-0.34-0.36-0.76-0.54-1.25-0.54c-0.51,0-0.94,0.18-1.3,0.54c-0.36,0.36-0.53,0.79-0.53,1.3c0,0.49,0.18,0.91,0.53,1.25
		C297.86,210.37,298.29,210.54,298.8,210.54z"/>
	<path class="st2" d="M309.95,219.67h-2.45h-0.71h-0.24c-0.35,0-0.67-0.09-0.97-0.26c-0.3-0.17-0.56-0.45-0.78-0.83
		c-0.67-1.16-1.26-2.17-1.77-3.03c-0.51-0.86-0.99-1.57-1.44-2.13c-0.44-0.55-0.89-0.97-1.33-1.25c-0.44-0.28-0.93-0.42-1.45-0.42
		c-0.48,0-0.94,0.07-1.39,0.23c-0.45,0.15-0.88,0.35-1.29,0.61c-0.41,0.25-0.8,0.55-1.15,0.88c-0.36,0.33-0.66,0.67-0.91,1.02
		l1.78,1.64c0.41-0.51,0.79-0.88,1.13-1.12c0.34-0.24,0.72-0.36,1.13-0.36c0.3,0,0.58,0.09,0.84,0.26c0.26,0.18,0.54,0.46,0.83,0.84
		c0.29,0.39,0.61,0.9,0.96,1.54c0.35,0.64,0.75,1.43,1.21,2.37h-10.03h-0.71h-1.76c-0.11-0.92-0.29-1.75-0.53-2.49
		c-0.25-0.74-0.53-1.39-0.87-1.96c-0.33-0.57-0.69-1.06-1.07-1.48c-0.38-0.42-0.76-0.78-1.14-1.08c-0.89-0.7-1.86-1.19-2.92-1.47
		l-0.67,2.61c0.94,0.41,1.68,0.89,2.23,1.44c0.55,0.55,0.97,1.1,1.26,1.65c0.28,0.55,0.47,1.08,0.57,1.58
		c0.09,0.5,0.14,0.9,0.14,1.2h-5.37c-0.29,0-0.55-0.02-0.78-0.05c-0.24-0.03-0.44-0.07-0.62-0.12c-0.21-0.06-0.4-0.13-0.57-0.19
		l-0.21,2.59c0.17,0.06,0.36,0.13,0.57,0.19c0.17,0.05,0.38,0.09,0.62,0.12c0.24,0.03,0.5,0.05,0.78,0.05h10.36h0.69h14.88h0.71
		h5.47v-16.11l-3.02,0.85V219.67z"/>
	<polygon class="st2" points="141.6,128.53 149.23,148.96 155.97,148.96 163.37,128.98 163.37,148.96 169.03,148.96 169.03,122.8 
		159.93,122.8 152.56,143.5 144.89,122.8 136.13,122.8 136.13,148.96 141.6,148.96 	"/>
	<path class="st2" d="M186.69,149.44c4.39,0,7.73-0.89,10.03-2.66c2.82-2.2,4.23-5.85,4.23-10.94c0-4.55-0.97-7.87-2.92-9.97
		c-2.22-2.37-6.04-3.56-11.45-3.56c-4.92,0-8.61,1.24-11.08,3.71c-2.27,2.27-3.41,5.45-3.41,9.52c0,4.97,1.27,8.58,3.82,10.83
		C178.23,148.42,181.82,149.44,186.69,149.44z M180.36,129.73c1.35-1.83,3.34-2.74,5.99-2.74c2.69,0,4.73,0.85,6.1,2.55
		c1.22,1.52,1.83,3.58,1.83,6.15c0,2.8-0.45,4.91-1.35,6.34c-1.15,1.82-3.14,2.74-5.99,2.74c-3.37,0-5.68-0.94-6.92-2.81
		c-0.9-1.35-1.35-3.44-1.35-6.26C178.68,133.24,179.24,131.26,180.36,129.73z"/>
	<path class="st2" d="M211.53,137.96h7.71c3.14,0,4.72,1.12,4.72,3.35c0,0.95-0.4,1.71-1.2,2.26c-0.7,0.48-1.56,0.71-2.58,0.71
		h-15.27v4.68h18.52c2.34,0,4.28-0.78,5.8-2.35c1.52-1.57,2.28-3.5,2.28-5.79c0-2.24-0.75-4.04-2.26-5.39
		c-1.51-1.36-3.59-2.04-6.23-2.04h-8.49c-0.97,0-1.8-0.3-2.49-0.91c-0.69-0.61-1.03-1.36-1.03-2.25c0-0.79,0.36-1.48,1.07-2.06
		c0.71-0.58,1.42-0.87,2.11-0.87h15.6v-4.49h-17.7c-2.67,0-4.82,0.73-6.46,2.18c-1.63,1.46-2.45,3.36-2.45,5.69
		c0,2.12,0.84,3.86,2.51,5.23C207.37,137.27,209.31,137.96,211.53,137.96z"/>
	<polygon class="st2" points="242.07,149.03 248.13,149.03 248.13,127.25 257.9,127.25 257.9,122.8 232.45,122.8 232.45,127.25 
		242.07,127.25 	"/>
	<polygon class="st2" points="266.06,129.61 278.71,148.96 287.01,148.96 287.01,122.8 280.65,122.8 280.65,142.41 268.23,122.8 
		259.81,122.8 259.81,148.96 266.06,148.96 	"/>
	<path class="st2" d="M296.7,143.01h10.81l2.21,5.95h6.55l-11.26-26.16h-6.4l-10.74,26.16h6.47L296.7,143.01z M301.94,129.24
		l3.55,9.21h-7L301.94,129.24z"/>
	<path class="st2" d="M334.24,148.7c2.37-0.47,4.23-1.96,5.58-4.45c1.25-2.27,1.87-4.93,1.87-8c0-2.86-0.56-5.43-1.68-7.7
		c-1.22-2.47-2.88-4.1-4.98-4.9c-1.55-0.57-3.11-0.86-4.68-0.86h-13.32v26.16h14.11C332.28,148.96,333.31,148.87,334.24,148.7z
		 M323.12,144.43v-16.95h7.3c1.87,0,3.27,0.97,4.19,2.92c0.72,1.55,1.08,3.53,1.08,5.95c0,2.2-0.34,4.02-1.01,5.46
		c-0.82,1.77-2.08,2.66-3.78,2.66L323.12,144.43z"/>
</g>
</svg>
