<?xml version="1.0" encoding="utf-8"?>
<!-- Generator: Adobe Illustrator 26.0.1, SVG Export Plug-In . SVG Version: 6.00 Build 0)  -->
<svg version="1.1" id="Layer_1" xmlns="http://www.w3.org/2000/svg" xmlns:xlink="http://www.w3.org/1999/xlink" x="0px" y="0px"
	 viewBox="0 0 400 400" style="enable-background:new 0 0 400 400;" xml:space="preserve">
<style type="text/css">
	.st0{fill:#A51D18;}
</style>
<g>
	<path d="M372.97,92.24c-0.26,1.1-0.32,2.3-0.81,3.29c-4.52,9.32-9.01,18.65-13.7,27.89c-6.48,12.76-13.06,25.47-19.71,38.15
		c-4.63,8.84-8.35,18.22-14.75,26.02c-2.24,2.73-4.88,5.3-7.8,7.24c-4.33,2.87-8.26,2.23-11.48-1.89c-2.2-2.82-4.16-6.14-5.15-9.55
		c-4.32-14.96-8.18-30.06-12.34-45.07c-3.67-13.28-6.45-26.83-11.79-39.59c-1.33-3.18-3.23-6.26-5.47-8.89
		c-3.51-4.13-7.14-4.37-11.68-1.26c-4.67,3.19-7.81,7.78-10.68,12.5c-3.87,6.37-7.54,12.87-11.24,19.34
		c-13.57,23.76-27.15,47.52-40.67,71.31c-10.17,17.89-20.17,35.88-30.49,53.68c-2.4,4.14-5.67,7.81-8.75,11.52
		c-1.78,2.15-4.35,3.12-7.17,3.17c-4.1,0.07-8.21-0.06-12.3,0.14c-5.53,0.26-9.08-2.47-11.25-7.2c-1.96-4.26-4.1-8.52-5.39-13
		c-3.49-12.09-6.6-24.3-9.82-36.46c-2.16-8.14-4.16-16.32-6.44-24.42c-0.44-1.58-1.83-2.89-2.78-4.33
		c-1.27,1.13-2.91,2.04-3.74,3.44c-9.71,16.34-19.29,32.77-28.92,49.16c-5.4,9.19-10.43,18.6-17.2,26.93
		c-3.3,4.05-7.3,6.17-12.6,5.91c-3.87-0.19-7.76,0.01-11.63-0.19c-3.61-0.19-4.8-1.53-5.2-5.15c-0.66-5.96,0.51-11.31,3.77-16.58
		c10.12-16.35,19.77-32.99,29.71-49.46c10.02-16.59,20.16-33.1,30.25-49.65c6.29-10.31,12.49-20.67,18.93-30.88
		c1.73-2.74,4.02-5.2,6.37-7.45c2.81-2.69,5.7-2.69,8.97-0.58c3.54,2.28,5.8,5.61,7.25,9.42c1.8,4.73,3.58,9.51,4.85,14.39
		c2.46,9.44,4.51,18.99,6.81,28.48c3.26,13.46,5.99,27.09,11.79,39.8c1.02,2.22,2.22,4.41,3.63,6.4c2.66,3.73,7.33,4.19,10.7,1.07
		c1.51-1.4,2.88-3.06,3.97-4.81c13.82-22.14,27.7-44.25,41.33-66.5c10.16-16.59,19.98-33.41,29.99-50.09
		c3.1-5.16,6.92-9.75,11.81-13.31c8.31-6.07,15.52-6.32,23.39,1.46c4.61,4.56,7.73,10.16,9.73,16.17
		c3.55,10.66,6.59,21.5,9.66,32.32c4.43,15.62,7.79,31.57,14.44,46.49c1.05,2.36,2.39,4.67,3.97,6.71c2.98,3.85,6.31,3.97,9.23,0.09
		c3.04-4.04,5.62-8.43,8.29-12.73c10.18-16.41,20.25-32.89,30.49-49.26c2.76-4.41,5.94-8.57,8.98-12.8
		c0.49-0.68,1.23-1.17,1.85-1.75C372.44,91.98,372.7,92.11,372.97,92.24z"/>
	<path class="st0" d="M378.67,101.74c-0.16,0.88-0.17,1.82-0.51,2.62c-2.79,6.74-5.48,13.54-8.51,20.18
		c-6.16,13.49-12.49,26.91-18.78,40.34c-5.69,12.15-11.4,24.3-17.12,36.44c-5.25,11.13-10.44,22.28-15.81,33.34
		c-3,6.16-6.25,12.2-9.52,18.22c-2.75,5.06-7.01,7.45-12.89,7.1c-3.87-0.23-7.76-0.19-11.64-0.02c-5.19,0.23-8.82-2.13-10.98-6.58
		c-2.1-4.35-4.27-8.77-5.53-13.4c-3.5-12.94-6.53-26.02-9.78-39.03c-1.93-7.74-3.92-15.46-5.9-23.18c-0.15-0.57-0.34-1.15-0.61-1.68
		c-1.06-2.12-2.67-2.42-4.16-0.57c-1.4,1.73-2.65,3.61-3.77,5.54c-10.24,17.59-20.37,35.25-30.7,52.79
		c-3.78,6.42-7.93,12.61-12.03,18.83c-3.47,5.25-8.26,7.96-14.77,7.39c-3.19-0.28-6.41-0.04-9.62-0.14
		c-3.91-0.13-5.43-1.74-5.8-5.62c-0.56-5.85,0.82-11.02,3.95-16.12c10.53-17.15,20.79-34.48,31.02-51.81
		c10.46-17.72,20.66-35.6,31.22-53.26c5.5-9.2,11.48-18.13,17.41-27.07c1.33-2.01,3.24-3.7,5.12-5.26c2.58-2.14,5.66-2.44,8.25-0.32
		c2.43,1.98,5,4.32,6.26,7.07c2.55,5.59,4.63,11.47,6.22,17.42c2.93,10.94,5.37,22.01,7.99,33.03c2.27,9.57,4.28,19.21,6.83,28.7
		c1.48,5.51,3.43,10.97,5.85,16.13c3.97,8.45,13.45,9.96,19.64,3.03c3.32-3.72,5.93-8.2,8.26-12.66
		c9.23-17.64,18.09-35.47,27.34-53.09c5.82-11.08,12.06-21.94,18.19-32.85c1.16-2.07,2.73-3.91,4.11-5.85
		C378.16,101.49,378.41,101.62,378.67,101.74z"/>
	<path class="st0" d="M284.5,311.02c-3.83-3.7-7.32-7.16-12.09-8.85c-1.46-0.52-1.77-1.21-1.79-2.75c-0.06-3.91,1.66-6.25,5.13-7.97
		c5.61-2.79,11.22-5.29,17.67-4.86c5.22,0.35,10.04,1.73,12.39,6.94c2.53,5.61,0.58,10.62-2.92,15.2c-0.7,0.92-1.51,1.78-2.68,3.15
		c2.27,0.46,4.05,1.07,5.84,1.13c4.61,0.15,9.24,0.02,13.86,0.09c1.59,0.02,2.04-0.64,2.03-2.14c-0.05-6.71-0.02-13.43-0.02-20.14
		c0-3.17,0-3.17,3.27-3.16c1.49,0,2.99,0.08,4.48-0.02c1.76-0.12,2.35,0.61,2.33,2.35c-0.06,6.86,0.04,13.73-0.06,20.59
		c-0.03,1.97,0.57,2.62,2.54,2.54c3.5-0.14,7.01-0.11,10.51,0c1.84,0.06,2.44-0.58,2.43-2.43c-0.07-12.08-0.04-24.17-0.03-36.25
		c0-3.11,0.01-3.11,3.09-3.12c1.34,0,2.69,0,4.03,0c2.92,0.01,2.92,0.01,2.92,3.04c0,14.77-0.03,29.54,0.03,44.31
		c0.01,1.81-0.47,2.51-2.38,2.5c-14.17-0.09-28.35-0.09-42.52-0.11c-2.46,0-4.92,0.07-7.38,0.05c-4.27-0.02-8.21-1.24-11.98-3.22
		c-0.85-0.45-2.17-0.64-3.04-0.31c-5.65,2.15-11.49,3.34-17.49,3.44c-9.92,0.18-19.85,0.12-29.77,0.04
		c-4.16-0.04-8.14-0.91-11.58-3.5c-2.56-1.93-4.09-4.48-4.87-7.55c-0.26-1.02-0.1-2.41-1.78-2.35c-1.61,0.06-3.07,0.57-3.38,2.32
		c-0.27,1.52-0.39,3.13-0.17,4.65c0.99,6.86,2.13,13.71,3.21,20.56c0.12,0.74,0.18,1.48,0.34,2.21c0.31,1.43-0.39,1.9-1.68,1.9
		c-2.09-0.01-4.19,0.1-6.26-0.06c-0.58-0.05-1.5-0.8-1.59-1.34c-1.33-8.17-2.93-16.32-3.69-24.54c-0.78-8.42,4.06-13.35,12.55-13.7
		c1.7-0.07,2.6-0.5,3.23-2.24c1.63-4.51,4.87-7.62,9.38-9.31c4.54-1.7,9.21-1.88,13.86-0.59c5.92,1.64,9.13,5.84,9.84,11.75
		c0.47,3.9,0.29,7.89,0.39,11.83c0.03,1.01-0.01,1.98,1.44,2c6.94,0.07,13.88,0.29,20.7-1.38
		C283.26,311.58,283.65,311.37,284.5,311.02z M250.9,307.13c0.04,0,0.09-0.01,0.13-0.01c-0.16-2.15-0.18-4.31-0.52-6.43
		c-0.56-3.51-2.49-5.45-5.51-5.86c-3.57-0.48-6.62,1.1-8.11,4.2c-3.47,7.22,0.52,13.92,8.47,14c6.65,0.07,5.38,0.85,5.53-5.24
		C250.9,307.58,250.9,307.35,250.9,307.13z M281.53,297.48c3.19,2.56,6.16,4.88,9.06,7.29c2.74,2.28,3.35,2.24,5.11-0.86
		c0.51-0.89,0.89-1.91,1.09-2.91c0.76-3.78-1.24-6.51-5.08-6.87C287.86,293.78,284.71,295.54,281.53,297.48z"/>
	<path class="st0" d="M169.92,150.43c0-5.89-0.17-11.79,0.09-17.67c0.1-2.37,0.65-5,1.86-6.98c8.57-14.07,17.36-28,26.1-41.96
		c0.51-0.82,1.05-1.69,1.78-2.28c0.69-0.56,1.83-1.24,2.47-1.01c0.78,0.27,1.43,1.36,1.81,2.24c0.34,0.78,0.31,1.76,0.31,2.64
		c-0.09,12.15-0.22,24.31-0.3,36.46c-0.02,4.07-2.28,7.18-4.26,10.41c-7.63,12.45-15.3,24.89-23,37.31
		c-0.77,1.25-1.72,2.47-2.82,3.41c-1.55,1.32-3,0.82-3.58-1.14c-0.31-1.05-0.43-2.2-0.44-3.31
		C169.9,162.52,169.92,156.48,169.92,150.43C169.92,150.43,169.92,150.43,169.92,150.43z"/>
	<path d="M80.52,308.44c0-2.98,0.01-5.42,0-7.86c-0.01-3.65-0.06-7.3-0.06-10.96c-0.01-5.6,0.64-6.16,6.23-5.18
		c0.52,0.09,1.27,1.03,1.27,1.59c0.07,11.26,0.05,22.51,0.06,33.77c0,1.26-0.56,1.77-1.77,1.68c-0.22-0.02-0.45-0.03-0.67,0.01
		c-5.48,1.04-8.81-1.01-11.14-6.27c-2.67-6.03-6.33-11.62-9.79-17.81c-0.07,0.96-0.15,1.49-0.14,2.03
		c0.05,6.63,0.07,13.27,0.19,19.9c0.03,1.67-0.56,2.22-2.21,2.18c-6.38-0.19-5.31,0.86-5.35-5.26c-0.06-9.76,0.04-19.53-0.06-29.29
		c-0.02-2.11,0.75-2.37,2.67-2.68c5.57-0.91,8.63,1.32,10.93,6.35C73.44,296.63,77.05,302.23,80.52,308.44z"/>
	<path class="st0" d="M377.65,296.35c0,7.45-0.05,14.9,0.03,22.35c0.02,1.82-0.53,2.58-2.41,2.45c-1.85-0.13-3.73-0.09-5.59,0
		c-1.58,0.07-2.08-0.62-2.07-2.12c0.03-15.2,0.03-30.4,0-45.6c0-1.52,0.56-2.18,2.1-2.13c1.94,0.06,3.88,0.1,5.81,0
		c1.71-0.09,2.16,0.68,2.15,2.26C377.62,281.15,377.65,288.75,377.65,296.35z"/>
	<path d="M115.27,320.39c-1.63-3.1-1.61-3.35,0.37-6.61c-2.42-2.63-2.87-5.66-1.14-8.79c1.81-3.28,4.99-4,8.44-3.88
		c2.23,0.08,4.46,0.2,6.68,0.38c0.99,0.08,2.52-0.57,2.55,1.24c0.02,1.4,0.96,3.45-1.88,3.36c0.57,3.2,0.22,6.15-2.63,7.63
		c-2.31,1.19-5.06,1.51-7.72,2.72c0.84,0.18,1.68,0.44,2.53,0.54c1.91,0.22,3.92,0.07,5.74,0.61c3.88,1.15,5.4,5.08,3.28,8.56
		c-0.88,1.44-2.34,2.73-3.83,3.56c-3.05,1.7-6.45,1.77-9.78,0.93c-4.98-1.26-6.34-5.56-3.12-9.56
		C114.95,320.86,115.11,320.61,115.27,320.39z M122.52,321.51c0-0.01,0-0.02,0-0.04c-0.37,0-0.75,0.03-1.11-0.01
		c-1.78-0.18-2.66,0.83-2.87,2.41c-0.2,1.53,0.8,2.37,2.17,2.61c1,0.18,2.07,0.18,3.08,0.05c1.68-0.22,3.14-1,2.99-2.94
		c-0.15-1.99-1.85-2.02-3.37-2.08C123.12,321.5,122.82,321.51,122.52,321.51z M125.22,308.26c-0.05-1.9-1.39-3.1-3.35-2.99
		c-1.86,0.1-3.01,1.3-3,3.15c0.01,1.92,1.27,3.02,3.35,2.93C124.16,311.26,125.27,310.12,125.22,308.26z"/>
	<path d="M183.19,303.36c4.58-3.18,7.66-2.97,11.02,0.66c0.6-0.48,1.18-1,1.82-1.46c2.24-1.61,4.72-1.9,7.21-0.84
		c2.46,1.04,3.11,3.28,3.14,5.72c0.05,4.03-0.03,8.06,0.04,12.08c0.04,2.63-1.87,1.69-3.16,1.83c-1.38,0.16-2.46,0.02-2.4-1.91
		c0.12-3.5,0.14-7.01-0.03-10.51c-0.05-1.01-0.82-2.75-1.39-2.81c-1.04-0.1-2.6,0.53-3.16,1.37c-0.85,1.29-1.3,2.99-1.45,4.56
		c-0.23,2.44-0.12,4.92-0.04,7.38c0.05,1.46-0.52,1.93-1.96,1.95c-3.54,0.06-3.54,0.12-3.54-3.51c0-3.06,0.09-6.12-0.06-9.17
		c-0.04-0.91-0.66-2.46-1.17-2.53c-1-0.14-2.55,0.26-3.07,1c-0.9,1.26-1.49,2.92-1.65,4.47c-0.26,2.43-0.15,4.92-0.05,7.37
		c0.07,1.68-0.36,2.42-2.23,2.38c-3.38-0.07-3.38,0.03-3.39-3.43c0-4.62-0.03-9.25,0.02-13.87c0.01-0.99-0.56-2.6,1.23-2.53
		C180.44,301.62,182.69,300.32,183.19,303.36z"/>
	<path d="M140.9,302.53c2.3-0.51,4.27-1.26,6.26-1.32c3.08-0.09,5.15,1.81,5.31,4.9c0.23,4.61,0.15,9.23,0.08,13.84
		c-0.01,0.47-0.76,1.14-1.3,1.33c-0.66,0.23-1.47,0.01-2.21,0.08c-1.46,0.13-1.96-0.5-1.93-1.95c0.07-3.42,0.14-6.86-0.04-10.27
		c-0.06-1.08-0.64-2.68-1.45-3.07c-1.54-0.74-2.94,0.4-3.59,1.82c-0.6,1.31-0.96,2.82-1.06,4.26c-0.17,2.45-0.1,4.91-0.02,7.37
		c0.04,1.34-0.45,1.94-1.8,1.85c-0.74-0.05-1.56,0.17-2.21-0.08c-0.59-0.22-1.45-0.89-1.45-1.38c-0.09-8.64-0.1-17.28,0-25.91
		c0.01-0.51,0.94-1.21,1.59-1.46c0.65-0.25,1.47-0.02,2.21-0.07c1.28-0.09,1.68,0.52,1.66,1.74
		C140.86,297.08,140.9,299.96,140.9,302.53z"/>
	<path d="M104.24,320.06c-1.79,0.56-3.43,1.35-5.14,1.55c-2.98,0.34-5.08-1.13-5.91-3.7c-0.84-2.6-0.03-5.57,2.38-6.84
		c1.92-1.02,4.19-1.39,6.31-2.01c0.62-0.18,1.29-0.18,1.91-0.27c0.03-3.61-0.82-3.82-8.59-2.3c-1.89-3.16-1.45-4.4,2.09-4.92
		c2.26-0.33,4.61-0.43,6.88-0.21c3.27,0.33,5.15,2.35,5.29,5.63c0.19,4.32,0.15,8.65,0.1,12.97c-0.01,0.47-0.85,1.35-1.23,1.32
		C106.82,321.13,104.71,322.48,104.24,320.06z M103.82,312.61c-1.66,0.38-3.14,0.52-4.42,1.11c-0.56,0.26-1.01,1.46-0.93,2.16
		c0.06,0.48,1.09,1.13,1.74,1.21C102.38,317.37,103.68,315.85,103.82,312.61z"/>
	<path d="M167.52,320.17c-1.92,0.54-3.58,1.28-5.29,1.44c-2.89,0.27-4.93-1.21-5.69-3.66c-0.86-2.77-0.02-5.71,2.47-6.99
		c1.87-0.96,4.08-1.25,6.11-1.94c0.76-0.26,1.42-0.81,2.12-1.23c-0.7-0.74-1.34-2.03-2.12-2.12c-1.57-0.19-3.22,0.25-4.83,0.48
		c-0.64,0.09-1.27,0.28-2.12,0.48c-0.25-1.01-0.67-1.88-0.59-2.69c0.07-0.68,0.66-1.8,1.14-1.86c2.92-0.39,5.91-0.87,8.82-0.67
		c3.35,0.23,5.06,2.23,5.22,5.63c0.21,4.31,0.19,8.63,0.15,12.95c0,0.47-0.83,1.34-1.23,1.31
		C170.18,321.2,168.16,322.29,167.52,320.17z M167.08,312.68c-1.54,0.34-3.07,0.47-4.4,1.05c-0.55,0.24-1,1.47-0.9,2.17
		c0.07,0.49,1.1,1.11,1.77,1.19C165.69,317.36,167.06,315.74,167.08,312.68z"/>
	<path class="st0" d="M40.64,320.8c-3.93,0.81-4.03,0.76-5.42-2.63c-0.06-0.14-0.06-0.32-0.16-0.41c-2-2-4.5-0.55-6.75-0.87
		c-0.54-0.08-1.53,0.77-1.81,1.42c-1.36,3.14-1.48,3.26-5.17,2.5c0.39-1.27,0.74-2.54,1.17-3.78c1.79-5.21,3.65-10.41,5.38-15.64
		c0.43-1.31,1.14-1.86,2.44-1.67c1.27,0.19,2.91-0.71,3.6,1.29c2.17,6.27,4.39,12.52,6.57,18.77
		C40.59,320.05,40.58,320.35,40.64,320.8z M33.58,313.2c-0.9-2.58-1.7-4.87-2.5-7.17c-0.19,0.01-0.38,0.02-0.57,0.03
		c-0.78,2.3-1.56,4.6-2.43,7.14C30.09,313.2,31.66,313.2,33.58,313.2z"/>
	<path class="st0" d="M42.72,310.45c0-2.68,0.02-5.37-0.01-8.05c-0.02-1.49-0.12-2.73,2.09-2.76c2.33-0.03,2.24,1.29,2.22,2.87
		c-0.04,4.1,0.06,8.2-0.05,12.3c-0.05,1.79,0.42,2.69,2.36,2.43c0.73-0.1,1.49,0.02,2.23-0.02c1.39-0.07,2.44-0.01,2.39,1.94
		c-0.05,1.84-0.94,2.04-2.4,2c-2.16-0.07-4.33-0.13-6.48,0.01c-1.92,0.13-2.45-0.65-2.38-2.44
		C42.81,315.97,42.72,313.21,42.72,310.45z"/>
	<path d="M295.93,277.15c-0.07,2.98-2.57,5.28-5.58,5.16c-2.81-0.12-4.99-2.44-4.96-5.28c0.04-3.04,2.45-5.38,5.45-5.28
		C293.75,271.85,296,274.23,295.93,277.15z"/>
	<path d="M326.86,282.7c-2.96-0.03-5.2-2.31-5.18-5.26c0.02-3.02,2.44-5.37,5.43-5.27c2.89,0.09,5.13,2.47,5.09,5.41
		C332.16,280.46,329.79,282.73,326.86,282.7z"/>
</g>
</svg>
