<?xml version="1.0" encoding="utf-8"?>
<!-- Generator: Adobe Illustrator 26.0.1, SVG Export Plug-In . SVG Version: 6.00 Build 0)  -->
<svg version="1.1" id="Layer_1" xmlns="http://www.w3.org/2000/svg" xmlns:xlink="http://www.w3.org/1999/xlink" x="0px" y="0px"
	 viewBox="0 0 350 350" style="enable-background:new 0 0 350 350;" xml:space="preserve">
<style type="text/css">
	.st0{fill:#1D1D1B;}
	.st1{fill:#E9871A;}
	.st2{fill:#FFFFFF;}
	.st3{fill:#12100B;}
</style>
<g>
	<path class="st0" d="M259.63,189.06c7.36,12.81-160.7,2.67-164.28,5.73c-8.43,7.13-7.88-136.1,0.86-120.95
		C306.96,80.88,252.16,33.79,259.63,189.06z"/>
	<g>
		<g>
			<polygon class="st1" points="177.47,151.58 196.12,101.67 204.75,101.67 209.23,89.66 200.61,89.66 205.04,77.78 182.57,77.78 
				178.17,89.66 169.53,89.66 165.05,101.67 173.66,101.67 155.16,151.58 155.16,151.59 155.12,151.59 153.24,156.67 146.56,174.68 
				170.88,174.68 158.81,199.32 156.51,204.02 153.65,209.87 154.78,209.87 159.45,204.91 163.55,200.58 204.99,156.67 205,156.67 
				175.56,156.67 			"/>
			<polygon class="st2" points="226.63,123.51 233.22,106.06 199.54,106.06 182.05,152.29 215.73,152.29 222.33,134.86 
				210.29,134.86 208.25,140.27 198.48,140.27 206.87,118.08 216.61,118.08 214.6,123.5 			"/>
			<path class="st2" d="M167.73,106.04h-33.36l-17.39,46.26h33.28L167.73,106.04z M133.43,140.3l8.41-22.25h9.36l-8.36,22.25H133.43
				z"/>
		</g>
	</g>
	<g>
		<g>
			<path class="st1" d="M11.27,227.84c1.98,1.42,3.14,2.66,4.05,3.83c0.91,1.24,1.39,2.61,1.39,3.93c0,3.29-2.51,4.86-4.66,4.86
				c-2.69,0-4.28-2.23-4.28-4.66c0-2.23,1.24-4.16,2.84-6.03c-0.15-0.13-0.33-0.25-0.51-0.38L11.27,227.84z M8.54,224.37
				c0-0.81,0.56-1.34,1.29-1.34c0.76,0,1.29,0.53,1.29,1.34c0,0.84-0.53,1.34-1.29,1.34C9.09,225.72,8.54,225.21,8.54,224.37z
				 M15.1,235.5c0-1.54-1.04-2.96-3.17-4.71c-1.37,1.37-2.53,3.12-2.53,4.51c0,1.75,1.34,2.81,2.86,2.81
				C14.24,238.11,15.1,236.59,15.1,235.5z M11.98,224.37c0-0.81,0.51-1.34,1.24-1.34c0.79,0,1.29,0.53,1.29,1.34
				c0,0.84-0.51,1.34-1.29,1.34C12.49,225.72,11.98,225.21,11.98,224.37z"/>
			<path class="st1" d="M17.38,243.73c1.09,0,2.91-0.56,4.13-2.84c0.38-0.73,0.61-1.7,0.61-2.05c0-0.94-0.25-3.19-2.38-7.47
				l1.87-0.81c1.06,2.08,2.2,5.52,2.2,7.96c0,0.81-0.23,2.03-0.56,2.84c-1.14,2.92-3.5,4.51-5.7,4.51c-1.6,0-2.86-0.63-3.42-1.27
				l0.33-1.57C15.55,243.63,16.42,243.73,17.38,243.73z"/>
			<path class="st1" d="M26.55,221.99l1.9-0.13l0.48,12.52c0.1,2.71,1.17,3.47,2.89,3.57c0.73,0,1.34,0.35,1.34,1.14
				c0,0.51-0.23,1.17-1.34,1.17c-2.96,0-4.61-1.37-4.76-5.24L26.55,221.99z"/>
			<path class="st1" d="M46.41,235.67c-0.2,0-0.43,0.02-0.66,0.05c0.18,1.85,1.62,2.23,3.34,2.23c0.73,0,1.34,0.35,1.34,1.14
				c0,0.51-0.23,1.17-1.34,1.17c-2.96-0.02-4.64-1.19-4.81-4.06c-0.63,0.25-1.34,0.61-2.08,1.07c-3.47,2.23-5.88,2.99-10.08,2.99
				h-0.28c-0.84,0-1.29-0.51-1.29-1.14c0-0.58,0.35-1.17,1.29-1.17h0.3c3.22,0,5.68-0.46,7.83-1.52c1.72-0.81,2.41-1.24,3.22-1.49
				c-1.93-0.58-4.36-2.03-6.84-2.03c-1.04,0-2.33,0.1-3.34,0.68l0.38-2.1c0.89-0.51,2.28-0.63,3.07-0.63c2.2,0,4.15,0.76,6.33,1.77
				c1.82,0.81,2.81,0.94,3.93,0.94h0.73l-0.35,2.1H46.41z M41.19,244.29c0,0.86-0.51,1.39-1.32,1.39c-0.76,0-1.29-0.53-1.29-1.39
				c0-0.81,0.53-1.37,1.32-1.37C40.68,242.92,41.19,243.48,41.19,244.29z"/>
			<path class="st1" d="M47.72,239.09c0-0.51,0.35-1.11,1.32-1.11c2.79,0,3.34-1.67,3.6-3.88l1.49-0.13
				c-0.03,0.2-0.05,0.56-0.05,0.86c0,1.6,0.51,3.12,2.96,3.14c0.73,0,1.34,0.33,1.34,1.11c0,0.51-0.23,1.17-1.34,1.17
				c-2.2,0-3.4-0.84-3.9-2.53c-0.66,1.8-2.08,2.53-4.13,2.53C48,240.26,47.72,239.65,47.72,239.09z M50.1,228.68
				c0-0.81,0.56-1.34,1.29-1.34c0.76,0,1.29,0.53,1.29,1.34c0,0.84-0.53,1.34-1.29,1.34C50.66,230.02,50.1,229.52,50.1,228.68z
				 M53.55,228.68c0-0.81,0.48-1.34,1.24-1.34c0.76,0,1.29,0.53,1.29,1.34c0,0.84-0.53,1.34-1.29,1.34
				C54.03,230.02,53.55,229.52,53.55,228.68z"/>
			<path class="st1" d="M55.72,239.07c0-0.51,0.35-1.12,1.32-1.12c2.13,0,2.99-1.14,2.86-4.26l-0.43-11.68l1.9-0.15l0.46,11.81
				c0.1,3.19,0.89,4.2,2.89,4.28c0.76,0,1.37,0.35,1.37,1.14c0,0.48-0.25,1.17-1.37,1.17c-1.85,0-3.17-0.79-3.65-2.41
				c-0.73,1.62-2.13,2.41-4.05,2.41C56,240.26,55.72,239.63,55.72,239.07z"/>
			<path class="st1" d="M63.42,239.07c0-0.43,0.33-1.12,1.29-1.12c1.85,0,3.07-0.91,2.94-3.27l-0.61-12.67l1.9-0.15l0.61,12.85
				c0.2,3.85-1.7,5.55-4.84,5.55C63.7,240.26,63.42,239.63,63.42,239.07z"/>
			<path class="st1" d="M80.75,234.1l1.44,0.25c-0.41,1.29-0.51,2.61-0.51,3.14c0,2.84,2.05,4.41,4.76,4.41
				c2.13,0,4.18-0.68,5.14-2.63c0.15-0.25,0.3-0.84,0.3-1.09c0-1.5-0.56-3.75-2.2-7.02l1.95-0.63c0.79,1.55,1.93,4.49,1.93,7.32
				c0,0.76-0.28,1.9-0.58,2.51c-1.24,2.53-3.8,3.85-6.84,3.85c-3.8,0-6.28-2.46-6.28-6.08C79.86,236.92,80.19,235.24,80.75,234.1z
				 M84.52,227.39c0-0.81,0.56-1.37,1.32-1.37c0.79,0,1.32,0.56,1.32,1.37c0,0.84-0.53,1.37-1.32,1.37
				C85.08,228.76,84.52,228.22,84.52,227.39z"/>
			<path class="st1" d="M96.38,221.99l1.9-0.13l0.48,12.52c0.1,2.71,1.17,3.47,2.89,3.57c0.73,0,1.34,0.35,1.34,1.14
				c0,0.51-0.23,1.17-1.34,1.17c-2.96,0-4.61-1.37-4.76-5.24L96.38,221.99z"/>
			<path class="st1" d="M100.28,239.09c0-0.51,0.35-1.11,1.32-1.11c2.79,0,3.34-1.67,3.6-3.88l1.49-0.13
				c-0.03,0.2-0.05,0.56-0.05,0.86c0,1.6,0.51,3.12,2.96,3.14c0.73,0,1.34,0.33,1.34,1.11c0,0.51-0.23,1.17-1.34,1.17
				c-2.2,0-3.4-0.84-3.9-2.53c-0.66,1.8-2.08,2.53-4.13,2.53C100.56,240.26,100.28,239.65,100.28,239.09z M105.29,245.25
				c0,0.81-0.53,1.34-1.29,1.34c-0.73,0-1.29-0.51-1.29-1.34c0-0.81,0.56-1.34,1.29-1.34C104.76,243.91,105.29,244.44,105.29,245.25
				z M108.69,245.25c0,0.81-0.53,1.34-1.29,1.34c-0.76,0-1.24-0.51-1.24-1.34c0-0.81,0.48-1.34,1.24-1.34
				C108.16,243.91,108.69,244.44,108.69,245.25z"/>
			<path class="st1" d="M108.28,239.07c0-0.51,0.35-1.12,1.32-1.12c2.13,0,2.99-1.14,2.86-4.26l-0.43-11.68l1.9-0.15l0.46,11.81
				c0.1,3.19,0.89,4.2,2.89,4.28c0.76,0,1.37,0.35,1.37,1.14c0,0.48-0.25,1.17-1.37,1.17c-1.85,0-3.17-0.79-3.65-2.41
				c-0.73,1.62-2.13,2.41-4.05,2.41C108.56,240.26,108.28,239.63,108.28,239.07z"/>
			<path class="st1" d="M132.68,237.95c0.73,0,1.34,0.35,1.34,1.14c0,0.51-0.25,1.17-1.34,1.17h-0.3c-2.51,0-4.71-0.68-6.56-1.7
				c-2.26,1.01-5.14,1.7-8.54,1.7c-0.96,0-1.27-0.66-1.27-1.14c0-0.43,0.3-1.17,1.27-1.17h0.08c2.46,0,4.59-0.33,6.33-0.81
				c-1.62-1.29-2.81-2.79-3.52-4.13c-0.53,0.2-0.99,0.38-1.39,0.61l-0.23-1.82c1.01-0.51,3.57-1.57,6.82-1.57
				c4.28,0,5.57,1.32,5.57,2.89c0,1.37-1.01,2.89-2.86,4.18c1.34,0.43,2.84,0.66,4.51,0.66H132.68z M125.84,236.38
				c2.26-0.99,3.45-2.2,3.45-2.96c0-0.46-0.63-1.32-4.03-1.32c-0.99,0-2.26,0.18-3.5,0.46C122.64,234.05,124.01,235.4,125.84,236.38
				z"/>
			<path class="st1" d="M131.38,239.07c0-0.43,0.33-1.12,1.29-1.12c1.85,0,3.07-0.91,2.94-3.27L135,222.02l1.9-0.15l0.61,12.85
				c0.2,3.85-1.7,5.55-4.84,5.55C131.66,240.26,131.38,239.63,131.38,239.07z"/>
			<path class="st1" d="M141.61,222.02l1.9-0.15l0.71,18.4h-1.9L141.61,222.02z"/>
			<path class="st1" d="M155.77,236.03c0.35,1.24,1.01,1.88,2.94,1.88c1.34,0,2.76-0.35,3.55-1.07c0.38-0.35,0.63-0.89,0.61-1.06
				c-0.2-0.86-1.06-4.28-2.08-7.68l1.85-0.63c0.86,3.34,1.27,5.12,2.05,7.95c0.58,2.08,1.44,2.53,2.99,2.53
				c0.73,0,1.34,0.35,1.34,1.14c0,0.51-0.25,1.17-1.34,1.17c-2.51,0-3.4-0.89-4.18-2.59c-0.4,1.45-2.48,2.59-4.94,2.59
				c-2.76,0-4.1-1.14-4.23-3.95L155.77,236.03z"/>
			<path class="st1" d="M167.8,237.95c1.09-0.05,1.57-0.48,2.18-2.23c1.09-2.89,2.08-3.98,4-3.98c2.13,0,3.6,2.21,4.03,4.31
				c0.73,1.67,1.44,1.9,2.2,1.9c0.73,0,1.34,0.35,1.34,1.14c0,0.51-0.23,1.17-1.34,1.17c-0.76,0-1.75-0.28-2.43-1.27
				c-0.48,0.96-1.42,1.57-2.51,1.57c-1.44,0-2.96-0.56-4.69-1.87c-0.71,1.09-1.5,1.57-2.86,1.57h-0.05c-0.73,0-1.37-0.35-1.37-1.14
				c0-0.51,0.25-1.17,1.37-1.17H167.8z M176.52,237.27c0-1.52-1.12-3.55-2.64-3.55c-0.99,0-1.75,0.56-2.48,2.92
				c0.94,0.86,2.58,1.7,3.93,1.7C175.99,238.34,176.52,238.11,176.52,237.27z"/>
			<path class="st1" d="M194.81,235.67c-0.2,0-0.43,0.02-0.66,0.05c0.18,1.85,1.62,2.23,3.34,2.23c0.73,0,1.34,0.35,1.34,1.14
				c0,0.51-0.23,1.17-1.34,1.17c-2.96-0.02-4.64-1.19-4.81-4.06c-0.63,0.25-1.34,0.61-2.08,1.07c-3.47,2.23-5.88,2.99-10.08,2.99
				h-0.28c-0.84,0-1.29-0.51-1.29-1.14c0-0.58,0.35-1.17,1.29-1.17h0.3c3.22,0,5.68-0.46,7.83-1.52c1.72-0.81,2.41-1.24,3.22-1.49
				c-1.93-0.58-4.36-2.03-6.84-2.03c-1.04,0-2.33,0.1-3.34,0.68l0.38-2.1c0.89-0.51,2.28-0.63,3.07-0.63c2.2,0,4.15,0.76,6.33,1.77
				c1.82,0.81,2.81,0.94,3.93,0.94h0.73l-0.35,2.1H194.81z"/>
			<path class="st1" d="M197.49,240.26c-0.76,0-1.37-0.35-1.37-1.17c0-0.53,0.3-1.14,1.39-1.14c1.24,0.03,1.77-0.76,2.28-2.23
				c1.06-3.04,2.08-4.28,4-4.28c2.61,0,4.13,3.22,4.13,5.6c0,1.9-1.27,3.22-2.89,3.22c-1.42,0-2.89-0.56-4.61-1.88
				c-0.66,1.32-1.42,1.88-2.89,1.88H197.49z M206.33,236.97c0-1.52-1.24-3.55-2.64-3.55c-0.99,0-1.7,0.56-2.43,2.91
				c0.94,0.86,2.53,1.7,3.88,1.7C205.8,238.03,206.33,237.8,206.33,236.97z"/>
			<path class="st1" d="M225.2,234.71c0.13,2.74,1.34,3.24,2.79,3.24c0.73,0,1.37,0.35,1.37,1.14c0,0.51-0.25,1.17-1.37,1.17
				c-1.57,0-3.19-0.43-3.98-2.31c-0.84,0.53-2.28,0.79-3.14,0.79c-2.31,0-3.85-1.27-3.85-3.19c0-1.6,0.86-2.96,2.48-4.26
				c0.94-0.76,2.51-1.57,3.75-2.2l-0.08-2.03l1.72-0.18L225.2,234.71z M223.32,230.96c-3.24,1.37-4.59,2.79-4.59,4
				c0,1.04,0.99,1.52,2.41,1.52c0.73,0,1.72-0.18,2.41-0.48c0-0.18-0.02-0.35-0.02-0.56L223.32,230.96z"/>
			<path class="st1" d="M226.66,239.07c0-0.51,0.35-1.12,1.32-1.12c2.13,0,2.99-1.14,2.86-4.26l-0.43-11.68l1.9-0.15l0.46,11.81
				c0.1,3.19,0.89,4.2,2.89,4.28c0.76,0,1.37,0.35,1.37,1.14c0,0.48-0.25,1.17-1.37,1.17c-1.85,0-3.17-0.79-3.65-2.41
				c-0.73,1.62-2.13,2.41-4.05,2.41C226.94,240.26,226.66,239.63,226.66,239.07z"/>
			<path class="st1" d="M234.36,239.07c0-0.43,0.33-1.12,1.29-1.12c1.85,0,3.07-0.91,2.94-3.27l-0.61-12.67l1.9-0.15l0.61,12.85
				c0.2,3.85-1.7,5.55-4.84,5.55C234.64,240.26,234.36,239.63,234.36,239.07z"/>
			<path class="st1" d="M244.6,222.02l1.9-0.15l0.71,18.4h-1.9L244.6,222.02z"/>
			<path class="st1" d="M258.76,236.03c0.35,1.24,1.01,1.88,2.94,1.88c1.34,0,2.76-0.35,3.55-1.07c0.38-0.35,0.63-0.89,0.61-1.06
				c-0.2-0.86-1.06-4.28-2.08-7.68l1.85-0.63c0.86,3.34,1.27,5.12,2.05,7.95c0.58,2.08,1.44,2.53,2.99,2.53
				c0.73,0,1.34,0.35,1.34,1.14c0,0.51-0.25,1.17-1.34,1.17c-2.51,0-3.4-0.89-4.18-2.59c-0.4,1.45-2.48,2.59-4.94,2.59
				c-2.76,0-4.1-1.14-4.23-3.95L258.76,236.03z"/>
			<path class="st1" d="M269.29,239.09c0-0.51,0.35-1.11,1.32-1.11c2.79,0,3.34-1.67,3.6-3.88l1.49-0.13
				c-0.03,0.2-0.05,0.56-0.05,0.86c0,1.6,0.51,3.12,2.96,3.14c0.73,0,1.34,0.33,1.34,1.11c0,0.51-0.23,1.17-1.34,1.17
				c-2.2,0-3.4-0.84-3.9-2.53c-0.66,1.8-2.08,2.53-4.13,2.53C269.57,240.26,269.29,239.65,269.29,239.09z M276.03,245.28
				c0,0.86-0.53,1.39-1.32,1.39c-0.76,0-1.32-0.53-1.32-1.39c0-0.81,0.56-1.37,1.32-1.37C275.5,243.91,276.03,244.47,276.03,245.28z
				"/>
			<path class="st1" d="M277.32,239.07c0-0.46,0.28-1.12,1.29-1.12h0.3c0.66,0,2.94-0.13,3.62-0.18c-0.96-0.58-2.33-1.88-2.33-3.7
				c0-2.84,2.33-4.81,5.07-4.81c1.44,0,2.51,0.38,3.19,0.89l0.23,1.93c-0.79-0.51-2.15-0.79-3.37-0.79c-2.05,0-3.47,1.22-3.47,2.69
				c0,1.12,0.94,2.15,2.46,2.96c0.58,0.33,1.24,0.46,1.62,0.46c1.01,0,3.01-0.3,4.46-0.96l-0.33,2.2c-1.93,0.94-7.07,1.62-11.1,1.62
				h-0.38C277.7,240.26,277.32,239.68,277.32,239.07z"/>
			<path class="st1" d="M307.31,234.71c0.13,2.74,1.34,3.24,2.79,3.24c0.73,0,1.37,0.35,1.37,1.14c0,0.51-0.25,1.17-1.37,1.17
				c-1.57,0-3.19-0.43-3.98-2.31c-0.84,0.53-2.28,0.79-3.14,0.79c-2.31,0-3.85-1.27-3.85-3.19c0-1.6,0.86-2.96,2.48-4.26
				c0.94-0.76,2.51-1.57,3.75-2.2l-0.08-2.03l1.72-0.18L307.31,234.71z M305.44,230.96c-3.24,1.37-4.59,2.79-4.59,4
				c0,1.04,0.99,1.52,2.41,1.52c0.73,0,1.72-0.18,2.41-0.48c0-0.18-0.02-0.35-0.02-0.56L305.44,230.96z M302.9,223.23
				c0-0.81,0.56-1.34,1.29-1.34c0.76,0,1.29,0.53,1.29,1.34c0,0.81-0.53,1.32-1.29,1.32C303.46,224.55,302.9,224.07,302.9,223.23z
				 M306.35,223.23c0-0.81,0.51-1.34,1.24-1.34c0.79,0,1.29,0.53,1.29,1.34c0,0.81-0.51,1.32-1.29,1.32
				C306.86,224.55,306.35,224.07,306.35,223.23z"/>
			<path class="st1" d="M308.8,239.07c0-0.38,0.28-1.12,1.29-1.12h2.15c4.05,0,4.79-0.94,4.79-2.08c0-1.19-1.57-3.5-6.79-6.99
				c0.03-0.56,0.1-1.65,0.33-2.1c0.08-0.13,0.38-0.38,1.01-0.74c2.1-1.27,5.78-3.12,9-4.18l-0.43,2.23
				c-2.31,0.81-6.26,2.58-8.06,3.7c3.29,2.53,6.56,4.99,6.56,8.16c0,1.47-0.73,2.69-1.8,3.34c-1.22,0.74-2.64,0.96-5.02,0.96h-1.75
				C309.06,240.26,308.8,239.58,308.8,239.07z"/>
			<path class="st1" d="M332.79,229.06c0-0.74,0.56-1.32,1.27-1.32c0.76,0,1.29,0.58,1.29,1.32c0,0.84-0.53,1.37-1.29,1.37
				C333.32,230.43,332.79,229.93,332.79,229.06z M334.54,226.02c0-0.79,0.48-1.34,1.22-1.34c0.79,0,1.29,0.56,1.29,1.34
				c0,0.84-0.51,1.34-1.29,1.34C335.02,227.37,334.54,226.89,334.54,226.02z M336.16,229.06c0-0.74,0.51-1.32,1.27-1.32
				c0.76,0,1.24,0.58,1.24,1.32c0,0.84-0.48,1.37-1.24,1.37C336.67,230.43,336.16,229.93,336.16,229.06z"/>
			<path class="st1" d="M319.44,245.83c2.46,0,4.59-2.03,4.59-4.66c0-1.19-0.86-4-1.52-5.24c1.44-0.58,4.81-1.55,6.72-1.88
				l1.47-0.13c-0.1,0.53-0.13,0.96-0.13,1.27c0,2,1.01,2.86,2.26,2.86c1.24,0,2.31-0.68,2.81-3.29l1.57-0.08
				c-0.05,0.35-0.2,0.94-0.2,1.39c-0.02,1.37,0.68,1.93,1.6,1.93c1.17,0,1.95-0.84,1.95-2.03c0-1.01-0.33-2.05-0.81-3.02l1.85-0.53
				c0.35,0.76,0.63,1.9,0.63,3.29c0,2.84-1.65,4.53-3.78,4.53c-1.47,0-2.31-0.89-2.63-1.77c-0.73,1.19-1.98,1.77-3.24,1.77
				c-1.57,0-3.42-0.99-3.52-4.28c-0.61,0.08-3.19,0.74-4.08,1.09c0.25,0.76,0.71,2.84,0.71,4.13c0,3.52-2.43,6.66-6.18,6.66
				c-1.29,0-2.76-0.43-3.62-1.37l0.33-1.6C317.06,245.46,318.15,245.83,319.44,245.83z"/>
		</g>
	</g>
	<g>
		<path class="st3" d="M27,264.89h1.5l3.29,9.63h-1.33l-1.03-3.03h-3.41l-0.99,3.03h-1.3L27,264.89z M29.17,270.52l-0.94-2.77
			c-0.21-0.63-0.36-1.2-0.5-1.76h-0.04c-0.13,0.57-0.29,1.16-0.47,1.74l-0.94,2.78H29.17z"/>
		<path class="st3" d="M33.1,272.74v-8.37h1.26v4.34h0.03c0.44-0.77,1.24-1.27,2.36-1.27c1.71,0,2.93,1.44,2.91,3.53
			c0,2.47-1.57,3.7-3.1,3.7c-1,0-1.8-0.39-2.33-1.29H34.2l-0.06,1.13h-1.1C33.08,274.04,33.1,273.36,33.1,272.74z M36.3,273.67
			c1.33,0,2.1-1.07,2.1-2.66c0-1.39-0.71-2.57-2.07-2.57c-0.84,0-1.64,0.59-1.9,1.54c-0.03,0.16-0.07,0.31-0.07,0.53v1.23
			c0,0.16,0.01,0.31,0.06,0.46C34.66,273.09,35.38,273.67,36.3,273.67z"/>
		<path class="st3" d="M43.84,267.44c1.06,0,1.77,0.5,2.09,1.06h0.03v-4.13h1.24v8.37c0,0.61,0.03,1.3,0.06,1.77h-1.11l-0.06-1.19
			h-0.04c-0.37,0.77-1.21,1.34-2.33,1.34c-1.69,0-2.97-1.41-2.97-3.51C40.73,268.86,42.15,267.44,43.84,267.44z M44.05,273.67
			c0.84,0,1.6-0.57,1.84-1.52c0.04-0.17,0.06-0.34,0.06-0.54v-1.2c0-0.16-0.01-0.36-0.06-0.54c-0.19-0.79-0.87-1.43-1.81-1.43
			c-1.3,0-2.07,1.14-2.07,2.66C42.01,272.5,42.7,273.67,44.05,273.67z"/>
		<path class="st3" d="M49.25,267.6h1.24v3.83c0,1.34,0.44,2.22,1.53,2.22c0.91,0,1.5-0.63,1.69-1.14c0.07-0.2,0.11-0.44,0.11-0.66
			v-4.24h1.24v5.03c0,0.73,0.03,1.33,0.06,1.89h-1.1l-0.07-1.13h-0.03c-0.31,0.53-1.01,1.29-2.3,1.29c-1.34,0-2.37-0.81-2.37-3.03
			V267.6z"/>
		<path class="st3" d="M57.15,264.37h1.24v10.14h-1.24V264.37z"/>
		<path class="st3" d="M60.51,264.37h1.24v10.14h-1.24V264.37z"/>
		<path class="st3" d="M67.48,270.13v-0.16c0-0.57-0.17-1.6-1.57-1.6c-0.64,0-1.31,0.2-1.8,0.51l-0.3-0.83
			c0.59-0.37,1.43-0.61,2.29-0.61c2.11,0,2.63,1.44,2.63,2.84v2.57c0,0.6,0.03,1.19,0.1,1.66h-1.13l-0.11-0.87h-0.03
			c-0.39,0.53-1.13,1.03-2.11,1.03c-1.39,0-2.11-0.99-2.11-1.99C63.32,271.02,64.81,270.1,67.48,270.13z M65.76,273.74
			c0.91,0,1.47-0.57,1.69-1.16c0.03-0.13,0.06-0.27,0.06-0.39v-1.21c-1.37-0.02-2.93,0.21-2.93,1.56
			C64.58,273.37,65.12,273.74,65.76,273.74z"/>
		<path class="st3" d="M70.75,264.37h1.24v4.31h0.03c0.21-0.36,0.53-0.67,0.91-0.89c0.37-0.21,0.8-0.36,1.27-0.36
			c0.94,0,2.41,0.57,2.41,2.97v4.1h-1.24v-3.97c0-1.13-0.41-2.06-1.6-2.06c-0.83,0-1.46,0.59-1.69,1.26c-0.07,0.18-0.1,0.37-0.1,0.6
			v4.17h-1.24V264.37z"/>
		<path class="st3" d="M82.93,264.89h1.59l1.64,4.67c0.4,1.17,0.71,2.3,0.96,3.3h0.06c0.23-0.97,0.57-2.1,1.01-3.31l1.71-4.66h1.59
			l0.6,9.63h-1.23l-0.21-4.23c-0.09-1.33-0.17-2.96-0.16-4.14h-0.04c-0.33,1.11-0.77,2.41-1.23,3.7l-1.67,4.61h-0.99l-1.53-4.59
			c-0.47-1.36-0.84-2.6-1.11-3.73h-0.03c-0.04,1.19-0.1,2.78-0.19,4.24l-0.26,4.13h-1.19L82.93,264.89z"/>
		<path class="st3" d="M96.97,267.44c1.94,0,3.31,1.4,3.31,3.61c0,2.56-1.87,3.62-3.47,3.62c-1.83,0-3.29-1.36-3.29-3.58
			C93.53,268.77,95.1,267.44,96.97,267.44z M96.9,273.74c1.37,0,2.11-1.27,2.11-2.67c0-1.2-0.57-2.67-2.11-2.67s-2.1,1.46-2.1,2.69
			C94.8,272.46,95.51,273.74,96.9,273.74z"/>
		<path class="st3" d="M101.87,264.37h1.24v4.31h0.03c0.21-0.36,0.53-0.67,0.91-0.89c0.37-0.21,0.8-0.36,1.27-0.36
			c0.94,0,2.41,0.57,2.41,2.97v4.1h-1.24v-3.97c0-1.13-0.41-2.06-1.6-2.06c-0.83,0-1.46,0.59-1.69,1.26c-0.07,0.18-0.1,0.37-0.1,0.6
			v4.17h-1.24V264.37z"/>
		<path class="st3" d="M113.41,270.13v-0.16c0-0.57-0.17-1.6-1.57-1.6c-0.64,0-1.31,0.2-1.8,0.51l-0.3-0.83
			c0.59-0.37,1.43-0.61,2.29-0.61c2.11,0,2.63,1.44,2.63,2.84v2.57c0,0.6,0.03,1.19,0.1,1.66h-1.13l-0.11-0.87h-0.03
			c-0.39,0.53-1.13,1.03-2.11,1.03c-1.39,0-2.11-0.99-2.11-1.99C109.25,271.02,110.74,270.1,113.41,270.13z M111.7,273.74
			c0.91,0,1.47-0.57,1.69-1.16c0.03-0.13,0.06-0.27,0.06-0.39v-1.21c-1.37-0.02-2.93,0.21-2.93,1.56
			C110.51,273.37,111.05,273.74,111.7,273.74z"/>
		<path class="st3" d="M116.68,269.47c0-0.71-0.03-1.28-0.06-1.87h1.1l0.06,1.11h0.03c0.39-0.66,1.03-1.27,2.19-1.27
			c0.94,0,1.66,0.59,1.96,1.39h0.03c0.21-0.39,0.49-0.69,0.77-0.9c0.43-0.31,0.87-0.49,1.53-0.49c0.91,0,2.27,0.6,2.27,3v4.07h-1.23
			v-3.9c0-1.34-0.49-2.13-1.5-2.13c-0.71,0-1.27,0.51-1.49,1.11c-0.06,0.2-0.11,0.42-0.11,0.64v4.27h-1.21v-4.14
			c0-1.1-0.5-1.89-1.44-1.89c-0.79,0-1.36,0.61-1.57,1.24c-0.06,0.19-0.09,0.41-0.09,0.61v4.17h-1.23V269.47z"/>
		<path class="st3" d="M128.59,269.47c0-0.71-0.03-1.28-0.06-1.87h1.1l0.06,1.11h0.03c0.39-0.66,1.03-1.27,2.18-1.27
			c0.94,0,1.66,0.59,1.96,1.39h0.03c0.21-0.39,0.49-0.69,0.77-0.9c0.43-0.31,0.87-0.49,1.53-0.49c0.91,0,2.27,0.6,2.27,3v4.07h-1.23
			v-3.9c0-1.34-0.49-2.13-1.5-2.13c-0.71,0-1.27,0.51-1.49,1.11c-0.06,0.2-0.11,0.42-0.11,0.64v4.27h-1.21v-4.14
			c0-1.1-0.5-1.89-1.44-1.89c-0.79,0-1.36,0.61-1.57,1.24c-0.06,0.19-0.09,0.41-0.09,0.61v4.17h-1.23V269.47z"/>
		<path class="st3" d="M143.26,267.44c2.24,0,2.84,1.99,2.84,3.26c0,0.27-0.01,0.44-0.06,0.59h-4.84c0.03,1.7,1.1,2.4,2.36,2.4
			c0.91,0,1.46-0.16,1.93-0.36l0.21,0.9c-0.43,0.2-1.21,0.44-2.3,0.44c-2.13,0-3.4-1.41-3.4-3.49
			C140,269.09,141.23,267.44,143.26,267.44z M144.89,270.39c0.01-0.79-0.33-2.03-1.74-2.03c-1.27,0-1.83,1.16-1.93,2.03H144.89z"/>
		<path class="st3" d="M150.26,267.44c1.06,0,1.77,0.5,2.09,1.06h0.03v-4.13h1.24v8.37c0,0.61,0.03,1.3,0.06,1.77h-1.11l-0.06-1.19
			h-0.04c-0.37,0.77-1.21,1.34-2.33,1.34c-1.69,0-2.97-1.41-2.97-3.51C147.14,268.86,148.57,267.44,150.26,267.44z M150.47,273.67
			c0.84,0,1.6-0.57,1.84-1.52c0.04-0.17,0.06-0.34,0.06-0.54v-1.2c0-0.16-0.01-0.36-0.06-0.54c-0.19-0.79-0.87-1.43-1.81-1.43
			c-1.3,0-2.07,1.14-2.07,2.66C148.43,272.5,149.12,273.67,150.47,273.67z"/>
		<path class="st3" d="M162.1,264.89h1.5l3.29,9.63h-1.33l-1.03-3.03h-3.41l-0.99,3.03h-1.3L162.1,264.89z M164.27,270.52
			l-0.94-2.77c-0.21-0.63-0.36-1.2-0.5-1.76h-0.04c-0.13,0.57-0.29,1.16-0.47,1.74l-0.94,2.78H164.27z"/>
		<path class="st3" d="M168.21,264.37h1.24v10.14h-1.24V264.37z"/>
		<path class="st3" d="M170.95,270.19h3.49v0.93h-3.49V270.19z"/>
		<path class="st3" d="M175.58,269.76c0-2.96,1.84-5.03,4.5-5.03c2.74,0,4.3,2.17,4.3,4.96c0,3.2-2.04,4.99-4.47,4.99
			C177.3,274.67,175.58,272.63,175.58,269.76z M183.07,269.72c0-1.97-0.96-3.97-3.07-3.97c-2,0-3.1,1.81-3.1,3.97
			c0,2.19,1.13,3.94,3.08,3.94C182.01,273.66,183.07,271.82,183.07,269.72z"/>
		<path class="st3" d="M185.95,264.37h1.24v10.14h-1.24V264.37z"/>
		<path class="st3" d="M192.92,270.13v-0.16c0-0.57-0.17-1.6-1.57-1.6c-0.64,0-1.31,0.2-1.8,0.51l-0.3-0.83
			c0.59-0.37,1.43-0.61,2.29-0.61c2.11,0,2.63,1.44,2.63,2.84v2.57c0,0.6,0.03,1.19,0.1,1.66h-1.13l-0.11-0.87h-0.03
			c-0.39,0.53-1.13,1.03-2.11,1.03c-1.39,0-2.11-0.99-2.11-1.99C188.76,271.02,190.25,270.1,192.92,270.13z M191.21,273.74
			c0.91,0,1.47-0.57,1.69-1.16c0.03-0.13,0.06-0.27,0.06-0.39v-1.21c-1.37-0.02-2.93,0.21-2.93,1.56
			C190.02,273.37,190.56,273.74,191.21,273.74z"/>
		<path class="st3" d="M197.71,274.6c0.06-0.13,0.1-0.21,0.1-0.3c0-0.07-0.03-0.17-0.1-0.31l-2.54-6.38h1.37l1.51,4.09
			c0.16,0.46,0.33,1,0.44,1.41h0.03c0.13-0.4,0.27-0.94,0.44-1.43l1.37-4.07h1.33l-1.89,4.93c-0.9,2.37-1.51,3.58-2.37,4.33
			c-0.63,0.54-1.24,0.76-1.54,0.81l-0.31-1.06c0.33-0.1,0.73-0.3,1.11-0.6C196.99,275.73,197.42,275.24,197.71,274.6z"/>
		<path class="st3" d="M206.36,270.13v-0.16c0-0.57-0.17-1.6-1.57-1.6c-0.64,0-1.31,0.2-1.8,0.51l-0.3-0.83
			c0.59-0.37,1.43-0.61,2.29-0.61c2.11,0,2.63,1.44,2.63,2.84v2.57c0,0.6,0.03,1.19,0.1,1.66h-1.13l-0.11-0.87h-0.03
			c-0.39,0.53-1.13,1.03-2.11,1.03c-1.39,0-2.11-0.99-2.11-1.99C202.2,271.02,203.69,270.1,206.36,270.13z M204.65,273.74
			c0.91,0,1.47-0.57,1.69-1.16c0.03-0.13,0.06-0.27,0.06-0.39v-1.21c-1.37-0.02-2.93,0.21-2.93,1.56
			C203.46,273.37,204,273.74,204.65,273.74z"/>
		<path class="st3" d="M209.63,269.47c0-0.71-0.03-1.28-0.06-1.87h1.11l0.06,1.14h0.04c0.34-0.64,1.14-1.3,2.29-1.3
			c0.94,0,2.43,0.59,2.43,2.94v4.13h-1.24v-3.97c0-1.13-0.43-2.06-1.6-2.06c-0.83,0-1.46,0.57-1.69,1.29
			c-0.06,0.16-0.1,0.37-0.1,0.58v4.16h-1.24V269.47z"/>
		<path class="st3" d="M222.63,265.94h-2.93v-1.06h7.13v1.06h-2.94v8.57h-1.26V265.94z"/>
		<path class="st3" d="M227.67,269.76c0-0.81-0.01-1.5-0.06-2.16h1.11l0.04,1.37h0.04c0.33-0.94,1.08-1.53,1.93-1.53
			c0.14,0,0.24,0.02,0.36,0.04v1.19c-0.13-0.03-0.26-0.04-0.43-0.04c-0.89,0-1.51,0.67-1.69,1.61c-0.04,0.17-0.06,0.39-0.06,0.59
			v3.69h-1.26V269.76z"/>
		<path class="st3" d="M235.88,270.13v-0.16c0-0.57-0.17-1.6-1.57-1.6c-0.64,0-1.31,0.2-1.8,0.51l-0.3-0.83
			c0.59-0.37,1.43-0.61,2.29-0.61c2.11,0,2.63,1.44,2.63,2.84v2.57c0,0.6,0.03,1.19,0.1,1.66h-1.13l-0.11-0.87h-0.03
			c-0.39,0.53-1.13,1.03-2.11,1.03c-1.39,0-2.11-0.99-2.11-1.99C231.73,271.02,233.21,270.1,235.88,270.13z M234.17,273.74
			c0.91,0,1.47-0.57,1.69-1.16c0.03-0.13,0.06-0.27,0.06-0.39v-1.21c-1.37-0.02-2.93,0.21-2.93,1.56
			C232.98,273.37,233.53,273.74,234.17,273.74z"/>
		<path class="st3" d="M241.75,267.44c1.06,0,1.77,0.5,2.09,1.06h0.03v-4.13h1.24v8.37c0,0.61,0.03,1.3,0.06,1.77h-1.11l-0.06-1.19
			h-0.04c-0.37,0.77-1.21,1.34-2.33,1.34c-1.69,0-2.97-1.41-2.97-3.51C238.64,268.86,240.07,267.44,241.75,267.44z M241.97,273.67
			c0.84,0,1.6-0.57,1.84-1.52c0.04-0.17,0.06-0.34,0.06-0.54v-1.2c0-0.16-0.01-0.36-0.06-0.54c-0.19-0.79-0.87-1.43-1.81-1.43
			c-1.3,0-2.07,1.14-2.07,2.66C239.92,272.5,240.61,273.67,241.97,273.67z"/>
		<path class="st3" d="M247.05,265.66c0-0.43,0.33-0.79,0.79-0.79c0.47,0,0.77,0.34,0.77,0.79c0.01,0.43-0.3,0.77-0.8,0.77
			C247.35,266.43,247.05,266.09,247.05,265.66z M247.21,267.6h1.24v6.91h-1.24V267.6z"/>
		<path class="st3" d="M250.55,269.47c0-0.71-0.03-1.28-0.06-1.87h1.11l0.06,1.14h0.04c0.34-0.64,1.14-1.3,2.29-1.3
			c0.94,0,2.43,0.59,2.43,2.94v4.13h-1.24v-3.97c0-1.13-0.43-2.06-1.6-2.06c-0.83,0-1.46,0.57-1.69,1.29
			c-0.06,0.16-0.1,0.37-0.1,0.58v4.16h-1.24V269.47z"/>
		<path class="st3" d="M260.92,276.53c1.29,0,2.23-0.69,2.23-2.43v-0.77h-0.03c-0.37,0.64-1.14,1.16-2.2,1.16
			c-1.73,0-2.94-1.46-2.94-3.37c0-2.34,1.53-3.67,3.11-3.67c1.2,0,1.86,0.63,2.16,1.2h0.03l0.06-1.04h1.1
			c-0.03,0.5-0.06,1.06-0.06,1.9v4.01c0,1.6-0.31,2.56-0.99,3.16c-0.67,0.63-1.64,0.83-2.51,0.83c-0.84,0-1.74-0.2-2.31-0.56
			l0.31-0.97C259.35,276.26,260.06,276.53,260.92,276.53z M261.29,273.54c0.77,0,1.47-0.5,1.74-1.3c0.07-0.21,0.1-0.46,0.1-0.67
			v-1.24c0-0.21-0.03-0.4-0.07-0.57c-0.23-0.73-0.84-1.33-1.77-1.33c-1.19,0-2.04,1.01-2.04,2.61
			C259.25,272.4,259.93,273.54,261.29,273.54z"/>
		<path class="st3" d="M274.76,264.75c1.2,0,1.97,0.24,2.29,0.41l-0.3,1.01c-0.47-0.23-1.14-0.4-1.94-0.4
			c-2.26,0-3.76,1.44-3.76,3.97c0,2.36,1.36,3.87,3.7,3.87c0.76,0,1.53-0.16,2.03-0.4l0.26,1c-0.46,0.21-1.37,0.46-2.56,0.46
			c-2.7,0-4.74-1.73-4.74-4.89C269.73,266.77,271.77,264.75,274.76,264.75z"/>
		<path class="st3" d="M281.32,267.44c1.94,0,3.31,1.4,3.31,3.61c0,2.56-1.87,3.62-3.47,3.62c-1.83,0-3.29-1.36-3.29-3.58
			C277.87,268.77,279.44,267.44,281.32,267.44z M281.24,273.74c1.37,0,2.11-1.27,2.11-2.67c0-1.2-0.57-2.67-2.11-2.67
			c-1.54,0-2.1,1.46-2.1,2.69C279.14,272.46,279.86,273.74,281.24,273.74z"/>
		<path class="st3" d="M286.21,269.47c0-0.71-0.03-1.28-0.06-1.87h1.1l0.06,1.11h0.03c0.39-0.66,1.03-1.27,2.19-1.27
			c0.94,0,1.66,0.59,1.96,1.39h0.03c0.21-0.39,0.49-0.69,0.77-0.9c0.43-0.31,0.87-0.49,1.53-0.49c0.91,0,2.27,0.6,2.27,3v4.07h-1.23
			v-3.9c0-1.34-0.49-2.13-1.5-2.13c-0.71,0-1.27,0.51-1.49,1.11c-0.06,0.2-0.11,0.42-0.11,0.64v4.27h-1.21v-4.14
			c0-1.1-0.5-1.89-1.44-1.89c-0.79,0-1.36,0.61-1.57,1.24c-0.06,0.19-0.09,0.41-0.09,0.61v4.17h-1.23V269.47z"/>
		<path class="st3" d="M299.37,277.34h-1.26v-7.48c0-0.89-0.01-1.6-0.06-2.26h1.14l0.06,1.19h0.03c0.51-0.84,1.33-1.34,2.46-1.34
			c1.67,0,2.93,1.41,2.93,3.51c0,2.48-1.51,3.71-3.13,3.71c-0.93,0-1.73-0.4-2.14-1.09h-0.03V277.34z M301.31,273.7
			c1.33,0,2.1-1.1,2.1-2.69c0-1.39-0.73-2.56-2.06-2.56c-0.86,0-1.67,0.6-1.9,1.54c-0.04,0.16-0.09,0.34-0.09,0.51v1.19
			c0,0.19,0.01,0.36,0.06,0.51C299.65,273.1,300.41,273.7,301.31,273.7z"/>
		<path class="st3" d="M309.87,270.13v-0.16c0-0.57-0.17-1.6-1.57-1.6c-0.64,0-1.31,0.2-1.8,0.51l-0.3-0.83
			c0.59-0.37,1.43-0.61,2.29-0.61c2.11,0,2.63,1.44,2.63,2.84v2.57c0,0.6,0.03,1.19,0.1,1.66h-1.13l-0.11-0.87h-0.03
			c-0.39,0.53-1.13,1.03-2.11,1.03c-1.39,0-2.11-0.99-2.11-1.99C305.71,271.02,307.2,270.1,309.87,270.13z M308.15,273.74
			c0.91,0,1.47-0.57,1.69-1.16c0.03-0.13,0.06-0.27,0.06-0.39v-1.21c-1.37-0.02-2.93,0.21-2.93,1.56
			C306.97,273.37,307.51,273.74,308.15,273.74z"/>
		<path class="st3" d="M313.14,269.47c0-0.71-0.03-1.28-0.06-1.87h1.11l0.06,1.14h0.04c0.34-0.64,1.14-1.3,2.29-1.3
			c0.94,0,2.43,0.59,2.43,2.94v4.13h-1.24v-3.97c0-1.13-0.43-2.06-1.6-2.06c-0.83,0-1.46,0.57-1.69,1.29
			c-0.06,0.16-0.1,0.37-0.1,0.58v4.16h-1.24V269.47z"/>
		<path class="st3" d="M322.51,274.6c0.06-0.13,0.1-0.21,0.1-0.3c0-0.07-0.03-0.17-0.1-0.31l-2.54-6.38h1.37l1.51,4.09
			c0.16,0.46,0.33,1,0.44,1.41h0.03c0.13-0.4,0.27-0.94,0.44-1.43l1.37-4.07h1.33l-1.89,4.93c-0.9,2.37-1.51,3.58-2.37,4.33
			c-0.63,0.54-1.24,0.76-1.54,0.81l-0.31-1.06c0.33-0.1,0.73-0.3,1.11-0.6C321.79,275.73,322.22,275.24,322.51,274.6z"/>
	</g>
</g>
</svg>
