<?xml version="1.0" encoding="utf-8"?>
<!-- Generator: Adobe Illustrator 26.0.1, SVG Export Plug-In . SVG Version: 6.00 Build 0)  -->
<svg version="1.1" id="Layer_1" xmlns="http://www.w3.org/2000/svg" xmlns:xlink="http://www.w3.org/1999/xlink" x="0px" y="0px"
	 viewBox="0 0 400 400" style="enable-background:new 0 0 400 400;" xml:space="preserve">
<style type="text/css">
	.st0{fill:#EA8819;}
	.st1{fill:#FFFFFF;}
	.st2{fill:#12100B;}
</style>
<g>
	<path d="M289.48,214.87c7.78,13.54-169.91,2.82-173.7,6.06c-8.92,7.54-8.33-143.9,0.91-127.89
		C339.52,100.48,281.58,50.7,289.48,214.87z"/>
	<g>
		<g>
			<polygon class="st0" points="202.61,175.24 222.33,122.47 231.45,122.47 236.19,109.77 227.07,109.77 231.76,97.2 208,97.2 
				203.35,109.77 194.21,109.77 189.48,122.47 198.58,122.47 179.02,175.24 179.02,175.25 178.98,175.25 176.99,180.62 
				169.93,199.66 195.65,199.66 182.88,225.72 180.45,230.68 177.42,236.87 178.62,236.87 183.56,231.62 187.89,227.04 
				231.71,180.62 231.72,180.62 200.59,180.62 			"/>
			<polygon class="st1" points="254.59,145.56 261.56,127.11 225.95,127.11 207.45,175.99 243.06,175.99 250.04,157.56 
				237.31,157.56 235.16,163.28 224.82,163.28 233.69,139.82 244,139.82 241.87,145.54 			"/>
			<path class="st1" d="M192.31,127.09h-35.28l-18.39,48.91h35.19L192.31,127.09z M156.04,163.31l8.89-23.52h9.9l-8.84,23.52H156.04
				z"/>
		</g>
	</g>
	<g>
		<g>
			<path class="st0" d="M26.89,255.87c2.09,1.5,3.32,2.81,4.29,4.04c0.96,1.31,1.47,2.76,1.47,4.15c0,3.48-2.65,5.14-4.93,5.14
				c-2.84,0-4.53-2.36-4.53-4.93c0-2.36,1.31-4.39,3-6.38c-0.16-0.13-0.35-0.27-0.54-0.4L26.89,255.87z M24,252.2
				c0-0.86,0.59-1.42,1.37-1.42c0.8,0,1.37,0.56,1.37,1.42c0,0.88-0.56,1.42-1.37,1.42C24.59,253.62,24,253.09,24,252.2z
				 M30.94,263.96c0-1.63-1.1-3.13-3.35-4.98c-1.45,1.45-2.68,3.29-2.68,4.77c0,1.85,1.42,2.97,3.03,2.97
				C30.03,266.72,30.94,265.12,30.94,263.96z M27.64,252.2c0-0.86,0.54-1.42,1.31-1.42c0.83,0,1.37,0.56,1.37,1.42
				c0,0.88-0.54,1.42-1.37,1.42C28.18,253.62,27.64,253.09,27.64,252.2z"/>
			<path class="st0" d="M33.34,272.67c1.15,0,3.08-0.59,4.37-3c0.4-0.78,0.64-1.79,0.64-2.17c0-0.99-0.27-3.38-2.52-7.9l1.98-0.86
				c1.12,2.2,2.33,5.84,2.33,8.41c0,0.86-0.24,2.14-0.59,3c-1.21,3.08-3.7,4.77-6.03,4.77c-1.69,0-3.03-0.67-3.62-1.34l0.35-1.66
				C31.42,272.56,32.33,272.67,33.34,272.67z"/>
			<path class="st0" d="M43.04,249.68l2.01-0.13l0.51,13.24c0.11,2.87,1.23,3.67,3.05,3.78c0.78,0,1.42,0.38,1.42,1.21
				c0,0.54-0.24,1.23-1.42,1.23c-3.13,0-4.88-1.45-5.04-5.54L43.04,249.68z"/>
			<path class="st0" d="M64.04,264.15c-0.21,0-0.46,0.03-0.7,0.05c0.19,1.96,1.71,2.36,3.54,2.36c0.78,0,1.42,0.38,1.42,1.21
				c0,0.54-0.24,1.23-1.42,1.23c-3.13-0.03-4.9-1.26-5.09-4.29c-0.67,0.27-1.42,0.64-2.2,1.13c-3.67,2.36-6.22,3.16-10.66,3.16
				h-0.29c-0.88,0-1.37-0.54-1.37-1.21c0-0.62,0.38-1.23,1.37-1.23h0.32c3.4,0,6-0.48,8.28-1.61c1.82-0.86,2.55-1.31,3.4-1.58
				c-2.04-0.62-4.61-2.14-7.23-2.14c-1.1,0-2.46,0.11-3.54,0.72l0.4-2.22c0.94-0.54,2.41-0.67,3.24-0.67c2.33,0,4.39,0.8,6.7,1.88
				c1.93,0.86,2.97,0.99,4.15,0.99h0.78l-0.38,2.22H64.04z M58.52,273.26c0,0.91-0.54,1.47-1.39,1.47c-0.8,0-1.37-0.56-1.37-1.47
				c0-0.86,0.56-1.45,1.39-1.45C57.99,271.81,58.52,272.4,58.52,273.26z"/>
			<path class="st0" d="M65.43,267.77c0-0.54,0.38-1.18,1.39-1.18c2.95,0,3.54-1.77,3.8-4.1l1.58-0.13
				c-0.03,0.21-0.05,0.59-0.05,0.91c0,1.69,0.54,3.29,3.13,3.32c0.78,0,1.42,0.35,1.42,1.18c0,0.54-0.24,1.23-1.42,1.23
				c-2.33,0-3.59-0.88-4.13-2.68c-0.7,1.9-2.2,2.68-4.37,2.68C65.72,269,65.43,268.36,65.43,267.77z M67.94,256.76
				c0-0.86,0.59-1.42,1.37-1.42c0.8,0,1.37,0.56,1.37,1.42c0,0.88-0.56,1.42-1.37,1.42C68.53,258.18,67.94,257.64,67.94,256.76z
				 M71.59,256.76c0-0.86,0.51-1.42,1.31-1.42c0.8,0,1.37,0.56,1.37,1.42c0,0.88-0.56,1.42-1.37,1.42
				C72.1,258.18,71.59,257.64,71.59,256.76z"/>
			<path class="st0" d="M73.89,267.74c0-0.54,0.38-1.18,1.39-1.18c2.25,0,3.16-1.21,3.03-4.5l-0.46-12.35l2.01-0.16l0.48,12.49
				c0.11,3.38,0.94,4.45,3.05,4.53c0.8,0,1.45,0.38,1.45,1.21c0,0.51-0.27,1.23-1.45,1.23c-1.96,0-3.35-0.83-3.86-2.54
				c-0.78,1.71-2.25,2.54-4.29,2.54C74.18,269,73.89,268.33,73.89,267.74z"/>
			<path class="st0" d="M82.03,267.74c0-0.46,0.35-1.18,1.37-1.18c1.96,0,3.24-0.96,3.11-3.46l-0.64-13.4l2.01-0.16l0.64,13.58
				c0.21,4.07-1.79,5.87-5.12,5.87C82.32,269,82.03,268.33,82.03,267.74z"/>
			<path class="st0" d="M100.35,262.49l1.53,0.27c-0.43,1.37-0.54,2.76-0.54,3.32c0,3,2.17,4.66,5.04,4.66
				c2.25,0,4.42-0.72,5.44-2.79c0.16-0.27,0.32-0.88,0.32-1.15c0-1.58-0.59-3.97-2.33-7.42l2.06-0.67c0.83,1.63,2.04,4.74,2.04,7.74
				c0,0.8-0.29,2.01-0.62,2.65c-1.31,2.68-4.02,4.07-7.23,4.07c-4.02,0-6.64-2.6-6.64-6.43C99.41,265.46,99.76,263.7,100.35,262.49z
				 M104.34,255.39c0-0.86,0.59-1.45,1.39-1.45c0.83,0,1.39,0.59,1.39,1.45c0,0.88-0.56,1.45-1.39,1.45
				C104.93,256.84,104.34,256.27,104.34,255.39z"/>
			<path class="st0" d="M116.87,249.68l2.01-0.13l0.51,13.24c0.11,2.87,1.23,3.67,3.05,3.78c0.78,0,1.42,0.38,1.42,1.21
				c0,0.54-0.24,1.23-1.42,1.23c-3.13,0-4.88-1.45-5.04-5.54L116.87,249.68z"/>
			<path class="st0" d="M120.99,267.77c0-0.54,0.38-1.18,1.39-1.18c2.95,0,3.54-1.77,3.8-4.1l1.58-0.13
				c-0.03,0.21-0.05,0.59-0.05,0.91c0,1.69,0.54,3.29,3.13,3.32c0.78,0,1.42,0.35,1.42,1.18c0,0.54-0.24,1.23-1.42,1.23
				c-2.33,0-3.59-0.88-4.13-2.68c-0.7,1.9-2.2,2.68-4.37,2.68C121.29,269,120.99,268.36,120.99,267.77z M126.3,274.28
				c0,0.86-0.56,1.42-1.37,1.42c-0.78,0-1.37-0.54-1.37-1.42c0-0.86,0.59-1.42,1.37-1.42C125.74,272.86,126.3,273.42,126.3,274.28z
				 M129.89,274.28c0,0.86-0.56,1.42-1.37,1.42c-0.8,0-1.31-0.54-1.31-1.42c0-0.86,0.51-1.42,1.31-1.42
				C129.33,272.86,129.89,273.42,129.89,274.28z"/>
			<path class="st0" d="M129.46,267.74c0-0.54,0.38-1.18,1.39-1.18c2.25,0,3.16-1.21,3.03-4.5l-0.46-12.35l2.01-0.16l0.48,12.49
				c0.11,3.38,0.94,4.45,3.05,4.53c0.8,0,1.45,0.38,1.45,1.21c0,0.51-0.27,1.23-1.45,1.23c-1.96,0-3.35-0.83-3.86-2.54
				c-0.78,1.71-2.25,2.54-4.29,2.54C129.75,269,129.46,268.33,129.46,267.74z"/>
			<path class="st0" d="M155.25,266.56c0.78,0,1.42,0.38,1.42,1.21c0,0.54-0.27,1.23-1.42,1.23h-0.32c-2.65,0-4.98-0.72-6.94-1.79
				c-2.38,1.07-5.44,1.79-9.03,1.79c-1.02,0-1.34-0.7-1.34-1.21c0-0.46,0.32-1.23,1.34-1.23h0.08c2.6,0,4.85-0.35,6.7-0.86
				c-1.71-1.37-2.97-2.95-3.72-4.37c-0.56,0.21-1.04,0.4-1.47,0.64l-0.24-1.93c1.07-0.54,3.78-1.66,7.21-1.66
				c4.53,0,5.89,1.39,5.89,3.05c0,1.45-1.07,3.05-3.03,4.42c1.42,0.46,3,0.7,4.77,0.7H155.25z M148.02,264.9
				c2.38-1.04,3.64-2.33,3.64-3.13c0-0.48-0.67-1.39-4.26-1.39c-1.04,0-2.38,0.19-3.7,0.48
				C144.64,262.44,146.09,263.86,148.02,264.9z"/>
			<path class="st0" d="M153.88,267.74c0-0.46,0.35-1.18,1.37-1.18c1.96,0,3.24-0.96,3.11-3.46l-0.64-13.4l2.01-0.16l0.64,13.58
				c0.21,4.07-1.79,5.87-5.12,5.87C154.17,269,153.88,268.33,153.88,267.74z"/>
			<path class="st0" d="M164.7,249.71l2.01-0.16l0.75,19.45h-2.01L164.7,249.71z"/>
			<path class="st0" d="M179.67,264.53c0.38,1.31,1.07,1.98,3.11,1.98c1.42,0,2.92-0.38,3.75-1.13c0.4-0.38,0.67-0.94,0.64-1.12
				c-0.21-0.91-1.12-4.53-2.2-8.12l1.96-0.67c0.91,3.54,1.34,5.41,2.17,8.41c0.62,2.2,1.53,2.68,3.16,2.68
				c0.78,0,1.42,0.38,1.42,1.21c0,0.54-0.27,1.23-1.42,1.23c-2.65,0-3.59-0.94-4.42-2.73c-0.43,1.53-2.62,2.73-5.22,2.73
				c-2.92,0-4.34-1.21-4.47-4.18L179.67,264.53z"/>
			<path class="st0" d="M192.39,266.56c1.15-0.05,1.66-0.51,2.3-2.36c1.15-3.05,2.2-4.21,4.23-4.21c2.25,0,3.8,2.33,4.26,4.55
				c0.78,1.77,1.53,2.01,2.33,2.01c0.78,0,1.42,0.38,1.42,1.21c0,0.54-0.24,1.23-1.42,1.23c-0.8,0-1.85-0.29-2.57-1.34
				c-0.51,1.02-1.5,1.66-2.65,1.66c-1.53,0-3.13-0.59-4.96-1.98c-0.75,1.15-1.58,1.66-3.03,1.66h-0.05c-0.78,0-1.45-0.38-1.45-1.21
				c0-0.54,0.27-1.23,1.45-1.23H192.39z M201.6,265.84c0-1.61-1.18-3.75-2.79-3.75c-1.04,0-1.85,0.59-2.62,3.08
				c0.99,0.91,2.73,1.79,4.15,1.79C201.04,266.96,201.6,266.72,201.6,265.84z"/>
			<path class="st0" d="M220.94,264.15c-0.21,0-0.46,0.03-0.7,0.05c0.19,1.96,1.71,2.36,3.54,2.36c0.78,0,1.42,0.38,1.42,1.21
				c0,0.54-0.24,1.23-1.42,1.23c-3.13-0.03-4.9-1.26-5.09-4.29c-0.67,0.27-1.42,0.64-2.2,1.13c-3.67,2.36-6.22,3.16-10.66,3.16
				h-0.29c-0.88,0-1.37-0.54-1.37-1.21c0-0.62,0.38-1.23,1.37-1.23h0.32c3.4,0,6-0.48,8.28-1.61c1.82-0.86,2.55-1.31,3.4-1.58
				c-2.04-0.62-4.61-2.14-7.23-2.14c-1.1,0-2.46,0.11-3.54,0.72l0.4-2.22c0.94-0.54,2.41-0.67,3.24-0.67c2.33,0,4.39,0.8,6.7,1.88
				c1.93,0.86,2.97,0.99,4.15,0.99h0.78l-0.38,2.22H220.94z"/>
			<path class="st0" d="M223.77,269c-0.8,0-1.45-0.38-1.45-1.23c0-0.56,0.32-1.21,1.47-1.21c1.31,0.03,1.88-0.8,2.41-2.36
				c1.13-3.21,2.2-4.53,4.23-4.53c2.76,0,4.37,3.4,4.37,5.92c0,2.01-1.34,3.4-3.05,3.4c-1.5,0-3.05-0.59-4.88-1.98
				c-0.7,1.39-1.5,1.98-3.05,1.98H223.77z M233.12,265.52c0-1.61-1.31-3.75-2.79-3.75c-1.04,0-1.79,0.59-2.57,3.08
				c0.99,0.91,2.68,1.79,4.1,1.79C232.56,266.64,233.12,266.4,233.12,265.52z"/>
			<path class="st0" d="M253.08,263.13c0.13,2.89,1.42,3.43,2.95,3.43c0.78,0,1.45,0.38,1.45,1.21c0,0.54-0.27,1.23-1.45,1.23
				c-1.66,0-3.38-0.46-4.21-2.44c-0.88,0.56-2.41,0.83-3.32,0.83c-2.44,0-4.07-1.34-4.07-3.38c0-1.69,0.91-3.13,2.62-4.5
				c0.99-0.8,2.65-1.66,3.97-2.33l-0.08-2.14l1.82-0.19L253.08,263.13z M251.09,259.17c-3.43,1.45-4.85,2.95-4.85,4.23
				c0,1.1,1.04,1.61,2.54,1.61c0.78,0,1.82-0.19,2.54-0.51c0-0.19-0.03-0.38-0.03-0.59L251.09,259.17z"/>
			<path class="st0" d="M254.63,267.74c0-0.54,0.38-1.18,1.39-1.18c2.25,0,3.16-1.21,3.03-4.5l-0.46-12.35l2.01-0.16l0.48,12.49
				c0.11,3.38,0.94,4.45,3.05,4.53c0.8,0,1.45,0.38,1.45,1.21c0,0.51-0.27,1.23-1.45,1.23c-1.96,0-3.35-0.83-3.86-2.54
				c-0.78,1.71-2.25,2.54-4.29,2.54C254.92,269,254.63,268.33,254.63,267.74z"/>
			<path class="st0" d="M262.77,267.74c0-0.46,0.35-1.18,1.37-1.18c1.96,0,3.24-0.96,3.11-3.46l-0.64-13.4l2.01-0.16l0.64,13.58
				c0.21,4.07-1.79,5.87-5.12,5.87C263.06,269,262.77,268.33,262.77,267.74z"/>
			<path class="st0" d="M273.59,249.71l2.01-0.16l0.75,19.45h-2.01L273.59,249.71z"/>
			<path class="st0" d="M288.56,264.53c0.38,1.31,1.07,1.98,3.11,1.98c1.42,0,2.92-0.38,3.75-1.13c0.4-0.38,0.67-0.94,0.64-1.12
				c-0.21-0.91-1.12-4.53-2.2-8.12l1.96-0.67c0.91,3.54,1.34,5.41,2.17,8.41c0.62,2.2,1.53,2.68,3.16,2.68
				c0.78,0,1.42,0.38,1.42,1.21c0,0.54-0.27,1.23-1.42,1.23c-2.65,0-3.59-0.94-4.42-2.73c-0.43,1.53-2.62,2.73-5.22,2.73
				c-2.92,0-4.34-1.21-4.47-4.18L288.56,264.53z"/>
			<path class="st0" d="M299.69,267.77c0-0.54,0.38-1.18,1.39-1.18c2.95,0,3.54-1.77,3.8-4.1l1.58-0.13
				c-0.03,0.21-0.05,0.59-0.05,0.91c0,1.69,0.54,3.29,3.13,3.32c0.78,0,1.42,0.35,1.42,1.18c0,0.54-0.24,1.23-1.42,1.23
				c-2.33,0-3.59-0.88-4.13-2.68c-0.7,1.9-2.2,2.68-4.37,2.68C299.99,269,299.69,268.36,299.69,267.77z M306.82,274.3
				c0,0.91-0.56,1.47-1.39,1.47c-0.8,0-1.39-0.56-1.39-1.47c0-0.86,0.59-1.45,1.39-1.45C306.26,272.86,306.82,273.45,306.82,274.3z"
				/>
			<path class="st0" d="M308.18,267.74c0-0.48,0.29-1.18,1.37-1.18h0.32c0.7,0,3.11-0.13,3.83-0.19c-1.02-0.62-2.46-1.98-2.46-3.91
				c0-3,2.46-5.09,5.36-5.09c1.53,0,2.65,0.4,3.38,0.94l0.24,2.04c-0.83-0.54-2.28-0.83-3.56-0.83c-2.17,0-3.67,1.29-3.67,2.84
				c0,1.18,0.99,2.28,2.6,3.13c0.62,0.35,1.31,0.48,1.71,0.48c1.07,0,3.19-0.32,4.71-1.02l-0.35,2.33
				c-2.04,0.99-7.47,1.71-11.73,1.71h-0.4C308.59,269,308.18,268.38,308.18,267.74z"/>
			<path class="st0" d="M339.9,263.13c0.13,2.89,1.42,3.43,2.95,3.43c0.78,0,1.45,0.38,1.45,1.21c0,0.54-0.27,1.23-1.45,1.23
				c-1.66,0-3.38-0.46-4.21-2.44c-0.88,0.56-2.41,0.83-3.32,0.83c-2.44,0-4.07-1.34-4.07-3.38c0-1.69,0.91-3.13,2.62-4.5
				c0.99-0.8,2.65-1.66,3.97-2.33l-0.08-2.14l1.82-0.19L339.9,263.13z M337.91,259.17c-3.43,1.45-4.85,2.95-4.85,4.23
				c0,1.1,1.04,1.61,2.54,1.61c0.78,0,1.82-0.19,2.54-0.51c0-0.19-0.03-0.38-0.03-0.59L337.91,259.17z M335.23,251
				c0-0.86,0.59-1.42,1.37-1.42c0.8,0,1.37,0.56,1.37,1.42c0,0.86-0.56,1.39-1.37,1.39C335.82,252.39,335.23,251.88,335.23,251z
				 M338.88,251c0-0.86,0.54-1.42,1.31-1.42c0.83,0,1.37,0.56,1.37,1.42c0,0.86-0.54,1.39-1.37,1.39
				C339.41,252.39,338.88,251.88,338.88,251z"/>
			<path class="st0" d="M341.47,267.74c0-0.4,0.29-1.18,1.37-1.18h2.28c4.29,0,5.06-0.99,5.06-2.2c0-1.26-1.66-3.7-7.18-7.39
				c0.03-0.59,0.11-1.74,0.35-2.22c0.08-0.13,0.4-0.4,1.07-0.78c2.22-1.34,6.11-3.29,9.51-4.42l-0.46,2.36
				c-2.44,0.86-6.62,2.73-8.52,3.91c3.48,2.68,6.94,5.28,6.94,8.63c0,1.55-0.78,2.84-1.9,3.54c-1.29,0.78-2.79,1.02-5.3,1.02h-1.85
				C341.74,269,341.47,268.28,341.47,267.74z"/>
			<path class="st0" d="M366.83,257.16c0-0.78,0.59-1.39,1.34-1.39c0.8,0,1.37,0.62,1.37,1.39c0,0.88-0.56,1.45-1.37,1.45
				C367.39,258.61,366.83,258.07,366.83,257.16z M368.68,253.95c0-0.83,0.51-1.42,1.29-1.42c0.83,0,1.37,0.59,1.37,1.42
				c0,0.88-0.54,1.42-1.37,1.42C369.19,255.37,368.68,254.86,368.68,253.95z M370.39,257.16c0-0.78,0.54-1.39,1.34-1.39
				c0.8,0,1.31,0.62,1.31,1.39c0,0.88-0.51,1.45-1.31,1.45C370.93,258.61,370.39,258.07,370.39,257.16z"/>
			<path class="st0" d="M352.72,274.89c2.6,0,4.85-2.14,4.85-4.93c0-1.26-0.91-4.23-1.61-5.54c1.53-0.62,5.09-1.63,7.1-1.98
				l1.55-0.13c-0.11,0.56-0.13,1.02-0.13,1.34c0,2.12,1.07,3.03,2.38,3.03c1.31,0,2.44-0.72,2.97-3.48l1.66-0.08
				c-0.05,0.38-0.21,0.99-0.21,1.47c-0.03,1.45,0.72,2.04,1.69,2.04c1.23,0,2.06-0.88,2.06-2.14c0-1.07-0.35-2.17-0.86-3.19
				l1.96-0.56c0.38,0.8,0.67,2.01,0.67,3.48c0,3-1.74,4.79-3.99,4.79c-1.55,0-2.44-0.94-2.79-1.88c-0.78,1.26-2.09,1.88-3.43,1.88
				c-1.66,0-3.62-1.04-3.72-4.53c-0.64,0.08-3.38,0.78-4.31,1.15c0.27,0.8,0.75,3,0.75,4.37c0,3.72-2.57,7.05-6.54,7.05
				c-1.37,0-2.92-0.46-3.83-1.45l0.35-1.69C350.2,274.49,351.35,274.89,352.72,274.89z"/>
		</g>
	</g>
	<g>
		<path class="st2" d="M43.52,295.04h1.59l3.47,10.18h-1.4l-1.09-3.2h-3.61l-1.04,3.2h-1.37L43.52,295.04z M45.81,300.99l-1-2.93
			c-0.23-0.66-0.38-1.27-0.53-1.86h-0.05c-0.14,0.6-0.3,1.22-0.5,1.84l-1,2.94H45.81z"/>
		<path class="st2" d="M49.97,303.35v-8.85h1.33v4.59h0.03c0.47-0.81,1.31-1.34,2.49-1.34c1.81,0,3.1,1.53,3.08,3.73
			c0,2.61-1.66,3.91-3.28,3.91c-1.06,0-1.9-0.41-2.46-1.36h-0.03l-0.06,1.19h-1.16C49.95,304.72,49.97,304,49.97,303.35z
			 M53.35,304.33c1.4,0,2.22-1.13,2.22-2.81c0-1.47-0.76-2.72-2.19-2.72c-0.89,0-1.74,0.62-2.01,1.63
			c-0.03,0.16-0.08,0.33-0.08,0.56v1.3c0,0.17,0.02,0.33,0.06,0.48C51.61,303.71,52.38,304.33,53.35,304.33z"/>
		<path class="st2" d="M61.32,297.74c1.12,0,1.87,0.53,2.2,1.12h0.03v-4.36h1.31v8.85c0,0.65,0.03,1.37,0.06,1.87h-1.18l-0.06-1.25
			h-0.05c-0.39,0.82-1.28,1.42-2.46,1.42c-1.78,0-3.14-1.5-3.14-3.72C58.03,299.24,59.54,297.74,61.32,297.74z M61.55,304.33
			c0.89,0,1.69-0.61,1.95-1.6c0.05-0.18,0.06-0.36,0.06-0.57v-1.27c0-0.17-0.02-0.38-0.06-0.58c-0.2-0.83-0.92-1.51-1.92-1.51
			c-1.37,0-2.19,1.21-2.19,2.81C59.39,303.09,60.11,304.33,61.55,304.33z"/>
		<path class="st2" d="M67.05,297.91h1.31v4.05c0,1.42,0.47,2.34,1.62,2.34c0.97,0,1.59-0.67,1.78-1.21
			c0.08-0.21,0.12-0.47,0.12-0.69v-4.49h1.31v5.32c0,0.77,0.03,1.4,0.06,1.99h-1.16l-0.08-1.19h-0.03
			c-0.33,0.56-1.07,1.36-2.43,1.36c-1.42,0-2.51-0.86-2.51-3.2V297.91z"/>
		<path class="st2" d="M75.4,294.5h1.31v10.72H75.4V294.5z"/>
		<path class="st2" d="M78.95,294.5h1.31v10.72h-1.31V294.5z"/>
		<path class="st2" d="M86.31,300.58v-0.17c0-0.6-0.18-1.69-1.66-1.69c-0.68,0-1.39,0.21-1.9,0.54l-0.32-0.88
			c0.62-0.39,1.51-0.65,2.42-0.65c2.24,0,2.78,1.53,2.78,3.01v2.72c0,0.64,0.03,1.25,0.11,1.75h-1.19l-0.12-0.92h-0.03
			c-0.41,0.56-1.19,1.09-2.24,1.09c-1.46,0-2.23-1.04-2.23-2.1C81.92,301.52,83.49,300.55,86.31,300.58z M84.5,304.4
			c0.97,0,1.56-0.6,1.78-1.22c0.03-0.14,0.06-0.29,0.06-0.41v-1.28c-1.45-0.02-3.1,0.23-3.1,1.65
			C83.25,304.01,83.82,304.4,84.5,304.4z"/>
		<path class="st2" d="M89.77,294.5h1.31v4.56h0.03c0.23-0.38,0.56-0.71,0.97-0.94c0.39-0.23,0.85-0.38,1.34-0.38
			c1,0,2.55,0.6,2.55,3.14v4.33h-1.31v-4.2c0-1.19-0.44-2.17-1.69-2.17c-0.88,0-1.54,0.62-1.78,1.33c-0.08,0.19-0.11,0.39-0.11,0.63
			v4.41h-1.31V294.5z"/>
		<path class="st2" d="M102.65,295.04h1.68l1.74,4.94c0.42,1.24,0.76,2.43,1.01,3.49h0.06c0.24-1.03,0.6-2.22,1.07-3.5l1.81-4.92
			h1.68l0.63,10.18h-1.3l-0.23-4.47c-0.09-1.41-0.18-3.13-0.17-4.38h-0.05c-0.35,1.18-0.82,2.55-1.3,3.91l-1.77,4.88h-1.04
			l-1.62-4.85c-0.5-1.43-0.89-2.75-1.18-3.94h-0.03c-0.05,1.25-0.11,2.94-0.2,4.48l-0.27,4.37h-1.25L102.65,295.04z"/>
		<path class="st2" d="M117.5,297.74c2.05,0,3.5,1.48,3.5,3.82c0,2.71-1.98,3.82-3.67,3.82c-1.93,0-3.47-1.44-3.47-3.79
			C113.86,299.15,115.52,297.74,117.5,297.74z M117.42,304.4c1.45,0,2.23-1.34,2.23-2.82c0-1.27-0.6-2.82-2.23-2.82
			s-2.22,1.54-2.22,2.84C115.2,303.04,115.96,304.4,117.42,304.4z"/>
		<path class="st2" d="M122.68,294.5h1.31v4.56h0.03c0.23-0.38,0.56-0.71,0.97-0.94c0.39-0.23,0.85-0.38,1.34-0.38
			c1,0,2.55,0.6,2.55,3.14v4.33h-1.31v-4.2c0-1.19-0.44-2.17-1.69-2.17c-0.88,0-1.54,0.62-1.78,1.33c-0.08,0.19-0.11,0.39-0.11,0.63
			v4.41h-1.31V294.5z"/>
		<path class="st2" d="M134.88,300.58v-0.17c0-0.6-0.18-1.69-1.66-1.69c-0.68,0-1.39,0.21-1.9,0.54l-0.32-0.88
			c0.62-0.39,1.51-0.65,2.42-0.65c2.24,0,2.78,1.53,2.78,3.01v2.72c0,0.64,0.03,1.25,0.11,1.75h-1.19l-0.12-0.92h-0.03
			c-0.41,0.56-1.19,1.09-2.24,1.09c-1.46,0-2.23-1.04-2.23-2.1C130.49,301.52,132.06,300.55,134.88,300.58z M133.07,304.4
			c0.97,0,1.56-0.6,1.78-1.22c0.03-0.14,0.06-0.29,0.06-0.41v-1.28c-1.45-0.02-3.1,0.23-3.1,1.65
			C131.81,304.01,132.39,304.4,133.07,304.4z"/>
		<path class="st2" d="M138.34,299.89c0-0.75-0.03-1.36-0.06-1.98h1.16l0.06,1.18h0.03c0.41-0.69,1.09-1.34,2.31-1.34
			c1,0,1.75,0.62,2.07,1.47h0.03c0.23-0.41,0.51-0.73,0.82-0.95c0.45-0.33,0.92-0.51,1.62-0.51c0.97,0,2.4,0.63,2.4,3.17v4.3h-1.3
			v-4.12c0-1.42-0.51-2.25-1.59-2.25c-0.76,0-1.34,0.54-1.57,1.18c-0.06,0.21-0.12,0.44-0.12,0.68v4.52h-1.28v-4.38
			c0-1.16-0.53-1.99-1.53-1.99c-0.83,0-1.43,0.65-1.66,1.31c-0.06,0.2-0.09,0.44-0.09,0.65v4.41h-1.3V299.89z"/>
		<path class="st2" d="M150.93,299.89c0-0.75-0.03-1.36-0.06-1.98h1.16l0.06,1.18h0.03c0.41-0.69,1.09-1.34,2.31-1.34
			c1,0,1.75,0.62,2.07,1.47h0.03c0.23-0.41,0.51-0.73,0.82-0.95c0.45-0.33,0.92-0.51,1.62-0.51c0.97,0,2.4,0.63,2.4,3.17v4.3h-1.3
			v-4.12c0-1.42-0.51-2.25-1.59-2.25c-0.76,0-1.34,0.54-1.57,1.18c-0.06,0.21-0.12,0.44-0.12,0.68v4.52h-1.28v-4.38
			c0-1.16-0.53-1.99-1.53-1.99c-0.83,0-1.43,0.65-1.66,1.31c-0.06,0.2-0.09,0.44-0.09,0.65v4.41h-1.3V299.89z"/>
		<path class="st2" d="M166.44,297.74c2.37,0,3.01,2.1,3.01,3.44c0,0.29-0.02,0.47-0.06,0.62h-5.12c0.03,1.8,1.16,2.54,2.49,2.54
			c0.97,0,1.54-0.17,2.04-0.38l0.23,0.95c-0.45,0.21-1.28,0.47-2.43,0.47c-2.25,0-3.59-1.5-3.59-3.69
			C163,299.48,164.3,297.74,166.44,297.74z M168.16,300.85c0.02-0.83-0.35-2.14-1.84-2.14c-1.34,0-1.93,1.22-2.04,2.14H168.16z"/>
		<path class="st2" d="M173.84,297.74c1.12,0,1.87,0.53,2.2,1.12h0.03v-4.36h1.31v8.85c0,0.65,0.03,1.37,0.06,1.87h-1.18l-0.06-1.25
			h-0.05c-0.39,0.82-1.28,1.42-2.46,1.42c-1.78,0-3.14-1.5-3.14-3.72C170.55,299.24,172.06,297.74,173.84,297.74z M174.07,304.33
			c0.89,0,1.69-0.61,1.95-1.6c0.05-0.18,0.06-0.36,0.06-0.57v-1.27c0-0.17-0.02-0.38-0.06-0.58c-0.2-0.83-0.92-1.51-1.92-1.51
			c-1.37,0-2.19,1.21-2.19,2.81C171.91,303.09,172.63,304.33,174.07,304.33z"/>
		<path class="st2" d="M186.36,295.04h1.59l3.47,10.18h-1.4l-1.09-3.2h-3.61l-1.04,3.2h-1.37L186.36,295.04z M188.66,300.99l-1-2.93
			c-0.23-0.66-0.38-1.27-0.53-1.86h-0.05c-0.14,0.6-0.3,1.22-0.5,1.84l-1,2.94H188.66z"/>
		<path class="st2" d="M192.82,294.5h1.31v10.72h-1.31V294.5z"/>
		<path class="st2" d="M195.72,300.64h3.68v0.98h-3.68V300.64z"/>
		<path class="st2" d="M200.61,300.19c0-3.13,1.95-5.32,4.76-5.32c2.9,0,4.55,2.3,4.55,5.24c0,3.38-2.16,5.27-4.73,5.27
			C202.43,305.39,200.61,303.23,200.61,300.19z M208.53,300.14c0-2.08-1.01-4.2-3.25-4.2c-2.11,0-3.28,1.92-3.28,4.2
			c0,2.31,1.19,4.17,3.26,4.17C207.41,304.31,208.53,302.37,208.53,300.14z"/>
		<path class="st2" d="M211.58,294.5h1.31v10.72h-1.31V294.5z"/>
		<path class="st2" d="M218.95,300.58v-0.17c0-0.6-0.18-1.69-1.66-1.69c-0.68,0-1.39,0.21-1.9,0.54l-0.32-0.88
			c0.62-0.39,1.51-0.65,2.42-0.65c2.24,0,2.78,1.53,2.78,3.01v2.72c0,0.64,0.03,1.25,0.11,1.75h-1.19l-0.12-0.92h-0.03
			c-0.41,0.56-1.19,1.09-2.24,1.09c-1.46,0-2.23-1.04-2.23-2.1C214.55,301.52,216.12,300.55,218.95,300.58z M217.14,304.4
			c0.97,0,1.56-0.6,1.78-1.22c0.03-0.14,0.06-0.29,0.06-0.41v-1.28c-1.45-0.02-3.1,0.23-3.1,1.65
			C215.88,304.01,216.46,304.4,217.14,304.4z"/>
		<path class="st2" d="M224.01,305.31c0.06-0.14,0.11-0.23,0.11-0.32c0-0.08-0.03-0.18-0.11-0.33l-2.69-6.75h1.45l1.6,4.32
			c0.17,0.48,0.35,1.06,0.47,1.49h0.03c0.14-0.42,0.29-1,0.47-1.51l1.45-4.3h1.4l-1.99,5.21c-0.95,2.51-1.6,3.79-2.51,4.58
			c-0.66,0.57-1.31,0.8-1.63,0.86l-0.33-1.12c0.35-0.11,0.77-0.32,1.18-0.63C223.25,306.5,223.7,305.99,224.01,305.31z"/>
		<path class="st2" d="M233.16,300.58v-0.17c0-0.6-0.18-1.69-1.66-1.69c-0.68,0-1.39,0.21-1.9,0.54l-0.32-0.88
			c0.62-0.39,1.51-0.65,2.42-0.65c2.24,0,2.78,1.53,2.78,3.01v2.72c0,0.64,0.03,1.25,0.11,1.75h-1.19l-0.12-0.92h-0.03
			c-0.41,0.56-1.19,1.09-2.24,1.09c-1.46,0-2.23-1.04-2.23-2.1C228.76,301.52,230.33,300.55,233.16,300.58z M231.35,304.4
			c0.97,0,1.56-0.6,1.78-1.22c0.03-0.14,0.06-0.29,0.06-0.41v-1.28c-1.45-0.02-3.1,0.23-3.1,1.65
			C230.09,304.01,230.67,304.4,231.35,304.4z"/>
		<path class="st2" d="M236.62,299.89c0-0.75-0.03-1.36-0.06-1.98h1.18l0.06,1.21h0.05c0.36-0.68,1.21-1.37,2.42-1.37
			c1,0,2.57,0.62,2.57,3.11v4.37h-1.31v-4.2c0-1.19-0.45-2.17-1.69-2.17c-0.88,0-1.54,0.6-1.78,1.36c-0.06,0.16-0.11,0.39-0.11,0.62
			v4.4h-1.31V299.89z"/>
		<path class="st2" d="M250.36,296.16h-3.1v-1.12h7.54v1.12h-3.11v9.06h-1.33V296.16z"/>
		<path class="st2" d="M255.69,300.19c0-0.86-0.02-1.59-0.06-2.28h1.18l0.05,1.45h0.05c0.35-1,1.15-1.62,2.04-1.62
			c0.15,0,0.26,0.02,0.38,0.05v1.25c-0.14-0.03-0.27-0.05-0.45-0.05c-0.94,0-1.6,0.71-1.78,1.71c-0.05,0.18-0.06,0.41-0.06,0.62v3.9
			h-1.33V300.19z"/>
		<path class="st2" d="M264.37,300.58v-0.17c0-0.6-0.18-1.69-1.66-1.69c-0.68,0-1.39,0.21-1.9,0.54l-0.32-0.88
			c0.62-0.39,1.51-0.65,2.42-0.65c2.24,0,2.78,1.53,2.78,3.01v2.72c0,0.64,0.03,1.25,0.11,1.75h-1.19l-0.12-0.92h-0.03
			c-0.41,0.56-1.19,1.09-2.24,1.09c-1.46,0-2.23-1.04-2.23-2.1C259.98,301.52,261.55,300.55,264.37,300.58z M262.56,304.4
			c0.97,0,1.56-0.6,1.78-1.22c0.03-0.14,0.06-0.29,0.06-0.41v-1.28c-1.45-0.02-3.1,0.23-3.1,1.65
			C261.31,304.01,261.88,304.4,262.56,304.4z"/>
		<path class="st2" d="M270.58,297.74c1.12,0,1.87,0.53,2.2,1.12h0.03v-4.36h1.31v8.85c0,0.65,0.03,1.37,0.06,1.87h-1.18l-0.06-1.25
			h-0.05c-0.39,0.82-1.28,1.42-2.46,1.42c-1.78,0-3.14-1.5-3.14-3.72C267.29,299.24,268.8,297.74,270.58,297.74z M270.81,304.33
			c0.89,0,1.69-0.61,1.95-1.6c0.05-0.18,0.06-0.36,0.06-0.57v-1.27c0-0.17-0.02-0.38-0.06-0.58c-0.2-0.83-0.92-1.51-1.92-1.51
			c-1.37,0-2.19,1.21-2.19,2.81C268.65,303.09,269.37,304.33,270.81,304.33z"/>
		<path class="st2" d="M276.18,295.86c0-0.45,0.35-0.83,0.83-0.83c0.5,0,0.82,0.36,0.82,0.83c0.02,0.45-0.32,0.81-0.85,0.81
			C276.5,296.67,276.18,296.31,276.18,295.86z M276.35,297.91h1.31v7.31h-1.31V297.91z"/>
		<path class="st2" d="M279.88,299.89c0-0.75-0.03-1.36-0.06-1.98H281l0.06,1.21h0.05c0.36-0.68,1.21-1.37,2.42-1.37
			c1,0,2.57,0.62,2.57,3.11v4.37h-1.31v-4.2c0-1.19-0.45-2.17-1.69-2.17c-0.88,0-1.54,0.6-1.78,1.36c-0.06,0.16-0.11,0.39-0.11,0.62
			v4.4h-1.31V299.89z"/>
		<path class="st2" d="M290.84,307.35c1.36,0,2.36-0.73,2.36-2.57v-0.82h-0.03c-0.39,0.68-1.21,1.22-2.33,1.22
			c-1.83,0-3.11-1.54-3.11-3.56c0-2.48,1.62-3.88,3.29-3.88c1.27,0,1.96,0.66,2.28,1.27h0.03l0.06-1.1h1.16
			c-0.03,0.53-0.06,1.12-0.06,2.01v4.24c0,1.69-0.33,2.7-1.04,3.34c-0.71,0.67-1.74,0.88-2.66,0.88c-0.89,0-1.84-0.21-2.45-0.59
			l0.33-1.03C289.18,307.06,289.94,307.35,290.84,307.35z M291.24,304.19c0.82,0,1.56-0.53,1.84-1.37c0.08-0.23,0.11-0.48,0.11-0.71
			v-1.32c0-0.23-0.03-0.42-0.08-0.6c-0.24-0.77-0.89-1.4-1.87-1.4c-1.25,0-2.16,1.07-2.16,2.76
			C289.08,302.98,289.8,304.19,291.24,304.19z"/>
		<path class="st2" d="M305.48,294.89c1.27,0,2.08,0.26,2.42,0.44l-0.32,1.07c-0.5-0.24-1.21-0.42-2.05-0.42
			c-2.39,0-3.97,1.53-3.97,4.2c0,2.49,1.43,4.09,3.91,4.09c0.8,0,1.62-0.17,2.14-0.42l0.27,1.06c-0.48,0.23-1.45,0.48-2.7,0.48
			c-2.85,0-5.01-1.83-5.01-5.17C300.16,297.03,302.32,294.89,305.48,294.89z"/>
		<path class="st2" d="M312.41,297.74c2.05,0,3.5,1.48,3.5,3.82c0,2.71-1.98,3.82-3.67,3.82c-1.93,0-3.47-1.44-3.47-3.79
			C308.77,299.15,310.43,297.74,312.41,297.74z M312.33,304.4c1.45,0,2.23-1.34,2.23-2.82c0-1.27-0.6-2.82-2.23-2.82
			s-2.22,1.54-2.22,2.84C310.11,303.04,310.87,304.4,312.33,304.4z"/>
		<path class="st2" d="M317.59,299.89c0-0.75-0.03-1.36-0.06-1.98h1.16l0.06,1.18h0.03c0.41-0.69,1.09-1.34,2.31-1.34
			c1,0,1.75,0.62,2.07,1.47h0.03c0.23-0.41,0.51-0.73,0.82-0.95c0.45-0.33,0.92-0.51,1.62-0.51c0.97,0,2.4,0.63,2.4,3.17v4.3h-1.3
			v-4.12c0-1.42-0.51-2.25-1.59-2.25c-0.76,0-1.34,0.54-1.57,1.18c-0.06,0.21-0.12,0.44-0.12,0.68v4.52h-1.28v-4.38
			c0-1.16-0.53-1.99-1.53-1.99c-0.83,0-1.43,0.65-1.66,1.31c-0.06,0.2-0.09,0.44-0.09,0.65v4.41h-1.3V299.89z"/>
		<path class="st2" d="M331.5,308.21h-1.33v-7.91c0-0.94-0.02-1.69-0.06-2.39h1.21l0.06,1.25h0.03c0.54-0.89,1.4-1.42,2.6-1.42
			c1.77,0,3.1,1.5,3.1,3.72c0,2.63-1.6,3.93-3.31,3.93c-0.98,0-1.83-0.42-2.27-1.15h-0.03V308.21z M333.55,304.36
			c1.4,0,2.22-1.16,2.22-2.84c0-1.47-0.77-2.7-2.17-2.7c-0.91,0-1.77,0.63-2.01,1.63c-0.05,0.17-0.09,0.36-0.09,0.54v1.25
			c0,0.2,0.02,0.38,0.06,0.54C331.8,303.72,332.6,304.36,333.55,304.36z"/>
		<path class="st2" d="M342.6,300.58v-0.17c0-0.6-0.18-1.69-1.66-1.69c-0.68,0-1.39,0.21-1.9,0.54l-0.32-0.88
			c0.62-0.39,1.51-0.65,2.42-0.65c2.24,0,2.78,1.53,2.78,3.01v2.72c0,0.64,0.03,1.25,0.11,1.75h-1.19l-0.12-0.92h-0.03
			c-0.41,0.56-1.19,1.09-2.24,1.09c-1.46,0-2.23-1.04-2.23-2.1C338.2,301.52,339.77,300.55,342.6,300.58z M340.78,304.4
			c0.97,0,1.56-0.6,1.78-1.22c0.03-0.14,0.06-0.29,0.06-0.41v-1.28c-1.45-0.02-3.1,0.23-3.1,1.65
			C339.53,304.01,340.1,304.4,340.78,304.4z"/>
		<path class="st2" d="M346.05,299.89c0-0.75-0.03-1.36-0.06-1.98h1.18l0.06,1.21h0.05c0.36-0.68,1.21-1.37,2.42-1.37
			c1,0,2.57,0.62,2.57,3.11v4.37h-1.31v-4.2c0-1.19-0.45-2.17-1.69-2.17c-0.88,0-1.54,0.6-1.78,1.36c-0.06,0.16-0.11,0.39-0.11,0.62
			v4.4h-1.31V299.89z"/>
		<path class="st2" d="M355.96,305.31c0.06-0.14,0.11-0.23,0.11-0.32c0-0.08-0.03-0.18-0.11-0.33l-2.69-6.75h1.45l1.6,4.32
			c0.17,0.48,0.35,1.06,0.47,1.49h0.03c0.14-0.42,0.29-1,0.47-1.51l1.45-4.3h1.4l-1.99,5.21c-0.95,2.51-1.6,3.79-2.51,4.58
			c-0.66,0.57-1.31,0.8-1.63,0.86l-0.33-1.12c0.35-0.11,0.77-0.32,1.18-0.63C355.2,306.5,355.66,305.99,355.96,305.31z"/>
	</g>
</g>
</svg>
