<?xml version="1.0" encoding="utf-8"?>
<!-- Generator: Adobe Illustrator 26.0.1, SVG Export Plug-In . SVG Version: 6.00 Build 0)  -->
<svg version="1.1" id="Layer_1" xmlns="http://www.w3.org/2000/svg" xmlns:xlink="http://www.w3.org/1999/xlink" x="0px" y="0px"
	 viewBox="0 0 350 350" style="enable-background:new 0 0 350 350;" xml:space="preserve">
<style type="text/css">
	.st0{fill:#FABD51;}
	.st1{fill:#F6A322;}
	.st2{fill:#030404;}
</style>
<g>
	<g>
		<g>
			<path class="st0" d="M280.87,108.89c-8.04-29.81-32.03-54.82-61.49-64.08c-29.46-9.27-63.45-2.47-87.1,17.38
				c-2.08,1.76-4.1,3.6-6,5.56c-8.18,8.28-14.67,18.13-19.24,28.8c-4.57,10.69-7.21,22.21-7.62,33.81c-0.1,2.91-0.06,5.82,0.12,8.71
				c0.1,1.45,0.18,2.91,0.38,4.34c0.18,1.31,0.71,2.47,0.91,3.8c0.95,6.18,2.55,12.23,4.73,18.07c2.18,5.86,4.93,11.48,8.22,16.79
				c1.64,2.65,3.42,5.21,5.33,7.68c0.48,0.63,5.68,7.19,5.96,6.99c8.39-6.04,18.87-9.17,29.18-8.69
				c14.43,0.63,27.81,7.92,42.17,9.46c18.57,1.98,37.79-5.7,55.71-0.48c1.48,0.44,3.07,0.97,4.57,0.55
				c1.31-0.38,2.32-1.41,3.23-2.42c15.4-16.85,23.87-39.65,24.01-62.46C283.96,124.69,282.97,116.67,280.87,108.89z M264.28,122.73
				c-0.36,5.7-1.25,10.85-2.73,15.72c-2.28,7.52-5.72,14.19-10.21,19.86c-2.73,3.44-6.02,6.65-9.76,9.5
				c-5.29,4.04-11.36,7.23-19.72,10.29c-2.81,1.03-6.14,2.2-9.64,3.11c-4.06,1.07-8.41,2.14-13.11,2.55c-2.2,0.2-4.32,0.2-6.33,0.2
				h-0.16v0.06l-5.11,0.06c-9.07,0.06-18.65,0.04-31.1-0.1h-0.79c-3.39,0.14-5.01-1.39-5.96-3.29c-2.04,2.18-4.63,3.66-7.76,4.45
				c-1.11,0.3-2.57,0.65-4.3,0.65c-1.09,0-2.28-0.14-3.52-0.55c-4.28-1.43-7.07-6.49-6.1-11.09c0.91-4.32,3.58-7.3,7.56-8.39
				c0.1-0.04,0.36-0.3,0.79-1.56c1.03-2.99,1.7-6.22,2.02-9.6c0.1-1.25,0.18-2.49,0.24-3.74c0.08-1.35,0.16-2.71,0.28-4.06
				c0.22-2.46,0.3-4.63,0.2-6.67c-0.22-4.34-1.11-8.53-2.69-12.47c-1.88-4.69-2.93-9.52-3.84-14.07
				c-1.09-5.42-0.99-10.65-0.75-15.07c0.2-3.54,0.89-7.32,2.12-11.58c2.18-7.46,4.79-13.2,8.2-18.05
				c3.74-5.34,8.45-9.66,14.02-12.83c2.04-1.19,4.51-2.51,7.25-3.48c2-0.71,3.78-0.53,5.27,0.53c1.03,0.73,2.24,2.14,2.22,4.71
				c-0.02,1.82-0.1,3.54-0.26,5.17c4.38,1.5,6.79,4.47,8.1,6.95c0.73,1.41,1.21,2.99,1.39,4.59c0.02,0.24,0.04,0.38,0.53,0.71
				c0.22,0.14,0.44,0.28,0.65,0.44c0.28,0.18,0.63,0.44,0.77,0.49c1.43,0.46,2.55,1.25,3.39,2.26l-0.71-2.02
				c-0.44-1.21-1.07-2.47-1.74-3.82c-0.71-1.41-1.43-2.85-2.04-4.47c-1.19-3.17-1.03-6.08,0.48-8.65c1.52-2.63,4.26-4.22,7.29-4.26
				c2.81,0,5.4,1.25,7.05,3.5c0.63-0.1,1.35-0.12,2.08-0.06c1.25,0.1,5.05,0.44,7.05,4.26c0.95,1.78,1.27,3.64,0.99,5.46
				c0.2-1.07,0.63-2.06,1.27-2.93c1.5-2,3.68-3.13,6.49-3.33c4.36-0.32,8.29,0.79,11.9,2.04c4.83,1.68,9.32,4,13.72,7.09
				c4.61,3.21,8.73,7.13,12.21,11.6c4.24,5.42,7.46,11.46,9.6,17.99c1.62,4.91,2.55,9.44,2.85,13.82c0.04,0.67,0.1,1.35,0.18,2.02
				C264.24,118.59,264.42,120.57,264.28,122.73z"/>
			<path class="st1" d="M266.79,207.02c-11.44-2.85-22.08,5.83-32.58,11.2c-15.64,8.01-34.77,8.9-51.09,2.38l-0.02-0.01
				c7.93,0.7,15.95,0.33,23.78-1.11c4.71-0.86,9.53-2.19,13.2-5.26c3.68-3.07,5.93-8.29,4.3-12.79c-8.68,3.84-18.48,5.09-27.85,3.56
				c-10.84-1.78-20.83-7.14-31.66-9c-13.29-2.28-27.45,1.07-38.31,9.07c-0.93,0.69-1.95,1.44-3.1,1.37
				c-1.12-0.06-2.03-0.88-2.83-1.66c-25.18-24.76-35.6-63.52-26.23-97.57c9.37-34.05,38.15-62.02,72.45-70.41
				c-10.72-0.28-21.34,2.47-31.23,6.61c-21.49,9.01-40.07,24.84-52.36,44.65c-3.35,5.39-6.23,11.08-8.61,16.96
				c-3.18,7.85-5.49,16.05-6.87,24.4c-0.69,4.18-1.15,8.39-1.37,12.62c-0.2,3.85-0.8,8.58,0.17,12.34
				c0.89,3.43,0.93,7.08,1.47,10.61c0.58,3.77,1.36,7.51,2.34,11.19c1.96,7.38,4.71,14.54,8.16,21.35
				c6.86,13.55,16.52,25.72,28.3,35.32c23.33,19.01,54.6,27.81,84.47,24.15c29.87-3.65,57.97-19.61,76.75-43.13
				c1.22-1.53,2.44-3.64,1.39-5.29C268.92,207.69,267.83,207.28,266.79,207.02z"/>
			<path class="st2" d="M143.28,155.05c-0.34,3.68-1.07,7.27-2.26,10.75c-0.71,2.09-1.72,4.05-4.16,4.73
				c-2.35,0.65-3.55,2.32-4.04,4.64c-0.47,2.24,1.05,4.79,2.81,5.37c1.78,0.59,3.33,0.25,5.06-0.19c4.44-1.13,6.92-4.11,8.31-8.19
				c1.64-4.84,2.36-9.89,3.26-14.89c0.88-4.88,2.03-9.67,4.12-14.2c0.4-0.87,0.86-0.52,1.34-0.26c2.06,1.09,3.71,2.7,5.16,4.48
				c0.95,1.16,2.09,2.19,2.54,3.73c0.41,1.4,0.37,2.75,0.29,4.2c-0.2,3.75,1.09,7.19,2.99,10.36c0.71,1.19,0.56,2.37,0.61,3.58
				c0.02,0.49-0.39,0.83-0.87,0.86c-0.93,0.05-1.92,0.22-2.79-0.02c-2.67-0.73-5.36-0.37-8.05-0.4c-0.72-0.01-1.41,0.38-2.09,0.69
				c-2.16,1-2.68,4.65-2.07,6.4c0.97,2.82,0.49,2.32,3.04,2.34c10.33,0.11,20.66,0.18,30.99,0.1c0,0,0.18,0,0.18,0
				c3.66-0.25,7.33,0.04,11.01-0.29c4.21-0.38,8.26-1.36,12.31-2.42c3.11-0.81,6.15-1.86,9.17-2.97c6.55-2.4,12.85-5.29,18.43-9.57
				c3.31-2.53,6.31-5.4,8.9-8.66c4.32-5.44,7.33-11.57,9.36-18.23c1.45-4.77,2.22-9.63,2.53-14.57c0.16-2.49-0.24-4.97-0.41-7.45
				c-0.29-4.34-1.26-8.51-2.61-12.61c-1.97-6-4.9-11.48-8.79-16.48c-3.2-4.1-6.89-7.63-11.15-10.61c-3.88-2.71-8.02-4.89-12.51-6.45
				c-3.24-1.12-6.47-2.04-9.92-1.8c-1.1,0.08-2.14,0.37-2.89,1.37c-1.12,1.5,0.35,4.01,1.87,4.98c2.85,1.83,6.09,2.71,9.22,3.82
				c7.99,2.83,13.92,8.15,18.7,14.93c2.41,3.42,4.19,7.16,5.53,11.14c1.21,3.6,1.98,7.27,2.27,11.02c0.18,2.34,0.34,4.7,0.09,7.1
				c-0.29,2.73-0.5,5.47-1.15,8.12c-1.47,6.05-3.87,11.66-7.71,16.66c-3.15,4.1-6.65,7.76-10.92,10.69
				c-5.37,3.69-11.25,6.22-17.51,7.93c-0.67,0.18-0.81,0-0.76-0.57c0.11-1.19,0.24-2.39,0.37-3.58c0.01-0.1,0-0.23,0-0.23
				s-0.52-8.92-1.29-13.36c-0.9-5.2-2.79-9.95-5.62-14.32c-3.17-4.91-7.42-8.83-12.21-12.15c-3.63-2.51-7.6-4.42-11.42-6.61
				c-2.79-1.59-5.7-2.95-8.55-4.42c-2.02-1.04-4.15-1.95-6.22-2.93c-1.45-0.69-2.68-1.73-3.22-3.3c-0.57-1.67-0.48-3.42,0-5.08
				c0.34-1.17,0.67-2.47,2.07-2.99c1.27-0.47,2.62-0.63,3.94-0.7c2-0.11,4-0.22,5.92-0.79c2.91-0.87,5.36-2.38,6.54-5.42
				c0.61-1.58,0.7-3.24,0.93-4.88c0.19-1.28-0.08-2.18-1.5-2.64c-0.91-0.29-1.72-0.95-2.55-1.49c-1.56-1.02-2.55-2.39-2.75-4.33
				c-0.1-0.96-0.4-1.96-0.85-2.81c-1.72-3.28-4.63-4.79-8.18-5.18c-0.67-0.07-1.06-0.08-0.91-0.91c0.47-2.77,0.67-5.56,0.7-8.37
				c0.01-0.76-0.12-0.81-0.88-0.54c-2.27,0.8-4.37,1.92-6.44,3.11c-5,2.86-9.12,6.69-12.42,11.39c-3.55,5.05-5.77,10.72-7.48,16.6
				c-0.99,3.42-1.74,6.93-1.93,10.47c-0.25,4.6-0.26,9.22,0.66,13.81c0.9,4.49,1.87,8.94,3.57,13.21c1.81,4.52,2.81,9.23,3.04,14.08
				c0.12,2.45,0.02,4.9-0.21,7.37C143.56,149.84,143.52,152.45,143.28,155.05z"/>
			<path class="st2" d="M189.36,74.76c2.68-1.08,5.35-2.11,7.98-3.25c1.12-0.49,2.19-1.13,2.9-2.2c0.89-1.33,0.98-2.69,0.24-4.11
				c-0.66-1.26-1.76-1.51-3.09-1.62c-1.77-0.15-3.01,0.76-4.29,1.81c-0.41-1.24-0.54-2.46-1.19-3.5c-1.47-2.37-4.86-2.31-6.25,0.06
				c-0.87,1.49-0.67,2.94-0.12,4.41C186.63,69.25,188.33,71.86,189.36,74.76z"/>
		</g>
		<path class="st0" d="M243.83,120.89l-0.12,1.13c-0.24,2.26-0.46,4.37-0.93,6.33c-1.41,5.82-3.64,10.67-6.83,14.83
			c-3.19,4.16-6.32,7.23-9.8,9.62c-3.13,2.16-6.51,3.92-10.27,5.37c-0.2-2.97-0.63-8.55-1.23-11.94
			c-0.99-5.76-3.13-11.21-6.33-16.15c-3.25-5.05-7.68-9.48-13.54-13.54c-2.73-1.88-5.56-3.42-8.29-4.91
			c-1.17-0.63-2.34-1.27-3.5-1.92c-2.02-1.17-4.08-2.2-6.08-3.19c-0.89-0.44-1.78-0.89-2.65-1.35c-1.37-0.69-2.79-1.35-4.22-2
			c-0.71-0.34-1.45-0.65-2.16-0.99c-0.44-0.22-0.61-0.4-0.65-0.44c-0.18-0.53-0.16-1.19,0.08-2.06c0.42-0.08,0.91-0.14,1.52-0.16
			c2.14-0.12,4.57-0.26,7.07-0.99c4.87-1.46,8.14-4.28,9.74-8.37c0.69-1.8,0.89-3.46,1.07-4.95c0.04-0.34,0.1-0.67,0.14-1.01
			c0.16-1.09,0.1-2.1-0.12-3.03l6.77-2.73c1.96-0.77,3.9-1.56,5.82-2.4c2.26-0.97,3.9-2.28,5.05-4c0.75-1.13,1.25-2.32,1.46-3.52
			c-0.14,0.81-0.12,1.64,0.04,2.51c0.44,2.53,2.18,5.07,4.39,6.51c2.81,1.8,5.82,2.81,8.47,3.7c0.59,0.22,1.19,0.42,1.78,0.61
			c6.33,2.24,11.66,6.53,16.29,13.12c2.02,2.85,3.62,6.08,4.89,9.88c1.09,3.23,1.78,6.53,2.04,9.8
			C243.91,117.03,244.03,118.97,243.83,120.89z"/>
	</g>
	<g>
		<path class="st2" d="M16.64,293.54c0.93-0.01,1.64-0.76,1.63-1.72c-0.01-0.98-0.74-1.67-1.67-1.66c-1.01,0.01-1.72,0.71-1.71,1.7
			C14.9,292.82,15.63,293.55,16.64,293.54z"/>
		<path class="st2" d="M12.28,293.59c0.98-0.01,1.67-0.77,1.66-1.72c-0.01-0.98-0.71-1.67-1.69-1.66c-0.96,0.01-1.69,0.71-1.68,1.7
			C10.57,292.87,11.32,293.6,12.28,293.59z"/>
		<path class="st2" d="M22.01,307.68l0.55-0.01c4.02-0.05,5.83-1.5,5.79-5.57l-0.06-5.61l-3.14,0.04l0.06,5.19
			c0.03,2.37-0.58,3.12-2.7,3.14l-0.53,0.01c-1.78,0.02-2.32-0.51-2.34-2.29l-0.07-5.98l-5.05,0.06c-4.57,0.05-6.78,2.74-6.74,5.77
			c0.04,3.35,2.72,5.05,6.02,5.01c1.41-0.02,2.6-0.35,3.61-0.84C18.15,307.38,19.62,307.71,22.01,307.68L22.01,307.68L22.01,307.68
			C22.01,307.68,22.01,307.68,22.01,307.68L22.01,307.68z M14.18,304.5c-2.18,0.03-3.23-0.82-3.24-2.38
			c-0.02-1.7,1.25-2.62,3.13-2.64l2.23-0.03l0.05,4.6C15.86,304.32,15.04,304.49,14.18,304.5z"/>
		<path class="st2" d="M23.71,309.82c-0.96,0.01-1.69,0.77-1.68,1.75c0.01,0.96,0.76,1.67,1.72,1.66c0.98-0.01,1.67-0.74,1.66-1.69
			C25.39,310.54,24.69,309.81,23.71,309.82z"/>
		<path class="st2" d="M28.07,309.77c-1.01,0.01-1.72,0.76-1.71,1.75c0.01,0.96,0.74,1.67,1.75,1.66c0.93-0.01,1.64-0.74,1.63-1.7
			C29.73,310.49,29,309.75,28.07,309.77z"/>
		<path class="st2" d="M68.72,309.3c-1.01,0.01-1.72,0.76-1.71,1.75c0.01,0.96,0.74,1.67,1.75,1.66c0.93-0.01,1.64-0.74,1.63-1.7
			C70.38,310.02,69.65,309.29,68.72,309.3z"/>
		<path class="st2" d="M64.36,309.35c-0.96,0.01-1.69,0.77-1.68,1.75c0.01,0.96,0.76,1.67,1.72,1.66c0.98-0.01,1.67-0.74,1.66-1.69
			C66.04,310.07,65.34,309.34,64.36,309.35z"/>
		<path class="st2" d="M75.34,309.22c-1.01,0.01-1.69,0.76-1.68,1.75c0.01,0.96,0.71,1.67,1.72,1.66c1.01-0.01,1.64-0.74,1.63-1.7
			C76.99,309.94,76.35,309.21,75.34,309.22z"/>
		<path class="st2" d="M82.42,286.88l0.16,14.18c0.03,2.34-0.44,3.12-2.57,3.14c-1.78,0.02-2.85-0.79-2.88-2.65l-0.06-5.61
			l-3.14,0.04l0.06,5.19c0.03,2.45-0.6,3.12-2.65,3.14c-1.78,0.02-2.85-0.79-2.88-2.65l-0.06-5.61l-3.14,0.04l0.06,5.19
			c0.03,2.37-0.57,3.12-2.7,3.14l-0.53,0.01l0,0l-2.17,0.03c0.07-0.61,0.12-1.2,0.11-1.76c-0.05-4.02-2.21-6.81-6.36-6.76
			c-2.63,0.03-5.78,1.5-8.21,4.93l-0.16-13.54l-3.14,0.04l0.2,17.29l-2.29,0.03l0,0l-2.71,0.03l-0.1-8.3l-3.14,0.04l0.11,9.89
			c0.03,2.26-0.95,3.04-3.37,3.42l0.51,2.71c3.54-0.28,5.4-1.87,5.87-4.94l2.85-0.03l0,0l22.01-0.25l0,0l0.55-0.01
			c2.29-0.03,3.85-0.5,4.77-1.65c0.7,1,1.96,1.57,3.93,1.55l0,0c0,0,0,0,0,0c0,0,0,0,0,0l0,0c2.23-0.03,3.82-0.5,4.74-1.65
			c0.7,1,1.96,1.57,3.92,1.55l0,0c0,0,0,0,0,0c0,0,0,0,0,0l0,0c3.83-0.04,5.73-1.37,5.68-5.33l-0.17-14.84L82.42,286.88z
			 M56.75,304.46l-11.2,0.13c2.27-3.54,5.2-5.75,7.75-5.78c2.39-0.03,3.58,1.69,3.61,4.11C56.93,303.42,56.88,303.93,56.75,304.46z"
			/>
		
			<rect x="89.18" y="286.78" transform="matrix(0.9999 -0.0116 0.0116 0.9999 -3.4237 1.0684)" class="st2" width="3.14" height="20.11"/>
		<path class="st2" d="M111.62,292.44c0.93-0.01,1.64-0.76,1.63-1.72c-0.01-0.98-0.74-1.67-1.67-1.66c-1.01,0.01-1.72,0.71-1.71,1.7
			C109.89,291.72,110.61,292.45,111.62,292.44z"/>
		<path class="st2" d="M107.26,292.49c0.98-0.01,1.67-0.76,1.66-1.72c-0.01-0.98-0.71-1.67-1.69-1.66c-0.96,0.01-1.69,0.71-1.68,1.7
			C105.55,291.77,106.31,292.5,107.26,292.49z"/>
		<path class="st2" d="M124.76,295.08c-3.62,0.04-6.2,2.36-6.16,5.68c0.01,1.17,0.32,2.18,0.83,2.97l-2.47,0.03
			c-1.78,0.02-2.32-0.51-2.34-2.29l-0.07-5.98l-5.05,0.06c-4.57,0.05-6.78,2.74-6.74,5.77c0.04,3.35,2.72,5.05,6.02,5.01
			c1.41-0.02,2.6-0.35,3.61-0.84c0.75,0.78,2.22,1.12,4.61,1.09l0,0h0c0,0,0,0,0,0l0,0l7.02-0.08c5.27-0.06,6.56-3.16,6.53-5.87
			C130.51,297.73,128.56,295.04,124.76,295.08z M109.17,303.4c-2.18,0.03-3.23-0.81-3.24-2.38c-0.02-1.7,1.25-2.62,3.13-2.64
			l2.23-0.03l0.05,4.6C110.85,303.23,110.02,303.39,109.17,303.4z M124.33,303.68l-1.62,0.02c-0.51-0.71-0.92-1.61-0.94-2.68
			c-0.02-1.97,1.19-3.02,2.84-3.04c1.65-0.02,2.75,1.09,2.77,2.79C127.4,302.24,126.75,303.65,124.33,303.68z"/>
		<path class="st2" d="M151.52,291.69c0.98-0.01,1.67-0.77,1.66-1.72c-0.01-0.98-0.71-1.67-1.69-1.66
			c-0.96,0.01-1.69,0.71-1.68,1.69C149.81,290.96,150.56,291.7,151.52,291.69z"/>
		<path class="st2" d="M155.88,291.64c0.93-0.01,1.64-0.76,1.63-1.72c-0.01-0.98-0.74-1.67-1.67-1.66c-1.01,0.01-1.72,0.71-1.71,1.7
			C154.15,290.91,154.87,291.65,155.88,291.64z"/>
		<path class="st2" d="M163.73,291.84c0.98-0.01,1.67-0.77,1.66-1.72c-0.01-0.98-0.71-1.67-1.7-1.66c-0.96,0.01-1.69,0.71-1.68,1.7
			C162.02,291.12,162.77,291.85,163.73,291.84z"/>
		<path class="st2" d="M168.09,291.79c0.93-0.01,1.64-0.76,1.63-1.72c-0.01-0.98-0.74-1.67-1.67-1.66c-1.01,0.01-1.72,0.71-1.71,1.7
			C166.35,291.07,167.08,291.8,168.09,291.79z"/>
		<path class="st2" d="M188.52,285.65l0.16,14.18c0.03,2.34-0.44,3.12-2.57,3.14l0,0l-1.83,0.02c0.07-0.43,0.12-0.88,0.12-1.36
			c-0.04-3.3-1.98-5.94-5.76-5.89c-3.67,0.04-6.25,2.57-6.21,6.11c0.01,0.45,0.06,0.88,0.12,1.28l-1.78,0.02
			c-1.78,0.02-2.85-0.79-2.88-2.65l-0.06-5.61l-3.14,0.04l0.06,5.19c0.03,2.37-0.58,3.12-2.7,3.14l-0.53,0.01l0,0l-3.11,0.04
			c0.87-0.99,1.33-2.17,1.31-3.47c-0.03-2.74-2.16-5.11-5.96-5.06c-3.88,0.04-6.03,2.52-6,5.28c0.02,1.41,0.59,2.57,1.37,3.36
			l-3.24,0.04l0,0l-1.99,0.02c-0.22-3.3-1.53-6.18-6.12-9.08l-1.86,2.55c2.17,1.31,4.83,3.83,4.86,6.52l0,0.05l-8.06,0.09l0.03,2.82
			l13.16-0.15l0,0l3.16-0.04c1.67-0.02,3.4-0.23,4.65-0.48c1.17,0.22,2.88,0.39,4.85,0.37l2.98-0.04l0,0l0.55-0.01
			c2.29-0.03,3.85-0.5,4.77-1.65c0.7,1,1.96,1.58,3.92,1.55l0,0h0c0,0,0,0,0,0l0,0l3.06-0.04c0.49,0.63,1.08,1.18,1.77,1.68
			l2.23-0.03c2.21-0.03,3.88-0.68,4.95-1.76l3.32-0.04h0c3.82-0.05,5.72-1.37,5.68-5.33l-0.17-14.84L188.52,285.65z M153.75,303.1
			c-1.17-0.25-2.81-1.43-2.83-3.03c-0.02-1.44,1.14-2.41,2.82-2.43c1.7-0.02,2.83,0.98,2.85,2.36
			C156.61,301.71,154.87,302.93,153.75,303.1z M178.05,304.76l-1.46,0.02c-0.62-0.79-1.01-1.88-1.02-2.89
			c-0.02-1.97,1.11-3.23,2.92-3.25c1.78-0.02,2.75,1.27,2.77,2.89C181.28,303.5,180.1,304.74,178.05,304.76z"/>
		
			<rect x="195.28" y="285.55" transform="matrix(0.9999 -0.0116 0.0116 0.9999 -3.4024 2.2942)" class="st2" width="3.14" height="20.11"/>
		<path class="st2" d="M223.1,305.36l0.55-0.01c4.02-0.05,5.83-1.5,5.79-5.57l-0.06-5.61l-3.14,0.04l0.06,5.19
			c0.03,2.37-0.58,3.12-2.7,3.14l-0.53,0.01c-1.78,0.02-2.32-0.5-2.34-2.28l-0.07-5.98l-5.05,0.06c-4.57,0.05-6.78,2.74-6.74,5.77
			c0.04,3.35,2.72,5.05,6.02,5.01c1.41-0.02,2.6-0.35,3.61-0.84C219.24,305.06,220.7,305.38,223.1,305.36L223.1,305.36L223.1,305.36
			C223.1,305.36,223.1,305.36,223.1,305.36L223.1,305.36z M215.27,302.18c-2.18,0.03-3.23-0.81-3.24-2.38
			c-0.02-1.7,1.25-2.62,3.13-2.64l2.23-0.03l0.05,4.6C216.94,302,216.12,302.17,215.27,302.18z"/>
		<path class="st2" d="M213.36,291.27c0.98-0.01,1.67-0.76,1.66-1.72c-0.01-0.98-0.71-1.67-1.69-1.66c-0.96,0.01-1.69,0.71-1.68,1.7
			C211.65,290.54,212.4,291.28,213.36,291.27z"/>
		<path class="st2" d="M217.72,291.22c0.93-0.01,1.64-0.77,1.63-1.72c-0.01-0.98-0.74-1.67-1.67-1.66
			c-1.01,0.01-1.72,0.71-1.71,1.69C215.98,290.49,216.71,291.23,217.72,291.22z"/>
		<path class="st2" d="M229.15,307.44c-1.01,0.01-1.72,0.77-1.71,1.75c0.01,0.96,0.74,1.67,1.75,1.66c0.93-0.01,1.64-0.74,1.63-1.69
			C230.81,308.17,230.08,307.43,229.15,307.44z"/>
		<path class="st2" d="M224.79,307.49c-0.96,0.01-1.69,0.76-1.68,1.75c0.01,0.96,0.76,1.67,1.72,1.66c0.98-0.01,1.67-0.74,1.66-1.7
			C226.48,308.22,225.78,307.48,224.79,307.49z"/>
		<path class="st2" d="M243.72,290.92c1.01-0.01,1.64-0.77,1.63-1.72c-0.01-0.98-0.66-1.67-1.67-1.66
			c-1.01,0.01-1.69,0.71-1.68,1.69C242.01,290.19,242.71,290.93,243.72,290.92z"/>
		<path class="st2" d="M266.22,284.75l0.16,14.18c0.03,2.34-0.44,3.12-2.57,3.14l0,0l-2.34,0.03c-0.4,0.01-1.07-0.01-1.78-0.03
			c1.24-1.26,2.17-2.87,2.16-4.57c-0.03-2.53-2.15-3.94-5.39-3.9c-2.31,0.03-4.54,0.83-6.07,1.64c-0.28,0.72-0.48,1.89-0.61,2.99
			c1.13,1.05,2.4,2.42,3.45,3.89c-0.66,0.06-1.51,0.1-2.6,0.11l-2.37,0.03c-1.78,0.02-2.85-0.79-2.88-2.65l-0.06-5.61l-3.14,0.04
			l0.06,5.19c0.03,2.45-0.6,3.12-2.65,3.14c-1.94,0.02-2.77-0.66-2.79-2.2l-0.17-15.05l-3.14,0.04l0.17,15.13
			c0.04,3.35,1.6,4.95,5.96,4.91l0,0c0,0,0,0,0,0s0,0,0,0l0,0c2.23-0.03,3.82-0.5,4.74-1.65c0.7,1,1.96,1.58,3.92,1.55l0,0h0
			c0,0,0,0,0,0l0,0l0.95-0.01c2.79-0.03,4.7-0.21,6.69-0.77c1.68,0.43,3.73,0.65,5.83,0.62l2.07-0.02c0,0,0,0,0,0
			c3.83-0.05,5.72-1.37,5.68-5.33l-0.17-14.84L266.22,284.75z M256.26,301.3c-1.11-1.74-2.32-3.01-3.56-4.03l0.03-0.13
			c0.93-0.38,2.12-0.64,3.08-0.65c2.02-0.02,2.88,0.82,2.89,1.75C258.71,299.23,257.76,300.52,256.26,301.3z"/>
		
			<rect x="272.98" y="284.65" transform="matrix(0.9999 -0.0116 0.0116 0.9999 -3.3869 3.1919)" class="st2" width="3.14" height="20.11"/>
		<path class="st2" d="M294.57,290.04c0.93-0.01,1.64-0.77,1.63-1.72c-0.01-0.98-0.74-1.67-1.67-1.66
			c-1.01,0.01-1.72,0.71-1.71,1.69C292.84,289.31,293.56,290.05,294.57,290.04z"/>
		<path class="st2" d="M290.21,290.09c0.98-0.01,1.67-0.76,1.66-1.72c-0.01-0.98-0.71-1.67-1.69-1.66c-0.96,0.01-1.69,0.71-1.68,1.7
			C288.5,289.36,289.25,290.1,290.21,290.09z"/>
		<path class="st2" d="M292.45,293.15c-3.7,0.04-5.93,2.7-5.89,6.18c0.04,3.27,2.3,5.4,6.02,5.36c3.72-0.04,5.91-2.17,5.87-5.49
			C298.42,295.79,296.18,293.1,292.45,293.15z M292.61,301.79c-1.7,0.02-2.8-0.84-2.82-2.71c-0.02-1.78,0.92-3.02,2.7-3.04
			c1.73-0.02,2.73,1.19,2.75,3C295.26,300.88,294.18,301.77,292.61,301.79z"/>
		<path class="st2" d="M305.69,292.43l-1.86,2.55c2.17,1.3,4.83,3.83,4.86,6.52l0,0.05l-8.06,0.09l0.03,2.82l11.2-0.13l-0.02-1.78
			C311.8,298.8,310.75,295.65,305.69,292.43z"/>
		<path class="st2" d="M330.36,304.12l11.86-0.14l-0.03-2.82l-5.98,0.07c-0.49-0.66-1.06-1.72-1.07-2.94
			c-0.02-1.7,1.16-2.75,3.4-2.78c0.8-0.01,1.68,0.11,2.37,0.26l0.55-2.77c-1.01-0.26-2-0.4-3.2-0.39c-4.12,0.05-6.33,2.33-6.29,5.47
			c0.01,1.12,0.29,2.28,0.84,3.18l-2.47,0.03c-1.78,0.02-2.86-0.79-2.88-2.65l-0.06-5.61l-3.14,0.04l0.06,5.19
			c0.03,2.37-0.58,3.12-2.7,3.14l-0.53,0.01c-1.94,0.02-2.77-0.66-2.79-2.2l-0.17-15.05l-3.14,0.04l0.17,15.13
			c0.04,3.35,1.6,4.95,5.96,4.91l0,0h0c0,0,0,0,0,0l0,0l0.56-0.01c2.29-0.03,3.85-0.5,4.77-1.65
			C327.14,303.57,328.39,304.14,330.36,304.12L330.36,304.12L330.36,304.12C330.36,304.12,330.36,304.12,330.36,304.12
			L330.36,304.12z"/>
		<path class="st2" d="M327.7,306.3c-1.01,0.01-1.72,0.77-1.71,1.75c0.01,0.96,0.74,1.67,1.75,1.66c0.93-0.01,1.64-0.74,1.63-1.69
			C329.36,307.03,328.63,306.29,327.7,306.3z"/>
		<path class="st2" d="M323.34,306.35c-0.96,0.01-1.69,0.77-1.68,1.75c0.01,0.96,0.76,1.67,1.72,1.66c0.98-0.01,1.67-0.74,1.66-1.7
			C325.03,307.08,324.33,306.34,323.34,306.35z"/>
	</g>
</g>
</svg>
