<?xml version="1.0" encoding="utf-8"?>
<!-- Generator: Adobe Illustrator 26.0.1, SVG Export Plug-In . SVG Version: 6.00 Build 0)  -->
<svg version="1.1" id="Layer_1" xmlns="http://www.w3.org/2000/svg" xmlns:xlink="http://www.w3.org/1999/xlink" x="0px" y="0px"
	 viewBox="0 0 400 400" style="enable-background:new 0 0 400 400;" xml:space="preserve">
<style type="text/css">
	.st0{fill:#29235C;}
	.st1{fill:#36A9E1;}
</style>
<g>
	<g>
		<g>
			<g>
				<path class="st0" d="M29.81,274.16c0,0.08,0,0.17,0,0.25s-0.01,0.15-0.01,0.22c-0.01,0.18-0.01,0.34-0.01,0.47
					c0,0.32,0.02,0.51,0.05,0.57c0.04,0.1,0.1,0.18,0.16,0.24c0.04,0.03,0.07,0.05,0.11,0.07c0.02,0.01,0.27,0.02,0.76,0.02h0.7
					v2.42h-1.44c-0.48,0-0.92-0.08-1.32-0.24c-0.41-0.16-0.66-0.28-0.75-0.37c-0.05,0.04-0.21,0.13-0.5,0.27
					c-0.6,0.3-1.24,0.45-1.92,0.45h-0.09c-0.3,0-0.61-0.03-0.91-0.1c-0.32-0.07-0.64-0.18-0.95-0.33c-0.32-0.16-0.62-0.37-0.91-0.62
					c-0.28-0.25-0.53-0.55-0.74-0.9c-0.21-0.34-0.38-0.73-0.5-1.16s-0.19-0.9-0.2-1.41c-0.01-0.28-0.01-0.54-0.01-0.8v-0.37
					c0.01-0.39,0.04-0.76,0.1-1.11c0.06-0.34,0.16-0.67,0.3-0.98c0.14-0.31,0.34-0.6,0.59-0.87c0.27-0.27,0.59-0.5,0.96-0.69
					c0.37-0.19,0.8-0.34,1.29-0.45c0.49-0.11,1.05-0.19,1.68-0.23c0.36-0.02,0.75-0.03,1.16-0.03c0.3,0,0.62,0.01,0.96,0.02
					l1.44,0.06V274.16z M22.66,265.95c0-0.21,0.04-0.41,0.12-0.59c0.08-0.18,0.19-0.34,0.32-0.48s0.29-0.25,0.47-0.32
					c0.18-0.08,0.37-0.12,0.56-0.12c0.2,0,0.39,0.04,0.57,0.12c0.18,0.08,0.34,0.18,0.48,0.32c0.14,0.14,0.25,0.3,0.32,0.48
					c0.08,0.18,0.12,0.38,0.12,0.59c0,0.21-0.04,0.41-0.12,0.58s-0.19,0.33-0.32,0.47c-0.14,0.14-0.3,0.24-0.48,0.32
					c-0.18,0.08-0.37,0.12-0.57,0.12c-0.2,0-0.39-0.04-0.56-0.12c-0.18-0.08-0.33-0.18-0.47-0.32s-0.24-0.29-0.32-0.47
					S22.66,266.17,22.66,265.95z M26.77,273.25v-2.35c-0.44,0.01-0.86,0.05-1.25,0.15c-0.39,0.09-0.65,0.2-0.78,0.34
					c-0.08,0.08-0.15,0.2-0.2,0.34c-0.05,0.14-0.09,0.33-0.12,0.55c-0.03,0.22-0.04,0.47-0.04,0.76c-0.01,0.1-0.01,0.19-0.01,0.29
					c0,0.2,0,0.42,0.01,0.65c0.01,0.31,0.04,0.58,0.09,0.81c0.05,0.23,0.13,0.43,0.22,0.6c0.09,0.17,0.19,0.31,0.29,0.42
					c0.11,0.11,0.21,0.19,0.32,0.25c0.12,0.05,0.21,0.08,0.29,0.08c0.1-0.01,0.21-0.04,0.33-0.09c0.19-0.1,0.37-0.28,0.53-0.53
					c0.16-0.25,0.26-0.58,0.3-0.99v-1.27H26.77z M25.92,265.95c0-0.21,0.04-0.41,0.13-0.59c0.08-0.18,0.19-0.34,0.33-0.48
					c0.14-0.14,0.29-0.25,0.47-0.32c0.18-0.08,0.38-0.12,0.59-0.12c0.19,0,0.38,0.04,0.56,0.12c0.18,0.08,0.33,0.18,0.46,0.32
					c0.13,0.14,0.24,0.3,0.31,0.48c0.08,0.18,0.12,0.38,0.12,0.59c0,0.21-0.04,0.41-0.12,0.58c-0.08,0.18-0.18,0.33-0.31,0.47
					c-0.13,0.14-0.29,0.24-0.46,0.32c-0.18,0.08-0.36,0.12-0.56,0.12c-0.21,0-0.41-0.04-0.59-0.12c-0.18-0.08-0.34-0.18-0.47-0.32
					c-0.14-0.14-0.24-0.29-0.33-0.47C25.96,266.36,25.92,266.17,25.92,265.95z"/>
				<path class="st0" d="M36.6,269.27v6.07c0,0.1,0,0.15-0.01,0.17c0.01,0.04,0.03,0.1,0.07,0.17c0.04,0.08,0.09,0.15,0.14,0.21
					c0.06,0.06,0.11,0.09,0.13,0.09h2.09v2.42h-2.08c-0.42,0-0.81-0.06-1.17-0.18c-0.36-0.12-0.59-0.21-0.7-0.28
					c-0.09,0.07-0.32,0.17-0.68,0.28c-0.36,0.12-0.75,0.18-1.17,0.18h-2.23v-2.42h2.24c0.02,0,0.06-0.03,0.13-0.09
					c0.12-0.12,0.18-0.27,0.2-0.44v-6.19H36.6z M31.71,281.03c0-0.21,0.04-0.41,0.12-0.59c0.08-0.18,0.19-0.34,0.32-0.48
					s0.29-0.25,0.47-0.32c0.18-0.08,0.37-0.12,0.56-0.12c0.2,0,0.39,0.04,0.57,0.12c0.18,0.08,0.34,0.18,0.48,0.32
					c0.14,0.14,0.25,0.3,0.32,0.48c0.08,0.18,0.12,0.38,0.12,0.59c0,0.21-0.04,0.41-0.12,0.58c-0.08,0.18-0.19,0.33-0.32,0.47
					c-0.14,0.14-0.3,0.24-0.48,0.32c-0.18,0.08-0.37,0.12-0.57,0.12c-0.2,0-0.39-0.04-0.56-0.12c-0.18-0.08-0.33-0.18-0.47-0.32
					s-0.24-0.29-0.32-0.47S31.71,281.24,31.71,281.03z M34.98,281.03c0-0.21,0.04-0.41,0.13-0.59c0.08-0.18,0.19-0.34,0.33-0.48
					c0.14-0.14,0.29-0.25,0.47-0.32c0.18-0.08,0.38-0.12,0.59-0.12c0.19,0,0.38,0.04,0.56,0.12c0.18,0.08,0.33,0.18,0.46,0.32
					c0.13,0.14,0.24,0.3,0.31,0.48c0.08,0.18,0.12,0.38,0.12,0.59c0,0.21-0.04,0.41-0.12,0.58s-0.18,0.33-0.31,0.47
					c-0.13,0.14-0.29,0.24-0.46,0.32c-0.18,0.08-0.36,0.12-0.56,0.12c-0.21,0-0.41-0.04-0.59-0.12c-0.18-0.08-0.34-0.18-0.47-0.32
					c-0.14-0.14-0.24-0.29-0.33-0.47C35.02,281.43,34.98,281.24,34.98,281.03z"/>
				<path class="st0" d="M44.04,269.27v6.07c0,0.1,0,0.15-0.01,0.17c0.01,0.04,0.03,0.1,0.07,0.17c0.04,0.08,0.09,0.15,0.14,0.21
					c0.06,0.06,0.11,0.09,0.13,0.09h2.09v2.42h-2.08c-0.42,0-0.81-0.06-1.17-0.18c-0.36-0.12-0.59-0.21-0.7-0.28
					c-0.09,0.07-0.32,0.17-0.68,0.28c-0.36,0.12-0.75,0.18-1.17,0.18h-2.23v-2.42h2.24c0.02,0,0.06-0.03,0.13-0.09
					c0.12-0.12,0.18-0.27,0.2-0.44v-6.19H44.04z M39.39,266.15c0-0.21,0.04-0.41,0.12-0.59c0.08-0.18,0.19-0.34,0.32-0.48
					c0.14-0.14,0.29-0.25,0.47-0.32c0.18-0.08,0.37-0.12,0.56-0.12c0.2,0,0.39,0.04,0.57,0.12c0.18,0.08,0.34,0.19,0.48,0.32
					c0.14,0.14,0.25,0.3,0.32,0.48c0.08,0.18,0.12,0.38,0.12,0.59c0,0.21-0.04,0.41-0.12,0.58c-0.08,0.18-0.19,0.33-0.32,0.47
					s-0.3,0.24-0.48,0.32c-0.18,0.08-0.37,0.12-0.57,0.12c-0.2,0-0.39-0.04-0.56-0.12c-0.18-0.08-0.33-0.18-0.47-0.32
					c-0.14-0.14-0.24-0.29-0.32-0.47C39.43,266.55,39.39,266.36,39.39,266.15z M42.65,266.15c0-0.21,0.04-0.41,0.13-0.59
					c0.08-0.18,0.19-0.34,0.33-0.48c0.14-0.14,0.29-0.25,0.47-0.32c0.18-0.08,0.38-0.12,0.59-0.12c0.19,0,0.38,0.04,0.56,0.12
					c0.18,0.08,0.33,0.19,0.46,0.32c0.13,0.14,0.24,0.3,0.31,0.48c0.08,0.18,0.12,0.38,0.12,0.59c0,0.21-0.04,0.41-0.12,0.58
					c-0.08,0.18-0.18,0.33-0.31,0.47c-0.13,0.14-0.29,0.24-0.46,0.32c-0.18,0.08-0.36,0.12-0.56,0.12c-0.21,0-0.41-0.04-0.59-0.12
					c-0.18-0.08-0.34-0.18-0.47-0.32c-0.14-0.14-0.24-0.29-0.33-0.47C42.69,266.55,42.65,266.36,42.65,266.15z"/>
				<path class="st0" d="M60.05,275.47c0.01,0.17,0.08,0.31,0.2,0.42c0.06,0.06,0.11,0.1,0.13,0.1h1.55v2.42h-1.54
					c-0.42,0-0.81-0.06-1.17-0.18c-0.36-0.12-0.59-0.21-0.68-0.28c-0.1,0.07-0.33,0.17-0.7,0.28c-0.36,0.12-0.75,0.18-1.17,0.18
					h-0.89c-0.42,0-0.81-0.06-1.17-0.18c-0.36-0.12-0.59-0.21-0.68-0.28c-0.1,0.07-0.33,0.17-0.7,0.28
					c-0.36,0.12-0.75,0.18-1.17,0.18h-0.94c-0.42,0-0.81-0.06-1.17-0.18c-0.36-0.12-0.59-0.21-0.7-0.28
					c-0.09,0.07-0.32,0.17-0.68,0.28c-0.36,0.12-0.75,0.18-1.17,0.18h-1.54v-2.42h1.54c0.02,0,0.06-0.03,0.13-0.09
					c0.12-0.12,0.18-0.27,0.2-0.44v-6.19h3.04v6.07c0,0.1,0,0.15-0.01,0.17c0.01,0.04,0.03,0.1,0.07,0.17
					c0.04,0.08,0.09,0.15,0.15,0.21c0.06,0.06,0.11,0.09,0.13,0.09h0.96c0.02,0,0.06-0.03,0.13-0.09c0.06-0.06,0.11-0.14,0.15-0.21
					c0.04-0.08,0.06-0.14,0.07-0.17c-0.01-0.02-0.01-0.08-0.01-0.17v-6.07h3.04v6.2c0.01,0.17,0.08,0.31,0.2,0.42
					c0.06,0.06,0.11,0.1,0.13,0.1h0.91c0.02,0,0.06-0.03,0.13-0.09c0.06-0.06,0.11-0.14,0.14-0.21c0.04-0.08,0.06-0.14,0.07-0.17
					c-0.01-0.02-0.01-0.08-0.01-0.17v-6.07h3.04V275.47z"/>
				<path class="st0" d="M62.42,268.79c1.07-0.23,1.89-0.35,2.46-0.35c0.1,0,0.19,0,0.28,0.01c0.65,0.03,1.24,0.14,1.76,0.34
					c0.52,0.2,0.99,0.48,1.4,0.84c0.41,0.36,0.76,0.78,1.05,1.26c0.24,0.4,0.46,0.84,0.63,1.31s0.33,0.97,0.46,1.5
					c0.13,0.53,0.24,1.07,0.34,1.63c0.1,0.56,0.19,1.15,0.29,1.75v0.11c0,0.13-0.03,0.26-0.08,0.4c-0.08,0.17-0.18,0.32-0.31,0.43
					c-0.13,0.11-0.28,0.2-0.45,0.27c-0.17,0.07-0.33,0.11-0.5,0.12c-0.03,0.01-0.09,0.01-0.17,0.01h-8.23v-2.42h6.5
					c-0.01-0.09-0.06-0.36-0.14-0.8c-0.08-0.44-0.18-0.86-0.28-1.25c-0.1-0.39-0.22-0.75-0.34-1.08c-0.13-0.33-0.27-0.62-0.43-0.89
					c-0.14-0.22-0.3-0.41-0.47-0.56c-0.17-0.16-0.37-0.28-0.59-0.37c-0.22-0.09-0.47-0.14-0.75-0.15h-0.15
					c-0.27,0-0.7,0.06-1.29,0.18L62.42,268.79z M64.57,281.29c0-0.21,0.04-0.41,0.13-0.59c0.08-0.18,0.19-0.34,0.33-0.48
					c0.14-0.14,0.29-0.25,0.47-0.32c0.18-0.08,0.38-0.12,0.59-0.12c0.19,0,0.38,0.04,0.56,0.12c0.18,0.08,0.33,0.18,0.46,0.32
					c0.13,0.14,0.24,0.3,0.31,0.48c0.08,0.18,0.12,0.38,0.12,0.59c0,0.21-0.04,0.41-0.12,0.58c-0.08,0.18-0.18,0.33-0.31,0.47
					c-0.13,0.14-0.29,0.24-0.46,0.32c-0.18,0.08-0.36,0.12-0.56,0.12c-0.21,0-0.41-0.04-0.59-0.12c-0.18-0.08-0.34-0.18-0.47-0.32
					c-0.14-0.14-0.24-0.29-0.33-0.47C64.61,281.69,64.57,281.5,64.57,281.29z"/>
				<path class="st0" d="M82.87,278.42h-1.4c-0.01,0.26-0.09,0.62-0.22,1.06c-0.13,0.44-0.31,0.84-0.52,1.19
					c-0.22,0.35-0.47,0.65-0.77,0.9c-0.3,0.25-0.61,0.46-0.96,0.62c-0.35,0.17-0.7,0.3-1.07,0.39c-0.37,0.09-0.74,0.16-1.12,0.2
					c-0.38,0.04-0.76,0.07-1.15,0.07c-0.39,0.01-0.94,0.01-1.65,0.01v-2.41c0.63,0,1.09,0,1.37,0c0.28,0,0.55-0.02,0.81-0.04
					c0.26-0.03,0.49-0.06,0.69-0.1c0.2-0.04,0.38-0.1,0.54-0.17c0.13-0.06,0.25-0.15,0.36-0.26c0.11-0.11,0.22-0.24,0.31-0.41
					c0.09-0.17,0.17-0.38,0.23-0.63c0.06-0.25,0.1-0.38,0.1-0.4c-0.28,0-0.67-0.03-1.17-0.09c-0.5-0.06-0.95-0.14-1.35-0.25
					c-0.4-0.11-0.76-0.25-1.07-0.43c-0.32-0.18-0.59-0.38-0.82-0.62c-0.26-0.27-0.46-0.56-0.59-0.87c-0.14-0.31-0.24-0.64-0.3-0.98
					c-0.06-0.34-0.1-0.71-0.1-1.11v-1.16c0.01-0.51,0.07-0.99,0.2-1.42c0.13-0.43,0.29-0.82,0.5-1.16c0.21-0.34,0.46-0.64,0.74-0.9
					c0.28-0.25,0.59-0.46,0.91-0.62c0.58-0.28,1.2-0.43,1.86-0.43h0.09c0.68,0,1.33,0.15,1.93,0.45c0.31,0.16,0.6,0.37,0.88,0.61
					c0.28,0.25,0.52,0.54,0.72,0.87c0.2,0.33,0.36,0.7,0.47,1.11c0.12,0.41,0.17,0.85,0.17,1.33v3.23h1.37V278.42z M78.46,272.77
					c0-0.53-0.09-0.94-0.26-1.25c-0.17-0.31-0.37-0.52-0.6-0.63c-0.12-0.05-0.22-0.08-0.32-0.09c-0.08,0-0.17,0.03-0.29,0.08
					c-0.24,0.12-0.45,0.35-0.63,0.68c-0.18,0.33-0.28,0.8-0.29,1.4c-0.01,0.23-0.01,0.45-0.01,0.65c0,0.1,0,0.19,0.01,0.29
					c0,0.29,0.01,0.54,0.04,0.76c0.03,0.22,0.07,0.4,0.12,0.55c0.05,0.14,0.12,0.26,0.2,0.34c0.14,0.14,0.4,0.26,0.78,0.34
					c0.39,0.09,0.8,0.13,1.25,0.14V272.77z"/>
				<path class="st0" d="M87.43,265.49v9.86c0,0.1,0,0.15-0.01,0.17c0.01,0.04,0.03,0.1,0.07,0.17c0.04,0.08,0.09,0.15,0.15,0.21
					c0.06,0.06,0.11,0.09,0.13,0.09h1.88v2.42h-1.87c-0.42,0-0.81-0.06-1.17-0.18c-0.36-0.12-0.59-0.21-0.7-0.28
					c-0.09,0.07-0.32,0.17-0.68,0.28c-0.36,0.12-0.75,0.18-1.17,0.18h-1.76v-2.42h1.77c0.02,0,0.06-0.03,0.13-0.09
					c0.12-0.12,0.18-0.27,0.2-0.44v-9.97H87.43z"/>
				<path class="st0" d="M94.44,265.51v9.84c0,0.41-0.08,0.79-0.24,1.14c-0.16,0.35-0.37,0.66-0.63,0.93
					c-0.31,0.32-0.68,0.56-1.11,0.74c-0.43,0.18-0.89,0.27-1.4,0.27h-2.02v-2.42h2.03c0.01,0,0.05-0.03,0.12-0.09
					c0.06-0.06,0.12-0.14,0.15-0.24c0.04-0.09,0.06-0.2,0.06-0.32v-9.84H94.44z"/>
				<path class="st0" d="M99.41,265.51v12.8h-3.03v-12.8H99.41z"/>
				<path class="st0" d="M109.29,271.29v4.06c0,0.12,0.02,0.23,0.06,0.32c0.04,0.09,0.09,0.17,0.15,0.24
					c0.06,0.06,0.11,0.09,0.13,0.09h6.23c0.01,0,0.05-0.03,0.12-0.09c0.06-0.06,0.12-0.14,0.15-0.24c0.04-0.09,0.06-0.2,0.06-0.32
					v-6.05h3.03v6.05c0,0.41-0.08,0.79-0.24,1.14c-0.16,0.35-0.37,0.66-0.63,0.93c-0.31,0.32-0.68,0.56-1.11,0.74
					c-0.43,0.18-0.89,0.27-1.4,0.27h-6.21c-0.51,0-0.98-0.09-1.4-0.27c-0.43-0.18-0.8-0.42-1.11-0.74
					c-0.26-0.26-0.47-0.57-0.63-0.93s-0.24-0.57-0.24-0.66h-0.01v-4.54H109.29z M109.37,267.39c0-0.21,0.04-0.41,0.12-0.59
					c0.08-0.18,0.19-0.34,0.32-0.48s0.29-0.25,0.47-0.32c0.18-0.08,0.37-0.12,0.56-0.12c0.2,0,0.39,0.04,0.57,0.12
					c0.18,0.08,0.34,0.18,0.48,0.32c0.14,0.14,0.25,0.3,0.32,0.48c0.08,0.18,0.12,0.38,0.12,0.59s-0.04,0.41-0.12,0.58
					s-0.19,0.33-0.32,0.47c-0.14,0.14-0.3,0.24-0.48,0.32c-0.18,0.08-0.37,0.12-0.57,0.12c-0.2,0-0.39-0.04-0.56-0.12
					c-0.18-0.08-0.33-0.18-0.47-0.32c-0.14-0.14-0.24-0.29-0.32-0.47S109.37,267.6,109.37,267.39z M112.64,267.39
					c0-0.21,0.04-0.41,0.13-0.59c0.08-0.18,0.19-0.34,0.33-0.48c0.14-0.14,0.29-0.25,0.47-0.32c0.18-0.08,0.38-0.12,0.59-0.12
					c0.19,0,0.38,0.04,0.56,0.12c0.18,0.08,0.33,0.18,0.46,0.32c0.13,0.14,0.24,0.3,0.31,0.48c0.08,0.18,0.12,0.38,0.12,0.59
					s-0.04,0.41-0.12,0.58c-0.08,0.18-0.18,0.33-0.31,0.47c-0.13,0.14-0.29,0.24-0.46,0.32c-0.18,0.08-0.36,0.12-0.56,0.12
					c-0.21,0-0.41-0.04-0.59-0.12c-0.18-0.08-0.34-0.18-0.47-0.32c-0.14-0.14-0.24-0.29-0.33-0.47
					C112.68,267.8,112.64,267.6,112.64,267.39z"/>
				<path class="st0" d="M124.17,265.51v9.84c0,0.12,0.02,0.23,0.06,0.32c0.04,0.09,0.09,0.17,0.15,0.23
					c0.07,0.06,0.11,0.1,0.12,0.1h1.85v2.42h-1.84c-0.5,0-0.96-0.09-1.39-0.27c-0.43-0.18-0.8-0.42-1.11-0.74
					c-0.26-0.26-0.47-0.57-0.63-0.93c-0.16-0.35-0.24-0.73-0.24-1.14v-9.84H124.17z"/>
				<path class="st0" d="M126.92,275.99v-3.23c0-0.48,0.06-0.92,0.17-1.33c0.12-0.41,0.27-0.78,0.47-1.11
					c0.2-0.33,0.44-0.62,0.72-0.87c0.28-0.25,0.58-0.45,0.89-0.61c0.3-0.15,0.61-0.26,0.94-0.34c0.32-0.08,0.65-0.12,0.99-0.12h0.09
					c0.3,0,0.6,0.03,0.91,0.1c0.32,0.07,0.64,0.18,0.95,0.33c0.32,0.16,0.62,0.37,0.91,0.62c0.28,0.25,0.53,0.55,0.74,0.9
					c0.21,0.34,0.37,0.73,0.5,1.16c0.12,0.43,0.19,0.9,0.2,1.41v0.02l0.01,3.3c0,0.46-0.1,0.88-0.29,1.26
					c-0.1,0.19-0.22,0.38-0.36,0.56c-0.14,0.18-0.3,0.34-0.5,0.49c-0.43,0.37-0.92,0.6-1.47,0.7c-0.23,0.04-0.47,0.07-0.7,0.07
					c-0.3,0-0.59-0.03-0.87-0.1h-0.04l-2.98-0.79h-2.41v-2.42H126.92z M129.97,276.34l1.6,0.43c0.16,0.06,0.3,0.09,0.41,0.09
					c0.01,0,0.03,0,0.05-0.01c0.09-0.01,0.16-0.03,0.2-0.06c0.04-0.04,0.08-0.1,0.11-0.2c0.03-0.1,0.04-0.21,0.04-0.35l-0.01-3.28
					c-0.01-0.31-0.04-0.58-0.09-0.81c-0.05-0.23-0.13-0.43-0.22-0.6c-0.09-0.17-0.19-0.31-0.29-0.42c-0.11-0.11-0.21-0.19-0.32-0.25
					c-0.12-0.05-0.21-0.08-0.29-0.08c-0.1,0.01-0.22,0.04-0.34,0.09c-0.23,0.12-0.42,0.33-0.59,0.63c-0.17,0.31-0.25,0.72-0.25,1.25
					V276.34z"/>
				<path class="st0" d="M139.08,268.38h0.4c0.18,0.01,0.41,0.02,0.68,0.04c0.27,0.02,0.56,0.07,0.88,0.14
					c0.32,0.08,0.65,0.19,1,0.35c0.35,0.15,0.69,0.37,1.01,0.64s0.63,0.61,0.91,1.01c0.28,0.4,0.51,0.89,0.7,1.46
					c0.19,0.57,0.32,1.22,0.4,1.96c0.04,0.37,0.06,0.76,0.06,1.19c0,0.42-0.01,0.69-0.02,0.82h1.44v2.42h-9.2v-2.42h4.74
					c0.01-0.16,0.02-0.43,0.02-0.82c0-0.42-0.02-0.81-0.06-1.16c-0.06-0.64-0.17-1.16-0.32-1.56c-0.15-0.4-0.32-0.7-0.53-0.91
					c-0.2-0.21-0.43-0.37-0.67-0.47c-0.24-0.11-0.51-0.18-0.81-0.22c-0.3-0.04-0.81-0.09-1.55-0.16L139.08,268.38z"/>
				<path class="st0" d="M147.27,268.79c1.07-0.23,1.89-0.35,2.46-0.35c0.1,0,0.19,0,0.28,0.01c0.65,0.03,1.24,0.14,1.76,0.34
					c0.52,0.2,0.99,0.48,1.4,0.84c0.41,0.36,0.76,0.78,1.05,1.26c0.23,0.37,0.42,0.76,0.58,1.18c0.16,0.42,0.31,0.87,0.43,1.33
					c0.13,0.47,0.23,0.95,0.32,1.45c0.09,0.5,0.16,0.87,0.2,1.12h1.41v2.42h-11.22v-2.42h6.74c-0.01-0.09-0.06-0.36-0.14-0.8
					c-0.08-0.44-0.18-0.86-0.28-1.25c-0.1-0.39-0.22-0.75-0.34-1.08c-0.13-0.33-0.27-0.62-0.43-0.89c-0.14-0.22-0.3-0.41-0.47-0.56
					c-0.17-0.16-0.37-0.28-0.59-0.37c-0.22-0.09-0.47-0.14-0.75-0.15h-0.15c-0.27,0-0.7,0.06-1.29,0.18L147.27,268.79z
					 M148.84,266.14c0-0.21,0.04-0.41,0.13-0.59c0.08-0.18,0.19-0.34,0.33-0.48c0.14-0.14,0.29-0.25,0.47-0.32
					c0.18-0.08,0.38-0.12,0.59-0.12c0.19,0,0.38,0.04,0.56,0.12c0.18,0.08,0.33,0.18,0.46,0.32c0.13,0.14,0.24,0.3,0.31,0.48
					s0.12,0.38,0.12,0.59s-0.04,0.41-0.12,0.58s-0.18,0.33-0.31,0.47c-0.13,0.14-0.29,0.24-0.46,0.32
					c-0.18,0.08-0.36,0.12-0.56,0.12c-0.21,0-0.41-0.04-0.59-0.12c-0.18-0.08-0.34-0.18-0.47-0.32c-0.14-0.14-0.24-0.29-0.33-0.47
					C148.89,266.54,148.84,266.35,148.84,266.14z"/>
				<path class="st0" d="M161.73,265.49v9.86c0,0.1,0,0.15-0.01,0.17c0.01,0.04,0.03,0.1,0.07,0.17c0.04,0.08,0.09,0.15,0.15,0.21
					c0.06,0.06,0.11,0.09,0.13,0.09h1.88v2.42h-1.87c-0.42,0-0.81-0.06-1.17-0.18c-0.36-0.12-0.59-0.21-0.7-0.28
					c-0.09,0.07-0.32,0.17-0.68,0.28c-0.36,0.12-0.75,0.18-1.17,0.18h-1.76v-2.42h1.77c0.02,0,0.06-0.03,0.13-0.09
					c0.12-0.12,0.18-0.27,0.2-0.44v-9.97H161.73z"/>
				<path class="st0" d="M168.75,265.51v9.84c0,0.41-0.08,0.79-0.24,1.14c-0.16,0.35-0.37,0.66-0.63,0.93
					c-0.31,0.32-0.68,0.56-1.11,0.74c-0.43,0.18-0.89,0.27-1.4,0.27h-2.02v-2.42h2.03c0.01,0,0.05-0.03,0.12-0.09
					c0.06-0.06,0.12-0.14,0.15-0.24c0.04-0.09,0.06-0.2,0.06-0.32v-9.84H168.75z"/>
				<path class="st0" d="M184.07,274.16c0,0.08,0,0.17,0,0.25c0,0.08-0.01,0.15-0.01,0.22c-0.01,0.18-0.01,0.34-0.01,0.47
					c0,0.32,0.02,0.51,0.05,0.57c0.04,0.1,0.1,0.18,0.16,0.24c0.04,0.03,0.07,0.05,0.11,0.07c0.02,0.01,0.27,0.02,0.76,0.02h0.7
					v2.42h-1.44c-0.48,0-0.92-0.08-1.32-0.24c-0.41-0.16-0.66-0.28-0.75-0.37c-0.05,0.04-0.21,0.13-0.5,0.27
					c-0.6,0.3-1.24,0.45-1.92,0.45h-0.09c-0.3,0-0.61-0.03-0.91-0.1c-0.32-0.07-0.64-0.18-0.95-0.33c-0.32-0.16-0.62-0.37-0.91-0.62
					c-0.28-0.25-0.53-0.55-0.74-0.9c-0.21-0.34-0.38-0.73-0.5-1.16c-0.13-0.43-0.19-0.9-0.2-1.41c-0.01-0.28-0.01-0.54-0.01-0.8
					v-0.37c0.01-0.39,0.04-0.76,0.1-1.11c0.06-0.34,0.16-0.67,0.3-0.98c0.14-0.31,0.34-0.6,0.59-0.87c0.27-0.27,0.59-0.5,0.96-0.69
					c0.37-0.19,0.8-0.34,1.29-0.45c0.49-0.11,1.05-0.19,1.68-0.23c0.36-0.02,0.75-0.03,1.16-0.03c0.3,0,0.62,0.01,0.96,0.02
					l1.44,0.06V274.16z M176.91,265.95c0-0.21,0.04-0.41,0.12-0.59c0.08-0.18,0.19-0.34,0.32-0.48c0.14-0.14,0.29-0.25,0.47-0.32
					c0.18-0.08,0.37-0.12,0.56-0.12c0.2,0,0.39,0.04,0.57,0.12c0.18,0.08,0.34,0.18,0.48,0.32c0.14,0.14,0.25,0.3,0.32,0.48
					c0.08,0.18,0.12,0.38,0.12,0.59c0,0.21-0.04,0.41-0.12,0.58c-0.08,0.18-0.19,0.33-0.32,0.47c-0.14,0.14-0.3,0.24-0.48,0.32
					c-0.18,0.08-0.37,0.12-0.57,0.12c-0.2,0-0.39-0.04-0.56-0.12c-0.18-0.08-0.33-0.18-0.47-0.32c-0.14-0.14-0.24-0.29-0.32-0.47
					C176.95,266.36,176.91,266.17,176.91,265.95z M181.03,273.25v-2.35c-0.44,0.01-0.86,0.05-1.25,0.15
					c-0.39,0.09-0.65,0.2-0.78,0.34c-0.08,0.08-0.15,0.2-0.2,0.34c-0.05,0.14-0.09,0.33-0.12,0.55c-0.03,0.22-0.04,0.47-0.04,0.76
					c-0.01,0.1-0.01,0.19-0.01,0.29c0,0.2,0,0.42,0.01,0.65c0.01,0.31,0.04,0.58,0.09,0.81c0.05,0.23,0.13,0.43,0.22,0.6
					c0.09,0.17,0.19,0.31,0.29,0.42c0.11,0.11,0.21,0.19,0.32,0.25c0.12,0.05,0.21,0.08,0.29,0.08c0.1-0.01,0.21-0.04,0.33-0.09
					c0.19-0.1,0.37-0.28,0.53-0.53c0.16-0.25,0.26-0.58,0.3-0.99v-1.27H181.03z M180.18,265.95c0-0.21,0.04-0.41,0.13-0.59
					c0.08-0.18,0.19-0.34,0.33-0.48c0.14-0.14,0.29-0.25,0.47-0.32c0.18-0.08,0.38-0.12,0.59-0.12c0.19,0,0.38,0.04,0.56,0.12
					c0.18,0.08,0.33,0.18,0.46,0.32c0.13,0.14,0.24,0.3,0.31,0.48c0.08,0.18,0.12,0.38,0.12,0.59c0,0.21-0.04,0.41-0.12,0.58
					c-0.08,0.18-0.18,0.33-0.31,0.47c-0.13,0.14-0.29,0.24-0.46,0.32c-0.18,0.08-0.36,0.12-0.56,0.12c-0.21,0-0.41-0.04-0.59-0.12
					c-0.18-0.08-0.34-0.18-0.47-0.32c-0.14-0.14-0.24-0.29-0.33-0.47C180.22,266.36,180.18,266.17,180.18,265.95z"/>
				<path class="st0" d="M190.86,269.27v6.07c0,0.1,0,0.15-0.01,0.17c0.01,0.04,0.03,0.1,0.07,0.17c0.04,0.08,0.09,0.15,0.14,0.21
					c0.06,0.06,0.11,0.09,0.13,0.09h2.09v2.42h-2.08c-0.42,0-0.81-0.06-1.17-0.18c-0.36-0.12-0.59-0.21-0.7-0.28
					c-0.09,0.07-0.32,0.17-0.68,0.28c-0.36,0.12-0.75,0.18-1.17,0.18h-2.23v-2.42h2.24c0.02,0,0.06-0.03,0.13-0.09
					c0.12-0.12,0.18-0.27,0.2-0.44v-6.19H190.86z M185.97,281.03c0-0.21,0.04-0.41,0.12-0.59c0.08-0.18,0.19-0.34,0.32-0.48
					c0.14-0.14,0.29-0.25,0.47-0.32c0.18-0.08,0.37-0.12,0.56-0.12c0.2,0,0.39,0.04,0.57,0.12c0.18,0.08,0.34,0.18,0.48,0.32
					c0.14,0.14,0.25,0.3,0.32,0.48c0.08,0.18,0.12,0.38,0.12,0.59c0,0.21-0.04,0.41-0.12,0.58c-0.08,0.18-0.19,0.33-0.32,0.47
					c-0.14,0.14-0.3,0.24-0.48,0.32c-0.18,0.08-0.37,0.12-0.57,0.12c-0.2,0-0.39-0.04-0.56-0.12c-0.18-0.08-0.33-0.18-0.47-0.32
					c-0.14-0.14-0.24-0.29-0.32-0.47S185.97,281.24,185.97,281.03z M189.23,281.03c0-0.21,0.04-0.41,0.13-0.59
					c0.08-0.18,0.19-0.34,0.33-0.48c0.14-0.14,0.29-0.25,0.47-0.32c0.18-0.08,0.38-0.12,0.59-0.12c0.19,0,0.38,0.04,0.56,0.12
					c0.18,0.08,0.33,0.18,0.46,0.32c0.13,0.14,0.24,0.3,0.31,0.48c0.08,0.18,0.12,0.38,0.12,0.59c0,0.21-0.04,0.41-0.12,0.58
					c-0.08,0.18-0.18,0.33-0.31,0.47c-0.13,0.14-0.29,0.24-0.46,0.32c-0.18,0.08-0.36,0.12-0.56,0.12c-0.21,0-0.41-0.04-0.59-0.12
					c-0.18-0.08-0.34-0.18-0.47-0.32c-0.14-0.14-0.24-0.29-0.33-0.47C189.28,281.43,189.23,281.24,189.23,281.03z"/>
				<path class="st0" d="M198.08,265.51v9.84c0,0.41-0.08,0.79-0.24,1.14c-0.16,0.35-0.37,0.66-0.63,0.93
					c-0.31,0.32-0.68,0.56-1.11,0.74s-0.89,0.27-1.4,0.27h-2.02v-2.42h2.03c0.01,0,0.05-0.03,0.12-0.09
					c0.06-0.06,0.12-0.14,0.15-0.24c0.04-0.09,0.06-0.2,0.06-0.32v-9.84H198.08z"/>
				<path class="st0" d="M208.25,279.45c-0.13,0.45-0.3,0.85-0.52,1.2c-0.22,0.35-0.47,0.65-0.77,0.9
					c-0.29,0.25-0.61,0.46-0.96,0.63c-0.35,0.17-0.7,0.3-1.07,0.39c-0.37,0.09-0.74,0.16-1.12,0.2c-0.38,0.04-0.76,0.07-1.15,0.07
					c-0.39,0.01-0.94,0.01-1.65,0.01v-2.41c0.63,0,1.09,0,1.37,0c0.28,0,0.55-0.02,0.81-0.04s0.49-0.06,0.69-0.1
					c0.2-0.04,0.38-0.1,0.54-0.17c0.13-0.06,0.25-0.15,0.36-0.26c0.11-0.11,0.22-0.24,0.31-0.41c0.09-0.17,0.17-0.38,0.23-0.63
					c0.06-0.25,0.09-0.38,0.1-0.4c-0.28,0-0.67-0.03-1.17-0.09c-0.5-0.06-0.95-0.14-1.35-0.25c-0.4-0.11-0.76-0.25-1.07-0.43
					c-0.32-0.18-0.59-0.38-0.82-0.62c-0.26-0.27-0.46-0.56-0.59-0.87c-0.14-0.31-0.24-0.64-0.3-0.98c-0.06-0.34-0.1-0.71-0.1-1.11
					v-1.16c0.01-0.51,0.07-0.99,0.2-1.42c0.13-0.43,0.29-0.82,0.5-1.16c0.21-0.34,0.46-0.64,0.74-0.9c0.28-0.25,0.59-0.46,0.91-0.62
					c0.58-0.28,1.2-0.43,1.86-0.43h0.09c0.68,0,1.33,0.15,1.93,0.45c0.31,0.16,0.6,0.37,0.88,0.61c0.28,0.25,0.52,0.54,0.72,0.87
					c0.2,0.33,0.36,0.7,0.47,1.11c0.12,0.41,0.17,0.85,0.17,1.33v4.46C208.45,278.26,208.37,279,208.25,279.45z M205.45,272.77
					c0-0.53-0.09-0.94-0.26-1.25c-0.17-0.31-0.37-0.52-0.6-0.63c-0.12-0.05-0.22-0.08-0.32-0.09c-0.08,0-0.17,0.03-0.29,0.08
					c-0.24,0.12-0.45,0.35-0.63,0.68c-0.18,0.33-0.28,0.8-0.29,1.4c-0.01,0.23-0.01,0.45-0.01,0.65c0,0.1,0,0.19,0.01,0.29
					c0,0.29,0.01,0.54,0.04,0.76c0.03,0.22,0.07,0.4,0.12,0.55c0.05,0.14,0.12,0.26,0.2,0.34c0.14,0.14,0.4,0.26,0.78,0.34
					c0.39,0.09,0.8,0.13,1.25,0.14V272.77z"/>
				<path class="st0" d="M212.16,268.38h0.4c0.18,0.01,0.41,0.02,0.68,0.04c0.27,0.02,0.56,0.07,0.88,0.14
					c0.32,0.08,0.65,0.19,1,0.35c0.35,0.15,0.69,0.37,1.01,0.64c0.33,0.27,0.63,0.61,0.91,1.01c0.28,0.4,0.51,0.89,0.7,1.46
					c0.19,0.57,0.32,1.22,0.4,1.96c0.04,0.37,0.06,0.76,0.06,1.19c0,0.42-0.01,0.69-0.02,0.82h1.44v2.42h-9.2v-2.42h4.74
					c0.01-0.16,0.02-0.43,0.02-0.82c0-0.42-0.02-0.81-0.06-1.16c-0.06-0.64-0.17-1.16-0.32-1.56c-0.15-0.4-0.32-0.7-0.53-0.91
					c-0.2-0.21-0.43-0.37-0.67-0.47c-0.24-0.11-0.52-0.18-0.81-0.22c-0.3-0.04-0.81-0.09-1.54-0.16L212.16,268.38z"/>
				<path class="st0" d="M224.43,265.51v9.84c0,0.41-0.08,0.79-0.24,1.14c-0.16,0.35-0.37,0.66-0.63,0.93
					c-0.31,0.32-0.68,0.56-1.11,0.74c-0.43,0.18-0.89,0.27-1.4,0.27h-2.02v-2.42h2.03c0.01,0,0.05-0.03,0.12-0.09
					c0.06-0.06,0.12-0.14,0.15-0.24c0.04-0.09,0.06-0.2,0.06-0.32v-9.84H224.43z"/>
				<path class="st0" d="M229.39,265.51v12.8h-3.03v-12.8H229.39z"/>
				<path class="st0" d="M235.23,281.06c0.57,0,0.93-0.04,1.08-0.13c0.15-0.08,0.28-0.2,0.39-0.35c0.11-0.15,0.19-0.34,0.26-0.58
					c0.07-0.24,0.12-0.5,0.15-0.8c0.03-0.29,0.05-0.6,0.05-0.93c0-0.33,0-0.66,0-0.99v-4.52c0-0.48,0.06-0.92,0.17-1.33
					c0.12-0.41,0.27-0.78,0.47-1.11c0.2-0.33,0.44-0.62,0.72-0.87c0.28-0.25,0.58-0.45,0.89-0.61c0.3-0.15,0.61-0.26,0.94-0.34
					c0.32-0.08,0.65-0.12,0.98-0.12h0.09c0.66,0,1.28,0.14,1.86,0.43c0.32,0.16,0.62,0.37,0.91,0.62c0.28,0.25,0.53,0.55,0.74,0.9
					c0.21,0.34,0.37,0.73,0.5,1.16c0.12,0.43,0.19,0.9,0.2,1.41v3.08h1.18v2.42h-2.15c-0.05,0.06-0.17,0.15-0.35,0.28
					c-0.18,0.13-0.36,0.23-0.55,0.3c-0.46,0.21-0.94,0.31-1.45,0.31c-0.3,0-0.59-0.03-0.86-0.1h-0.05l-1.23-0.33l-0.06,0.61
					c-0.05,0.41-0.12,0.81-0.23,1.2c-0.11,0.39-0.27,0.75-0.47,1.1c-0.21,0.34-0.48,0.64-0.82,0.9c-0.34,0.26-0.75,0.45-1.23,0.59
					c-0.48,0.14-1.19,0.2-2.15,0.2V281.06z M240.21,276.33l2.09,0.55h-0.04c0.04-0.01,0.07-0.03,0.1-0.05
					c0.03-0.02,0.06-0.05,0.09-0.1c0.03-0.04,0.06-0.09,0.08-0.13c0.05-0.1,0.08-0.23,0.08-0.37l-0.01-3.28
					c-0.01-0.6-0.11-1.07-0.29-1.4c-0.18-0.33-0.39-0.55-0.63-0.68c-0.12-0.05-0.21-0.08-0.29-0.08c-0.1,0.01-0.2,0.04-0.32,0.09
					c-0.23,0.12-0.43,0.33-0.6,0.63c-0.17,0.31-0.26,0.72-0.26,1.25V276.33z"/>
				<path class="st0" d="M251.64,265.51v9.84c0,0.41-0.08,0.79-0.24,1.14c-0.16,0.35-0.37,0.66-0.63,0.93
					c-0.31,0.32-0.68,0.56-1.11,0.74c-0.43,0.18-0.89,0.27-1.4,0.27h-2.02v-2.42h2.03c0.01,0,0.05-0.03,0.12-0.09
					c0.06-0.06,0.12-0.14,0.15-0.24c0.04-0.09,0.06-0.2,0.06-0.32v-9.84H251.64z"/>
				<path class="st0" d="M256.6,265.51v9.84c0,0.12,0.02,0.23,0.06,0.32c0.04,0.09,0.09,0.17,0.15,0.23c0.07,0.06,0.11,0.1,0.12,0.1
					h1.85v2.42h-1.84c-0.5,0-0.96-0.09-1.39-0.27c-0.43-0.18-0.8-0.42-1.11-0.74c-0.26-0.26-0.47-0.57-0.63-0.93
					c-0.16-0.35-0.24-0.73-0.24-1.14v-9.84H256.6z"/>
				<path class="st0" d="M269.14,278.42H258.2v-2.42h1.74c-0.08-0.16-0.14-0.37-0.2-0.62c-0.05-0.25-0.09-0.52-0.11-0.79
					c-0.02-0.27-0.02-0.56-0.02-0.85v-0.39c0-0.14,0-0.28,0.01-0.43v-0.01c0.02-0.76,0.15-1.42,0.4-1.98
					c0.24-0.56,0.57-1.03,0.97-1.41c0.4-0.38,0.85-0.66,1.36-0.84c0.51-0.18,1.02-0.27,1.56-0.27h0.01c0.52,0,1.03,0.1,1.53,0.28
					c0.5,0.19,0.95,0.47,1.34,0.84c0.4,0.37,0.71,0.83,0.95,1.38c0.24,0.55,0.36,1.33,0.36,2.35h-3.04c0-0.64-0.04-1.09-0.12-1.35
					c-0.08-0.25-0.18-0.46-0.29-0.63c-0.12-0.16-0.24-0.28-0.38-0.36c-0.13-0.08-0.26-0.12-0.37-0.12h-0.01
					c-0.12,0-0.24,0.04-0.37,0.11c-0.13,0.07-0.26,0.19-0.38,0.36c-0.13,0.17-0.23,0.39-0.32,0.68c-0.09,0.28-0.14,0.62-0.15,1v0.01
					c-0.01,0.13-0.01,0.25-0.01,0.36v0.34c0,0.43,0.01,0.79,0.04,1.08c0.03,0.29,0.1,0.51,0.21,0.67c0.11,0.16,0.3,0.29,0.56,0.39
					c0.27,0.1,0.67,0.17,1.21,0.2h4.47V278.42z"/>
				<path class="st0" d="M273.95,265.51v9.84c0,0.41-0.08,0.79-0.24,1.14c-0.16,0.35-0.37,0.66-0.63,0.93
					c-0.31,0.32-0.68,0.56-1.11,0.74c-0.43,0.18-0.89,0.27-1.4,0.27h-2.02v-2.42h2.03c0.01,0,0.05-0.03,0.12-0.09
					c0.06-0.06,0.12-0.14,0.15-0.24c0.04-0.09,0.06-0.2,0.06-0.32v-9.84H273.95z"/>
				<path class="st0" d="M278.91,265.51v12.8h-3.03v-12.8H278.91z"/>
				<path class="st0" d="M299.09,275.99h1.36v2.42h-14.71v-2.42h1.1c0.01,0,0.05-0.03,0.12-0.09c0.06-0.06,0.12-0.14,0.15-0.24
					c0.04-0.09,0.06-0.2,0.06-0.32v-9.87h3.04v5.26c0.8-1.26,1.91-1.99,3.33-2.2c0.14-0.01,0.27-0.01,0.4-0.01
					c0.3,0,0.6,0.02,0.9,0.05c0.43,0.05,0.84,0.15,1.24,0.29c0.42,0.14,0.82,0.33,1.19,0.56c0.37,0.24,0.69,0.52,0.96,0.86
					c0.27,0.34,0.49,0.72,0.66,1.16c0.16,0.43,0.25,0.92,0.27,1.46v0.18c0,0.03,0,0.07,0.01,0.13v2.12
					C299.16,275.57,299.14,275.79,299.09,275.99z M290.23,275.99h5.59c0.01,0,0.05-0.03,0.12-0.09c0.06-0.06,0.12-0.14,0.15-0.24
					c0.04-0.09,0.06-0.2,0.06-0.32v-1.95c0-0.06,0-0.13,0-0.21c0-0.07,0-0.15,0-0.23c-0.01-0.27-0.05-0.51-0.12-0.72
					c-0.06-0.21-0.15-0.39-0.26-0.54c-0.11-0.15-0.24-0.28-0.39-0.38c-0.15-0.1-0.31-0.18-0.48-0.25c-0.16-0.05-0.33-0.09-0.52-0.11
					c-0.13-0.02-0.26-0.03-0.39-0.03c-0.06,0-0.13,0-0.2,0.01c-0.99,0.05-1.82,0.44-2.5,1.15c-0.67,0.72-1.02,1.54-1.06,2.46V275.99
					z"/>
				<path class="st0" d="M306.26,269.27v6.07c0,0.41-0.08,0.79-0.24,1.14c-0.16,0.35-0.37,0.66-0.64,0.93
					c-0.32,0.32-0.68,0.56-1.11,0.74s-0.89,0.27-1.4,0.27h-3v-2.42h3.01c0.12-0.03,0.21-0.12,0.26-0.26
					c0.05-0.12,0.07-0.26,0.07-0.43v-6.03H306.26z M301.5,281.29c0-0.21,0.04-0.41,0.13-0.59c0.08-0.18,0.19-0.34,0.33-0.48
					c0.14-0.14,0.29-0.25,0.47-0.32c0.18-0.08,0.38-0.12,0.59-0.12c0.19,0,0.38,0.04,0.55,0.12c0.18,0.08,0.33,0.18,0.46,0.32
					c0.13,0.14,0.24,0.3,0.31,0.48c0.08,0.18,0.12,0.38,0.12,0.59c0,0.21-0.04,0.41-0.12,0.58c-0.08,0.18-0.18,0.33-0.31,0.47
					c-0.13,0.14-0.29,0.24-0.46,0.32c-0.18,0.08-0.36,0.12-0.55,0.12c-0.21,0-0.41-0.04-0.59-0.12c-0.18-0.08-0.34-0.18-0.47-0.32
					c-0.14-0.14-0.24-0.29-0.33-0.47C301.54,281.69,301.5,281.5,301.5,281.29z"/>
				<path class="st0" d="M311.22,265.51v12.8h-3.03v-12.8H311.22z"/>
				<path class="st0" d="M321.39,279.45c-0.13,0.45-0.3,0.85-0.52,1.2c-0.22,0.35-0.47,0.65-0.77,0.9
					c-0.29,0.25-0.61,0.46-0.96,0.63s-0.7,0.3-1.07,0.39c-0.37,0.09-0.74,0.16-1.12,0.2c-0.38,0.04-0.76,0.07-1.15,0.07
					c-0.39,0.01-0.94,0.01-1.65,0.01v-2.41c0.63,0,1.09,0,1.37,0c0.28,0,0.55-0.02,0.81-0.04s0.49-0.06,0.69-0.1
					c0.2-0.04,0.38-0.1,0.54-0.17c0.13-0.06,0.25-0.15,0.36-0.26c0.11-0.11,0.22-0.24,0.31-0.41c0.09-0.17,0.17-0.38,0.23-0.63
					c0.06-0.25,0.09-0.38,0.1-0.4c-0.28,0-0.67-0.03-1.17-0.09c-0.5-0.06-0.95-0.14-1.35-0.25c-0.4-0.11-0.76-0.25-1.07-0.43
					c-0.32-0.18-0.59-0.38-0.82-0.62c-0.26-0.27-0.46-0.56-0.59-0.87c-0.14-0.31-0.24-0.64-0.3-0.98c-0.06-0.34-0.1-0.71-0.1-1.11
					v-1.16c0.01-0.51,0.07-0.99,0.2-1.42c0.13-0.43,0.29-0.82,0.5-1.16c0.21-0.34,0.46-0.64,0.74-0.9c0.28-0.25,0.59-0.46,0.91-0.62
					c0.58-0.28,1.2-0.43,1.86-0.43h0.09c0.68,0,1.33,0.15,1.93,0.45c0.31,0.16,0.6,0.37,0.88,0.61c0.28,0.25,0.52,0.54,0.72,0.87
					c0.2,0.33,0.36,0.7,0.47,1.11c0.12,0.41,0.17,0.85,0.17,1.33v4.46C321.6,278.26,321.52,279,321.39,279.45z M318.59,272.77
					c0-0.53-0.09-0.94-0.26-1.25c-0.17-0.31-0.37-0.52-0.6-0.63c-0.12-0.05-0.22-0.08-0.32-0.09c-0.08,0-0.17,0.03-0.29,0.08
					c-0.24,0.12-0.45,0.35-0.63,0.68c-0.18,0.33-0.28,0.8-0.29,1.4c-0.01,0.23-0.01,0.45-0.01,0.65c0,0.1,0,0.19,0.01,0.29
					c0,0.29,0.01,0.54,0.04,0.76c0.03,0.22,0.07,0.4,0.12,0.55c0.05,0.14,0.12,0.26,0.2,0.34c0.14,0.14,0.4,0.26,0.78,0.34
					c0.39,0.09,0.8,0.13,1.25,0.14V272.77z"/>
				<path class="st0" d="M328.19,269.27v8.64c-0.03,0.57-0.11,1.09-0.24,1.54c-0.13,0.45-0.3,0.85-0.52,1.2
					c-0.22,0.35-0.47,0.65-0.77,0.9c-0.3,0.25-0.62,0.46-0.97,0.63c-0.35,0.17-0.71,0.3-1.07,0.39c-0.37,0.09-0.74,0.16-1.12,0.2
					c-0.38,0.04-0.76,0.07-1.15,0.07c-0.39,0.01-0.93,0.01-1.64,0.01v-2.41c0.63,0,1.09,0,1.37,0c0.28,0,0.55-0.02,0.8-0.04
					s0.48-0.06,0.69-0.1c0.21-0.04,0.39-0.1,0.54-0.17c0.14-0.06,0.26-0.15,0.38-0.26c0.12-0.11,0.22-0.25,0.31-0.42
					c0.09-0.17,0.17-0.39,0.23-0.65c0.06-0.26,0.1-0.56,0.12-0.92v-8.59H328.19z"/>
				<path class="st0" d="M343.5,274.16c0,0.08,0,0.17,0,0.25c0,0.08-0.01,0.15-0.01,0.22c-0.01,0.18-0.01,0.34-0.01,0.47
					c0,0.32,0.02,0.51,0.05,0.57c0.05,0.1,0.1,0.18,0.16,0.24c0.04,0.03,0.07,0.05,0.11,0.07c0.02,0.01,0.27,0.02,0.76,0.02h0.71
					v2.42h-1.44c-0.48,0-0.92-0.08-1.32-0.24c-0.41-0.16-0.66-0.28-0.75-0.37c-0.05,0.04-0.21,0.13-0.5,0.27
					c-0.6,0.3-1.24,0.45-1.92,0.45h-0.09c-0.3,0-0.61-0.03-0.91-0.1c-0.32-0.07-0.64-0.18-0.95-0.33c-0.32-0.16-0.62-0.37-0.91-0.62
					c-0.28-0.25-0.53-0.55-0.74-0.9c-0.21-0.34-0.38-0.73-0.5-1.16c-0.13-0.43-0.19-0.9-0.2-1.41c-0.01-0.28-0.01-0.54-0.01-0.8
					v-0.37c0.01-0.39,0.04-0.76,0.1-1.11c0.06-0.34,0.16-0.67,0.3-0.98c0.14-0.31,0.34-0.6,0.59-0.87c0.27-0.27,0.59-0.5,0.96-0.69
					c0.37-0.19,0.8-0.34,1.29-0.45c0.49-0.11,1.05-0.19,1.68-0.23c0.36-0.02,0.75-0.03,1.16-0.03c0.3,0,0.62,0.01,0.96,0.02
					l1.44,0.06V274.16z M336.35,265.95c0-0.21,0.04-0.41,0.12-0.59c0.08-0.18,0.19-0.34,0.32-0.48s0.29-0.25,0.47-0.32
					c0.18-0.08,0.37-0.12,0.56-0.12s0.39,0.04,0.57,0.12c0.18,0.08,0.34,0.18,0.48,0.32c0.14,0.14,0.25,0.3,0.32,0.48
					c0.08,0.18,0.12,0.38,0.12,0.59c0,0.21-0.04,0.41-0.12,0.58c-0.08,0.18-0.19,0.33-0.32,0.47c-0.14,0.14-0.3,0.24-0.48,0.32
					c-0.18,0.08-0.37,0.12-0.57,0.12s-0.39-0.04-0.56-0.12c-0.18-0.08-0.33-0.18-0.47-0.32s-0.24-0.29-0.32-0.47
					S336.35,266.17,336.35,265.95z M340.46,273.25v-2.35c-0.44,0.01-0.86,0.05-1.25,0.15c-0.39,0.09-0.65,0.2-0.78,0.34
					c-0.08,0.08-0.15,0.2-0.2,0.34c-0.05,0.14-0.09,0.33-0.12,0.55c-0.03,0.22-0.04,0.47-0.04,0.76c-0.01,0.1-0.01,0.19-0.01,0.29
					c0,0.2,0,0.42,0.01,0.65c0.01,0.31,0.04,0.58,0.09,0.81c0.05,0.23,0.13,0.43,0.22,0.6c0.09,0.17,0.19,0.31,0.29,0.42
					c0.11,0.11,0.21,0.19,0.32,0.25c0.12,0.05,0.21,0.08,0.29,0.08c0.1-0.01,0.21-0.04,0.33-0.09c0.19-0.1,0.37-0.28,0.53-0.53
					c0.16-0.25,0.26-0.58,0.3-0.99v-1.27H340.46z M339.61,265.95c0-0.21,0.04-0.41,0.13-0.59c0.08-0.18,0.19-0.34,0.33-0.48
					c0.14-0.14,0.29-0.25,0.47-0.32c0.18-0.08,0.38-0.12,0.59-0.12c0.19,0,0.38,0.04,0.56,0.12c0.18,0.08,0.33,0.18,0.46,0.32
					c0.13,0.14,0.24,0.3,0.31,0.48c0.08,0.18,0.12,0.38,0.12,0.59c0,0.21-0.04,0.41-0.12,0.58c-0.08,0.18-0.18,0.33-0.31,0.47
					c-0.13,0.14-0.29,0.24-0.46,0.32c-0.18,0.08-0.36,0.12-0.56,0.12c-0.21,0-0.41-0.04-0.59-0.12c-0.18-0.08-0.34-0.18-0.47-0.32
					c-0.14-0.14-0.24-0.29-0.33-0.47C339.65,266.36,339.61,266.17,339.61,265.95z"/>
				<path class="st0" d="M344.68,275.99H353c0.55-0.02,0.83-0.17,0.84-0.46v-1.6c-0.03-0.14-0.13-0.27-0.32-0.41
					c-0.19-0.14-0.45-0.26-0.8-0.38c-0.35-0.11-0.75-0.2-1.2-0.26c-0.45-0.06-0.91-0.11-1.38-0.14s-0.9-0.04-1.32-0.04h-2.53
					l-0.39-0.74c-0.32-0.61-0.47-1.18-0.47-1.72c0-0.35,0.06-0.69,0.18-1c0.12-0.31,0.29-0.6,0.51-0.85
					c0.19-0.26,0.42-0.49,0.7-0.69c0.27-0.2,0.56-0.38,0.88-0.55c0.49-0.26,1.02-0.48,1.61-0.66c0.58-0.17,1.16-0.31,1.74-0.42
					c0.58-0.1,1.14-0.18,1.68-0.22c0.54-0.05,1.17-0.07,1.9-0.07v2.42c-0.63,0-1.15,0.02-1.56,0.05c-0.41,0.03-0.83,0.09-1.27,0.16
					s-0.87,0.17-1.28,0.29c-0.42,0.12-0.79,0.27-1.12,0.44c-0.16,0.08-0.3,0.17-0.42,0.26c-0.12,0.09-0.21,0.18-0.29,0.27
					c-0.13,0.16-0.22,0.36-0.26,0.59c0.21,0,0.59,0.01,1.15,0.02c0.56,0.01,1.14,0.05,1.75,0.11c0.61,0.06,1.21,0.16,1.82,0.28
					c0.61,0.13,1.16,0.31,1.68,0.55c0.52,0.24,0.96,0.55,1.35,0.94c0.38,0.39,0.63,0.88,0.73,1.49v1.86c0,0.38-0.08,0.74-0.23,1.07
					c-0.15,0.33-0.35,0.62-0.59,0.86c-0.29,0.3-0.64,0.53-1.05,0.7c-0.41,0.17-0.86,0.26-1.33,0.26h-9V275.99z"/>
				<path class="st0" d="M363.51,269.27v6.72h1.54v2.42h-1.56c-0.01,0.26-0.08,0.61-0.21,1.06c-0.13,0.45-0.3,0.84-0.52,1.19
					c-0.22,0.35-0.47,0.65-0.77,0.89c-0.29,0.25-0.61,0.46-0.96,0.62c-0.35,0.17-0.71,0.3-1.07,0.39c-0.37,0.09-0.74,0.16-1.12,0.2
					c-0.38,0.04-0.76,0.07-1.15,0.07c-0.39,0.01-0.93,0.01-1.64,0.01v-2.41c0.63,0,1.09,0,1.37,0c0.28,0,0.55-0.02,0.8-0.04
					s0.48-0.06,0.69-0.1c0.21-0.04,0.39-0.1,0.54-0.17c0.14-0.06,0.26-0.15,0.38-0.26c0.12-0.11,0.22-0.25,0.31-0.42
					c0.09-0.17,0.17-0.39,0.23-0.65c0.06-0.26,0.1-0.56,0.12-0.92v-8.59H363.51z"/>
				<path class="st0" d="M378.64,275.35c0,0.41-0.08,0.79-0.24,1.14c-0.16,0.35-0.37,0.66-0.64,0.93c-0.32,0.32-0.68,0.56-1.11,0.74
					c-0.42,0.18-0.89,0.27-1.4,0.27h-0.89c-0.42,0-0.81-0.06-1.17-0.18c-0.36-0.12-0.59-0.21-0.68-0.28
					c-0.1,0.07-0.33,0.17-0.7,0.28c-0.36,0.12-0.75,0.18-1.17,0.18h-0.94c-0.42,0-0.81-0.06-1.17-0.18
					c-0.36-0.12-0.59-0.21-0.7-0.28c-0.09,0.07-0.32,0.17-0.68,0.28c-0.36,0.12-0.75,0.18-1.17,0.18h-1.54v-2.42h1.54
					c0.02,0,0.06-0.03,0.13-0.09c0.12-0.12,0.18-0.27,0.2-0.44v-6.19h3.04v6.07c0,0.1,0,0.15-0.01,0.17
					c0.01,0.04,0.03,0.1,0.07,0.17c0.04,0.08,0.09,0.15,0.15,0.21c0.06,0.06,0.11,0.09,0.13,0.09h0.96c0.02,0,0.06-0.03,0.13-0.09
					c0.06-0.06,0.11-0.14,0.14-0.21c0.04-0.08,0.06-0.14,0.07-0.17c-0.01-0.02-0.01-0.08-0.01-0.17v-6.07h3.04v6.2
					c0.01,0.17,0.08,0.31,0.2,0.42c0.06,0.06,0.11,0.1,0.13,0.1h0.91c0.02,0,0.06-0.03,0.13-0.09c0.06-0.06,0.12-0.14,0.15-0.24
					c0.03-0.08,0.05-0.19,0.05-0.34v-6.05h3.04V275.35z M369.32,266.92c0-0.21,0.04-0.41,0.12-0.59c0.08-0.18,0.19-0.34,0.32-0.48
					c0.14-0.14,0.29-0.25,0.47-0.32c0.18-0.08,0.36-0.12,0.56-0.12c0.2,0,0.39,0.04,0.57,0.12c0.18,0.08,0.34,0.18,0.48,0.32
					c0.14,0.14,0.25,0.3,0.32,0.48c0.08,0.18,0.12,0.38,0.12,0.59s-0.04,0.41-0.12,0.58c-0.08,0.18-0.18,0.33-0.32,0.47
					c-0.14,0.14-0.3,0.24-0.48,0.32c-0.18,0.08-0.37,0.12-0.57,0.12c-0.2,0-0.39-0.04-0.56-0.12c-0.18-0.08-0.33-0.18-0.47-0.32
					c-0.14-0.14-0.24-0.29-0.32-0.47C369.36,267.33,369.32,267.13,369.32,266.92z M370.82,263.84c0-0.21,0.04-0.41,0.13-0.59
					s0.19-0.34,0.33-0.48c0.14-0.14,0.29-0.25,0.47-0.32c0.18-0.08,0.38-0.12,0.59-0.12c0.19,0,0.38,0.04,0.56,0.12
					c0.18,0.08,0.33,0.19,0.46,0.32c0.13,0.14,0.24,0.3,0.31,0.48c0.08,0.18,0.12,0.38,0.12,0.59c0,0.21-0.04,0.41-0.12,0.58
					c-0.08,0.18-0.18,0.33-0.31,0.47c-0.13,0.14-0.29,0.24-0.46,0.32c-0.18,0.08-0.36,0.12-0.56,0.12c-0.21,0-0.41-0.04-0.59-0.12
					c-0.18-0.08-0.34-0.18-0.47-0.32c-0.14-0.14-0.24-0.29-0.33-0.47S370.82,264.05,370.82,263.84z M372.58,266.92
					c0-0.21,0.04-0.41,0.13-0.59c0.08-0.18,0.19-0.34,0.33-0.48c0.14-0.14,0.29-0.25,0.47-0.32c0.18-0.08,0.38-0.12,0.59-0.12
					c0.19,0,0.38,0.04,0.55,0.12c0.18,0.08,0.33,0.18,0.46,0.32c0.13,0.14,0.24,0.3,0.31,0.48c0.08,0.18,0.12,0.38,0.12,0.59
					s-0.04,0.41-0.12,0.58c-0.08,0.18-0.18,0.33-0.31,0.47c-0.13,0.14-0.29,0.24-0.46,0.32c-0.18,0.08-0.36,0.12-0.55,0.12
					c-0.21,0-0.41-0.04-0.59-0.12c-0.18-0.08-0.34-0.18-0.47-0.32c-0.14-0.14-0.24-0.29-0.33-0.47
					C372.62,267.33,372.58,267.13,372.58,266.92z"/>
			</g>
			<g>
				<path class="st1" d="M21.35,301.81v-11.07h2.31v11.07H21.35z"/>
				<path class="st1" d="M27.87,301.81h-2.16v-11.07h2.42l4.44,7.77v-7.77h2.16v11.07h-2.3l-4.57-7.97V301.81z"/>
				<path class="st1" d="M39.36,301.81v-9.11h-3.35v-1.97h9v1.97h-3.34v9.11H39.36z"/>
				<path class="st1" d="M46.39,301.81v-11.07h8.15v1.97H48.7v2.36h5.41v1.9H48.7v2.88h6.1v1.97H46.39z"/>
				<path class="st1" d="M56.68,301.81v-11.07h5.58c1.06,0,1.91,0.28,2.55,0.85c0.65,0.57,0.97,1.31,0.97,2.23
					c0,1.06-0.36,1.84-1.08,2.34c-0.19,0.13-0.41,0.24-0.65,0.33c0.14,0.05,0.26,0.11,0.37,0.18c0.63,0.38,0.96,1.01,0.99,1.9
					l0.05,1.82c0.01,0.36,0.05,0.61,0.11,0.77c0.06,0.15,0.19,0.27,0.38,0.36v0.29H63.4c-0.06-0.12-0.12-0.36-0.16-0.74
					c-0.04-0.38-0.07-0.79-0.07-1.22l-0.02-1.02c-0.01-0.5-0.16-0.85-0.44-1.06s-0.75-0.32-1.41-0.32h-2.3v4.37H56.68z
					 M58.99,295.57h2.68c0.59,0,1.04-0.12,1.34-0.37c0.3-0.25,0.45-0.61,0.45-1.1c0-0.49-0.14-0.85-0.43-1.1
					c-0.29-0.24-0.71-0.37-1.28-0.37h-2.77V295.57z"/>
				<path class="st1" d="M69.86,301.81h-2.16v-11.07h2.42l4.44,7.77v-7.77h2.16v11.07h-2.3l-4.57-7.97V301.81z"/>
				<path class="st1" d="M78.1,301.81l3.91-11.07h2.68l3.92,11.07h-2.46l-0.74-2.25h-4.2l-0.74,2.25H78.1z M83.32,293.2l-1.46,4.45
					h2.94L83.32,293.2z"/>
				<path class="st1" d="M92.5,301.81v-9.11h-3.35v-1.97h9v1.97h-3.34v9.11H92.5z"/>
				<path class="st1" d="M99.34,301.81v-11.07h2.31v11.07H99.34z"/>
				<path class="st1" d="M108.64,302.11c-1.63,0-2.92-0.52-3.88-1.56c-0.96-1.04-1.44-2.44-1.44-4.22c0-1.81,0.48-3.25,1.44-4.31
					c0.96-1.06,2.26-1.59,3.88-1.59c1.63,0,2.93,0.53,3.89,1.59c0.96,1.06,1.44,2.5,1.44,4.31c0,1.77-0.48,3.18-1.44,4.22
					C111.57,301.59,110.27,302.11,108.64,302.11z M108.64,300.15c0.94,0,1.68-0.34,2.21-1.01c0.53-0.68,0.8-1.61,0.8-2.81
					c0-1.23-0.27-2.19-0.8-2.88c-0.53-0.69-1.27-1.04-2.21-1.04c-0.94,0-1.68,0.35-2.21,1.04c-0.53,0.69-0.8,1.65-0.8,2.88
					c0,1.2,0.27,2.14,0.8,2.81C106.95,299.81,107.69,300.15,108.64,300.15z"/>
				<path class="st1" d="M117.86,301.81h-2.16v-11.07h2.42l4.44,7.77v-7.77h2.16v11.07h-2.3l-4.57-7.97V301.81z"/>
				<path class="st1" d="M126.09,301.81l3.91-11.07h2.68l3.92,11.07h-2.46l-0.74-2.25h-4.2l-0.74,2.25H126.09z M131.31,293.2
					l-1.46,4.45h2.94L131.31,293.2z"/>
				<path class="st1" d="M138.1,301.81v-11.07h2.31v9.11h5.51v1.97H138.1z"/>
				<path class="st1" d="M154.07,301.81l-3.08-11.07h2.41l1.84,8.1l1.58-8.1h2.46l1.61,8.03l1.84-8.03h2.34l-3.08,11.07h-2.2
					l-1.77-8.72l-1.74,8.72H154.07z"/>
				<path class="st1" d="M171.3,302.11c-1.63,0-2.92-0.52-3.88-1.56c-0.96-1.04-1.44-2.44-1.44-4.22c0-1.81,0.48-3.25,1.44-4.31
					c0.96-1.06,2.26-1.59,3.88-1.59c1.63,0,2.93,0.53,3.89,1.59c0.96,1.06,1.44,2.5,1.44,4.31c0,1.77-0.48,3.18-1.44,4.22
					C174.23,301.59,172.94,302.11,171.3,302.11z M171.3,300.15c0.94,0,1.68-0.34,2.21-1.01c0.53-0.68,0.8-1.61,0.8-2.81
					c0-1.23-0.27-2.19-0.8-2.88c-0.53-0.69-1.27-1.04-2.21-1.04c-0.94,0-1.68,0.35-2.21,1.04c-0.53,0.69-0.8,1.65-0.8,2.88
					c0,1.2,0.27,2.14,0.8,2.81C169.62,299.81,170.36,300.15,171.3,300.15z"/>
				<path class="st1" d="M178.48,301.81v-11.07h5.58c1.06,0,1.91,0.28,2.55,0.85c0.65,0.57,0.97,1.31,0.97,2.23
					c0,1.06-0.36,1.84-1.08,2.34c-0.19,0.13-0.41,0.24-0.65,0.33c0.14,0.05,0.26,0.11,0.37,0.18c0.63,0.38,0.96,1.01,0.99,1.9
					l0.05,1.82c0.01,0.36,0.05,0.61,0.11,0.77c0.06,0.15,0.19,0.27,0.38,0.36v0.29h-2.55c-0.06-0.12-0.12-0.36-0.16-0.74
					c-0.04-0.38-0.07-0.79-0.07-1.22l-0.02-1.02c-0.01-0.5-0.16-0.85-0.44-1.06c-0.28-0.21-0.75-0.32-1.41-0.32h-2.3v4.37H178.48z
					 M180.79,295.57h2.68c0.59,0,1.04-0.12,1.34-0.37c0.3-0.25,0.45-0.61,0.45-1.1c0-0.49-0.14-0.85-0.43-1.1
					c-0.29-0.24-0.71-0.37-1.28-0.37h-2.77V295.57z"/>
				<path class="st1" d="M189.62,301.81v-11.07h2.31v9.11h5.51v1.97H189.62z"/>
				<path class="st1" d="M199.04,301.81v-11.07h4.74c1.52,0,2.68,0.45,3.47,1.34c0.79,0.89,1.19,2.2,1.19,3.92
					c0,1.9-0.41,3.34-1.23,4.33s-2.03,1.48-3.62,1.48H199.04z M201.36,299.9h1.95c0.94,0,1.65-0.32,2.12-0.95
					c0.47-0.63,0.71-1.59,0.71-2.86c0-1.15-0.22-2.02-0.66-2.59c-0.44-0.57-1.1-0.86-1.97-0.86h-2.14V299.9z"/>
				<path class="st1" d="M214.59,301.81v-11.07h2.31v9.11h5.51v1.97H214.59z"/>
				<path class="st1" d="M223.82,301.81v-11.07h2.31v11.07H223.82z"/>
				<path class="st1" d="M230.33,301.81h-2.16v-11.07h2.42l4.44,7.77v-7.77h2.16v11.07h-2.3l-4.57-7.97V301.81z"/>
				<path class="st1" d="M239.6,301.81v-11.07h2.31v4.59l4.24-4.59h2.95l-4.42,4.53l4.72,6.55h-3.03l-3.33-4.87l-1.13,1.15v3.72
					H239.6z"/>
				<path class="st1" d="M256.58,294.06c-0.04-0.53-0.27-0.95-0.69-1.26c-0.42-0.31-0.97-0.46-1.64-0.46
					c-0.59,0-1.05,0.13-1.38,0.39s-0.5,0.62-0.5,1.08c0,0.33,0.17,0.59,0.52,0.77c0.34,0.18,1.07,0.39,2.17,0.64
					c1.62,0.36,2.7,0.77,3.24,1.25c0.54,0.47,0.81,1.22,0.81,2.25c0,1.04-0.41,1.86-1.23,2.48c-0.82,0.61-1.93,0.92-3.32,0.92
					c-1.4,0-2.5-0.33-3.29-0.97c-0.79-0.65-1.21-1.57-1.26-2.77h2.23c0.02,0.59,0.24,1.04,0.64,1.36c0.4,0.32,0.96,0.48,1.68,0.48
					c0.74,0,1.32-0.12,1.73-0.36c0.42-0.24,0.62-0.57,0.62-0.99c0-0.42-0.15-0.72-0.45-0.92c-0.29-0.2-0.91-0.4-1.87-0.61
					c-1.75-0.39-2.93-0.82-3.52-1.27c-0.59-0.45-0.88-1.15-0.88-2.11c0-1.07,0.39-1.93,1.17-2.56c0.78-0.63,1.83-0.95,3.16-0.95
					c1.24,0,2.25,0.33,3.03,0.98c0.78,0.65,1.21,1.54,1.29,2.65H256.58z"/>
				<path class="st1" d="M265.26,301.81v-11.07h2.31v9.11h5.51v1.97H265.26z"/>
				<path class="st1" d="M279.5,302.11c-1.63,0-2.92-0.52-3.88-1.56c-0.96-1.04-1.44-2.44-1.44-4.22c0-1.81,0.48-3.25,1.44-4.31
					c0.96-1.06,2.26-1.59,3.88-1.59c1.63,0,2.93,0.53,3.89,1.59c0.96,1.06,1.44,2.5,1.44,4.31c0,1.77-0.48,3.18-1.44,4.22
					C282.43,301.59,281.14,302.11,279.5,302.11z M279.5,300.15c0.94,0,1.68-0.34,2.21-1.01c0.53-0.68,0.8-1.61,0.8-2.81
					c0-1.23-0.27-2.19-0.8-2.88c-0.53-0.69-1.27-1.04-2.21-1.04c-0.94,0-1.68,0.35-2.21,1.04c-0.53,0.69-0.8,1.65-0.8,2.88
					c0,1.2,0.27,2.14,0.8,2.81C277.82,299.81,278.56,300.15,279.5,300.15z"/>
				<path class="st1" d="M291.44,302.11c-1.62,0-2.9-0.52-3.84-1.56c-0.95-1.04-1.42-2.44-1.42-4.22c0-1.81,0.49-3.25,1.48-4.31
					c0.98-1.06,2.32-1.59,4-1.59c1.34,0,2.45,0.34,3.33,1.01c0.87,0.67,1.38,1.58,1.52,2.73h-2.32c-0.06-0.49-0.33-0.91-0.81-1.27
					c-0.48-0.36-1.01-0.55-1.6-0.55c-1,0-1.79,0.35-2.36,1.04c-0.57,0.7-0.85,1.66-0.85,2.9c0,1.26,0.27,2.22,0.82,2.87
					c0.55,0.65,1.34,0.98,2.39,0.98h-0.01c0.89,0,1.59-0.34,2.1-1.03c0.28-0.39,0.48-0.84,0.61-1.36v-0.03h-2.61v-1.9h4.64v5.97
					h-1.54l-0.23-1.43l-0.14,0.18C293.82,301.59,292.76,302.11,291.44,302.11L291.44,302.11z"/>
				<path class="st1" d="M298.49,301.81v-11.07h2.31v11.07H298.49z"/>
				<path class="st1" d="M308.97,294.06c-0.04-0.53-0.27-0.95-0.69-1.26c-0.42-0.31-0.97-0.46-1.64-0.46
					c-0.59,0-1.05,0.13-1.38,0.39c-0.33,0.26-0.5,0.62-0.5,1.08c0,0.33,0.17,0.59,0.52,0.77c0.34,0.18,1.07,0.39,2.17,0.64
					c1.62,0.36,2.7,0.77,3.24,1.25c0.54,0.47,0.81,1.22,0.81,2.25c0,1.04-0.41,1.86-1.23,2.48c-0.82,0.61-1.93,0.92-3.32,0.92
					c-1.4,0-2.5-0.33-3.29-0.97c-0.79-0.65-1.21-1.57-1.26-2.77h2.23c0.02,0.59,0.24,1.04,0.64,1.36c0.4,0.32,0.96,0.48,1.68,0.48
					c0.74,0,1.32-0.12,1.73-0.36c0.42-0.24,0.62-0.57,0.62-0.99c0-0.42-0.15-0.72-0.45-0.92c-0.29-0.2-0.91-0.4-1.87-0.61
					c-1.75-0.39-2.93-0.82-3.52-1.27c-0.59-0.45-0.88-1.15-0.88-2.11c0-1.07,0.39-1.93,1.17-2.56c0.78-0.63,1.83-0.95,3.16-0.95
					c1.24,0,2.25,0.33,3.03,0.98c0.78,0.65,1.21,1.54,1.29,2.65H308.97z"/>
				<path class="st1" d="M315.64,301.81v-9.11h-3.35v-1.97h9v1.97h-3.34v9.11H315.64z"/>
				<path class="st1" d="M322.48,301.81v-11.07h2.31v11.07H322.48z"/>
				<path class="st1" d="M336.34,297.93c-0.14,1.28-0.64,2.3-1.5,3.05c-0.86,0.75-1.96,1.13-3.29,1.13c-1.56,0-2.8-0.52-3.71-1.56
					c-0.92-1.04-1.38-2.44-1.38-4.22c0-1.81,0.46-3.25,1.38-4.31c0.92-1.06,2.16-1.59,3.71-1.59c1.31,0,2.4,0.36,3.26,1.07
					c0.87,0.71,1.37,1.68,1.52,2.89h-2.32c-0.07-0.59-0.33-1.07-0.77-1.42c-0.44-0.35-1-0.53-1.68-0.53c-0.86,0-1.53,0.34-2.02,1.03
					c-0.48,0.68-0.73,1.64-0.73,2.85c0,1.18,0.24,2.11,0.73,2.78c0.49,0.67,1.16,1,2.02,1c0.68,0,1.24-0.19,1.68-0.58
					c0.44-0.39,0.7-0.92,0.77-1.59H336.34z"/>
				<path class="st1" d="M344.1,294.06c-0.04-0.53-0.27-0.95-0.69-1.26c-0.42-0.31-0.97-0.46-1.64-0.46c-0.59,0-1.05,0.13-1.38,0.39
					c-0.33,0.26-0.5,0.62-0.5,1.08c0,0.33,0.17,0.59,0.52,0.77c0.34,0.18,1.07,0.39,2.17,0.64c1.62,0.36,2.7,0.77,3.24,1.25
					c0.54,0.47,0.81,1.22,0.81,2.25c0,1.04-0.41,1.86-1.23,2.48c-0.82,0.61-1.93,0.92-3.32,0.92c-1.4,0-2.5-0.33-3.29-0.97
					c-0.79-0.65-1.21-1.57-1.26-2.77h2.23c0.02,0.59,0.24,1.04,0.64,1.36c0.4,0.32,0.96,0.48,1.68,0.48c0.74,0,1.32-0.12,1.73-0.36
					c0.42-0.24,0.62-0.57,0.62-0.99c0-0.42-0.15-0.72-0.45-0.92c-0.29-0.2-0.91-0.4-1.87-0.61c-1.75-0.39-2.93-0.82-3.52-1.27
					c-0.59-0.45-0.88-1.15-0.88-2.11c0-1.07,0.39-1.93,1.17-2.56c0.78-0.63,1.83-0.95,3.16-0.95c1.24,0,2.25,0.33,3.03,0.98
					c0.78,0.65,1.21,1.54,1.29,2.65H344.1z"/>
				<path class="st1" d="M362.16,297.93c-0.14,1.28-0.64,2.3-1.5,3.05c-0.86,0.75-1.96,1.13-3.29,1.13c-1.56,0-2.8-0.52-3.71-1.56
					c-0.92-1.04-1.38-2.44-1.38-4.22c0-1.81,0.46-3.25,1.38-4.31c0.92-1.06,2.16-1.59,3.71-1.59c1.31,0,2.4,0.36,3.26,1.07
					c0.87,0.71,1.37,1.68,1.52,2.89h-2.32c-0.07-0.59-0.33-1.07-0.77-1.42c-0.44-0.35-1-0.53-1.68-0.53c-0.86,0-1.53,0.34-2.02,1.03
					c-0.48,0.68-0.73,1.64-0.73,2.85c0,1.18,0.24,2.11,0.73,2.78c0.49,0.67,1.16,1,2.02,1c0.68,0,1.24-0.19,1.68-0.58
					c0.44-0.39,0.7-0.92,0.77-1.59H362.16z"/>
				<path class="st1" d="M368.75,302.11c-1.63,0-2.92-0.52-3.88-1.56c-0.96-1.04-1.44-2.44-1.44-4.22c0-1.81,0.48-3.25,1.44-4.31
					c0.96-1.06,2.26-1.59,3.88-1.59c1.63,0,2.93,0.53,3.89,1.59c0.96,1.06,1.44,2.5,1.44,4.31c0,1.77-0.48,3.18-1.44,4.22
					C371.68,301.59,370.39,302.11,368.75,302.11z M368.75,300.15c0.94,0,1.68-0.34,2.21-1.01c0.53-0.68,0.8-1.61,0.8-2.81
					c0-1.23-0.27-2.19-0.8-2.88c-0.53-0.69-1.27-1.04-2.21-1.04s-1.68,0.35-2.21,1.04c-0.53,0.69-0.8,1.65-0.8,2.88
					c0,1.2,0.27,2.14,0.8,2.81C367.07,299.81,367.81,300.15,368.75,300.15z"/>
				<path class="st1" d="M377.18,301.85c-0.41,0-0.76-0.15-1.06-0.46c-0.28-0.31-0.42-0.66-0.42-1.07c0-0.42,0.14-0.77,0.42-1.06
					c0.29-0.31,0.65-0.46,1.06-0.46h0.02c0.41,0,0.76,0.15,1.06,0.46c0.28,0.29,0.42,0.65,0.42,1.06c0,0.41-0.14,0.77-0.42,1.07
					c-0.29,0.31-0.65,0.46-1.06,0.46H377.18z"/>
			</g>
		</g>
	</g>
	<g>
		<g>
			<polygon class="st1" points="25.67,230.75 43.28,131.8 39.04,131.8 21.33,231.3 25.58,231.3 			"/>
			<path class="st1" d="M193.17,223.55l-10.99-28.09c-4.4-10.99-6.94-17.96-8.77-23.59c-0.84,1.25-1.74,2.57-2.73,3.99
				c1.64,4.76,3.82,10.54,6.97,18.41l10.99,28.12c2.06,5.27,5.46,8.9,10.8,10.09C196.74,230.4,194.65,227.41,193.17,223.55z"/>
			<path class="st1" d="M102.09,232.48c-3.66-2.86-6.01-7.3-6.56-12.89l-9.67-87.45l-0.03-0.35h-4.27l9.67,87.45
				C91.97,226.8,96.31,231.17,102.09,232.48z"/>
			<path class="st1" d="M141.04,164.45l17.87-25c2.86-3.95,5.53-6.72,8.16-8.64c-4.37,1.09-8.26,3.86-13.08,10.51l-17.84,25
				c-3.54,4.88-6.46,9.03-8.93,12.66c0.13,1.7,0.26,3.31,0.35,4.88C130.99,178.72,135.1,172.65,141.04,164.45z"/>
			<path class="st1" d="M213.35,178.85c0.67,1.9,1.25,3.66,1.8,5.3c2.22-5.53,4.92-11.7,8.26-19.03l15.04-33.33h-3.99l-15.62,34.64
				C216.79,170.97,214.96,175.06,213.35,178.85z"/>
			<polygon class="st1" points="276.44,131.8 258.73,231.3 262.97,231.3 263.07,230.75 280.68,131.8 			"/>
			<polygon class="st0" points="52.12,231.3 53.76,231.3 55.37,231.3 59.61,231.3 77.19,131.8 72.91,131.8 71.27,131.8 69.67,131.8 
				46.53,131.8 28.82,231.3 			"/>
			<path class="st0" d="M268.21,131.8h-1.8h-1.77h-22.69l-15.62,34.64c-5.05,11.02-8.61,19.51-11.44,27.38
				c-1-3.18-2.06-6.49-3.41-10.51c-0.26-0.77-0.55-1.54-0.8-2.35c-0.26-0.74-0.51-1.48-0.77-2.28c-1.19-3.44-2.57-7.42-4.24-12.24
				l-8.9-25.13c-2.57-7.29-5.85-9.9-10.51-10.77c-1.06-0.19-2.19-0.32-3.37-0.35h-0.03c-0.61-0.03-1.22-0.03-1.86-0.03
				c-1.32,0-2.54,0.03-3.73,0.16c-5.56,0.61-9.99,3.02-15.75,10.99l-17.87,25c-9.35,12.92-14.27,20.66-18.74,27.51
				c-0.1-3.44-0.32-6.88-0.58-10.57c-0.06-0.84-0.13-1.67-0.19-2.54v-0.03c-0.06-0.84-0.13-1.67-0.22-2.54
				c-0.26-3.57-0.58-7.42-0.93-11.7l-3.28-34.64h-4.27h-1.61h-1.61H89.08l9.67,87.45c0.74,7.78,5.3,12.15,11.31,13.34
				c1.12,0.26,2.31,0.35,3.53,0.35c0.35,0,0.71,0,1.03-0.03h0.03c1.74-0.06,3.37-0.35,4.92-0.8c5.17-1.51,9.38-5.01,12.79-9.71
				l20.95-28.28c6.07-8.13,10.41-13.98,13.75-18.77c0.42-0.55,0.77-1.09,1.16-1.61c0.39-0.58,0.77-1.09,1.12-1.64
				c1.93-2.8,3.57-5.27,5.08-7.71c2.09,7.13,4.63,14.56,10.73,29.89l10.99,28.12c2.09,5.4,5.62,9.09,11.25,10.19
				c1.16,0.22,2.44,0.35,3.79,0.35c0.26,0,0.48,0,0.74-0.03c1.64-0.03,3.25-0.29,4.82-0.74c5.69-1.64,10.77-5.91,14.04-12.92
				l41.36-87.45H268.21z"/>
			<polygon class="st0" points="375.61,205.71 373.4,205.71 371.18,205.71 301.47,205.71 301.76,204.11 302.05,202.5 314.55,131.8 
				310.31,131.8 308.67,131.8 307.07,131.8 283.93,131.8 266.22,231.3 346.63,231.3 348.84,231.3 351.06,231.3 354.11,231.3 
				378.67,205.71 			"/>
			<polygon class="st1" points="306.04,116.05 165.47,124.24 314.55,124.24 			"/>
			<polygon class="st1" points="29.88,248.43 170.45,240.21 21.33,240.21 			"/>
			<polygon class="st0" points="288.4,97.89 288.4,113.41 303.71,112.6 			"/>
		</g>
	</g>
</g>
</svg>
