<?xml version="1.0" encoding="utf-8"?>
<!-- Generator: Adobe Illustrator 26.0.1, SVG Export Plug-In . SVG Version: 6.00 Build 0)  -->
<svg version="1.1" id="Layer_1" xmlns="http://www.w3.org/2000/svg" xmlns:xlink="http://www.w3.org/1999/xlink" x="0px" y="0px"
	 viewBox="0 0 350 350" style="enable-background:new 0 0 350 350;" xml:space="preserve">
<style type="text/css">
	.st0{fill:#29235C;}
	.st1{fill:#35A8E0;}
</style>
<g>
	<g>
		<g>
			<g>
				<path class="st0" d="M15.71,244.41c0,0.08,0,0.16,0,0.23s-0.01,0.14-0.01,0.2c-0.01,0.17-0.01,0.32-0.01,0.44
					c0,0.29,0.01,0.47,0.05,0.53c0.04,0.09,0.09,0.17,0.15,0.23c0.04,0.03,0.07,0.05,0.1,0.06c0.02,0.01,0.26,0.02,0.71,0.02h0.66
					v2.27h-1.35c-0.45,0-0.86-0.07-1.24-0.22c-0.38-0.15-0.61-0.26-0.7-0.35c-0.04,0.04-0.2,0.12-0.47,0.25
					c-0.56,0.28-1.16,0.42-1.8,0.42h-0.08c-0.28,0-0.57-0.03-0.85-0.09c-0.3-0.07-0.6-0.17-0.89-0.31c-0.3-0.15-0.58-0.35-0.85-0.58
					c-0.27-0.24-0.5-0.52-0.69-0.84c-0.2-0.32-0.35-0.68-0.47-1.08c-0.12-0.4-0.18-0.84-0.19-1.32c-0.01-0.26-0.01-0.51-0.01-0.75
					v-0.34c0.01-0.37,0.04-0.71,0.09-1.03c0.06-0.32,0.15-0.63,0.28-0.92c0.13-0.29,0.31-0.56,0.56-0.81
					c0.25-0.25,0.55-0.47,0.9-0.65c0.35-0.18,0.75-0.32,1.21-0.42c0.46-0.11,0.98-0.18,1.57-0.21c0.34-0.02,0.7-0.03,1.08-0.03
					c0.28,0,0.58,0.01,0.89,0.02l1.35,0.05V244.41z M9.02,236.73c0-0.2,0.04-0.38,0.11-0.56c0.08-0.17,0.18-0.32,0.3-0.45
					c0.13-0.13,0.27-0.23,0.44-0.3c0.17-0.07,0.34-0.11,0.53-0.11c0.19,0,0.36,0.04,0.53,0.11c0.17,0.07,0.32,0.17,0.45,0.3
					c0.13,0.13,0.23,0.28,0.3,0.45c0.07,0.17,0.11,0.36,0.11,0.56c0,0.2-0.04,0.38-0.11,0.55c-0.07,0.17-0.17,0.31-0.3,0.44
					c-0.13,0.13-0.28,0.23-0.45,0.3c-0.17,0.07-0.35,0.11-0.53,0.11c-0.19,0-0.36-0.04-0.53-0.11c-0.17-0.07-0.31-0.17-0.44-0.3
					c-0.13-0.13-0.23-0.27-0.3-0.44C9.05,237.11,9.02,236.93,9.02,236.73z M12.87,243.56v-2.2c-0.42,0.01-0.81,0.05-1.17,0.14
					c-0.36,0.08-0.61,0.19-0.73,0.32c-0.08,0.08-0.14,0.19-0.19,0.32c-0.05,0.14-0.09,0.31-0.11,0.51s-0.04,0.44-0.04,0.71
					c-0.01,0.09-0.01,0.18-0.01,0.27c0,0.19,0,0.39,0.01,0.61c0.01,0.29,0.03,0.54,0.09,0.76c0.05,0.22,0.12,0.41,0.2,0.56
					c0.08,0.16,0.18,0.29,0.28,0.39c0.1,0.1,0.2,0.18,0.3,0.23c0.11,0.05,0.2,0.07,0.27,0.07c0.09-0.01,0.19-0.03,0.31-0.08
					c0.18-0.1,0.34-0.26,0.49-0.49c0.15-0.23,0.24-0.54,0.28-0.93v-1.19H12.87z M12.07,236.73c0-0.2,0.04-0.38,0.12-0.56
					c0.08-0.17,0.18-0.32,0.31-0.45c0.13-0.13,0.27-0.23,0.44-0.3c0.17-0.07,0.35-0.11,0.55-0.11c0.18,0,0.35,0.04,0.52,0.11
					c0.17,0.07,0.31,0.17,0.43,0.3c0.12,0.13,0.22,0.28,0.29,0.45c0.07,0.17,0.11,0.36,0.11,0.56c0,0.2-0.04,0.38-0.11,0.55
					c-0.07,0.17-0.17,0.31-0.29,0.44c-0.12,0.13-0.27,0.23-0.43,0.3c-0.17,0.07-0.34,0.11-0.52,0.11c-0.2,0-0.38-0.04-0.55-0.11
					c-0.17-0.07-0.32-0.17-0.44-0.3c-0.13-0.13-0.23-0.27-0.31-0.44C12.11,237.11,12.07,236.93,12.07,236.73z"/>
				<path class="st0" d="M22.07,239.84v5.68c0,0.09,0,0.14-0.01,0.16c0.01,0.04,0.03,0.09,0.06,0.16c0.04,0.07,0.08,0.14,0.14,0.2
					c0.06,0.05,0.1,0.08,0.12,0.08h1.95v2.27h-1.94c-0.39,0-0.76-0.06-1.09-0.17c-0.34-0.11-0.55-0.2-0.65-0.27
					c-0.08,0.07-0.3,0.16-0.64,0.27s-0.71,0.17-1.1,0.17h-2.09v-2.27h2.1c0.02,0,0.06-0.03,0.12-0.08c0.11-0.11,0.17-0.25,0.19-0.42
					v-5.79H22.07z M17.49,250.84c0-0.2,0.04-0.38,0.11-0.56c0.08-0.17,0.18-0.32,0.3-0.45s0.27-0.23,0.44-0.3
					c0.17-0.07,0.34-0.11,0.53-0.11c0.19,0,0.36,0.04,0.53,0.11c0.17,0.07,0.32,0.17,0.45,0.3c0.13,0.13,0.23,0.28,0.3,0.45
					c0.07,0.17,0.11,0.36,0.11,0.56c0,0.2-0.04,0.38-0.11,0.55c-0.07,0.17-0.17,0.31-0.3,0.44c-0.13,0.13-0.28,0.23-0.45,0.3
					c-0.17,0.07-0.35,0.11-0.53,0.11c-0.19,0-0.36-0.04-0.53-0.11c-0.17-0.07-0.31-0.17-0.44-0.3c-0.13-0.13-0.23-0.27-0.3-0.44
					C17.53,251.22,17.49,251.03,17.49,250.84z M20.55,250.84c0-0.2,0.04-0.38,0.12-0.56c0.08-0.17,0.18-0.32,0.31-0.45
					c0.13-0.13,0.27-0.23,0.44-0.3c0.17-0.07,0.35-0.11,0.55-0.11c0.18,0,0.35,0.04,0.52,0.11c0.17,0.07,0.31,0.17,0.43,0.3
					c0.12,0.13,0.22,0.28,0.29,0.45c0.07,0.17,0.11,0.36,0.11,0.56c0,0.2-0.04,0.38-0.11,0.55c-0.07,0.17-0.17,0.31-0.29,0.44
					c-0.12,0.13-0.27,0.23-0.43,0.3c-0.17,0.07-0.34,0.11-0.52,0.11c-0.2,0-0.38-0.04-0.55-0.11c-0.17-0.07-0.32-0.17-0.44-0.3
					c-0.13-0.13-0.23-0.27-0.31-0.44C20.59,251.22,20.55,251.03,20.55,250.84z"/>
				<path class="st0" d="M29.03,239.84v5.68c0,0.09,0,0.14-0.01,0.16c0.01,0.04,0.03,0.09,0.06,0.16c0.04,0.07,0.08,0.14,0.14,0.2
					c0.06,0.05,0.1,0.08,0.12,0.08h1.95v2.27h-1.94c-0.39,0-0.76-0.06-1.09-0.17c-0.34-0.11-0.55-0.2-0.65-0.27
					c-0.08,0.07-0.3,0.16-0.64,0.27s-0.71,0.17-1.1,0.17h-2.09v-2.27h2.1c0.02,0,0.06-0.03,0.12-0.08c0.11-0.11,0.17-0.25,0.19-0.42
					v-5.79H29.03z M24.68,236.91c0-0.2,0.04-0.38,0.11-0.56c0.08-0.17,0.18-0.32,0.3-0.45c0.13-0.13,0.27-0.23,0.44-0.3
					c0.17-0.07,0.34-0.11,0.53-0.11c0.19,0,0.36,0.04,0.53,0.11c0.17,0.07,0.32,0.17,0.45,0.3c0.13,0.13,0.23,0.28,0.3,0.45
					c0.07,0.17,0.11,0.36,0.11,0.56c0,0.2-0.04,0.38-0.11,0.55c-0.07,0.17-0.17,0.31-0.3,0.44c-0.13,0.13-0.28,0.23-0.45,0.3
					c-0.17,0.07-0.35,0.11-0.53,0.11c-0.19,0-0.36-0.04-0.53-0.11c-0.17-0.07-0.31-0.17-0.44-0.3c-0.13-0.13-0.23-0.27-0.3-0.44
					C24.71,237.29,24.68,237.11,24.68,236.91z M27.73,236.91c0-0.2,0.04-0.38,0.12-0.56c0.08-0.17,0.18-0.32,0.31-0.45
					c0.13-0.13,0.27-0.23,0.44-0.3c0.17-0.07,0.35-0.11,0.55-0.11c0.18,0,0.35,0.04,0.52,0.11c0.17,0.07,0.31,0.17,0.43,0.3
					c0.12,0.13,0.22,0.28,0.29,0.45c0.07,0.17,0.11,0.36,0.11,0.56c0,0.2-0.04,0.38-0.11,0.55c-0.07,0.17-0.17,0.31-0.29,0.44
					c-0.12,0.13-0.27,0.23-0.43,0.3c-0.17,0.07-0.34,0.11-0.52,0.11c-0.2,0-0.38-0.04-0.55-0.11c-0.17-0.07-0.32-0.17-0.44-0.3
					c-0.13-0.13-0.23-0.27-0.31-0.44C27.77,237.29,27.73,237.11,27.73,236.91z"/>
				<path class="st0" d="M44.02,245.64c0.01,0.16,0.08,0.29,0.19,0.4c0.06,0.06,0.1,0.09,0.12,0.09h1.45v2.27h-1.44
					c-0.39,0-0.76-0.06-1.1-0.17c-0.34-0.11-0.55-0.2-0.64-0.27c-0.1,0.07-0.31,0.16-0.65,0.27c-0.34,0.11-0.7,0.17-1.09,0.17h-0.83
					c-0.39,0-0.76-0.06-1.1-0.17c-0.34-0.11-0.55-0.2-0.64-0.27c-0.1,0.07-0.31,0.16-0.65,0.27s-0.7,0.17-1.09,0.17h-0.88
					c-0.39,0-0.76-0.06-1.09-0.17c-0.34-0.11-0.55-0.2-0.65-0.27c-0.08,0.07-0.3,0.16-0.64,0.27c-0.34,0.11-0.71,0.17-1.1,0.17
					h-1.44v-2.27h1.45c0.02,0,0.06-0.03,0.12-0.08c0.11-0.11,0.17-0.25,0.19-0.42v-5.79h2.85v5.68c0,0.09,0,0.14-0.01,0.16
					c0.01,0.04,0.03,0.09,0.06,0.16c0.04,0.07,0.08,0.14,0.14,0.2c0.06,0.05,0.1,0.08,0.12,0.08h0.89c0.02,0,0.06-0.03,0.12-0.08
					c0.05-0.06,0.1-0.13,0.14-0.2c0.04-0.07,0.06-0.13,0.06-0.16c-0.01-0.02-0.01-0.07-0.01-0.16v-5.68h2.85v5.8
					c0.01,0.16,0.08,0.29,0.19,0.4c0.06,0.06,0.1,0.09,0.12,0.09h0.85c0.02,0,0.06-0.03,0.12-0.08c0.05-0.06,0.1-0.13,0.14-0.2
					c0.04-0.07,0.06-0.13,0.06-0.16c-0.01-0.02-0.01-0.07-0.01-0.16v-5.68h2.85V245.64z"/>
				<path class="st0" d="M46.23,239.39c1-0.22,1.77-0.33,2.3-0.33c0.09,0,0.18,0,0.26,0.01c0.61,0.02,1.16,0.13,1.65,0.32
					c0.49,0.19,0.93,0.45,1.31,0.79c0.38,0.34,0.71,0.73,0.99,1.18c0.23,0.37,0.43,0.78,0.59,1.22c0.17,0.44,0.31,0.91,0.43,1.4
					c0.12,0.49,0.23,1,0.32,1.53c0.09,0.53,0.18,1.07,0.27,1.64v0.1c0,0.12-0.02,0.24-0.07,0.37c-0.07,0.16-0.17,0.3-0.29,0.4
					s-0.26,0.19-0.42,0.25c-0.16,0.07-0.31,0.1-0.47,0.11c-0.03,0.01-0.08,0.01-0.16,0.01h-7.7v-2.27h6.08
					c-0.01-0.08-0.06-0.33-0.14-0.75c-0.08-0.41-0.17-0.8-0.26-1.17c-0.1-0.37-0.2-0.7-0.32-1.01c-0.12-0.31-0.25-0.58-0.4-0.83
					c-0.13-0.2-0.28-0.38-0.44-0.53c-0.16-0.15-0.34-0.26-0.55-0.34c-0.21-0.08-0.44-0.13-0.7-0.14h-0.14
					c-0.25,0-0.66,0.06-1.21,0.17L46.23,239.39z M48.25,251.08c0-0.2,0.04-0.38,0.12-0.56c0.08-0.17,0.18-0.32,0.31-0.45
					c0.13-0.13,0.27-0.23,0.44-0.3c0.17-0.07,0.35-0.11,0.55-0.11c0.18,0,0.35,0.04,0.52,0.11c0.17,0.07,0.31,0.17,0.43,0.3
					c0.12,0.13,0.22,0.28,0.29,0.45c0.07,0.17,0.11,0.36,0.11,0.56c0,0.2-0.04,0.38-0.11,0.55c-0.07,0.17-0.17,0.31-0.29,0.44
					c-0.12,0.13-0.27,0.23-0.43,0.3c-0.17,0.07-0.34,0.11-0.52,0.11c-0.2,0-0.38-0.04-0.55-0.11c-0.17-0.07-0.32-0.17-0.44-0.3
					c-0.13-0.13-0.23-0.27-0.31-0.44C48.28,251.46,48.25,251.28,48.25,251.08z"/>
				<path class="st0" d="M65.37,248.4h-1.31c-0.01,0.25-0.08,0.58-0.2,0.99c-0.12,0.41-0.29,0.78-0.49,1.11
					c-0.2,0.33-0.44,0.61-0.72,0.84c-0.28,0.23-0.58,0.43-0.89,0.58c-0.33,0.16-0.66,0.28-1,0.36c-0.34,0.08-0.69,0.15-1.05,0.19
					c-0.36,0.04-0.72,0.06-1.08,0.07c-0.36,0.01-0.88,0.01-1.54,0.01v-2.26c0.59,0,1.02,0,1.28,0c0.27,0,0.52-0.02,0.76-0.04
					c0.24-0.02,0.46-0.06,0.65-0.09c0.19-0.04,0.36-0.09,0.5-0.16c0.12-0.06,0.23-0.14,0.34-0.24c0.11-0.1,0.2-0.23,0.29-0.38
					c0.09-0.16,0.16-0.35,0.22-0.59s0.09-0.36,0.09-0.37c-0.27,0-0.63-0.03-1.1-0.08c-0.47-0.05-0.89-0.13-1.26-0.23
					s-0.71-0.24-1-0.4c-0.3-0.17-0.55-0.36-0.77-0.58c-0.24-0.25-0.43-0.52-0.56-0.81c-0.13-0.29-0.22-0.6-0.28-0.92
					c-0.06-0.32-0.09-0.67-0.09-1.04v-1.08c0.01-0.48,0.07-0.92,0.19-1.33c0.12-0.4,0.27-0.77,0.47-1.09
					c0.2-0.32,0.43-0.6,0.69-0.84c0.27-0.24,0.55-0.43,0.85-0.58c0.54-0.27,1.12-0.4,1.74-0.4h0.08c0.64,0,1.24,0.14,1.81,0.42
					c0.29,0.15,0.56,0.34,0.83,0.57c0.26,0.23,0.49,0.5,0.67,0.81c0.19,0.31,0.33,0.66,0.44,1.04c0.11,0.38,0.16,0.8,0.16,1.24v3.02
					h1.28V248.4z M61.24,243.11c0-0.49-0.08-0.88-0.24-1.17c-0.16-0.29-0.35-0.48-0.56-0.59c-0.11-0.05-0.21-0.08-0.3-0.08
					c-0.07,0-0.16,0.02-0.27,0.07c-0.22,0.11-0.42,0.33-0.59,0.63c-0.17,0.31-0.26,0.74-0.28,1.31c-0.01,0.22-0.01,0.42-0.01,0.61
					c0,0.09,0,0.18,0.01,0.27c0,0.27,0.01,0.51,0.04,0.71c0.03,0.2,0.06,0.38,0.11,0.51c0.05,0.14,0.11,0.24,0.19,0.32
					c0.13,0.13,0.37,0.24,0.73,0.32c0.36,0.08,0.75,0.12,1.17,0.13V243.11z"/>
				<path class="st0" d="M69.64,236.29v9.23c0,0.09,0,0.14-0.01,0.16c0.01,0.04,0.03,0.09,0.06,0.16c0.04,0.07,0.08,0.14,0.14,0.2
					c0.06,0.05,0.1,0.08,0.12,0.08h1.76v2.27h-1.75c-0.39,0-0.76-0.06-1.09-0.17c-0.34-0.11-0.55-0.2-0.65-0.27
					c-0.08,0.07-0.3,0.16-0.64,0.27c-0.34,0.11-0.71,0.17-1.1,0.17h-1.64v-2.27h1.65c0.02,0,0.06-0.03,0.12-0.08
					c0.11-0.11,0.17-0.25,0.19-0.42v-9.34H69.64z"/>
				<path class="st0" d="M76.21,236.31v9.21c0,0.38-0.07,0.73-0.22,1.07c-0.15,0.33-0.34,0.62-0.59,0.87
					c-0.29,0.3-0.63,0.53-1.03,0.69c-0.4,0.17-0.84,0.25-1.31,0.25h-1.89v-2.27h1.9c0.01,0,0.05-0.03,0.11-0.08
					c0.06-0.06,0.11-0.13,0.14-0.22c0.04-0.09,0.05-0.19,0.05-0.3v-9.21H76.21z"/>
				<path class="st0" d="M80.85,236.31v11.98h-2.84v-11.98H80.85z"/>
				<path class="st0" d="M90.1,241.73v3.8c0,0.11,0.02,0.22,0.05,0.3c0.04,0.09,0.08,0.16,0.14,0.22c0.06,0.05,0.1,0.08,0.12,0.08
					h5.83c0.01,0,0.05-0.03,0.11-0.08c0.06-0.06,0.11-0.13,0.14-0.22c0.04-0.09,0.05-0.19,0.05-0.3v-5.67h2.84v5.67
					c0,0.38-0.07,0.73-0.22,1.07c-0.15,0.33-0.34,0.62-0.59,0.87c-0.29,0.3-0.63,0.53-1.03,0.69c-0.4,0.17-0.84,0.25-1.31,0.25
					h-5.81c-0.48,0-0.91-0.08-1.31-0.25c-0.4-0.17-0.75-0.4-1.03-0.69c-0.25-0.25-0.44-0.54-0.59-0.87
					c-0.15-0.33-0.22-0.54-0.22-0.61h-0.01v-4.25H90.1z M90.18,238.07c0-0.2,0.04-0.38,0.11-0.56c0.08-0.17,0.18-0.32,0.3-0.45
					c0.13-0.13,0.27-0.23,0.44-0.3c0.17-0.07,0.34-0.11,0.53-0.11c0.19,0,0.36,0.04,0.53,0.11c0.17,0.07,0.32,0.17,0.45,0.3
					c0.13,0.13,0.23,0.28,0.3,0.45s0.11,0.36,0.11,0.56s-0.04,0.38-0.11,0.55s-0.17,0.31-0.3,0.44c-0.13,0.13-0.28,0.23-0.45,0.3
					c-0.17,0.07-0.35,0.11-0.53,0.11c-0.19,0-0.36-0.04-0.53-0.11c-0.17-0.07-0.31-0.17-0.44-0.3c-0.13-0.13-0.23-0.27-0.3-0.44
					C90.22,238.46,90.18,238.27,90.18,238.07z M93.23,238.07c0-0.2,0.04-0.38,0.12-0.56c0.08-0.17,0.18-0.32,0.31-0.45
					c0.13-0.13,0.27-0.23,0.44-0.3c0.17-0.07,0.35-0.11,0.55-0.11c0.18,0,0.35,0.04,0.52,0.11c0.17,0.07,0.31,0.17,0.43,0.3
					c0.12,0.13,0.22,0.28,0.29,0.45c0.07,0.17,0.11,0.36,0.11,0.56s-0.04,0.38-0.11,0.55c-0.07,0.17-0.17,0.31-0.29,0.44
					c-0.12,0.13-0.27,0.23-0.43,0.3c-0.17,0.07-0.34,0.11-0.52,0.11c-0.2,0-0.38-0.04-0.55-0.11c-0.17-0.07-0.32-0.17-0.44-0.3
					c-0.13-0.13-0.23-0.27-0.31-0.44C93.27,238.46,93.23,238.27,93.23,238.07z"/>
				<path class="st0" d="M104.03,236.31v9.21c0,0.11,0.02,0.22,0.05,0.3c0.04,0.09,0.08,0.16,0.14,0.21
					c0.07,0.06,0.1,0.09,0.11,0.09h1.74v2.27h-1.73c-0.46,0-0.9-0.08-1.3-0.25c-0.4-0.17-0.75-0.4-1.04-0.69
					c-0.25-0.25-0.44-0.54-0.59-0.87c-0.15-0.33-0.22-0.69-0.22-1.07v-9.21H104.03z"/>
				<path class="st0" d="M106.6,246.13v-3.02c0-0.45,0.05-0.86,0.16-1.24c0.11-0.38,0.26-0.73,0.44-1.04
					c0.19-0.31,0.41-0.58,0.67-0.81c0.26-0.23,0.54-0.42,0.84-0.57c0.28-0.14,0.58-0.24,0.88-0.32c0.3-0.07,0.61-0.11,0.93-0.11
					h0.08c0.28,0,0.57,0.03,0.85,0.09c0.3,0.07,0.6,0.17,0.89,0.31c0.3,0.15,0.58,0.34,0.85,0.58c0.26,0.24,0.5,0.52,0.69,0.84
					c0.2,0.32,0.35,0.68,0.47,1.08c0.11,0.4,0.18,0.84,0.19,1.32v0.02l0.01,3.09c0,0.43-0.09,0.82-0.27,1.18
					c-0.1,0.18-0.21,0.35-0.34,0.52c-0.13,0.17-0.28,0.32-0.47,0.46c-0.4,0.34-0.86,0.56-1.37,0.65c-0.22,0.04-0.44,0.06-0.66,0.06
					c-0.28,0-0.55-0.03-0.81-0.09h-0.04l-2.79-0.74h-2.26v-2.27H106.6z M109.45,246.45l1.5,0.4c0.15,0.05,0.28,0.08,0.38,0.08
					c0.01,0,0.03,0,0.05-0.01c0.08-0.01,0.15-0.03,0.19-0.06c0.04-0.03,0.07-0.09,0.1-0.19c0.03-0.09,0.04-0.2,0.04-0.33l-0.01-3.07
					c-0.01-0.29-0.03-0.54-0.09-0.76c-0.05-0.22-0.12-0.41-0.2-0.57c-0.08-0.16-0.18-0.29-0.28-0.39c-0.1-0.1-0.2-0.18-0.3-0.23
					c-0.11-0.05-0.2-0.07-0.27-0.07c-0.1,0.01-0.2,0.03-0.32,0.08c-0.21,0.11-0.39,0.31-0.55,0.59c-0.16,0.29-0.23,0.68-0.23,1.17
					V246.45z"/>
				<path class="st0" d="M117.98,239h0.37c0.17,0.01,0.38,0.02,0.63,0.04c0.25,0.02,0.53,0.06,0.83,0.14
					c0.3,0.07,0.61,0.18,0.94,0.33c0.33,0.14,0.64,0.35,0.95,0.6c0.3,0.26,0.59,0.57,0.85,0.95c0.26,0.38,0.48,0.83,0.66,1.36
					c0.17,0.53,0.3,1.15,0.37,1.84c0.04,0.34,0.05,0.71,0.05,1.11c0,0.39-0.01,0.65-0.02,0.77h1.35v2.27h-8.61v-2.27h4.44
					c0.01-0.15,0.02-0.41,0.02-0.77c0-0.4-0.02-0.76-0.05-1.08c-0.06-0.6-0.16-1.09-0.3-1.46c-0.14-0.37-0.3-0.66-0.49-0.85
					c-0.19-0.2-0.4-0.34-0.63-0.44c-0.23-0.1-0.48-0.17-0.76-0.21c-0.28-0.04-0.76-0.09-1.45-0.15L117.98,239z"/>
				<path class="st0" d="M125.65,239.39c1-0.22,1.77-0.33,2.3-0.33c0.09,0,0.18,0,0.26,0.01c0.61,0.02,1.16,0.13,1.65,0.32
					c0.49,0.19,0.93,0.45,1.31,0.79c0.38,0.34,0.71,0.73,0.99,1.18c0.21,0.34,0.39,0.71,0.55,1.11c0.15,0.39,0.29,0.81,0.41,1.25
					c0.12,0.44,0.22,0.89,0.3,1.36c0.08,0.47,0.15,0.82,0.19,1.05h1.32v2.27h-10.5v-2.27h6.31c-0.01-0.08-0.06-0.33-0.14-0.75
					c-0.08-0.41-0.17-0.8-0.26-1.17c-0.1-0.37-0.2-0.7-0.32-1.01c-0.12-0.31-0.25-0.58-0.4-0.83c-0.13-0.2-0.28-0.38-0.44-0.53
					c-0.16-0.15-0.34-0.26-0.55-0.34c-0.21-0.08-0.44-0.13-0.7-0.14h-0.14c-0.25,0-0.66,0.06-1.21,0.17L125.65,239.39z
					 M127.12,236.9c0-0.2,0.04-0.38,0.12-0.56c0.08-0.17,0.18-0.32,0.31-0.45c0.13-0.13,0.27-0.23,0.44-0.3
					c0.17-0.07,0.35-0.11,0.55-0.11c0.18,0,0.35,0.04,0.52,0.11c0.17,0.07,0.31,0.17,0.43,0.3c0.12,0.13,0.22,0.28,0.29,0.45
					c0.07,0.17,0.11,0.36,0.11,0.56s-0.04,0.38-0.11,0.55c-0.07,0.17-0.17,0.31-0.29,0.44c-0.12,0.13-0.27,0.23-0.43,0.3
					c-0.17,0.07-0.34,0.11-0.52,0.11c-0.2,0-0.38-0.04-0.55-0.11c-0.17-0.07-0.32-0.17-0.44-0.3c-0.13-0.13-0.23-0.27-0.31-0.44
					C127.16,237.28,127.12,237.1,127.12,236.9z"/>
				<path class="st0" d="M139.19,236.29v9.23c0,0.09,0,0.14-0.01,0.16c0.01,0.04,0.03,0.09,0.06,0.16c0.04,0.07,0.08,0.14,0.14,0.2
					c0.06,0.05,0.1,0.08,0.12,0.08h1.76v2.27h-1.75c-0.39,0-0.76-0.06-1.09-0.17c-0.34-0.11-0.55-0.2-0.65-0.27
					c-0.08,0.07-0.3,0.16-0.64,0.27c-0.34,0.11-0.71,0.17-1.1,0.17h-1.64v-2.27h1.65c0.02,0,0.06-0.03,0.12-0.08
					c0.11-0.11,0.17-0.25,0.19-0.42v-9.34H139.19z"/>
				<path class="st0" d="M145.76,236.31v9.21c0,0.38-0.07,0.73-0.22,1.07c-0.15,0.33-0.34,0.62-0.59,0.87
					c-0.29,0.3-0.63,0.53-1.03,0.69c-0.4,0.17-0.84,0.25-1.31,0.25h-1.89v-2.27h1.9c0.01,0,0.05-0.03,0.11-0.08
					c0.06-0.06,0.11-0.13,0.14-0.22c0.04-0.09,0.05-0.19,0.05-0.3v-9.21H145.76z"/>
				<path class="st0" d="M160.09,244.41c0,0.08,0,0.16,0,0.23c0,0.08-0.01,0.14-0.01,0.2c-0.01,0.17-0.01,0.32-0.01,0.44
					c0,0.29,0.01,0.47,0.05,0.53c0.04,0.09,0.09,0.17,0.15,0.23c0.04,0.03,0.07,0.05,0.1,0.06c0.02,0.01,0.26,0.02,0.71,0.02h0.66
					v2.27h-1.35c-0.45,0-0.86-0.07-1.24-0.22c-0.38-0.15-0.61-0.26-0.7-0.35c-0.04,0.04-0.2,0.12-0.47,0.25
					c-0.56,0.28-1.16,0.42-1.8,0.42h-0.08c-0.28,0-0.57-0.03-0.85-0.09c-0.3-0.07-0.6-0.17-0.89-0.31c-0.3-0.15-0.58-0.35-0.85-0.58
					c-0.27-0.24-0.5-0.52-0.69-0.84c-0.2-0.32-0.35-0.68-0.47-1.08c-0.12-0.4-0.18-0.84-0.19-1.32c-0.01-0.26-0.01-0.51-0.01-0.75
					v-0.34c0.01-0.37,0.04-0.71,0.09-1.03c0.06-0.32,0.15-0.63,0.28-0.92c0.13-0.29,0.31-0.56,0.56-0.81
					c0.25-0.25,0.55-0.47,0.9-0.65c0.35-0.18,0.75-0.32,1.21-0.42c0.46-0.11,0.98-0.18,1.57-0.21c0.34-0.02,0.7-0.03,1.08-0.03
					c0.28,0,0.58,0.01,0.89,0.02l1.35,0.05V244.41z M153.39,236.73c0-0.2,0.04-0.38,0.11-0.56c0.08-0.17,0.18-0.32,0.3-0.45
					c0.13-0.13,0.27-0.23,0.44-0.3c0.17-0.07,0.34-0.11,0.53-0.11c0.19,0,0.36,0.04,0.53,0.11c0.17,0.07,0.32,0.17,0.45,0.3
					c0.13,0.13,0.23,0.28,0.3,0.45c0.07,0.17,0.11,0.36,0.11,0.56c0,0.2-0.04,0.38-0.11,0.55c-0.07,0.17-0.17,0.31-0.3,0.44
					c-0.13,0.13-0.28,0.23-0.45,0.3c-0.17,0.07-0.35,0.11-0.53,0.11c-0.19,0-0.36-0.04-0.53-0.11c-0.17-0.07-0.31-0.17-0.44-0.3
					c-0.13-0.13-0.23-0.27-0.3-0.44C153.43,237.11,153.39,236.93,153.39,236.73z M157.24,243.56v-2.2
					c-0.42,0.01-0.81,0.05-1.17,0.14c-0.36,0.08-0.61,0.19-0.73,0.32c-0.08,0.08-0.14,0.19-0.19,0.32
					c-0.05,0.14-0.09,0.31-0.11,0.51c-0.03,0.2-0.04,0.44-0.04,0.71c-0.01,0.09-0.01,0.18-0.01,0.27c0,0.19,0,0.39,0.01,0.61
					c0.01,0.29,0.03,0.54,0.09,0.76c0.05,0.22,0.12,0.41,0.2,0.56c0.08,0.16,0.18,0.29,0.28,0.39c0.1,0.1,0.2,0.18,0.3,0.23
					c0.11,0.05,0.2,0.07,0.27,0.07c0.09-0.01,0.19-0.03,0.31-0.08c0.18-0.1,0.34-0.26,0.49-0.49c0.15-0.23,0.24-0.54,0.28-0.93
					v-1.19H157.24z M156.45,236.73c0-0.2,0.04-0.38,0.12-0.56c0.08-0.17,0.18-0.32,0.31-0.45c0.13-0.13,0.27-0.23,0.44-0.3
					c0.17-0.07,0.35-0.11,0.55-0.11c0.18,0,0.35,0.04,0.52,0.11c0.17,0.07,0.31,0.17,0.43,0.3c0.12,0.13,0.22,0.28,0.29,0.45
					c0.07,0.17,0.11,0.36,0.11,0.56c0,0.2-0.04,0.38-0.11,0.55c-0.07,0.17-0.17,0.31-0.29,0.44c-0.12,0.13-0.27,0.23-0.43,0.3
					c-0.17,0.07-0.34,0.11-0.52,0.11c-0.2,0-0.38-0.04-0.55-0.11c-0.17-0.07-0.32-0.17-0.44-0.3c-0.13-0.13-0.23-0.27-0.31-0.44
					C156.49,237.11,156.45,236.93,156.45,236.73z"/>
				<path class="st0" d="M166.44,239.84v5.68c0,0.09,0,0.14-0.01,0.16c0.01,0.04,0.03,0.09,0.06,0.16c0.04,0.07,0.08,0.14,0.14,0.2
					c0.06,0.05,0.1,0.08,0.12,0.08h1.95v2.27h-1.94c-0.39,0-0.76-0.06-1.09-0.17c-0.34-0.11-0.55-0.2-0.65-0.27
					c-0.08,0.07-0.3,0.16-0.64,0.27c-0.34,0.11-0.71,0.17-1.1,0.17h-2.09v-2.27h2.1c0.02,0,0.06-0.03,0.12-0.08
					c0.11-0.11,0.17-0.25,0.19-0.42v-5.79H166.44z M161.87,250.84c0-0.2,0.04-0.38,0.11-0.56c0.08-0.17,0.18-0.32,0.3-0.45
					s0.27-0.23,0.44-0.3c0.17-0.07,0.34-0.11,0.53-0.11c0.19,0,0.36,0.04,0.53,0.11c0.17,0.07,0.32,0.17,0.45,0.3
					c0.13,0.13,0.23,0.28,0.3,0.45c0.07,0.17,0.11,0.36,0.11,0.56c0,0.2-0.04,0.38-0.11,0.55s-0.17,0.31-0.3,0.44
					c-0.13,0.13-0.28,0.23-0.45,0.3c-0.17,0.07-0.35,0.11-0.53,0.11c-0.19,0-0.36-0.04-0.53-0.11c-0.17-0.07-0.31-0.17-0.44-0.3
					c-0.13-0.13-0.23-0.27-0.3-0.44C161.91,251.22,161.87,251.03,161.87,250.84z M164.92,250.84c0-0.2,0.04-0.38,0.12-0.56
					c0.08-0.17,0.18-0.32,0.31-0.45c0.13-0.13,0.27-0.23,0.44-0.3c0.17-0.07,0.35-0.11,0.55-0.11c0.18,0,0.35,0.04,0.52,0.11
					c0.17,0.07,0.31,0.17,0.43,0.3c0.12,0.13,0.22,0.28,0.29,0.45c0.07,0.17,0.11,0.36,0.11,0.56c0,0.2-0.04,0.38-0.11,0.55
					s-0.17,0.31-0.29,0.44c-0.12,0.13-0.27,0.23-0.43,0.3c-0.17,0.07-0.34,0.11-0.52,0.11c-0.2,0-0.38-0.04-0.55-0.11
					c-0.17-0.07-0.32-0.17-0.44-0.3c-0.13-0.13-0.23-0.27-0.31-0.44C164.96,251.22,164.92,251.03,164.92,250.84z"/>
				<path class="st0" d="M173.2,236.31v9.21c0,0.38-0.07,0.73-0.22,1.07c-0.15,0.33-0.34,0.62-0.59,0.87
					c-0.29,0.3-0.63,0.53-1.03,0.69c-0.4,0.17-0.84,0.25-1.31,0.25h-1.89v-2.27h1.9c0.01,0,0.05-0.03,0.11-0.08
					c0.06-0.06,0.11-0.13,0.14-0.22c0.04-0.09,0.05-0.19,0.05-0.3v-9.21H173.2z"/>
				<path class="st0" d="M182.72,249.36c-0.12,0.42-0.28,0.8-0.49,1.13c-0.2,0.33-0.44,0.61-0.72,0.84
					c-0.27,0.23-0.57,0.43-0.9,0.59c-0.33,0.16-0.66,0.28-1,0.36c-0.34,0.08-0.69,0.15-1.05,0.19c-0.36,0.04-0.72,0.06-1.08,0.07
					c-0.36,0.01-0.88,0.01-1.54,0.01v-2.26c0.59,0,1.02,0,1.28,0c0.26,0,0.52-0.02,0.76-0.04c0.24-0.02,0.46-0.06,0.65-0.09
					c0.19-0.04,0.36-0.09,0.5-0.16c0.12-0.06,0.23-0.14,0.34-0.24c0.11-0.1,0.2-0.23,0.29-0.38c0.09-0.16,0.16-0.35,0.22-0.59
					c0.06-0.23,0.09-0.36,0.09-0.37c-0.27,0-0.63-0.03-1.1-0.08c-0.47-0.05-0.89-0.13-1.26-0.23c-0.37-0.1-0.71-0.24-1-0.4
					c-0.3-0.17-0.55-0.36-0.77-0.58c-0.24-0.25-0.43-0.52-0.56-0.81c-0.13-0.29-0.22-0.6-0.28-0.92c-0.06-0.32-0.09-0.67-0.09-1.04
					v-1.08c0.01-0.48,0.07-0.92,0.19-1.33c0.12-0.4,0.27-0.77,0.47-1.09c0.2-0.32,0.43-0.6,0.69-0.84c0.26-0.24,0.55-0.43,0.85-0.58
					c0.54-0.27,1.12-0.4,1.74-0.4h0.08c0.64,0,1.24,0.14,1.81,0.42c0.29,0.15,0.56,0.34,0.83,0.57c0.26,0.23,0.49,0.5,0.67,0.81
					c0.19,0.31,0.33,0.66,0.44,1.04c0.11,0.38,0.16,0.8,0.16,1.24v4.18C182.91,248.25,182.84,248.94,182.72,249.36z M180.1,243.11
					c0-0.49-0.08-0.88-0.24-1.17c-0.16-0.29-0.35-0.48-0.56-0.59c-0.11-0.05-0.21-0.08-0.3-0.08c-0.07,0-0.16,0.02-0.27,0.07
					c-0.22,0.11-0.42,0.33-0.59,0.63c-0.17,0.31-0.26,0.74-0.28,1.31c-0.01,0.22-0.01,0.42-0.01,0.61c0,0.09,0,0.18,0.01,0.27
					c0,0.27,0.01,0.51,0.04,0.71c0.03,0.2,0.06,0.38,0.11,0.51c0.05,0.14,0.11,0.24,0.19,0.32c0.13,0.13,0.37,0.24,0.73,0.32
					c0.36,0.08,0.75,0.12,1.17,0.13V243.11z"/>
				<path class="st0" d="M186.39,239h0.37c0.17,0.01,0.38,0.02,0.63,0.04c0.25,0.02,0.53,0.06,0.83,0.14
					c0.3,0.07,0.61,0.18,0.94,0.33c0.33,0.14,0.64,0.35,0.95,0.6c0.3,0.26,0.59,0.57,0.85,0.95c0.26,0.38,0.48,0.83,0.66,1.36
					s0.3,1.15,0.37,1.84c0.04,0.34,0.05,0.71,0.05,1.11c0,0.39-0.01,0.65-0.02,0.77h1.35v2.27h-8.61v-2.27h4.44
					c0.01-0.15,0.02-0.41,0.02-0.77c0-0.4-0.02-0.76-0.05-1.08c-0.06-0.6-0.16-1.09-0.3-1.46c-0.14-0.37-0.3-0.66-0.49-0.85
					c-0.19-0.2-0.4-0.34-0.63-0.44c-0.23-0.1-0.48-0.17-0.76-0.21c-0.28-0.04-0.76-0.09-1.45-0.15L186.39,239z"/>
				<path class="st0" d="M197.86,236.31v9.21c0,0.38-0.07,0.73-0.22,1.07c-0.15,0.33-0.35,0.62-0.59,0.87
					c-0.29,0.3-0.63,0.53-1.04,0.69c-0.4,0.17-0.84,0.25-1.31,0.25h-1.89v-2.27h1.9c0.01,0,0.05-0.03,0.11-0.08
					c0.06-0.06,0.11-0.13,0.14-0.22c0.04-0.09,0.05-0.19,0.05-0.3v-9.21H197.86z"/>
				<path class="st0" d="M202.51,236.31v11.98h-2.84v-11.98H202.51z"/>
				<path class="st0" d="M207.98,250.87c0.53,0,0.87-0.04,1.01-0.12c0.14-0.08,0.27-0.19,0.37-0.33c0.1-0.14,0.18-0.32,0.24-0.54
					c0.06-0.22,0.11-0.47,0.14-0.75c0.03-0.27,0.05-0.56,0.05-0.87c0-0.31,0-0.62,0-0.93v-4.23c0-0.45,0.05-0.86,0.16-1.24
					c0.11-0.38,0.26-0.73,0.44-1.04c0.19-0.31,0.41-0.58,0.67-0.81c0.26-0.23,0.54-0.42,0.84-0.57c0.28-0.14,0.58-0.24,0.88-0.32
					c0.3-0.07,0.61-0.11,0.92-0.11h0.08c0.62,0,1.2,0.13,1.74,0.4c0.3,0.15,0.58,0.34,0.85,0.58c0.26,0.24,0.5,0.52,0.69,0.84
					c0.2,0.32,0.35,0.68,0.47,1.08c0.11,0.4,0.18,0.84,0.19,1.32v2.88h1.1v2.27h-2.02c-0.05,0.05-0.16,0.14-0.33,0.26
					c-0.17,0.12-0.34,0.21-0.52,0.28c-0.43,0.19-0.88,0.29-1.36,0.29c-0.28,0-0.55-0.03-0.8-0.09h-0.05l-1.15-0.31l-0.05,0.57
					c-0.04,0.39-0.11,0.76-0.22,1.12c-0.1,0.36-0.25,0.7-0.44,1.03c-0.19,0.32-0.45,0.6-0.77,0.84c-0.32,0.24-0.7,0.42-1.15,0.55
					c-0.45,0.13-1.12,0.19-2.02,0.19V250.87z M212.64,246.44l1.96,0.52h-0.04c0.04-0.01,0.07-0.03,0.09-0.05
					c0.03-0.02,0.06-0.05,0.09-0.09c0.03-0.04,0.05-0.08,0.07-0.12c0.05-0.1,0.07-0.21,0.07-0.34l-0.01-3.07
					c-0.01-0.57-0.1-1-0.28-1.31c-0.17-0.31-0.37-0.52-0.59-0.63c-0.11-0.05-0.2-0.07-0.27-0.07c-0.09,0.01-0.19,0.03-0.3,0.08
					c-0.22,0.11-0.41,0.31-0.56,0.59c-0.16,0.29-0.24,0.68-0.24,1.17V246.44z"/>
				<path class="st0" d="M223.33,236.31v9.21c0,0.38-0.07,0.73-0.22,1.07c-0.15,0.33-0.35,0.62-0.59,0.87
					c-0.29,0.3-0.63,0.53-1.04,0.69c-0.4,0.17-0.84,0.25-1.31,0.25h-1.89v-2.27h1.9c0.01,0,0.05-0.03,0.11-0.08
					c0.06-0.06,0.11-0.13,0.14-0.22c0.04-0.09,0.05-0.19,0.05-0.3v-9.21H223.33z"/>
				<path class="st0" d="M227.97,236.31v9.21c0,0.11,0.02,0.22,0.05,0.3c0.04,0.09,0.08,0.16,0.14,0.21
					c0.07,0.06,0.1,0.09,0.11,0.09h1.74v2.27h-1.73c-0.46,0-0.9-0.08-1.3-0.25c-0.4-0.17-0.75-0.4-1.04-0.69
					c-0.25-0.25-0.44-0.54-0.59-0.87c-0.15-0.33-0.22-0.69-0.22-1.07v-9.21H227.97z"/>
				<path class="st0" d="M239.71,248.4h-10.24v-2.27h1.63c-0.07-0.15-0.13-0.34-0.19-0.58c-0.05-0.24-0.08-0.48-0.1-0.74
					c-0.01-0.26-0.02-0.52-0.02-0.8v-0.36c0-0.13,0-0.27,0.01-0.4v-0.01c0.02-0.71,0.14-1.33,0.37-1.86
					c0.23-0.53,0.53-0.97,0.9-1.32c0.37-0.36,0.8-0.62,1.27-0.79c0.47-0.17,0.96-0.25,1.46-0.25h0.01c0.49,0,0.97,0.09,1.43,0.27
					c0.47,0.18,0.89,0.44,1.26,0.79c0.37,0.35,0.67,0.78,0.89,1.29c0.22,0.51,0.33,1.24,0.33,2.2h-2.85c0-0.6-0.04-1.02-0.11-1.26
					c-0.07-0.24-0.16-0.43-0.28-0.59c-0.11-0.15-0.23-0.27-0.35-0.34c-0.12-0.07-0.24-0.11-0.35-0.11h-0.01
					c-0.11,0-0.22,0.03-0.34,0.1c-0.12,0.07-0.24,0.18-0.36,0.33c-0.12,0.16-0.22,0.37-0.3,0.63c-0.08,0.27-0.13,0.58-0.14,0.94
					v0.01c-0.01,0.12-0.01,0.23-0.01,0.33v0.32c0,0.4,0.01,0.74,0.04,1.01c0.03,0.27,0.09,0.48,0.19,0.63
					c0.1,0.15,0.28,0.27,0.53,0.37c0.25,0.1,0.63,0.16,1.13,0.19h4.18V248.4z"/>
				<path class="st0" d="M244.21,236.31v9.21c0,0.38-0.07,0.73-0.22,1.07c-0.15,0.33-0.35,0.62-0.59,0.87
					c-0.29,0.3-0.63,0.53-1.04,0.69c-0.4,0.17-0.84,0.25-1.31,0.25h-1.89v-2.27h1.9c0.01,0,0.05-0.03,0.11-0.08
					c0.06-0.06,0.11-0.13,0.14-0.22c0.04-0.09,0.05-0.19,0.05-0.3v-9.21H244.21z"/>
				<path class="st0" d="M248.86,236.31v11.98h-2.84v-11.98H248.86z"/>
				<path class="st0" d="M267.75,246.13h1.27v2.27h-13.76v-2.27h1.03c0.01,0,0.05-0.03,0.11-0.08c0.06-0.06,0.11-0.13,0.14-0.22
					c0.04-0.09,0.05-0.19,0.05-0.3v-9.24h2.85v4.93c0.75-1.17,1.79-1.86,3.12-2.06c0.13-0.01,0.25-0.01,0.37-0.01
					c0.28,0,0.56,0.02,0.84,0.05c0.4,0.05,0.78,0.14,1.16,0.27c0.4,0.13,0.77,0.31,1.11,0.53c0.34,0.22,0.64,0.49,0.9,0.8
					c0.26,0.32,0.46,0.68,0.61,1.08c0.15,0.41,0.24,0.86,0.25,1.37v0.17c0,0.03,0,0.07,0.01,0.12v1.99
					C267.81,245.73,267.79,245.93,267.75,246.13z M259.45,246.13h5.23c0.01,0,0.05-0.03,0.11-0.08c0.06-0.06,0.11-0.13,0.14-0.22
					c0.04-0.09,0.05-0.19,0.05-0.3v-1.83c0-0.06,0-0.12,0-0.19c0-0.07,0-0.14,0-0.21c-0.01-0.25-0.05-0.48-0.11-0.67
					c-0.06-0.2-0.14-0.36-0.24-0.51c-0.1-0.14-0.22-0.26-0.36-0.35c-0.14-0.09-0.29-0.17-0.45-0.23c-0.15-0.05-0.31-0.08-0.49-0.1
					c-0.12-0.02-0.24-0.03-0.36-0.03c-0.06,0-0.12,0-0.19,0.01c-0.93,0.05-1.71,0.41-2.34,1.08c-0.63,0.67-0.96,1.44-0.99,2.3
					V246.13z"/>
				<path class="st0" d="M274.45,239.84v5.68c0,0.38-0.07,0.73-0.22,1.07c-0.15,0.33-0.35,0.62-0.6,0.87
					c-0.3,0.3-0.64,0.53-1.03,0.69c-0.39,0.17-0.83,0.25-1.31,0.25h-2.81v-2.27h2.82c0.11-0.03,0.2-0.11,0.24-0.24
					c0.04-0.11,0.06-0.25,0.06-0.4v-5.65H274.45z M270,251.08c0-0.2,0.04-0.38,0.12-0.56c0.08-0.17,0.18-0.32,0.31-0.45
					c0.13-0.13,0.27-0.23,0.44-0.3c0.17-0.07,0.35-0.11,0.55-0.11c0.18,0,0.35,0.04,0.52,0.11c0.17,0.07,0.31,0.17,0.43,0.3
					c0.12,0.13,0.22,0.28,0.29,0.45c0.07,0.17,0.11,0.36,0.11,0.56c0,0.2-0.04,0.38-0.11,0.55c-0.07,0.17-0.17,0.31-0.29,0.44
					c-0.12,0.13-0.27,0.23-0.43,0.3c-0.17,0.07-0.34,0.11-0.52,0.11c-0.2,0-0.38-0.04-0.55-0.11c-0.17-0.07-0.32-0.17-0.44-0.3
					c-0.13-0.13-0.23-0.27-0.31-0.44C270.04,251.46,270,251.28,270,251.08z"/>
				<path class="st0" d="M279.1,236.31v11.98h-2.84v-11.98H279.1z"/>
				<path class="st0" d="M288.61,249.36c-0.12,0.42-0.28,0.8-0.49,1.13c-0.2,0.33-0.44,0.61-0.72,0.84
					c-0.27,0.23-0.57,0.43-0.9,0.59c-0.33,0.16-0.66,0.28-1,0.36c-0.34,0.08-0.69,0.15-1.05,0.19c-0.36,0.04-0.72,0.06-1.08,0.07
					c-0.36,0.01-0.88,0.01-1.54,0.01v-2.26c0.59,0,1.02,0,1.28,0c0.26,0,0.52-0.02,0.76-0.04c0.24-0.02,0.46-0.06,0.65-0.09
					c0.19-0.04,0.36-0.09,0.5-0.16c0.12-0.06,0.23-0.14,0.34-0.24c0.11-0.1,0.2-0.23,0.29-0.38c0.09-0.16,0.16-0.35,0.22-0.59
					c0.06-0.23,0.09-0.36,0.09-0.37c-0.27,0-0.63-0.03-1.1-0.08c-0.47-0.05-0.89-0.13-1.26-0.23c-0.37-0.1-0.71-0.24-1-0.4
					c-0.3-0.17-0.55-0.36-0.77-0.58c-0.24-0.25-0.43-0.52-0.56-0.81c-0.13-0.29-0.22-0.6-0.28-0.92c-0.06-0.32-0.09-0.67-0.09-1.04
					v-1.08c0.01-0.48,0.07-0.92,0.19-1.33c0.12-0.4,0.27-0.77,0.47-1.09c0.2-0.32,0.43-0.6,0.69-0.84c0.26-0.24,0.55-0.43,0.85-0.58
					c0.54-0.27,1.12-0.4,1.74-0.4h0.08c0.64,0,1.24,0.14,1.81,0.42c0.29,0.15,0.56,0.34,0.83,0.57c0.26,0.23,0.49,0.5,0.67,0.81
					c0.19,0.31,0.33,0.66,0.44,1.04c0.11,0.38,0.16,0.8,0.16,1.24v4.18C288.81,248.25,288.73,248.94,288.61,249.36z M285.99,243.11
					c0-0.49-0.08-0.88-0.24-1.17c-0.16-0.29-0.35-0.48-0.56-0.59c-0.11-0.05-0.21-0.08-0.3-0.08c-0.07,0-0.16,0.02-0.27,0.07
					c-0.22,0.11-0.42,0.33-0.59,0.63c-0.17,0.31-0.26,0.74-0.28,1.31c-0.01,0.22-0.01,0.42-0.01,0.61c0,0.09,0,0.18,0.01,0.27
					c0,0.27,0.01,0.51,0.04,0.71c0.03,0.2,0.06,0.38,0.11,0.51c0.05,0.14,0.11,0.24,0.19,0.32c0.13,0.13,0.37,0.24,0.73,0.32
					c0.36,0.08,0.75,0.12,1.17,0.13V243.11z"/>
				<path class="st0" d="M294.98,239.84v8.09c-0.03,0.54-0.11,1.02-0.23,1.44c-0.12,0.42-0.28,0.8-0.48,1.13
					c-0.2,0.33-0.44,0.61-0.72,0.84c-0.28,0.23-0.58,0.43-0.9,0.59c-0.33,0.16-0.66,0.28-1,0.36c-0.34,0.08-0.69,0.15-1.05,0.19
					c-0.36,0.04-0.71,0.06-1.08,0.07c-0.36,0.01-0.87,0.01-1.54,0.01v-2.26c0.59,0,1.02,0,1.28,0c0.26,0,0.51-0.02,0.75-0.04
					c0.23-0.02,0.45-0.06,0.64-0.09c0.19-0.04,0.36-0.09,0.51-0.16c0.13-0.06,0.24-0.14,0.35-0.24c0.11-0.1,0.2-0.23,0.29-0.4
					c0.08-0.16,0.16-0.36,0.21-0.61c0.06-0.24,0.1-0.53,0.11-0.86v-8.04H294.98z"/>
				<path class="st0" d="M309.31,244.41c0,0.08,0,0.16,0,0.23c0,0.08-0.01,0.14-0.01,0.2c-0.01,0.17-0.01,0.32-0.01,0.44
					c0,0.29,0.02,0.47,0.04,0.53c0.04,0.09,0.09,0.17,0.15,0.23c0.04,0.03,0.07,0.05,0.1,0.06c0.02,0.01,0.26,0.02,0.71,0.02h0.66
					v2.27h-1.35c-0.45,0-0.86-0.07-1.24-0.22c-0.38-0.15-0.61-0.26-0.7-0.35c-0.04,0.04-0.2,0.12-0.47,0.25
					c-0.56,0.28-1.16,0.42-1.8,0.42h-0.08c-0.28,0-0.57-0.03-0.85-0.09c-0.3-0.07-0.6-0.17-0.89-0.31c-0.3-0.15-0.58-0.35-0.85-0.58
					c-0.27-0.24-0.5-0.52-0.69-0.84c-0.2-0.32-0.35-0.68-0.47-1.08c-0.12-0.4-0.18-0.84-0.19-1.32c-0.01-0.26-0.01-0.51-0.01-0.75
					v-0.34c0.01-0.37,0.04-0.71,0.09-1.03c0.06-0.32,0.15-0.63,0.28-0.92c0.13-0.29,0.31-0.56,0.56-0.81
					c0.25-0.25,0.55-0.47,0.9-0.65c0.35-0.18,0.75-0.32,1.21-0.42c0.46-0.11,0.98-0.18,1.57-0.21c0.34-0.02,0.7-0.03,1.08-0.03
					c0.28,0,0.58,0.01,0.89,0.02l1.35,0.05V244.41z M302.61,236.73c0-0.2,0.04-0.38,0.11-0.56c0.08-0.17,0.18-0.32,0.3-0.45
					c0.13-0.13,0.27-0.23,0.44-0.3c0.17-0.07,0.34-0.11,0.53-0.11c0.19,0,0.36,0.04,0.53,0.11c0.17,0.07,0.32,0.17,0.45,0.3
					c0.13,0.13,0.23,0.28,0.3,0.45c0.07,0.17,0.11,0.36,0.11,0.56c0,0.2-0.04,0.38-0.11,0.55c-0.07,0.17-0.17,0.31-0.3,0.44
					c-0.13,0.13-0.28,0.23-0.45,0.3c-0.17,0.07-0.35,0.11-0.53,0.11c-0.19,0-0.36-0.04-0.53-0.11c-0.17-0.07-0.31-0.17-0.44-0.3
					c-0.13-0.13-0.23-0.27-0.3-0.44C302.65,237.11,302.61,236.93,302.61,236.73z M306.46,243.56v-2.2
					c-0.42,0.01-0.81,0.05-1.17,0.14c-0.36,0.08-0.61,0.19-0.73,0.32c-0.08,0.08-0.14,0.19-0.19,0.32
					c-0.05,0.14-0.09,0.31-0.11,0.51c-0.03,0.2-0.04,0.44-0.04,0.71c-0.01,0.09-0.01,0.18-0.01,0.27c0,0.19,0,0.39,0.01,0.61
					c0.01,0.29,0.03,0.54,0.09,0.76c0.05,0.22,0.12,0.41,0.2,0.56c0.08,0.16,0.18,0.29,0.28,0.39c0.1,0.1,0.2,0.18,0.3,0.23
					c0.11,0.05,0.2,0.07,0.27,0.07c0.09-0.01,0.19-0.03,0.31-0.08c0.18-0.1,0.34-0.26,0.49-0.49c0.15-0.23,0.24-0.54,0.28-0.93
					v-1.19H306.46z M305.67,236.73c0-0.2,0.04-0.38,0.12-0.56c0.08-0.17,0.18-0.32,0.31-0.45c0.13-0.13,0.27-0.23,0.44-0.3
					c0.17-0.07,0.35-0.11,0.55-0.11c0.18,0,0.35,0.04,0.52,0.11c0.17,0.07,0.31,0.17,0.43,0.3c0.12,0.13,0.22,0.28,0.29,0.45
					c0.07,0.17,0.11,0.36,0.11,0.56c0,0.2-0.04,0.38-0.11,0.55c-0.07,0.17-0.17,0.31-0.29,0.44c-0.12,0.13-0.27,0.23-0.43,0.3
					c-0.17,0.07-0.34,0.11-0.52,0.11c-0.2,0-0.38-0.04-0.55-0.11c-0.17-0.07-0.32-0.17-0.44-0.3c-0.13-0.13-0.23-0.27-0.31-0.44
					C305.7,237.11,305.67,236.93,305.67,236.73z"/>
				<path class="st0" d="M310.41,246.13h7.79c0.51-0.02,0.77-0.16,0.79-0.43v-1.5c-0.02-0.13-0.12-0.25-0.3-0.38
					c-0.17-0.13-0.42-0.25-0.75-0.35c-0.33-0.11-0.7-0.19-1.12-0.24c-0.42-0.06-0.85-0.1-1.29-0.13s-0.85-0.04-1.24-0.04h-2.37
					l-0.36-0.7c-0.3-0.57-0.44-1.1-0.44-1.61c0-0.33,0.06-0.64,0.17-0.94c0.11-0.29,0.27-0.56,0.47-0.8
					c0.18-0.24,0.4-0.46,0.65-0.65c0.25-0.19,0.53-0.36,0.82-0.51c0.46-0.25,0.96-0.45,1.5-0.61c0.55-0.16,1.09-0.29,1.63-0.39
					c0.54-0.1,1.07-0.17,1.57-0.21c0.5-0.04,1.09-0.06,1.78-0.06v2.27c-0.59,0-1.08,0.02-1.46,0.05c-0.38,0.03-0.78,0.08-1.19,0.15
					c-0.41,0.07-0.81,0.16-1.2,0.28c-0.39,0.11-0.74,0.25-1.05,0.42c-0.15,0.08-0.28,0.16-0.39,0.24c-0.11,0.08-0.2,0.17-0.27,0.26
					c-0.12,0.15-0.2,0.33-0.24,0.55c0.19,0,0.55,0.01,1.08,0.02c0.52,0.01,1.07,0.05,1.64,0.1c0.57,0.06,1.13,0.15,1.7,0.27
					c0.57,0.12,1.09,0.29,1.57,0.52s0.9,0.51,1.26,0.88c0.36,0.36,0.59,0.83,0.68,1.39v1.74c0,0.36-0.07,0.69-0.21,1
					c-0.14,0.31-0.33,0.58-0.56,0.81c-0.27,0.28-0.6,0.5-0.98,0.66c-0.39,0.16-0.8,0.24-1.25,0.24h-8.42V246.13z"/>
				<path class="st0" d="M328.03,239.84v6.29h1.44v2.27h-1.46c-0.01,0.24-0.08,0.57-0.2,0.99c-0.12,0.42-0.28,0.79-0.49,1.12
					c-0.2,0.33-0.44,0.6-0.72,0.84c-0.27,0.23-0.57,0.43-0.9,0.58c-0.33,0.16-0.66,0.28-1,0.36c-0.34,0.08-0.69,0.15-1.05,0.19
					c-0.36,0.04-0.71,0.06-1.08,0.07c-0.36,0.01-0.87,0.01-1.54,0.01v-2.26c0.59,0,1.02,0,1.28,0c0.26,0,0.51-0.02,0.75-0.04
					c0.23-0.02,0.45-0.06,0.64-0.09c0.19-0.04,0.36-0.09,0.51-0.16c0.13-0.06,0.24-0.14,0.35-0.24c0.11-0.1,0.2-0.23,0.29-0.4
					c0.08-0.16,0.16-0.36,0.21-0.61c0.06-0.24,0.1-0.53,0.11-0.86v-8.04H328.03z"/>
				<path class="st0" d="M342.19,245.52c0,0.38-0.07,0.73-0.22,1.07c-0.15,0.33-0.35,0.62-0.6,0.87c-0.3,0.3-0.64,0.53-1.03,0.69
					c-0.39,0.17-0.83,0.25-1.31,0.25h-0.83c-0.39,0-0.76-0.06-1.1-0.17c-0.34-0.11-0.55-0.2-0.64-0.27
					c-0.1,0.07-0.31,0.16-0.65,0.27s-0.7,0.17-1.09,0.17h-0.88c-0.39,0-0.76-0.06-1.09-0.17c-0.34-0.11-0.55-0.2-0.65-0.27
					c-0.08,0.07-0.3,0.16-0.64,0.27c-0.34,0.11-0.71,0.17-1.1,0.17h-1.44v-2.27h1.45c0.02,0,0.06-0.03,0.12-0.08
					c0.11-0.11,0.17-0.25,0.19-0.42v-5.79h2.85v5.68c0,0.09,0,0.14-0.01,0.16c0.01,0.04,0.03,0.09,0.06,0.16
					c0.04,0.07,0.08,0.14,0.14,0.2c0.06,0.05,0.1,0.08,0.12,0.08h0.89c0.02,0,0.06-0.03,0.12-0.08c0.05-0.06,0.1-0.13,0.14-0.2
					c0.04-0.07,0.06-0.13,0.06-0.16c-0.01-0.02-0.01-0.07-0.01-0.16v-5.68h2.85v5.8c0.01,0.16,0.07,0.29,0.19,0.4
					c0.06,0.06,0.1,0.09,0.12,0.09h0.85c0.02,0,0.06-0.03,0.12-0.08c0.06-0.06,0.11-0.14,0.14-0.23c0.03-0.07,0.04-0.18,0.04-0.32
					v-5.67h2.85V245.52z M333.47,237.63c0-0.2,0.04-0.38,0.11-0.56s0.18-0.32,0.3-0.45c0.13-0.13,0.27-0.23,0.44-0.3
					c0.17-0.07,0.34-0.11,0.53-0.11c0.19,0,0.36,0.04,0.53,0.11c0.17,0.07,0.32,0.17,0.45,0.3s0.23,0.28,0.3,0.45
					c0.07,0.17,0.11,0.36,0.11,0.56s-0.04,0.38-0.11,0.55c-0.07,0.17-0.17,0.31-0.3,0.44c-0.13,0.13-0.28,0.23-0.45,0.3
					c-0.17,0.07-0.35,0.11-0.53,0.11c-0.19,0-0.36-0.04-0.53-0.11c-0.17-0.07-0.31-0.17-0.44-0.3c-0.13-0.13-0.23-0.27-0.3-0.44
					C333.51,238.01,333.47,237.83,333.47,237.63z M334.87,234.75c0-0.2,0.04-0.38,0.12-0.56s0.18-0.32,0.31-0.45
					c0.13-0.13,0.27-0.23,0.44-0.3c0.17-0.07,0.35-0.11,0.55-0.11c0.18,0,0.35,0.04,0.52,0.11c0.17,0.07,0.31,0.17,0.43,0.3
					c0.12,0.13,0.22,0.28,0.29,0.45c0.07,0.17,0.11,0.36,0.11,0.56s-0.04,0.38-0.11,0.55c-0.07,0.17-0.17,0.31-0.29,0.44
					c-0.12,0.13-0.27,0.23-0.43,0.3c-0.17,0.07-0.34,0.11-0.52,0.11c-0.2,0-0.38-0.04-0.55-0.11c-0.17-0.07-0.32-0.17-0.44-0.3
					c-0.13-0.13-0.23-0.27-0.31-0.44C334.91,235.13,334.87,234.95,334.87,234.75z M336.53,237.63c0-0.2,0.04-0.38,0.12-0.56
					c0.08-0.17,0.18-0.32,0.31-0.45c0.13-0.13,0.27-0.23,0.44-0.3c0.17-0.07,0.35-0.11,0.55-0.11c0.18,0,0.35,0.04,0.52,0.11
					c0.17,0.07,0.31,0.17,0.43,0.3s0.22,0.28,0.29,0.45c0.07,0.17,0.11,0.36,0.11,0.56s-0.04,0.38-0.11,0.55
					c-0.07,0.17-0.17,0.31-0.29,0.44c-0.12,0.13-0.27,0.23-0.43,0.3c-0.17,0.07-0.34,0.11-0.52,0.11c-0.2,0-0.38-0.04-0.55-0.11
					c-0.17-0.07-0.32-0.17-0.44-0.3c-0.13-0.13-0.23-0.27-0.31-0.44C336.57,238.01,336.53,237.83,336.53,237.63z"/>
			</g>
			<g>
				<path class="st1" d="M7.8,270.29v-10.36h2.16v10.36H7.8z"/>
				<path class="st1" d="M13.9,270.29h-2.02v-10.36h2.27l4.16,7.27v-7.27h2.03v10.36h-2.16l-4.28-7.46V270.29z"/>
				<path class="st1" d="M24.65,270.29v-8.53h-3.14v-1.84h8.43v1.84h-3.13v8.53H24.65z"/>
				<path class="st1" d="M31.23,270.29v-10.36h7.63v1.84H33.4v2.2h5.06v1.78H33.4v2.7h5.7v1.84H31.23z"/>
				<path class="st1" d="M40.86,270.29v-10.36h5.22c0.99,0,1.79,0.26,2.39,0.79s0.91,1.23,0.91,2.09c0,0.99-0.34,1.72-1.01,2.19
					c-0.18,0.12-0.38,0.22-0.61,0.31c0.13,0.05,0.25,0.11,0.35,0.17c0.59,0.35,0.9,0.94,0.92,1.77l0.05,1.7
					c0.01,0.34,0.05,0.57,0.11,0.72c0.06,0.14,0.18,0.26,0.36,0.34v0.28h-2.39c-0.06-0.11-0.11-0.34-0.15-0.69
					c-0.04-0.35-0.06-0.74-0.07-1.15l-0.02-0.96c-0.01-0.46-0.15-0.8-0.41-0.99s-0.7-0.3-1.32-0.3h-2.16v4.09H40.86z M43.02,264.45
					h2.51c0.56,0,0.98-0.11,1.26-0.34c0.28-0.23,0.42-0.57,0.42-1.03c0-0.45-0.13-0.8-0.4-1.03c-0.27-0.23-0.67-0.34-1.2-0.34h-2.59
					V264.45z"/>
				<path class="st1" d="M53.2,270.29h-2.02v-10.36h2.27l4.16,7.27v-7.27h2.03v10.36h-2.16l-4.28-7.46V270.29z"/>
				<path class="st1" d="M60.91,270.29l3.66-10.36h2.51l3.67,10.36h-2.3l-0.7-2.11h-3.93l-0.69,2.11H60.91z M65.79,262.23
					l-1.37,4.17h2.76L65.79,262.23z"/>
				<path class="st1" d="M74.38,270.29v-8.53h-3.14v-1.84h8.43v1.84h-3.13v8.53H74.38z"/>
				<path class="st1" d="M80.79,270.29v-10.36h2.16v10.36H80.79z"/>
				<path class="st1" d="M89.49,270.57c-1.52,0-2.74-0.49-3.63-1.46c-0.9-0.97-1.35-2.29-1.35-3.95c0-1.7,0.45-3.04,1.35-4.04
					c0.9-0.99,2.11-1.49,3.63-1.49c1.53,0,2.74,0.5,3.64,1.49s1.35,2.34,1.35,4.04c0,1.66-0.45,2.97-1.35,3.95
					C92.23,270.08,91.02,270.57,89.49,270.57z M89.49,268.73c0.88,0,1.57-0.32,2.07-0.95c0.5-0.63,0.75-1.51,0.75-2.63
					c0-1.15-0.25-2.05-0.75-2.7c-0.5-0.65-1.19-0.97-2.07-0.97c-0.88,0-1.57,0.32-2.07,0.97c-0.5,0.65-0.75,1.55-0.75,2.7
					c0,1.12,0.25,2,0.75,2.63C87.91,268.41,88.6,268.73,89.49,268.73z"/>
				<path class="st1" d="M98.12,270.29H96.1v-10.36h2.27l4.16,7.27v-7.27h2.03v10.36h-2.16l-4.28-7.46V270.29z"/>
				<path class="st1" d="M105.83,270.29l3.66-10.36H112l3.67,10.36h-2.3l-0.7-2.11h-3.93l-0.69,2.11H105.83z M110.71,262.23
					l-1.37,4.17h2.76L110.71,262.23z"/>
				<path class="st1" d="M117.06,270.29v-10.36h2.16v8.53h5.15v1.84H117.06z"/>
				<path class="st1" d="M132.02,270.29l-2.89-10.36h2.25l1.73,7.58l1.48-7.58h2.3l1.51,7.52l1.72-7.52h2.19l-2.88,10.36h-2.06
					l-1.66-8.16l-1.63,8.16H132.02z"/>
				<path class="st1" d="M148.14,270.57c-1.52,0-2.74-0.49-3.63-1.46c-0.9-0.97-1.35-2.29-1.35-3.95c0-1.7,0.45-3.04,1.35-4.04
					c0.9-0.99,2.11-1.49,3.63-1.49c1.53,0,2.74,0.5,3.64,1.49c0.9,0.99,1.35,2.34,1.35,4.04c0,1.66-0.45,2.97-1.35,3.95
					C150.88,270.08,149.67,270.57,148.14,270.57z M148.14,268.73c0.88,0,1.57-0.32,2.07-0.95c0.5-0.63,0.75-1.51,0.75-2.63
					c0-1.15-0.25-2.05-0.75-2.7c-0.5-0.65-1.19-0.97-2.07-0.97c-0.88,0-1.57,0.32-2.07,0.97c-0.5,0.65-0.75,1.55-0.75,2.7
					c0,1.12,0.25,2,0.75,2.63C146.56,268.41,147.26,268.73,148.14,268.73z"/>
				<path class="st1" d="M154.86,270.29v-10.36h5.22c0.99,0,1.79,0.26,2.39,0.79c0.61,0.53,0.91,1.23,0.91,2.09
					c0,0.99-0.34,1.72-1.01,2.19c-0.18,0.12-0.38,0.22-0.61,0.31c0.13,0.05,0.25,0.11,0.35,0.17c0.59,0.35,0.9,0.94,0.92,1.77
					l0.05,1.7c0.01,0.34,0.05,0.57,0.11,0.72c0.06,0.14,0.18,0.26,0.36,0.34v0.28h-2.39c-0.06-0.11-0.11-0.34-0.15-0.69
					c-0.04-0.35-0.06-0.74-0.07-1.15l-0.02-0.96c-0.01-0.46-0.15-0.8-0.41-0.99s-0.7-0.3-1.32-0.3h-2.16v4.09H154.86z
					 M157.02,264.45h2.51c0.56,0,0.98-0.11,1.26-0.34c0.28-0.23,0.42-0.57,0.42-1.03c0-0.45-0.13-0.8-0.4-1.03
					c-0.27-0.23-0.67-0.34-1.2-0.34h-2.59V264.45z"/>
				<path class="st1" d="M165.29,270.29v-10.36h2.16v8.53h5.15v1.84H165.29z"/>
				<path class="st1" d="M174.11,270.29v-10.36h4.43c1.43,0,2.51,0.42,3.25,1.26c0.74,0.84,1.11,2.06,1.11,3.67
					c0,1.78-0.38,3.13-1.15,4.05s-1.9,1.39-3.38,1.39H174.11z M176.27,268.5h1.82c0.88,0,1.54-0.3,1.98-0.89
					c0.44-0.59,0.66-1.49,0.66-2.67c0-1.08-0.21-1.89-0.62-2.43c-0.41-0.54-1.03-0.81-1.85-0.81h-2V268.5z"/>
				<path class="st1" d="M188.65,270.29v-10.36h2.16v8.53h5.15v1.84H188.65z"/>
				<path class="st1" d="M197.29,270.29v-10.36h2.16v10.36H197.29z"/>
				<path class="st1" d="M203.39,270.29h-2.02v-10.36h2.27l4.16,7.27v-7.27h2.03v10.36h-2.16l-4.28-7.46V270.29z"/>
				<path class="st1" d="M212.06,270.29v-10.36h2.16v4.3l3.97-4.3h2.76l-4.14,4.24l4.42,6.13h-2.84l-3.12-4.56l-1.05,1.08v3.48
					H212.06z"/>
				<path class="st1" d="M227.95,263.03c-0.04-0.5-0.25-0.89-0.65-1.18c-0.39-0.29-0.91-0.43-1.54-0.43c-0.55,0-0.98,0.12-1.29,0.36
					c-0.31,0.24-0.47,0.58-0.47,1.01c0,0.31,0.16,0.55,0.49,0.72c0.32,0.17,1,0.37,2.03,0.6c1.51,0.34,2.52,0.72,3.03,1.17
					c0.51,0.44,0.76,1.14,0.76,2.11c0,0.97-0.38,1.75-1.15,2.32c-0.77,0.57-1.8,0.86-3.11,0.86c-1.31,0-2.34-0.3-3.08-0.91
					c-0.74-0.61-1.13-1.47-1.18-2.59h2.08c0.02,0.55,0.22,0.98,0.6,1.27c0.38,0.3,0.9,0.45,1.57,0.45c0.69,0,1.23-0.11,1.62-0.34
					c0.39-0.22,0.58-0.53,0.58-0.93c0-0.39-0.14-0.67-0.42-0.86c-0.27-0.18-0.85-0.38-1.75-0.58c-1.64-0.37-2.74-0.76-3.3-1.19
					c-0.55-0.42-0.83-1.08-0.83-1.98c0-1.01,0.36-1.8,1.09-2.39c0.73-0.59,1.72-0.89,2.96-0.89c1.16,0,2.11,0.31,2.83,0.92
					c0.73,0.61,1.13,1.44,1.21,2.48H227.95z"/>
				<path class="st1" d="M236.08,270.29v-10.36h2.16v8.53h5.15v1.84H236.08z"/>
				<path class="st1" d="M249.41,270.57c-1.52,0-2.73-0.49-3.63-1.46c-0.9-0.97-1.35-2.29-1.35-3.95c0-1.7,0.45-3.04,1.35-4.04
					c0.9-0.99,2.11-1.49,3.63-1.49c1.53,0,2.74,0.5,3.64,1.49c0.9,0.99,1.34,2.34,1.34,4.04c0,1.66-0.45,2.97-1.34,3.95
					C252.15,270.08,250.94,270.57,249.41,270.57z M249.41,268.73c0.88,0,1.57-0.32,2.07-0.95c0.5-0.63,0.75-1.51,0.75-2.63
					c0-1.15-0.25-2.05-0.75-2.7c-0.5-0.65-1.19-0.97-2.07-0.97c-0.88,0-1.57,0.32-2.07,0.97c-0.5,0.65-0.75,1.55-0.75,2.7
					c0,1.12,0.25,2,0.75,2.63C247.83,268.41,248.53,268.73,249.41,268.73z"/>
				<path class="st1" d="M260.59,270.57c-1.51,0-2.71-0.49-3.6-1.46c-0.89-0.97-1.33-2.29-1.33-3.95c0-1.7,0.46-3.04,1.38-4.04
					c0.92-0.99,2.17-1.49,3.74-1.49c1.26,0,2.3,0.31,3.11,0.94c0.82,0.63,1.29,1.48,1.43,2.56h-2.17c-0.05-0.45-0.31-0.85-0.76-1.19
					c-0.45-0.34-0.95-0.51-1.5-0.51c-0.94,0-1.68,0.33-2.21,0.98c-0.53,0.65-0.8,1.55-0.8,2.71c0,1.18,0.26,2.07,0.77,2.69
					c0.51,0.61,1.26,0.92,2.24,0.92h-0.01c0.84,0,1.49-0.32,1.96-0.96c0.26-0.36,0.45-0.79,0.57-1.27v-0.02h-2.44v-1.78h4.34v5.59
					h-1.44l-0.21-1.34l-0.13,0.17C262.81,270.08,261.82,270.57,260.59,270.57L260.59,270.57z"/>
				<path class="st1" d="M267.18,270.29v-10.36h2.16v10.36H267.18z"/>
				<path class="st1" d="M276.99,263.03c-0.04-0.5-0.25-0.89-0.65-1.18c-0.39-0.29-0.91-0.43-1.54-0.43c-0.55,0-0.98,0.12-1.29,0.36
					s-0.47,0.58-0.47,1.01c0,0.31,0.16,0.55,0.49,0.72c0.32,0.17,1,0.37,2.03,0.6c1.51,0.34,2.52,0.72,3.03,1.17
					c0.51,0.44,0.76,1.14,0.76,2.11c0,0.97-0.38,1.75-1.15,2.32c-0.77,0.57-1.8,0.86-3.11,0.86c-1.31,0-2.34-0.3-3.08-0.91
					c-0.74-0.61-1.13-1.47-1.18-2.59h2.08c0.02,0.55,0.22,0.98,0.6,1.27c0.38,0.3,0.9,0.45,1.57,0.45c0.69,0,1.23-0.11,1.62-0.34
					c0.39-0.22,0.58-0.53,0.58-0.93c0-0.39-0.14-0.67-0.42-0.86c-0.27-0.18-0.85-0.38-1.75-0.58c-1.64-0.37-2.74-0.76-3.3-1.19
					c-0.55-0.42-0.83-1.08-0.83-1.98c0-1.01,0.36-1.8,1.09-2.39c0.73-0.59,1.72-0.89,2.96-0.89c1.16,0,2.11,0.31,2.83,0.92
					c0.73,0.61,1.13,1.44,1.21,2.48H276.99z"/>
				<path class="st1" d="M283.24,270.29v-8.53h-3.14v-1.84h8.43v1.84h-3.13v8.53H283.24z"/>
				<path class="st1" d="M289.64,270.29v-10.36h2.16v10.36H289.64z"/>
				<path class="st1" d="M302.6,266.66c-0.13,1.2-0.6,2.15-1.41,2.86c-0.81,0.7-1.83,1.06-3.08,1.06c-1.46,0-2.62-0.49-3.48-1.46
					c-0.86-0.97-1.29-2.29-1.29-3.95c0-1.7,0.43-3.04,1.29-4.04c0.86-0.99,2.02-1.49,3.48-1.49c1.23,0,2.24,0.33,3.05,1
					c0.81,0.67,1.29,1.57,1.43,2.7h-2.17c-0.07-0.56-0.31-1-0.72-1.33c-0.41-0.33-0.93-0.49-1.57-0.49c-0.8,0-1.43,0.32-1.89,0.96
					c-0.45,0.64-0.68,1.53-0.68,2.67c0,1.11,0.23,1.97,0.68,2.6c0.45,0.63,1.08,0.94,1.89,0.94c0.64,0,1.16-0.18,1.57-0.55
					c0.41-0.36,0.65-0.86,0.72-1.49H302.6z"/>
				<path class="st1" d="M309.87,263.03c-0.04-0.5-0.25-0.89-0.65-1.18c-0.39-0.29-0.91-0.43-1.54-0.43c-0.55,0-0.98,0.12-1.29,0.36
					c-0.31,0.24-0.47,0.58-0.47,1.01c0,0.31,0.16,0.55,0.49,0.72c0.32,0.17,1,0.37,2.03,0.6c1.51,0.34,2.52,0.72,3.03,1.17
					c0.51,0.44,0.76,1.14,0.76,2.11c0,0.97-0.38,1.75-1.15,2.32c-0.77,0.57-1.8,0.86-3.11,0.86c-1.31,0-2.34-0.3-3.08-0.91
					c-0.74-0.61-1.13-1.47-1.18-2.59h2.08c0.02,0.55,0.22,0.98,0.6,1.27c0.38,0.3,0.9,0.45,1.57,0.45c0.69,0,1.23-0.11,1.62-0.34
					c0.39-0.22,0.58-0.53,0.58-0.93c0-0.39-0.14-0.67-0.42-0.86c-0.27-0.18-0.85-0.38-1.75-0.58c-1.64-0.37-2.74-0.76-3.3-1.19
					c-0.55-0.42-0.83-1.08-0.83-1.98c0-1.01,0.36-1.8,1.09-2.39c0.73-0.59,1.72-0.89,2.96-0.89c1.16,0,2.11,0.31,2.83,0.92
					c0.73,0.61,1.13,1.44,1.21,2.48H309.87z"/>
				<path class="st1" d="M326.78,266.66c-0.13,1.2-0.6,2.15-1.41,2.86c-0.81,0.7-1.83,1.06-3.08,1.06c-1.46,0-2.62-0.49-3.48-1.46
					c-0.86-0.97-1.29-2.29-1.29-3.95c0-1.7,0.43-3.04,1.29-4.04c0.86-0.99,2.02-1.49,3.48-1.49c1.23,0,2.24,0.33,3.05,1
					c0.81,0.67,1.29,1.57,1.43,2.7h-2.17c-0.07-0.56-0.31-1-0.72-1.33c-0.41-0.33-0.93-0.49-1.57-0.49c-0.8,0-1.43,0.32-1.89,0.96
					c-0.45,0.64-0.68,1.53-0.68,2.67c0,1.11,0.23,1.97,0.68,2.6c0.45,0.63,1.08,0.94,1.89,0.94c0.64,0,1.16-0.18,1.57-0.55
					c0.41-0.36,0.65-0.86,0.72-1.49H326.78z"/>
				<path class="st1" d="M332.94,270.57c-1.52,0-2.73-0.49-3.63-1.46c-0.9-0.97-1.35-2.29-1.35-3.95c0-1.7,0.45-3.04,1.35-4.04
					c0.9-0.99,2.11-1.49,3.63-1.49c1.53,0,2.74,0.5,3.64,1.49c0.9,0.99,1.34,2.34,1.34,4.04c0,1.66-0.45,2.97-1.34,3.95
					C335.69,270.08,334.47,270.57,332.94,270.57z M332.94,268.73c0.88,0,1.57-0.32,2.07-0.95c0.5-0.63,0.75-1.51,0.75-2.63
					c0-1.15-0.25-2.05-0.75-2.7c-0.5-0.65-1.19-0.97-2.07-0.97s-1.57,0.32-2.07,0.97c-0.5,0.65-0.75,1.55-0.75,2.7
					c0,1.12,0.25,2,0.75,2.63C331.37,268.41,332.06,268.73,332.94,268.73z"/>
				<path class="st1" d="M340.83,270.33c-0.38,0-0.71-0.14-0.99-0.43c-0.26-0.29-0.39-0.62-0.39-1c0-0.39,0.13-0.72,0.39-1
					c0.28-0.29,0.6-0.43,0.99-0.43h0.02c0.38,0,0.71,0.14,0.99,0.43c0.26,0.28,0.39,0.61,0.39,1c0,0.38-0.13,0.72-0.39,1
					c-0.28,0.29-0.6,0.43-0.99,0.43H340.83z"/>
			</g>
		</g>
	</g>
	<g>
		<g>
			<polygon class="st1" points="11.84,203.78 28.32,111.17 24.35,111.17 7.78,204.29 11.75,204.29 			"/>
			<path class="st1" d="M168.61,197.04l-10.29-26.29c-4.12-10.29-6.5-16.81-8.21-22.08c-0.78,1.17-1.62,2.41-2.56,3.73
				c1.53,4.45,3.58,9.87,6.53,17.24l10.29,26.32c1.93,4.93,5.11,8.33,10.11,9.44C171.95,203.45,169.99,200.65,168.61,197.04z"/>
			<path class="st1" d="M83.37,205.4c-3.43-2.68-5.62-6.83-6.14-12.06l-9.05-81.84l-0.03-0.33h-4l9.05,81.84
				C73.89,200.08,77.95,204.17,83.37,205.4z"/>
			<path class="st1" d="M119.82,141.73l16.72-23.4c2.68-3.7,5.17-6.29,7.64-8.09c-4.09,1.02-7.73,3.61-12.24,9.84l-16.69,23.4
				c-3.31,4.57-6.05,8.45-8.36,11.85c0.12,1.59,0.24,3.1,0.33,4.57C110.41,155.08,114.26,149.4,119.82,141.73z"/>
			<path class="st1" d="M187.5,155.2c0.63,1.77,1.17,3.43,1.68,4.96c2.08-5.17,4.6-10.95,7.73-17.81l14.08-31.19h-3.73l-14.62,32.42
				C190.72,147.83,189,151.65,187.5,155.2z"/>
			<polygon class="st1" points="246.54,111.17 229.97,204.29 233.94,204.29 234.03,203.78 250.51,111.17 			"/>
			<polygon class="st0" points="36.59,204.29 38.13,204.29 39.63,204.29 43.6,204.29 60.05,111.17 56.05,111.17 54.52,111.17 
				53.02,111.17 31.36,111.17 14.79,204.29 			"/>
			<path class="st0" d="M238.84,111.17h-1.68h-1.65h-21.24l-14.62,32.42c-4.72,10.32-8.06,18.26-10.71,25.63
				c-0.93-2.98-1.93-6.08-3.19-9.84c-0.24-0.72-0.51-1.44-0.75-2.2c-0.24-0.69-0.48-1.38-0.72-2.14c-1.11-3.22-2.41-6.95-3.97-11.46
				l-8.33-23.52c-2.41-6.83-5.47-9.26-9.84-10.08c-0.99-0.18-2.05-0.3-3.16-0.33h-0.03c-0.57-0.03-1.14-0.03-1.74-0.03
				c-1.23,0-2.38,0.03-3.49,0.15c-5.2,0.57-9.35,2.83-14.74,10.29l-16.72,23.4c-8.75,12.09-13.35,19.34-17.54,25.75
				c-0.09-3.22-0.3-6.44-0.54-9.9c-0.06-0.78-0.12-1.56-0.18-2.38v-0.03c-0.06-0.78-0.12-1.56-0.21-2.38
				c-0.24-3.34-0.54-6.95-0.87-10.95l-3.07-32.42h-4h-1.5h-1.5H71.18l9.05,81.84c0.69,7.28,4.96,11.37,10.59,12.48
				c1.05,0.24,2.17,0.33,3.31,0.33c0.33,0,0.66,0,0.96-0.03h0.03c1.62-0.06,3.16-0.33,4.6-0.75c4.84-1.41,8.78-4.69,11.97-9.08
				l19.61-26.47c5.68-7.61,9.75-13.08,12.87-17.57c0.39-0.51,0.72-1.02,1.08-1.5c0.36-0.54,0.72-1.02,1.05-1.53
				c1.8-2.62,3.34-4.93,4.75-7.22c1.96,6.68,4.33,13.63,10.05,27.97l10.29,26.32c1.96,5.05,5.26,8.51,10.53,9.53
				c1.08,0.21,2.29,0.33,3.55,0.33c0.24,0,0.45,0,0.69-0.03c1.53-0.03,3.04-0.27,4.51-0.69c5.32-1.53,10.08-5.53,13.14-12.09
				l38.71-81.84H238.84z"/>
			<polygon class="st0" points="339.36,180.35 337.29,180.35 335.21,180.35 269.97,180.35 270.24,178.84 270.51,177.34 
				282.22,111.17 278.25,111.17 276.71,111.17 275.21,111.17 253.55,111.17 236.98,204.29 312.23,204.29 314.31,204.29 
				316.38,204.29 319.24,204.29 342.22,180.35 			"/>
			<polygon class="st1" points="274.24,96.43 142.68,104.1 282.22,104.1 			"/>
			<polygon class="st1" points="15.78,220.33 147.34,212.63 7.78,212.63 			"/>
			<polygon class="st0" points="257.74,79.43 257.74,93.96 272.06,93.2 			"/>
		</g>
	</g>
</g>
</svg>
