<?xml version="1.0" encoding="utf-8"?>
<!-- Generator: Adobe Illustrator 26.0.1, SVG Export Plug-In . SVG Version: 6.00 Build 0)  -->
<svg version="1.1" id="Layer_1" xmlns="http://www.w3.org/2000/svg" xmlns:xlink="http://www.w3.org/1999/xlink" x="0px" y="0px"
	 viewBox="0 0 350 350" style="enable-background:new 0 0 350 350;" xml:space="preserve">
<style type="text/css">
	.st0{fill:#24378C;}
</style>
<g>
	<g>
		<rect x="241.77" y="248.35" class="st0" width="3.22" height="2.76"/>
		<rect x="237.86" y="248.35" class="st0" width="3.23" height="2.76"/>
		<path class="st0" d="M247.08,261.21c0.29-0.07,0.54-0.18,0.74-0.31c0.2-0.14,0.36-0.31,0.49-0.54s0.22-0.49,0.27-0.81
			c0.06-0.32,0.08-0.69,0.08-1.11v-6.44h-3.21v5.67c0,0.34-0.1,0.54-0.3,0.59h-7.34c-0.2-0.05-0.3-0.24-0.3-0.59v-5.67h-3.22v6.44
			c0,0.42,0.03,0.79,0.08,1.11c0.06,0.32,0.15,0.59,0.27,0.81c0.13,0.22,0.29,0.4,0.5,0.54c0.2,0.14,0.45,0.24,0.73,0.31
			c0.43,0.1,0.99,0.14,1.67,0.14h7.86C246.11,261.35,246.66,261.3,247.08,261.21z"/>
		<path class="st0" d="M258.41,260.9c0.2-0.14,0.36-0.31,0.49-0.54c0.13-0.22,0.22-0.49,0.27-0.81c0.06-0.32,0.08-0.69,0.08-1.11
			v-9.21h-3.21v8.44c0,0.34-0.1,0.54-0.3,0.59h-1.81v-9h-3.23v9h-1.03v3.1h6.34c0.68,0,1.24-0.05,1.66-0.14
			C257.96,261.13,258.21,261.03,258.41,260.9z"/>
		<path class="st0" d="M262.56,252.02c-0.25,0.02-0.47,0.05-0.66,0.09c-0.31,0.06-0.57,0.15-0.79,0.27
			c-0.21,0.13-0.39,0.3-0.53,0.52c-0.14,0.22-0.24,0.5-0.3,0.82c-0.06,0.32-0.1,0.7-0.1,1.14v3.57c0,0.45,0.03,0.83,0.1,1.16
			c0.06,0.33,0.16,0.6,0.3,0.82c0.14,0.22,0.32,0.4,0.53,0.53s0.48,0.23,0.79,0.3c0.18,0.04,0.4,0.07,0.64,0.08
			c0.25,0.01,0.54,0.02,0.87,0.02h3.51v0.47c0,0.36-0.1,0.56-0.31,0.61h-1.91v3.08h2.21c0.33,0,0.62-0.01,0.87-0.02
			c0.25-0.01,0.46-0.04,0.64-0.08c0.31-0.07,0.57-0.17,0.79-0.3c0.22-0.13,0.4-0.31,0.54-0.53c0.14-0.22,0.24-0.49,0.3-0.81
			c0.06-0.32,0.1-0.7,0.1-1.15v-10.62h-6.74C263.1,251.99,262.82,252,262.56,252.02z M263.56,255.12c0.05-0.02,0.14-0.03,0.27-0.04
			c0.13-0.01,0.3-0.01,0.52-0.01h2.58v3.17h-3.08c-0.29,0-0.43-0.2-0.43-0.59v-1.98C263.42,255.33,263.47,255.14,263.56,255.12z"/>
		<rect x="313.52" y="248.35" class="st0" width="3.23" height="2.76"/>
		<rect x="309.62" y="248.35" class="st0" width="3.23" height="2.76"/>
		<path class="st0" d="M335.79,260.43c0.25,0.61,0.86,0.92,1.8,0.92h0.12h0.17h1.1c0.68,0,1.24-0.05,1.66-0.14
			c0.29-0.07,0.54-0.18,0.74-0.31c0.2-0.14,0.36-0.31,0.49-0.54c0.13-0.22,0.22-0.49,0.27-0.81c0.06-0.32,0.08-0.69,0.08-1.11v-9.19
			h-3.21v8.41c0,0.34-0.1,0.54-0.3,0.59h-1v0.02h-1.08c-0.2-0.07-0.3-0.27-0.3-0.61v-8.44h-3.23v8.41c0,0.32-0.11,0.51-0.33,0.58
			c-0.01,0.01-0.06,0.01-0.14,0.02c-0.09,0-0.19,0.01-0.3,0.01c-0.12,0-0.23,0.01-0.35,0.01c-0.06,0-0.09,0-0.13,0v-0.02h-0.99
			v-3.38c0-0.45-0.03-0.83-0.1-1.15c-0.07-0.32-0.17-0.59-0.32-0.81c-0.14-0.22-0.33-0.39-0.55-0.52c-0.23-0.13-0.5-0.22-0.82-0.27
			c-0.2-0.04-0.42-0.07-0.66-0.09c-0.24-0.02-0.51-0.03-0.8-0.03h-3.81c-0.33,0-0.63,0.01-0.89,0.03c-0.26,0.02-0.48,0.05-0.66,0.09
			c-0.6,0.11-1.04,0.38-1.31,0.81c-0.27,0.43-0.4,1.08-0.4,1.95v2.77c0,0.32-0.11,0.51-0.33,0.58c-0.01,0.01-0.06,0.01-0.14,0.02
			c-0.09,0-0.19,0.01-0.3,0.01c-0.12,0-0.23,0.01-0.35,0.01c-0.07,0-0.11,0-0.16,0v-0.02h-1.12v-3.38c0-0.45-0.03-0.83-0.1-1.15
			c-0.07-0.32-0.17-0.59-0.32-0.81c-0.14-0.22-0.33-0.39-0.56-0.52c-0.23-0.13-0.51-0.22-0.82-0.27c-0.2-0.04-0.42-0.07-0.66-0.09
			c-0.24-0.02-0.51-0.03-0.8-0.03h-3.47c-0.33,0-0.63,0.01-0.88,0.03c-0.25,0.02-0.47,0.05-0.66,0.09c-0.3,0.06-0.56,0.15-0.78,0.28
			c-0.22,0.13-0.4,0.31-0.54,0.53c-0.14,0.22-0.24,0.49-0.3,0.82c-0.06,0.32-0.1,0.7-0.1,1.13v3.38h-0.92h-0.17h-2.45h-0.17h-2.45
			h-0.17h-2.45h-0.17h-2.45h-0.17h-2.45h-0.17h-2.45h-0.17h-2.45h-0.17h-2.45h-0.17h-2.45h-0.17h-2.45h-0.17h-2.45h-0.17h-2.48
			h-0.13h-0.7c-0.2-0.05-0.3-0.24-0.3-0.59v-8.41h-3.22v9.19c0,0.42,0.03,0.79,0.08,1.11c0.06,0.32,0.15,0.59,0.27,0.81
			c0.13,0.22,0.29,0.4,0.5,0.54c0.2,0.14,0.45,0.24,0.75,0.31c0.41,0.1,0.97,0.14,1.66,0.14h0.97h0.13h2.48h0.17h2.45h0.17h2.45
			h0.17h2.45h0.17h2.45h0.17h2.45h0.17h2.45h0.17h2.45h0.17h2.45h0.17h2.45h0.17h2.45h0.17h2.45h0.17h11.91h0.12h1.27
			c0.38,0,0.69,0,0.94-0.01c0.24-0.01,0.42-0.03,0.53-0.06c0.67-0.12,1.08-0.4,1.24-0.85c0.25,0.61,0.85,0.92,1.79,0.92h6.68h0.14
			h1.24c0.38,0,0.69,0,0.94-0.01c0.24-0.01,0.42-0.03,0.53-0.06C335.22,261.16,335.63,260.87,335.79,260.43z M314.89,257.68
			c0,0.11-0.01,0.2-0.02,0.26c-0.01,0.06-0.03,0.11-0.04,0.15c-0.02,0.08-0.14,0.13-0.36,0.16h-2.84c-0.11-0.02-0.18-0.07-0.21-0.15
			s-0.05-0.21-0.05-0.41v-2c0-0.38,0.16-0.59,0.47-0.61h2.76c0.2,0.07,0.3,0.27,0.3,0.61V257.68z M327.61,258.25l-3.54,0.02
			c-0.21-0.07-0.31-0.27-0.31-0.61v-1.98c0-0.38,0.16-0.59,0.48-0.61h3.09c0.19,0.07,0.29,0.27,0.29,0.61V258.25z"/>
	</g>
	<g>
		<polygon class="st0" points="7.78,261.6 10.5,261.6 10.5,256.08 16.22,256.08 16.22,253.83 10.5,253.83 10.5,250.86 17.07,250.86 
			17.07,248.54 7.78,248.54 		"/>
		<path class="st0" d="M24.57,248.19c-1.92,0-3.45,0.63-4.58,1.88c-1.13,1.25-1.7,2.95-1.7,5.08c0,2.09,0.57,3.75,1.7,4.97
			c1.13,1.22,2.66,1.84,4.58,1.84c1.93,0,3.45-0.61,4.58-1.84c1.13-1.22,1.69-2.88,1.69-4.97c0-2.14-0.56-3.83-1.69-5.08
			C28.02,248.81,26.5,248.19,24.57,248.19z M27.18,258.45c-0.63,0.8-1.5,1.19-2.61,1.19c-1.12,0-1.99-0.4-2.61-1.19
			c-0.63-0.8-0.94-1.9-0.94-3.32c0-1.45,0.31-2.58,0.94-3.4c0.63-0.82,1.5-1.22,2.61-1.22c1.11,0,1.98,0.41,2.61,1.22
			c0.63,0.82,0.94,1.95,0.94,3.4C28.12,256.54,27.81,257.65,27.18,258.45z"/>
		<path class="st0" d="M43.52,260.82c-0.07-0.18-0.12-0.48-0.13-0.9l-0.06-2.14c-0.03-1.05-0.41-1.79-1.16-2.24
			c-0.13-0.08-0.28-0.15-0.44-0.21c0.29-0.11,0.54-0.24,0.77-0.39c0.85-0.59,1.28-1.5,1.28-2.76c0-1.09-0.38-1.97-1.14-2.63
			c-0.76-0.67-1.77-1-3.01-1h-6.57v13.06h2.73v-5.15h2.72c0.78,0,1.33,0.12,1.66,0.37c0.33,0.25,0.51,0.67,0.52,1.25l0.02,1.2
			c0.01,0.52,0.04,1,0.09,1.44c0.05,0.45,0.11,0.74,0.19,0.87h3.01v-0.35C43.74,261.14,43.59,261,43.52,260.82z M40.51,253.82
			c-0.35,0.29-0.88,0.43-1.58,0.43h-3.16v-3.46h3.27c0.67,0,1.17,0.14,1.51,0.43c0.34,0.29,0.51,0.72,0.51,1.29
			C41.04,253.09,40.86,253.53,40.51,253.82z"/>
		<path class="st0" d="M56.79,250.55c0.8,0,1.46,0.21,1.98,0.62c0.52,0.42,0.82,0.97,0.91,1.67h2.74c-0.18-1.43-0.78-2.56-1.8-3.4
			c-1.02-0.84-2.3-1.26-3.85-1.26c-1.84,0-3.3,0.63-4.38,1.88c-1.08,1.25-1.62,2.95-1.62,5.08c0,2.09,0.54,3.75,1.62,4.97
			c1.08,1.22,2.54,1.84,4.38,1.84c1.56,0,2.86-0.44,3.87-1.33c1.02-0.89,1.61-2.09,1.77-3.6h-2.74c-0.09,0.79-0.39,1.41-0.91,1.87
			c-0.52,0.46-1.18,0.69-1.98,0.69c-1.01,0-1.81-0.39-2.38-1.18c-0.57-0.79-0.86-1.88-0.86-3.28c0-1.44,0.29-2.56,0.86-3.36
			C54.98,250.96,55.77,250.55,56.79,250.55z"/>
		<path class="st0" d="M70.18,248.19c-1.92,0-3.45,0.63-4.58,1.88c-1.13,1.25-1.7,2.95-1.7,5.08c0,2.09,0.57,3.75,1.7,4.97
			c1.13,1.22,2.66,1.84,4.58,1.84c1.93,0,3.45-0.61,4.58-1.84c1.13-1.22,1.69-2.88,1.69-4.97c0-2.14-0.56-3.83-1.69-5.08
			C73.64,248.81,72.11,248.19,70.18,248.19z M72.79,258.45c-0.63,0.8-1.5,1.19-2.61,1.19c-1.12,0-1.99-0.4-2.61-1.19
			c-0.63-0.8-0.94-1.9-0.94-3.32c0-1.45,0.31-2.58,0.94-3.4c0.63-0.82,1.5-1.22,2.61-1.22c1.11,0,1.98,0.41,2.61,1.22
			c0.63,0.82,0.94,1.95,0.94,3.4C73.73,256.54,73.42,257.65,72.79,258.45z"/>
		<polygon class="st0" points="86.61,257.7 81.37,248.54 78.51,248.54 78.51,261.6 81.05,261.6 81.05,252.2 86.44,261.6 
			89.16,261.6 89.16,248.54 86.61,248.54 		"/>
		<polygon class="st0" points="90.65,250.86 94.6,250.86 94.6,261.6 97.33,261.6 97.33,250.86 101.27,250.86 101.27,248.54 
			90.65,248.54 		"/>
		<path class="st0" d="M113.37,260.82c-0.07-0.18-0.12-0.48-0.13-0.9l-0.06-2.14c-0.03-1.05-0.41-1.79-1.16-2.24
			c-0.13-0.08-0.28-0.15-0.44-0.21c0.29-0.11,0.54-0.24,0.77-0.39c0.85-0.59,1.28-1.5,1.28-2.76c0-1.09-0.38-1.97-1.14-2.63
			c-0.76-0.67-1.77-1-3.01-1h-6.57v13.06h2.73v-5.15h2.72c0.78,0,1.33,0.12,1.66,0.37c0.33,0.25,0.51,0.67,0.52,1.25l0.02,1.2
			c0.01,0.52,0.04,1,0.09,1.44c0.05,0.45,0.11,0.74,0.19,0.87h3.01v-0.35C113.6,261.14,113.45,261,113.37,260.82z M110.36,253.82
			c-0.35,0.29-0.88,0.43-1.58,0.43h-3.16v-3.46h3.27c0.67,0,1.17,0.14,1.51,0.43c0.34,0.29,0.51,0.72,0.51,1.29
			C110.89,253.09,110.72,253.53,110.36,253.82z"/>
		<path class="st0" d="M119.62,248.54l-4.61,13.06h2.81l0.87-2.65h4.95l0.88,2.65h2.9l-4.62-13.06H119.62z M119.44,256.7l1.73-5.25
			l1.75,5.25H119.44z"/>
		<path class="st0" d="M134.6,250.55c0.8,0,1.46,0.21,1.98,0.62c0.52,0.42,0.82,0.97,0.91,1.67h2.74c-0.18-1.43-0.78-2.56-1.8-3.4
			c-1.02-0.84-2.3-1.26-3.85-1.26c-1.84,0-3.3,0.63-4.38,1.88s-1.62,2.95-1.62,5.08c0,2.09,0.54,3.75,1.62,4.97
			c1.08,1.22,2.54,1.84,4.38,1.84c1.56,0,2.86-0.44,3.87-1.33c1.02-0.89,1.61-2.09,1.77-3.6h-2.74c-0.09,0.79-0.39,1.41-0.91,1.87
			c-0.52,0.46-1.18,0.69-1.98,0.69c-1.01,0-1.81-0.39-2.38-1.18c-0.57-0.79-0.86-1.88-0.86-3.28c0-1.44,0.29-2.56,0.86-3.36
			C132.79,250.96,133.58,250.55,134.6,250.55z"/>
		<polygon class="st0" points="141.17,250.86 145.12,250.86 145.12,261.6 147.85,261.6 147.85,250.86 151.79,250.86 151.79,248.54 
			141.17,248.54 		"/>
		<rect x="153.19" y="248.54" class="st0" width="2.73" height="13.06"/>
		<polygon class="st0" points="166.43,257.7 161.19,248.54 158.33,248.54 158.33,261.6 160.87,261.6 160.87,252.2 166.26,261.6 
			168.98,261.6 168.98,248.54 166.43,248.54 		"/>
		<path class="st0" d="M177.71,256.79h3.07v0.03c-0.15,0.61-0.39,1.15-0.71,1.6c-0.59,0.81-1.42,1.21-2.47,1.21
			c-1.24,0-2.18-0.38-2.82-1.15c-0.64-0.78-0.96-1.91-0.96-3.39c0-1.46,0.34-2.59,1.01-3.41c0.67-0.82,1.6-1.23,2.78-1.23
			c0.69,0,1.32,0.21,1.88,0.64c0.57,0.43,0.89,0.93,0.95,1.5h2.74c-0.17-1.35-0.77-2.43-1.8-3.22c-1.03-0.79-2.33-1.19-3.92-1.19
			c-1.98,0-3.55,0.63-4.71,1.88c-1.16,1.25-1.74,2.95-1.74,5.08c0,2.09,0.56,3.75,1.67,4.97c1.12,1.22,2.63,1.84,4.53,1.84
			c1.56,0,2.8-0.61,3.72-1.84l0.16-0.21l0.27,1.68h1.82v-7.04h-5.47V256.79z"/>
	</g>
	<g>
		<path class="st0" d="M303.14,104.98h9.31c0,0,0.19,15.39,0.17,22.22c-0.01,2.22-0.27,4.4-1.1,6.5c-1.48,3.73-4.23,6.17-7.82,7.74
			c-2.58,1.13-5.29,1.81-8.12,1.9c-2.21,0.07-50.6,0.1-72.58,0.1c-3.13,0-6.23-0.14-9.26-1.05c-4.98-1.5-7.36-5.04-7.98-9.99
			c-0.14-1.09-0.17-46.42-0.14-46.81c0.06-0.69,0.46-1.07,1.14-1.08c2.6-0.02,5.2-0.02,7.8-0.01c0.78,0,1.21,0.37,1.19,1.2
			c-0.01,0.58,0,40.51,0,40.58c-0.21,5.67,2.3,6.33,6.6,7c0.83,0.13,75.1-0.22,77.23-0.46c1.75-0.2,2.81-1.32,3.17-3
			C303,128.74,303.14,104.98,303.14,104.98z"/>
		<path class="st0" d="M187.63,226.28H177.5c0,0-0.12-20.17,0-29.26c0.06-4.64,0.83-9.17,3.28-13.27c2.75-4.61,6.67-7.77,11.74-9.41
			c5.77-1.87,11.63-1.99,17.44-0.09c5.35,1.75,9.37,5.12,12.07,10.11c2.3,4.25,2.96,8.84,3,13.55c0.06,8.9,0,28.35,0,28.35h-10.23
			c0,0,0.01-8.73,0-12.04c-0.01-2.26-0.09-2.36-2.25-2.36c-7.54-0.01-15.08-0.01-22.62,0c-2.1,0-2.17,0.09-2.18,2.22
			C187.73,217.39,187.63,226.28,187.63,226.28z M214.54,202.75c0-2.95,0.19-5.62-0.04-8.26c-0.56-6.65-4.77-12.03-12.37-12.38
			c-5.97-0.27-11.05,2.52-13.27,8.23c-1.55,4-1.06,8.15-1.07,12.41C196.81,202.75,205.61,202.75,214.54,202.75z"/>
		<path class="st0" d="M342.2,226.3l-10.21-0.05c0,0,0.02-9.49-0.01-12.42c-0.01-1.78-0.17-1.97-1.84-1.97
			c-7.8-0.02-15.61-0.02-23.41,0c-1.6,0-1.8,0.23-1.81,1.82c-0.02,3.25,0,12.2,0,12.2L294.64,226c0,0-0.04-20.04,0.03-28.37
			c0.04-4.71,0.7-9.32,3.08-13.53c1.87-3.3,4.38-5.99,7.67-7.83c7.24-4.04,14.9-4.46,22.6-1.71c6.59,2.36,10.81,7.22,12.9,13.91
			c0.9,2.88,1.25,5.86,1.27,8.85C342.25,206.42,342.2,226.3,342.2,226.3z M331.84,202.57c-0.02-3.36,0.29-6.68-0.4-9.94
			c-0.86-4.07-2.95-7.35-6.8-9.22c-2.64-1.29-5.46-1.54-8.36-1.13c-4.45,0.63-7.71,2.93-9.72,6.93c-2.14,4.26-1.64,8.82-1.58,13.29
			C306.64,202.99,329.63,203.06,331.84,202.57z"/>
		<path class="st0" d="M237,226.19c0,0-0.01-50.46,0-50.85c0.01-0.79,0.41-1.2,1.2-1.22c0.26-0.01,0.52-0.02,0.78-0.02
			c6.57,0.03,13.14-0.09,19.7,0.15c7.07,0.26,13.57,2.36,18.87,7.29c3.24,3.01,5.54,6.68,6.77,10.98
			c1.63,5.68,1.54,11.35-0.47,16.86c-2.28,6.23-6.45,10.91-12.52,13.78c-4.3,2.04-8.86,3.04-13.58,3.15
			C251.38,226.46,237,226.19,237,226.19z M247.34,216.72c0.28,0.16,0.39,0.27,0.5,0.27c4.8,0.16,9.61,0.52,14.33-0.78
			c4.42-1.22,8.14-3.5,10.48-7.54c5.74-9.9,0.46-21.85-10.68-24.47c-4.36-1.03-8.76-0.96-13.18-0.99c-1.25-0.01-1.45,0.24-1.54,1.48
			c-0.02,0.32-0.01,0.65-0.01,0.97c0,9.75,0,19.5,0.01,29.25C247.25,215.57,247.31,216.2,247.34,216.72z"/>
		<path class="st0" d="M142.49,226.33c-3.57,0.07-6.78,0.19-10.12-0.06c-0.11-1.38-0.17-2.54-0.31-3.69
			c-0.55-4.53-1.85-8.74-5.09-12.17c-2.82-2.99-6.38-4.15-10.33-4.3c-2.53-0.1-5.07-0.04-7.61-0.01c-1.84,0.03-1.91,0.12-1.92,2.07
			c-0.01,3.9,0,17.83,0,17.83l-9.82,0.11c0,0-0.12-50.4-0.12-50.79c0-0.81,0.45-1.18,1.22-1.19c0.78-0.01,18.21-0.06,26.14,0.22
			c4.88,0.17,9.23,1.95,12.5,5.87c4.96,5.95,4.63,16.72-3.89,21.61c-0.49,0.28-0.97,0.57-1.71,1.01
			C140.57,208.19,142.25,216.75,142.49,226.33z M121.73,197.86c2.34-0.09,4.45-0.86,6.18-2.48c3.95-3.68,2.67-10.31-2.38-12.07
			c-1.26-0.44-2.67-0.6-4.02-0.63c-4.28-0.08-8.56-0.06-12.84-0.03c-1.35,0.01-1.56,0.22-1.57,1.62c-0.03,4.02-0.02,8.04,0.01,12.06
			c0.01,1.43,0.13,1.55,1.57,1.57C110.9,197.95,119.59,197.94,121.73,197.86z"/>
		<path class="st0" d="M141.89,133.44c1.06-0.05,42.23-0.34,43.48-0.62c2.09-0.46,3.41-1.81,3.93-3.89c0.68-2.76,0.68-5.54,0.04-8.3
			c-0.6-2.54-1.8-3.62-4.42-3.95c-1.35-0.17-33.27-0.25-33.72-0.27c-0.69-0.02-1.14-0.35-1.14-1.06c-0.02-2.73-0.03-5.46-0.01-8.19
			c0.01-0.61,0.44-0.92,1.04-0.94c0.45-0.02,20.48-0.02,30.03-0.03c2.93,0,5.84,0.18,8.65,1.15c3.34,1.16,5.64,3.37,6.85,6.7
			c1.61,4.43,1.74,9.04,1.52,13.66c-0.1,2-0.34,4.02-0.77,5.98c-1.38,6.31-5.16,9.6-11.6,10.22c-1.87,0.18-41.72,0.23-41.72,0.23
			s-2.11-0.05-2.12-2.05C141.87,139.31,141.89,136.52,141.89,133.44z"/>
		<path class="st0" d="M98.55,116.73c0.98-4.84,4.01-7.99,8.8-9.29c1.73-0.47,3.53-0.81,5.31-0.95c3.93-0.3,7.85-0.27,11.73,0.66
			c5.45,1.3,8.92,4.56,9.89,10.11c0.95,5.43,0.94,10.92-0.03,16.36c-0.96,5.41-4.36,8.62-9.66,9.82
			c-6.22,1.41-12.42,1.37-18.51-0.63c-3.59-1.18-6.09-3.6-7.13-7.29c-0.48-1.73-0.81-3.52-0.98-5.3
			C97.8,128.54,98,119.49,98.55,116.73z M124.3,119.73c-0.52-2.49-2.21-4.01-4.66-4.62c-1.89-0.47-3.8-0.54-5.74-0.18
			c-3.52,0.65-5.4,2.25-5.71,5.78c-0.28,3.25-0.23,6.56,0.07,9.81c0.3,3.22,2.39,5.04,5.58,5.44c1.08,0.14,2.18,0.13,3.27,0.09
			c4.33-0.17,7.5-4.05,7.6-8.05C124.72,127.03,124.66,121.48,124.3,119.73z"/>
		<path class="st0" d="M340.4,105.51c0,0,0.4,44.6-0.49,48.4c-0.92,4.51-3.74,7.32-8.15,8.5c-4.59,1.23-9.27,1.05-13.94,0.64
			c-1.57-0.14-1.77-0.43-1.79-1.96c-0.03-2.32-0.01-4.64-0.01-7.08c0.54,0,0.86-0.07,1.14,0.01c2.67,0.75,5.38,0.83,8.11,0.49
			c2.73-0.34,4.19-1.73,4.63-4.46c0.08-1.79,0.35-42.78,0.37-43.43c0.02-0.69,0.36-1.1,1.07-1.11
			C334.25,105.51,340.4,105.51,340.4,105.51z"/>
		<path class="st0" d="M164.38,226.23h-10.21c0,0,0-50.43,0-50.76c-0.01-0.86,0.39-1.36,1.28-1.36c2.6-0.01,5.2-0.01,7.8,0
			c0.81,0,1.15,0.48,1.13,1.26C164.38,175.76,164.38,226.23,164.38,226.23z"/>
		<path class="st0" d="M117.38,97.79c-0.01-2.51,2.23-4.75,4.69-4.7c2.58,0.06,4.69,2.17,4.69,4.71c0,2.54-2.18,4.72-4.69,4.7
			C119.51,102.48,117.39,100.35,117.38,97.79z"/>
		<path class="st0" d="M290.38,157.63c-2.71,0.02-4.77-1.93-4.81-4.56c-0.04-2.6,2.06-4.77,4.63-4.79c2.66-0.02,4.78,1.99,4.84,4.59
			C295.09,155.44,292.97,157.6,290.38,157.63z"/>
		<path class="st0" d="M301.79,157.65c-2.59,0.01-4.78-2.14-4.76-4.67c0.01-2.55,2.2-4.71,4.75-4.71c2.61,0,4.71,2.09,4.72,4.7
			C306.52,155.56,304.43,157.64,301.79,157.65z"/>
		<path class="st0" d="M115.29,97.81c-0.02,2.73-2.08,4.68-4.88,4.61c-2.5-0.06-4.45-2.1-4.45-4.65c0.01-2.56,2.16-4.72,4.69-4.69
			C113.23,93.11,115.31,95.23,115.29,97.81z"/>
		<g>
			<path class="st0" d="M228.77,117.61v-13h5.77c1,0,1.77,0.08,2.3,0.24c0.79,0.23,1.39,0.68,1.79,1.35
				c0.36,0.59,0.54,1.24,0.54,1.96c0,2.02-1.22,3.2-3.67,3.54c0.46,0.22,0.8,0.43,1.03,0.64c0.52,0.47,1,1.05,1.43,1.73l2.27,3.54
				h-2.16l-1.73-2.7c-0.38-0.61-0.7-1.09-0.96-1.43c-0.46-0.62-0.84-1.04-1.15-1.23c-0.27-0.18-0.53-0.3-0.79-0.36
				c-0.18-0.04-0.5-0.06-0.96-0.06h-2v5.77H228.77z M230.49,110.34h3.7c1.46,0,2.42-0.34,2.85-1.02c0.24-0.35,0.35-0.74,0.35-1.16
				c0-1.41-0.93-2.11-2.79-2.11h-4.12V110.34z"/>
			<path class="st0" d="M241.78,117.61v-13h4.89c1.87,0,3.14,0.54,3.81,1.6c0.34,0.54,0.5,1.12,0.5,1.71c0,1.24-0.6,2.16-1.81,2.76
				c1.62,0.48,2.42,1.53,2.42,3.16c0,1.27-0.45,2.24-1.34,2.91c-0.76,0.57-1.93,0.86-3.52,0.86H241.78z M243.51,110.06h2.81
				c0.76,0,1.3-0.05,1.64-0.15c0.88-0.27,1.32-0.86,1.32-1.77c0-0.95-0.4-1.56-1.19-1.8c-0.39-0.12-1.05-0.19-1.98-0.19h-2.6V110.06
				z M243.51,116.06h3.24c0.55,0,0.94-0.02,1.17-0.06c0.79-0.14,1.34-0.5,1.65-1.07c0.17-0.31,0.26-0.68,0.26-1.09
				c0-1.04-0.47-1.71-1.4-2.02c-0.44-0.14-1.08-0.22-1.91-0.22h-3.01V116.06z"/>
			<path class="st0" d="M257.27,117.61v-11.46H253v-1.54h10.3v1.54H259v11.46H257.27z"/>
			<path class="st0" d="M274.34,113.05l1.72,0.44c-0.35,1.37-0.97,2.43-1.88,3.18c-0.94,0.78-2.11,1.16-3.5,1.16
				c-2.67,0-4.48-1.11-5.42-3.34c-0.46-1.08-0.69-2.25-0.69-3.49c0-2.8,1-4.74,2.99-5.83c0.95-0.53,2-0.79,3.15-0.79
				c1.28,0,2.37,0.33,3.26,0.98c0.89,0.65,1.52,1.59,1.87,2.81l-1.7,0.4c-0.58-1.8-1.74-2.7-3.48-2.7c-2.02,0-3.33,0.88-3.93,2.64
				c-0.27,0.81-0.4,1.64-0.4,2.5c0,2.36,0.66,3.94,1.98,4.73c0.68,0.41,1.42,0.61,2.21,0.61
				C272.59,116.35,273.86,115.25,274.34,113.05z"/>
			<path class="st0" d="M277.65,111.28c0-2.01,0.52-3.64,1.57-4.89c1.12-1.33,2.67-2,4.66-2c1.19,0,2.26,0.28,3.22,0.84
				c0.98,0.57,1.72,1.37,2.23,2.41c0.51,1.03,0.76,2.2,0.76,3.5c0,1.25-0.24,2.38-0.71,3.39c-0.54,1.12-1.31,1.95-2.33,2.51
				c-0.98,0.54-2.03,0.81-3.17,0.81c-1.2,0-2.28-0.28-3.25-0.86c-0.97-0.58-1.71-1.4-2.22-2.45
				C277.9,113.51,277.65,112.42,277.65,111.28z M279.42,111.31c0,1.43,0.38,2.61,1.13,3.54c0.81,1,1.92,1.5,3.32,1.5
				c1.45,0,2.58-0.52,3.38-1.57c0.72-0.94,1.09-2.16,1.09-3.66c0-2.18-0.7-3.7-2.11-4.59c-0.69-0.43-1.47-0.65-2.32-0.65
				c-1.54,0-2.69,0.54-3.46,1.62C279.76,108.45,279.42,109.72,279.42,111.31z"/>
		</g>
	</g>
	<g>
		<polygon class="st0" points="74.4,226.23 28.91,226.23 28.91,179.6 74.4,157.09 		"/>
		<polygon class="st0" points="16.05,226.23 7.78,226.23 7.78,160.31 74.4,129.06 74.4,138.48 16.05,166.05 		"/>
		<polygon class="st0" points="74.4,109.15 74.4,84.5 7.78,116.66 7.78,141.47 		"/>
	</g>
</g>
</svg>
