<?xml version="1.0" encoding="utf-8"?>
<!-- Generator: Adobe Illustrator 26.0.1, SVG Export Plug-In . SVG Version: 6.00 Build 0)  -->
<svg version="1.1" id="Layer_1" xmlns="http://www.w3.org/2000/svg" xmlns:xlink="http://www.w3.org/1999/xlink" x="0px" y="0px"
	 viewBox="0 0 350 350" style="enable-background:new 0 0 350 350;" xml:space="preserve">
<style type="text/css">
	.st0{fill:#641311;}
	.st1{fill-rule:evenodd;clip-rule:evenodd;fill:#A45F30;}
	.st2{fill:#A45F30;}
	.st3{fill-rule:evenodd;clip-rule:evenodd;fill:#641311;}
</style>
<g>
	<g>
		<g>
			<path class="st0" d="M80.79,232.81h2.37c0,0.74,0.21,1.35,0.62,1.83c0.41,0.48,0.93,0.72,1.55,0.72c0.59,0,1.07-0.18,1.45-0.54
				c0.38-0.36,0.57-0.82,0.57-1.39c0-0.49-0.13-0.91-0.4-1.25c-0.27-0.34-0.7-0.63-1.3-0.87c-0.2-0.08-0.49-0.2-0.87-0.33
				c-1-0.37-1.63-0.67-1.9-0.89c-0.5-0.4-0.87-0.85-1.11-1.36c-0.24-0.51-0.36-1.09-0.36-1.76c0-1.14,0.4-2.11,1.19-2.91
				c0.8-0.8,1.77-1.2,2.92-1.2c1.2,0,2.15,0.35,2.86,1.05c0.71,0.7,1.09,1.69,1.16,2.96h-2.43c-0.04-0.52-0.21-0.92-0.51-1.21
				c-0.3-0.29-0.7-0.43-1.2-0.43c-0.45,0-0.83,0.16-1.13,0.47c-0.3,0.31-0.45,0.7-0.45,1.16c0,0.78,0.68,1.43,2.04,1.93
				c0.38,0.14,0.68,0.26,0.91,0.34c1.07,0.43,1.84,0.97,2.29,1.62c0.46,0.65,0.68,1.51,0.68,2.59c0,1.26-0.43,2.31-1.28,3.14
				c-0.85,0.83-1.92,1.25-3.22,1.25c-1.3,0-2.35-0.44-3.15-1.31C81.3,235.53,80.86,234.33,80.79,232.81z"/>
			<path class="st0" d="M104.33,237.35v-1.72c-0.65,0.67-1.37,1.18-2.16,1.53c-0.8,0.34-1.64,0.52-2.55,0.52
				c-2.11,0-3.86-0.7-5.26-2.11c-1.4-1.41-2.09-3.17-2.09-5.29c0-0.99,0.17-1.92,0.52-2.81c0.35-0.89,0.85-1.66,1.49-2.34
				c0.71-0.74,1.48-1.29,2.32-1.64c0.84-0.35,1.79-0.53,2.87-0.53c0.96,0,1.85,0.17,2.65,0.51c0.81,0.34,1.54,0.86,2.21,1.54v-1.7
				h2.55v14.04H104.33z M94.88,230.24c0,1.42,0.47,2.61,1.41,3.57c0.94,0.96,2.09,1.44,3.45,1.44c1.24,0,2.34-0.48,3.29-1.45
				c0.95-0.97,1.42-2.1,1.42-3.39c0-1.38-0.47-2.56-1.41-3.54s-2.06-1.47-3.35-1.47c-1.33,0-2.46,0.47-3.4,1.4
				C95.35,227.75,94.88,228.89,94.88,230.24z"/>
			<path class="st0" d="M114.08,237.35h-2.51v-11.85h-1.67v-2.2h1.6v-0.42c0-1.44,0.4-2.52,1.2-3.25c0.8-0.73,2-1.09,3.59-1.09v2.34
				h-0.22c-0.75,0-1.29,0.17-1.61,0.51s-0.49,0.91-0.49,1.71v0.2h2.31v2.2h-2.2V237.35z"/>
			<path class="st0" d="M121.67,221.67h-2.5v-2.9h2.5V221.67z M119.17,237.35v-14.04h2.5v14.04H119.17z"/>
			<path class="st0" d="M128.26,237.35h-2.53v-14.04h2.43v1.6c0.53-0.63,1.11-1.09,1.74-1.39c0.63-0.29,1.36-0.44,2.18-0.44
				c1.84,0,3.25,0.54,4.23,1.62c0.98,1.08,1.47,2.63,1.47,4.65v8h-2.54v-7.45c0-1.49-0.28-2.59-0.83-3.31
				c-0.55-0.72-1.41-1.08-2.57-1.08c-1.26,0-2.17,0.42-2.74,1.27c-0.57,0.85-0.85,2.24-0.85,4.19V237.35z"/>
			<path class="st0" d="M153.14,237.35v-1.72c-0.65,0.67-1.37,1.18-2.16,1.53c-0.8,0.34-1.64,0.52-2.55,0.52
				c-2.11,0-3.86-0.7-5.26-2.11c-1.4-1.41-2.09-3.17-2.09-5.29c0-0.99,0.17-1.92,0.52-2.81c0.35-0.89,0.85-1.66,1.49-2.34
				c0.71-0.74,1.48-1.29,2.32-1.64c0.84-0.35,1.79-0.53,2.87-0.53c0.96,0,1.85,0.17,2.65,0.51c0.81,0.34,1.54,0.86,2.21,1.54v-1.7
				h2.55v14.04H153.14z M143.69,230.24c0,1.42,0.47,2.61,1.41,3.57c0.94,0.96,2.09,1.44,3.45,1.44c1.24,0,2.34-0.48,3.29-1.45
				c0.95-0.97,1.42-2.1,1.42-3.39c0-1.38-0.47-2.56-1.41-3.54s-2.06-1.47-3.35-1.47c-1.33,0-2.46,0.47-3.4,1.4
				C144.16,227.75,143.69,228.89,143.69,230.24z"/>
			<path class="st0" d="M160.53,237.35v-11.74h-1.99v-2.3h1.99v-4.54h2.51v4.54h1.99v2.3h-1.99v11.74H160.53z"/>
			<path class="st0" d="M187.78,237.35v-1.72c-0.65,0.67-1.37,1.18-2.16,1.53c-0.8,0.34-1.64,0.52-2.55,0.52
				c-2.11,0-3.86-0.7-5.26-2.11c-1.4-1.41-2.09-3.17-2.09-5.29c0-0.99,0.17-1.92,0.52-2.81c0.35-0.89,0.85-1.66,1.49-2.34
				c0.71-0.74,1.48-1.29,2.32-1.64c0.84-0.35,1.79-0.53,2.87-0.53c0.96,0,1.85,0.17,2.65,0.51c0.81,0.34,1.54,0.86,2.21,1.54v-1.7
				h2.55v14.04H187.78z M178.33,230.24c0,1.42,0.47,2.61,1.41,3.57c0.94,0.96,2.09,1.44,3.45,1.44c1.24,0,2.34-0.48,3.29-1.45
				c0.95-0.97,1.42-2.1,1.42-3.39c0-1.38-0.47-2.56-1.41-3.54s-2.06-1.47-3.35-1.47c-1.33,0-2.46,0.47-3.4,1.4
				C178.8,227.75,178.33,228.89,178.33,230.24z"/>
			<path class="st0" d="M194.31,237.35v-18.59h2.5v18.59H194.31z"/>
			<path class="st0" d="M199.9,232.81h2.37c0,0.74,0.21,1.35,0.62,1.83c0.41,0.48,0.93,0.72,1.55,0.72c0.59,0,1.07-0.18,1.45-0.54
				c0.38-0.36,0.57-0.82,0.57-1.39c0-0.49-0.13-0.91-0.4-1.25c-0.27-0.34-0.7-0.63-1.3-0.87c-0.2-0.08-0.49-0.2-0.87-0.33
				c-1-0.37-1.63-0.67-1.9-0.89c-0.5-0.4-0.87-0.85-1.11-1.36c-0.24-0.51-0.36-1.09-0.36-1.76c0-1.14,0.4-2.11,1.19-2.91
				c0.8-0.8,1.77-1.2,2.92-1.2c1.2,0,2.15,0.35,2.86,1.05c0.71,0.7,1.09,1.69,1.16,2.96h-2.43c-0.04-0.52-0.21-0.92-0.51-1.21
				c-0.3-0.29-0.7-0.43-1.2-0.43c-0.45,0-0.83,0.16-1.13,0.47c-0.3,0.31-0.45,0.7-0.45,1.16c0,0.78,0.68,1.43,2.04,1.93
				c0.38,0.14,0.68,0.26,0.91,0.34c1.07,0.43,1.84,0.97,2.29,1.62c0.46,0.65,0.68,1.51,0.68,2.59c0,1.26-0.43,2.31-1.28,3.14
				c-0.85,0.83-1.92,1.25-3.22,1.25c-1.3,0-2.35-0.44-3.15-1.31C200.42,235.53,199.98,234.33,199.9,232.81z"/>
			<path class="st0" d="M223.44,237.35v-1.72c-0.65,0.67-1.37,1.18-2.16,1.53c-0.8,0.34-1.64,0.52-2.55,0.52
				c-2.11,0-3.86-0.7-5.26-2.11c-1.4-1.41-2.09-3.17-2.09-5.29c0-0.99,0.17-1.92,0.52-2.81c0.35-0.89,0.85-1.66,1.49-2.34
				c0.71-0.74,1.48-1.29,2.32-1.64c0.84-0.35,1.79-0.53,2.87-0.53c0.96,0,1.85,0.17,2.65,0.51c0.81,0.34,1.54,0.86,2.21,1.54v-1.7
				h2.55v14.04H223.44z M213.99,230.24c0,1.42,0.47,2.61,1.41,3.57c0.94,0.96,2.09,1.44,3.45,1.44c1.24,0,2.34-0.48,3.29-1.45
				c0.95-0.97,1.42-2.1,1.42-3.39c0-1.38-0.47-2.56-1.41-3.54s-2.06-1.47-3.35-1.47c-1.33,0-2.46,0.47-3.4,1.4
				C214.46,227.75,213.99,228.89,213.99,230.24z"/>
			<path class="st0" d="M232.5,237.35h-2.53v-18.59h2.53v6.14c0.41-0.6,0.94-1.06,1.59-1.37c0.65-0.31,1.41-0.46,2.28-0.46
				c1.7,0,3.02,0.54,3.97,1.63c0.94,1.09,1.42,2.62,1.42,4.58v8.05h-2.53v-7.24c0-1.56-0.26-2.71-0.79-3.47
				c-0.53-0.76-1.34-1.14-2.43-1.14c-0.66,0-1.25,0.15-1.76,0.46c-0.51,0.31-0.92,0.75-1.22,1.33c-0.19,0.35-0.32,0.77-0.4,1.28
				c-0.08,0.5-0.12,1.3-0.12,2.4V237.35z"/>
			<path class="st0" d="M248.34,237.35h-2.53v-14.04h2.37v1.62c0.42-0.62,0.9-1.08,1.44-1.38s1.17-0.46,1.88-0.47v2.64
				c-1.13,0.09-1.94,0.42-2.43,1c-0.49,0.58-0.73,1.52-0.73,2.81V237.35z"/>
			<path class="st0" d="M265.74,237.35v-1.72c-0.65,0.67-1.37,1.18-2.16,1.53c-0.8,0.34-1.64,0.52-2.55,0.52
				c-2.11,0-3.86-0.7-5.26-2.11c-1.4-1.41-2.09-3.17-2.09-5.29c0-0.99,0.17-1.92,0.52-2.81c0.35-0.89,0.85-1.66,1.49-2.34
				c0.71-0.74,1.48-1.29,2.32-1.64c0.84-0.35,1.79-0.53,2.87-0.53c0.96,0,1.85,0.17,2.65,0.51c0.81,0.34,1.54,0.86,2.21,1.54v-1.7
				h2.55v14.04H265.74z M256.29,230.24c0,1.42,0.47,2.61,1.41,3.57c0.94,0.96,2.09,1.44,3.45,1.44c1.24,0,2.34-0.48,3.29-1.45
				c0.95-0.97,1.42-2.1,1.42-3.39c0-1.38-0.47-2.56-1.41-3.54c-0.94-0.98-2.06-1.47-3.35-1.47c-1.33,0-2.46,0.47-3.4,1.4
				C256.76,227.75,256.29,228.89,256.29,230.24z"/>
		</g>
	</g>
	<path class="st1" d="M337.16,134.83l-0.06,0.03c-0.11-0.07-0.23-0.15-0.35-0.2c-2.08-0.96-4.15-1.98-6.26-2.88
		c-1.76-0.75-3.09-1.87-3.87-3.62c-0.1-0.21-0.2-0.42-0.32-0.62c-0.63-1.04-1.18-2.15-1.94-3.09c-1.74-2.13-4.7-2.42-6.93-0.8
		c-1.34,0.97-2.27,2.33-3.28,3.59c-0.82,1.03-1.72,1.9-3.04,2.29c-1.64,0.48-3.24,1.04-4.86,1.61c-1.45,0.51-2.69,1.34-3.55,2.67
		c-0.41,0.62-0.85,1.2-1.27,1.81c-1.13,1.6-2.26,3.19-3.75,4.49c-1.14,1-2.42,1.67-3.95,1.82c-2.36,0.23-4.31-1.19-4.91-3.76
		c-0.32-1.42-0.36-2.91-0.52-4.37c-0.11-1-0.18-2-0.35-2.99c-0.06-0.33-0.04-0.49,0.2-0.72c0.75-0.72,1.07-1.61,0.97-2.67
		c-0.71-0.1-1.26,0.13-1.79,0.45c-0.12,0.07-0.39,0.08-0.48,0c-1.39-1.26-2.93-1.32-4.57-0.64c-0.87,0.35-1.77,0.64-2.56,1.11
		c-0.61,0.36-1.09,0.7-1.7,0.11c-0.02-0.02-0.03-0.01-0.06-0.02c-0.49-0.11-0.98-0.23-1.47-0.34c-1.55-0.38-3.07-0.29-4.54,0.32
		c-0.82,0.34-1.26,0.98-1.42,1.9c1.41-0.68,1.41-0.68,1.82-0.54c-0.29,0.15-0.58,0.28-0.85,0.45c-0.29,0.18-0.57,0.38-0.83,0.61
		c-0.5,0.45-0.88,1-0.95,1.7c-0.03,0.35-0.05,0.68,0.45,0.76c0.12,0.02,0.24,0.24,0.32,0.38c0.33,0.73,0.92,1.01,1.66,0.74
		c0.32-0.11,0.61-0.3,0.89-0.49c0.58-0.38,1.18-0.49,1.85-0.31c2.12,0.56,3.77,1.79,5.12,3.48c1.14,1.42,1.71,3.11,2.34,4.77
		c0.71,1.9,1.4,3.82,2.3,5.63c1.09,2.16,2.86,3.59,5.31,4c2.76,0.45,5.45,0.16,8.05-0.86c0.89-0.35,1.74-0.82,2.64-1.24
		c0.03,0.09,0.09,0.18,0.11,0.28c0.15,1.09,0.33,2.17,0.45,3.27l-40.44,20.35c-2.61-5.53-4.07-11.71-4.07-18.23
		c0-23.62,19.15-42.77,42.77-42.77C315.76,112.28,329.94,121.41,337.16,134.83z"/>
	<g>
		<g>
			<path class="st0" d="M16.6,183.31c-2.59,3.29-2.64,8.17,0,11.17c-4.41,0-6.99-0.76-8.35-3.35c-2,5.41,2.47,8.23,9.23,8.23h19.93
				l1.88-4.88h-7.64c-8.76,0-11.29-7.35-3.17-11.82c3.23-1.82,6.47-1.94,12.05-1.94H43l2.12-4.88h-6.99
				C29.6,175.85,20.95,177.85,16.6,183.31z"/>
			<polygon class="st0" points="62.92,165.03 48.05,199.36 57.87,199.36 72.56,165.03 			"/>
			<path class="st0" d="M197.41,165.03l-12.23,27.45c-0.41,0.94-1.35,1.59-2.41,1.59h-1.88c-3.23,0-5.47-0.53-6.58-2
				c2.23-3.12,3.12-6.82,1.82-10.4c-2.41-6.11-10.05-6.7-17.46-5.7c-6.11,0.88-10.64,3-15.64,6.7l3.06-6.94h-9.64l-8.17,18.34h-3.47
				h-0.47H123c-3.82,0-5.11-5.23-6.17-8.7c-1.47-5.06-2.41-10.17-9.58-11.58c-2.7-0.53-5.58-0.35-8.11,0.94
				c-2.88,1.47-5.41,4.82-3.94,7.99h0.35c1.29-2.29,3.59-3.76,6.29-3.76c4.29,0,5.82,3.47,6.82,8.23c0.47,2.94,0.88,4.76,2.35,6.88
				H92.37c-7.58,0-9.41-2.94-5.47-13.58l2-4.76h-9.58l-6.35,14.7c-2.65,6.52-7.47,11.93-14.4,13.46v0.23
				c5.23,1.06,10.87,0.18,15.11-2.47c3-1.88,5.23-4.53,6.99-7.58c0.98,3.23,3.9,5.22,9.52,5.28l0,0.01h32.33h0.59h35.86
				c4.17,0,8.05-1.29,11.17-3.35c1.38,2.07,4.18,3.29,8.58,3.34l0,0.01h4.17c8.46,0,10.64-3.94,12.93-9.05l0.06-0.06l11.17-25.22
				H197.41z M157.5,194.07h-19.57c4.76-6.47,9.52-10.52,17.52-12.76c5.53-1.53,10.35-0.76,11.17,4.35
				C167.2,189.49,164.26,194.07,157.5,194.07z"/>
			<polygon class="st0" points="215.75,165.03 200.88,199.36 210.69,199.36 225.39,165.03 			"/>
		</g>
	</g>
	<g>
		<g>
			<path class="st2" d="M27.95,122.56c2.7,0,5.17-2.12,5.64-4.76c0.47-2.65-1.23-4.76-3.88-4.76c-2.7,0-5.17,2.12-5.64,4.76
				C23.6,120.45,25.3,122.56,27.95,122.56z"/>
			<path class="st2" d="M39.06,122.62c2.7,0,5.17-2.12,5.64-4.76c0.47-2.65-1.23-4.76-3.88-4.76c-2.7,0-5.17,2.12-5.64,4.76
				C34.71,120.5,36.41,122.62,39.06,122.62z"/>
			<path class="st2" d="M122.39,121.8c2.7,0,5.17-2.12,5.64-4.76c0.47-2.64-1.23-4.76-3.88-4.76c-2.7,0-5.17,2.12-5.64,4.76
				C118.04,119.68,119.75,121.8,122.39,121.8z"/>
			<path class="st2" d="M128.91,153.78c-2.7,0-5.17,2.12-5.64,4.76c-0.47,2.65,1.23,4.76,3.88,4.76c2.7,0,5.17-2.12,5.64-4.76
				C133.26,155.89,131.56,153.78,128.91,153.78z"/>
			<path class="st2" d="M140.02,153.83c-2.7,0-5.17,2.12-5.64,4.76c-0.47,2.65,1.23,4.76,3.88,4.76c2.7,0,5.17-2.12,5.64-4.76
				C144.37,155.95,142.67,153.83,140.02,153.83z"/>
			<path class="st2" d="M186.93,122.5c2.7,0,5.17-2.12,5.64-4.76c0.47-2.65-1.23-4.76-3.88-4.76c-2.7,0-5.17,2.12-5.64,4.76
				C182.58,120.39,184.29,122.5,186.93,122.5z"/>
			<path class="st2" d="M242.95,125.68l-7.35,17.05c-1.35,3.17-6,1.41-5.29-1.65l6.52-15.4h-9.99l-7.35,17.05
				c-1.29,3.12-5.82,1.53-5.35-1.47l6.7-15.58h-9.64l-7.99,18.34h-1.7h-0.88h-9.46l7.82-18.34h-10.82c-8.46,0-17.11,1.94-21.57,7.52
				c-2.41,3-2.76,7.58-0.41,10.82h-9.7c-8.58,0-13.52-3.76-7.29-18.34h-9.64l-7.94,18.34h-2.7c-8.58,0-9.82-3.76-3.59-18.34h-9.64
				l-7.99,18.34h-0.12h-0.82h-67.4l7.99-17.99l-0.18-0.35h-11.7c-10.46,0-20.87,3.47-23.98,11.99c-2.76,7.41,5.41,14.17,12.17,10.58
				c1.7-0.88,3.12-2.29,4.17-4.29l-0.18-0.12c-3.7,1.59-9.17,1.12-7.94-4.35c1.18-5.7,8.29-8.76,16.05-8.93l-8.11,18.75h19.34h1.06
				h67.17l2.12-4.94c1.04,3,3.96,4.87,9.41,4.93l0,0.01h12.34l3.06-7.05c1.33,4.29,5.52,6.97,12.17,7.05l0,0.01h44.38h1h4
				c2.94,0,5.58-1.06,7.52-3c2.76,4.47,8.93,4.53,13.34,2.23c1.12-0.59,2-1.35,2.76-2.23c2.76,4.47,8.93,4.53,13.34,2.23
				c2.82-1.47,4.47-4.35,5.29-6.35l6.99-16.52H242.95z M181.23,143.96c-8.35-0.47-10.11-7.17-2.29-11.46
				c2.47-1.41,5.35-1.82,8.23-1.94L181.23,143.96z"/>
		</g>
	</g>
	<polygon class="st3" points="240.23,197.82 324.49,143.76 220.46,197.82 	"/>
	<polygon class="st3" points="264.33,197.82 335.45,138.5 248.4,197.82 	"/>
	<polygon class="st3" points="271.61,197.82 337.39,139.57 284.68,197.82 	"/>
	<path class="st1" d="M339.49,139.98l-49.01,57.84h8.97c23.62,0,42.77-19.15,42.77-42.77C342.22,149.75,341.26,144.67,339.49,139.98
		z"/>
</g>
</svg>
