<?xml version="1.0" encoding="utf-8"?>
<!-- Generator: Adobe Illustrator 26.0.1, SVG Export Plug-In . SVG Version: 6.00 Build 0)  -->
<svg version="1.1" id="Layer_1" xmlns="http://www.w3.org/2000/svg" xmlns:xlink="http://www.w3.org/1999/xlink" x="0px" y="0px"
	 viewBox="0 0 400 400" style="enable-background:new 0 0 400 400;" xml:space="preserve">
<style type="text/css">
	.st0{fill:#651311;}
	.st1{fill-rule:evenodd;clip-rule:evenodd;fill:#A66030;}
	.st2{fill:#A66030;}
	.st3{fill-rule:evenodd;clip-rule:evenodd;fill:#651311;}
</style>
<g>
	<g>
		<g>
			<path class="st0" d="M99.2,261.85h2.54c0,0.79,0.22,1.45,0.66,1.96c0.44,0.51,0.99,0.77,1.66,0.77c0.63,0,1.14-0.19,1.55-0.58
				c0.41-0.39,0.61-0.88,0.61-1.48c0-0.53-0.14-0.97-0.43-1.34c-0.29-0.36-0.75-0.67-1.39-0.93c-0.22-0.09-0.53-0.21-0.93-0.35
				c-1.07-0.4-1.74-0.72-2.04-0.96c-0.54-0.43-0.93-0.91-1.19-1.45c-0.25-0.54-0.38-1.17-0.38-1.88c0-1.22,0.43-2.26,1.28-3.11
				c0.85-0.86,1.89-1.28,3.12-1.28c1.28,0,2.3,0.38,3.06,1.13c0.76,0.75,1.17,1.81,1.24,3.16h-2.6c-0.05-0.56-0.23-0.99-0.55-1.3
				c-0.32-0.31-0.75-0.46-1.28-0.46c-0.48,0-0.89,0.17-1.21,0.5c-0.32,0.33-0.49,0.74-0.49,1.24c0,0.84,0.73,1.53,2.19,2.06
				c0.41,0.15,0.73,0.28,0.97,0.37c1.15,0.46,1.96,1.04,2.45,1.73c0.49,0.69,0.73,1.62,0.73,2.77c0,1.35-0.45,2.47-1.37,3.36
				c-0.91,0.89-2.06,1.34-3.44,1.34c-1.39,0-2.52-0.47-3.37-1.41C99.75,264.77,99.28,263.48,99.2,261.85z"/>
			<path class="st0" d="M124.38,266.71v-1.84c-0.69,0.72-1.46,1.26-2.32,1.63c-0.85,0.37-1.76,0.55-2.73,0.55
				c-2.26,0-4.13-0.75-5.63-2.26c-1.49-1.51-2.24-3.39-2.24-5.66c0-1.06,0.19-2.06,0.56-3c0.37-0.95,0.91-1.78,1.6-2.5
				c0.76-0.79,1.58-1.38,2.48-1.76c0.9-0.38,1.92-0.57,3.07-0.57c1.03,0,1.97,0.18,2.84,0.55c0.87,0.36,1.65,0.91,2.36,1.65v-1.82
				h2.73v15.02H124.38z M114.28,259.11c0,1.52,0.5,2.8,1.51,3.82c1.01,1.03,2.24,1.54,3.69,1.54c1.33,0,2.5-0.52,3.52-1.55
				c1.01-1.03,1.52-2.24,1.52-3.63c0-1.48-0.5-2.74-1.51-3.79c-1.01-1.05-2.2-1.58-3.58-1.58c-1.42,0-2.63,0.5-3.64,1.5
				S114.28,257.66,114.28,259.11z"/>
			<path class="st0" d="M134.82,266.71h-2.69v-12.67h-1.79v-2.35h1.71v-0.45c0-1.54,0.43-2.7,1.28-3.48
				c0.86-0.78,2.14-1.17,3.84-1.17v2.5h-0.23c-0.8,0-1.38,0.18-1.72,0.55c-0.35,0.36-0.52,0.97-0.52,1.83v0.22h2.47v2.35h-2.35
				V266.71z"/>
			<path class="st0" d="M142.94,249.93h-2.68v-3.1h2.68V249.93z M140.27,266.71v-15.02h2.68v15.02H140.27z"/>
			<path class="st0" d="M149.99,266.71h-2.7v-15.02h2.59v1.71c0.56-0.67,1.19-1.17,1.86-1.48c0.68-0.31,1.45-0.47,2.33-0.47
				c1.97,0,3.48,0.58,4.53,1.73c1.05,1.16,1.58,2.81,1.58,4.97v8.56h-2.72v-7.98c0-1.59-0.3-2.77-0.89-3.54
				c-0.59-0.77-1.51-1.15-2.74-1.15c-1.35,0-2.32,0.45-2.93,1.36c-0.61,0.91-0.91,2.4-0.91,4.49V266.71z"/>
			<path class="st0" d="M176.61,266.71v-1.84c-0.69,0.72-1.46,1.26-2.32,1.63c-0.85,0.37-1.76,0.55-2.73,0.55
				c-2.26,0-4.13-0.75-5.63-2.26c-1.49-1.51-2.24-3.39-2.24-5.66c0-1.06,0.19-2.06,0.56-3c0.37-0.95,0.91-1.78,1.6-2.5
				c0.76-0.79,1.58-1.38,2.48-1.76c0.9-0.38,1.92-0.57,3.07-0.57c1.03,0,1.97,0.18,2.84,0.55c0.87,0.36,1.65,0.91,2.36,1.65v-1.82
				h2.73v15.02H176.61z M166.5,259.11c0,1.52,0.5,2.8,1.51,3.82c1.01,1.03,2.24,1.54,3.69,1.54c1.33,0,2.5-0.52,3.52-1.55
				c1.01-1.03,1.52-2.24,1.52-3.63c0-1.48-0.5-2.74-1.51-3.79c-1.01-1.05-2.2-1.58-3.59-1.58c-1.42,0-2.63,0.5-3.64,1.5
				C167,256.44,166.5,257.66,166.5,259.11z"/>
			<path class="st0" d="M184.51,266.71v-12.57h-2.13v-2.46h2.13v-4.86h2.69v4.86h2.13v2.46h-2.13v12.57H184.51z"/>
			<path class="st0" d="M213.67,266.71v-1.84c-0.69,0.72-1.46,1.26-2.32,1.63c-0.85,0.37-1.76,0.55-2.73,0.55
				c-2.26,0-4.13-0.75-5.63-2.26c-1.49-1.51-2.24-3.39-2.24-5.66c0-1.06,0.19-2.06,0.56-3c0.37-0.95,0.91-1.78,1.6-2.5
				c0.76-0.79,1.58-1.38,2.48-1.76c0.9-0.38,1.92-0.57,3.07-0.57c1.03,0,1.97,0.18,2.84,0.55c0.87,0.36,1.65,0.91,2.36,1.65v-1.82
				h2.73v15.02H213.67z M203.56,259.11c0,1.52,0.5,2.8,1.51,3.82c1.01,1.03,2.24,1.54,3.69,1.54c1.33,0,2.5-0.52,3.52-1.55
				c1.01-1.03,1.52-2.24,1.52-3.63c0-1.48-0.5-2.74-1.51-3.79c-1.01-1.05-2.2-1.58-3.59-1.58c-1.42,0-2.63,0.5-3.64,1.5
				C204.07,256.44,203.56,257.66,203.56,259.11z"/>
			<path class="st0" d="M220.66,266.71v-19.89h2.68v19.89H220.66z"/>
			<path class="st0" d="M226.64,261.85h2.54c0,0.79,0.22,1.45,0.66,1.96c0.44,0.51,0.99,0.77,1.66,0.77c0.63,0,1.14-0.19,1.55-0.58
				c0.41-0.39,0.61-0.88,0.61-1.48c0-0.53-0.14-0.97-0.43-1.34c-0.29-0.36-0.75-0.67-1.39-0.93c-0.22-0.09-0.53-0.21-0.93-0.35
				c-1.07-0.4-1.74-0.72-2.04-0.96c-0.54-0.43-0.93-0.91-1.19-1.45c-0.25-0.54-0.38-1.17-0.38-1.88c0-1.22,0.43-2.26,1.28-3.11
				c0.85-0.86,1.89-1.28,3.12-1.28c1.28,0,2.3,0.38,3.06,1.13c0.76,0.75,1.17,1.81,1.24,3.16h-2.6c-0.05-0.56-0.23-0.99-0.55-1.3
				c-0.32-0.31-0.75-0.46-1.28-0.46c-0.48,0-0.89,0.17-1.21,0.5c-0.32,0.33-0.49,0.74-0.49,1.24c0,0.84,0.73,1.53,2.19,2.06
				c0.41,0.15,0.73,0.28,0.97,0.37c1.15,0.46,1.96,1.04,2.45,1.73c0.49,0.69,0.73,1.62,0.73,2.77c0,1.35-0.45,2.47-1.37,3.36
				c-0.91,0.89-2.06,1.34-3.44,1.34c-1.39,0-2.52-0.47-3.37-1.41C227.19,264.77,226.72,263.48,226.64,261.85z"/>
			<path class="st0" d="M251.83,266.71v-1.84c-0.69,0.72-1.46,1.26-2.32,1.63c-0.85,0.37-1.76,0.55-2.73,0.55
				c-2.26,0-4.13-0.75-5.63-2.26c-1.49-1.51-2.24-3.39-2.24-5.66c0-1.06,0.19-2.06,0.56-3c0.37-0.95,0.91-1.78,1.6-2.5
				c0.76-0.79,1.58-1.38,2.48-1.76c0.9-0.38,1.92-0.57,3.07-0.57c1.03,0,1.97,0.18,2.84,0.55c0.87,0.36,1.65,0.91,2.36,1.65v-1.82
				h2.73v15.02H251.83z M241.72,259.11c0,1.52,0.5,2.8,1.51,3.82c1.01,1.03,2.24,1.54,3.69,1.54c1.33,0,2.5-0.52,3.52-1.55
				c1.01-1.03,1.52-2.24,1.52-3.63c0-1.48-0.5-2.74-1.51-3.79c-1.01-1.05-2.2-1.58-3.58-1.58c-1.42,0-2.63,0.5-3.64,1.5
				C242.22,256.44,241.72,257.66,241.72,259.11z"/>
			<path class="st0" d="M261.52,266.71h-2.7v-19.89h2.7v6.57c0.44-0.65,1-1.13,1.7-1.46c0.7-0.33,1.51-0.49,2.44-0.49
				c1.82,0,3.24,0.58,4.25,1.75c1.01,1.17,1.52,2.8,1.52,4.9v8.62h-2.7v-7.74c0-1.67-0.28-2.9-0.85-3.71
				c-0.56-0.81-1.43-1.22-2.59-1.22c-0.71,0-1.34,0.16-1.88,0.49c-0.55,0.33-0.98,0.8-1.31,1.42c-0.2,0.37-0.34,0.83-0.43,1.37
				c-0.09,0.54-0.13,1.39-0.13,2.57V266.71z"/>
			<path class="st0" d="M278.47,266.71h-2.7v-15.02h2.54v1.73c0.45-0.66,0.96-1.16,1.54-1.48c0.58-0.32,1.25-0.49,2.01-0.5v2.83
				c-1.21,0.09-2.08,0.45-2.6,1.07c-0.52,0.62-0.78,1.63-0.78,3.01V266.71z"/>
			<path class="st0" d="M297.09,266.71v-1.84c-0.69,0.72-1.46,1.26-2.32,1.63c-0.85,0.37-1.76,0.55-2.73,0.55
				c-2.26,0-4.13-0.75-5.63-2.26c-1.49-1.51-2.24-3.39-2.24-5.66c0-1.06,0.19-2.06,0.56-3c0.37-0.95,0.91-1.78,1.6-2.5
				c0.76-0.79,1.58-1.38,2.48-1.76c0.9-0.38,1.92-0.57,3.07-0.57c1.03,0,1.97,0.18,2.84,0.55c0.87,0.36,1.65,0.91,2.36,1.65v-1.82
				h2.73v15.02H297.09z M286.98,259.11c0,1.52,0.5,2.8,1.51,3.82c1.01,1.03,2.24,1.54,3.69,1.54c1.33,0,2.5-0.52,3.52-1.55
				c1.01-1.03,1.52-2.24,1.52-3.63c0-1.48-0.5-2.74-1.51-3.79c-1.01-1.05-2.2-1.58-3.58-1.58c-1.42,0-2.63,0.5-3.64,1.5
				C287.48,256.44,286.98,257.66,286.98,259.11z"/>
		</g>
	</g>
	<path class="st1" d="M373.5,157.02l-0.07,0.03c-0.12-0.08-0.24-0.16-0.37-0.22c-2.23-1.03-4.44-2.12-6.7-3.08
		c-1.88-0.8-3.31-2-4.14-3.88c-0.1-0.23-0.22-0.45-0.35-0.67c-0.68-1.11-1.26-2.3-2.07-3.31c-1.87-2.28-5.03-2.59-7.42-0.86
		c-1.43,1.04-2.43,2.49-3.51,3.84c-0.88,1.1-1.84,2.03-3.25,2.45c-1.75,0.51-3.47,1.11-5.2,1.73c-1.55,0.55-2.88,1.43-3.8,2.85
		c-0.43,0.66-0.91,1.28-1.36,1.93c-1.21,1.71-2.42,3.42-4.02,4.81c-1.21,1.07-2.59,1.79-4.22,1.94c-2.52,0.24-4.62-1.28-5.25-4.03
		c-0.35-1.52-0.38-3.11-0.56-4.68c-0.12-1.07-0.19-2.14-0.37-3.2c-0.07-0.36-0.04-0.53,0.22-0.77c0.81-0.77,1.15-1.73,1.04-2.85
		c-0.75-0.1-1.34,0.14-1.92,0.49c-0.13,0.08-0.42,0.09-0.51,0c-1.48-1.34-3.13-1.41-4.89-0.69c-0.93,0.37-1.89,0.69-2.74,1.19
		c-0.65,0.39-1.17,0.75-1.82,0.11c-0.02-0.02-0.03-0.01-0.06-0.02c-0.52-0.12-1.05-0.24-1.57-0.36c-1.66-0.41-3.28-0.31-4.86,0.35
		c-0.88,0.36-1.34,1.05-1.52,2.03c1.51-0.73,1.51-0.73,1.94-0.58c-0.31,0.16-0.62,0.3-0.91,0.49c-0.31,0.19-0.61,0.41-0.88,0.65
		c-0.54,0.49-0.94,1.07-1.01,1.82c-0.03,0.37-0.05,0.73,0.48,0.82c0.13,0.02,0.26,0.25,0.34,0.41c0.36,0.78,0.98,1.08,1.78,0.79
		c0.34-0.12,0.65-0.32,0.95-0.52c0.62-0.41,1.27-0.52,1.98-0.33c2.26,0.6,4.03,1.92,5.47,3.72c1.21,1.52,1.83,3.32,2.5,5.1
		c0.76,2.03,1.5,4.09,2.46,6.02c1.16,2.31,3.06,3.84,5.68,4.28c2.95,0.49,5.83,0.17,8.61-0.92c0.95-0.37,1.87-0.88,2.82-1.33
		c0.03,0.1,0.1,0.19,0.11,0.3c0.16,1.16,0.36,2.33,0.49,3.5l-43.27,21.77c-2.79-5.92-4.35-12.53-4.35-19.51
		c0-25.27,20.49-45.76,45.76-45.76C350.6,132.89,365.78,142.66,373.5,157.02z"/>
	<g>
		<g>
			<path class="st0" d="M30.53,208.9c-2.77,3.52-2.83,8.74,0,11.95c-4.72,0-7.48-0.82-8.93-3.59c-2.14,5.79,2.64,8.81,9.87,8.81
				h21.32l2.01-5.22h-8.18c-9.37,0-12.08-7.86-3.4-12.64c3.46-1.95,6.92-2.08,12.89-2.08h2.64l2.26-5.22h-7.48
				C44.43,200.91,35.18,203.05,30.53,208.9z"/>
			<polygon class="st0" points="80.09,189.34 64.17,226.07 74.68,226.07 90.4,189.34 			"/>
			<path class="st0" d="M223.98,189.34l-13.08,29.37c-0.44,1.01-1.45,1.7-2.58,1.7h-2.01c-3.46,0-5.85-0.57-7.04-2.14
				c2.39-3.33,3.33-7.3,1.95-11.13c-2.58-6.54-10.75-7.17-18.68-6.1c-6.54,0.94-11.38,3.21-16.73,7.17l3.27-7.42h-10.31l-8.74,19.62
				h-3.71h-0.5h-1.44c-4.09,0-5.47-5.6-6.6-9.31c-1.57-5.41-2.58-10.88-10.25-12.39c-2.89-0.57-5.97-0.38-8.68,1.01
				c-3.08,1.57-5.79,5.16-4.21,8.55h0.38c1.38-2.45,3.84-4.03,6.73-4.03c4.59,0,6.23,3.71,7.3,8.8c0.5,3.14,0.94,5.09,2.52,7.36
				h-19.94c-8.11,0-10.06-3.14-5.85-14.53l2.14-5.09H97.63l-6.79,15.72c-2.83,6.98-7.99,12.77-15.41,14.4v0.25
				c5.6,1.13,11.64,0.19,16.16-2.64c3.21-2.01,5.6-4.84,7.48-8.11c1.05,3.46,4.17,5.58,10.19,5.65l0,0.01h34.59h0.63h38.36
				c4.47,0,8.62-1.38,11.95-3.58c1.48,2.21,4.47,3.52,9.18,3.57l0,0.01h4.47c9.06,0,11.38-4.21,13.84-9.69l0.06-0.06l11.95-26.98
				H223.98z M181.28,220.4h-20.94c5.09-6.92,10.19-11.26,18.74-13.65c5.91-1.64,11.07-0.82,11.95,4.65
				C191.65,215.5,188.51,220.4,181.28,220.4z"/>
			<polygon class="st0" points="243.6,189.34 227.69,226.07 238.19,226.07 253.91,189.34 			"/>
		</g>
	</g>
	<g>
		<g>
			<path class="st2" d="M42.66,143.89c2.89,0,5.53-2.26,6.04-5.09c0.5-2.83-1.32-5.09-4.15-5.09c-2.89,0-5.53,2.26-6.04,5.09
				C38.01,141.63,39.83,143.89,42.66,143.89z"/>
			<path class="st2" d="M54.55,143.96c2.89,0,5.53-2.26,6.04-5.09c0.5-2.83-1.32-5.09-4.15-5.09c-2.89,0-5.53,2.26-6.04,5.09
				C49.9,141.69,51.72,143.96,54.55,143.96z"/>
			<path class="st2" d="M143.71,143.08c2.89,0,5.53-2.26,6.04-5.09c0.5-2.83-1.32-5.09-4.15-5.09c-2.89,0-5.53,2.26-6.04,5.09
				C139.06,140.81,140.88,143.08,143.71,143.08z"/>
			<path class="st2" d="M150.69,177.29c-2.89,0-5.53,2.26-6.04,5.09c-0.5,2.83,1.32,5.09,4.15,5.09c2.89,0,5.53-2.26,6.04-5.09
				C155.35,179.56,153.52,177.29,150.69,177.29z"/>
			<path class="st2" d="M162.58,177.35c-2.89,0-5.53,2.26-6.04,5.09c-0.5,2.83,1.32,5.09,4.15,5.09c2.89,0,5.53-2.26,6.04-5.09
				C167.23,179.62,165.41,177.35,162.58,177.35z"/>
			<path class="st2" d="M212.77,143.83c2.89,0,5.53-2.26,6.04-5.09c0.5-2.83-1.32-5.09-4.15-5.09c-2.89,0-5.53,2.26-6.04,5.09
				C208.11,141.57,209.94,143.83,212.77,143.83z"/>
			<path class="st2" d="M272.7,147.23l-7.86,18.24c-1.45,3.4-6.42,1.51-5.66-1.76l6.98-16.48h-10.69l-7.86,18.24
				c-1.38,3.33-6.23,1.64-5.72-1.57l7.17-16.67h-10.31l-8.55,19.62h-1.82h-0.95h-10.12l8.36-19.62h-11.57
				c-9.06,0-18.3,2.08-23.08,8.05c-2.58,3.21-2.96,8.11-0.44,11.57h-10.38c-9.18,0-14.47-4.03-7.8-19.62h-10.31l-8.49,19.62h-2.89
				c-9.18,0-10.5-4.03-3.84-19.62h-10.31l-8.55,19.62h-0.12h-0.88H54.86l8.55-19.25l-0.19-0.38H50.71
				c-11.19,0-22.33,3.71-25.66,12.83c-2.96,7.92,5.79,15.16,13.02,11.32c1.82-0.94,3.33-2.45,4.47-4.59l-0.19-0.13
				c-3.96,1.7-9.81,1.19-8.49-4.65c1.26-6.1,8.87-9.37,17.17-9.56l-8.68,20.06h20.69h1.13h71.87l2.26-5.28
				c1.11,3.21,4.23,5.21,10.06,5.28l0,0.01h13.21l3.27-7.55c1.43,4.59,5.91,7.46,13.02,7.54l0,0.01h47.48h1.07h4.28
				c3.14,0,5.97-1.13,8.05-3.21c2.96,4.78,9.56,4.84,14.28,2.39c1.2-0.63,2.14-1.45,2.96-2.39c2.96,4.78,9.56,4.84,14.28,2.39
				c3.02-1.57,4.78-4.65,5.66-6.79l7.48-17.67H272.7z M206.66,166.79c-8.93-0.5-10.82-7.67-2.45-12.26
				c2.64-1.51,5.72-1.95,8.81-2.08L206.66,166.79z"/>
		</g>
	</g>
	<polygon class="st3" points="269.79,224.42 359.94,166.58 248.63,224.42 	"/>
	<polygon class="st3" points="295.57,224.42 371.67,160.95 278.54,224.42 	"/>
	<polygon class="st3" points="303.36,224.42 373.74,162.1 317.35,224.42 	"/>
	<path class="st1" d="M376,162.53l-52.44,61.89h9.59c25.28,0,45.77-20.49,45.77-45.77C378.92,172.98,377.89,167.55,376,162.53z"/>
</g>
</svg>
