<?xml version="1.0" encoding="utf-8"?>
<!-- Generator: Adobe Illustrator 26.0.1, SVG Export Plug-In . SVG Version: 6.00 Build 0)  -->
<svg version="1.1" id="Layer_1" xmlns="http://www.w3.org/2000/svg" xmlns:xlink="http://www.w3.org/1999/xlink" x="0px" y="0px"
	 viewBox="0 0 400 400" style="enable-background:new 0 0 400 400;" xml:space="preserve">
<style type="text/css">
	.st0{fill:url(#SVGID_1_);}
	.st1{fill:url(#SVGID_00000098191497906233462890000006337054403311980207_);}
	.st2{fill:#333A44;}
	.st3{fill:#1092B5;}
	.st4{fill:url(#SVGID_00000167359727027548244000000010403867982719632047_);}
	.st5{fill:#505659;}
	.st6{fill:url(#SVGID_00000081626754850805972010000004125585550769620917_);}
	.st7{fill:url(#SVGID_00000083089756030557944920000016831122529023601086_);}
	.st8{fill:#312783;}
	.st9{fill:#565A5D;}
</style>
<g>
	<g>
		<g>
			<linearGradient id="SVGID_1_" gradientUnits="userSpaceOnUse" x1="213.9629" y1="120.0153" x2="234.751" y2="120.0153">
				<stop  offset="0" style="stop-color:#27348B"/>
				<stop  offset="1" style="stop-color:#36A9E1"/>
			</linearGradient>
			<path class="st0" d="M214.1,111c-0.05,9.69-0.09,19.38-0.14,29.07c0.39-0.28,0.77-0.56,1.16-0.84
				c0.02-8.45,0.04-16.89,0.07-25.34l1.29-0.71v24.04h2.16v-25.23l1.29-0.71c0,7.99,0,15.98,0,23.97c0.72-0.65,1.44-1.3,2.16-1.95
				c0-7.74,0-15.47,0-23.21l1.29-0.72c0,7.57,0,15.15,0,22.72c0.72-0.49,1.44-0.98,2.16-1.47c0-7.48,0-14.96,0-22.44l1.29-0.72
				c0,7.44,0,14.87,0,22.31c0.72-0.44,1.44-0.88,2.16-1.31c0-7.4,0-14.79,0-22.19l1.29-0.71c0,7.39,0,14.78,0,22.17
				c0.72-0.19,1.44-0.39,2.16-0.58c0-7.59,0-15.19,0-22.78l1.29-0.72c0,7.01,0,14.02,0,21.03c0.34-1.03,0.68-2.07,1.02-3.1
				c0-7.2,0-14.41,0-21.61L214.1,111z"/>
			
				<linearGradient id="SVGID_00000026859410185937151860000015888648324417468032_" gradientUnits="userSpaceOnUse" x1="209.718" y1="170.1779" x2="246.912" y2="170.1779">
				<stop  offset="0" style="stop-color:#27348B"/>
				<stop  offset="1" style="stop-color:#36A9E1"/>
			</linearGradient>
			<path style="fill:url(#SVGID_00000026859410185937151860000015888648324417468032_);" d="M219.1,228.74v-88.8l1.29-1.11v89.48
				c0.72-0.24,1.44-0.47,2.16-0.68v-90.65l1.29-1.11v91.37c0.72-0.2,1.44-0.38,2.16-0.55v-92.67l1.29-1.11v93.51
				c0.72-0.14,1.44-0.27,2.16-0.37v-94.99l1.29-1.11v95.92c0.72-0.08,1.44-0.13,2.16-0.16v-97.61l1.29-1.11v98.72
				c0.72,0,1.44,0.04,2.16,0.1V125.13l1.29-1.11v101.91c0.72,0.1,1.44,0.25,2.16,0.42V122.17l1.29-1.11v105.48
				c0.72-0.05,1.44-0.05,2.16,0V119.21l1.29-1.11v108.6c0.8,0.13,1.59,0.31,2.37,0.55V108.03l-37.19,34.62v89.66
				c0.11-0.04,0.2-0.11,0.31-0.15c0.72-0.28,1.44-0.56,2.17-0.84v-85.47l1.29-1.11v86.08c0.72-0.28,1.44-0.55,2.16-0.82v-87.1
				l1.29-1.11v87.73C217.66,229.25,218.38,228.99,219.1,228.74z"/>
		</g>
	</g>
	<g>
		<path class="st2" d="M248.18,107.79v25.4h15.66c15.24,0,27.59-11.36,27.59-25.38v-0.02H248.18z"/>
		<path class="st3" d="M112.68,240.92h65.33V214.3h-23.66C131.34,214.3,112.68,226.22,112.68,240.92z"/>
		
			<linearGradient id="SVGID_00000169544759725748691770000008594653478311512723_" gradientUnits="userSpaceOnUse" x1="112.8081" y1="147.7285" x2="207.7806" y2="147.7285">
			<stop  offset="0" style="stop-color:#009FE3"/>
			<stop  offset="0.0101" style="stop-color:#009BDE"/>
			<stop  offset="0.0587" style="stop-color:#0089C7"/>
			<stop  offset="0.113" style="stop-color:#0077B2"/>
			<stop  offset="0.1718" style="stop-color:#0067A0"/>
			<stop  offset="0.2365" style="stop-color:#005A91"/>
			<stop  offset="0.309" style="stop-color:#004F86"/>
			<stop  offset="0.3931" style="stop-color:#09467E"/>
			<stop  offset="0.4957" style="stop-color:#184078"/>
			<stop  offset="0.637" style="stop-color:#1D3C75"/>
			<stop  offset="1" style="stop-color:#1F3B74"/>
		</linearGradient>
		<path style="fill:url(#SVGID_00000169544759725748691770000008594653478311512723_);" d="M207.78,161.04h-68.36
			c0.02-9.39,0.04-18.78,0.07-28.16c8.87,0,17.74,0,26.6,0c1.78-8.28,3.57-16.57,5.35-24.85c-10.67-0.08-21.35-0.15-32.02-0.23
			c-14.7,0-26.62,11.92-26.62,26.62v53.26h94.97V161.04z"/>
		<rect x="165.93" y="189.12" class="st5" width="26.62" height="78.43"/>
		<path class="st5" d="M193,106.44c1.2-5.24,5.7-8.88,10.47-8.88c5.74,0,10.96,5.29,10.7,11.94c6.86-3.6,13.72-7.19,20.58-10.79
			c-0.42-2.37-2.92-15.12-14.22-21.96c-6.64-4.02-13.41-4.35-16.1-4.3c-6.8,0.13-11.84,1.67-15.13,3.05
			c-21.3,8.94-23.26,33.65-23.37,35.49v48.86h27.16C193.06,142.05,193.03,124.24,193,106.44z"/>
		
			<linearGradient id="SVGID_00000149382754854007033170000002374944588633802943_" gradientUnits="userSpaceOnUse" x1="195.3564" y1="200.9757" x2="290.9024" y2="200.9757">
			<stop  offset="0" style="stop-color:#009FE3"/>
			<stop  offset="0.0101" style="stop-color:#009BDE"/>
			<stop  offset="0.0587" style="stop-color:#0089C7"/>
			<stop  offset="0.113" style="stop-color:#0077B2"/>
			<stop  offset="0.1718" style="stop-color:#0067A0"/>
			<stop  offset="0.2365" style="stop-color:#005A91"/>
			<stop  offset="0.309" style="stop-color:#004F86"/>
			<stop  offset="0.3931" style="stop-color:#09467E"/>
			<stop  offset="0.4957" style="stop-color:#184078"/>
			<stop  offset="0.637" style="stop-color:#1D3C75"/>
			<stop  offset="1" style="stop-color:#1F3B74"/>
		</linearGradient>
		<path style="fill:url(#SVGID_00000149382754854007033170000002374944588633802943_);" d="M248.93,161.04v26.63h15.18v26.63h-68.76
			v26.62h68.77c14.79,0,26.77-11.92,26.77-26.62v-53.26H248.93z"/>
		<rect x="209.72" y="242.22" class="st2" width="37.19" height="25.33"/>
		
			<linearGradient id="SVGID_00000118372934953796165990000018093538157945594559_" gradientUnits="userSpaceOnUse" x1="148.991" y1="108.0347" x2="153.1715" y2="108.0347">
			<stop  offset="0" style="stop-color:#009FE3"/>
			<stop  offset="0.0101" style="stop-color:#009BDE"/>
			<stop  offset="0.0587" style="stop-color:#0089C7"/>
			<stop  offset="0.113" style="stop-color:#0077B2"/>
			<stop  offset="0.1718" style="stop-color:#0067A0"/>
			<stop  offset="0.2365" style="stop-color:#005A91"/>
			<stop  offset="0.309" style="stop-color:#004F86"/>
			<stop  offset="0.3931" style="stop-color:#09467E"/>
			<stop  offset="0.4957" style="stop-color:#184078"/>
			<stop  offset="0.637" style="stop-color:#1D3C75"/>
			<stop  offset="1" style="stop-color:#1F3B74"/>
		</linearGradient>
		
			<rect x="148.99" y="108.03" style="fill:url(#SVGID_00000118372934953796165990000018093538157945594559_);" width="4.18" height="0"/>
	</g>
	<g>
		<path class="st8" d="M39.43,302.02h-2.48c-1.3,0-2.38-0.28-3.26-0.83c-0.93-0.65-1.55-1.37-1.86-2.14
			c-0.61,0.38-1.05,0.64-1.33,0.78c-0.5,0.3-1.3,0.45-2.39,0.45c-1.16,0-2.19-0.2-3.07-0.6c-0.88-0.4-1.54-1.07-1.99-2.01
			c-0.4-0.81-0.6-1.71-0.6-2.71c0-0.63,0.08-1.21,0.25-1.75c0.31-1.05,0.83-1.92,1.55-2.61c0.43-0.42,1.09-0.87,1.98-1.36
			c0.99-0.44,2.31-0.66,3.97-0.65h4.99l0.03,6.76c-0.03,0-0.04,0.53-0.02,1.6c0.13,1.42,0.78,2.16,1.94,2.23h2.28V302.02z
			 M31.67,290.7c-1.1-0.04-1.95-0.01-2.58,0.1c-1.27,0.27-2.11,0.83-2.51,1.7c-0.29,0.61-0.43,1.27-0.43,1.98
			c0,0.64,0.12,1.2,0.35,1.66c0.28,0.52,0.66,0.95,1.15,1.28c0.52,0.36,1.04,0.51,1.55,0.45c0.88-0.12,1.55-0.57,2.03-1.33
			c0.32-0.52,0.48-1.16,0.48-1.93C31.71,294.36,31.69,293.05,31.67,290.7z M26.64,284.89h2.77v2.27h-2.77V284.89z M31.26,284.89
			h2.78v2.27h-2.78V284.89z"/>
		<path class="st8" d="M50.92,302.16c-1.25,1.25-2.85,1.88-4.8,1.88c-1.82,0-3.2-0.63-4.14-1.88c-0.09-0.11-0.21-0.15-0.35-0.13
			h-3.79v-2.84h2.92c0-0.61,0.11-1.23,0.33-1.88c0.24-0.7,0.58-1.29,1.01-1.79c0.92-1.08,2.35-1.66,4.29-1.71h0.17
			c1.63,0,3.09,0.64,4.37,1.93c0.71,0.82,1.1,1.97,1.18,3.46C52.06,300.4,51.66,301.39,50.92,302.16z M45.03,296.47
			c-0.31,0.2-0.57,0.5-0.78,0.88c-0.23,0.44-0.35,0.93-0.35,1.46c0,0.45,0.09,0.91,0.28,1.38c0.4,0.95,1.16,1.43,2.29,1.43
			c0.36,0,0.65-0.04,0.88-0.12c0.28-0.09,0.58-0.33,0.9-0.73c0.44-0.54,0.67-1.17,0.67-1.88c0-0.3-0.04-0.61-0.13-0.93
			c-0.43-1.33-1.16-1.99-2.19-1.99c-0.1,0-0.21,0.01-0.32,0.03C45.92,296.01,45.5,296.16,45.03,296.47z"/>
		<path class="st8" d="M54.14,286.29h3.42v10.37c-0.07,1.51,0.65,2.34,2.16,2.51h2.11v2.86h-3.77c-1.64,0-2.79-0.68-3.44-2.05
			c-0.28-0.56-0.44-1.24-0.48-2.03V286.29z"/>
		<path class="st8" d="M76.93,302.06c-2.39-0.02-4.08-0.02-5.05,0c-0.6,0-1.22-0.15-1.86-0.45c-0.53-0.23-0.9-0.49-1.11-0.77
			c-0.11-0.15-0.23-0.23-0.35-0.23c-0.11,0-0.2,0.06-0.27,0.17c-0.68,0.83-1.77,1.25-3.29,1.25h-4.04v-2.83h4.07
			c0.62-0.11,1.11-0.36,1.46-0.77c-0.55-1.11-1.4-1.83-2.53-2.18c-0.51-0.14-0.99-0.32-1.45-0.51l-0.46-2.18
			c0.83-0.79,2.09-1.4,3.77-1.85c0.69-0.22,1.56-0.36,2.63-0.4c1.88,0.02,3.51,0.42,4.87,1.18c0.55,0.3,1.05,0.63,1.48,0.98
			c0.63,0.57,0.68,1.12,0.15,1.63c-0.92,0.32-2.14,1.49-3.66,3.52c0.22,0.33,0.64,0.52,1.26,0.57h4.37V302.06z M68.7,296.67
			c0.48-0.47,1.16-1.13,2.06-1.99c-0.74-0.39-1.54-0.58-2.38-0.58c-0.72,0-1.39,0.16-1.99,0.47
			C67.35,294.87,68.11,295.58,68.7,296.67z"/>
		<path class="st8" d="M79.57,286.38h3.47v12.15c0,1.43-0.76,2.49-2.29,3.17c-0.6,0.21-1.27,0.32-2.03,0.32h-3.34v-2.86h1.4
			c0.22,0.02,0.53,0.02,0.93-0.02c1.1-0.11,1.72-0.74,1.86-1.89V286.38z"/>
		<path class="st8" d="M85.17,286.33l3.52-0.02v15.69l-3.56,0.03L85.17,286.33z"/>
		<path class="st8" d="M112.91,292.04h3.27v6.52c0,1.45-0.59,2.47-1.76,3.04c-0.49,0.24-1.07,0.39-1.76,0.43h-8.96l-2.18-0.02
			c-3.9-0.04-5.91-2.33-6.03-6.86v-3.11h3.11v1.18v2.13c0.08,2.69,1.7,3.97,4.85,3.84h7.79c1.06,0.03,1.62-0.42,1.66-1.35v-1.53
			V292.04z M101.69,288.44h2.76v2.28h-2.77L101.69,288.44z M105.95,288.44h2.76v2.28h-2.78L105.95,288.44z"/>
		<path class="st8" d="M128.02,286.23h3.47v12.05c0,1.59-0.65,2.71-1.95,3.34c-0.54,0.27-1.19,0.42-1.94,0.47h-9.37v-2.93h3.99
			l-3.17-11.14h3.57l3.36,11.1c0.14,0.02,0.28,0.03,0.42,0.03c1-0.08,1.53-0.6,1.61-1.56v-1.68L128.02,286.23z"/>
		<path class="st8" d="M141.6,301.56c-0.8,0.32-1.69,0.48-2.68,0.48c-1.82,0-3.23-0.59-4.26-1.78c-0.64-0.73-1.01-1.76-1.1-3.07
			c0-0.61,0.11-1.23,0.33-1.88c0.24-0.7,0.58-1.3,1.01-1.8c0.92-1.08,2.35-1.65,4.29-1.71h0.17c1.63,0,3.09,0.64,4.37,1.93
			c0.71,0.82,1.1,1.97,1.18,3.46c0,0.1-0.01,0.2-0.02,0.3l-0.03,2.71c0.02,0.21,0.03,0.42,0.03,0.62c0,1.54-0.58,2.84-1.73,3.91
			c-1.03,0.82-2.47,1.23-4.3,1.23h-0.55l0.03-2.19c0.14,0.02,0.28,0.03,0.42,0.03c0.88,0,1.62-0.32,2.24-0.95
			C141.3,302.52,141.5,302.09,141.6,301.56z M137.84,294.48c-0.31,0.2-0.57,0.49-0.78,0.88c-0.23,0.44-0.35,0.93-0.35,1.46
			c0,0.45,0.09,0.91,0.28,1.38c0.4,0.95,1.16,1.43,2.29,1.43c0.35,0,0.65-0.04,0.88-0.12c0.28-0.09,0.58-0.33,0.9-0.73
			c0.44-0.54,0.66-1.17,0.66-1.88c0-0.3-0.04-0.61-0.13-0.93c-0.32-1.31-1.05-1.97-2.19-1.99c-0.1,0-0.21,0.01-0.32,0.03
			C138.72,294.01,138.31,294.17,137.84,294.48z"/>
		<path class="st8" d="M146.73,286.29h3.42v10.37c-0.07,1.51,0.65,2.34,2.16,2.51h2.11v2.86h-3.77c-1.64,0-2.79-0.68-3.44-2.05
			c-0.28-0.56-0.44-1.24-0.48-2.03V286.29z"/>
		<path class="st8" d="M153.58,299.16h3.94c-0.51-1.01-0.76-1.95-0.76-2.83c0-1.06,0.27-2.03,0.82-2.91
			c0.74-1.07,1.66-1.8,2.76-2.18c0.63-0.22,1.49-0.35,2.56-0.38c1.13-0.02,2.22,0.26,3.27,0.83c1.49,0.81,2.41,2.07,2.74,3.77
			c0.08,0.4,0.12,0.79,0.12,1.16c0,0.92-0.22,1.77-0.65,2.54h2.81v2.84h-7.41c-0.3,0.02-0.62,0.03-0.95,0.03h-9.24V299.16z
			 M158.8,286.42h2.78v2.28h-2.78V286.42z M160.05,296.67c0,0.23,0.02,0.47,0.07,0.7c0.28,1.44,1.15,2.16,2.61,2.16
			c0.21,0,0.4-0.02,0.58-0.05c0.43-0.08,0.86-0.33,1.28-0.77c0.59-0.59,0.88-1.35,0.88-2.27c0-0.13-0.01-0.28-0.02-0.43
			c-0.28-1.63-1.15-2.48-2.63-2.54c-0.74-0.05-1.39,0.25-1.94,0.9C160.32,295,160.05,295.77,160.05,296.67z M163.42,286.42h2.77
			v2.28h-2.77V286.42z"/>
		<path class="st8" d="M186.6,302.02h-2.89c-0.23,0-0.39,0.04-0.48,0.13c-1.25,1.25-2.85,1.88-4.8,1.88c-1.82,0-3.2-0.63-4.14-1.88
			c-0.09-0.11-0.21-0.15-0.35-0.13h-3.79v-2.84h2.92c0-0.61,0.11-1.23,0.33-1.88c0.24-0.7,0.58-1.29,1.01-1.79
			c0.92-1.08,2.35-1.66,4.29-1.71h0.17c1.63,0,3.09,0.64,4.37,1.93c0.71,0.82,1.1,1.97,1.18,3.46h2.18V302.02z M177.35,296.47
			c-0.31,0.2-0.57,0.5-0.78,0.88c-0.23,0.44-0.35,0.93-0.35,1.46c0,0.45,0.09,0.91,0.28,1.38c0.4,0.95,1.16,1.43,2.29,1.43
			c0.36,0,0.65-0.04,0.88-0.12c0.28-0.09,0.58-0.33,0.9-0.73c0.44-0.54,0.67-1.17,0.67-1.88c0-0.3-0.04-0.61-0.13-0.93
			c-0.43-1.33-1.16-1.99-2.19-1.99c-0.1,0-0.21,0.01-0.32,0.03C178.23,296.01,177.81,296.16,177.35,296.47z"/>
		<path class="st8" d="M189.48,301.99c-0.28,0.02-0.57,0.03-0.88,0.03h-2.92v-2.86h1.06c0.22,0.02,0.53,0.02,0.93-0.02
			c1.1-0.11,1.72-0.74,1.86-1.89v-10.87H193v12.15c0,0.21-0.02,0.41-0.05,0.6h3.06l0.05,2.86H189.48z"/>
		<path class="st8" d="M198.99,286.38h3.47v12.15c0,1.43-0.76,2.49-2.29,3.17c-0.6,0.21-1.27,0.32-2.03,0.32h-3.34v-2.86h1.4
			c0.22,0.02,0.53,0.02,0.93-0.02c1.1-0.11,1.72-0.74,1.86-1.89V286.38z"/>
		<path class="st8" d="M227.07,302.02h-2.48c-1.3,0-2.38-0.28-3.26-0.83c-0.93-0.65-1.55-1.37-1.86-2.14
			c-0.61,0.38-1.05,0.64-1.33,0.78c-0.5,0.3-1.3,0.45-2.39,0.45c-1.16,0-2.19-0.2-3.07-0.6c-0.88-0.4-1.54-1.07-1.99-2.01
			c-0.4-0.81-0.6-1.71-0.6-2.71c0-0.63,0.08-1.21,0.25-1.75c0.31-1.05,0.83-1.92,1.55-2.61c0.43-0.42,1.09-0.87,1.98-1.36
			c0.99-0.44,2.31-0.66,3.97-0.65h4.99l0.03,6.76c-0.03,0-0.04,0.53-0.02,1.6c0.13,1.42,0.78,2.16,1.94,2.23h2.28V302.02z
			 M219.31,290.7c-1.1-0.04-1.95-0.01-2.58,0.1c-1.27,0.27-2.11,0.83-2.51,1.7c-0.29,0.61-0.43,1.27-0.43,1.98
			c0,0.64,0.12,1.2,0.35,1.66c0.28,0.52,0.66,0.95,1.15,1.28c0.52,0.36,1.04,0.51,1.55,0.45c0.88-0.12,1.55-0.57,2.03-1.33
			c0.32-0.52,0.48-1.16,0.48-1.93C219.35,294.36,219.34,293.05,219.31,290.7z M214.28,284.89h2.77v2.27h-2.77V284.89z M218.9,284.89
			h2.78v2.27h-2.78V284.89z"/>
		<path class="st8" d="M230.72,292.04h3.26v6.52c0,1.45-0.59,2.47-1.76,3.04c-0.49,0.24-1.07,0.39-1.76,0.43h-4.94v-2.84h3.52
			c1.06,0.03,1.62-0.42,1.66-1.35v-1.53L230.72,292.04z M226.23,303.57H229v2.28h-2.78V303.57z M230.85,303.57h2.77v2.28h-2.77
			V303.57z"/>
		<path class="st8" d="M242.18,302.02c-0.22,1.02-0.75,1.92-1.6,2.69c-1.13,0.91-2.75,1.32-4.85,1.23l0.03-2.19
			c0.14,0.02,0.28,0.03,0.42,0.03c0.88,0,1.62-0.32,2.24-0.95c0.44-0.49,0.66-1.22,0.66-2.21v-8.58h3.19v7.13h2.44v2.84H242.18z"/>
		<path class="st8" d="M243.96,302.02v-2.86h2.89v-7.21h3.27v2.54c1.13-1.63,2.66-2.74,4.59-3.34c0.81-0.25,1.66-0.4,2.56-0.43
			c2.04-0.03,3.71,0.4,5,1.3c1.07,0.71,1.92,1.82,2.53,3.34c0.42,1.15,0.65,2.43,0.7,3.82h2.53v2.84H243.96z M249.98,299.13h11.77
			c0.04-0.48,0.07-0.86,0.07-1.16c-0.11-1.31-0.6-2.39-1.48-3.24c-0.36-0.37-0.8-0.67-1.31-0.9c-0.55-0.22-1.12-0.33-1.71-0.33
			c-1.07,0-2.17,0.34-3.27,1.01c-0.78,0.48-1.42,1.01-1.95,1.6C251.06,297.29,250.35,298.3,249.98,299.13z"/>
		<path class="st8" d="M282.34,302.06c-2.39-0.02-4.08-0.02-5.05,0c-0.6,0-1.22-0.15-1.86-0.45c-0.53-0.23-0.9-0.49-1.11-0.77
			c-0.11-0.15-0.23-0.23-0.35-0.23c-0.11,0-0.2,0.06-0.27,0.17c-0.68,0.83-1.77,1.25-3.29,1.25h-4.04v-2.83h4.07
			c0.62-0.11,1.11-0.36,1.46-0.77c-0.55-1.11-1.4-1.83-2.53-2.18c-0.51-0.14-0.99-0.32-1.45-0.51l-0.46-2.18
			c0.83-0.79,2.09-1.4,3.77-1.85c0.69-0.22,1.56-0.36,2.63-0.4c1.88,0.02,3.51,0.42,4.87,1.18c0.55,0.3,1.05,0.63,1.48,0.98
			c0.63,0.57,0.68,1.12,0.15,1.63c-0.92,0.32-2.14,1.49-3.66,3.52c0.22,0.33,0.64,0.52,1.26,0.57h4.37V302.06z M274.11,296.67
			c0.48-0.47,1.16-1.13,2.06-1.99c-0.74-0.39-1.54-0.58-2.38-0.58c-0.72,0-1.39,0.16-1.99,0.47
			C272.75,294.87,273.52,295.58,274.11,296.67z"/>
		<path class="st8" d="M284.98,286.38h3.47v12.15c0,1.43-0.76,2.49-2.29,3.17c-0.6,0.21-1.27,0.32-2.03,0.32h-3.34v-2.86h1.4
			c0.22,0.02,0.53,0.02,0.93-0.02c1.1-0.11,1.72-0.74,1.86-1.89V286.38z"/>
		<path class="st8" d="M290.58,286.33l3.52-0.02v15.69l-3.56,0.03L290.58,286.33z"/>
		<path class="st8" d="M310.36,300.16c-1.25,1.25-2.85,1.88-4.8,1.88c-1.82,0-3.21-0.59-4.19-1.78c-0.69-0.76-1.07-1.79-1.16-3.07
			c0-0.61,0.11-1.23,0.33-1.88c0.24-0.7,0.58-1.3,1.01-1.8c0.92-1.08,2.35-1.65,4.29-1.71c1.7-0.04,3.21,0.6,4.54,1.93
			c0.71,0.82,1.1,1.97,1.18,3.46C311.5,298.41,311.1,299.4,310.36,300.16z M301.96,288.1h2.78v2.28h-2.78V288.1z M304.47,294.34
			c-0.31,0.21-0.57,0.53-0.78,0.97c-0.23,0.48-0.35,1.01-0.35,1.59c0,0.49,0.09,0.99,0.28,1.5c0.4,1.04,1.16,1.56,2.29,1.56
			c0.36,0,0.65-0.05,0.88-0.13c0.37-0.14,0.66-0.41,0.9-0.8c0.41-0.55,0.63-1.23,0.67-2.04c0-0.32-0.04-0.66-0.13-1.01
			c-0.31-1.21-1.04-1.93-2.19-2.18c-0.1,0-0.21,0.01-0.32,0.03C305.35,293.83,304.94,294,304.47,294.34z M306.58,288.1h2.77v2.28
			h-2.77V288.1z"/>
		<path class="st8" d="M321.19,301.56c-0.8,0.32-1.69,0.48-2.68,0.48c-1.82,0-3.23-0.59-4.25-1.78c-0.64-0.73-1.01-1.76-1.1-3.07
			c0-0.61,0.11-1.23,0.33-1.88c0.24-0.7,0.58-1.3,1.01-1.8c0.92-1.08,2.35-1.65,4.29-1.71h0.17c1.63,0,3.09,0.64,4.37,1.93
			c0.71,0.82,1.1,1.97,1.18,3.46c0,0.1-0.01,0.2-0.02,0.3l-0.02,1.68h2.01l0.02,2.86h-2.14c-0.23,1.02-0.76,1.92-1.6,2.69
			c-1.03,0.82-2.47,1.23-4.3,1.23h-0.55l0.03-2.19c0.14,0.02,0.28,0.03,0.42,0.03c0.88,0,1.62-0.32,2.24-0.95
			C320.9,302.52,321.09,302.09,321.19,301.56z M317.44,294.48c-0.31,0.2-0.57,0.49-0.78,0.88c-0.23,0.44-0.35,0.93-0.35,1.46
			c0,0.45,0.09,0.91,0.28,1.38c0.4,0.95,1.16,1.43,2.29,1.43c0.36,0,0.65-0.04,0.88-0.12c0.28-0.09,0.58-0.33,0.9-0.73
			c0.44-0.54,0.66-1.17,0.66-1.88c0-0.3-0.04-0.61-0.13-0.93c-0.32-1.31-1.05-1.97-2.19-1.99c-0.1,0-0.21,0.01-0.32,0.03
			C318.32,294.01,317.9,294.17,317.44,294.48z"/>
		<path class="st8" d="M325.18,299.16h3.94c-0.51-1.01-0.76-1.95-0.76-2.83c0-1.06,0.27-2.03,0.81-2.91
			c0.74-1.07,1.66-1.8,2.76-2.18c0.63-0.22,1.49-0.35,2.56-0.38c1.13-0.02,2.22,0.26,3.27,0.83c1.49,0.81,2.41,2.07,2.74,3.77
			c0.08,0.4,0.12,0.79,0.12,1.16c0,0.92-0.22,1.77-0.65,2.54h2.81v2.84h-7.41c-0.3,0.02-0.62,0.03-0.95,0.03h-9.24V299.16z
			 M331.65,296.67c0,0.23,0.02,0.47,0.07,0.7c0.28,1.44,1.15,2.16,2.61,2.16c0.21,0,0.4-0.02,0.58-0.05
			c0.43-0.08,0.86-0.33,1.28-0.77c0.59-0.59,0.88-1.35,0.88-2.27c0-0.13-0.01-0.28-0.02-0.43c-0.28-1.63-1.15-2.48-2.63-2.54
			c-0.74-0.05-1.39,0.25-1.94,0.9C331.93,295,331.65,295.77,331.65,296.67z M333.19,286.42h2.78v2.28h-2.78V286.42z"/>
		<path class="st8" d="M341.89,302.02v-2.86h2.89v-7.21h3.27v2.54c1.13-1.63,2.66-2.74,4.59-3.34c0.81-0.25,1.66-0.4,2.56-0.43
			c2.04-0.03,3.71,0.4,5,1.3c1.07,0.71,1.92,1.82,2.53,3.34c0.42,1.15,0.65,2.43,0.7,3.82h2.53v2.84H341.89z M347.9,299.13h11.77
			c0.04-0.48,0.07-0.86,0.07-1.16c-0.11-1.31-0.6-2.39-1.48-3.24c-0.36-0.37-0.8-0.67-1.31-0.9c-0.55-0.22-1.12-0.33-1.71-0.33
			c-1.07,0-2.17,0.34-3.27,1.01c-0.78,0.48-1.42,1.01-1.95,1.6C348.98,297.29,348.28,298.3,347.9,299.13z"/>
		<path class="st8" d="M368.41,286.38h3.47v12.15c0,1.43-0.76,2.49-2.29,3.17c-0.6,0.21-1.27,0.32-2.03,0.32h-3.34v-2.86h1.4
			c0.22,0.02,0.53,0.02,0.93-0.02c1.1-0.11,1.72-0.74,1.86-1.89V286.38z"/>
		<path class="st8" d="M374.01,286.33l3.52-0.02v15.69l-3.56,0.03L374.01,286.33z"/>
	</g>
	<g>
		<path class="st9" d="M27.5,324.67l-0.75,2.71h-2.48l3.23-10.55h3.13l3.27,10.55h-2.57l-0.81-2.71H27.5z M30.18,322.89l-0.66-2.24
			c-0.19-0.63-0.38-1.41-0.53-2.04h-0.03c-0.16,0.63-0.31,1.42-0.49,2.04l-0.63,2.24H30.18z"/>
		<path class="st9" d="M35.32,316.83h2.4v8.55h4.2v2h-6.59V316.83z"/>
		<path class="st9" d="M43.41,324.93c0.64,0.33,1.63,0.66,2.65,0.66c1.1,0,1.67-0.45,1.67-1.14c0-0.66-0.5-1.03-1.77-1.49
			c-1.75-0.61-2.9-1.58-2.9-3.12c0-1.8,1.5-3.18,3.99-3.18c1.19,0,2.07,0.25,2.69,0.53l-0.53,1.92c-0.42-0.2-1.17-0.5-2.21-0.5
			c-1.03,0-1.53,0.47-1.53,1.02c0,0.67,0.59,0.97,1.96,1.49c1.86,0.69,2.74,1.66,2.74,3.15c0,1.77-1.36,3.27-4.26,3.27
			c-1.21,0-2.4-0.31-2.99-0.64L43.41,324.93z"/>
		<path class="st9" d="M54.25,324.67l-0.75,2.71h-2.48l3.23-10.55h3.13l3.27,10.55h-2.57l-0.81-2.71H54.25z M56.93,322.89
			l-0.66-2.24c-0.19-0.63-0.38-1.41-0.53-2.04h-0.03c-0.16,0.63-0.31,1.42-0.49,2.04l-0.63,2.24H56.93z"/>
		<path class="st9" d="M62.07,316.83h6.45v1.96h-4.06v2.41h3.79v1.94h-3.79v4.24h-2.4V316.83z"/>
		<path class="st9" d="M72.04,327.38l-2.51-10.55h2.55l0.8,4.35c0.23,1.25,0.45,2.62,0.63,3.68h0.03c0.17-1.14,0.42-2.41,0.69-3.71
			l0.89-4.32h2.54l0.85,4.45c0.23,1.24,0.41,2.36,0.56,3.54h0.03c0.16-1.18,0.39-2.41,0.61-3.67l0.86-4.32H83l-2.73,10.55h-2.58
			l-0.89-4.54c-0.2-1.07-0.38-2.05-0.5-3.26h-0.03c-0.19,1.19-0.36,2.19-0.61,3.26l-1,4.54H72.04z"/>
		<path class="st9" d="M85.86,324.67l-0.75,2.71h-2.48l3.23-10.55H89l3.27,10.55H89.7l-0.81-2.71H85.86z M88.54,322.89l-0.66-2.24
			c-0.19-0.63-0.38-1.41-0.53-2.04h-0.03c-0.16,0.63-0.31,1.42-0.49,2.04l-0.63,2.24H88.54z"/>
		<path class="st9" d="M99.31,324.67l-0.75,2.71h-2.48l3.23-10.55h3.13l3.27,10.55h-2.57l-0.81-2.71H99.31z M101.99,322.89
			l-0.66-2.24c-0.19-0.63-0.38-1.41-0.53-2.04h-0.03c-0.16,0.63-0.31,1.42-0.49,2.04l-0.63,2.24H101.99z"/>
		<path class="st9" d="M107.13,316.83h2.4v8.55h4.2v2h-6.59V316.83z"/>
		<path class="st9" d="M117.69,324.67l-0.75,2.71h-2.48l3.23-10.55h3.13l3.27,10.55h-2.57l-0.81-2.71H117.69z M120.37,322.89
			l-0.66-2.24c-0.19-0.63-0.38-1.41-0.53-2.04h-0.03c-0.16,0.63-0.31,1.42-0.49,2.04l-0.63,2.24H120.37z"/>
		<path class="st9" d="M125.59,324.93c0.64,0.33,1.63,0.66,2.65,0.66c1.1,0,1.67-0.45,1.67-1.14c0-0.66-0.5-1.03-1.77-1.49
			c-1.75-0.61-2.9-1.58-2.9-3.12c0-1.8,1.5-3.18,3.99-3.18c1.19,0,2.07,0.25,2.69,0.53l-0.53,1.92c-0.42-0.2-1.17-0.5-2.21-0.5
			c-1.03,0-1.53,0.47-1.53,1.02c0,0.67,0.59,0.97,1.96,1.49c1.86,0.69,2.74,1.66,2.74,3.15c0,1.77-1.36,3.27-4.26,3.27
			c-1.21,0-2.4-0.31-2.99-0.64L125.59,324.93z"/>
		<path class="st9" d="M133.98,316.97c0.77-0.13,1.91-0.22,3.18-0.22c1.56,0,2.66,0.23,3.41,0.83c0.63,0.5,0.97,1.24,0.97,2.21
			c0,1.35-0.96,2.27-1.86,2.6v0.05c0.74,0.3,1.14,1,1.41,1.97c0.33,1.19,0.66,2.57,0.86,2.98h-2.44c-0.17-0.3-0.42-1.16-0.74-2.46
			c-0.28-1.32-0.74-1.68-1.71-1.69h-0.72v4.15h-2.36V316.97z M136.34,321.51h0.94c1.19,0,1.9-0.59,1.9-1.52
			c0-0.97-0.66-1.46-1.75-1.47c-0.58,0-0.91,0.05-1.08,0.08V321.51z"/>
		<path class="st9" d="M145.42,327.38v-4.32l-3.34-6.23h2.72l1.08,2.54c0.33,0.77,0.55,1.33,0.81,2.02h0.03
			c0.24-0.66,0.49-1.27,0.8-2.02l1.07-2.54h2.68l-3.48,6.15v4.4H145.42z"/>
		<path class="st9" d="M153.44,324.67l-0.75,2.71h-2.48l3.23-10.55h3.13l3.27,10.55h-2.57l-0.81-2.71H153.44z M156.12,322.89
			l-0.66-2.24c-0.19-0.63-0.38-1.41-0.53-2.04h-0.03c-0.16,0.63-0.31,1.42-0.49,2.04l-0.63,2.24H156.12z"/>
		<path class="st9" d="M163.66,316.83v4.05h3.93v-4.05h2.38v10.55h-2.38v-4.42h-3.93v4.42h-2.4v-10.55H163.66z"/>
		<path class="st9" d="M175.23,316.83h6.45v1.96h-4.06v2.41h3.79v1.94h-3.79v4.24h-2.4V316.83z"/>
		<path class="st9" d="M193.15,322c0,3.46-2.1,5.56-5.18,5.56c-3.13,0-4.96-2.36-4.96-5.37c0-3.16,2.02-5.53,5.14-5.53
			C191.38,316.66,193.15,319.08,193.15,322z M185.52,322.14c0,2.07,0.97,3.52,2.57,3.52c1.61,0,2.54-1.54,2.54-3.59
			c0-1.9-0.91-3.52-2.55-3.52C186.46,318.55,185.52,320.09,185.52,322.14z"/>
		<path class="st9" d="M194.73,316.97c0.77-0.13,1.91-0.22,3.18-0.22c1.56,0,2.66,0.23,3.41,0.83c0.63,0.5,0.97,1.24,0.97,2.21
			c0,1.35-0.96,2.27-1.86,2.6v0.05c0.74,0.3,1.14,1,1.41,1.97c0.33,1.19,0.66,2.57,0.86,2.98h-2.44c-0.17-0.3-0.42-1.16-0.74-2.46
			c-0.28-1.32-0.74-1.68-1.71-1.69h-0.72v4.15h-2.36V316.97z M197.09,321.51h0.94c1.19,0,1.9-0.59,1.9-1.52
			c0-0.97-0.66-1.46-1.75-1.47c-0.58,0-0.91,0.05-1.08,0.08V321.51z"/>
		<path class="st9" d="M216,326.9c-0.74,0.25-2.13,0.59-3.52,0.59c-1.93,0-3.32-0.49-4.29-1.42c-0.97-0.91-1.5-2.28-1.49-3.84
			c0.02-3.51,2.57-5.51,6.03-5.51c1.36,0,2.41,0.27,2.93,0.52l-0.5,1.91c-0.58-0.25-1.3-0.45-2.46-0.45c-1.99,0-3.49,1.13-3.49,3.41
			c0,2.18,1.36,3.46,3.32,3.46c0.55,0,0.99-0.06,1.17-0.16v-2.21h-1.63v-1.86H216V326.9z"/>
		<path class="st9" d="M224.15,322.92h-3.88v2.5h4.34v1.96h-6.73v-10.55h6.51v1.96h-4.12v2.19h3.88V322.92z"/>
		<path class="st9" d="M226.24,327.38v-10.55h2.79l2.19,3.87c0.63,1.11,1.25,2.43,1.72,3.62h0.05c-0.16-1.39-0.2-2.82-0.2-4.4v-3.08
			h2.19v10.55h-2.5l-2.26-4.07c-0.63-1.13-1.31-2.49-1.83-3.73l-0.05,0.01c0.06,1.39,0.09,2.88,0.09,4.61v3.18H226.24z"/>
		<path class="st9" d="M243.34,322.92h-3.88v2.5h4.34v1.96h-6.73v-10.55h6.51v1.96h-4.12v2.19h3.88V322.92z"/>
		<path class="st9" d="M245.43,316.97c0.77-0.13,1.91-0.22,3.18-0.22c1.56,0,2.66,0.23,3.41,0.83c0.63,0.5,0.97,1.24,0.97,2.21
			c0,1.35-0.96,2.27-1.86,2.6v0.05c0.74,0.3,1.14,1,1.41,1.97c0.33,1.19,0.66,2.57,0.86,2.98h-2.44c-0.17-0.3-0.42-1.16-0.74-2.46
			c-0.28-1.32-0.74-1.68-1.71-1.69h-0.72v4.15h-2.36V316.97z M247.79,321.51h0.94c1.19,0,1.9-0.59,1.9-1.52
			c0-0.97-0.66-1.46-1.75-1.47c-0.58,0-0.91,0.05-1.08,0.08V321.51z"/>
		<path class="st9" d="M257.32,324.67l-0.75,2.71h-2.48l3.23-10.55h3.13l3.27,10.55h-2.57l-0.81-2.71H257.32z M260,322.89
			l-0.66-2.24c-0.19-0.63-0.38-1.41-0.53-2.04h-0.03c-0.16,0.63-0.31,1.42-0.49,2.04l-0.63,2.24H260z"/>
		<path class="st9" d="M265.14,316.83h2.4v8.55h4.2v2h-6.59V316.83z"/>
		<path class="st9" d="M284.07,327.09c-0.44,0.22-1.42,0.45-2.71,0.45c-3.65,0-5.53-2.27-5.53-5.28c0-3.6,2.57-5.61,5.76-5.61
			c1.24,0,2.18,0.25,2.6,0.47l-0.49,1.89c-0.49-0.2-1.16-0.39-2-0.39c-1.89,0-3.37,1.14-3.37,3.49c0,2.12,1.25,3.45,3.38,3.45
			c0.72,0,1.52-0.16,1.99-0.35L284.07,327.09z"/>
		<path class="st9" d="M294.83,322c0,3.46-2.1,5.56-5.18,5.56c-3.13,0-4.96-2.36-4.96-5.37c0-3.16,2.02-5.53,5.14-5.53
			C293.06,316.66,294.83,319.08,294.83,322z M287.21,322.14c0,2.07,0.97,3.52,2.57,3.52c1.61,0,2.54-1.54,2.54-3.59
			c0-1.9-0.91-3.52-2.55-3.52C288.15,318.55,287.21,320.09,287.21,322.14z"/>
		<path class="st9" d="M296.41,327.38v-10.55h2.79l2.19,3.87c0.63,1.11,1.25,2.43,1.72,3.62h0.05c-0.16-1.39-0.2-2.82-0.2-4.4v-3.08
			h2.19v10.55h-2.51l-2.25-4.07c-0.63-1.13-1.32-2.49-1.83-3.73l-0.05,0.01c0.06,1.39,0.09,2.88,0.09,4.61v3.18H296.41z"/>
		<path class="st9" d="M309.26,318.83h-2.83v-2h8.11v2h-2.88v8.55h-2.4V318.83z"/>
		<path class="st9" d="M315.81,316.97c0.77-0.13,1.91-0.22,3.18-0.22c1.56,0,2.66,0.23,3.41,0.83c0.63,0.5,0.97,1.24,0.97,2.21
			c0,1.35-0.96,2.27-1.86,2.6v0.05c0.74,0.3,1.14,1,1.41,1.97c0.33,1.19,0.66,2.57,0.86,2.98h-2.44c-0.17-0.3-0.42-1.16-0.74-2.46
			c-0.28-1.32-0.74-1.68-1.71-1.69h-0.72v4.15h-2.36V316.97z M318.18,321.51h0.94c1.19,0,1.9-0.59,1.9-1.52
			c0-0.97-0.66-1.46-1.75-1.47c-0.58,0-0.91,0.05-1.08,0.08V321.51z"/>
		<path class="st9" d="M327.7,324.67l-0.75,2.71h-2.48l3.23-10.55h3.13l3.27,10.55h-2.57l-0.81-2.71H327.7z M330.38,322.89
			l-0.66-2.24c-0.19-0.63-0.38-1.41-0.53-2.04h-0.03c-0.16,0.63-0.31,1.42-0.49,2.04l-0.63,2.24H330.38z"/>
		<path class="st9" d="M342.89,327.09c-0.44,0.22-1.42,0.45-2.71,0.45c-3.65,0-5.53-2.27-5.53-5.28c0-3.6,2.57-5.61,5.76-5.61
			c1.24,0,2.18,0.25,2.6,0.47l-0.49,1.89c-0.49-0.2-1.16-0.39-2-0.39c-1.89,0-3.37,1.14-3.37,3.49c0,2.12,1.25,3.45,3.38,3.45
			c0.72,0,1.52-0.16,1.99-0.35L342.89,327.09z"/>
		<path class="st9" d="M346.72,318.83h-2.83v-2h8.11v2h-2.88v8.55h-2.4V318.83z"/>
		<path class="st9" d="M355.66,316.83v10.55h-2.4v-10.55H355.66z"/>
		<path class="st9" d="M357.73,327.38v-10.55h2.79l2.19,3.87c0.63,1.11,1.25,2.43,1.72,3.62h0.05c-0.16-1.39-0.2-2.82-0.2-4.4v-3.08
			h2.19v10.55h-2.51l-2.25-4.07c-0.63-1.13-1.31-2.49-1.83-3.73l-0.05,0.01c0.06,1.39,0.09,2.88,0.09,4.61v3.18H357.73z"/>
		<path class="st9" d="M377.36,326.9c-0.74,0.25-2.13,0.59-3.52,0.59c-1.93,0-3.32-0.49-4.29-1.42c-0.97-0.91-1.5-2.28-1.49-3.84
			c0.02-3.51,2.57-5.51,6.03-5.51c1.36,0,2.41,0.27,2.93,0.52l-0.5,1.91c-0.58-0.25-1.3-0.45-2.46-0.45c-1.99,0-3.49,1.13-3.49,3.41
			c0,2.18,1.36,3.46,3.32,3.46c0.55,0,0.99-0.06,1.17-0.16v-2.21h-1.63v-1.86h3.93V326.9z"/>
	</g>
</g>
</svg>
