<?xml version="1.0" encoding="utf-8"?>
<!-- Generator: Adobe Illustrator 26.0.1, SVG Export Plug-In . SVG Version: 6.00 Build 0)  -->
<svg version="1.1" id="Layer_1" xmlns="http://www.w3.org/2000/svg" xmlns:xlink="http://www.w3.org/1999/xlink" x="0px" y="0px"
	 viewBox="0 0 400 400" style="enable-background:new 0 0 400 400;" xml:space="preserve">
<style type="text/css">
	.st0{fill:#0B2739;}
</style>
<g>
	<g>
		<path class="st0" d="M22.93,330.72l2.38-4.14c1.44,0.91,2.78,1.55,4.02,1.93c1.24,0.37,2.61,0.56,4.11,0.56
			c1.81,0,3.23-0.39,4.26-1.17c1.04-0.78,1.55-1.89,1.55-3.35c0-1.32-0.43-2.36-1.29-3.12c-0.86-0.76-2.33-1.45-4.4-2.08
			c-3.25-0.94-5.63-2.12-7.14-3.54c-1.51-1.42-2.27-3.34-2.27-5.76c0-2.61,0.98-4.79,2.94-6.53s4.63-2.61,8.01-2.61
			c1.48,0,2.95,0.17,4.39,0.51c1.44,0.34,2.85,0.86,4.23,1.57l-2.09,4.23c-1.18-0.63-2.32-1.09-3.43-1.38
			c-1.11-0.29-2.23-0.43-3.36-0.43c-1.66,0-2.97,0.36-3.91,1.09c-0.95,0.73-1.42,1.75-1.42,3.08c0,1.17,0.43,2.1,1.3,2.77
			c0.87,0.67,2.37,1.33,4.5,2c3.31,0.96,5.68,2.18,7.13,3.66c1.45,1.48,2.17,3.51,2.17,6.08c0,2.78-0.99,5.06-2.96,6.83
			c-1.98,1.78-4.79,2.67-8.45,2.67c-1.84,0-3.63-0.24-5.37-0.72C26.09,332.37,24.46,331.66,22.93,330.72z"/>
		<path class="st0" d="M70.32,333.04h-5.25v-3.62h-0.11c-0.81,1.38-1.81,2.42-3.01,3.12c-1.2,0.7-2.58,1.05-4.13,1.05
			c-2.7,0-4.73-0.81-6.09-2.44c-1.36-1.62-2.04-4.07-2.04-7.35v-13.88h5.22v13.27c0,2.07,0.4,3.63,1.2,4.67
			c0.8,1.04,2.01,1.56,3.63,1.56c1.57,0,2.85-0.57,3.85-1.71c0.99-1.14,1.49-2.65,1.49-4.53v-13.27h5.25V333.04z"/>
		<path class="st0" d="M90.2,314.33c-0.29-0.07-0.58-0.13-0.86-0.18c-0.28-0.04-0.6-0.07-0.97-0.07c-1.84,0-3.26,0.7-4.26,2.08
			c-1.01,1.39-1.51,3.21-1.51,5.46v11.42h-5.27v-23.12h5.27v4.45h0.09c0.53-1.6,1.32-2.81,2.38-3.63c1.06-0.81,2.31-1.22,3.75-1.22
			c0.4,0,0.76,0.02,1.1,0.07c0.34,0.04,0.66,0.11,0.97,0.2L90.2,314.33z"/>
		<path class="st0" d="M112.55,333.04h-5.07v-3.51h-0.09c-0.78,1.34-1.75,2.35-2.92,3.03c-1.17,0.68-2.51,1.03-4.02,1.03
			c-2.13,0-3.88-0.62-5.25-1.86c-1.37-1.24-2.05-2.93-2.05-5.06c0-2.09,0.69-3.78,2.06-5.09c1.37-1.31,3.43-2.16,6.16-2.56
			l6.15-0.82v-0.48c0-1.56-0.41-2.7-1.22-3.42s-1.92-1.08-3.32-1.08c-1.1,0-2.22,0.2-3.36,0.61c-1.14,0.4-2.24,1.01-3.32,1.82
			l-2.25-3.13c1.4-1.07,2.85-1.87,4.37-2.38c1.52-0.52,3.18-0.77,4.97-0.77c3.07,0,5.36,0.76,6.88,2.29
			c1.51,1.53,2.27,3.83,2.27,6.9V333.04z M107.52,323.6v-1.94l-4.98,0.66c-1.47,0.21-2.57,0.6-3.29,1.19
			c-0.73,0.59-1.09,1.45-1.09,2.58c0,1.1,0.34,1.97,1.02,2.6c0.68,0.63,1.58,0.95,2.68,0.95c1.69,0,3.06-0.56,4.1-1.7
			C107,326.81,107.52,325.37,107.52,323.6z"/>
		<path class="st0" d="M124.49,334.29c0,3.09-0.71,5.42-2.13,7c-1.42,1.58-3.48,2.37-6.18,2.37c-0.72,0-1.4-0.05-2.05-0.14
			c-0.65-0.09-1.28-0.25-1.9-0.47l1.12-4.08c0.4,0.15,0.79,0.26,1.18,0.34c0.39,0.08,0.8,0.12,1.22,0.12c1.22,0,2.1-0.39,2.66-1.18
			c0.55-0.79,0.83-2.03,0.83-3.74v-24.6h5.25V334.29z M121.94,305.84c-0.96,0-1.75-0.3-2.38-0.89c-0.63-0.6-0.95-1.34-0.95-2.24
			c0-0.91,0.31-1.66,0.95-2.26c0.63-0.59,1.43-0.89,2.38-0.89c0.94,0,1.73,0.3,2.37,0.89c0.64,0.6,0.96,1.35,0.96,2.26
			c0,0.9-0.32,1.64-0.96,2.24C123.67,305.54,122.88,305.84,121.94,305.84z"/>
		<path class="st0" d="M167.89,331.41c-1.6,0.76-3.16,1.32-4.67,1.65s-3.16,0.51-4.94,0.51c-4.85,0-8.64-1.41-11.38-4.23
			s-4.11-6.69-4.11-11.61c0-4.98,1.52-9.03,4.55-12.14c3.03-3.12,7-4.67,11.89-4.67c1.6,0,3.07,0.13,4.41,0.4
			c1.34,0.27,2.7,0.69,4.08,1.28l-1.76,4.39c-1.1-0.47-2.18-0.81-3.23-1.03c-1.05-0.21-2.19-0.32-3.41-0.32
			c-3.16,0-5.76,1.06-7.8,3.16c-2.04,2.11-3.06,4.97-3.06,8.59c0,3.55,0.94,6.36,2.81,8.41s4.4,3.08,7.59,3.08
			c1.06,0,2.17-0.14,3.35-0.42c1.18-0.28,2.38-0.74,3.61-1.37L167.89,331.41z"/>
		<path class="st0" d="M183.25,333.59c-3.63,0-6.5-1.08-8.62-3.25c-2.12-2.17-3.17-5.07-3.17-8.7c0.01-3.85,1.11-6.86,3.29-9.02
			c2.18-2.17,5.15-3.25,8.92-3.25c3.61-0.02,6.45,1.05,8.5,3.19c2.05,2.15,3.07,5.05,3.07,8.71c0,3.76-1.08,6.75-3.24,8.98
			C189.84,332.48,186.93,333.59,183.25,333.59z M183.5,329.42c2.09,0,3.67-0.69,4.76-2.06c1.09-1.37,1.63-3.36,1.63-5.96
			c0-2.56-0.55-4.51-1.64-5.85c-1.1-1.35-2.69-2.02-4.77-2.02c-2.07,0-3.7,0.71-4.88,2.13c-1.18,1.42-1.77,3.38-1.77,5.89
			s0.58,4.45,1.75,5.82C179.74,328.74,181.38,329.42,183.5,329.42z"/>
		<path class="st0" d="M203.02,333.54c-0.92,0-1.71-0.3-2.35-0.89c-0.64-0.6-0.96-1.33-0.96-2.22c0-0.9,0.32-1.64,0.96-2.25
			c0.64-0.6,1.42-0.9,2.35-0.9c0.96,0,1.74,0.3,2.37,0.89c0.62,0.59,0.94,1.34,0.94,2.24c0,0.9-0.32,1.64-0.95,2.24
			C204.75,333.25,203.96,333.54,203.02,333.54z"/>
		<path class="st0" d="M242.85,333.04h-17.59v-31.61h5.36v27.09h12.23V333.04z"/>
		<path class="st0" d="M249.93,305.84c-0.96,0-1.75-0.3-2.37-0.9s-0.94-1.35-0.94-2.23c0-0.92,0.31-1.68,0.94-2.27
			c0.62-0.59,1.41-0.88,2.37-0.88c0.95,0,1.75,0.29,2.38,0.88c0.63,0.59,0.95,1.35,0.95,2.27c0,0.9-0.32,1.64-0.95,2.24
			C251.68,305.54,250.88,305.84,249.93,305.84z M252.51,333.04h-5.25v-23.12h5.25V333.04z"/>
		<path class="st0" d="M294.45,333.04h-5.25v-13.25c0-2.17-0.36-3.76-1.07-4.76c-0.71-1-1.86-1.5-3.45-1.5
			c-1.4,0-2.56,0.62-3.5,1.86c-0.94,1.24-1.41,2.77-1.41,4.57v13.07h-5.25v-13.56c0-1.98-0.38-3.47-1.14-4.46
			c-0.76-0.99-1.89-1.49-3.38-1.49c-1.45,0-2.63,0.59-3.54,1.78c-0.9,1.18-1.36,2.75-1.36,4.7v13.03h-5.27v-23.12h5.27v3.64h0.09
			c0.78-1.32,1.8-2.35,3.05-3.08c1.26-0.74,2.68-1.1,4.27-1.1c1.59,0,2.96,0.4,4.11,1.2c1.15,0.8,1.99,1.92,2.5,3.36
			c0.87-1.53,1.94-2.67,3.23-3.43c1.29-0.76,2.78-1.13,4.49-1.13c2.53,0,4.43,0.78,5.7,2.34c1.27,1.56,1.91,3.89,1.91,7.01V333.04z"
			/>
		<path class="st0" d="M303.71,305.84c-0.96,0-1.75-0.3-2.37-0.9c-0.62-0.6-0.94-1.35-0.94-2.23c0-0.92,0.31-1.68,0.94-2.27
			c0.62-0.59,1.41-0.88,2.37-0.88c0.95,0,1.75,0.29,2.38,0.88c0.63,0.59,0.95,1.35,0.95,2.27c0,0.9-0.32,1.64-0.95,2.24
			C305.45,305.54,304.66,305.84,303.71,305.84z M306.28,333.04h-5.25v-23.12h5.25V333.04z"/>
		<path class="st0" d="M326.28,332.71c-0.66,0.29-1.36,0.51-2.09,0.64c-0.74,0.13-1.52,0.2-2.36,0.2c-2.16,0-3.82-0.57-4.97-1.71
			s-1.73-2.83-1.73-5.08v-12.76h-3.86v-4.08h3.86v-5.25l5.25-1.59v6.83h5.53v4.08h-5.53v12.3c0,1.15,0.21,1.97,0.63,2.47
			c0.42,0.5,1.06,0.75,1.93,0.75c0.43,0,0.83-0.05,1.21-0.14c0.38-0.09,0.73-0.23,1.03-0.39L326.28,332.71z"/>
		<path class="st0" d="M350.37,322.83h-15.78c0.1,2.19,0.74,3.86,1.91,5c1.17,1.15,2.82,1.72,4.95,1.72c0.84,0,1.81-0.17,2.92-0.52
			c1.11-0.34,2.22-0.91,3.32-1.69l2.34,3.28c-1.45,1.03-2.92,1.78-4.41,2.25c-1.48,0.47-3.12,0.71-4.89,0.71
			c-3.59,0-6.38-1.04-8.38-3.11c-2-2.07-3-4.97-3.02-8.71c0-3.7,1.04-6.7,3.11-8.98c2.07-2.28,4.72-3.43,7.96-3.43
			c3.12,0,5.56,0.97,7.33,2.92c1.77,1.95,2.66,4.7,2.66,8.28V322.83z M345.34,319.22c-0.02-1.98-0.46-3.48-1.32-4.5
			c-0.87-1.01-2.09-1.52-3.68-1.52c-1.5,0-2.77,0.54-3.81,1.63c-1.04,1.09-1.68,2.55-1.92,4.39H345.34z"/>
		<path class="st0" d="M371.39,329.44c-0.82,1.38-1.87,2.42-3.13,3.11c-1.26,0.69-2.75,1.04-4.45,1.04c-2.89,0-5.22-1.03-6.98-3.09
			c-1.76-2.06-2.63-4.88-2.63-8.48c0-3.84,0.97-6.9,2.9-9.2c1.93-2.3,4.49-3.45,7.68-3.45c1.54,0,2.87,0.29,3.97,0.87
			c1.1,0.58,1.98,1.46,2.64,2.63h0.09v-13.25h5.27v33.41h-5.27v-3.59H371.39z M359.56,321.8c0,2.39,0.54,4.26,1.61,5.61
			c1.07,1.35,2.52,2.02,4.34,2.02c1.81,0,3.27-0.67,4.37-2c1.11-1.34,1.66-3.06,1.66-5.18v-2.67c0-1.72-0.53-3.15-1.6-4.31
			c-1.07-1.15-2.44-1.73-4.11-1.73c-1.96,0-3.49,0.74-4.61,2.2C360.12,317.21,359.56,319.23,359.56,321.8z"/>
	</g>
	<g>
		<path class="st0" d="M230.92,192.72l-0.83-0.7c-1.53,18.78-18.08,24.76-18.08,24.76c-22.26,7.65-32.69-5.98-32.69-5.98
			c10.37-6.84,12.67-15.47,13.18-18.75c-0.49-1.06-0.77-2.24-0.77-3.48c0-4.61,3.73-8.34,8.34-8.34c2.67,0,5.03,1.26,6.56,3.2
			c0.79-8.91,7.97-15.4,7.97-15.4c-33.94-15.02-38.39,20.59-38.39,20.59c-3.62,7.65-8.21,7.79-8.21,7.79
			c-11.82,2.47-14.09-4.85-14.52-8.31c0,0.16-0.01,0.31-0.01,0.47c0,25.95,21.03,46.98,46.98,46.98c24.87,0,45.22-19.33,46.86-43.79
			C239.38,196.19,230.92,192.72,230.92,192.72z"/>
		<path class="st0" d="M218.28,145.12v-4.76c-6.82-2.09-5.7-10.02-5.7-10.02c-8.62-4.31-6.4-12.1-6.4-12.1
			c1.95-10.29,12.24-11.69,12.24-11.69c10.29-0.7,11.55,8.49,11.55,8.49c-0.83,6.4-4.87,5.84-4.87,5.84c3.76-5.15,0.7-7.51,0.7-7.51
			c-4.87-4.31-9.46,3.89-9.46,3.89c-3.06,3.34-7.51,0.97-7.51,0.97c-1.81,10.15,6.54,9.46,6.54,9.46c-1.81,2.78,0.83,7.23,0.83,7.23
			c5.29,9.18,16.55,5.56,16.55,5.56c8.9-6.68,5.7-15.86,5.7-15.86c-2.92,5.29-5.56,5.29-5.56,5.29c-8.07-0.42-5.56,7.79-5.56,7.79
			c-5.7-2.64-1.53-8.07-1.53-8.07c7.09-5.84,8.35-10.15,8.35-10.15c3.89-13.08-8.49-16.29-8.49-16.29
			c4.59-4.05,1.53-12.09,1.53-12.09c-0.97,9.88-8.21,11.13-8.21,11.13c-10.15,3.62-12.38-4.17-12.38-4.17
			c-2.09-9.46,1.95-10.71,1.95-10.71c9.04-4.73,10.85,0.83,10.85,0.83c-5.98,0.42-5.77,6.54-5.77,6.54c0.35,1.39-3.28,3.2-3.28,3.2
			c12.1,5.84,13.91-6.4,13.91-6.4c2.23-12.38-9.04-15.3-9.04-15.3c1.53-9.46-5.01-11.96-5.01-11.96c-5.01-2.92-7.51-7.93-7.51-7.93
			v85.32c-0.75-0.04-1.5-0.06-2.26-0.06c-0.64,0-1.27,0.02-1.91,0.05V56.34c0,0-2.5,5.01-7.51,7.93c0,0-6.54,2.5-5.01,11.96
			c0,0-11.27,2.92-9.04,15.3c0,0,1.81,12.24,13.91,6.4c0,0-3.63-1.81-3.28-3.2c0,0,0.22-6.12-5.77-6.54c0,0,1.81-5.56,10.85-0.83
			c0,0,4.03,1.25,1.95,10.71c0,0-2.23,7.79-12.38,4.17c0,0-7.23-1.25-8.21-11.13c0,0-3.06,8.04,1.53,12.09
			c0,0-12.38,3.22-8.49,16.29c0,0,1.25,4.31,8.35,10.15c0,0,4.17,5.43-1.53,8.07c0,0,2.5-8.21-5.56-7.79c0,0-2.64,0-5.56-5.29
			c0,0-3.2,9.18,5.7,15.86c0,0,11.27,3.62,16.55-5.56c0,0,2.64-4.45,0.83-7.23c0,0,8.35,0.7,6.54-9.46c0,0-4.45,2.36-7.51-0.97
			c0,0-4.59-8.21-9.46-3.89c0,0-3.06,2.36,0.7,7.51c0,0-4.03,0.56-4.87-5.84c0,0,1.25-9.18,11.55-8.49c0,0,10.29,1.39,12.24,11.69
			c0,0,2.23,7.79-6.4,12.1c0,0,1.11,7.93-5.7,10.02v4.62c-16.62,6.67-28.55,22.56-29.43,41.35c7.89-4.33,16.27-0.9,16.27-0.9
			l0.83,0.7c1.53-18.78,18.08-24.76,18.08-24.76c22.26-7.65,32.69,5.98,32.69,5.98c-10.96,7.23-12.91,16.46-13.25,19.26
			c0.15,0.63,0.24,1.29,0.24,1.97c0,4.61-3.73,8.34-8.34,8.34c-2.33,0-4.43-0.96-5.94-2.49c-0.66,9.06-7.99,15.68-7.99,15.68
			c33.94,15.02,38.39-20.59,38.39-20.59c3.62-7.65,8.21-7.79,8.21-7.79c13.62-2.85,14.56,7.3,14.61,9.57
			c0.05-0.9,0.08-1.81,0.08-2.72C247.42,168.95,235.38,152.14,218.28,145.12z"/>
	</g>
	<g>
		<path class="st0" d="M32.46,284.44c-1.13,1.19-2.7,1.79-4.7,1.79c-2,0-3.57-0.6-4.71-1.79c-1.14-1.19-1.71-2.84-1.71-4.94
			c0-2.12,0.57-3.79,1.71-5s2.71-1.83,4.71-1.83c2,0,3.56,0.61,4.7,1.83c1.13,1.22,1.7,2.89,1.7,5
			C34.16,281.6,33.59,283.25,32.46,284.44z M25.36,270.48c-0.53,0-0.98-0.19-1.35-0.57c-0.37-0.38-0.56-0.84-0.56-1.38
			c0-0.54,0.19-0.99,0.56-1.36c0.37-0.37,0.82-0.55,1.35-0.55c0.55,0,1.01,0.18,1.38,0.55c0.37,0.37,0.56,0.82,0.56,1.36
			c0,0.55-0.19,1.01-0.56,1.39C26.36,270.29,25.9,270.48,25.36,270.48z M27.76,283.04c0.91,0,1.62-0.31,2.14-0.93
			c0.52-0.62,0.77-1.49,0.77-2.61c0-1.14-0.26-2.04-0.77-2.68c-0.52-0.65-1.23-0.97-2.14-0.97c-0.93,0-1.65,0.32-2.17,0.97
			c-0.52,0.65-0.77,1.54-0.77,2.68c0,1.12,0.26,1.98,0.77,2.61C26.11,282.73,26.83,283.04,27.76,283.04z M31.47,269.92
			c-0.38,0.38-0.83,0.56-1.37,0.56c-0.54,0-0.99-0.19-1.36-0.56c-0.37-0.38-0.55-0.84-0.55-1.39c0-0.54,0.18-0.99,0.55-1.36
			c0.37-0.37,0.82-0.55,1.36-0.55c0.55,0,1.01,0.18,1.38,0.55c0.37,0.37,0.56,0.82,0.56,1.36
			C32.04,269.08,31.85,269.54,31.47,269.92z"/>
		<path class="st0" d="M36.57,286.24v-3.19h8.11v-2.52c0-1.27-0.29-2.23-0.87-2.87c-0.58-0.63-1.62-0.95-3.13-0.95h-2.59v-3.17h3.4
			c4.41,0,6.62,2.25,6.62,6.73v5.97H36.57z"/>
		<path class="st0" d="M53.06,291.71v-3.16h3.21c1.02,0,1.74-0.18,2.15-0.55c0.41-0.37,0.61-0.96,0.61-1.76h-0.31
			c-1.45,0-2.73-0.19-3.86-0.56c-1.12-0.38-2.02-0.9-2.69-1.56c-0.67-0.66-1.18-1.42-1.52-2.27c-0.34-0.85-0.51-1.77-0.51-2.77
			c0-0.85,0.14-1.65,0.41-2.41c0.27-0.76,0.67-1.44,1.18-2.03c0.52-0.6,1.19-1.08,2.01-1.43c0.82-0.35,1.74-0.53,2.77-0.53
			c0.65,0,1.25,0.07,1.81,0.2c0.56,0.13,1.1,0.36,1.62,0.68c0.52,0.32,0.96,0.73,1.32,1.23c0.36,0.5,0.65,1.14,0.87,1.92
			c0.22,0.78,0.32,1.67,0.31,2.66v6.75c0,1.76-0.47,3.13-1.39,4.13c-0.93,0.99-2.37,1.49-4.33,1.49H53.06z M58.78,283.04h0.25v-0.7
			v-2.73c0-2.51-0.86-3.76-2.59-3.76c-0.86,0-1.54,0.29-2.04,0.88c-0.49,0.59-0.74,1.37-0.74,2.34c0,1.18,0.43,2.14,1.28,2.87
			C55.8,282.68,57.08,283.04,58.78,283.04z"/>
		<path class="st0" d="M76.7,283.04h2.29v3.19H65.16v-3.19h8.11v-2.52c0-1.27-0.29-2.23-0.87-2.87c-0.58-0.63-1.62-0.95-3.13-0.95
			h-2.59v-3.17h3.4c4.41,0,6.62,2.25,6.62,6.73V283.04z"/>
		<path class="st0" d="M81.29,283.04v3.19h-2.31c-0.47,0-0.71-0.53-0.71-1.6c0-0.52,0.07-0.91,0.19-1.18c0.13-0.27,0.3-0.4,0.52-0.4
			H81.29z"/>
		<path class="st0" d="M83.59,283.04v3.19h-2.31c-0.47,0-0.71-0.53-0.71-1.6c0-0.52,0.07-0.91,0.19-1.18c0.13-0.27,0.3-0.4,0.52-0.4
			H83.59z"/>
		<path class="st0" d="M85.89,283.04v3.19h-2.31c-0.47,0-0.71-0.53-0.71-1.6c0-0.52,0.07-0.91,0.19-1.18c0.13-0.27,0.3-0.4,0.52-0.4
			H85.89z"/>
		<path class="st0" d="M88.19,283.04v3.19h-2.31c-0.47,0-0.71-0.53-0.71-1.6c0-0.52,0.07-0.91,0.19-1.18c0.13-0.27,0.3-0.4,0.52-0.4
			H88.19z"/>
		<path class="st0" d="M90.49,283.04v3.19h-2.31c-0.47,0-0.71-0.53-0.71-1.6c0-0.52,0.07-0.91,0.19-1.18c0.13-0.27,0.3-0.4,0.52-0.4
			H90.49z"/>
		<path class="st0" d="M92.79,283.04v3.19h-2.31c-0.47,0-0.71-0.53-0.71-1.6c0-0.52,0.07-0.91,0.19-1.18c0.13-0.27,0.3-0.4,0.52-0.4
			H92.79z"/>
		<path class="st0" d="M95.09,283.04v3.19h-2.31c-0.47,0-0.71-0.53-0.71-1.6c0-0.52,0.07-0.91,0.19-1.18c0.13-0.27,0.3-0.4,0.52-0.4
			H95.09z"/>
		<path class="st0" d="M97.39,283.04v3.19h-2.31c-0.47,0-0.71-0.53-0.71-1.6c0-0.52,0.07-0.91,0.19-1.18c0.13-0.27,0.3-0.4,0.52-0.4
			H97.39z"/>
		<path class="st0" d="M99.69,283.04v3.19h-2.31c-0.47,0-0.71-0.53-0.71-1.6c0-0.52,0.07-0.91,0.19-1.18c0.13-0.27,0.3-0.4,0.52-0.4
			H99.69z"/>
		<path class="st0" d="M101.99,283.04v3.19h-2.31c-0.47,0-0.71-0.53-0.71-1.6c0-0.52,0.07-0.91,0.19-1.18
			c0.13-0.27,0.3-0.4,0.52-0.4H101.99z"/>
		<path class="st0" d="M104.29,283.04v3.19h-2.31c-0.47,0-0.71-0.53-0.71-1.6c0-0.52,0.07-0.91,0.19-1.18
			c0.13-0.27,0.3-0.4,0.52-0.4H104.29z"/>
		<path class="st0" d="M106.59,283.04v3.19h-2.31c-0.47,0-0.71-0.53-0.71-1.6c0-0.52,0.07-0.91,0.19-1.18
			c0.13-0.27,0.3-0.4,0.52-0.4H106.59z"/>
		<path class="st0" d="M108.89,283.04v3.19h-2.31c-0.47,0-0.71-0.53-0.71-1.6c0-0.52,0.07-0.91,0.19-1.18
			c0.13-0.27,0.3-0.4,0.52-0.4H108.89z"/>
		<path class="st0" d="M111.19,283.04v3.19h-2.31c-0.47,0-0.71-0.53-0.71-1.6c0-0.52,0.07-0.91,0.19-1.18
			c0.13-0.27,0.3-0.4,0.52-0.4H111.19z"/>
		<path class="st0" d="M113.49,283.04v3.19h-2.31c-0.47,0-0.71-0.53-0.71-1.6c0-0.52,0.07-0.91,0.19-1.18
			c0.13-0.27,0.3-0.4,0.52-0.4H113.49z"/>
		<path class="st0" d="M115.79,283.04v3.19h-2.31c-0.47,0-0.71-0.53-0.71-1.6c0-0.52,0.07-0.91,0.19-1.18
			c0.13-0.27,0.3-0.4,0.52-0.4H115.79z"/>
		<path class="st0" d="M118.09,283.04v3.19h-2.31c-0.47,0-0.71-0.53-0.71-1.6c0-0.52,0.07-0.91,0.19-1.18
			c0.13-0.27,0.3-0.4,0.52-0.4H118.09z"/>
		<path class="st0" d="M120.39,283.04v3.19h-2.31c-0.47,0-0.71-0.53-0.71-1.6c0-0.52,0.07-0.91,0.19-1.18
			c0.13-0.27,0.3-0.4,0.52-0.4H120.39z"/>
		<path class="st0" d="M122.69,283.04v3.19h-2.31c-0.47,0-0.71-0.53-0.71-1.6c0-0.52,0.07-0.91,0.19-1.18
			c0.13-0.27,0.3-0.4,0.52-0.4H122.69z"/>
		<path class="st0" d="M124.99,283.04v3.19h-2.31c-0.47,0-0.71-0.53-0.71-1.6c0-0.52,0.07-0.91,0.19-1.18
			c0.13-0.27,0.3-0.4,0.52-0.4H124.99z"/>
		<path class="st0" d="M127.29,283.04v3.19h-2.31c-0.47,0-0.71-0.53-0.71-1.6c0-0.52,0.07-0.91,0.19-1.18
			c0.13-0.27,0.3-0.4,0.52-0.4H127.29z"/>
		<path class="st0" d="M129.59,283.04v3.19h-2.31c-0.47,0-0.71-0.53-0.71-1.6c0-0.52,0.07-0.91,0.19-1.18
			c0.13-0.27,0.3-0.4,0.52-0.4H129.59z"/>
		<path class="st0" d="M131.89,283.04v3.19h-2.31c-0.47,0-0.71-0.53-0.71-1.6c0-0.52,0.07-0.91,0.19-1.18
			c0.13-0.27,0.3-0.4,0.52-0.4H131.89z"/>
		<path class="st0" d="M134.19,283.04v3.19h-2.31c-0.47,0-0.71-0.53-0.71-1.6c0-0.52,0.07-0.91,0.19-1.18
			c0.13-0.27,0.3-0.4,0.52-0.4H134.19z"/>
		<path class="st0" d="M136.49,283.04v3.19h-2.31c-0.47,0-0.71-0.53-0.71-1.6c0-0.52,0.07-0.91,0.19-1.18
			c0.13-0.27,0.3-0.4,0.52-0.4H136.49z"/>
		<path class="st0" d="M138.8,283.04v3.19h-2.31c-0.47,0-0.71-0.53-0.71-1.6c0-0.52,0.07-0.91,0.19-1.18c0.13-0.27,0.3-0.4,0.52-0.4
			H138.8z"/>
		<path class="st0" d="M141.09,283.04v3.19h-2.31c-0.47,0-0.71-0.53-0.71-1.6c0-0.52,0.07-0.91,0.19-1.18
			c0.13-0.27,0.3-0.4,0.52-0.4H141.09z"/>
		<path class="st0" d="M143.4,283.04v3.19h-2.31c-0.47,0-0.71-0.53-0.71-1.6c0-0.52,0.07-0.91,0.19-1.18c0.13-0.27,0.3-0.4,0.52-0.4
			H143.4z"/>
		<path class="st0" d="M158.58,283.04h0.91v3.19h-16.1c-0.47,0-0.71-0.53-0.71-1.6c0-0.52,0.07-0.91,0.19-1.18
			c0.13-0.27,0.3-0.4,0.52-0.4h10.99c-0.15-0.27-0.27-0.61-0.37-1.02c-0.1-0.41-0.16-0.75-0.19-1.03c-0.03-0.28-0.06-0.68-0.1-1.21
			c-0.06-0.6-0.13-1.12-0.24-1.54s-0.26-0.83-0.47-1.21c-0.21-0.39-0.51-0.68-0.89-0.88c-0.38-0.2-0.85-0.3-1.39-0.3
			c-0.73,0-1.35,0.22-1.85,0.65c-0.5,0.44-0.77,1.15-0.79,2.13h-3.49c-0.02-0.7,0.05-1.34,0.19-1.92c0.15-0.58,0.35-1.08,0.61-1.48
			c0.26-0.4,0.56-0.76,0.92-1.07c0.36-0.31,0.72-0.56,1.1-0.74c0.38-0.18,0.78-0.33,1.2-0.45c0.42-0.12,0.81-0.2,1.15-0.24
			c0.34-0.04,0.68-0.06,1.02-0.06c0.79,0,1.5,0.09,2.14,0.26c0.64,0.17,1.17,0.42,1.61,0.73c0.44,0.32,0.81,0.67,1.13,1.05
			s0.57,0.83,0.77,1.33c0.2,0.5,0.35,0.98,0.46,1.43c0.11,0.45,0.19,0.94,0.26,1.48c0.01,0.05,0.02,0.14,0.03,0.25
			c0.14,1.25,0.29,2.13,0.45,2.66C157.78,282.4,158.1,282.79,158.58,283.04z"/>
		<path class="st0" d="M176.48,283.04v3.19h-4.2c-1.09,0.95-2.53,1.42-4.32,1.42c-1.75,0-3.18-0.47-4.31-1.42h-4.17
			c-0.47,0-0.71-0.53-0.71-1.6c0-0.52,0.07-0.91,0.19-1.18c0.13-0.27,0.3-0.4,0.52-0.4h2.31c-0.15-0.7-0.22-1.4-0.22-2.12
			c0-2.12,0.56-3.78,1.69-5c1.13-1.21,2.69-1.82,4.69-1.82c2,0,3.57,0.61,4.71,1.82c1.14,1.21,1.71,2.88,1.71,5
			c0,0.72-0.07,1.42-0.22,2.12H176.48z M167.96,284.46c0.93,0,1.65-0.31,2.17-0.93c0.52-0.62,0.77-1.49,0.77-2.61
			c0-1.14-0.26-2.04-0.77-2.68c-0.52-0.65-1.24-0.97-2.17-0.97c-0.91,0-1.62,0.32-2.14,0.97c-0.52,0.65-0.77,1.54-0.77,2.68
			c0,1.12,0.26,1.98,0.77,2.61C166.33,284.15,167.05,284.46,167.96,284.46z"/>
		<path class="st0" d="M182.43,267.54v9.47h-0.03v3.86c0,1.76-0.41,3.1-1.23,4.01s-2.02,1.36-3.59,1.36h-1.14
			c-0.47,0-0.71-0.53-0.71-1.6c0-0.52,0.07-0.91,0.2-1.18s0.3-0.4,0.52-0.4h0.38c0.76,0,1.31-0.2,1.65-0.58
			c0.34-0.39,0.51-0.98,0.51-1.76v-7.17H179v-5.99H182.43z"/>
		<path class="st0" d="M185.13,286.24v-18.69h3.43v18.69H185.13z"/>
		<path class="st0" d="M212.33,278.96c0.16,1.46,0.31,2.4,0.45,2.83c0.2,0.62,0.55,1.05,1.05,1.28v3.16h-10.87
			c-0.84,0-1.48,0.17-1.95,0.52c-0.46,0.35-0.69,0.84-0.69,1.47c0,1.32,0.88,1.98,2.63,1.98h1.28v3.16h-0.86
			c-2.14,0-3.75-0.46-4.84-1.38c-1.09-0.92-1.64-2.16-1.64-3.71c0-0.66,0.12-1.29,0.37-1.9c0.25-0.61,0.61-1.17,1.1-1.67
			c0.49-0.51,1.14-0.91,1.96-1.21c0.82-0.3,1.75-0.45,2.8-0.45h6.45c-0.15-0.27-0.27-0.61-0.37-1.02c-0.1-0.41-0.16-0.75-0.19-1.03
			c-0.03-0.28-0.06-0.68-0.1-1.21c-0.06-0.59-0.13-1.1-0.24-1.53c-0.1-0.42-0.26-0.83-0.47-1.21c-0.21-0.38-0.51-0.67-0.89-0.86
			c-0.38-0.19-0.85-0.29-1.39-0.29c-0.64,0-1.2,0.16-1.69,0.47c-0.49,0.31-0.79,0.79-0.91,1.44h-3.51c0.07-0.83,0.26-1.56,0.59-2.2
			c0.33-0.64,0.72-1.14,1.16-1.5c0.44-0.36,0.94-0.65,1.51-0.88c0.57-0.23,1.08-0.38,1.55-0.45c0.46-0.07,0.92-0.11,1.37-0.11
			c0.94,0,1.77,0.13,2.5,0.38c0.73,0.25,1.31,0.58,1.75,0.97c0.44,0.4,0.82,0.89,1.12,1.47c0.31,0.58,0.53,1.14,0.67,1.67
			C212.15,277.7,212.26,278.3,212.33,278.96z M206.09,288.85c0.37-0.38,0.82-0.56,1.36-0.56c0.54,0,1,0.19,1.37,0.56
			c0.38,0.38,0.56,0.84,0.56,1.39c0,0.54-0.19,0.99-0.56,1.36c-0.37,0.37-0.83,0.55-1.38,0.55c-0.54,0-0.99-0.18-1.36-0.54
			c-0.37-0.36-0.55-0.82-0.55-1.37C205.54,289.69,205.72,289.23,206.09,288.85z"/>
		<path class="st0" d="M216.23,286.24v-18.69h3.43v18.69H216.23z"/>
		<path class="st0" d="M230.28,283.04v3.19h-2.75c-0.06,0.88-0.2,1.65-0.43,2.29c-0.23,0.65-0.58,1.21-1.03,1.71
			c-0.46,0.49-1.06,0.86-1.83,1.11c-0.76,0.25-1.67,0.37-2.73,0.37h-0.28v-3.16h0.22c1.03,0,1.74-0.26,2.12-0.78
			c0.38-0.52,0.57-1.35,0.57-2.48v-11.75h3.42v9.51H230.28z"/>
		<path class="st0" d="M232.58,283.04v3.19h-2.31c-0.47,0-0.71-0.53-0.71-1.6c0-0.52,0.07-0.91,0.19-1.18
			c0.13-0.27,0.3-0.4,0.52-0.4H232.58z"/>
		<path class="st0" d="M234.89,283.04v3.19h-2.31c-0.47,0-0.71-0.53-0.71-1.6c0-0.52,0.07-0.91,0.19-1.18
			c0.13-0.27,0.3-0.4,0.52-0.4H234.89z"/>
		<path class="st0" d="M237.19,283.04v3.19h-2.31c-0.47,0-0.71-0.53-0.71-1.6c0-0.52,0.07-0.91,0.19-1.18
			c0.13-0.27,0.3-0.4,0.52-0.4H237.19z"/>
		<path class="st0" d="M239.49,283.04v3.19h-2.31c-0.47,0-0.71-0.53-0.71-1.6c0-0.52,0.07-0.91,0.19-1.18
			c0.13-0.27,0.3-0.4,0.52-0.4H239.49z"/>
		<path class="st0" d="M241.79,283.04v3.19h-2.31c-0.47,0-0.71-0.53-0.71-1.6c0-0.52,0.07-0.91,0.19-1.18
			c0.13-0.27,0.3-0.4,0.52-0.4H241.79z"/>
		<path class="st0" d="M244.09,283.04v3.19h-2.31c-0.47,0-0.71-0.53-0.71-1.6c0-0.52,0.07-0.91,0.19-1.18
			c0.13-0.27,0.3-0.4,0.52-0.4H244.09z"/>
		<path class="st0" d="M246.39,283.04v3.19h-2.31c-0.47,0-0.71-0.53-0.71-1.6c0-0.52,0.07-0.91,0.19-1.18
			c0.13-0.27,0.3-0.4,0.52-0.4H246.39z"/>
		<path class="st0" d="M248.69,283.04v3.19h-2.31c-0.47,0-0.71-0.53-0.71-1.6c0-0.52,0.07-0.91,0.19-1.18
			c0.13-0.27,0.3-0.4,0.52-0.4H248.69z"/>
		<path class="st0" d="M250.99,283.04v3.19h-2.31c-0.47,0-0.71-0.53-0.71-1.6c0-0.52,0.07-0.91,0.19-1.18
			c0.13-0.27,0.3-0.4,0.52-0.4H250.99z"/>
		<path class="st0" d="M253.29,283.04v3.19h-2.31c-0.47,0-0.71-0.53-0.71-1.6c0-0.52,0.07-0.91,0.19-1.18
			c0.13-0.27,0.3-0.4,0.52-0.4H253.29z"/>
		<path class="st0" d="M255.59,283.04v3.19h-2.31c-0.47,0-0.71-0.53-0.71-1.6c0-0.52,0.07-0.91,0.19-1.18
			c0.13-0.27,0.3-0.4,0.52-0.4H255.59z"/>
		<path class="st0" d="M257.89,283.04v3.19h-2.31c-0.47,0-0.71-0.53-0.71-1.6c0-0.52,0.07-0.91,0.19-1.18
			c0.13-0.27,0.3-0.4,0.52-0.4H257.89z"/>
		<path class="st0" d="M260.19,283.04v3.19h-2.31c-0.47,0-0.71-0.53-0.71-1.6c0-0.52,0.07-0.91,0.19-1.18
			c0.13-0.27,0.3-0.4,0.52-0.4H260.19z"/>
		<path class="st0" d="M262.49,283.04v3.19h-2.31c-0.47,0-0.71-0.53-0.71-1.6c0-0.52,0.07-0.91,0.19-1.18
			c0.13-0.27,0.3-0.4,0.52-0.4H262.49z"/>
		<path class="st0" d="M264.79,283.04v3.19h-2.31c-0.47,0-0.71-0.53-0.71-1.6c0-0.52,0.07-0.91,0.19-1.18
			c0.13-0.27,0.3-0.4,0.52-0.4H264.79z"/>
		<path class="st0" d="M267.09,283.04v3.19h-2.31c-0.47,0-0.71-0.53-0.71-1.6c0-0.52,0.07-0.91,0.19-1.18
			c0.13-0.27,0.3-0.4,0.52-0.4H267.09z"/>
		<path class="st0" d="M284.81,273.53h3.48v7.74c0,1.64-0.37,2.87-1.1,3.71c-0.73,0.84-1.8,1.26-3.19,1.26
			c-1.56,0-2.88-0.48-3.96-1.45c-0.73,0.97-1.85,1.45-3.35,1.45c-1.47,0-2.76-0.45-3.88-1.37c-0.73,0.91-1.83,1.37-3.29,1.37h-2.45
			c-0.47,0-0.71-0.53-0.71-1.6c0-0.52,0.07-0.91,0.19-1.18c0.13-0.27,0.3-0.4,0.52-0.4h1.63c0.58,0,1.01-0.16,1.27-0.49
			c0.26-0.32,0.39-0.8,0.39-1.44v-5.16h3.44v5.31c0,0.25-0.02,0.59-0.06,1.02c0.69,0.5,1.4,0.75,2.15,0.75c1.07,0,1.6-0.64,1.6-1.92
			v-5.16h3.44v5.31c0,0.42-0.01,0.72-0.03,0.91c0.7,0.58,1.47,0.86,2.31,0.86c0.57,0,0.97-0.16,1.21-0.49
			c0.24-0.32,0.36-0.8,0.36-1.44V273.53z"/>
		<path class="st0" d="M310.92,283.04h0.85v3.19h-2.31c-1.9,0-3.09-0.57-3.57-1.71c-0.98,0.49-2.11,0.74-3.39,0.74
			c-0.74,0-1.44-0.08-2.1-0.24c-0.65-0.16-1.25-0.4-1.8-0.73c-0.54-0.33-0.97-0.78-1.29-1.35c-0.32-0.57-0.47-1.24-0.47-1.99
			c0-0.84,0.19-1.62,0.58-2.34s0.8-1.32,1.23-1.77c0.44-0.45,1.13-0.94,2.07-1.45c0.94-0.51,1.65-0.87,2.11-1.06
			c0.46-0.2,1.24-0.5,2.33-0.92c0.19-0.07,0.33-0.13,0.42-0.17v-1.77h3.43v9.74c0,0.69,0.15,1.17,0.46,1.43
			C309.77,282.91,310.26,283.04,310.92,283.04z M301.17,269.62c-0.53,0-0.98-0.19-1.35-0.56c-0.37-0.38-0.56-0.83-0.56-1.37
			c0-0.54,0.19-0.99,0.56-1.36c0.37-0.37,0.82-0.55,1.35-0.55c0.55,0,1.01,0.18,1.39,0.55c0.38,0.37,0.56,0.82,0.56,1.36
			c0,0.54-0.19,1-0.56,1.37C302.18,269.43,301.72,269.62,301.17,269.62z M305.58,280.78v-4.22c-0.83,0.31-1.52,0.58-2.08,0.84
			c-0.56,0.25-1.11,0.54-1.64,0.86c-0.53,0.33-0.93,0.67-1.19,1.02c-0.27,0.36-0.4,0.74-0.4,1.15c0,1.09,0.93,1.63,2.8,1.63
			c0.45,0,0.91-0.05,1.38-0.15c0.47-0.1,0.85-0.22,1.13-0.36V280.78z M305.91,269.62c-0.54,0-0.99-0.18-1.36-0.56
			c-0.37-0.37-0.55-0.83-0.55-1.38c0-0.55,0.18-1,0.55-1.37c0.37-0.36,0.82-0.54,1.36-0.54c0.55,0,1.01,0.18,1.39,0.55
			c0.38,0.37,0.56,0.82,0.56,1.36c0,0.54-0.19,1-0.56,1.37C306.92,269.43,306.46,269.62,305.91,269.62z"/>
		<path class="st0" d="M314.08,283.04v3.19h-2.31c-0.47,0-0.71-0.53-0.71-1.6c0-0.52,0.07-0.91,0.19-1.18
			c0.13-0.27,0.3-0.4,0.52-0.4H314.08z"/>
		<path class="st0" d="M316.38,283.04v3.19h-2.31c-0.47,0-0.71-0.53-0.71-1.6c0-0.52,0.07-0.91,0.19-1.18
			c0.13-0.27,0.3-0.4,0.52-0.4H316.38z"/>
		<path class="st0" d="M318.68,283.04v3.19h-2.31c-0.47,0-0.71-0.53-0.71-1.6c0-0.52,0.07-0.91,0.19-1.18
			c0.13-0.27,0.3-0.4,0.52-0.4H318.68z"/>
		<path class="st0" d="M320.98,283.04v3.19h-2.31c-0.47,0-0.71-0.53-0.71-1.6c0-0.52,0.07-0.91,0.19-1.18
			c0.13-0.27,0.3-0.4,0.52-0.4H320.98z"/>
		<path class="st0" d="M323.28,283.04v3.19h-2.31c-0.47,0-0.71-0.53-0.71-1.6c0-0.52,0.07-0.91,0.19-1.18
			c0.13-0.27,0.3-0.4,0.52-0.4H323.28z"/>
		<path class="st0" d="M325.58,283.04v3.19h-2.31c-0.47,0-0.71-0.53-0.71-1.6c0-0.52,0.07-0.91,0.19-1.18
			c0.13-0.27,0.3-0.4,0.52-0.4H325.58z"/>
		<path class="st0" d="M327.88,283.04v3.19h-2.31c-0.47,0-0.71-0.53-0.71-1.6c0-0.52,0.07-0.91,0.19-1.18
			c0.13-0.27,0.3-0.4,0.52-0.4H327.88z"/>
		<path class="st0" d="M330.18,283.04v3.19h-2.31c-0.47,0-0.71-0.53-0.71-1.6c0-0.52,0.07-0.91,0.19-1.18
			c0.13-0.27,0.3-0.4,0.52-0.4H330.18z"/>
		<path class="st0" d="M332.48,283.04v3.19h-2.31c-0.47,0-0.71-0.53-0.71-1.6c0-0.52,0.07-0.91,0.19-1.18
			c0.13-0.27,0.3-0.4,0.52-0.4H332.48z"/>
		<path class="st0" d="M334.78,283.04v3.19h-2.31c-0.47,0-0.71-0.53-0.71-1.6c0-0.52,0.07-0.91,0.19-1.18
			c0.13-0.27,0.3-0.4,0.52-0.4H334.78z"/>
		<path class="st0" d="M341.19,273.53c2.06,0.04,3.62,0.61,4.67,1.7c1.05,1.1,1.57,2.61,1.57,4.54v6.45h-12.67
			c-0.47,0-0.71-0.53-0.71-1.6c0-0.52,0.07-0.91,0.19-1.18c0.13-0.27,0.3-0.4,0.52-0.4h9.26v-2.72c0-1.26-0.29-2.17-0.86-2.75
			c-0.58-0.58-1.52-0.87-2.83-0.87h-4.04v-3.17l7.14-6.59l2.24,2.4L341.19,273.53z"/>
		<path class="st0" d="M357.49,283.04v3.19h-2.75c-0.06,0.88-0.2,1.65-0.43,2.29c-0.23,0.65-0.58,1.21-1.03,1.71
			c-0.46,0.49-1.06,0.86-1.83,1.11c-0.76,0.25-1.67,0.37-2.73,0.37h-0.28v-3.16h0.22c1.03,0,1.74-0.26,2.12-0.78
			c0.38-0.52,0.57-1.35,0.57-2.48v-11.75h3.42v9.51H357.49z"/>
		<path class="st0" d="M375.18,273.53h3.49v7.74c0,1.64-0.37,2.87-1.1,3.71c-0.73,0.84-1.8,1.26-3.19,1.26
			c-1.56,0-2.88-0.48-3.96-1.45c-0.73,0.97-1.85,1.45-3.35,1.45c-1.47,0-2.76-0.45-3.88-1.37c-0.73,0.91-1.83,1.37-3.29,1.37h-2.45
			c-0.47,0-0.71-0.53-0.71-1.6c0-0.52,0.07-0.91,0.2-1.18s0.3-0.4,0.52-0.4h1.63c0.59,0,1.01-0.16,1.26-0.49
			c0.26-0.32,0.38-0.8,0.38-1.44v-5.16h3.46v5.31c0,0.25-0.02,0.59-0.06,1.02c0.69,0.5,1.4,0.75,2.15,0.75
			c1.06,0,1.59-0.64,1.59-1.92v-5.16h3.46v5.31c0,0.42-0.01,0.72-0.03,0.91c0.7,0.58,1.47,0.86,2.31,0.86
			c0.57,0,0.97-0.16,1.21-0.49c0.24-0.32,0.36-0.8,0.36-1.44V273.53z M367.23,272.91c-0.53,0-0.98-0.19-1.35-0.57
			c-0.37-0.38-0.56-0.84-0.56-1.38c0-0.54,0.19-0.99,0.56-1.36c0.37-0.37,0.82-0.55,1.35-0.55c0.55,0,1.01,0.18,1.39,0.55
			c0.38,0.37,0.56,0.82,0.56,1.36c0,0.54-0.19,1-0.57,1.38C368.23,272.72,367.77,272.91,367.23,272.91z M371.07,268.38
			c-0.36,0.37-0.82,0.55-1.37,0.55c-0.55,0-1.01-0.18-1.39-0.55c-0.38-0.37-0.56-0.82-0.56-1.36s0.19-1,0.56-1.38
			c0.38-0.38,0.84-0.57,1.39-0.57c0.54,0,0.99,0.19,1.36,0.56c0.37,0.38,0.55,0.84,0.55,1.39
			C371.61,267.57,371.43,268.02,371.07,268.38z M370.07,270.96c0-0.54,0.18-0.99,0.55-1.36c0.37-0.37,0.82-0.55,1.36-0.55
			c0.55,0,1.01,0.18,1.39,0.55c0.38,0.37,0.56,0.82,0.56,1.36c0,0.54-0.19,1-0.57,1.38c-0.38,0.38-0.84,0.57-1.38,0.57
			c-0.54,0-0.99-0.19-1.36-0.56C370.25,271.97,370.07,271.51,370.07,270.96z"/>
	</g>
</g>
</svg>
