<?xml version="1.0" encoding="utf-8"?>
<!-- Generator: Adobe Illustrator 26.0.1, SVG Export Plug-In . SVG Version: 6.00 Build 0)  -->
<svg version="1.1" id="Layer_1" xmlns="http://www.w3.org/2000/svg" xmlns:xlink="http://www.w3.org/1999/xlink" x="0px" y="0px"
	 viewBox="0 0 350 350" style="enable-background:new 0 0 350 350;" xml:space="preserve">
<style type="text/css">
	.st0{fill:#0B2738;}
</style>
<g>
	<g>
		<path class="st0" d="M9.27,297.35l2.23-3.88c1.35,0.85,2.6,1.45,3.77,1.8c1.16,0.35,2.44,0.53,3.85,0.53
			c1.69,0,3.02-0.36,3.99-1.1c0.97-0.73,1.45-1.77,1.45-3.14c0-1.24-0.4-2.21-1.21-2.92c-0.8-0.71-2.18-1.36-4.12-1.95
			c-3.04-0.88-5.27-1.98-6.68-3.31c-1.42-1.33-2.12-3.12-2.12-5.4c0-2.45,0.92-4.49,2.75-6.12s4.33-2.44,7.5-2.44
			c1.39,0,2.76,0.16,4.11,0.47c1.35,0.32,2.67,0.8,3.96,1.47l-1.96,3.96c-1.1-0.59-2.17-1.02-3.21-1.29
			c-1.04-0.27-2.09-0.4-3.15-0.4c-1.55,0-2.78,0.34-3.66,1.02c-0.89,0.68-1.33,1.64-1.33,2.88c0,1.1,0.41,1.96,1.22,2.59
			c0.81,0.63,2.21,1.25,4.21,1.87c3.09,0.89,5.32,2.04,6.67,3.42c1.36,1.39,2.03,3.29,2.03,5.69c0,2.6-0.92,4.73-2.77,6.4
			c-1.85,1.66-4.49,2.5-7.91,2.5c-1.72,0-3.39-0.22-5.02-0.67C12.23,298.89,10.7,298.23,9.27,297.35z"/>
		<path class="st0" d="M53.62,299.52h-4.91v-3.38h-0.1c-0.76,1.29-1.7,2.27-2.82,2.92c-1.12,0.65-2.41,0.98-3.87,0.98
			c-2.53,0-4.43-0.76-5.7-2.28c-1.27-1.52-1.91-3.81-1.91-6.88v-12.99h4.89v12.42c0,1.94,0.37,3.4,1.12,4.37s1.88,1.46,3.39,1.46
			c1.47,0,2.67-0.53,3.6-1.6c0.93-1.07,1.39-2.48,1.39-4.24v-12.42h4.91V299.52z"/>
		<path class="st0" d="M72.23,282c-0.27-0.07-0.54-0.12-0.8-0.16c-0.26-0.04-0.56-0.06-0.91-0.06c-1.72,0-3.05,0.65-3.99,1.95
			c-0.94,1.3-1.41,3-1.41,5.11v10.68h-4.93v-21.64h4.93v4.17h0.08c0.49-1.5,1.24-2.63,2.23-3.39c0.99-0.76,2.16-1.15,3.51-1.15
			c0.37,0,0.71,0.02,1.03,0.06c0.32,0.04,0.62,0.1,0.91,0.19L72.23,282z"/>
		<path class="st0" d="M93.15,299.52H88.4v-3.28h-0.08c-0.73,1.25-1.64,2.2-2.73,2.84c-1.09,0.64-2.35,0.96-3.77,0.96
			c-1.99,0-3.63-0.58-4.91-1.74c-1.28-1.16-1.92-2.74-1.92-4.73c0-1.95,0.64-3.54,1.93-4.77c1.29-1.22,3.21-2.02,5.77-2.39
			l5.76-0.76v-0.45c0-1.46-0.38-2.52-1.14-3.2c-0.76-0.67-1.8-1.01-3.1-1.01c-1.03,0-2.08,0.19-3.15,0.57
			c-1.07,0.38-2.1,0.95-3.1,1.7l-2.1-2.93c1.31-1,2.67-1.75,4.09-2.23c1.42-0.48,2.97-0.72,4.65-0.72c2.87,0,5.02,0.71,6.44,2.15
			c1.42,1.43,2.12,3.58,2.12,6.46V299.52z M88.45,290.69v-1.82l-4.66,0.62c-1.38,0.19-2.4,0.56-3.08,1.11
			c-0.68,0.55-1.02,1.35-1.02,2.41c0,1.03,0.32,1.84,0.96,2.43c0.64,0.59,1.48,0.89,2.51,0.89c1.58,0,2.86-0.53,3.84-1.59
			C87.96,293.69,88.45,292.34,88.45,290.69z"/>
		<path class="st0" d="M104.33,300.69c0,2.89-0.66,5.07-1.99,6.55c-1.33,1.48-3.26,2.22-5.79,2.22c-0.67,0-1.31-0.04-1.92-0.13
			c-0.6-0.09-1.2-0.24-1.77-0.44l1.05-3.82c0.37,0.14,0.74,0.24,1.1,0.32s0.75,0.11,1.14,0.11c1.14,0,1.97-0.37,2.49-1.1
			c0.52-0.74,0.77-1.9,0.77-3.5v-23.02h4.91V300.69z M101.94,274.06c-0.89,0-1.64-0.28-2.23-0.83c-0.59-0.56-0.89-1.26-0.89-2.1
			c0-0.85,0.29-1.56,0.89-2.11c0.59-0.56,1.33-0.84,2.23-0.84c0.88,0,1.62,0.28,2.22,0.84c0.6,0.56,0.9,1.26,0.9,2.11
			c0,0.84-0.3,1.54-0.9,2.1C103.56,273.78,102.82,274.06,101.94,274.06z"/>
		<path class="st0" d="M144.95,297.99c-1.5,0.72-2.96,1.23-4.37,1.55c-1.42,0.32-2.96,0.47-4.62,0.47c-4.54,0-8.09-1.32-10.65-3.96
			s-3.85-6.26-3.85-10.87c0-4.66,1.42-8.45,4.26-11.37c2.84-2.92,6.55-4.37,11.13-4.37c1.5,0,2.87,0.12,4.13,0.37
			c1.25,0.25,2.52,0.65,3.82,1.2l-1.65,4.11c-1.03-0.44-2.04-0.76-3.02-0.96c-0.98-0.2-2.05-0.3-3.19-0.3
			c-2.96,0-5.39,0.99-7.3,2.96c-1.91,1.97-2.87,4.65-2.87,8.04c0,3.33,0.88,5.95,2.63,7.87c1.75,1.92,4.12,2.88,7.11,2.88
			c0.99,0,2.04-0.13,3.14-0.39c1.1-0.26,2.23-0.69,3.38-1.28L144.95,297.99z"/>
		<path class="st0" d="M159.33,300.03c-3.4,0-6.09-1.02-8.07-3.04c-1.98-2.03-2.97-4.74-2.97-8.14c0.01-3.6,1.04-6.42,3.08-8.45
			c2.04-2.03,4.82-3.04,8.34-3.04c3.38-0.01,6.03,0.98,7.95,2.99c1.92,2.01,2.88,4.73,2.88,8.15c0,3.52-1.01,6.32-3.03,8.41
			C165.49,298.99,162.76,300.03,159.33,300.03z M159.55,296.13c1.95,0,3.44-0.64,4.46-1.93c1.02-1.28,1.53-3.14,1.53-5.58
			c0-2.39-0.51-4.22-1.54-5.48c-1.03-1.26-2.51-1.89-4.47-1.89c-1.94,0-3.46,0.66-4.57,1.99c-1.11,1.33-1.66,3.17-1.66,5.52
			c0,2.35,0.55,4.17,1.64,5.45C156.04,295.49,157.57,296.13,159.55,296.13z"/>
		<path class="st0" d="M177.83,299.99c-0.87,0-1.6-0.28-2.2-0.83c-0.6-0.56-0.9-1.25-0.9-2.07c0-0.84,0.3-1.54,0.9-2.1
			c0.6-0.56,1.33-0.85,2.2-0.85c0.89,0,1.63,0.28,2.22,0.84c0.58,0.56,0.88,1.26,0.88,2.09c0,0.84-0.3,1.54-0.89,2.1
			C179.45,299.71,178.71,299.99,177.83,299.99z"/>
		<path class="st0" d="M215.11,299.52h-16.46v-29.58h5.01v25.35h11.45V299.52z"/>
		<path class="st0" d="M221.73,274.06c-0.89,0-1.63-0.28-2.22-0.84c-0.58-0.56-0.88-1.26-0.88-2.08c0-0.87,0.29-1.57,0.88-2.12
			c0.58-0.55,1.32-0.83,2.22-0.83c0.89,0,1.64,0.28,2.23,0.83c0.59,0.55,0.89,1.26,0.89,2.12c0,0.84-0.3,1.54-0.89,2.1
			C223.37,273.78,222.62,274.06,221.73,274.06z M224.14,299.52h-4.91v-21.64h4.91V299.52z"/>
		<path class="st0" d="M263.4,299.52h-4.91v-12.4c0-2.03-0.33-3.52-1-4.46c-0.67-0.93-1.74-1.4-3.23-1.4c-1.31,0-2.4,0.58-3.28,1.74
			c-0.88,1.16-1.32,2.59-1.32,4.28v12.23h-4.91v-12.69c0-1.86-0.35-3.25-1.06-4.18c-0.71-0.93-1.76-1.39-3.17-1.39
			c-1.36,0-2.46,0.55-3.31,1.66c-0.85,1.11-1.27,2.58-1.27,4.4v12.19h-4.93v-21.64h4.93v3.4h0.08c0.73-1.24,1.68-2.2,2.86-2.89
			c1.18-0.69,2.51-1.03,3.99-1.03c1.48,0,2.77,0.37,3.85,1.12c1.08,0.75,1.86,1.8,2.34,3.15c0.81-1.43,1.82-2.5,3.02-3.21
			c1.2-0.71,2.6-1.06,4.2-1.06c2.36,0,4.14,0.73,5.33,2.19c1.19,1.46,1.78,3.65,1.78,6.56V299.52z"/>
		<path class="st0" d="M272.06,274.06c-0.89,0-1.63-0.28-2.22-0.84c-0.58-0.56-0.88-1.26-0.88-2.08c0-0.87,0.29-1.57,0.88-2.12
			c0.58-0.55,1.32-0.83,2.22-0.83c0.89,0,1.64,0.28,2.23,0.83c0.59,0.55,0.89,1.26,0.89,2.12c0,0.84-0.3,1.54-0.89,2.1
			C273.7,273.78,272.96,274.06,272.06,274.06z M274.48,299.52h-4.91v-21.64h4.91V299.52z"/>
		<path class="st0" d="M293.19,299.21c-0.62,0.28-1.27,0.47-1.96,0.6c-0.69,0.12-1.42,0.19-2.21,0.19c-2.02,0-3.57-0.53-4.65-1.6
			c-1.08-1.07-1.62-2.65-1.62-4.75v-11.94h-3.61v-3.82h3.61v-4.91l4.91-1.48v6.4h5.18v3.82h-5.18v11.51c0,1.07,0.2,1.84,0.59,2.31
			c0.39,0.47,0.99,0.7,1.8,0.7c0.4,0,0.78-0.05,1.14-0.13c0.36-0.09,0.68-0.21,0.97-0.36L293.19,299.21z"/>
		<path class="st0" d="M315.74,289.96h-14.77c0.1,2.05,0.69,3.61,1.78,4.68c1.09,1.07,2.64,1.61,4.63,1.61
			c0.78,0,1.69-0.16,2.73-0.48c1.04-0.32,2.07-0.85,3.1-1.58l2.19,3.07c-1.36,0.96-2.74,1.66-4.13,2.1
			c-1.39,0.44-2.92,0.66-4.58,0.66c-3.36,0-5.97-0.97-7.84-2.91c-1.87-1.94-2.81-4.66-2.83-8.15c0-3.47,0.97-6.27,2.91-8.41
			c1.94-2.14,4.42-3.21,7.45-3.21c2.92,0,5.2,0.91,6.86,2.73c1.66,1.82,2.49,4.4,2.49,7.75V289.96z M311.03,286.58
			c-0.01-1.86-0.43-3.26-1.24-4.21c-0.81-0.95-1.96-1.42-3.45-1.42c-1.4,0-2.59,0.51-3.57,1.53c-0.98,1.02-1.58,2.39-1.8,4.11
			H311.03z"/>
		<path class="st0" d="M335.42,296.15c-0.77,1.29-1.75,2.26-2.93,2.91c-1.18,0.65-2.57,0.97-4.17,0.97c-2.71,0-4.89-0.96-6.53-2.89
			c-1.64-1.92-2.46-4.57-2.46-7.94c0-3.59,0.9-6.46,2.71-8.61c1.81-2.15,4.21-3.23,7.19-3.23c1.44,0,2.68,0.27,3.71,0.81
			c1.03,0.54,1.86,1.36,2.48,2.46h0.08v-12.4h4.93v31.27h-4.93v-3.36H335.42z M324.34,289c0,2.24,0.5,3.99,1.51,5.25
			c1,1.26,2.36,1.89,4.06,1.89c1.69,0,3.06-0.63,4.09-1.88c1.04-1.25,1.56-2.87,1.56-4.85v-2.5c0-1.61-0.5-2.95-1.5-4.03
			c-1-1.08-2.28-1.62-3.85-1.62c-1.83,0-3.27,0.69-4.31,2.06C324.86,284.7,324.34,286.59,324.34,289z"/>
	</g>
	<g>
		<path class="st0" d="M203.93,168.19l-0.78-0.65c-1.43,17.58-16.93,23.18-16.93,23.18c-20.83,7.16-30.6-5.6-30.6-5.6
			c9.7-6.4,11.86-14.48,12.33-17.55c-0.46-0.99-0.72-2.09-0.72-3.26c0-4.31,3.5-7.81,7.81-7.81c2.5,0,4.71,1.17,6.14,3
			c0.74-8.34,7.46-14.41,7.46-14.41c-31.77-14.06-35.93,19.27-35.93,19.27c-3.39,7.16-7.68,7.29-7.68,7.29
			c-11.06,2.31-13.19-4.54-13.59-7.77c0,0.15-0.01,0.29-0.01,0.44c0,24.28,19.69,43.97,43.97,43.97c23.28,0,42.32-18.09,43.86-40.98
			C211.86,171.43,203.93,168.19,203.93,168.19z"/>
		<path class="st0" d="M192.11,123.63v-4.45c-6.38-1.95-5.34-9.37-5.34-9.37c-8.07-4.04-5.99-11.33-5.99-11.33
			c1.82-9.63,11.46-10.94,11.46-10.94c9.63-0.65,10.81,7.94,10.81,7.94c-0.78,5.99-4.56,5.47-4.56,5.47
			c3.52-4.82,0.65-7.03,0.65-7.03c-4.56-4.04-8.85,3.65-8.85,3.65c-2.86,3.12-7.03,0.91-7.03,0.91c-1.69,9.5,6.12,8.85,6.12,8.85
			c-1.69,2.6,0.78,6.77,0.78,6.77c4.95,8.59,15.49,5.21,15.49,5.21c8.33-6.25,5.34-14.84,5.34-14.84c-2.73,4.95-5.21,4.95-5.21,4.95
			c-7.55-0.39-5.21,7.29-5.21,7.29c-5.34-2.47-1.43-7.55-1.43-7.55c6.64-5.47,7.81-9.5,7.81-9.5c3.65-12.24-7.94-15.25-7.94-15.25
			c4.3-3.79,1.43-11.31,1.43-11.31c-0.91,9.24-7.68,10.42-7.68,10.42c-9.5,3.39-11.59-3.91-11.59-3.91
			c-1.95-8.85,1.82-10.03,1.82-10.03c8.46-4.43,10.16,0.78,10.16,0.78c-5.6,0.39-5.4,6.12-5.4,6.12c0.33,1.3-3.07,2.99-3.07,2.99
			c11.33,5.47,13.02-5.99,13.02-5.99c2.08-11.59-8.46-14.32-8.46-14.32c1.43-8.85-4.69-11.2-4.69-11.2
			c-4.69-2.73-7.03-7.42-7.03-7.42v79.85c-0.7-0.03-1.41-0.05-2.12-0.05c-0.6,0-1.19,0.02-1.79,0.05V40.54c0,0-2.34,4.69-7.03,7.42
			c0,0-6.12,2.34-4.69,11.2c0,0-10.55,2.73-8.46,14.32c0,0,1.69,11.46,13.02,5.99c0,0-3.4-1.69-3.07-2.99c0,0,0.2-5.73-5.4-6.12
			c0,0,1.69-5.21,10.16-0.78c0,0,3.78,1.17,1.82,10.03c0,0-2.08,7.29-11.59,3.91c0,0-6.77-1.17-7.68-10.42c0,0-2.86,7.52,1.43,11.31
			c0,0-11.59,3.01-7.94,15.25c0,0,1.17,4.04,7.81,9.5c0,0,3.91,5.08-1.43,7.55c0,0,2.34-7.68-5.21-7.29c0,0-2.47,0-5.21-4.95
			c0,0-2.99,8.59,5.34,14.84c0,0,10.55,3.39,15.49-5.21c0,0,2.47-4.17,0.78-6.77c0,0,7.81,0.65,6.12-8.85c0,0-4.17,2.21-7.03-0.91
			c0,0-4.3-7.68-8.85-3.65c0,0-2.86,2.21,0.65,7.03c0,0-3.78,0.52-4.56-5.47c0,0,1.17-8.59,10.81-7.94c0,0,9.63,1.3,11.46,10.94
			c0,0,2.08,7.29-5.99,11.33c0,0,1.04,7.42-5.34,9.37v4.32c-15.56,6.25-26.72,21.12-27.55,38.7c7.38-4.05,15.23-0.84,15.23-0.84
			l0.78,0.65c1.43-17.58,16.93-23.18,16.93-23.18c20.83-7.16,30.6,5.6,30.6,5.6c-10.26,6.77-12.08,15.41-12.4,18.03
			c0.14,0.59,0.23,1.21,0.23,1.84c0,4.31-3.5,7.81-7.81,7.81c-2.18,0-4.15-0.89-5.56-2.33c-0.62,8.48-7.48,14.68-7.48,14.68
			c31.77,14.06,35.93-19.27,35.93-19.27c3.39-7.16,7.68-7.29,7.68-7.29c12.74-2.66,13.63,6.83,13.67,8.95
			c0.05-0.84,0.08-1.69,0.08-2.55C219.38,145.94,208.11,130.21,192.11,123.63z"/>
	</g>
	<g>
		<path class="st0" d="M18.19,254.04c-1.06,1.12-2.53,1.68-4.4,1.68c-1.87,0-3.34-0.56-4.41-1.68c-1.07-1.12-1.6-2.66-1.6-4.63
			c0-1.98,0.53-3.54,1.6-4.68c1.07-1.14,2.54-1.71,4.41-1.71c1.87,0,3.34,0.57,4.4,1.71c1.06,1.14,1.59,2.7,1.59,4.68
			C19.78,251.38,19.25,252.92,18.19,254.04z M11.55,240.97c-0.5,0-0.92-0.18-1.27-0.53c-0.35-0.36-0.52-0.79-0.52-1.29
			c0-0.5,0.17-0.93,0.52-1.27c0.35-0.34,0.77-0.52,1.27-0.52c0.51,0,0.94,0.17,1.29,0.52c0.35,0.34,0.52,0.77,0.52,1.27
			c0,0.51-0.18,0.95-0.53,1.3C12.48,240.79,12.05,240.97,11.55,240.97z M13.79,252.72c0.85,0,1.52-0.29,2-0.87
			c0.48-0.58,0.72-1.4,0.72-2.44c0-1.07-0.24-1.91-0.72-2.51c-0.48-0.6-1.15-0.91-2-0.91c-0.87,0-1.55,0.3-2.03,0.91
			c-0.48,0.6-0.72,1.44-0.72,2.51c0,1.04,0.24,1.86,0.72,2.44C12.25,252.43,12.92,252.72,13.79,252.72z M17.27,240.44
			c-0.35,0.35-0.78,0.53-1.29,0.53c-0.5,0-0.93-0.18-1.27-0.53c-0.34-0.35-0.51-0.79-0.51-1.3c0-0.5,0.17-0.93,0.51-1.27
			c0.34-0.34,0.77-0.52,1.27-0.52c0.51,0,0.94,0.17,1.29,0.52c0.35,0.34,0.52,0.77,0.52,1.27C17.8,239.65,17.62,240.09,17.27,240.44
			z"/>
		<path class="st0" d="M22.04,255.71v-2.99h7.59v-2.36c0-1.19-0.27-2.09-0.81-2.68c-0.54-0.59-1.52-0.89-2.93-0.89h-2.43v-2.96h3.18
			c4.13,0,6.2,2.1,6.2,6.3v5.58H22.04z"/>
		<path class="st0" d="M37.47,260.84v-2.96h3c0.96,0,1.63-0.17,2.01-0.52c0.38-0.34,0.57-0.89,0.57-1.65h-0.29
			c-1.36,0-2.56-0.18-3.61-0.53c-1.05-0.35-1.89-0.84-2.52-1.46c-0.63-0.62-1.11-1.33-1.42-2.13c-0.32-0.8-0.48-1.66-0.48-2.59
			c0-0.79,0.13-1.54,0.38-2.25c0.26-0.71,0.63-1.34,1.11-1.9c0.48-0.56,1.11-1.01,1.88-1.34c0.77-0.33,1.63-0.5,2.59-0.5
			c0.61,0,1.17,0.06,1.7,0.18c0.52,0.12,1.03,0.33,1.51,0.63c0.49,0.3,0.9,0.68,1.24,1.15c0.34,0.47,0.61,1.06,0.82,1.79
			c0.2,0.73,0.3,1.56,0.29,2.49v6.32c0,1.64-0.44,2.93-1.31,3.86c-0.87,0.93-2.22,1.4-4.06,1.4H37.47z M42.82,252.72h0.23v-0.65
			v-2.56c0-2.35-0.81-3.52-2.43-3.52c-0.81,0-1.44,0.27-1.9,0.82c-0.46,0.55-0.69,1.28-0.69,2.19c0,1.11,0.4,2,1.2,2.69
			C40.04,252.38,41.23,252.72,42.82,252.72z"/>
		<path class="st0" d="M59.6,252.72h2.14v2.99H48.8v-2.99h7.59v-2.36c0-1.19-0.27-2.09-0.81-2.68c-0.54-0.59-1.52-0.89-2.93-0.89
			h-2.43v-2.96h3.18c4.13,0,6.2,2.1,6.2,6.3V252.72z"/>
		<path class="st0" d="M63.89,252.72v2.99h-2.17c-0.44,0-0.67-0.5-0.67-1.5c0-0.49,0.06-0.85,0.18-1.11
			c0.12-0.25,0.28-0.38,0.48-0.38H63.89z"/>
		<path class="st0" d="M66.05,252.72v2.99h-2.17c-0.44,0-0.67-0.5-0.67-1.5c0-0.49,0.06-0.85,0.18-1.11
			c0.12-0.25,0.28-0.38,0.48-0.38H66.05z"/>
		<path class="st0" d="M68.2,252.72v2.99h-2.17c-0.44,0-0.67-0.5-0.67-1.5c0-0.49,0.06-0.85,0.18-1.11
			c0.12-0.25,0.28-0.38,0.48-0.38H68.2z"/>
		<path class="st0" d="M70.35,252.72v2.99h-2.17c-0.44,0-0.67-0.5-0.67-1.5c0-0.49,0.06-0.85,0.18-1.11
			c0.12-0.25,0.28-0.38,0.48-0.38H70.35z"/>
		<path class="st0" d="M72.51,252.72v2.99h-2.17c-0.44,0-0.67-0.5-0.67-1.5c0-0.49,0.06-0.85,0.18-1.11
			c0.12-0.25,0.28-0.38,0.48-0.38H72.51z"/>
		<path class="st0" d="M74.66,252.72v2.99h-2.17c-0.44,0-0.67-0.5-0.67-1.5c0-0.49,0.06-0.85,0.18-1.11
			c0.12-0.25,0.28-0.38,0.48-0.38H74.66z"/>
		<path class="st0" d="M76.81,252.72v2.99h-2.17c-0.44,0-0.67-0.5-0.67-1.5c0-0.49,0.06-0.85,0.18-1.11
			c0.12-0.25,0.28-0.38,0.48-0.38H76.81z"/>
		<path class="st0" d="M78.97,252.72v2.99H76.8c-0.44,0-0.67-0.5-0.67-1.5c0-0.49,0.06-0.85,0.18-1.11
			c0.12-0.25,0.28-0.38,0.48-0.38H78.97z"/>
		<path class="st0" d="M81.12,252.72v2.99h-2.17c-0.44,0-0.67-0.5-0.67-1.5c0-0.49,0.06-0.85,0.18-1.11
			c0.12-0.25,0.28-0.38,0.48-0.38H81.12z"/>
		<path class="st0" d="M83.27,252.72v2.99H81.1c-0.44,0-0.67-0.5-0.67-1.5c0-0.49,0.06-0.85,0.18-1.11
			c0.12-0.25,0.28-0.38,0.48-0.38H83.27z"/>
		<path class="st0" d="M85.42,252.72v2.99h-2.17c-0.44,0-0.67-0.5-0.67-1.5c0-0.49,0.06-0.85,0.18-1.11
			c0.12-0.25,0.28-0.38,0.48-0.38H85.42z"/>
		<path class="st0" d="M87.58,252.72v2.99h-2.17c-0.44,0-0.67-0.5-0.67-1.5c0-0.49,0.06-0.85,0.18-1.11
			c0.12-0.25,0.28-0.38,0.48-0.38H87.58z"/>
		<path class="st0" d="M89.73,252.72v2.99h-2.17c-0.44,0-0.67-0.5-0.67-1.5c0-0.49,0.06-0.85,0.18-1.11
			c0.12-0.25,0.28-0.38,0.48-0.38H89.73z"/>
		<path class="st0" d="M91.88,252.72v2.99h-2.17c-0.44,0-0.67-0.5-0.67-1.5c0-0.49,0.06-0.85,0.18-1.11
			c0.12-0.25,0.28-0.38,0.48-0.38H91.88z"/>
		<path class="st0" d="M94.03,252.72v2.99h-2.17c-0.44,0-0.67-0.5-0.67-1.5c0-0.49,0.06-0.85,0.18-1.11
			c0.12-0.25,0.28-0.38,0.48-0.38H94.03z"/>
		<path class="st0" d="M96.19,252.72v2.99h-2.17c-0.44,0-0.67-0.5-0.67-1.5c0-0.49,0.06-0.85,0.18-1.11
			c0.12-0.25,0.28-0.38,0.48-0.38H96.19z"/>
		<path class="st0" d="M98.34,252.72v2.99h-2.17c-0.44,0-0.67-0.5-0.67-1.5c0-0.49,0.06-0.85,0.18-1.11
			c0.12-0.25,0.28-0.38,0.48-0.38H98.34z"/>
		<path class="st0" d="M100.49,252.72v2.99h-2.17c-0.44,0-0.67-0.5-0.67-1.5c0-0.49,0.06-0.85,0.18-1.11
			c0.12-0.25,0.28-0.38,0.48-0.38H100.49z"/>
		<path class="st0" d="M102.65,252.72v2.99h-2.17c-0.44,0-0.67-0.5-0.67-1.5c0-0.49,0.06-0.85,0.18-1.11
			c0.12-0.25,0.28-0.38,0.48-0.38H102.65z"/>
		<path class="st0" d="M104.8,252.72v2.99h-2.17c-0.44,0-0.67-0.5-0.67-1.5c0-0.49,0.06-0.85,0.18-1.11
			c0.12-0.25,0.28-0.38,0.48-0.38H104.8z"/>
		<path class="st0" d="M106.95,252.72v2.99h-2.17c-0.44,0-0.67-0.5-0.67-1.5c0-0.49,0.06-0.85,0.18-1.11
			c0.12-0.25,0.28-0.38,0.48-0.38H106.95z"/>
		<path class="st0" d="M109.1,252.72v2.99h-2.17c-0.44,0-0.67-0.5-0.67-1.5c0-0.49,0.06-0.85,0.18-1.11
			c0.12-0.25,0.28-0.38,0.48-0.38H109.1z"/>
		<path class="st0" d="M111.26,252.72v2.99h-2.17c-0.44,0-0.67-0.5-0.67-1.5c0-0.49,0.06-0.85,0.18-1.11
			c0.12-0.25,0.28-0.38,0.48-0.38H111.26z"/>
		<path class="st0" d="M113.41,252.72v2.99h-2.17c-0.44,0-0.67-0.5-0.67-1.5c0-0.49,0.06-0.85,0.18-1.11
			c0.12-0.25,0.28-0.38,0.48-0.38H113.41z"/>
		<path class="st0" d="M115.56,252.72v2.99h-2.17c-0.44,0-0.67-0.5-0.67-1.5c0-0.49,0.06-0.85,0.18-1.11
			c0.12-0.25,0.28-0.38,0.48-0.38H115.56z"/>
		<path class="st0" d="M117.72,252.72v2.99h-2.17c-0.44,0-0.67-0.5-0.67-1.5c0-0.49,0.06-0.85,0.18-1.11
			c0.12-0.25,0.28-0.38,0.48-0.38H117.72z"/>
		<path class="st0" d="M119.87,252.72v2.99h-2.17c-0.44,0-0.67-0.5-0.67-1.5c0-0.49,0.06-0.85,0.18-1.11
			c0.12-0.25,0.28-0.38,0.48-0.38H119.87z"/>
		<path class="st0" d="M122.02,252.72v2.99h-2.17c-0.44,0-0.67-0.5-0.67-1.5c0-0.49,0.06-0.85,0.18-1.11
			c0.12-0.25,0.28-0.38,0.48-0.38H122.02z"/>
		<path class="st0" d="M136.23,252.72h0.85v2.99h-15.07c-0.44,0-0.67-0.5-0.67-1.5c0-0.49,0.06-0.85,0.18-1.11
			c0.12-0.25,0.28-0.38,0.48-0.38h10.28c-0.14-0.25-0.25-0.57-0.35-0.95c-0.09-0.38-0.15-0.71-0.18-0.97
			c-0.03-0.26-0.06-0.64-0.09-1.14c-0.05-0.56-0.13-1.04-0.22-1.44c-0.1-0.4-0.24-0.77-0.44-1.14c-0.2-0.36-0.48-0.64-0.83-0.82
			c-0.36-0.19-0.79-0.28-1.3-0.28c-0.69,0-1.27,0.2-1.74,0.61c-0.47,0.41-0.72,1.07-0.74,2h-3.26c-0.02-0.65,0.04-1.25,0.18-1.8
			c0.14-0.55,0.33-1.01,0.57-1.39c0.24-0.38,0.53-0.71,0.86-1c0.33-0.29,0.68-0.52,1.03-0.69c0.35-0.17,0.73-0.31,1.12-0.42
			c0.4-0.11,0.75-0.18,1.08-0.22c0.32-0.04,0.64-0.06,0.95-0.06c0.74,0,1.41,0.08,2,0.24c0.6,0.16,1.1,0.39,1.51,0.68
			c0.41,0.3,0.76,0.63,1.06,0.99s0.54,0.78,0.72,1.25c0.19,0.47,0.33,0.92,0.43,1.34c0.1,0.42,0.18,0.88,0.24,1.39
			c0.01,0.05,0.02,0.13,0.03,0.23c0.13,1.17,0.27,2,0.42,2.49C135.49,252.12,135.79,252.49,136.23,252.72z"/>
		<path class="st0" d="M152.98,252.72v2.99h-3.93c-1.02,0.89-2.37,1.33-4.05,1.33c-1.64,0-2.98-0.44-4.03-1.33h-3.9
			c-0.44,0-0.67-0.5-0.67-1.5c0-0.49,0.06-0.85,0.18-1.11c0.12-0.25,0.28-0.38,0.48-0.38h2.17c-0.14-0.65-0.21-1.31-0.21-1.98
			c0-1.98,0.53-3.54,1.58-4.68c1.06-1.14,2.52-1.7,4.39-1.7c1.87,0,3.34,0.57,4.41,1.7c1.07,1.14,1.6,2.7,1.6,4.68
			c0,0.67-0.07,1.33-0.21,1.98H152.98z M145.01,254.05c0.87,0,1.55-0.29,2.03-0.87c0.48-0.58,0.72-1.4,0.72-2.44
			c0-1.07-0.24-1.91-0.72-2.51c-0.48-0.6-1.16-0.91-2.03-0.91c-0.85,0-1.52,0.3-2,0.91c-0.48,0.6-0.72,1.44-0.72,2.51
			c0,1.04,0.24,1.86,0.72,2.44C143.49,253.76,144.16,254.05,145.01,254.05z"/>
		<path class="st0" d="M158.55,238.21v8.86h-0.03v3.62c0,1.65-0.39,2.9-1.16,3.75s-1.89,1.27-3.36,1.27h-1.07
			c-0.44,0-0.67-0.5-0.67-1.5c0-0.49,0.06-0.85,0.18-1.11c0.12-0.25,0.28-0.38,0.48-0.38h0.35c0.71,0,1.23-0.18,1.55-0.55
			c0.32-0.37,0.48-0.91,0.48-1.64v-6.71h0.03v-5.61H158.55z"/>
		<path class="st0" d="M161.08,255.71v-17.5h3.21v17.5H161.08z"/>
		<path class="st0" d="M186.54,248.9c0.15,1.36,0.29,2.25,0.42,2.65c0.19,0.58,0.52,0.98,0.98,1.2v2.96h-10.18
			c-0.78,0-1.39,0.16-1.82,0.49c-0.43,0.33-0.65,0.79-0.65,1.38c0,1.24,0.82,1.85,2.47,1.85h1.2v2.96h-0.81
			c-2,0-3.51-0.43-4.53-1.29c-1.02-0.86-1.53-2.02-1.53-3.47c0-0.62,0.12-1.21,0.35-1.78c0.23-0.57,0.57-1.09,1.03-1.56
			c0.46-0.48,1.07-0.85,1.83-1.14c0.77-0.28,1.64-0.42,2.62-0.42h6.04c-0.14-0.25-0.25-0.57-0.35-0.95
			c-0.09-0.38-0.15-0.71-0.18-0.97c-0.03-0.26-0.06-0.64-0.09-1.14c-0.05-0.56-0.13-1.03-0.22-1.43c-0.1-0.4-0.24-0.77-0.44-1.13
			c-0.2-0.36-0.48-0.62-0.83-0.8c-0.36-0.18-0.79-0.27-1.31-0.27c-0.6,0-1.13,0.15-1.58,0.44c-0.46,0.29-0.74,0.74-0.85,1.35h-3.29
			c0.06-0.77,0.25-1.46,0.55-2.06c0.31-0.6,0.67-1.07,1.08-1.4c0.41-0.33,0.88-0.61,1.42-0.82c0.53-0.21,1.01-0.35,1.45-0.42
			c0.43-0.07,0.86-0.11,1.28-0.11c0.88,0,1.66,0.12,2.34,0.36c0.68,0.24,1.22,0.54,1.64,0.91c0.41,0.37,0.76,0.83,1.05,1.38
			c0.29,0.55,0.5,1.07,0.63,1.57C186.37,247.73,186.47,248.28,186.54,248.9z M180.7,258.16c0.34-0.35,0.77-0.53,1.27-0.53
			c0.5,0,0.93,0.17,1.28,0.53c0.35,0.35,0.53,0.78,0.53,1.3c0,0.51-0.17,0.93-0.52,1.27c-0.35,0.34-0.78,0.52-1.29,0.52
			c-0.51,0-0.93-0.17-1.27-0.51c-0.34-0.34-0.51-0.76-0.51-1.28S180.36,258.51,180.7,258.16z"/>
		<path class="st0" d="M190.19,255.71v-17.5h3.21v17.5H190.19z"/>
		<path class="st0" d="M203.34,252.72v2.99h-2.57c-0.05,0.83-0.19,1.54-0.4,2.15c-0.22,0.6-0.54,1.14-0.97,1.6
			c-0.43,0.46-1,0.81-1.71,1.04c-0.71,0.23-1.57,0.35-2.56,0.35h-0.26v-2.96h0.21c0.97,0,1.63-0.24,1.98-0.73
			c0.36-0.49,0.53-1.26,0.53-2.32v-11h3.2v8.9H203.34z"/>
		<path class="st0" d="M205.5,252.72v2.99h-2.17c-0.44,0-0.67-0.5-0.67-1.5c0-0.49,0.06-0.85,0.18-1.11
			c0.12-0.25,0.28-0.38,0.48-0.38H205.5z"/>
		<path class="st0" d="M207.65,252.72v2.99h-2.17c-0.44,0-0.67-0.5-0.67-1.5c0-0.49,0.06-0.85,0.18-1.11
			c0.12-0.25,0.28-0.38,0.48-0.38H207.65z"/>
		<path class="st0" d="M209.8,252.72v2.99h-2.17c-0.44,0-0.67-0.5-0.67-1.5c0-0.49,0.06-0.85,0.18-1.11
			c0.12-0.25,0.28-0.38,0.48-0.38H209.8z"/>
		<path class="st0" d="M211.96,252.72v2.99h-2.17c-0.44,0-0.67-0.5-0.67-1.5c0-0.49,0.06-0.85,0.18-1.11
			c0.12-0.25,0.28-0.38,0.48-0.38H211.96z"/>
		<path class="st0" d="M214.11,252.72v2.99h-2.17c-0.44,0-0.67-0.5-0.67-1.5c0-0.49,0.06-0.85,0.18-1.11
			c0.12-0.25,0.28-0.38,0.48-0.38H214.11z"/>
		<path class="st0" d="M216.26,252.72v2.99h-2.17c-0.44,0-0.67-0.5-0.67-1.5c0-0.49,0.06-0.85,0.18-1.11
			c0.12-0.25,0.28-0.38,0.48-0.38H216.26z"/>
		<path class="st0" d="M218.41,252.72v2.99h-2.17c-0.44,0-0.67-0.5-0.67-1.5c0-0.49,0.06-0.85,0.18-1.11
			c0.12-0.25,0.28-0.38,0.48-0.38H218.41z"/>
		<path class="st0" d="M220.57,252.72v2.99h-2.17c-0.44,0-0.67-0.5-0.67-1.5c0-0.49,0.06-0.85,0.18-1.11
			c0.12-0.25,0.28-0.38,0.48-0.38H220.57z"/>
		<path class="st0" d="M222.72,252.72v2.99h-2.17c-0.44,0-0.67-0.5-0.67-1.5c0-0.49,0.06-0.85,0.18-1.11
			c0.12-0.25,0.28-0.38,0.48-0.38H222.72z"/>
		<path class="st0" d="M224.87,252.72v2.99h-2.17c-0.44,0-0.67-0.5-0.67-1.5c0-0.49,0.06-0.85,0.18-1.11
			c0.12-0.25,0.28-0.38,0.48-0.38H224.87z"/>
		<path class="st0" d="M227.03,252.72v2.99h-2.17c-0.44,0-0.67-0.5-0.67-1.5c0-0.49,0.06-0.85,0.18-1.11
			c0.12-0.25,0.28-0.38,0.48-0.38H227.03z"/>
		<path class="st0" d="M229.18,252.72v2.99h-2.17c-0.44,0-0.67-0.5-0.67-1.5c0-0.49,0.06-0.85,0.18-1.11
			c0.12-0.25,0.28-0.38,0.48-0.38H229.18z"/>
		<path class="st0" d="M231.33,252.72v2.99h-2.17c-0.44,0-0.67-0.5-0.67-1.5c0-0.49,0.06-0.85,0.18-1.11
			c0.12-0.25,0.28-0.38,0.48-0.38H231.33z"/>
		<path class="st0" d="M233.48,252.72v2.99h-2.17c-0.44,0-0.67-0.5-0.67-1.5c0-0.49,0.06-0.85,0.18-1.11
			c0.12-0.25,0.28-0.38,0.48-0.38H233.48z"/>
		<path class="st0" d="M235.64,252.72v2.99h-2.17c-0.44,0-0.67-0.5-0.67-1.5c0-0.49,0.06-0.85,0.18-1.11
			c0.12-0.25,0.28-0.38,0.48-0.38H235.64z"/>
		<path class="st0" d="M237.79,252.72v2.99h-2.17c-0.44,0-0.67-0.5-0.67-1.5c0-0.49,0.06-0.85,0.18-1.11
			c0.12-0.25,0.28-0.38,0.48-0.38H237.79z"/>
		<path class="st0" d="M254.37,243.82h3.26v7.24c0,1.53-0.34,2.69-1.03,3.47c-0.69,0.78-1.68,1.18-2.99,1.18
			c-1.46,0-2.7-0.45-3.71-1.36c-0.69,0.9-1.73,1.36-3.13,1.36c-1.37,0-2.58-0.43-3.63-1.28c-0.69,0.85-1.71,1.28-3.08,1.28h-2.3
			c-0.44,0-0.67-0.5-0.67-1.5c0-0.49,0.06-0.85,0.18-1.11c0.12-0.25,0.28-0.38,0.48-0.38h1.53c0.55,0,0.94-0.15,1.19-0.46
			c0.24-0.3,0.36-0.75,0.36-1.34v-4.83h3.22v4.97c0,0.24-0.02,0.55-0.05,0.95c0.64,0.47,1.31,0.7,2.01,0.7c1,0,1.5-0.6,1.5-1.8
			v-4.83h3.22v4.97c0,0.39-0.01,0.67-0.03,0.85c0.65,0.54,1.37,0.81,2.17,0.81c0.53,0,0.91-0.15,1.14-0.46
			c0.23-0.3,0.34-0.75,0.34-1.34V243.82z"/>
		<path class="st0" d="M278.81,252.72h0.8v2.99h-2.17c-1.78,0-2.89-0.53-3.34-1.6c-0.92,0.46-1.98,0.69-3.17,0.69
			c-0.7,0-1.35-0.07-1.96-0.22c-0.61-0.15-1.17-0.38-1.68-0.68c-0.51-0.31-0.91-0.73-1.21-1.27c-0.3-0.53-0.44-1.16-0.44-1.86
			c0-0.78,0.18-1.51,0.54-2.19c0.36-0.68,0.75-1.23,1.16-1.66s1.05-0.88,1.94-1.36c0.88-0.48,1.54-0.81,1.98-0.99
			c0.43-0.18,1.16-0.47,2.18-0.86c0.17-0.07,0.3-0.12,0.39-0.16v-1.66h3.21v9.12c0,0.64,0.14,1.09,0.43,1.34
			C277.74,252.6,278.19,252.72,278.81,252.72z M269.69,240.16c-0.5,0-0.92-0.17-1.27-0.53c-0.35-0.35-0.52-0.78-0.52-1.28
			c0-0.5,0.17-0.93,0.52-1.27c0.35-0.34,0.77-0.52,1.27-0.52c0.51,0,0.95,0.17,1.3,0.52c0.35,0.34,0.53,0.77,0.53,1.27
			c0,0.51-0.18,0.93-0.53,1.28C270.64,239.98,270.2,240.16,269.69,240.16z M273.81,250.61v-3.95c-0.77,0.29-1.42,0.55-1.95,0.78
			c-0.53,0.23-1.04,0.5-1.53,0.81c-0.5,0.31-0.87,0.62-1.12,0.96c-0.25,0.33-0.37,0.69-0.37,1.08c0,1.02,0.87,1.53,2.62,1.53
			c0.42,0,0.85-0.05,1.29-0.14c0.44-0.09,0.8-0.21,1.06-0.34V250.61z M274.13,240.16c-0.5,0-0.93-0.17-1.27-0.52
			c-0.34-0.35-0.52-0.78-0.52-1.29c0-0.51,0.17-0.94,0.52-1.28c0.34-0.34,0.77-0.51,1.27-0.51c0.51,0,0.95,0.17,1.3,0.52
			c0.35,0.34,0.53,0.77,0.53,1.27c0,0.51-0.18,0.93-0.53,1.28C275.07,239.98,274.64,240.16,274.13,240.16z"/>
		<path class="st0" d="M281.77,252.72v2.99h-2.17c-0.44,0-0.67-0.5-0.67-1.5c0-0.49,0.06-0.85,0.18-1.11
			c0.12-0.25,0.28-0.38,0.48-0.38H281.77z"/>
		<path class="st0" d="M283.93,252.72v2.99h-2.17c-0.44,0-0.67-0.5-0.67-1.5c0-0.49,0.06-0.85,0.18-1.11
			c0.12-0.25,0.28-0.38,0.48-0.38H283.93z"/>
		<path class="st0" d="M286.08,252.72v2.99h-2.17c-0.44,0-0.67-0.5-0.67-1.5c0-0.49,0.06-0.85,0.18-1.11
			c0.12-0.25,0.28-0.38,0.48-0.38H286.08z"/>
		<path class="st0" d="M288.23,252.72v2.99h-2.17c-0.44,0-0.67-0.5-0.67-1.5c0-0.49,0.06-0.85,0.18-1.11
			c0.12-0.25,0.28-0.38,0.48-0.38H288.23z"/>
		<path class="st0" d="M290.38,252.72v2.99h-2.17c-0.44,0-0.67-0.5-0.67-1.5c0-0.49,0.06-0.85,0.18-1.11
			c0.12-0.25,0.28-0.38,0.48-0.38H290.38z"/>
		<path class="st0" d="M292.54,252.72v2.99h-2.17c-0.44,0-0.67-0.5-0.67-1.5c0-0.49,0.06-0.85,0.18-1.11
			c0.12-0.25,0.28-0.38,0.48-0.38H292.54z"/>
		<path class="st0" d="M294.69,252.72v2.99h-2.17c-0.44,0-0.67-0.5-0.67-1.5c0-0.49,0.06-0.85,0.18-1.11
			c0.12-0.25,0.28-0.38,0.48-0.38H294.69z"/>
		<path class="st0" d="M296.84,252.72v2.99h-2.17c-0.44,0-0.67-0.5-0.67-1.5c0-0.49,0.06-0.85,0.18-1.11
			c0.12-0.25,0.28-0.38,0.48-0.38H296.84z"/>
		<path class="st0" d="M299,252.72v2.99h-2.17c-0.44,0-0.67-0.5-0.67-1.5c0-0.49,0.06-0.85,0.18-1.11c0.12-0.25,0.28-0.38,0.48-0.38
			H299z"/>
		<path class="st0" d="M301.15,252.72v2.99h-2.17c-0.44,0-0.67-0.5-0.67-1.5c0-0.49,0.06-0.85,0.18-1.11
			c0.12-0.25,0.28-0.38,0.48-0.38H301.15z"/>
		<path class="st0" d="M307.15,243.82c1.93,0.04,3.39,0.57,4.37,1.59c0.98,1.03,1.47,2.44,1.47,4.25v6.04h-11.86
			c-0.44,0-0.67-0.5-0.67-1.5c0-0.49,0.06-0.85,0.18-1.11c0.12-0.25,0.28-0.38,0.48-0.38h8.66v-2.54c0-1.18-0.27-2.03-0.81-2.58
			c-0.54-0.54-1.42-0.81-2.65-0.81h-3.78v-2.96l6.68-6.17l2.1,2.24L307.15,243.82z"/>
		<path class="st0" d="M322.4,252.72v2.99h-2.57c-0.05,0.83-0.19,1.54-0.4,2.15c-0.22,0.6-0.54,1.14-0.97,1.6
			c-0.43,0.46-1,0.81-1.71,1.04c-0.71,0.23-1.57,0.35-2.56,0.35h-0.26v-2.96h0.21c0.97,0,1.63-0.24,1.98-0.73
			c0.36-0.49,0.53-1.26,0.53-2.32v-11h3.2v8.9H322.4z"/>
		<path class="st0" d="M338.96,243.82h3.26v7.24c0,1.53-0.34,2.69-1.03,3.47c-0.69,0.78-1.68,1.18-2.99,1.18
			c-1.46,0-2.7-0.45-3.71-1.36c-0.69,0.9-1.73,1.36-3.13,1.36c-1.38,0-2.58-0.43-3.63-1.28c-0.69,0.85-1.71,1.28-3.08,1.28h-2.3
			c-0.44,0-0.67-0.5-0.67-1.5c0-0.49,0.06-0.85,0.18-1.11c0.12-0.25,0.28-0.38,0.48-0.38h1.53c0.55,0,0.94-0.15,1.18-0.46
			c0.24-0.3,0.36-0.75,0.36-1.34v-4.83h3.24v4.97c0,0.24-0.02,0.55-0.05,0.95c0.64,0.47,1.31,0.7,2.01,0.7c0.99,0,1.49-0.6,1.49-1.8
			v-4.83h3.24v4.97c0,0.39-0.01,0.67-0.03,0.85c0.65,0.54,1.38,0.81,2.17,0.81c0.53,0,0.91-0.15,1.14-0.46
			c0.23-0.3,0.34-0.75,0.34-1.34V243.82z M331.52,243.24c-0.5,0-0.92-0.18-1.27-0.53c-0.35-0.36-0.52-0.79-0.52-1.29
			c0-0.5,0.17-0.93,0.52-1.27c0.35-0.34,0.77-0.52,1.27-0.52c0.51,0,0.95,0.17,1.3,0.52c0.35,0.34,0.53,0.77,0.53,1.27
			c0,0.51-0.18,0.93-0.53,1.29C332.46,243.06,332.03,243.24,331.52,243.24z M335.11,239c-0.34,0.34-0.77,0.52-1.28,0.52
			c-0.51,0-0.95-0.17-1.3-0.52c-0.35-0.34-0.53-0.77-0.53-1.27s0.18-0.93,0.53-1.29c0.35-0.36,0.78-0.53,1.3-0.53
			c0.5,0,0.93,0.17,1.27,0.53c0.34,0.35,0.51,0.79,0.51,1.3C335.62,238.24,335.45,238.66,335.11,239z M334.17,241.41
			c0-0.5,0.17-0.93,0.51-1.27c0.34-0.34,0.77-0.52,1.27-0.52c0.51,0,0.95,0.17,1.3,0.52c0.35,0.34,0.53,0.77,0.53,1.27
			c0,0.51-0.18,0.93-0.53,1.29c-0.36,0.36-0.79,0.53-1.29,0.53c-0.51,0-0.93-0.18-1.27-0.53
			C334.34,242.36,334.17,241.92,334.17,241.41z"/>
	</g>
</g>
</svg>
