<?xml version="1.0" encoding="utf-8"?>
<!-- Generator: Adobe Illustrator 26.0.1, SVG Export Plug-In . SVG Version: 6.00 Build 0)  -->
<svg version="1.1" id="Layer_1" xmlns="http://www.w3.org/2000/svg" xmlns:xlink="http://www.w3.org/1999/xlink" x="0px" y="0px"
	 viewBox="0 0 400 400" style="enable-background:new 0 0 400 400;" xml:space="preserve">
<style type="text/css">
	.st0{fill:#F7A422;}
	.st1{fill:#030405;}
</style>
<g>
	<g>
		<path class="st0" d="M284.7,35.47c-2.11-5.91-6.6-9.18-12.53-10.4c-4.17-0.86-8.45-1.2-12.69-1.77c-0.32-0.04-0.65-0.01-0.97-0.01
			c0.43,1,0.96,1.83,1.14,2.74c0.71,3.43,1.3,6.89,1.94,10.34c0.55,2.96,0.37,5.92-0.5,8.77c-1.76,5.74-4.92,10.68-9.04,15.02
			c-0.45,0.47-0.96,0.93-1.76,0.44c0.12-1.12,0.7-2.01,1.32-2.86c0.96-1.31,2.07-2.51,2.97-3.86c1.71-2.55,2.36-5.52,2.85-8.47
			c0.92-5.58,0.67-11.05-1.96-16.23c-0.97-1.92-0.6-4.47,1.16-5.65c0.09-0.06,0.1-0.23,0.18-0.42c-2.55-0.25-5.02-0.52-7.49-0.69
			c-0.35-0.03-0.82,0.32-1.1,0.62c-0.7,0.74-1.32,1.55-1.98,2.32c-0.3,0.35-0.6,0.73-1.1,0.49c-0.34-0.94-0.6-1.87-0.99-2.73
			c-0.43-0.94-1.15-1.14-1.95-0.5c-0.54,0.43-0.95,1.04-1.36,1.61c-1.62,2.28-3.16,4.62-4.83,6.86c-0.72,0.97-1.66,1.77-3.18,1.82
			c0.04-0.77,0.04-1.47,0.12-2.16c0.22-1.82,0.47-3.63,0.73-5.45c0.31-2.09-0.35-3.63-3.19-3.7c-4.43-0.1-8.85-0.14-13.28-0.2
			c-0.25,0-0.51,0.01-0.76,0.01c-0.68-0.01-1.03,0.37-1.15,0.99c-0.54,2.69-1.04,5.38-1.61,8.07c-0.51,2.38-1.07,4.76-1.67,7.11
			c-0.19,0.73-0.54,1.43-0.94,2.07c-0.41,0.68-1.22,0.6-1.54-0.13c-0.16-0.36-0.2-0.78-0.24-1.19c-0.12-1.25-0.22-2.51-0.32-3.76
			c-0.12-0.04-0.24-0.08-0.37-0.11c-0.31,0.57-0.65,1.13-0.93,1.71c-0.64,1.32-1.24,2.67-1.88,3.99c-1.28,2.6-2.6,5.17-3.87,7.77
			c-0.68,1.4-0.53,1.98,0.63,3.06c1.57,1.46,2.97,3.07,3.85,5.06c0.61,1.39,1.2,2.8,1.76,4.21c0.22,0.54,0.67,1.22,0.04,1.67
			c-0.67,0.48-1.1-0.28-1.52-0.66c-1.99-1.83-4.2-3.37-6.54-4.7c-0.97-0.55-1.16-0.49-1.62,0.49c-1.24,2.67-2.45,5.36-3.68,8.04
			c-2.16,4.71-4.33,9.41-6.48,14.12c-0.14,0.3-0.17,0.64-0.29,1.09c0.61,0,1.06,0.02,1.51,0c3.1-0.12,6.2-0.28,9.31-0.37
			c2.71-0.08,5.35-0.5,7.92-1.37c0.31-0.1,0.59-0.29,1.08-0.54c-0.45-0.49-0.77-0.85-1.1-1.21c-2.26-2.41-1.98-3.99-0.33-6.08
			c2.7-3.42,5.87-6.39,9.97-8.09c1.82-0.76,3.72-1.53,5.65-1.75c3.93-0.46,7.91-0.59,11.87-0.78c0.97-0.05,1.77-0.25,2.5-0.9
			c0.78-0.68,1.21-0.72,1.97-0.03c0.51,0.46,0.89,1.09,1.22,1.7c0.69,1.26,0.41,2.83-0.7,3.73c-0.31,0.25-0.92,0.44-1.22,0.29
			c-0.76-0.36-1.19,0-1.57,0.49c-0.59,0.76-1.17,1.54-1.64,2.38c-1.44,2.53-3.1,4.9-5.32,6.82c-1.25,1.08-2.69,2-4.35,2
			c-1.58,0-2.67,0.65-3.77,1.63c-0.86,0.78-1.86,1.36-3.04,1.66c-2.39,0.61-4.67,0.17-6.87-0.67c-1.23-0.47-2.16-0.29-3.04,0.59
			c-0.65,0.65-1.32,1.28-1.94,1.95c-1.87,2.05-4.13,3.45-6.82,4.12c-1.47,0.37-2.64,1.2-3.42,2.4c-1.92,2.98-2.92,6.14-2.09,9.82
			c0.59,2.62,1.83,4.76,3.68,6.52c3.31,3.15,7.39,4.53,11.92,4.73c3.33,0.15,6.58-0.6,9.85-1.01c3.07-0.38,6.11-1.01,9.17-1.46
			c0.92-0.14,1.89-0.02,3.06-0.02c-0.18,0.73-0.26,1.26-0.45,1.75c-0.15,0.37-0.47,0.67-0.67,1.02c-0.72,1.22-1.7,2.38-2.07,3.7
			c-0.85,3.09,0.16,5.85,2.27,8.17c2.1,2.32,4.91,3.16,7.91,3.47c3.2,0.33,6.15-0.56,8.97-1.96c1.01-0.5,1.86-1.16,2.38-2.25
			c1.43-2.98,2.94-5.91,4.42-8.86c2.93-5.86,5.85-11.72,8.79-17.57c0.7-1.4,1.52-2.75,2.21-4.16c0.41-0.84,0.99-1.64,0.99-2.72
			c-0.48-0.11-0.9-0.13-1.25-0.31c-0.37-0.19-0.8-0.46-0.99-0.8c-0.65-1.23-0.25-3.43,0.72-4.41c1.39-1.41,2.73-2.87,4.2-4.2
			c0.79-0.71,1.43-1.7,2.76-1.69c0.39,0,0.93-0.6,1.16-1.05c1.28-2.54,2.49-5.12,3.73-7.68c0.55-1.14,1.12-2.28,1.68-3.41
			c1.25-2.5,2.51-4.99,3.74-7.49c0.17-0.35,0.21-0.76,0.35-1.3c-0.66-0.03-1.2-0.08-1.75-0.08c-2.39-0.01-4.79,0-7.18-0.01
			c-0.45,0-0.97,0.1-1.1-0.54c-0.11-0.54,0.2-0.88,0.65-1.08c0.69-0.3,1.37-0.74,2.09-0.82c2.42-0.29,4.85-0.46,7.29-0.65
			c1.35-0.1,1.55-0.24,1.81-1.56c0.4-1.99,0.85-3.98,1.17-5.99C285.86,41.35,285.72,38.34,284.7,35.47z M216.15,37.4
			c0.37-1.79,1.29-3.36,2.52-4.62c1.89-1.96,3.98-3.72,6-5.56c0.18-0.17,0.41-0.34,0.64-0.38c0.27-0.05,0.75-0.05,0.82,0.09
			c0.12,0.26,0.14,0.74-0.02,0.93c-0.85,1-1.77,1.94-2.68,2.89c-1.02,1.06-2.1,2.05-3.06,3.15c-0.77,0.88-0.95,2.01-0.78,3.15
			c0.05,0.37,0.28,0.71,0.45,1.13c0.86-0.37,1.57-0.68,2.48-1.06c0,0.61,0.11,1.03-0.02,1.35c-0.49,1.29-1.4,2.31-2.7,2.72
			C217.54,41.89,215.64,39.87,216.15,37.4z M234.15,51.44c-0.42,0.69-1.23,1.23-1.97,1.61c-0.38,0.2-1.09,0.02-1.54-0.21
			c-0.67-0.34-1.27-0.84-1.86-1.32c-0.72-0.58-1.37-0.62-2.21-0.13c-2.29,1.34-4.73,2.36-7.3,3.02c-3.66,0.94-7.38,1.49-11.17,1.29
			c-0.51-0.03-1.31,0.17-1.33-0.62c-0.02-0.73,0.7-0.88,1.32-1c2.2-0.4,4.4-0.79,6.59-1.2c2.04-0.38,4.11-0.7,6.12-1.22
			c1.52-0.39,2.97-1.02,4.44-1.59c0.3-0.12,0.51-0.44,0.8-0.71c-0.29-0.45-0.49-0.87-0.79-1.2c-1.4-1.51-1.26-3.48,0.5-5.11
			c1.34-1.24,2.73-2.42,4.09-3.63c1.61-1.43,2.35-1.46,3.61,0.24C236.16,43.37,236.2,48.06,234.15,51.44z M209.3,87.13
			c1.64-1.19,3.14-2.57,4.75-3.81c0.41-0.32,0.97-0.5,1.49-0.62c0.21-0.05,0.62,0.18,0.71,0.38c0.09,0.22-0.01,0.61-0.16,0.83
			c-0.16,0.23-0.48,0.35-0.72,0.54c-1.67,1.34-3.3,2.69-4.23,4.71c-0.29,0.62-0.35,1.05,0.73,1.45c0.07-0.14,0.15-0.48,0.36-0.68
			c0.42-0.38,1.03-0.45,1.35,0.01c0.19,0.28,0.15,0.98-0.07,1.24c-0.66,0.76-2.48,2.2-2.62,2.28c-2.55,1.43-3.55,0.45-3.57-2.25
			C207.3,89.59,207.86,88.17,209.3,87.13z M221.06,101.5c-1.06-0.05-2.12-0.23-3.19-0.25c-3.76-0.06-7.51-0.06-11.27-0.11
			c-2.69-0.03-5.38-0.09-8.07-0.19c-0.35-0.01-0.85-0.22-0.99-0.48c-0.26-0.5,0.15-0.85,0.61-1.04c0.74-0.3,1.48-0.7,2.25-0.82
			c3.18-0.49,6.38-0.41,9.58-0.26c3.75,0.18,7.51,0.29,11.26,0.45c0.95,0.04,1.9,0.17,2.98,0.27
			C223.79,100.88,222.8,101.59,221.06,101.5z M243.46,41.61c0.36-1.04,0.95-2.04,1.59-2.94c0.97-1.36,2.07-2.64,3.16-3.91
			c0.45-0.52,0.95-1.11,2.02-0.68c-0.24,0.45-0.41,0.89-0.68,1.25c-0.73,0.98-1.51,1.92-2.26,2.89c-0.62,0.79-0.92,1.68-0.79,2.8
			c0.64,0.11,1.26,0.22,1.88,0.33c-0.06,1.38-1.09,2.49-2.54,2.83C243.86,44.62,242.79,43.53,243.46,41.61z M233.41,84.74
			c0.9-2.72,2.33-5.16,4.09-7.41c0.28-0.36,0.74-0.58,1.38-1.06c0.18,1.37-0.27,2.09-0.74,2.8c-0.9,1.35-1.93,2.63-2.18,4.3
			c-0.58,3.91,0.04,7.49,2.92,10.43c0.36,0.36,0.76,0.68,1.1,1.05c0.53,0.59,0.6,1.82,0.18,2.58c-0.38,0.68-1.23,1.05-2.12,0.78
			c-0.4-0.12-0.84-0.41-1.06-0.76c-1.2-1.88-2.45-3.74-3.45-5.73C232.4,89.47,232.63,87.08,233.41,84.74z M246.24,113.77
			c-1.03,2.66-4.4,4.37-7,3.39c-2.29-0.86-3.24-3.43-2.02-5.69c0.42-0.79,1.06-1.48,1.69-2.13c1.49-1.52,3.02-3,4.55-4.48
			c0.56-0.54,1.22-0.88,2.22-0.54c-0.06,0.41-0.04,0.74-0.17,0.98c-0.58,1.03-0.29,1.99,0.25,2.89
			C246.87,109.98,246.96,111.91,246.24,113.77z M248.46,76.66c-0.7,0.5-1.48,0.9-2.27,1.23c-1.53,0.65-2.92,0.22-4.04-0.87
			c-1.02-1-1.22-2.24-0.74-3.65c0.77-2.27,2.44-3.8,4.12-5.33c0.71-0.64,1.49-1.21,2.25-1.79c0.15-0.11,0.38-0.11,0.77-0.22
			c0.19,0.61,0.3,1.1,0.49,1.55c0.22,0.56,0.43,1.15,0.77,1.63C251.79,71.94,251.45,74.54,248.46,76.66z M260.28,80.76
			c-1.16,2.27-2.18,4.59-2.81,7.06c-0.31,1.22-0.44,2.49-0.68,3.74c-0.26,1.4-0.53,2.79-0.83,4.18c-0.79,3.67-1.6,7.34-2.42,11.01
			c-0.09,0.42-0.23,0.82-0.38,1.33c-1.12-0.52-1.55-1.41-2.06-2.19c-1.91-2.9-2-6.14-1.5-9.42c0.31-2,0.73-4,1.34-5.93
			c0.3-0.96,1.08-1.81,1.73-2.63c1.98-2.51,4-4.99,6.04-7.45c0.48-0.58,0.88-1.37,2.25-1.49C260.66,79.77,260.52,80.29,260.28,80.76
			z M268.77,69.53c-1.96,1.44-3.95,2.83-5.95,4.22c-0.83,0.58-1.1,0.51-1.54-0.33c-1.15-2.2-2.29-4.41-3.42-6.62
			c-0.56-1.1-0.56-1.52,0.35-2.25c1.81-1.45,3.66-2.88,5.56-4.2c1.23-0.85,1.48-0.72,2.21,0.63c1.09,2,2.16,4.01,3.22,6.03
			c0.18,0.35,0.27,0.75,0.47,1.33C269.41,68.71,269.18,69.24,268.77,69.53z M280.28,39.67c-0.39,1.47-0.73,2.96-1.25,4.39
			c-0.74,2.02-2.18,3.28-4.41,3.44c-1.71,0.12-2.45-0.43-2.85-2.06c-0.04-0.15-0.01-0.31-0.05-0.45c-0.22-0.88-0.65-1.04-1.43-0.53
			c-0.34,0.22-0.63,0.52-0.98,0.72c-1.05,0.62-2.14,0.56-2.98-0.12c-1.14-0.92-1.54-2-1.09-3.21c1.14-3.04,2.31-6.07,3.47-9.1
			c0.09-0.23,0.19-0.48,0.35-0.67c0.36-0.42,0.91-0.4,1.11,0.1c0.2,0.49,0.39,1.13,0.24,1.6c-0.51,1.53-1.11,3.04-1.8,4.5
			c-0.38,0.81-0.69,1.57-0.49,2.48c0.3,1.33,1.1,1.77,2.37,1.26c1.52-0.61,2.27-1.77,2.42-3.4c0.1-1.1,0.28-2.21,0.56-3.28
			c0.13-0.51,0.55-0.96,0.88-1.4c0.47-0.63,1.08-0.92,2.18-0.43c-0.08,0.68-0.08,1.39-0.27,2.04c-0.53,1.75-1.13,3.47-1.72,5.2
			c-0.48,1.42-0.19,2.52,0.88,3.23c0.19,0.13,0.46,0.13,0.85,0.23c0.12-0.62,0.29-1.15,0.32-1.69c0.1-1.83,0.93-3.4,1.7-5
			c0.13-0.27,0.28-0.64,0.51-0.73c0.39-0.15,0.9-0.25,1.27-0.11c0.28,0.1,0.58,0.6,0.57,0.92
			C280.62,38.28,280.46,38.98,280.28,39.67z"/>
		<path class="st0" d="M257.01,279.36c-0.94-1.06-1.7-2.28-2.53-3.43c-1.12-1.55-1.92-3.2-1.9-5.2c0.02-2.29-0.11-4.58-0.19-6.87
			c-0.02-0.54-0.09-1.09-0.14-1.73c-0.63-0.04-1.12-0.09-1.62-0.09c-1.43-0.01-2.85,0.01-4.28-0.01c-3.36-0.05-6.52-0.74-9.41-2.62
			c-2.76-1.79-4.71-4.23-5.67-7.3c-0.71-2.26-0.93-4.67-1.37-7.02c-0.06-0.33-0.15-0.65-0.26-1.12c-7.22,1.64-14.44,1.76-21.65,1.51
			c-0.23-0.93,0.18-1.06,0.76-1.16c5.82-0.96,11.63-1.94,17.44-2.91c0.95-0.16,1.91-0.28,2.86-0.46c1.21-0.22,2-0.88,2.26-2.15
			c0.18-0.89,0.43-1.77,0.72-2.63c1.02-3,2.33-5.88,4.44-8.28c3.12-3.55,6.36-7,9.51-10.52c0.31-0.35,0.58-0.89,0.57-1.34
			c-0.02-1.05-0.23-2.1-0.36-3.13c-2-0.03-3,0.6-3.7,2.43c-0.9,2.33-1.93,4.57-3.19,6.74c-2.83,4.87-6.76,8.62-11.42,11.63
			c-3.29,2.13-6.78,3.87-10.46,5.24c-3.39,1.26-6.86,2.24-10.42,2.91c-1.89,0.36-3.8,0.78-5.71,0.91c-2.59,0.18-5.19,0.11-7.79,0.13
			c-3.61,0.03-7.05-0.89-10.42-2.06c-1.58-0.55-3.08-1.31-4.61-1.99c-1.24-0.55-1.6-0.5-2.55,0.46c-0.68,0.69-1.36,1.37-2.02,2.07
			c-1.07,1.14-1.29,2.83-0.51,3.98c0.89-0.22,1.48-1.53,2.86-0.76c-0.23,0.51-0.31,1.13-0.67,1.44c-1.04,0.87-2.12,1.74-3.31,2.38
			c-1.28,0.69-2.25,0.15-2.74-1.2c-0.66-1.79-0.52-3.39,1-4.72c0.42-0.37,0.76-0.82,1.17-1.19c1.1-0.98,2.21-1.94,3.33-2.9
			c1.17-1,1.24-1.74,0.16-2.77c-0.84-0.81-1.78-1.52-2.61-2.34c-0.8-0.78-1.74-1.52-2.23-2.48c-1.14-2.21-2.29-4.46-2.99-6.82
			c-1.81-6.13-1.43-12.28,0.41-18.36c0.91-3.02,2.12-5.93,3.57-8.73c2.03-3.94,4.28-7.75,7.22-11.09c1.78-2.03,3.6-4.02,5.46-5.97
			c1.28-1.34,1.81-2.83,1.15-4.6c-0.73-1.95-1.48-3.9-2.34-5.79c-0.46-1-1.08-1.97-1.8-2.8c-2.07-2.4-4.94-3.31-7.91-3.9
			c-3.68-0.72-7.37-0.74-11.07-0.07c-1.43,0.26-1.73,0.5-1.78,1.95c-0.05,1.48,0.08,2.97-0.09,4.43c-0.25,2.23,0.66,4.09,1.71,5.9
			c1.37,2.36,1.34,3.07-0.94,4.63c-1.05,0.72-1.44,1.6-1.61,2.76c-0.35,2.41-0.76,4.82-1.14,7.23c-0.07,0.43-0.08,0.87-0.13,1.34
			c1.26,0.37,2.38,0.6,3.56,0.25c2.19-0.65,4.38-1.27,6.57-1.89c0.36-0.1,0.74-0.15,1.16-0.23c-0.12,1.12-0.12,1.13-0.96,1.92
			c-2.93,2.76-6.2,4.95-10.14,5.99c-1.15,0.31-1.75,0.99-1.96,2.22c-0.88,5.16-1.87,10.3-2.79,15.46c-0.19,1.08-0.28,2.18-0.43,3.42
			c3.42-0.53,6.64-1.04,9.8-1.53c0.48,0.78,0.03,1.14-0.34,1.46c-1.48,1.31-2.97,2.62-4.5,3.87c-1.32,1.07-2.88,1.71-4.52,2.15
			c-1.05,0.28-1.64,0.9-1.74,2.03c-0.07,0.8-0.33,1.59-0.46,2.39c-0.13,0.84-0.21,1.69-0.33,2.73c0.56-0.26,0.91-0.53,1.28-0.56
			c0.63-0.05,1.32-0.08,1.9,0.12c0.81,0.28,1.2,1,1.34,1.89c0.29,1.83,0.22,3.64,0.03,5.48c-0.09,0.87-0.37,1.79,0.21,2.6
			c0.14-0.02,0.21-0.01,0.24-0.04c0.1-0.11,0.23-0.21,0.29-0.34c1.28-2.87,3.66-4.55,6.37-5.86c1.31-0.63,2.4-0.19,2.94,1.18
			c0.41,1.03,0.42,2.08,0.04,3.13c-0.36,0.99-1.16,1.72-1.93,1.69c-0.98-0.04-1.35-0.78-1.66-1.56c-0.2-0.51-0.4-1.02-0.69-1.75
			c-0.73,0.59-1.44,1.01-1.93,1.61c-1.9,2.3-3.73,4.66-5.59,7c-0.63,0.8-1.42,1.23-1.9,0.93c-0.75-0.48-0.56-1.24-0.45-1.94
			c0.3-1.86,0.62-3.71,0.92-5.57c0.28-1.74-0.24-2.77-1.89-3.68c-0.06,0.26-0.15,0.5-0.18,0.75c-0.6,5.26-1.19,10.52-1.78,15.78
			c-0.09,0.77,0.2,1.27,0.92,1.56c1.31,0.54,2.64,0.97,4.04,1.29c3.77,0.87,7.54,0.99,11.37,0.65c4.37-0.39,8.59-1.51,12.82-2.58
			c2.66-0.67,5.32-1.31,7.99-1.92c1.07-0.24,2.18-0.46,3.32,0.36c-0.16,0.32-0.24,0.5-0.34,0.68c-0.89,1.54-1.82,3.05-2.66,4.62
			c-0.69,1.29-0.92,2.67-0.52,4.14c0.39,1.41,1.02,1.75,2.32,1.09c1.93-1,3.86-2,5.78-3.03c1.12-0.6,2.21-1.25,3.32-1.86
			c2.85-1.56,5.65-3.27,8.81-4.14c2.49-0.69,5.02-1.34,7.57-1.72c3.28-0.49,6.6-0.54,9.8,0.64c2.48,0.91,4.52,2.43,5.6,4.87
			c1.06,2.41,2.01,4.89,2.74,7.42c0.62,2.13,1.16,4.34,0.58,6.63c-0.19,0.77-0.19,1.6-0.19,2.41c0,1.01-0.27,1.9-0.84,2.72
			c-0.81,1.17-1.57,2.36-2.37,3.53c-2.38,3.49-5.58,5.8-9.69,6.93c-1.74,0.48-3.49,0.62-5.27,0.73c-3.62,0.23-7.21-0.17-10.81-0.5
			c-1.57-0.14-3.15-0.33-4.67-0.71c-3.47-0.85-6.74-2.23-9.76-4.18c-2.94-1.89-5.61-3.99-7.16-7.29c-0.56-1.2-1.63-2.16-2.44-3.19
			c-0.31,0.12-0.46,0.15-0.58,0.24c-1.63,1.13-3.25,2.28-4.88,3.4c-0.44,0.3-0.9,0.74-1.66,0.08c0.31-0.67,0.61-1.4,0.99-2.1
			c0.87-1.58,2.13-2.83,3.59-3.86c1.46-1.04,2.18-2.46,2.48-4.2c0.25-1.45,0.7-2.86,1.05-4.28c0.08-0.32,0.13-0.65,0.24-1.23
			c-1.12,0.19-2.06,0.31-2.99,0.51c-5.51,1.18-11,2.5-16.55,3.53c-3.09,0.57-6.25,0.92-9.42,0.49c-1.1-0.15-2.2-0.21-3.45-0.32
			c-0.24,2.89-0.34,5.63-0.34,8.57c1.65-0.61,3.05-1.18,4.49-1.66c1.1-0.37,2.23-0.73,3.38-0.9c1.34-0.2,2.64-0.03,3.57,1.19
			c0.21,0.28,0.53,0.47,0.8,0.71c0.6,0.55,1.24,0.64,1.94,0.19c0.69-0.44,1.36-0.9,2.07-1.3c1.46-0.81,2.89-1.72,4.68-1.57
			c2.54,0.22,4.15,3.19,2.9,5.34c-1.87,3.22-6.92,4.99-10.14,3.63c-0.7-0.3-1.43-0.55-2.17-0.69c-0.77-0.14-1.56-0.13-2.59-0.2
			c0.35-0.84,0.65-1.56,1-2.41c-1.47-1.06-3.12-1.6-4.95-1.32c-2.85,0.43-5.25,1.81-7.4,3.68c-1.6,1.39-2.92,2.98-3.47,5.09
			c-0.17,0.64-0.32,1.28-0.4,1.94c-0.33,2.5-0.63,5.01-0.94,7.5c1.68,0.38,118.56,0.33,119.75-0.03c-0.29-2.4-0.54-4.83-0.9-7.24
			C258.68,282.26,258.18,280.69,257.01,279.36z M168.48,184.41c-0.96-0.36-0.87-0.99-0.76-1.58c0.26-1.45,0.53-2.89,0.84-4.33
			c0.25-1.18,0.11-2.1-0.88-3c-1.17-1.07-1.41-2.55-0.93-4.08c0.43-1.4,1.23-1.9,2.62-1.74c1.05,0.12,2.02,1.1,2.12,2.25
			c0.09,1.06,0.07,2.13,0.13,3.2c0.04,0.7,0.13,1.39,0.22,2.4c0.57-0.51,0.94-0.82,1.29-1.15c1.51-1.4,3.19-2.5,5.25-2.89
			c1.79-0.34,2.56,0.34,2.23,2.12c-0.15,0.83-0.49,1.65-0.91,2.38c-0.54,0.94-1.45,0.9-2.01-0.01c-0.19-0.3-0.34-0.62-0.52-0.93
			c-0.17-0.3-0.36-0.6-0.59-0.98C173.78,178.96,171.11,181.71,168.48,184.41z M164.35,200.14c-0.75,0.75-1.54,1.47-2.28,2.22
			c-0.88,0.9-1.79,1.77-2.58,2.74c-1.11,1.36-1.06,1.46,0.48,2.56c0.46-0.12,0.93-0.25,1.38-0.36c0.5,0.54,0.42,1.07,0.01,1.41
			c-0.92,0.77-1.83,1.67-2.91,2.13c-1.77,0.74-3.38-0.83-2.84-2.79c0.36-1.29,0.96-2.6,1.76-3.68c1.17-1.59,2.64-2.93,4.38-3.94
			c0.85-0.5,1.58-1.21,2.39-1.84C164.88,199.1,164.88,199.61,164.35,200.14z M187.11,286.8c-0.54,0.12-1.11,0.15-1.67,0.14
			c-8.19-0.14-16.39-0.3-24.58-0.44c-1.12-0.02-2.24,0.09-3.35,0.09c-0.25,0-0.64-0.17-0.71-0.36c-0.08-0.21,0.04-0.66,0.23-0.78
			c0.61-0.42,1.26-0.9,1.96-1.07c4.75-1.17,9.57-1.12,14.41-0.74c2.17,0.17,4.37,0.27,6.54,0.19c2.93-0.11,5.75,0.49,8.74,0.96
			C188.6,286.02,188.04,286.6,187.11,286.8z M245.16,268.06c-1.2,1.09-2.46,2.12-3.66,3.22c-0.6,0.55-1.14,1.17-1.64,1.8
			c-1.03,1.3-1.08,2.57-0.13,3.97c0.78-0.41,1.56-0.88,2.39-1.23c0.31-0.13,0.74,0.05,1.11,0.08c-0.06,0.37,0.02,0.89-0.19,1.08
			c-1.33,1.18-2.67,2.34-4.11,3.38c-1.12,0.81-2.35,0.44-3.13-0.72c-0.78-1.17-0.76-2.43-0.31-3.65c0.32-0.88,0.77-1.8,1.41-2.47
			c2.41-2.53,4.76-5.15,7.62-7.22c0.59-0.43,1.18-0.81,2.08-0.46C246.71,267.01,245.81,267.47,245.16,268.06z"/>
		<path class="st0" d="M131.3,67.27c1.26-0.74,2.44-1.64,3.55-2.59c2.98-2.54,5.86-5.18,8.84-7.71c4.32-3.66,9.02-6.6,14.81-7.32
			c1.84-0.23,3.62-0.29,5.35,0.59c1.23,0.63,1.45,0.86,1.28,2.24c-0.18,1.41-0.37,2.83-0.6,4.23c-0.69,4.26-0.47,8.42,1.27,12.43
			c0.7,1.62,1.45,3.22,3.29,4.21c0-0.39,0.04-0.63-0.01-0.85c-0.64-2.97-0.6-5.97-0.51-8.97c0.08-2.76,1.02-5.28,2.2-7.7
			c1.53-3.15,3.76-5.77,6.47-7.98c2.95-2.41,6.29-3.73,10.14-3.29c2.17,0.25,4.31,0.72,6.46,1.08c0.6,0.1,1.2,0.17,1.81,0.24
			c0.69,0.08,1.19-0.21,1.47-0.84c1.42-3.2,2.83-6.41,4.26-9.61c1.34-3.02,2.7-6.03,4.04-9.05c0.71-1.61,1.38-3.24,2.18-5.13
			c-0.68,0-1.03,0-1.38,0c-8.86,0.03-17.72,0.03-26.57,0.1c-4.58,0.04-9.16,0.09-13.73,0.32c-6.71,0.35-13.41,0.82-20.1,1.32
			c-3.45,0.26-6.88,0.65-10.32,1.04c-2.22,0.26-4.42,0.71-6.64,0.93c-2.17,0.21-4.22,0.9-6.09,1.83c-3.42,1.69-5.94,4.37-7.3,8.03
			c-1.54,4.17-1.28,8.38-0.37,12.62c0.19,0.9,0.45,1.61,1.46,1.73c0,0.26,0.05,0.43-0.01,0.56c-0.57,1.27-0.33,2.46,0.23,3.67
			c0.45,0.96,0.74,2,1.14,2.99c0.33,0.8,0.72,1.57,1.09,2.35c0.35-0.47,0.42-0.86,0.53-1.24c0.6-1.99,1.1-4.02,1.85-5.96
			c1.79-4.62,4.55-8.73,7.19-12.88c0.34-0.54,1.05-0.97,1.68-1.18c0.76-0.25,1.19,0.22,1.02,1.01c-0.11,0.53-0.38,1.05-0.66,1.52
			c-2.63,4.59-5.32,9.14-6.37,14.44c-0.64,3.24-1,6.5-0.18,9.69C125.15,68.24,128.24,69.06,131.3,67.27z M180.23,33.97
			c-0.6,0.82-1.28,1.57-1.92,2.37c-0.51,0.63-1.02,1.26-1.48,1.93c-0.52,0.76-0.44,1.5,0.15,2.27c0.94-0.33,1.73-1.08,2.87-0.62
			c-0.08,0.35-0.06,0.75-0.24,0.99c-0.92,1.24-2.03,2.29-3.49,2.85c-1.47,0.57-2.72-0.15-2.85-1.71c-0.07-0.78,0-1.66,0.3-2.37
			c1.15-2.77,3.32-4.69,5.65-6.44c0.25-0.19,0.64-0.21,1.18-0.37C180.32,33.37,180.39,33.75,180.23,33.97z M185.98,29.8
			c1.91-1.52,3.84-3,5.81-4.44c0.75-0.55,1.27-0.42,1.77,0.4c0.59,0.95,1.08,1.95,1.62,2.93c0.51,0.93,1.06,1.85,1.54,2.8
			c0.25,0.49,0.43,1.03,0.6,1.56c0.21,0.66,0,1.23-0.54,1.62c-2.19,1.56-4.4,3.09-6.6,4.63c-0.11,0.08-0.29,0.05-0.66,0.09
			c-1.02-1.92-2.02-3.8-3.02-5.68c-0.31-0.58-0.61-1.17-0.91-1.76C185.13,31.02,185.18,30.44,185.98,29.8z M155.87,24.03
			c0.54-0.25,1.14-0.5,1.72-0.51c3.61-0.06,7.23-0.21,10.83-0.02c4.21,0.22,8.4,0.76,12.6,1.18c0.46,0.05,0.91,0.24,1.39,0.38
			c-0.26,1.05-0.96,0.9-1.52,0.92c-3.41,0.09-6.81,0.23-10.22,0.19c-4.02-0.05-8.03-0.26-12.05-0.46c-0.85-0.04-1.7-0.28-2.54-0.47
			c-0.21-0.05-0.52-0.28-0.53-0.43C155.55,24.54,155.68,24.12,155.87,24.03z M144.82,30.44c1.01-0.75,2.05-1.49,3.1-2.19
			c0.93-0.62,1.89-1.18,2.85-1.76c1.02-0.62,1.37-0.55,1.86,0.54c0.98,2.17,1.91,4.36,2.87,6.54c0.14,0.32,0.36,0.6,0.67,1.08
			c2.04-1.58,3.91-3.04,5.79-4.5c0.28-0.22,0.53-0.49,0.83-0.67c0.69-0.42,1.25-0.29,1.66,0.41c0.88,1.49,1.72,2.99,2.58,4.49
			c0.43,0.75,0.91,1.47,1.31,2.23c0.49,0.93,0.37,1.26-0.49,1.89c-1.75,1.3-3.49,2.62-5.24,3.92c-0.28,0.21-0.59,0.4-0.92,0.53
			c-0.97,0.37-1.5,0.18-2.02-0.73c-0.98-1.72-1.95-3.44-2.92-5.16c-0.15-0.26-0.29-0.54-0.48-0.78c-0.51-0.65-0.86-0.68-1.54-0.16
			c-0.2,0.15-0.36,0.36-0.56,0.52c-1.65,1.34-3.3,2.68-4.97,4c-0.56,0.44-1.02,0.34-1.35-0.33c-1.22-2.45-2.43-4.92-3.59-7.4
			C143.83,31.97,143.96,31.08,144.82,30.44z M131.98,60.61c0.9-1.47,1.72-3,2.77-4.37c2.9-3.78,3.47-8.04,2.71-12.57
			c-0.32-1.95-0.78-3.88-1.23-5.8c-0.38-1.61-0.12-3.01,1.08-4.2c1.03-1.02,1.54-0.95,2.05,0.43c1.16,3.1,2.04,6.28,1.97,8.7
			c-0.01,4.81-1.22,8.32-3.21,11.58c-1.4,2.29-2.83,4.57-4.25,6.85c-0.11,0.17-0.19,0.36-0.32,0.52c-0.4,0.51-0.94,0.68-1.48,0.34
			C131.46,61.69,131.68,61.11,131.98,60.61z"/>
		<path class="st0" d="M192.38,88.83c0.19-0.31,0.24-0.7,0.41-1.22c-2.49,0-4.77-0.01-7.06,0.01c-0.76,0.01-1.33,0.33-1.67,1.1
			c-0.61,1.39-1.31,2.75-1.94,4.13c-1.14,2.49-2.25,5.01-3.41,7.49c-1.86,4.01-3.76,8.01-5.64,12.01c-1.27,2.71-2.55,5.43-3.81,8.15
			c-1.63,3.5-3.26,7-4.87,10.5c-0.13,0.29-0.14,0.65-0.22,1.05c0.37,0.04,0.62,0.09,0.86,0.08c3.2-0.17,6.41-0.28,9.6-0.55
			c2.62-0.22,2.94-0.69,2.97-3.37c0-0.2,0.01-0.41,0-0.61c-0.13-2.08,0.62-3.93,1.67-5.63c2.19-3.53,5.59-5.06,9.59-5.36
			c1.4-0.1,2.72,0.45,3.8,1.36c1.36,1.16,2.47,2.53,3.15,4.23c0.52,1.32,1.14,2.6,1.71,3.91c1.01,2.33,2.06,4.64,3,7
			c0.52,1.32,0.6,2.75-0.35,3.93c-1.18,1.45-2.47,2.81-3.73,4.19c-1.03,1.12-2.34,1.31-3.78,1.1c-2.76-0.42-5.53-0.81-8.29-1.21
			c-0.5-0.07-1.01-0.1-1.52-0.16c-0.93-0.1-1.55,0.23-1.89,1.15c-0.19,0.51-0.53,0.98-0.89,1.4c-0.45,0.54-1.06,0.83-1.77,0.53
			c-0.64-0.26-0.6-0.89-0.61-1.45c-0.02-0.74-0.01-1.49-0.01-2.24c-0.38-0.06-0.63-0.13-0.88-0.14c-4.99-0.04-9.98-0.1-14.97-0.08
			c-0.73,0-1.51,0.26-2.19,0.57c-1.45,0.65-1.8,1.52-1.53,3.08c0.55,3.26,1.02,6.53,1.55,9.79c0.1,0.63,0.28,1.24,0.44,1.92
			c2.16-0.47,4.13-0.96,6.12-1.32c1.74-0.32,3.51-0.56,5.27-0.71c1.16-0.09,2.34,0.07,3.51,0.09c4.08,0.08,7.82,1.14,11,3.81
			c2.79,2.34,4.58,5.25,5.17,8.88c0.19,1.16,0.35,2.32,0.62,3.46c0.17,0.72,0.5,1.4,0.89,2.46c1.24-0.85,2.21-1.48,3.14-2.16
			c1.81-1.31,3.59-2.69,5.71-3.48c2.71-1,5.44-1.96,8.16-2.94c1.18-0.42,1.46-0.93,1.01-2.07c-0.39-0.99-0.88-1.94-1.34-2.9
			c-1.84-3.8-3.66-7.61-5.54-11.39c-1.02-2.04-1.39-4.14-0.88-6.36c0.85-3.68,2.6-6.82,5.64-9.14c2.76-2.11,5.82-2.46,9.1-1.56
			c2.28,0.63,4.28,1.85,6.32,2.99c2.08,1.16,4.16,2.33,6.25,3.49c3.37,1.88,6.74,3.76,10.12,5.64c0.42,0.24,0.85,0.46,1.46,0.8
			c1.26-4.41,2.46-8.62,3.66-12.83c-1.02,0.19-1.8,0.54-2.53,0.94c-3.38,1.86-7.03,2.35-10.79,2.03c-2.02-0.17-4.03-0.59-5.79-1.74
			c-1.86-1.21-3.36-2.73-4.41-4.73c-1.67-3.2-1.73-7.81-0.01-11.01c0.23-0.43,0.4-0.9,0.7-1.59c-0.75,0.1-1.23,0.13-1.71,0.23
			c-2.94,0.56-5.89,1.09-8.82,1.7c-3.14,0.65-6.27,1.44-9.5,1.25c-4.87-0.3-9.21-1.87-12.69-5.49c-4.32-4.48-4.67-11.5-1.51-16.68
			C189.68,93.02,191.06,90.94,192.38,88.83z M181.51,111.62c0.04,1.25-0.92,2.55-2.05,2.88c-0.34,0.1-0.7,0.16-1.05,0.19
			c-2.11,0.19-3.06-1.03-2.27-3.02c0.74-1.86,1.96-3.41,3.4-4.78c0.81-0.76,1.63-1.51,2.5-2.21c0.35-0.28,0.84-0.4,1.26-0.6
			c0.12,0.13,0.24,0.26,0.36,0.38c-1.12,2.32-2.98,4.17-4.37,6.46C180.13,111.18,180.84,111.4,181.51,111.62z M201.81,155.43
			c-0.61,0.6-1.19,1.26-1.89,1.73c-1.35,0.89-2.78,1.67-4.19,2.47c-0.3,0.17-0.67,0.23-0.95,0.33c-0.94-0.04-1.43-0.62-1.79-1.32
			c-0.54-1.04-1.05-2.09-1.56-3.14c-0.42-0.86-0.83-1.74-1.25-2.6c-0.62-1.28-0.42-1.86,0.83-2.59c1.92-1.12,3.81-2.31,5.75-3.41
			c1.29-0.73,1.6-0.58,2.21,0.72c0.98,2.07,1.94,4.14,2.98,6.17C202.3,154.45,202.31,154.95,201.81,155.43z"/>
		<path class="st0" d="M195.22,187.12c-2.43-0.19-4.71-0.83-6.56-2.52c-0.56-0.51-0.98-1.16-1.47-1.74c-0.63-0.75-1.04-0.8-1.8-0.21
			c-0.24,0.19-0.47,0.4-0.65,0.64c-1.83,2.31-3.74,4.55-5.44,6.95c-2.31,3.25-4.02,6.82-5.26,10.62c-1.3,3.98-1.85,8.02-1.18,12.18
			c0.48,3.01,1.67,5.73,3.18,8.35c2.37,4.1,5.59,7.32,9.72,9.63c3.99,2.23,8.35,3.2,12.8,3.69c4.3,0.47,8.6,0.36,12.91-0.4
			c4.39-0.77,8.61-1.95,12.68-3.72c2-0.87,3.92-1.93,5.91-2.83c4.51-2.04,6.71-6.18,5.85-11.58c-1.5,0.51-2.88,0.97-4.27,1.45
			c-4.7,1.62-9.38,3.29-14.1,4.85c-3.47,1.15-7.01,2.07-10.65,2.48c-3.7,0.42-7.4,0.62-11.1-0.09c-1.77-0.34-3.42-0.99-4.93-1.93
			c-4.69-2.92-6.77-7.35-6.85-12.71c-0.07-5.11,1.78-9.7,4.78-13.74c1.96-2.64,4.33-4.98,6.5-7.46c0.48-0.55,0.93-1.13,1.42-1.73
			c-0.24-0.1-0.33-0.16-0.43-0.17C195.93,187.12,195.57,187.15,195.22,187.12z"/>
		<path class="st0" d="M141.1,102.83c0.59-0.95,1.03-1.95,1.72-2.71c1.23-1.35,2.61-2.55,3.94-3.81c0.51-0.48,1.06-0.77,1.79-0.19
			c-0.51,1.51-1.19,2.82-2.69,3.52c-1.11,0.52-1.67,1.44-1.93,2.59c-0.18,0.77,0.14,1.14,0.94,1.12c0.48-0.02,0.96-0.08,1.46-0.12
			c0,1.58-0.05,1.73-0.93,2.41c-0.36,0.28-0.76,0.51-1.13,0.78c-0.9,0.67-0.95,0.91-0.46,1.91c0.87,1.78,1.71,3.57,2.6,5.33
			c0.5,0.98,1.09,1.9,1.81,3.14c0.21-0.76,0.39-1.22,0.47-1.69c0.23-1.51,0.41-3.03,0.64-4.54c0.59-3.89,1.97-7.56,3.21-11.27
			c0.93-2.79,1.96-5.55,2.92-8.33c0.74-2.13,1.63-4.13,3.48-5.58c0.88-0.68,1.62-1.54,2.4-2.34c0.31-0.31,0.57-0.67,0.89-1.04
			c-0.22-0.34-0.28-0.49-0.38-0.59c-2.58-2.78-3.95-6.12-4.44-9.83c-0.43-3.3-0.26-6.6,0.37-9.87c0.16-0.84,0.18-1.72,0.15-2.58
			c-0.02-0.72-0.46-1.36-1.2-1.34c-1.56,0.03-3.19,0-4.67,0.41c-2.47,0.67-4.6,2.11-6.61,3.68c-3.07,2.41-6.18,4.78-9.18,7.29
			c-2.15,1.79-4.27,3.6-6.67,5.05c-0.72,0.44-1.42,0.92-2.18,1.42c2.51,5,4.95,9.87,7.51,14.97c0.22-0.51,0.35-0.76,0.44-1.03
			c0.79-2.25,1.51-4.52,2.38-6.74c0.5-1.26,1.18-2.46,1.88-3.63c1.27-2.11,3.35-3.37,5.26-4.8c0.36-0.27,0.88-0.31,1.52-0.51
			c0,0.65,0.05,1.05-0.01,1.43c-0.15,0.9-0.34,1.8-0.54,2.69c-0.95,4.22-2.08,8.39-3.95,12.31c-0.83,1.74-1.67,3.49-2.63,5.17
			c-0.74,1.29-0.77,2.45-0.05,3.73c0.49,0.88,0.86,1.84,1.31,2.75C140.67,102.28,140.91,102.55,141.1,102.83z M143.81,70.04
			c-0.01-0.88,0.21-1.82,0.56-2.63c0.52-1.21,1.21-2.34,1.89-3.47c0.44-0.74,0.94-0.88,1.51-0.56c0.56,0.32,0.69,0.82,0.3,1.58
			c-0.46,0.9-0.99,1.77-1.48,2.66c-0.53,0.96-0.51,1.7,0.06,2.04c0.69,0.42,1.37,0.14,1.94-0.89c0.73-1.34,1.43-2.69,2.06-4.08
			c0.29-0.63,0.67-0.9,1.29-0.72c0.72,0.21,0.7,0.83,0.51,1.38c-0.25,0.72-0.65,1.38-0.91,2.09c-0.29,0.8-0.54,1.63-0.7,2.47
			c-0.12,0.68,0.2,1.17,1.09,1.29c0.29-1.03,0.55-2.05,0.86-3.06c0.15-0.48,0.33-0.96,0.57-1.4c0.26-0.47,0.71-0.78,1.27-0.58
			c0.58,0.21,0.67,0.77,0.58,1.27c-0.13,0.7-0.34,1.38-0.59,2.05c-0.3,0.81-0.63,1.61-1.03,2.37c-0.3,0.58-0.68,1.14-1.11,1.62
			c-0.83,0.91-2.08,0.9-2.96,0.03c-0.21-0.21-0.37-0.48-0.57-0.72c-0.47-0.56-1.03-0.82-1.75-0.47c-0.05,0.02-0.1,0.04-0.14,0.06
			C144.72,73.43,143.83,72.16,143.81,70.04z"/>
		<path class="st0" d="M206.48,184.26c-1.98,0.43-3.38,1.46-4.8,2.41c-3.33,2.23-6.13,5.01-8.25,8.43c-1.34,2.17-2.44,4.45-2.84,7
			c-0.86,5.46,1.69,9.8,6.53,12.25c2.9,1.47,6.07,1.92,9.32,1.83c3.84-0.1,7.55-1.02,11.24-1.91c4.83-1.17,9.6-2.6,14.38-3.94
			c0.77-0.21,1.51-0.54,2.37-0.85c-0.15-0.35-0.17-0.53-0.27-0.63c-2.58-2.66-5.12-5.36-7.77-7.95c-2.49-2.45-4.67-5-4.35-8.83
			c0.03-0.4-0.18-0.81-0.34-1.5c-1.58,1.68-3.18,2.77-4.99,3.62c-2.23,1.04-4.49,1.16-6.84,0.84c-0.29-0.04-0.58-0.18-0.84-0.33
			c-3.17-1.78-4.39-5.19-3.12-8.63C206.12,185.54,206.26,184.97,206.48,184.26z M213.11,208.5c0.24,0.07,0.56,0.35,0.58,0.56
			c0.03,0.22-0.25,0.48-0.42,0.71c-0.05,0.07-0.18,0.1-0.28,0.12c-3.78,0.67-7.48,0.68-10.82-1.6c-0.79-0.54-1.41-1.31-1.09-2.32
			c0.38-1.18,0.75-2.44,2.17-2.84c0.22-0.06,0.47,0.01,0.61,0.2c0.02,0.03,0.04,0.06,0.04,0.09c0.25,2.2,1.84,3.01,3.67,3.54
			C209.42,207.49,211.28,207.96,213.11,208.5z M206.6,196.44c1.37-0.21,2.59,0.33,3.69,1.11c1.08,0.77,1.14,2.93-0.34,3.55
			c-1.39,0.59-2.72,1.34-4.08,2.02c-0.14,0.07-0.29,0.2-0.41,0.17c-0.07-0.02-0.14-0.04-0.2-0.06c-0.42-0.15-0.61-0.67-0.32-1.02
			c0.03-0.04,0.07-0.07,0.1-0.1c0.32-0.22,0.75-0.28,1.15-0.38c0.68-0.17,1.19-0.53,1.45-1.43c-0.84-0.48-1.64-0.9-2.4-1.38
			c-0.81-0.51-0.91-1.06-0.21-1.7C205.45,196.84,206.04,196.53,206.6,196.44z"/>
		<path class="st0" d="M242.44,202.95c0.39,0.71,0.68,1.48,1.09,2.18c0.12,0.2,0.53,0.38,0.74,0.32c0.21-0.06,0.4-0.4,0.49-0.65
			c0.06-0.16-0.06-0.39-0.1-0.59c-0.63-3.14-1.26-6.27-1.87-9.41c-0.2-1.03-0.81-1.73-1.65-2.27c-0.51-0.33-1.08-0.58-1.57-0.93
			c-0.28-0.2-0.46-0.55-0.8-0.98c0.68-0.21,1.11-0.34,1.53-0.48c1.35-0.43,1.45-0.59,1.27-1.95c-0.4-3.02-0.82-6.05-1.2-9.07
			c-0.11-0.84-0.54-1.29-1.35-1.4c-0.45-0.06-0.91-0.07-1.37-0.07c-2.7-0.01-5.4,0.02-8.1-0.02c-2.49-0.04-4.98-0.15-7.48-0.25
			c-0.49-0.02-1.09,0.02-1.21-0.66c-0.12-0.64,0.43-0.83,0.82-1.16c1.53-1.3,3.32-1.27,5.2-1.21c3.91,0.13,7.83,0.12,11.75,0.18
			c0.77,0.01,1.09-0.35,1.08-1.12c-0.02-1.43,0.02-2.85,0-4.28c-0.02-1.2-0.34-1.51-1.55-1.58c-0.35-0.02-0.71,0-1.07,0.02
			c-4.78,0.17-9.56,0.36-14.34,0.52c-3.41,0.11-3.39,0.11-4.68,3.36c-0.45,1.13-1.02,2.22-1.54,3.32c-0.23,0.49-0.63,0.96-1.16,0.76
			c-0.4-0.15-0.75-0.62-0.96-1.03c-0.2-0.39-0.19-0.89-0.25-1.34c-0.09-0.66-0.13-1.32-0.24-1.97c-0.28-1.52-0.67-1.89-2.16-1.63
			c-1.94,0.34-3.93,0.65-5.77,1.31c-3.15,1.12-6.2,2.51-9.29,3.79c-0.6,0.25-1.18,0.54-1.95,0.9c0.97,1.25,1.81,2.34,3.1,2.75
			c1.54,0.5,3.13,0.83,4.73,1.12c1.7,0.3,3.34-0.18,4.93-0.71c2.12-0.71,4.2-1.54,6.29-2.31c0.33-0.12,0.68-0.3,1.01-0.28
			c0.36,0.02,0.89,0.14,1.03,0.39c0.12,0.22-0.12,0.75-0.34,1.02c-0.32,0.38-0.77,0.66-1.18,0.96c-1.16,0.85-1.68,1.99-1.6,3.43
			c0.23,3.91,4.25,6.38,8.02,4.97c1.74-0.65,3.21-1.72,4.67-2.82c0.73-0.55,1.48-1.11,2.3-1.48c0.44-0.19,1.11-0.11,1.56,0.1
			c0.19,0.09,0.24,0.86,0.11,1.23c-0.86,2.48,0.03,4.57,1.35,6.59c1.39,2.13,3.5,3.51,5.4,5.09
			C238.67,197.67,240.85,200.06,242.44,202.95z"/>
		<path class="st0" d="M206.56,278.3c5.05,0.95,10.19,1.19,15.33,1.22c1.86,0.01,2.57-0.97,2.31-2.84
			c-0.43-3.12-1.12-6.18-1.82-9.25c-1.66-7.28-7.27-10.15-13.73-9.14c-2.94,0.46-5.86,1.21-8.7,2.13c-3.37,1.09-6.65,2.49-9.95,3.79
			c-0.88,0.35-1.7,0.87-2.7,1.39c0.35,0.58,0.59,1.15,0.98,1.58c1.28,1.43,2.54,2.88,3.94,4.2
			C196.26,275.2,201.19,277.29,206.56,278.3z"/>
		<path class="st0" d="M163.17,119.19c1.75-3.83,3.54-7.65,5.31-11.48c2.44-5.31,4.88-10.62,7.31-15.93
			c0.63-1.37,1.22-2.76,1.92-4.34c-4.95-0.62-9.65-1.66-13.94-4.4c-0.07,0.62-0.13,0.96-0.15,1.31c-0.19,3.86-0.36,7.73-0.58,11.59
			c-0.05,0.9-0.27,1.81-0.5,2.68c-0.07,0.27-0.44,0.62-0.69,0.63c-0.24,0.01-0.57-0.33-0.72-0.59c-0.36-0.64-0.64-1.33-0.95-2
			c-0.1,0.01-0.2,0.03-0.29,0.04c-0.14,0.46-0.28,0.92-0.42,1.38c-1.34,4.43-2.4,8.91-3.05,13.5c-0.4,2.82-1.12,5.59-2.63,8.07
			c-0.37,0.61-0.75,1.21-1.1,1.83c-0.89,1.6-0.78,3.22-0.05,4.84c0.77,1.71,1.57,3.41,2.29,5.15c0.66,1.58,1.31,1.73,2.41,0.44
			c0.23-0.27,0.44-0.57,0.59-0.89c0.57-1.25,1.1-2.51,1.66-3.76C160.77,124.57,161.95,121.87,163.17,119.19z"/>
		<path class="st0" d="M222.1,160.69c5.57-0.45,11.13-1.19,16.73-1.12c0.25,0,0.49-0.07,0.71-0.11c1.19-2.69,0.67-4.81-1.72-6.36
			c-5.2-3.36-10.37-6.77-15.69-9.93c-2.78-1.65-5.83-2.86-8.79-4.19c-1.3-0.58-2.73-0.66-4.26-0.65c0.1,0.43,0.12,0.79,0.26,1.1
			c1.02,2.27,2.06,4.52,3.11,6.78c1.85,4.01,3.74,8.01,5.56,12.04C219.21,160.9,219.25,160.92,222.1,160.69z"/>
		<path class="st0" d="M191.96,53.79c-1.78-0.41-3.56-0.82-5.34-1.19c-1.74-0.35-3.48-0.76-5.25-0.94
			c-2.36-0.24-3.26,0.45-4.22,2.63c-0.87,2-1.07,4.13-1.31,6.24c-0.62,5.33,0.47,10.3,3.17,14.93c0.68,1.17,1.68,1.87,3.22,2.19
			c3.63-7.73,7.14-15.54,10.79-23.49C192.52,53.99,192.25,53.86,191.96,53.79z"/>
		<path class="st0" d="M250.89,247.11c-0.18-2.32-0.47-4.63-0.76-7.33c-0.56,0.57-0.82,0.86-1.11,1.12
			c-1.86,1.66-2.62,1.58-4.14-0.43c-0.09-0.12-0.17-0.26-0.27-0.37c-0.81-0.95-1.63-1.9-2.32-2.7c-1.77,1.22-3.38,2.35-5.01,3.43
			c-0.6,0.4-0.89,0.87-0.56,1.53c0.87,1.71,1.66,3.49,2.72,5.08c2.05,3.08,5.09,4.71,8.68,5.35c1.08,0.19,2.18,0.26,3.26,0.38
			c0.22-1.46,0.22-1.79-0.62-2.49c-0.76-0.63-0.7-1.24-0.37-2.01C250.61,248.16,250.93,247.61,250.89,247.11z"/>
		<path class="st0" d="M247.07,219.65c-0.46,0.44-0.8,0.74-1.11,1.06c-3.74,3.96-7.44,7.95-9.09,13.34
			c-0.44,1.44-0.89,2.86-0.67,4.41c1.19,0.22,2.08-0.18,2.9-0.85c1.02-0.84,2.01-1.71,3.05-2.52c1.74-1.35,3.59-2.48,5.83-2.8
			c0.34-0.05,0.67-0.16,1.18-0.28c-0.36-2.16-0.69-4.16-1.01-6.16C247.82,223.82,247.86,221.73,247.07,219.65z"/>
		<path class="st0" d="M222.16,73.1c1.93,0.54,3.46-0.16,4.55-1.65c1.19-1.63,2.13-3.43,3.31-5.35c-0.61-0.14-0.94-0.27-1.28-0.3
			c-3-0.22-6-0.15-8.96,0.31c-1.8,0.28-3.59,0.69-5.2,1.61c-1.19,0.68-1.35,1.66-0.33,2.56c0.63,0.55,1.41,1.02,2.21,1.27
			C218.32,72.15,220.26,72.56,222.16,73.1z"/>
		<path class="st0" d="M183.55,132.09c1.48,0.33,2.98,0.55,4.48,0.77c0.47,0.07,0.97,0.01,1.68,0.01c-0.15-0.61-0.14-0.95-0.3-1.17
			c-1.42-2.02-2.84-4.05-4.34-6c-0.29-0.38-0.95-0.56-1.47-0.64c-1.05-0.16-1.51,0.17-1.46,1.19c0.08,1.66,0.29,3.33,0.54,4.97
			C182.74,131.55,183.21,132.01,183.55,132.09z"/>
		<path class="st0" d="M167.59,273.47c-0.08-0.89-0.9-1.77-1.69-1.59c-1.17,0.27-2.29,0.73-3.42,1.15c-0.18,0.07-0.25,0.39-0.5,0.81
			c1.48,0.68,2.85,0.94,4.25,0.89C167.23,274.69,167.65,274.2,167.59,273.47z"/>
		<path class="st0" d="M237.39,26.36c1.2-0.76,2.41-2.75,2.69-4.28c-0.85,0-1.7,0-2.86,0C237.31,23.58,237.06,24.94,237.39,26.36z"
			/>
		<path class="st0" d="M267.34,83.58c1.49-0.29,2.91-2.37,3.36-4.97c-1.35,1.42-2.63,2.66-3.45,4.28
			C267.16,83.06,267.3,83.34,267.34,83.58z"/>
		<path class="st0" d="M229.23,43.15c-0.63-0.15-1.58,0.21-1.86,0.73c-0.38,0.69,0.03,1.18,0.5,1.59c0.49,0.42,1.05,0.77,1.72,1.25
			c0.32-0.54,0.55-0.87,0.73-1.23C230.95,44.27,230.57,43.46,229.23,43.15z"/>
		<path class="st0" d="M231.98,47.19c-0.9,1.46-0.76,1.9,0.64,2.34C233.06,48.23,233.03,48.09,231.98,47.19z"/>
		<path class="st0" d="M242.33,110.39c-0.23-0.38-0.68-0.61-1.04-0.91c-1.83,2.31-1.69,3.01,0.94,5.02c0.89-0.48,1.29-1.14,1-2.04
			C243.01,111.74,242.72,111.03,242.33,110.39z"/>
		<path class="st0" d="M244.71,73.11c0.34,0.86,1.63,1.48,2.72,1.18c-0.44-1.22-0.88-2.42-1.32-3.63
			C244.82,71.24,244.34,72.18,244.71,73.11z"/>
	</g>
	<g>
		<path class="st1" d="M274.71,365.2c0.03-1.75-0.72-3.18-1.8-4.37c-2.65-2.93-7.29-2.64-9.48-0.35c-0.3,0.31-0.62,0.59-1.04,0.98
			c-0.4-0.46-0.72-0.9-1.12-1.25c-0.44-0.38-0.91-0.81-1.44-0.99c-5.21-1.86-9.46,1.74-9.39,6.18c0.06,3.81,0.03,7.63,0,11.45
			c-0.01,0.86,0.2,1.53,1,1.94c0.2,0,0.39,0,0.59,0c0.74-0.67,0.92-1.49,0.91-2.48c-0.05-3.47-0.06-6.95,0.01-10.42
			c0.02-0.9,0.15-1.91,0.59-2.66c0.87-1.5,2.34-2.26,4.09-2c1.78,0.26,3.03,1.31,3.51,3.11c0.17,0.65,0.23,1.35,0.24,2.03
			c0.03,2.01-0.01,4.01,0.03,6.02c0.02,0.85,0.4,1.22,1.13,1.23c0.72,0.02,1.13-0.35,1.22-1.17c0.04-0.39,0.02-0.78,0.02-1.17
			c0-1.96-0.04-3.92,0.02-5.87c0.06-1.97,1.24-3.46,3.06-4.03c1.72-0.54,3.41,0.09,4.65,1.65c0.74,0.93,0.71,2.01,0.72,3.07
			c0.04,3.47,0.04,6.95,0,10.43c-0.01,0.94,0.15,1.73,0.97,2.28c0.2,0,0.39,0,0.59,0c0.69-0.48,0.95-1.11,0.94-1.98
			C274.66,372.93,274.65,369.07,274.71,365.2z"/>
		<path class="st1" d="M208.48,369.07c0.02-3.24-1.26-5.89-3.68-7.99c-2.9-2.52-6.27-2.94-9.75-1.66c-4.05,1.48-6.57,5.51-6.48,9.57
			c0.1,4.59,3.65,8.87,8.54,9.51c2.73,0.36,5.11-0.44,7.23-2.15c0.46-0.37,0.94-0.73,1.49-1.16c0.29,1.35-0.31,2.72,0.93,3.59
			c0.29,0,0.59,0,0.88,0c0.63-0.6,0.88-1.31,0.86-2.22C208.43,374.06,208.46,371.57,208.48,369.07z M198.45,376.2
			c-3.15,0.03-7.37-2.75-7.33-7.46c0.04-4.34,3.23-7.48,7.4-7.48c4.36,0,7.44,3.41,7.42,7.3
			C206.1,372.73,202.37,376.17,198.45,376.2z"/>
		<path class="st1" d="M116.61,374.16c-1.38,1.14-2.91,1.95-4.76,2.03c-3.87,0.16-7.61-3.04-7.72-7.22
			c-0.06-2.35-0.02-4.7-0.01-7.05c0-0.27,0.11-0.54,0.17-0.82c0.42-0.02,0.76-0.05,1.1-0.05c2.35,0,4.7,0,7.04-0.01
			c0.43,0,0.89-0.01,1.3-0.14c0.53-0.17,0.97-0.51,0.94-1.16c-0.03-0.64-0.49-0.95-1.01-1.12c-0.36-0.12-0.77-0.08-1.16-0.08
			c-2.35-0.01-4.7,0-7.04-0.01c-0.42,0-0.84-0.06-1.35-0.1c0-1.64,0.02-3.15-0.01-4.66c-0.02-1-0.47-1.58-1.15-1.61
			c-0.72-0.04-1.25,0.6-1.34,1.62c-0.01,0.1,0,0.2,0,0.29c0,4.85-0.07,9.7,0.02,14.54c0.1,5.06,3.26,8.54,7.5,9.71
			c0.51,0.14,1.01,0.29,1.52,0.44c0.59,0,1.18,0,1.76,0c0.31-0.1,0.62-0.23,0.94-0.3c1.84-0.43,3.53-1.15,4.91-2.48
			c0.73-0.7,0.79-1.46,0.22-2.05C117.96,373.39,117.43,373.48,116.61,374.16z"/>
		<path class="st1" d="M350.54,373.97c-0.48-0.56-1.13-0.48-1.94,0.13c-0.74,0.55-1.49,1.11-2.32,1.5c-4.18,1.98-8.99-1.17-9.73-4.6
			c-0.22-1-0.4-2.02-0.42-3.03c-0.06-2.24-0.02-4.48-0.02-6.83c0.63-0.03,1.1-0.08,1.58-0.08c2.25-0.01,4.5,0.01,6.76-0.02
			c0.53-0.01,1.09-0.07,1.56-0.28c0.28-0.12,0.58-0.59,0.57-0.89c-0.02-0.37-0.26-0.87-0.56-1.05c-0.39-0.23-0.93-0.26-1.41-0.27
			c-2.3-0.02-4.6-0.01-6.9-0.01c-0.48,0-0.95-0.04-1.51-0.07c-0.03-0.58-0.07-1.06-0.07-1.54c-0.01-1.08,0.02-2.16-0.01-3.23
			c-0.03-0.97-0.5-1.52-1.23-1.53c-0.76-0.01-1.16,0.46-1.16,1.53c-0.01,5.34,0.01,10.68,0.02,16.02c0,2.02,0.94,3.67,2.13,5.18
			c1.61,2.04,3.74,3.24,6.32,3.64c0.13,0.02,0.24,0.15,0.36,0.23c0.59,0,1.18,0,1.76,0c0.32-0.1,0.63-0.22,0.96-0.29
			c1.85-0.41,3.53-1.15,4.95-2.42C350.84,375.49,351,374.51,350.54,373.97z"/>
		<path class="st1" d="M181.38,374.17c-1.33,1.14-2.83,1.91-4.62,2.01c-3.89,0.21-7.78-2.88-7.87-7.55c-0.05-2.16-0.01-4.31,0-6.47
			c0-0.33,0.08-0.66,0.14-1.11c0.54,0,1.03,0,1.51,0c2.25,0,4.51,0.01,6.76,0c1.46-0.01,2.13-0.39,2.16-1.21
			c0.03-0.89-0.64-1.28-2.22-1.29c-2.25-0.01-4.51,0-6.76-0.01c-0.48,0-0.95-0.04-1.59-0.07c0-1.21,0-2.33,0-3.44
			c0-0.59,0.04-1.18-0.04-1.76c-0.08-0.65-0.48-1.09-1.17-1.09c-0.63,0-0.98,0.43-1.12,0.99c-0.09,0.37-0.07,0.78-0.08,1.17
			c-0.01,1.72,0,3.43,0,5.15c0,3.14-0.08,6.28,0.03,9.41c0.15,4.34,2.3,7.38,6.33,9.03c0.89,0.37,1.85,0.57,2.78,0.85
			c0.49,0,0.98,0,1.47,0c0.32-0.1,0.64-0.22,0.96-0.29c1.9-0.4,3.62-1.17,5.05-2.52c0.75-0.7,0.8-1.46,0.19-2.05
			C182.73,373.39,182.18,373.48,181.38,374.17z"/>
		<path class="st1" d="M319.18,358.87c-3.09-0.54-5.95,0.03-8.36,2.13c-2.39,2.07-3.5,4.75-3.48,7.91c0.01,2.5,0.04,4.99-0.02,7.49
			c-0.02,0.94,0.22,1.71,0.84,2.38c0.29,0,0.59,0,0.88,0c0.61-0.74,0.83-1.58,0.81-2.56c-0.05-2.74-0.12-5.48,0.03-8.21
			c0.29-5.24,5.66-7.92,9.68-6.51c3.29,1.15,5.08,4.1,5.1,7.13c0.02,2.59,0.04,5.18-0.01,7.78c-0.02,0.94,0.2,1.71,0.85,2.37
			c0.2,0,0.39,0,0.59,0c0.63-0.44,1.03-0.99,1.02-1.82c-0.04-3.03,0.03-6.07-0.08-9.1C326.87,363.49,323.58,359.65,319.18,358.87z"
			/>
		<path class="st1" d="M94.58,365.24c-0.91-2.35-2.39-4.23-4.68-5.42c-2.79-1.45-5.72-1.6-8.5-0.38c-3.9,1.72-6,4.89-6.04,9.25
			c-0.03,2.64,0.03,5.29-0.03,7.93c-0.02,0.92,0.24,1.61,0.94,2.15c0.2,0,0.39,0,0.59,0c0.74-0.45,0.97-1.1,0.95-1.97
			c-0.05-2.64,0.04-5.28-0.03-7.92c-0.09-3.39,2.2-6.69,5.86-7.6c2.41-0.6,5.83,0.54,7.45,2.66c1.17,1.54,1.55,3.24,1.57,5.07
			c0.03,2.54,0.05,5.09-0.01,7.63c-0.02,0.92,0.23,1.61,0.96,2.13c0.2,0,0.39,0,0.59,0c0.55-0.44,0.92-0.91,0.9-1.71
			c-0.06-3.18-0.01-6.37-0.07-9.55C95.01,366.75,94.85,365.95,94.58,365.24z"/>
		<path class="st1" d="M243.76,368.36c-0.05-4.58-3.35-8.64-7.84-9.47c-3.09-0.57-5.98-0.01-8.38,2.06
			c-2.28,1.96-3.51,4.51-3.48,7.6c0.02,2.69,0.04,5.38-0.02,8.07c-0.02,0.91,0.18,1.63,0.94,2.16c0.2,0,0.39,0,0.59,0
			c0.7-0.56,0.93-1.28,0.91-2.19c-0.05-2.74-0.07-5.48,0-8.22c0.08-3.03,2.04-5.72,4.93-6.81c2.69-1.01,6.19-0.04,7.94,1.93
			c1.39,1.57,2.01,3.44,2.03,5.52c0.02,2.59,0.03,5.19-0.01,7.78c-0.01,0.86,0.22,1.53,0.95,1.99c0.2,0,0.39,0,0.59,0
			c0.69-0.64,0.9-1.41,0.88-2.35C243.74,373.74,243.79,371.04,243.76,368.36z"/>
		<path class="st1" d="M159.5,358.72c-0.19-0.01-0.39,0.01-0.59,0.01c-5.12,0.12-9.15,5.05-9.13,9.36c0.02,2.89,0.03,5.77-0.02,8.66
			c-0.02,0.86,0.23,1.5,0.87,2.03c0.2,0,0.39,0,0.59,0c0.87-0.55,1.14-1.33,1.12-2.35c-0.06-2.64,0.02-5.28-0.03-7.92
			c-0.05-3.08,1.85-5.88,4.75-6.85c0.82-0.28,1.7-0.38,2.56-0.56c0.88-0.18,1.34-0.67,1.27-1.34
			C160.82,359.15,160.34,358.78,159.5,358.72z"/>
		<path class="st1" d="M217.41,360.64c0-0.29-0.01-0.59-0.03-0.88c-0.03-0.65-0.37-1-1.01-1.02c-0.65-0.02-1.16,0.25-1.31,0.92
			c-0.08,0.38-0.05,0.78-0.05,1.17c0,5.2,0.02,10.39-0.02,15.59c-0.01,0.95,0.23,1.7,0.88,2.35c0.2,0,0.39,0,0.59,0
			c0.93-0.42,0.96-1.24,0.96-2.11C217.4,371.33,217.41,365.99,217.41,360.64z"/>
		<path class="st1" d="M330.97,326.12c-0.65-0.33-1.32-0.66-2.02-0.86c-1.36-0.39-2.75-0.68-4.12-1.04
			c-4.32-1.13-8.69-1.93-13.16-2.03c-0.62-0.01-1.24-0.1-1.99-0.16c0-0.86,0.09-1.6-0.02-2.31c-0.29-1.98,0.21-3.47,2.09-4.47
			c0.64-0.34,1.14-0.61,1.87-0.47c2.25,0.44,4.52,0.86,6.78,1.25c0.65,0.11,1.31,0.09,1.92,0.13c0.34-0.98-0.07-1.49-0.71-1.7
			c-1.43-0.47-2.88-0.88-4.35-1.23c-0.88-0.21-1.8-0.28-2.9-0.44c0.42-0.68,0.75-1.22,1.08-1.74c2.53-3.95,2.78-8.17,1.41-12.55
			c-0.64-2.04-1.45-2.25-3.18-0.95c-0.08,0.06-0.14,0.14-0.21,0.2c-2.06,1.87-3.38,4.24-4.02,6.87c-0.51,2.12-0.52,4.36-0.74,6.55
			c-0.04,0.38-0.05,0.75-0.08,1.2c-1.16,0.07-2.23,0.11-3.3,0.2c-2.68,0.22-5.36,0.49-7.95,1.26c-4.06,1.21-7.71,3.06-10.21,6.68
			c-1.69,2.44-2.6,5.15-2.72,8.09c-0.03,0.9,0.31,1.82,0.56,2.71c0.17,0.59,0.75,0.86,1.28,0.73c0.33-0.08,0.71-0.54,0.8-0.89
			c0.25-0.99,0.39-2.02,0.53-3.03c0.69-5.02,3.16-8.72,7.81-10.93c1.88-0.9,3.85-1.43,5.85-1.89c1.09-0.25,2.21-0.36,3.31-0.54
			c-0.92,1.05-1.89,1.85-2.85,2.66c-2.95,2.51-4.7,5.59-4.51,9.57c0.03,0.62-0.11,1.12-0.49,1.63c-0.64,0.86-1.24,1.76-1.76,2.7
			c-1.47,2.65-2.82,5.36-4.34,7.98c-1.53,2.64-3.73,4.51-6.76,5.23c-3.29,0.78-6.3-0.11-9.14-1.72c-2.53-1.44-4.67-3.37-6.63-5.49
			c-1.72-1.86-3.27-3.87-4.5-6c1.11-1.72,2.15-3.37,3.24-4.99c3.28-4.89,2.17-10.68-1.13-14.57c-2.73-3.22-6.3-4.7-10.55-4.39
			c-4.76,0.35-8.19,2.79-10.32,6.94c-1.79,3.49-1.93,7.12-0.21,10.76c1.56,3.31,3.99,5.62,7.44,6.85c2.17,0.77,4.39,0.92,6.66,0.49
			c0.76-0.14,1.54-0.19,2.33-0.29c0.93,1.24,1.78,2.5,2.75,3.66c2.47,2.97,5.08,5.8,8.19,8.14c3.3,2.47,6.8,4.16,11.1,3.74
			c3.83-0.37,6.88-2.01,9.23-5.02c1.79-2.29,2.97-4.91,4.12-7.56c0.5-1.14,1.12-2.23,1.81-3.6c1.1,2.09,2.48,3.6,4.32,4.59
			c1.87,1.01,3.91,1.47,6.13,1.28c0,2.48,0.27,4.81-0.06,7.05c-0.64,4.35-5.31,4.93-7.52,3.3c-0.26-0.19-0.42-0.52-0.74-0.93
			c0.71-0.08,1.18-0.04,1.56-0.21c0.65-0.29,1.39-0.58,1.82-1.1c0.97-1.15,0.77-2.74-0.31-3.86c-0.97-1.01-2.52-1.15-3.77-0.34
			c-1.92,1.24-2.42,3.61-1.13,5.52c0.88,1.31,2.08,2.18,3.67,2.46c3.69,0.64,7.1-0.68,7.5-5.24c0.08-0.92,0.08-1.86,0.09-2.79
			c0.01-1.36,0-2.73,0-4.03c5.69-1.79,8.45-6.06,5.7-12.32c0.74,0.05,1.43,0.02,2.09,0.15c3.16,0.64,6.31,1.33,9.46,2
			c1.1,0.23,2.2,0.47,3.3,0.72c0.51,0.12,1.04,0.15,1.25-0.42C331.81,326.76,331.43,326.35,330.97,326.12z M312.51,302.79
			c0.51-0.6,1.29-1.07,2.03-1.32c1.25-0.42,2.06,0.29,2.12,1.6c0.07,1.45-0.6,2.63-1.36,3.78c-1.36,2.08-3.23,3.56-5.59,4.94
			C309.56,308.21,310.39,305.27,312.51,302.79z M256.03,330.25c-1.23-0.06-2.32-1.22-2.28-2.43c0.04-1.27,1.14-2.3,2.41-2.26
			c1.27,0.04,2.32,1.15,2.28,2.4C258.4,329.17,257.2,330.31,256.03,330.25z M260.92,328.86c-0.65-4.13-1.99-5.69-4.88-5.68
			c-2.8,0.01-4.14,1.6-4.79,5.66c-3.25-1.3-6.23-5.49-5.12-11.13c0.82-4.18,4.44-7.91,9.74-8c5.31-0.09,9.23,3.34,10.17,7.85
			C267.15,322.82,264.85,327.02,260.92,328.86z M308.7,336.19c-1.29,0.37-2.57,0.11-3.75-0.24c-2.28-0.68-4.09-2.05-5.27-4.18
			c-0.76-1.36-0.67-1.81,0.35-2.99c0.84-0.97,1.78-1.78,3.19-2.45c-0.5,2.15-0.29,4.03,0.97,5.64c0.52,0.67,1.07,1.39,2.35,1.5
			c-1.12-1.27-2.36-2.29-2.05-3.97c0.18-0.97,0.57-1.83,1.36-2.53c0.81-0.72,1.67-1.13,2.84-1.15
			C308.7,329.29,308.7,332.69,308.7,336.19z M308.73,322.15c-3.02,0.69-6.09,1.2-8.74,3.18c0.3-2.59,5.49-6.51,8.74-7.81
			C308.73,319.11,308.73,320.57,308.73,322.15z M309.86,336.07c0-3.37,0-6.71,0-10.15c2.61,0.38,4.14,2.09,4.23,4.65
			C314.19,333.22,312.49,335.5,309.86,336.07z"/>
		<path class="st1" d="M230.17,332.29c0.58,0.5,1.16,0.48,1.56,0.06c0.45-0.48,0.48-1.17,0.02-1.73c-0.18-0.23-0.43-0.4-0.63-0.61
			c-1.31-1.37-2.62-2.74-3.98-4.16c0.31-0.08,0.67-0.19,1.04-0.26c1.6-0.33,3.08-0.93,4.33-2.01c2.61-2.25,3.83-5.11,3.27-8.51
			c-0.59-3.55-2.68-6.23-6.08-7.31c-6.71-2.14-12.15,2.65-12.28,8.56c-0.11,4.8-0.02,9.61-0.02,14.41c0,0.25-0.01,0.49,0.01,0.73
			c0.06,0.67,0.42,1.09,1.1,1.17c0.69,0.07,1.13-0.32,1.31-0.94c0.11-0.36,0.09-0.77,0.09-1.16c0.01-2.21,0-4.41,0.01-6.62
			c0-0.36,0.08-0.71,0.14-1.24c2.54,2.45,4.92,4.75,7.31,7.05C228.29,330.58,229.21,331.46,230.17,332.29z M226.63,323.24
			c-3.11,0.35-6.84-2.96-6.78-6.79c0.06-3.58,3.05-6.88,6.8-6.82c3.73,0.06,6.74,2.92,6.79,6.85
			C233.5,320.53,229.8,323.5,226.63,323.24z"/>
		<path class="st1" d="M142.43,363.97c-1.3-2.36-3.26-4.11-5.86-4.81c-3.9-1.05-7.33-0.05-10.16,2.91
			c-2.8,2.93-3.27,7.81-1.55,11.08c1.4,2.66,3.52,4.46,6.44,5.11c3.36,0.75,6.53,0.34,9.15-2.17c0.57-0.54,0.71-1.49,0.33-1.99
			c-0.41-0.54-1.19-0.51-1.96,0.04c-0.63,0.45-1.27,0.91-1.96,1.27c-4.21,2.22-9.57-0.55-10.31-5.53c0.64,0,1.17,0,1.7,0
			c4.31,0,8.62,0,12.93,0c0.34,0,0.69,0.02,1.03-0.01c1.13-0.1,1.51-0.59,1.47-1.73C143.62,366.65,143.14,365.25,142.43,363.97z
			 M126.71,367.32c-0.1-3.04,3.35-6.11,7.05-6.08c3.52,0.03,6.87,2.59,7.12,6.08C136.15,367.32,131.43,367.32,126.71,367.32z"/>
		<path class="st1" d="M66.01,361.52c-2.95-2.8-6.43-3.47-10.19-2.12c-3.01,1.08-5.01,3.28-6.07,6.36
			c-1.38,4.01-0.14,7.4,2.66,10.18c2.53,2.51,5.82,3.1,9.28,2.41c1.59-0.32,3.07-0.99,4.22-2.22c0.62-0.67,0.76-1.56,0.25-2.11
			c-0.43-0.46-1.11-0.42-1.84,0.12c-0.08,0.06-0.14,0.13-0.22,0.19c-2.9,2.26-5.7,2.49-8.84,0.63c-1.85-1.1-2.95-2.75-3.41-5.07
			c0.71,0,1.24,0,1.77,0c4.5,0,9.01,0.01,13.51,0c1.78,0,2.2-0.43,1.99-2.21C68.84,365.27,67.78,363.2,66.01,361.52z M52.02,367.31
			c0.72-3.91,3.9-6.09,7.33-6.05c3.59,0.04,6.73,2.75,7.06,6.05C61.64,367.31,56.88,367.31,52.02,367.31z"/>
		<path class="st1" d="M296.23,360.17c-2.69-1.73-5.58-1.83-8.43-0.77c-3.24,1.21-5.49,3.58-6.2,7.06
			c-0.79,3.88,0.15,7.26,3.29,9.87c2.51,2.09,5.43,2.58,8.54,2.06c1.76-0.29,3.36-1.02,4.57-2.43c0.61-0.71,0.63-1.43,0.09-1.95
			c-0.51-0.49-1.05-0.44-1.8,0.16c-3.04,2.46-6.02,2.72-9.32,0.63c-1.71-1.08-2.7-2.72-3.1-4.91c0.67,0,1.2,0,1.73,0
			c4.4,0,8.8,0,13.21,0c0.39,0,0.79,0.02,1.17-0.04c0.66-0.1,1.07-0.51,1.09-1.18c0.02-0.53-0.05-1.08-0.13-1.6
			C300.45,364.04,298.79,361.82,296.23,360.17z M284.1,367.29c0.19-3.17,3.24-5.9,6.86-6.03c3.51-0.13,6.98,2.38,7.42,6.03
			C293.61,367.29,288.86,367.29,284.1,367.29z"/>
		<path class="st1" d="M84.43,328.25c1.51,0,1.56,0.07,2.11,1.48c0.32,0.82,0.68,1.62,1.09,2.39c0.28,0.54,0.81,0.76,1.37,0.46
			c0.57-0.3,0.85-0.8,0.62-1.47c-0.26-0.74-0.53-1.47-0.83-2.19c-1.21-2.93-2.46-5.85-3.66-8.79c-1.59-3.88-3.15-7.78-4.71-11.67
			c-0.25-0.63-0.58-1.16-1.33-1.18c-0.78-0.02-1.02,0.53-1.28,1.17c-1.54,3.8-3.13,7.58-4.7,11.37c-1.51,3.65-3.04,7.3-4.54,10.95
			c-0.36,0.88-0.13,1.55,0.58,1.83c0.64,0.25,1.17-0.05,1.57-0.9c0.51-1.11,1.01-2.22,1.57-3.46
			C76.41,328.25,80.42,328.25,84.43,328.25z M79.15,311.87c1.92,4.69,3.79,9.25,5.72,13.95c-3.89,0-7.59,0-11.29,0
			C73.61,324.68,77.65,314.54,79.15,311.87z"/>
		<path class="st1" d="M209.24,330.61c-1.21-2.99-2.4-5.98-3.63-8.96c-1.83-4.42-3.7-8.83-5.51-13.25
			c-0.24-0.59-0.47-1.09-1.17-1.12c-0.76-0.03-1.13,0.47-1.37,1.11c-0.07,0.18-0.15,0.36-0.22,0.54c-1.69,4.11-3.36,8.22-5.06,12.33
			c-1.16,2.8-2.35,5.58-3.51,8.37c-0.22,0.54-0.38,1.11-0.55,1.6c-0.05,0.66,0.12,1.15,0.7,1.38c0.6,0.24,1.09,0,1.35-0.54
			c0.45-0.92,0.84-1.86,1.23-2.81c0.26-0.64,0.59-1.03,1.39-1.03c3.96,0.04,7.92,0.03,11.89,0c0.72,0,1.01,0.3,1.24,0.95
			c0.34,0.96,0.8,1.89,1.26,2.81c0.32,0.64,0.9,0.85,1.45,0.6c0.63-0.28,0.85-0.78,0.69-1.44
			C209.38,330.97,209.31,330.79,209.24,330.61z M193,325.81c1.93-4.66,3.79-9.16,5.66-13.68c0.8,0.77,5.62,12.33,5.7,13.68
			C200.66,325.81,196.97,325.81,193,325.81z"/>
		<path class="st1" d="M153.03,327.24c0.98-2.54,0.36-4.83-1.46-6.77c-1.78-1.9-4.05-2.85-6.62-3.11c-1.64-0.16-3.14-0.77-4.56-1.54
			c-1.62-0.88-2.19-2.36-1.34-3.64c0.5-0.74,1.22-1.45,2-1.85c1.6-0.82,3.39-0.98,5.16-0.64c1.44,0.27,2.9,0.68,3.78,2.02
			c0.39,0.59,0.59,1.31,0.84,1.99c0.23,0.63,0.6,1.02,1.31,0.88c0.64-0.13,0.85-0.62,0.86-1.2c0.03-1.16-0.27-2.22-1.04-3.12
			c-1.93-2.25-4.45-3.08-7.54-3.05c-1.88-0.01-3.84,0.45-5.59,1.7c-2.12,1.52-3.29,4.09-2.01,6.51c0.44,0.83,1.18,1.55,1.91,2.16
			c1.63,1.37,3.67,1.76,5.71,2.08c2.49,0.39,4.71,1.28,6.14,3.54c0.88,1.4,0.86,3.08-0.15,4.39c-1.86,2.41-4.37,3.16-7.28,2.76
			c-2.95-0.41-4.74-2.12-5.35-5.02c-0.03-0.14-0.03-0.29-0.07-0.44c-0.15-0.6-0.55-0.91-1.17-0.89c-0.61,0.02-1.1,0.49-1.05,1.18
			c0.06,0.77,0.18,1.57,0.48,2.28c1.47,3.46,4.96,5.5,9.04,5.21C148.71,332.39,151.64,330.88,153.03,327.24z"/>
		<path class="st1" d="M177.69,323.19c0.01,2.45,0,4.9,0.01,7.35c0,0.39-0.03,0.79,0.05,1.17c0.13,0.63,0.69,1.01,1.3,0.94
			c0.64-0.07,0.95-0.45,0.98-1.07c0.02-0.34,0.02-0.69,0.02-1.03c0-7.05,0-14.11,0-21.16c0-0.34,0.01-0.69-0.02-1.03
			c-0.07-0.74-0.43-1.08-1.1-1.08c-0.65,0-1.11,0.37-1.21,1.03c-0.05,0.34-0.03,0.68-0.03,1.03c0,2.94,0,5.88,0,8.82
			c0,0.47-0.05,0.95-0.07,1.45c-4.54,0-8.96,0-13.51,0c0-2.1,0-4.1,0-6.1c0-1.71,0.02-3.43-0.02-5.14c-0.02-0.7-0.45-1.06-1.12-1.08
			c-0.66-0.02-1.12,0.33-1.22,0.99c-0.05,0.34-0.04,0.68-0.04,1.03c0,7.1,0,14.21,0,21.31c0,0.44,0,0.89,0.13,1.31
			c0.15,0.52,0.59,0.76,1.14,0.73c0.55-0.02,0.95-0.3,1.07-0.84c0.08-0.38,0.06-0.78,0.06-1.17c0-2.4,0-4.8,0.01-7.2
			c0-0.42,0.07-0.84,0.11-1.3c4.5,0,8.88,0,13.39,0C177.64,322.61,177.69,322.9,177.69,323.19z"/>
		<path class="st1" d="M105.27,331.63c0.09-0.78-0.32-1.14-1.37-1.33c-0.61-0.11-1.26-0.24-1.79-0.53
			c-1.46-0.81-2.07-2.17-2.08-3.79c-0.02-2.84-0.01-5.68-0.01-8.52c0,0,0,0,0,0c0-2.06,0-4.11,0-6.17c0-0.98,0.02-1.96-0.02-2.94
			c-0.03-0.69-0.45-1.06-1.15-1.08c-0.68-0.02-1.05,0.31-1.14,1.05c-0.05,0.39-0.02,0.78-0.02,1.17c0,4.31,0,8.62,0,12.93
			c0,1.32-0.04,2.65,0.01,3.97c0.14,3.52,2.65,6.15,5.93,6.27C104.71,332.7,105.18,332.41,105.27,331.63z"/>
		<path class="st1" d="M126.41,321.55c0.62-0.19,1.02-0.63,0.95-1.31c-0.07-0.65-0.44-1.08-1.13-1.14
			c-0.34-0.03-0.68-0.02-1.03-0.02c-1.71,0-3.43,0-5.14,0c-1.71,0-3.43,0-5.14,0c-0.29,0-0.59-0.02-0.88,0.02
			c-0.76,0.09-1.24,0.56-1.27,1.18c-0.03,0.61,0.44,1.14,1.17,1.29c0.28,0.06,0.58,0.05,0.88,0.05c3.53,0,7.05,0,10.58,0
			C125.73,321.63,126.09,321.65,126.41,321.55z"/>
		<path class="st1" d="M216.29,352.56c-0.93,0-1.72,0.78-1.69,1.66c0.03,0.81,0.8,1.58,1.62,1.62c0.86,0.04,1.67-0.78,1.66-1.69
			C217.87,353.3,217.13,352.56,216.29,352.56z"/>
	</g>
</g>
</svg>
