<?xml version="1.0" encoding="utf-8"?>
<!-- Generator: Adobe Illustrator 26.0.1, SVG Export Plug-In . SVG Version: 6.00 Build 0)  -->
<svg version="1.1" id="Layer_1" xmlns="http://www.w3.org/2000/svg" xmlns:xlink="http://www.w3.org/1999/xlink" x="0px" y="0px"
	 viewBox="0 0 350 350" style="enable-background:new 0 0 350 350;" xml:space="preserve">
<style type="text/css">
	.st0{fill:#E20613;}
	.st1{fill:#1D1D1B;}
</style>
<g>
	<g>
		<path class="st0" d="M176.84,111.93c0,0-1.74-20.35-3.16-24.19c-0.81-2.51-1.34-4.73-2.14-6.76c-0.89-2.02-1.86-4.09-3.2-5.91
			c-1.37-1.89-2.92-3-4.59-3.38c-0.4-0.1-0.81-0.16-1.23-0.18h-0.12c-0.32,0-0.69,0.04-1.05,0.12c0,0,0,0-0.04,0
			c-0.28,0.08-0.57,0.16-0.85,0.28c-0.2,0.08-0.4,0.16-0.65,0.28c-0.2,0.12-0.4,0.24-0.61,0.36c-0.24,0.16-0.44,0.28-0.65,0.45
			c-0.2,0.16-0.45,0.32-0.65,0.49c-0.08,0.04-0.2,0.12-0.28,0.2c-0.12,0.08-0.24,0.2-0.32,0.32c-0.44,0.36-0.85,0.81-1.25,1.25
			c-1.21,1.29-2.35,2.79-3.36,4.29c-0.61,0.77-1.13,1.58-1.7,2.39c-0.89,1.29-1.54,2.75-2.18,4.21c-0.44,0.93-0.73,1.5-0.73,1.5
			c-3.44-0.77-6.84-1.09-10.11-1.01c-7.28,0.12-14.16,2.23-20.79,6.15c-0.36-0.44-0.69-0.85-1.01-1.21
			c-0.24-0.24-0.45-0.49-0.73-0.69c-3.32-2.71-6.43-5.83-10.15-7.89c-5.22-2.95-9.43-0.77-11.21,4.94
			c-1.62,5.26-1.66,10.64-0.49,15.94c0.69,2.99,1.74,6.07,3.4,8.58c0.08,0.12,0.16,0.24,0.2,0.32c1.05,1.58,1.21,2.71,0.65,4.57
			c-1.34,4.25-1.86,8.33-1.58,12.26c0.61,10.32,6.63,19.1,17.23,24.35c2.06,1.05,6.47,2.87,6.47,2.87l-14.12,32.73
			c6.51,6.51,13.39,12.91,20.51,19.14c-1.78-4.49-2.71-9.26-2.79-14.36c-0.24-11.85,7.4-20.03,19.3-21.52
			c12.22-1.54,20.55,4.33,27.15,13.76c0.53,0.73,1.01,1.5,1.46,2.27c-3.88-9.39-11.37-28.08-12.66-34.83
			c-0.2-1.05-0.2-1.7,0.97-2.31c7.97-4.29,13.92-10.2,17.23-18.12c0.04-0.08,0.04-0.12,0.08-0.2c1.13-3.32,1.74-6.8,1.74-10.44
			C178.82,119.09,178.13,115.41,176.84,111.93z M161.79,125c0.24,7.44-9.39,15.41-16.59,13.47c-2.14-0.57-3.96-2.06-5.91-3.16
			c-3.6,8.54-14.4,7.85-19.66,2.75c-1.46-1.42-2.71-2.99-3.88-4.61c-0.36-0.49-0.16-1.42-0.2-2.18c0.65,0.36,1.46,0.49,1.9,0.97
			c1.25,1.29,2.18,2.83,3.52,4.05c2.79,2.51,6.03,3.64,9.87,2.99c5.02-0.81,8.09-5.62,6.59-10.44c-0.2-0.53-1.09-0.81-1.62-1.21
			c-1.86-1.46-3.96-2.63-5.5-4.33c-1.54-1.7-1.13-3.52,0.48-5.18c2.83-2.95,9.31-4.05,12.91-2.23c2.1,1.09,2.75,2.55,2.1,4.81
			c-0.97,3.28-2.91,5.66-6.23,7.08c0.28,3.24,1.13,6.23,4.21,7.85c3.44,1.82,6.84,0.85,9.87-1.21c2.95-2.02,4.57-5.02,5.7-8.33
			c0.2-0.57,0.28-1.21,0.57-1.7c0.2-0.32,0.81-0.77,0.97-0.65c0.36,0.2,0.61,0.69,0.89,1.05C161.83,124.88,161.79,124.96,161.79,125
			z"/>
		<g>
			<path class="st1" d="M150.02,42.06c-3.44,2.91-5.74,6.59-6.8,11.04c-1.66,6.76,1.98,13.19,8.7,14.93
				c7.48,2.02,13.96-0.36,19.82-4.9c2.18-1.66,4.13-3.6,6.27-5.5c3.6,1.94,7.2,3.84,11.09,5.91c-6.76,7.2-11.53,15.25-15.41,24.19
				c1.42,3.84,3.16,24.19,3.16,24.19c1.29,3.48,1.98,7.16,1.98,11c0,3.64-0.61,7.12-1.74,10.44c0.73-1.78,1.34-3.68,1.78-5.66
				c0.08-0.32,0.28-0.61,0.28-0.61c5.38,2.91,10.68,5.87,16.22,8.9c-7.81,15.41-17.4,44.99-20.59,54.98
				c2.91-3.76,5.58-7.77,8.94-11.17c8.21-8.29,20.31-9.67,30.54-4.09c8.13,4.45,11.73,13.27,10.03,23.38
				c-0.77,4.57-2.18,8.78-4.13,12.62c2.06-1.74,4.13-3.52,6.15-5.34c6.19-5.54,11.98-10.92,17.32-16.22l-15.9-53.65
				c0,0,10.11-4.81,14.4-7.93c10.24-7.32,14.85-17.15,11.93-29.94c-2.91-12.62-8.78-23.71-17.19-33.46
				c-0.48-0.53-0.93-1.09-1.46-1.74c2.14-1.17,4.01-2.23,5.87-3.24c2.1,1.94,4.09,3.96,6.31,5.66c5.87,4.37,12.3,6.68,19.7,4.85
				c4.73-1.17,8.5-5.3,9.02-9.79c0.45-4.17-0.48-8.01-2.87-11.45c-4.81-6.88-11.73-10.6-19.78-12.26
				c-7.89-1.62-14.52,0.44-19.78,6.8c-2.67,3.2-5.58,6.23-8.25,9.43c-0.97,1.21-1.78,1.42-3.16,0.73c-3.92-1.86-8.17-2.83-12.42-2.1
				c-4.01,0.69-7.93,2.18-12.3,3.44c-0.45-0.49-1.25-1.42-2.06-2.35c-3.68-4.25-7.36-8.46-11.04-12.66
				c-4.33-4.9-9.83-7.04-16.18-6.35c-4.61,0.53-8.9,1.82-12.82,4.01c-1.5,0.81-2.95,1.74-4.37,2.91
				C150.82,41.37,150.42,41.7,150.02,42.06z M191.93,106.99c0.69,0.69,1.82,1.25,2.06,2.1c1.42,4.77,4.17,7.97,9.26,8.82
				c2.67,0.49,4.9-0.36,5.95-2.83c0.85-2.18,1.21-4.57,1.62-6.92c0.08-0.45-0.61-1.25-1.09-1.54c-3.4-1.9-5.22-4.9-6.27-8.42
				c-0.81-2.79,0.24-5.18,2.83-6.88c4.13-2.71,10.72-2.18,14.44,1.13c2.23,1.94,2.83,4.25,1.7,7.04c-1.34,3.28-3.56,5.79-6.8,7.4
				c-0.69,0.32-1.13,1.29-1.42,2.06c-0.2,0.53-0.04,1.17-0.04,1.78c0.48,8.9,7.36,8.9,11.85,5.83c2.02-1.33,3.28-3.88,4.73-5.99
				c0.61-0.93,0.85-2.31,2.35-1.74c1.5,0.53,1.25,1.78,0.85,2.99c-2.02,5.99-7.4,9.95-13.47,9.95c-3.72,0.04-6.35-1.7-8.21-4.85
				c-4.37,5.54-10.72,6.11-16.3,1.5c-2.75-2.27-4.53-5.18-5.1-8.7C190.71,108.94,191.56,107.93,191.93,106.99z"/>
			<path class="st0" d="M169.21,247.22l-13.4-9.34c-19.37-14.51-37.77-30.24-54.91-47.5c-13.25-13.31-25.49-27.49-35.95-43.13
				c-8.34-12.43-15.37-25.49-19.52-39.95c-6.76-23.58-4.85-45.92,10.7-65.75c12.7-16.16,29.8-23.92,48.01-24.34
				c19.76,0.15,34.71,6.58,47.29,18.49c0.06,0.06,0.09,0.09,0.15,0.15c0-8.21-4.5-15.78-11.73-19.67
				c-16.61-8.94-34.84-10.69-54.23-5.1c-30.74,8.88-51.62,36.34-52.96,68.26c-0.73,17.04,3.58,32.95,10.61,48.26
				c9,19.55,21.55,36.74,35.71,52.77c18.68,21.14,39.36,40.01,61.43,57.29H95.98c-3.62,0-6.49-0.24-9-1.69
				c0.5-3.72,0-8.31-1.72-13.62c-4.46-13.72-15.91-22.96-28.08-22.96c-14.41,0.66-17.5,11.93-13.48,24.3c1,3.06,2.37,6.2,3.3,9.13
				c3.04,9.34,3.72,16.2-7.57,16.44l-6.83,0.11l1.08,3.38c1.16,3.59,4.01,6.07,10.87,6.07c10.11-0.45,13.19-8.21,12.82-16.65
				c4.62,3.14,9.92,4.96,15.33,4.96c5.52,0,9.55-1.82,11.93-5.2c2.98,2.93,6.54,5.2,12.72,5.2c0.74,0,29.75,0.06,48.49,0.08l0,0
				h0.28c1.94,0,3.8,0,5.47,0c4.35,0.03,7.07,0.03,7.18,0.03c0,0,0.01,0,0.01,0c0.54,0,0.93,0,0.97,0c0.06,0,0.19-0.03,0.27-0.03
				H169.21z M70.59,238.23c-8.21,0-14.78-6.07-17.86-15.52c-2.82-8.68-0.13-13.96,6.6-13.96c8,0,14.12,5.28,17.42,15.41
				C79.4,232.37,77.48,238.23,70.59,238.23z"/>
			<path class="st1" d="M301.67,200.31c-12.17,0-24.62,10.24-27.92,23.54c-1.11,4.38-1.27,9.1,0.03,13.83h-64.22
				c11.41-8.93,22.46-18.36,33.15-28.28c19.25-17.94,37.07-37.16,51.47-59.32c11.22-17.25,19.98-35.56,22.55-56.29
				c1.79-14.88,0.18-29.4-6.4-42.92c-12.19-25.07-32.22-39.47-60.05-42.41c-16.03-1.73-31.01,1.91-44.68,10.34l-0.07,0.05
				c-4.42,2.75-7.11,7.59-7.11,12.8v3.89c2.82-2.36,5.76-4.64,8.76-6.79c31.52-22.49,76.93-10.76,93.91,24.04
				c7.31,14.88,8.79,30.46,5.43,46.62c-4.37,20.79-14.61,38.74-26.92,55.65c-14.67,20.13-32.04,37.83-50.59,54.38
				c-9.86,8.8-20.09,17.14-30.57,25.16l-18.96,12.56h6.01c0.04,0,0.07,0.01,0.11,0.02h11.61c0.01-0.01,0.01-0.01,0.02-0.02h3.3
				h104.89c5.41,0,7.84-1.58,9.08-6.65l0.71-2.82h-30.16c-2.19-5.17-2.45-10-1.45-14.06c2.14-8.55,9.58-14.06,16.44-14.06
				c8.44,0,12.16,7.65,11.8,13.27l3.06-3.27c0.92-1,1.77-2.59,2.27-4.59C318.32,210.34,315.74,200.31,301.67,200.31z"/>
			<path class="st0" d="M312.8,269.75h-2.85v14.44c-0.1,2.32-0.83,3.06-2.99,3.06c-1.13,0-2.26-0.27-3.37-0.81
				c0.07-0.47,0.12-0.97,0.16-1.49l0.03-0.37l-0.04-0.07c-0.03-1.19-0.04-6.36-0.04-9.61c0-2.21-0.48-5.15-4.61-5.15h-2.86v14.42
				c-0.13,2.45-1.07,2.91-2.77,2.91h-3.54V274.9c0-2.4-0.52-5.15-4.6-5.15h-2.86v17.33h-72.85c-3.66,0-4.25-0.74-4.25-5.31
				c0-8.33-4.47-13.71-11.38-13.71c-7.15,0-11.77,5.38-11.77,13.71c0,4.57-0.59,5.31-4.29,5.31c-1.95,0-2.7-0.71-2.77-2.56v-9.62
				c0-2.4-0.52-5.15-4.61-5.15h-2.85v14.44c-0.1,2.32-0.83,3.06-2.99,3.06c-1.13,0-2.26-0.27-3.37-0.81
				c0.07-0.47,0.12-0.97,0.16-1.49l0.03-0.37l-0.04-0.07c-0.03-1.19-0.04-6.36-0.04-9.61c0-2.4-0.52-5.15-4.61-5.15h-2.85v14.42
				c-0.14,2.45-1.08,2.91-2.77,2.91h-3.54V274.9c0-2.4-0.52-5.15-4.6-5.15h-2.86v17.33H66.6c-0.96,0-1.74-0.04-2.35-0.18
				c0.62-1.83,0.94-3.91,0.94-6.1c0-7.57-4.68-12.86-11.45-12.86c-7.11,0.34-11.7,5.65-11.7,13.53c0,0.79,0.04,1.6,0.09,2.39
				c0.04,0.74,0.08,1.46,0.08,2.16c0,5.22-1.11,6.76-4.92,6.84l-4.69,0.08V296c0,2.01,0.99,4.42,5.76,4.42c0,0,0,0,0,0
				c4.31-0.19,7.7-2.88,9.5-7.46c3.7,2.24,8.99,2.1,12.38-0.39c1.07,1.08,2.71,2,5.54,2c0.19,0,0.29,0.01,0.36,0.02l0.41,0.03
				c0.19,0,0.42-0.01,0.76-0.05h85.15c2.04-0.05,3.81-0.64,5.25-1.76c1.39,0.84,3.83,1.76,7.82,1.76c2.17,0,4.09-0.65,5.63-1.89
				c1.52,1.09,3.53,1.79,5.58,1.89l0.54-0.04c0.36,0.09,0.57,0.09,0.77,0.09c3.63,0,6.37-0.93,8.31-2.83
				c2.08,1.87,4.75,2.88,7.64,2.88c2.92,0,5.43-0.94,7.35-2.74c1.46,1.39,3.35,2.17,5.97,2.47l87.39,0.15
				c2.05-0.05,3.81-0.64,5.26-1.76c1.39,0.84,3.83,1.76,7.82,1.76c4.66,0,9.64-3.22,9.64-12.24v-7.43
				C317.41,272.5,316.88,269.75,312.8,269.75z M54.19,287.36c-4.37,0-4.84-4.46-4.84-6.38c0-3.5,1.51-5.6,4.03-5.6
				c1.14,0,4.63,0,4.63,6.33C58,283.04,57.73,287.36,54.19,287.36z M194.31,287.36c-4.37,0-4.84-4.46-4.84-6.38
				c0-3.5,1.51-5.6,4.03-5.6c1.14,0,4.63,0,4.63,6.33C198.12,283.04,197.85,287.36,194.31,287.36z"/>
		</g>
		<circle class="st0" cx="200.81" cy="28.51" r="11.54"/>
		<circle class="st0" cx="144.56" cy="28.51" r="11.54"/>
	</g>
	<g>
		<g>
			<path class="st1" d="M82.15,317.35h2.45l10.92,24.49h-3.56l-3.25-7.21H78.31l-3.04,7.21h-3.59L82.15,317.35z M87.26,331.51
				l-3.93-8.82l-3.64,8.82H87.26z"/>
			<path class="st1" d="M98.18,317.48h3.48v21.18h10.96v3.17H98.18V317.48z"/>
			<path class="st1" d="M123.45,317.35h2.45l10.92,24.49h-3.57l-3.25-7.21h-10.39l-3.04,7.21h-3.58L123.45,317.35z M128.58,331.51
				l-3.93-8.82l-3.64,8.82H128.58z"/>
			<path class="st1" d="M158.85,317.48h3.26v24.35h-3.5v-18.94l-7.49,9.41h-0.65l-7.57-9.41v18.94h-3.48v-24.35h3.3l8.09,10
				L158.85,317.48z"/>
			<path class="st1" d="M183.3,331.63l-2.65-1.61c-1.66-1.02-2.84-2.01-3.55-3c-0.71-0.98-1.06-2.11-1.06-3.39
				c0-1.91,0.67-3.47,2-4.67c1.33-1.2,3.06-1.79,5.18-1.79c2.04,0,3.9,0.57,5.6,1.71v3.96c-1.75-1.68-3.64-2.53-5.66-2.53
				c-1.14,0-2.08,0.27-2.81,0.79c-0.73,0.53-1.1,1.2-1.1,2.02c0,0.73,0.27,1.41,0.81,2.05c0.54,0.64,1.41,1.3,2.6,2.01l2.66,1.57
				c2.97,1.78,4.45,4.04,4.45,6.78c0,1.96-0.65,3.54-1.96,4.76c-1.31,1.22-3.01,1.83-5.1,1.83c-2.4,0-4.59-0.74-6.57-2.22v-4.43
				c1.88,2.39,4.06,3.58,6.54,3.58c1.09,0,2-0.3,2.73-0.91c0.72-0.61,1.09-1.37,1.09-2.28C186.51,334.37,185.44,332.96,183.3,331.63
				z"/>
			<path class="st1" d="M193.66,317.48h3.49v24.35h-3.49V317.48z"/>
			<path class="st1" d="M221.91,317.48h3.26v24.35h-3.5v-18.94l-7.49,9.41h-0.65l-7.57-9.41v18.94h-3.49v-24.35h3.3l8.09,10
				L221.91,317.48z"/>
			<path class="st1" d="M236.45,331.63l-2.65-1.61c-1.66-1.02-2.84-2.01-3.55-3c-0.71-0.98-1.06-2.11-1.06-3.39
				c0-1.91,0.67-3.47,2-4.67c1.33-1.2,3.06-1.79,5.18-1.79c2.04,0,3.9,0.57,5.6,1.71v3.96c-1.75-1.68-3.64-2.53-5.66-2.53
				c-1.14,0-2.08,0.27-2.81,0.79c-0.73,0.53-1.1,1.2-1.1,2.02c0,0.73,0.27,1.41,0.81,2.05c0.54,0.64,1.41,1.3,2.6,2.01l2.66,1.57
				c2.97,1.78,4.45,4.04,4.45,6.78c0,1.96-0.65,3.54-1.96,4.76c-1.31,1.22-3.01,1.83-5.1,1.83c-2.4,0-4.59-0.74-6.57-2.22v-4.43
				c1.88,2.39,4.06,3.58,6.54,3.58c1.09,0,2-0.3,2.73-0.91c0.72-0.61,1.09-1.37,1.09-2.28
				C239.65,334.37,238.59,332.96,236.45,331.63z"/>
			<path class="st1" d="M246.8,317.48h3.49v24.35h-3.49V317.48z"/>
			<path class="st1" d="M275.06,317.48h3.26v24.35h-3.5v-18.94l-7.49,9.41h-0.65l-7.57-9.41v18.94h-3.49v-24.35h3.3l8.09,10
				L275.06,317.48z"/>
		</g>
	</g>
</g>
</svg>
