<?xml version="1.0" encoding="utf-8"?>
<!-- Generator: Adobe Illustrator 26.0.1, SVG Export Plug-In . SVG Version: 6.00 Build 0)  -->
<svg version="1.1" id="Layer_1" xmlns="http://www.w3.org/2000/svg" xmlns:xlink="http://www.w3.org/1999/xlink" x="0px" y="0px"
	 viewBox="0 0 400 400" style="enable-background:new 0 0 400 400;" xml:space="preserve">
<style type="text/css">
	.st0{fill:#E30613;}
</style>
<g>
	<g>
		<path class="st0" d="M201.97,132.53c0,0-1.86-21.77-3.38-25.88c-0.87-2.68-1.43-5.06-2.29-7.23c-0.95-2.16-1.99-4.37-3.42-6.32
			c-1.46-2.02-3.13-3.21-4.92-3.62c-0.42-0.11-0.86-0.18-1.32-0.19h-0.13c-0.35,0-0.74,0.04-1.13,0.13c0,0,0,0-0.04,0
			c-0.3,0.09-0.61,0.17-0.91,0.3c-0.22,0.09-0.43,0.17-0.69,0.3c-0.22,0.13-0.43,0.26-0.65,0.39c-0.26,0.17-0.48,0.3-0.69,0.48
			c-0.22,0.17-0.48,0.35-0.69,0.52c-0.09,0.04-0.22,0.13-0.3,0.22c-0.13,0.09-0.26,0.22-0.35,0.35c-0.48,0.39-0.91,0.87-1.34,1.34
			c-1.3,1.39-2.51,2.99-3.59,4.59c-0.65,0.82-1.21,1.69-1.82,2.55c-0.95,1.39-1.64,2.94-2.34,4.5c-0.48,1-0.78,1.6-0.78,1.6
			c-3.68-0.82-7.31-1.17-10.82-1.08c-7.79,0.13-15.15,2.38-22.25,6.58c-0.39-0.48-0.74-0.91-1.08-1.3
			c-0.26-0.26-0.48-0.52-0.78-0.74c-3.55-2.9-6.88-6.23-10.86-8.44c-5.58-3.16-10.08-0.82-11.99,5.28
			c-1.73,5.63-1.77,11.38-0.52,17.05c0.74,3.2,1.86,6.49,3.64,9.18c0.09,0.13,0.17,0.26,0.22,0.35c1.13,1.69,1.3,2.9,0.69,4.89
			c-1.43,4.54-1.99,8.92-1.69,13.11c0.65,11.04,7.1,20.43,18.44,26.06c2.21,1.13,6.93,3.07,6.93,3.07l-15.1,35.01
			c6.97,6.97,14.33,13.81,21.94,20.47c-1.9-4.8-2.9-9.91-2.99-15.36c-0.26-12.68,7.92-21.42,20.64-23.03
			c13.07-1.64,21.99,4.63,29.04,14.72c0.56,0.78,1.08,1.6,1.56,2.42c-4.15-10.04-12.16-30.04-13.55-37.26
			c-0.22-1.13-0.22-1.82,1.04-2.47c8.53-4.59,14.89-10.91,18.44-19.39c0.04-0.09,0.04-0.13,0.09-0.22
			c1.21-3.55,1.86-7.27,1.86-11.17C204.09,140.19,203.35,136.25,201.97,132.53z M185.87,146.51c0.26,7.96-10.04,16.49-17.75,14.41
			c-2.29-0.61-4.24-2.21-6.32-3.38c-3.85,9.13-15.41,8.4-21.03,2.94c-1.56-1.51-2.9-3.2-4.15-4.93c-0.39-0.52-0.17-1.51-0.22-2.34
			c0.69,0.39,1.56,0.52,2.03,1.04c1.34,1.39,2.34,3.03,3.77,4.33c2.99,2.68,6.45,3.9,10.56,3.2c5.37-0.87,8.66-6.02,7.06-11.17
			c-0.22-0.56-1.17-0.87-1.73-1.3c-1.99-1.56-4.24-2.81-5.89-4.63c-1.65-1.82-1.21-3.77,0.52-5.54c3.03-3.16,9.95-4.33,13.81-2.38
			c2.25,1.17,2.94,2.73,2.25,5.15c-1.04,3.51-3.12,6.06-6.67,7.57c0.3,3.46,1.21,6.67,4.5,8.4c3.68,1.95,7.31,0.91,10.56-1.3
			c3.16-2.16,4.89-5.37,6.1-8.92c0.22-0.61,0.3-1.3,0.61-1.82c0.22-0.35,0.87-0.82,1.04-0.69c0.39,0.22,0.65,0.74,0.95,1.13
			C185.91,146.38,185.87,146.46,185.87,146.51z"/>
		<g>
			<path d="M173.27,57.78c-3.68,3.12-6.15,7.05-7.27,11.82c-1.78,7.23,2.12,14.11,9.3,15.97c8.01,2.16,14.93-0.39,21.21-5.24
				c2.34-1.77,4.41-3.85,6.71-5.89c3.85,2.08,7.7,4.11,11.86,6.32c-7.23,7.7-12.33,16.32-16.49,25.88
				c1.51,4.11,3.38,25.88,3.38,25.88c1.38,3.72,2.12,7.66,2.12,11.77c0,3.9-0.65,7.62-1.86,11.17c0.78-1.9,1.43-3.94,1.91-6.06
				c0.09-0.35,0.3-0.65,0.3-0.65c5.76,3.12,11.43,6.28,17.36,9.52c-8.35,16.49-18.61,48.13-22.03,58.82
				c3.12-4.03,5.97-8.31,9.56-11.95c8.79-8.87,21.73-10.34,32.68-4.37c8.7,4.76,12.55,14.2,10.73,25.02
				c-0.82,4.89-2.34,9.39-4.41,13.5c2.21-1.86,4.41-3.77,6.58-5.71c6.62-5.93,12.81-11.69,18.52-17.36l-17.01-57.39
				c0,0,10.82-5.15,15.41-8.48c10.95-7.83,15.88-18.35,12.77-32.03c-3.12-13.5-9.39-25.36-18.39-35.79c-0.52-0.56-1-1.17-1.56-1.86
				c2.29-1.26,4.28-2.38,6.28-3.46c2.25,2.08,4.37,4.24,6.75,6.06c6.28,4.67,13.16,7.14,21.08,5.19c5.06-1.26,9.09-5.67,9.65-10.47
				c0.48-4.46-0.52-8.57-3.07-12.25c-5.15-7.36-12.55-11.34-21.16-13.11c-8.44-1.73-15.54,0.48-21.16,7.27
				c-2.86,3.42-5.97,6.67-8.83,10.08c-1.04,1.3-1.9,1.51-3.38,0.78c-4.2-1.99-8.74-3.03-13.29-2.25c-4.28,0.74-8.48,2.34-13.16,3.68
				c-0.48-0.52-1.34-1.51-2.21-2.51c-3.94-4.54-7.88-9.05-11.82-13.55c-4.63-5.24-10.52-7.53-17.31-6.8
				c-4.93,0.56-9.52,1.95-13.72,4.28c-1.6,0.87-3.16,1.86-4.67,3.12C174.14,57.05,173.7,57.39,173.27,57.78z M218.11,127.25
				c0.74,0.74,1.95,1.34,2.21,2.25c1.51,5.11,4.46,8.53,9.91,9.44c2.86,0.52,5.24-0.39,6.36-3.03c0.91-2.34,1.3-4.89,1.73-7.4
				c0.09-0.48-0.65-1.34-1.17-1.64c-3.64-2.03-5.58-5.24-6.71-9c-0.87-2.99,0.26-5.54,3.03-7.36c4.41-2.9,11.47-2.34,15.45,1.21
				c2.38,2.08,3.03,4.54,1.82,7.53c-1.43,3.51-3.81,6.19-7.27,7.92c-0.74,0.35-1.21,1.39-1.51,2.21c-0.22,0.56-0.04,1.26-0.04,1.9
				c0.52,9.52,7.88,9.52,12.68,6.23c2.16-1.43,3.51-4.15,5.06-6.41c0.65-1,0.91-2.47,2.51-1.86c1.6,0.56,1.34,1.9,0.91,3.2
				c-2.16,6.41-7.92,10.65-14.41,10.65c-3.98,0.04-6.79-1.82-8.79-5.19c-4.67,5.93-11.47,6.54-17.44,1.6
				c-2.94-2.42-4.85-5.54-5.45-9.31C216.81,129.32,217.72,128.24,218.11,127.25z"/>
			<path class="st0" d="M193.81,277.27l-14.34-9.99c-20.73-15.52-40.41-32.35-58.74-50.81c-14.17-14.24-27.27-29.41-38.46-46.15
				c-8.92-13.3-16.44-27.27-20.88-42.74c-7.23-25.23-5.19-49.13,11.45-70.34c13.59-17.28,31.88-25.59,51.37-26.04
				c21.14,0.16,37.13,7.04,50.59,19.78c0.06,0.06,0.1,0.1,0.16,0.16c0-8.78-4.82-16.88-12.55-21.04
				c-17.77-9.57-37.27-11.44-58.02-5.45c-32.88,9.5-55.23,38.88-56.65,73.03c-0.78,18.23,3.83,35.25,11.35,51.63
				c9.63,20.92,23.06,39.3,38.2,56.46c19.99,22.62,42.11,42.81,65.72,61.29h-47.54c-3.87,0-6.94-0.25-9.63-1.81
				c0.54-3.98,0-8.89-1.84-14.57c-4.77-14.68-17.02-24.56-30.04-24.56c-15.41,0.71-18.72,12.76-14.43,26
				c1.07,3.27,2.54,6.63,3.53,9.77c3.25,9.99,3.98,17.33-8.1,17.59l-7.31,0.11l1.16,3.61c1.24,3.84,4.29,6.49,11.63,6.49
				c10.81-0.48,14.11-8.78,13.72-17.81c4.94,3.36,10.61,5.31,16.4,5.31c5.9,0,10.22-1.95,12.76-5.56c3.19,3.13,7,5.56,13.61,5.56
				c0.79,0,31.82,0.07,51.87,0.08l0,0h0.3c2.07,0,4.06,0,5.85,0c4.66,0.03,7.57,0.03,7.68,0.03c0,0,0.01,0,0.01,0c0.58,0,1,0,1.04,0
				c0.06,0,0.2-0.03,0.29-0.03H193.81z M88.3,267.64c-8.78,0-15.81-6.49-19.11-16.6c-3.02-9.29-0.14-14.93,7.06-14.93
				c8.55,0,15.1,5.65,18.63,16.49C97.73,261.38,95.67,267.64,88.3,267.64z"/>
			<path d="M335.51,227.08c-13.01,0-26.34,10.95-29.87,25.18c-1.19,4.69-1.36,9.74,0.03,14.79h-68.71
				c12.21-9.55,24.03-19.65,35.46-30.25c20.59-19.2,39.66-39.76,55.06-63.46c12-18.45,21.37-38.04,24.13-60.22
				c1.91-15.92,0.19-31.46-6.84-45.92c-13.04-26.82-34.47-42.22-64.24-45.37c-17.15-1.85-33.17,2.04-47.8,11.06l-0.08,0.05
				c-4.73,2.94-7.61,8.12-7.61,13.69v4.16c3.02-2.53,6.16-4.96,9.37-7.26c33.73-24.06,82.3-11.51,100.46,25.72
				c7.82,15.92,9.4,32.59,5.8,49.87c-4.67,22.25-15.63,41.44-28.8,59.54c-15.7,21.53-34.28,40.47-54.12,58.18
				c-10.54,9.42-21.5,18.34-32.7,26.92l-20.28,13.44h6.43c0.04,0,0.08,0.01,0.12,0.02h12.42c0.01-0.01,0.01-0.01,0.02-0.02h3.53
				h112.21c5.79,0,8.38-1.69,9.71-7.11l0.76-3.02h-32.27c-2.34-5.53-2.63-10.7-1.55-15.05c2.29-9.15,10.25-15.05,17.59-15.05
				c9.03,0,13.01,8.19,12.62,14.2l3.27-3.5c0.99-1.07,1.89-2.77,2.43-4.91C353.33,237.8,350.56,227.08,335.51,227.08z"/>
			<path class="st0" d="M347.42,301.36h-3.05v15.44c-0.1,2.48-0.88,3.28-3.2,3.28c-1.21,0-2.42-0.29-3.6-0.87
				c0.07-0.5,0.13-1.04,0.17-1.6l0.03-0.39l-0.04-0.08c-0.03-1.28-0.04-6.8-0.04-10.28c0-2.37-0.51-5.51-4.93-5.51h-3.06v15.43
				c-0.14,2.62-1.15,3.11-2.96,3.11h-3.79v-13.03c0-2.57-0.56-5.51-4.92-5.51h-3.06v18.54h-77.93c-3.91,0-4.55-0.8-4.55-5.68
				c0-8.91-4.78-14.66-12.17-14.66c-7.65,0-12.59,5.75-12.59,14.66c0,4.89-0.64,5.68-4.59,5.68c-2.08,0-2.89-0.76-2.97-2.74v-10.29
				c0-2.57-0.56-5.51-4.93-5.51h-3.05v15.44c-0.1,2.48-0.88,3.28-3.2,3.28c-1.21,0-2.42-0.29-3.6-0.87c0.08-0.5,0.13-1.04,0.17-1.6
				l0.03-0.39l-0.04-0.08c-0.03-1.28-0.04-6.8-0.04-10.28c0-2.57-0.56-5.51-4.93-5.51h-3.05v15.42c-0.15,2.62-1.15,3.12-2.97,3.12
				h-3.79v-13.03c0-2.57-0.56-5.51-4.92-5.51h-3.06v18.54H84.03c-1.02,0-1.86-0.04-2.51-0.19c0.66-1.96,1-4.19,1-6.52
				c0-8.1-5-13.75-12.25-13.75c-7.6,0.36-12.51,6.04-12.51,14.48c0,0.85,0.05,1.71,0.09,2.56c0.04,0.79,0.08,1.56,0.08,2.31
				c0,5.59-1.18,7.23-5.26,7.31l-5.02,0.09v3.26c0,2.16,1.06,4.73,6.16,4.72c0,0,0,0,0.01,0c4.61-0.21,8.24-3.08,10.16-7.98
				c3.95,2.4,9.62,2.25,13.24-0.42c1.14,1.15,2.9,2.14,5.92,2.14c0.21,0,0.31,0.01,0.38,0.02l0.44,0.03c0.2,0,0.45-0.01,0.81-0.06
				h91.09c2.19-0.06,4.07-0.69,5.62-1.88c1.49,0.9,4.1,1.88,8.37,1.88c2.32,0,4.37-0.7,6.02-2.03c1.62,1.17,3.77,1.92,5.97,2.03
				l0.58-0.04c0.38,0.09,0.61,0.1,0.82,0.1c3.88,0,6.82-0.99,8.89-3.02c2.23,2,5.08,3.08,8.18,3.08c3.12,0,5.81-1.01,7.86-2.93
				c1.56,1.49,3.58,2.33,6.38,2.65l93.49,0.16c2.19-0.06,4.07-0.69,5.62-1.88c1.49,0.9,4.1,1.88,8.37,1.88
				c4.98,0,10.31-3.44,10.31-13.1v-7.94C352.35,304.31,351.79,301.36,347.42,301.36z M70.75,320.21c-4.67,0-5.18-4.78-5.18-6.83
				c0-3.75,1.61-5.99,4.31-5.99c1.22,0,4.95,0,4.95,6.77C74.83,315.58,74.54,320.21,70.75,320.21z M220.66,320.21
				c-4.67,0-5.18-4.78-5.18-6.83c0-3.75,1.61-5.99,4.31-5.99c1.22,0,4.95,0,4.95,6.77C224.74,315.58,224.44,320.21,220.66,320.21z"
				/>
		</g>
		<circle class="st0" cx="227.61" cy="43.28" r="12.34"/>
		<circle class="st0" cx="167.44" cy="43.28" r="12.34"/>
	</g>
	<g>
		<g>
			<path d="M100.66,352.28h2.62l11.68,26.2h-3.81l-3.47-7.72H96.56l-3.25,7.72h-3.84L100.66,352.28z M106.14,367.44l-4.2-9.43
				l-3.9,9.43H106.14z"/>
			<path d="M117.81,352.43h3.73v22.66h11.73v3.39h-15.46V352.43z"/>
			<path d="M144.85,352.28h2.62l11.68,26.2h-3.82l-3.47-7.72h-11.11l-3.26,7.72h-3.83L144.85,352.28z M150.33,367.44l-4.2-9.43
				l-3.9,9.43H150.33z"/>
			<path d="M182.72,352.43h3.49v26.05h-3.75v-20.27l-8.01,10.07h-0.69l-8.1-10.07v20.27h-3.73v-26.05h3.53l8.66,10.7L182.72,352.43z
				"/>
			<path d="M208.88,367.56l-2.83-1.72c-1.78-1.09-3.04-2.16-3.79-3.21c-0.76-1.05-1.13-2.26-1.13-3.63c0-2.05,0.71-3.71,2.14-4.99
				c1.42-1.28,3.27-1.92,5.55-1.92c2.18,0,4.17,0.61,5.99,1.83v4.23c-1.88-1.8-3.9-2.71-6.06-2.71c-1.22,0-2.22,0.28-3,0.84
				c-0.78,0.57-1.17,1.29-1.17,2.16c0,0.78,0.29,1.51,0.87,2.19c0.58,0.68,1.5,1.4,2.78,2.15l2.85,1.68
				c3.18,1.9,4.76,4.32,4.76,7.25c0,2.09-0.7,3.79-2.09,5.09c-1.4,1.3-3.22,1.96-5.46,1.96c-2.57,0-4.91-0.79-7.03-2.37v-4.74
				c2.01,2.55,4.34,3.83,6.99,3.83c1.17,0,2.14-0.32,2.92-0.97c0.77-0.65,1.16-1.47,1.16-2.44
				C212.31,370.49,211.17,368.99,208.88,367.56z"/>
			<path d="M219.96,352.43h3.73v26.05h-3.73V352.43z"/>
			<path d="M250.19,352.43h3.49v26.05h-3.75v-20.27l-8.01,10.07h-0.69l-8.1-10.07v20.27h-3.73v-26.05h3.53l8.66,10.7L250.19,352.43z
				"/>
			<path d="M265.74,367.56l-2.83-1.72c-1.78-1.09-3.04-2.16-3.79-3.21c-0.76-1.05-1.13-2.26-1.13-3.63c0-2.05,0.71-3.71,2.14-4.99
				c1.42-1.28,3.27-1.92,5.55-1.92c2.18,0,4.17,0.61,5.99,1.83v4.23c-1.88-1.8-3.9-2.71-6.06-2.71c-1.22,0-2.22,0.28-3,0.84
				c-0.78,0.57-1.17,1.29-1.17,2.16c0,0.78,0.29,1.51,0.87,2.19c0.58,0.68,1.5,1.4,2.78,2.15l2.85,1.68
				c3.18,1.9,4.76,4.32,4.76,7.25c0,2.09-0.7,3.79-2.09,5.09c-1.4,1.3-3.22,1.96-5.46,1.96c-2.57,0-4.91-0.79-7.03-2.37v-4.74
				c2.01,2.55,4.34,3.83,6.99,3.83c1.17,0,2.14-0.32,2.92-0.97c0.77-0.65,1.16-1.47,1.16-2.44
				C269.17,370.49,268.03,368.99,265.74,367.56z"/>
			<path d="M276.81,352.43h3.73v26.05h-3.73V352.43z"/>
			<path d="M307.04,352.43h3.49v26.05h-3.75v-20.27l-8.01,10.07h-0.69l-8.1-10.07v20.27h-3.73v-26.05h3.53l8.66,10.7L307.04,352.43z
				"/>
		</g>
	</g>
</g>
</svg>
