<?xml version="1.0" encoding="utf-8"?>
<!-- Generator: Adobe Illustrator 26.0.1, SVG Export Plug-In . SVG Version: 6.00 Build 0)  -->
<svg version="1.1" id="Layer_1" xmlns="http://www.w3.org/2000/svg" xmlns:xlink="http://www.w3.org/1999/xlink" x="0px" y="0px"
	 viewBox="0 0 400 400" style="enable-background:new 0 0 400 400;" xml:space="preserve">
<style type="text/css">
	.st0{fill:#1A222A;}
	.st1{clip-path:url(#SVGID_00000047759892743865910650000008513956714727941551_);fill:#1A222A;}
</style>
<g>
	<path class="st0" d="M278.87,215.67v-21.34l-22.67-16v-44.64l-17.63-13.61V21.22l-84.35,48.41v73.19l-24.92,17.01l-0.33,28.84
		l-7.85,5.52v54.44h32.42v41.46h-16.51v-24.33h-15.9v40.3h48.73v-73.54h-32.69v-30.31l16.24-11.01l0.07,23.65h16.04v-54.71
		l-29.08,20.46v-13.97l56.37-38.13v12.62L175.5,155.8v150.27h16.38l0.14-46.01l7.75-5.84l8.22,5.84v46.01h16.04v-54.58l-9.45-7.47
		l9.45-6.32v-81.83l-16.07-11.23v-35.88l-0.07,0.04l-7.84,4.72l-6.82,4.5V95.13l35.1,27.6l10.25,8.06l9.78,7.69v34.31l-18.02-12.72
		v145.99h48.53v-40.37h-15.77v24.26h-16.38v-41.53h32.15v-16.11h-32.35v-41.12l15.97,11.69v12.78H278.87z M208.05,228.65L191.74,240
		v-75.71l8.16-5.71l8.16,5.64V228.65z M185.39,79.04v44.16l-19.99,13.2V76.03l62.94-36.09v72.24L185.39,79.04z"/>
	<g>
		<defs>
			<path id="SVGID_1_" d="M38.72,369.16l1.6,4.8h-3.18L38.72,369.16z M37.32,366.51l-4.23,11.94h2.57l0.78-2.43h4.54l0.8,2.43h2.64
				l-4.23-11.94H37.32z M46.03,366.51v11.94h8.44v-2.12h-5.94v-9.82H46.03z M77.56,366.51v4.48h-4.67v-4.48h-2.5v11.94h2.5v-5.41
				h4.67v5.41h2.5v-11.94H77.56z M87.2,369.16l1.6,4.8h-3.18L87.2,369.16z M85.79,366.51l-4.23,11.94h2.57l0.79-2.43h4.54l0.8,2.43
				h2.64l-4.23-11.94H85.79z M93.48,366.51v2.12h3.61v9.82h2.49v-9.82h3.61v-2.12H93.48z M107.17,368.57h2.99
				c0.61,0,1.07,0.13,1.37,0.39c0.3,0.26,0.46,0.65,0.46,1.18c0,0.53-0.16,0.93-0.48,1.19c-0.32,0.26-0.8,0.39-1.45,0.39h-2.89
				V368.57z M104.67,366.51v11.94h2.5v-4.72h2.48c0.71,0,1.22,0.11,1.52,0.34c0.31,0.23,0.46,0.61,0.47,1.14l0.02,1.1
				c0,0.47,0.03,0.91,0.08,1.32c0.05,0.41,0.11,0.67,0.17,0.8h2.75v-0.32c-0.2-0.1-0.33-0.23-0.4-0.39
				c-0.07-0.16-0.11-0.44-0.12-0.83l-0.06-1.96c-0.02-0.96-0.38-1.64-1.06-2.05c-0.12-0.07-0.26-0.13-0.41-0.19
				c0.26-0.1,0.5-0.22,0.7-0.36c0.78-0.53,1.16-1.37,1.16-2.52c0-0.99-0.35-1.79-1.05-2.41c-0.7-0.61-1.62-0.92-2.75-0.92H104.67z
				 M116.49,378.45h2.49v-11.94h-2.49V378.45z M127,368.57h2.99c0.61,0,1.07,0.13,1.38,0.39c0.3,0.26,0.46,0.65,0.46,1.18
				c0,0.53-0.16,0.93-0.48,1.19c-0.32,0.26-0.8,0.39-1.45,0.39H127V368.57z M124.5,366.51v11.94h2.5v-4.72h2.48
				c0.71,0,1.22,0.11,1.53,0.34c0.31,0.23,0.46,0.61,0.47,1.14l0.02,1.1c0,0.47,0.03,0.91,0.08,1.32c0.05,0.41,0.1,0.67,0.17,0.8
				h2.75v-0.32c-0.2-0.1-0.33-0.23-0.4-0.39c-0.07-0.16-0.11-0.44-0.12-0.83l-0.06-1.96c-0.02-0.96-0.38-1.64-1.06-2.05
				c-0.12-0.07-0.26-0.13-0.41-0.19c0.26-0.1,0.5-0.22,0.7-0.36c0.78-0.53,1.16-1.37,1.16-2.52c0-0.99-0.35-1.79-1.05-2.41
				c-0.7-0.61-1.62-0.92-2.75-0.92H124.5z M136.51,366.51v11.94h9.07v-2.12h-6.57v-3.11h5.84v-2.05h-5.84v-2.54h6.29v-2.12H136.51z
				 M152.31,369.16l1.6,4.8h-3.18L152.31,369.16z M150.9,366.51l-4.22,11.94h2.57l0.79-2.43h4.54l0.8,2.43h2.64l-4.23-11.94H150.9z
				 M159.62,366.51v11.94h8.44v-2.12h-5.94v-9.82H159.62z M172.97,366.51v11.94h9.07v-2.12h-6.57v-3.11h5.84v-2.05h-5.84v-2.54h6.29
				v-2.12H172.97z M194.13,366.51v2.12h3.61v9.82h2.49v-9.82h3.61v-2.12H194.13z M210.02,369.16l1.6,4.8h-3.18L210.02,369.16z
				 M208.61,366.51l-4.22,11.94h2.57l0.78-2.43h4.54l0.8,2.43h2.64l-4.23-11.94H208.61z M216.3,366.51v2.12h3.61v9.82h2.49v-9.82
				h3.61v-2.12H216.3z M227.5,366.51v11.94h9.07v-2.12H230v-3.11h5.84v-2.05H230v-2.54h6.29v-2.12H227.5z M244.28,368.57h2.3
				c0.95,0,1.66,0.31,2.13,0.93c0.47,0.62,0.7,1.55,0.7,2.79c0,1.37-0.25,2.4-0.76,3.08c-0.51,0.68-1.26,1.03-2.27,1.03h-2.1V368.57
				z M241.78,366.51v11.94h4.91c1.71,0,3.01-0.53,3.89-1.6c0.89-1.06,1.33-2.62,1.33-4.66c0-1.86-0.43-3.27-1.28-4.23
				c-0.86-0.96-2.1-1.44-3.75-1.44H241.78z M253.8,366.51v11.94h9.07v-2.12h-6.57v-3.11h5.84v-2.05h-5.84v-2.54h6.29v-2.12H253.8z
				 M271.83,366.51l-2.62,9.12l-2.63-9.12h-2.64l4.04,11.94h2.38l4.04-11.94H271.83z M275.98,366.51v11.94h9.07v-2.12h-6.57v-3.11
				h5.84v-2.05h-5.84v-2.54h6.29v-2.12H275.98z M287.07,366.51v11.94h8.44v-2.12h-5.94v-9.82H287.07z M312.68,368.57h2.08
				c0.7,0,1.22,0.14,1.57,0.42c0.35,0.28,0.52,0.71,0.52,1.28c0,0.62-0.18,1.08-0.52,1.39c-0.35,0.31-0.87,0.47-1.57,0.47h-2.08
				V368.57z M310.18,366.51v11.94h2.5v-4.25c0.7-0.01,1.54-0.02,2.5-0.01c1.36,0,2.4-0.33,3.1-1c0.71-0.67,1.07-1.65,1.07-2.94
				c0-1.22-0.36-2.14-1.07-2.78c-0.71-0.64-1.74-0.96-3.1-0.96H310.18z M329.13,366.51l-2.15,9.47l-2.17-9.47h-3.66v11.94h2.33
				v-10.26l2.24,10.26h2.45l2.24-10.04v10.04h2.33v-11.94H329.13z M335.12,366.51v11.94h9.07v-2.12h-6.57v-3.11h5.84v-2.05h-5.84
				v-2.54h6.29v-2.12H335.12z M353.51,366.51v8.38l-4.79-8.38h-2.62v11.94h2.33v-8.6l4.93,8.6h2.48v-11.94H353.51z M357.2,366.51
				v2.12h3.61v9.82h2.49v-9.82h3.61v-2.12H357.2z M60.24,367.2c-0.84,0.68-1.26,1.6-1.26,2.76c0,1.03,0.32,1.79,0.95,2.28
				c0.64,0.49,1.9,0.95,3.8,1.38c1.03,0.22,1.7,0.44,2.01,0.65c0.32,0.21,0.48,0.55,0.48,0.99c0,0.46-0.22,0.82-0.67,1.07
				c-0.45,0.26-1.06,0.38-1.86,0.38c-0.78,0-1.38-0.17-1.81-0.51c-0.43-0.34-0.67-0.83-0.7-1.46h-2.4c0.06,1.29,0.51,2.28,1.36,2.98
				c0.85,0.7,2.03,1.05,3.55,1.05c1.5,0,2.7-0.33,3.58-0.99c0.88-0.66,1.32-1.55,1.32-2.67c0-1.11-0.29-1.92-0.88-2.43
				c-0.58-0.51-1.75-0.96-3.48-1.34c-1.2-0.27-1.98-0.5-2.35-0.7c-0.37-0.19-0.56-0.47-0.56-0.83c0-0.5,0.18-0.89,0.53-1.16
				c0.36-0.28,0.85-0.41,1.49-0.41c0.73,0,1.32,0.16,1.78,0.5c0.45,0.33,0.7,0.78,0.75,1.35h2.43c-0.1-1.2-0.56-2.15-1.4-2.85
				c-0.84-0.7-1.93-1.06-3.26-1.06C62.21,366.19,61.08,366.53,60.24,367.2 M184.91,367.2c-0.84,0.68-1.26,1.6-1.26,2.76
				c0,1.03,0.31,1.79,0.95,2.28c0.64,0.49,1.91,0.95,3.8,1.38c1.03,0.22,1.7,0.44,2.01,0.65c0.32,0.21,0.48,0.55,0.48,0.99
				c0,0.46-0.22,0.82-0.67,1.07c-0.45,0.26-1.07,0.38-1.86,0.38c-0.78,0-1.38-0.17-1.81-0.51c-0.43-0.34-0.67-0.83-0.7-1.46h-2.4
				c0.06,1.29,0.51,2.28,1.36,2.98c0.85,0.7,2.03,1.05,3.55,1.05c1.51,0,2.7-0.33,3.58-0.99c0.88-0.66,1.32-1.55,1.32-2.67
				c0-1.11-0.29-1.92-0.87-2.43c-0.58-0.51-1.75-0.96-3.48-1.34c-1.2-0.27-1.98-0.5-2.35-0.7c-0.37-0.19-0.56-0.47-0.56-0.83
				c0-0.5,0.18-0.89,0.53-1.16c0.36-0.28,0.85-0.41,1.49-0.41c0.73,0,1.32,0.16,1.77,0.5c0.45,0.33,0.7,0.78,0.75,1.35h2.43
				c-0.1-1.2-0.56-2.15-1.4-2.85c-0.84-0.7-1.93-1.06-3.26-1.06C186.88,366.19,185.75,366.53,184.91,367.2 M300.05,375.56
				c-0.57-0.73-0.86-1.74-0.86-3.03c0-1.32,0.29-2.36,0.86-3.1c0.57-0.75,1.37-1.12,2.38-1.12c1.02,0,1.82,0.37,2.39,1.12
				c0.57,0.75,0.86,1.78,0.86,3.1c0,1.29-0.29,2.31-0.86,3.03c-0.57,0.73-1.37,1.09-2.39,1.09
				C301.42,376.66,300.62,376.29,300.05,375.56 M298.25,367.9c-1.03,1.15-1.55,2.69-1.55,4.65c0,1.91,0.52,3.42,1.55,4.54
				c1.04,1.12,2.43,1.68,4.18,1.68c1.77,0,3.17-0.56,4.2-1.68c1.03-1.12,1.55-2.64,1.55-4.54c0-1.95-0.52-3.5-1.55-4.65
				c-1.03-1.15-2.43-1.72-4.2-1.72C300.68,366.19,299.29,366.76,298.25,367.9 M43.52,357.04c-0.4,0.39-0.6,0.87-0.6,1.43
				c0,0.56,0.2,1.05,0.6,1.46c0.4,0.41,0.88,0.62,1.45,0.62c0.56,0,1.04-0.21,1.44-0.62c0.4-0.41,0.6-0.89,0.6-1.46
				c0-0.56-0.2-1.04-0.6-1.43c-0.4-0.39-0.88-0.59-1.44-0.59C44.4,356.45,43.92,356.65,43.52,357.04 M48.33,357.04
				c-0.4,0.39-0.6,0.87-0.6,1.43c0,0.56,0.2,1.05,0.6,1.46c0.4,0.41,0.88,0.62,1.45,0.62c0.56,0,1.04-0.21,1.44-0.62
				c0.4-0.41,0.6-0.89,0.6-1.46c0-0.56-0.2-1.04-0.6-1.43c-0.4-0.39-0.88-0.59-1.44-0.59C49.22,356.45,48.74,356.65,48.33,357.04
				 M259.97,357.04c-0.4,0.39-0.6,0.87-0.6,1.43c0,0.56,0.2,1.05,0.6,1.46c0.4,0.41,0.88,0.62,1.45,0.62c0.56,0,1.04-0.21,1.44-0.62
				c0.4-0.41,0.6-0.89,0.6-1.46c0-0.56-0.2-1.04-0.6-1.43c-0.4-0.39-0.88-0.59-1.44-0.59C260.85,356.45,260.37,356.65,259.97,357.04
				 M264.79,357.04c-0.4,0.39-0.6,0.87-0.6,1.43c0,0.56,0.2,1.05,0.6,1.46c0.4,0.41,0.88,0.62,1.44,0.62s1.04-0.21,1.44-0.62
				c0.4-0.41,0.6-0.89,0.6-1.46c0-0.56-0.2-1.04-0.6-1.43c-0.4-0.39-0.88-0.59-1.44-0.59S265.19,356.65,264.79,357.04 M154,356.99
				c-0.4,0.39-0.6,0.87-0.6,1.43c0,0.56,0.2,1.05,0.6,1.46c0.4,0.41,0.88,0.61,1.45,0.61c0.56,0,1.04-0.2,1.44-0.61
				c0.4-0.41,0.6-0.9,0.6-1.46c0-0.56-0.2-1.04-0.6-1.43c-0.4-0.39-0.88-0.59-1.44-0.59C154.88,356.4,154.4,356.6,154,356.99
				 M158.81,356.99c-0.4,0.39-0.6,0.87-0.6,1.43c0,0.56,0.2,1.05,0.6,1.46c0.4,0.41,0.88,0.61,1.45,0.61c0.56,0,1.04-0.2,1.44-0.61
				c0.4-0.41,0.6-0.9,0.6-1.46c0-0.56-0.2-1.04-0.6-1.43c-0.4-0.39-0.88-0.59-1.44-0.59C159.69,356.4,159.21,356.6,158.81,356.99
				 M65.11,341.26v13.15c0,1.73-0.33,3.02-0.98,3.85c-0.65,0.83-1.66,1.25-3.05,1.25v1.81c2.63,0,4.57-0.56,5.8-1.67
				c1.24-1.12,1.86-2.86,1.86-5.24v-13.15H65.11z M158.33,341.26v6.81c0,1.62-0.33,2.82-0.98,3.6c-0.65,0.78-1.66,1.17-3.05,1.17
				h-0.41h-0.21h-0.34c-1.38,0-2.4-0.39-3.05-1.17c-0.65-0.78-0.97-1.98-0.97-3.6v-6.81h-3.64v13.15c0,1.73-0.33,3.02-0.98,3.85
				c-0.65,0.83-1.66,1.25-3.05,1.25v1.81c2.63,0,4.57-0.56,5.8-1.67c1.24-1.12,1.85-2.86,1.85-5.24v-0.03c0.99,0.4,2.2,0.6,3.61,0.6
				h0.75h0.21h0.82c2.39,0,4.2-0.58,5.42-1.75c1.22-1.16,1.83-2.88,1.83-5.16v-6.81H158.33z M47.19,340.18
				c-1.05,0.68-1.85,1.68-2.41,3.01c-0.55,1.33-0.8,2.94-0.73,4.84l5.73-0.82c0.38-0.05,0.74-0.07,1.06-0.07
				c1.89,0,3.11,0.63,3.66,1.9c0.55,1.27,0.82,2.54,0.82,3.8H41.67c-2.01,0-3.3-0.57-3.87-1.72c-0.57-1.15-0.85-2.33-0.85-3.55
				v-3.39l-3.54,1.27v2.12c0,0.83,0.15,1.79,0.43,2.85c0.29,1.07,1.02,2.09,2.2,3.08c1.18,0.99,2.97,1.48,5.36,1.48h17.65v-2.14
				c0-0.79-0.17-1.75-0.51-2.9c-0.34-1.15-1.05-2.22-2.13-3.22c-1.08-1-2.65-1.49-4.71-1.49c-0.53,0-1.03,0.03-1.49,0.1l-2.6,0.41
				c0.1-0.83,0.45-1.77,1.06-2.79c0.61-1.03,1.73-1.54,3.37-1.54c1.3,0,2.86,0.45,4.67,1.35l1.08-1.44
				c-2.47-1.43-4.77-2.14-6.89-2.14C49.48,339.17,48.24,339.5,47.19,340.18 M263.64,340.18c-1.05,0.68-1.86,1.68-2.41,3.01
				c-0.55,1.33-0.8,2.94-0.73,4.84l5.73-0.82c0.39-0.05,0.74-0.07,1.06-0.07c1.89,0,3.11,0.63,3.66,1.9
				c0.54,1.27,0.82,2.54,0.82,3.8h-13.65c-2.01,0-3.3-0.57-3.86-1.72c-0.57-1.15-0.85-2.33-0.85-3.55v-3.39l-3.54,1.27v2.12
				c0,0.83,0.15,1.79,0.43,2.85c0.29,1.07,1.02,2.09,2.2,3.08c1.18,0.99,2.97,1.48,5.36,1.48h17.65v-2.14c0-0.79-0.17-1.75-0.51-2.9
				c-0.34-1.15-1.05-2.22-2.13-3.22c-1.08-1-2.65-1.49-4.71-1.49c-0.53,0-1.03,0.03-1.49,0.1l-2.6,0.41
				c0.1-0.83,0.45-1.77,1.06-2.79c0.61-1.03,1.73-1.54,3.37-1.54c1.3,0,2.86,0.45,4.67,1.35l1.08-1.44
				c-2.47-1.43-4.77-2.14-6.89-2.14C265.93,339.17,264.69,339.5,263.64,340.18 M106.33,344.68l3.23-1.08
				c0.43-0.11,0.86-0.17,1.27-0.17c0.98,0,1.76,0.29,2.35,0.88c0.59,0.59,0.88,1.31,0.88,2.18c0,0.77-0.25,1.54-0.76,2.3
				c-0.51,0.76-1.27,1.42-2.3,1.96L106.33,344.68z M83.79,349.25v-1.37c0-1.14,0.18-2.11,0.53-2.93c0.35-0.81,0.82-1.42,1.4-1.83
				c0.58-0.41,1.19-0.61,1.85-0.61c0.64,0,1.25,0.2,1.83,0.61c0.58,0.41,1.04,1.02,1.4,1.83c0.35,0.81,0.53,1.79,0.53,2.93v4.96
				h-2.72L83.79,349.25z M124.17,336.69v11.39c0,1.62-0.32,2.82-0.97,3.6c-0.65,0.78-1.67,1.17-3.05,1.17h-0.38h-0.17h-3.88
				c-0.78,0-1.39-0.02-1.83-0.07c-0.43-0.05-0.8-0.17-1.11-0.36c1.44-0.83,2.54-1.85,3.29-3.05c0.75-1.2,1.12-2.4,1.12-3.62
				c0-0.9-0.2-1.72-0.6-2.46c-0.4-0.74-0.98-1.33-1.73-1.77c-0.75-0.44-1.65-0.66-2.67-0.66c-0.93,0-1.95,0.2-3.06,0.6l-9.25,3.37
				l0.82,1.81l1.9-0.72l5.3,6.5c-0.32,0.14-0.72,0.25-1.2,0.3c-0.48,0.06-1.3,0.09-2.44,0.11c-1.15,0.02-2.57,0.02-4.27,0.02h-1.69
				h-0.31h-2.91v-4.96c0-1.6-0.35-2.97-1.06-4.11c-0.71-1.13-1.63-1.98-2.77-2.55c-1.14-0.57-2.35-0.85-3.64-0.85
				c-1.3,0-2.53,0.28-3.67,0.85c-1.15,0.57-2.08,1.42-2.79,2.56c-0.71,1.14-1.07,2.5-1.07,4.09v2.05l4.09,2.91h-6.45h-0.36h-2.55
				v-16.16h-3.64v18.3h6.19h0.36h9.46h2.55h4.33h1.01h2.91h0.31h3.27c1.8,0,3.11-0.02,3.94-0.05c0.83-0.03,1.52-0.11,2.07-0.23
				c0.55-0.12,1.22-0.32,1.99-0.59c0.61,0.32,1.26,0.55,1.94,0.67c0.68,0.13,1.69,0.19,3.02,0.19h5.08h0.17h0.79
				c2.39,0,4.2-0.58,5.42-1.75c1.22-1.16,1.83-2.88,1.83-5.16v-11.39H124.17z M130.21,354.98h3.64v-18.3h-3.64V354.98z M189,346.2
				l8.45-1.37c0.26-0.03,0.44-0.05,0.55-0.05c0.85,0,1.48,0.31,1.9,0.91c0.42,0.61,0.63,1.55,0.63,2.82v4.33H189V346.2z
				 M168.92,347.88c0-0.95,0.16-1.76,0.49-2.43s0.77-1.18,1.31-1.52c0.55-0.34,1.13-0.51,1.73-0.51c0.61,0,1.18,0.17,1.72,0.51
				c0.54,0.34,0.97,0.84,1.3,1.52c0.33,0.67,0.49,1.48,0.49,2.43v4.96h-7.05V347.88z M238.04,336.69v11.39
				c0,1.62-0.33,2.82-0.97,3.6c-0.65,0.78-1.67,1.17-3.05,1.17h-0.39h-0.17h-0.46c-1.38,0-2.4-0.39-3.05-1.17
				c-0.65-0.78-0.98-1.98-0.98-3.6v-11.39h-3.64v12.23l-3.92,3.93h-0.77h-0.38c-1.38,0-2.39-0.39-3.05-1.17
				c-0.65-0.78-0.97-1.98-0.97-3.6v-6.81h-3.64v7.65l-3.92,3.93h-0.77h-0.14h-3.61v-4.33c0-1.83-0.51-3.27-1.52-4.31
				c-1.01-1.04-2.38-1.57-4.12-1.57c-0.19,0-0.51,0.02-0.96,0.05l-8.6,1.4v-7.39h-3.64v16.16h-3.51h-0.17h-1.95v-4.96
				c0-1.4-0.34-2.6-1.03-3.6c-0.69-1-1.59-1.76-2.71-2.26c-1.12-0.51-2.3-0.76-3.55-0.76c-1.25,0-2.43,0.25-3.53,0.76
				c-1.1,0.51-1.99,1.26-2.67,2.25c-0.68,1-1.02,2.2-1.02,3.61v7.1h10.64c0,1.53-0.35,2.66-1.05,3.41c-0.7,0.75-1.64,1.12-2.83,1.12
				v1.81c2.34,0,4.2-0.54,5.56-1.62c1.37-1.08,2.05-2.65,2.05-4.71h2.09h0.17h25.95h0.14h1.88l3.32-3.37
				c0.5,1.09,1.32,1.93,2.48,2.5c1.16,0.58,2.58,0.87,4.26,0.87h0.41h0.38h1.88l3.32-3.37c0.5,1.09,1.32,1.93,2.48,2.5
				c1.16,0.58,2.58,0.87,4.26,0.87h0.87h0.17h0.79c2.39,0,4.2-0.58,5.42-1.75c1.22-1.16,1.83-2.88,1.83-5.16v-11.39H238.04z
				 M297.29,346.2l8.45-1.37c0.25-0.03,0.44-0.05,0.55-0.05c0.85,0,1.48,0.31,1.9,0.91c0.42,0.61,0.63,1.55,0.63,2.82v4.33h-11.53
				V346.2z M293.63,336.69v16.16h-3.85h-0.55c-1.38,0-2.4-0.39-3.05-1.17c-0.65-0.78-0.97-1.98-0.97-3.6v-6.81h-3.64v13.15
				c0,1.73-0.33,3.02-0.98,3.85c-0.65,0.83-1.66,1.25-3.05,1.25v1.81c2.63,0,4.57-0.56,5.8-1.67c1.24-1.12,1.85-2.86,1.85-5.24
				v-0.03c1,0.4,2.2,0.6,3.61,0.6h0.41h0.55h22.68v-6.48c0-1.83-0.51-3.27-1.52-4.31c-1.01-1.04-2.38-1.57-4.12-1.57
				c-0.19,0-0.52,0.02-0.96,0.05l-8.6,1.4v-7.39H293.63z M356.8,336.69v11.39c0,1.62-0.33,2.82-0.97,3.6
				c-0.65,0.78-1.67,1.17-3.05,1.17h-0.39h-0.17h-0.14c-0.9,0-1.65-0.33-2.26-0.98c-0.61-0.65-0.91-1.46-0.91-2.44v-8.16h-3.64v8.16
				c0,1.08-0.22,1.91-0.66,2.51c-0.44,0.6-1.04,0.9-1.79,0.9c-0.9,0-1.65-0.33-2.26-0.98c-0.61-0.65-0.91-1.46-0.91-2.44v-5.34
				h-3.61v5.63c0,0.55-0.14,1.06-0.42,1.54c-0.28,0.48-0.65,0.87-1.12,1.16c-0.47,0.29-0.96,0.43-1.47,0.43
				c-0.88,0-1.61-0.29-2.18-0.85c-0.57-0.57-0.85-1.3-0.85-2.18v-7.34h-3.64v5.61c0,1.62-0.33,2.82-0.98,3.6
				c-0.65,0.78-1.66,1.17-3.05,1.17h-0.91h-0.34h-2.58v-16.16h-3.64v18.3h6.21h0.34h1.32c2.34,0,4.13-0.56,5.35-1.68l0.72,0.55
				c0.56,0.38,1.18,0.67,1.87,0.85c0.68,0.18,1.46,0.28,2.35,0.28c1,0,1.89-0.16,2.7-0.49c0.8-0.33,1.56-0.84,2.29-1.53
				c0.7,0.63,1.48,1.12,2.33,1.48c0.85,0.36,1.69,0.54,2.5,0.54c0.91,0,1.76-0.16,2.54-0.48c0.78-0.32,1.46-0.79,2.04-1.4
				c0.7,0.59,1.47,1.06,2.29,1.39c0.82,0.33,1.62,0.49,2.41,0.49h0.12h0.17h0.8c2.39,0,4.2-0.58,5.42-1.75
				c1.22-1.16,1.83-2.88,1.83-5.16v-11.39H356.8z M362.84,354.98h3.64v-18.3h-3.64V354.98z M210.45,335.35
				c-0.4,0.39-0.6,0.87-0.6,1.43c0,0.56,0.2,1.05,0.6,1.46c0.4,0.41,0.88,0.61,1.44,0.61c0.56,0,1.04-0.21,1.45-0.61
				c0.4-0.41,0.6-0.9,0.6-1.46c0-0.56-0.2-1.04-0.6-1.43c-0.4-0.39-0.88-0.59-1.45-0.59C211.33,334.76,210.85,334.96,210.45,335.35
				 M215.17,335.35c-0.4,0.39-0.6,0.87-0.6,1.43c0,0.56,0.2,1.05,0.6,1.46c0.4,0.41,0.88,0.61,1.44,0.61c0.56,0,1.04-0.21,1.44-0.61
				c0.4-0.41,0.6-0.9,0.6-1.46c0-0.56-0.2-1.04-0.6-1.43c-0.4-0.39-0.88-0.59-1.44-0.59C216.05,334.76,215.57,334.96,215.17,335.35
				 M334.05,335.35c-0.4,0.39-0.6,0.87-0.6,1.43c0,0.56,0.2,1.05,0.6,1.46c0.4,0.41,0.88,0.61,1.45,0.61c0.56,0,1.04-0.21,1.44-0.61
				c0.4-0.41,0.6-0.9,0.6-1.46c0-0.56-0.2-1.04-0.6-1.43c-0.4-0.39-0.88-0.59-1.44-0.59C334.93,334.76,334.45,334.96,334.05,335.35
				 M338.86,335.35c-0.4,0.39-0.6,0.87-0.6,1.43c0,0.56,0.2,1.05,0.6,1.46c0.4,0.41,0.88,0.61,1.45,0.61c0.56,0,1.04-0.21,1.44-0.61
				c0.4-0.41,0.6-0.9,0.6-1.46c0-0.56-0.2-1.04-0.6-1.43c-0.4-0.39-0.88-0.59-1.44-0.59C339.75,334.76,339.27,334.96,338.86,335.35
				 M83.48,335.11c-0.4,0.39-0.6,0.87-0.6,1.43c0,0.56,0.2,1.05,0.6,1.46c0.4,0.41,0.88,0.62,1.44,0.62c0.56,0,1.04-0.21,1.44-0.62
				c0.4-0.41,0.6-0.89,0.6-1.46c0-0.56-0.2-1.04-0.6-1.43c-0.4-0.39-0.88-0.59-1.44-0.59C84.37,334.52,83.88,334.71,83.48,335.11
				 M88.2,335.11c-0.4,0.39-0.6,0.87-0.6,1.43c0,0.56,0.2,1.05,0.6,1.46c0.4,0.41,0.88,0.62,1.45,0.62c0.56,0,1.04-0.21,1.44-0.62
				c0.4-0.41,0.6-0.89,0.6-1.46c0-0.56-0.2-1.04-0.6-1.43c-0.4-0.39-0.88-0.59-1.44-0.59C89.08,334.52,88.6,334.71,88.2,335.11
				 M336.51,331.02c-0.4,0.39-0.6,0.87-0.6,1.43c0,0.56,0.2,1.05,0.6,1.46s0.88,0.62,1.44,0.62c0.56,0,1.04-0.21,1.44-0.62
				c0.4-0.41,0.6-0.89,0.6-1.46c0-0.56-0.2-1.04-0.6-1.43c-0.4-0.39-0.88-0.59-1.44-0.59C337.39,330.43,336.91,330.62,336.51,331.02
				"/>
		</defs>
		<use xlink:href="#SVGID_1_"  style="overflow:visible;fill:#1A222A;"/>
		<clipPath id="SVGID_00000005966296018878002390000008823223781052201112_">
			<use xlink:href="#SVGID_1_"  style="overflow:visible;"/>
		</clipPath>
		
			<rect x="33.09" y="330.43" style="clip-path:url(#SVGID_00000005966296018878002390000008823223781052201112_);fill:#1A222A;" width="333.82" height="48.35"/>
	</g>
</g>
</svg>
