<?xml version="1.0" encoding="utf-8"?>
<!-- Generator: Adobe Illustrator 26.0.1, SVG Export Plug-In . SVG Version: 6.00 Build 0)  -->
<svg version="1.1" id="Layer_1" xmlns="http://www.w3.org/2000/svg" xmlns:xlink="http://www.w3.org/1999/xlink" x="0px" y="0px"
	 viewBox="0 0 400 400" style="enable-background:new 0 0 400 400;" xml:space="preserve">
<style type="text/css">
	.st0{fill:#113323;}
</style>
<g>
	<rect x="150.57" y="308.53" class="st0" width="4.09" height="3.24"/>
	<rect x="144.68" y="308.53" class="st0" width="4.11" height="3.24"/>
	<rect x="186.83" y="331.36" class="st0" width="4.09" height="3.24"/>
	<path class="st0" d="M186.85,323.23c0,1.07-0.43,1.7-1.3,1.9h-28.27V313.9h-11.25c-0.61,0-1.12,0.02-1.55,0.05
		c-0.42,0.03-0.77,0.08-1.04,0.15c-0.86,0.15-1.48,0.54-1.84,1.18c-0.36,0.64-0.55,1.62-0.55,2.92v6.46c0,0.67,0.05,1.25,0.14,1.74
		c0.09,0.49,0.24,0.9,0.45,1.24c0.2,0.34,0.47,0.61,0.79,0.81c0.32,0.2,0.72,0.35,1.17,0.45l-0.04-0.02
		c0.54,0.08,1.36,0.12,2.47,0.12h39.88c1.16,0,2.1-0.08,2.81-0.24c0.77-0.19,1.33-0.6,1.67-1.25c0.34-0.64,0.52-1.6,0.52-2.88V313.9
		h-4.07V323.23z M153.17,325.17h-5.42c-0.66,0-1.17-0.04-1.54-0.12c-0.36-0.08-0.62-0.26-0.77-0.53c-0.13-0.16-0.22-0.34-0.24-0.53
		c-0.03-0.19-0.04-0.43-0.04-0.73v-3.6c0-0.5,0.02-0.88,0.06-1.14c0.04-0.26,0.14-0.45,0.29-0.58c0.16-0.12,0.38-0.19,0.67-0.2
		c0.29-0.01,0.68-0.02,1.16-0.02h5.83V325.17z"/>
	<rect x="180.94" y="331.36" class="st0" width="4.11" height="3.24"/>
	<path class="st0" d="M196.18,330.7c0,0.57-0.07,1-0.21,1.3c-0.14,0.3-0.39,0.48-0.74,0.55c-0.11,0.03-0.31,0.05-0.6,0.07
		c-0.29,0.02-0.64,0.03-1.04,0.03h-0.67v3.81h2.41c0.59,0,1.11-0.02,1.55-0.05c0.44-0.03,0.82-0.08,1.14-0.13h-0.04
		c0.4-0.09,0.75-0.24,1.04-0.44c0.29-0.2,0.53-0.46,0.71-0.79c0.18-0.33,0.32-0.73,0.4-1.2c0.09-0.47,0.13-1.04,0.13-1.7v-16.66
		h-4.09V330.7z"/>
	<rect x="213.53" y="308.53" class="st0" width="4.11" height="3.24"/>
	<rect x="219.42" y="308.53" class="st0" width="4.09" height="3.24"/>
	<path class="st0" d="M253.72,323.23c0,1.07-0.43,1.7-1.3,1.9h-0.87h-0.18h-3.89l1.88-7.12v0.02c0.11-0.46,0.19-0.87,0.25-1.22
		s0.09-0.68,0.09-0.96c0-0.54-0.15-0.95-0.45-1.23c-0.3-0.28-0.77-0.48-1.41-0.59c-0.16-0.05-0.44-0.09-0.82-0.1
		c-0.38-0.01-0.84-0.02-1.37-0.02h-11.23c-0.51,0-0.96,0.01-1.35,0.02c-0.38,0.01-0.66,0.05-0.84,0.1c-0.62,0.11-1.08,0.3-1.39,0.59
		c-0.3,0.28-0.45,0.69-0.45,1.23c0,0.28,0.03,0.6,0.09,0.96c0.06,0.36,0.14,0.77,0.25,1.22v-0.02c0.14,0.5,0.28,1.06,0.45,1.68
		c0.16,0.62,0.32,1.25,0.49,1.88c0.16,0.63,0.32,1.26,0.49,1.88c0.16,0.62,0.3,1.18,0.43,1.68h-3.72h-0.24h-1.78v-6.92
		c0-1.32-0.2-2.3-0.59-2.93c-0.39-0.64-1.04-1.03-1.94-1.17c-0.31-0.07-0.67-0.12-1.07-0.15c-0.4-0.03-0.86-0.05-1.38-0.05h-6.25
		c-0.59,0-1.1,0.02-1.53,0.05c-0.43,0.03-0.79,0.08-1.08,0.15c-0.85,0.15-1.46,0.55-1.82,1.19c-0.36,0.65-0.55,1.62-0.55,2.92v6.92
		h-1.8h-0.16h-0.59c-0.85-0.2-1.27-0.84-1.27-1.9v-14.25h-4.07v15.65c0,1.27,0.17,2.22,0.51,2.86c0.34,0.64,0.9,1.06,1.7,1.27
		c0.69,0.16,1.61,0.24,2.77,0.24h0.95h0.16h19.79h0.24h22.51h0.18h1.23c1.17,0,2.11-0.08,2.79-0.24c0.78-0.2,1.34-0.62,1.68-1.27
		c0.34-0.64,0.51-1.59,0.51-2.86v-15.65h-4.05V323.23z M222.76,323.27c0,0.26-0.01,0.47-0.04,0.63c-0.02,0.14-0.06,0.26-0.11,0.36
		c0-0.01,0-0.01,0-0.02l-0.02,0.06c0-0.01,0.01-0.02,0.01-0.03c-0.01,0.02-0.01,0.04-0.01,0.06c-0.18,0.46-0.63,0.73-1.36,0.81
		h-5.26c-0.27-0.05-0.49-0.12-0.66-0.2c-0.17-0.08-0.3-0.19-0.39-0.33c-0.09-0.14-0.14-0.32-0.17-0.53
		c-0.03-0.21-0.04-0.48-0.04-0.8v-3.6c0-0.59,0.13-1.06,0.4-1.39c0.27-0.33,0.68-0.52,1.23-0.56h5.14c0.4,0.15,0.71,0.38,0.93,0.7
		c0.21,0.32,0.32,0.73,0.32,1.24V323.27z M244.82,319.89l-0.81,3.1v-0.02c-0.22,0.88-0.65,1.5-1.3,1.88
		c-0.19,0.11-0.42,0.18-0.69,0.22c-0.27,0.04-0.58,0.06-0.93,0.06h-2.07c-0.36,0-0.68-0.02-0.95-0.06c-0.27-0.04-0.5-0.11-0.69-0.22
		c-0.31-0.19-0.57-0.43-0.79-0.73c-0.22-0.3-0.38-0.68-0.49-1.15v0.02c-0.13-0.51-0.27-1.03-0.4-1.55c-0.13-0.52-0.27-1.03-0.4-1.55
		c-0.34-1.44,0.1-2.17,1.31-2.17h6.86C244.71,317.72,245.16,318.44,244.82,319.89z"/>
	<rect x="261.31" y="308.98" class="st0" width="4.11" height="20.02"/>
	<path class="st0" d="M90.37,267.83c0,2.63-1.07,4.19-3.2,4.69h-2.05h-0.55h-3.44v-27.7c-3.69,0-6.86,0.01-9.48,0.02
		c-2.63,0.02-4.84,0.03-6.64,0.05c-1.8,0.02-3.24,0.04-4.34,0.07c-1.1,0.03-1.97,0.07-2.62,0.1c-0.65,0.03-1.12,0.07-1.42,0.12
		c-0.3,0.05-0.57,0.09-0.8,0.12c-2.1,0.37-3.6,1.34-4.52,2.92c-0.92,1.58-1.37,3.99-1.37,7.21v17.07H35.07
		c-2.1-0.5-3.14-2.06-3.14-4.69v-23.01h-9.98v26.45c0,3.13,0.41,5.48,1.22,7.06c0.81,1.58,2.2,2.62,4.17,3.12
		c1.7,0.4,3.98,0.6,6.84,0.6h25.85v-23.01c0-1.26,0.2-2.28,0.6-3.04c0.4-0.76,0.93-1.25,1.6-1.45c0.17-0.03,0.55-0.07,1.15-0.1
		c0.6-0.03,1.28-0.07,2.05-0.1c0.77-0.03,1.53-0.06,2.3-0.08c0.77-0.02,1.4-0.02,1.9-0.02h1.4v27.8h13.58h0.55h2.95
		c2.89,0,5.19-0.2,6.89-0.6c1.93-0.5,3.31-1.54,4.14-3.12c0.83-1.58,1.25-3.93,1.25-7.06V232.7h-9.98V267.83z"/>
	<path class="st0" d="M143.63,299c0.77-0.48,1.39-1.13,1.87-1.95c0.48-0.82,0.83-1.81,1.05-3c0.22-1.18,0.32-2.6,0.32-4.27v-44.97
		h-27.75c-1.4,0-2.62,0.04-3.67,0.12c-1.05,0.08-1.94,0.21-2.67,0.37c-2.1,0.37-3.59,1.33-4.49,2.89c-0.9,1.56-1.35,3.98-1.35,7.24
		v15.82c0,1.66,0.11,3.09,0.32,4.29c0.22,1.2,0.57,2.21,1.05,3.04c0.48,0.83,1.1,1.49,1.85,1.97c0.75,0.48,1.65,0.84,2.72,1.07
		h-0.05c0.7,0.17,1.57,0.27,2.62,0.33c1.05,0.05,2.27,0.07,3.67,0.07h17.67v4.19c0,1.4-0.26,2.48-0.77,3.24
		c-0.52,0.77-1.36,1.28-2.52,1.55h-6.54v9.38h7.69c1.43,0,2.66-0.02,3.69-0.07c1.03-0.05,1.9-0.14,2.6-0.27h-0.05
		C141.95,299.84,142.86,299.49,143.63,299z M136.79,272.53h-15.77c-2.66,0-3.99-1.56-3.99-4.69v-8.78c0-1.26,0.2-2.28,0.6-3.04
		c0.4-0.76,0.92-1.25,1.55-1.45c0.33-0.07,0.85-0.13,1.55-0.2c0.7-0.07,1.55-0.1,2.54-0.1h13.53V272.53z"/>
	<path class="st0" d="M184.06,281.46c1.96-0.5,3.35-1.54,4.17-3.12c0.81-1.58,1.22-3.93,1.22-7.06V232.6h-9.98v35.24
		c0,2.63-1.03,4.19-3.1,4.69h-10.48V232.7h-10.08v39.83h-4.54v9.53h25.95C180.08,282.06,182.36,281.86,184.06,281.46z"/>
	<rect x="196.24" y="232.7" class="st0" width="10.13" height="49.36"/>
	<path class="st0" d="M246.54,253.86h-14.82v5.59h15.72c1.46,0,2.6-0.05,3.39-0.15c1.43-0.23,2.42-0.73,2.97-1.5
		c0.55-0.77,0.82-1.98,0.82-3.64v-3.19c0-1.86-0.65-3.24-1.95-4.14c-1.16-0.8-2.56-1.2-4.19-1.2h-9.23c-0.2-0.17-0.3-0.67-0.3-1.5
		c0-0.7,0.32-1.05,0.95-1.05h12.28v-5.59h-13.23c-1.33,0-2.48,0.05-3.44,0.15c-1.4,0.23-2.38,0.72-2.95,1.45
		c-0.57,0.73-0.85,1.96-0.85,3.69v3.89c0,1.63,0.85,2.83,2.55,3.59c1.3,0.63,2.76,0.95,4.39,0.95h7.74c0.53,0,0.88,0.1,1.05,0.3v1.3
		C247.44,253.44,247.14,253.79,246.54,253.86z"/>
	<path class="st0" d="M367.92,267.93c0,2.63-1.07,4.19-3.19,4.69H351.2h-0.45h-3.94v-17.07c0-3.26-0.48-5.67-1.45-7.24
		c-0.97-1.56-2.55-2.53-4.74-2.89c-0.77-0.17-1.65-0.29-2.65-0.37c-1-0.08-2.13-0.12-3.39-0.12h-16.87c-1.5,0-2.78,0.04-3.84,0.12
		c-1.07,0.08-1.96,0.21-2.69,0.37c-2.06,0.37-3.54,1.35-4.44,2.94c-0.9,1.6-1.35,3.99-1.35,7.19v12.28c0,2.43-0.98,3.96-2.94,4.59
		l-3.29,0.25v0.01l-2.95,0.04c-1.07-0.37-1.85-0.93-2.35-1.7c-0.5-0.77-0.75-1.8-0.75-3.1V232.7h-10.08v35.14
		c0,2.43-0.98,3.96-2.94,4.59c-0.13,0.03-0.53,0.07-1.2,0.1c-0.49,0.02-1.02,0.07-1.55,0.11v-0.01h-4.59v-39.78h-9.98v39.78h-36.19
		c-2.13-0.5-3.19-2.06-3.19-4.69v-23.01h-10.03v26.45c0,3.13,0.42,5.49,1.27,7.09c0.85,1.6,2.22,2.63,4.12,3.1
		c1.73,0.4,4.04,0.6,6.94,0.6h51.11h0.55h3.44c0.8,0,1.36-0.12,1.5-0.15c1.23-0.27,2.38-1.05,3.44-2.35s2.01-3.09,2.84-5.39
		c1.9,4.79,4.33,7.4,7.29,7.84h3.3v0.05h3.99c0.8-0.03,1.53-0.11,2.2-0.22c0.67-0.12,1.3-0.37,1.9-0.75c0.6-0.38,1.16-0.97,1.7-1.75
		c0.53-0.78,1.08-1.87,1.65-3.27c0.53,1.3,1.1,2.35,1.7,3.14c0.6,0.8,1.23,1.41,1.9,1.82c0.67,0.42,1.37,0.69,2.12,0.82
		c0.75,0.13,1.54,0.2,2.37,0.2h32.09h0.45h14.42c2.86,0,5.17-0.2,6.94-0.6c1.9-0.47,3.27-1.49,4.12-3.07
		c0.85-1.58,1.27-3.95,1.27-7.11v-26.45h-10.03V267.93z M336.73,272.62l-18.17,0.1c-2.1-0.7-3.14-2.3-3.14-4.79v-8.78
		c0-1.46,0.35-2.6,1.05-3.42c0.7-0.81,1.73-1.27,3.09-1.37h14.13c1.03,0.4,1.8,0.98,2.3,1.75c0.5,0.77,0.75,1.78,0.75,3.05V272.62z"
		/>
	<rect x="367.97" y="231.7" class="st0" width="10.08" height="7.99"/>
	<rect x="353.45" y="231.7" class="st0" width="10.13" height="7.99"/>
	<polygon class="st0" points="165.86,185.94 166.18,185.79 167.24,185.29 175.29,181.49 176.32,181 179.45,179.53 179.45,225.78 
		189.45,225.78 189.45,139.89 196.24,136.31 196.24,190.68 196.24,225.78 206.37,225.78 206.37,130.98 206.37,118.49 206.37,118.49 
		206.29,118.53 206.29,81.64 213.43,85.01 214.2,85.38 222.43,89.26 223.23,89.64 234.14,94.79 234.14,94.74 239.54,97.29 
		240.34,97.67 240.34,160.3 240.34,173.81 240.34,225.78 251.25,225.78 251.25,178.96 252.35,179.48 260.81,183.48 261.94,184.01 
		262.75,184.39 262.75,229.82 272.85,229.82 272.85,189.16 272.85,175.64 261.94,170.49 260.81,169.96 252.35,165.97 251.25,165.46 
		251.25,102.81 251.25,95.84 251.25,89.68 240.34,84.53 239.54,84.15 231.31,80.27 230.54,79.9 219.62,74.75 219.62,74.8 
		214.2,72.24 213.43,71.88 206.29,68.5 206.29,68.49 196.24,63.56 196.24,123.83 179.45,132.67 179.45,132.67 179.45,132.67 
		179.45,145.15 179.45,166.69 176.32,168.17 175.29,168.66 167.24,172.45 166.18,172.95 165.86,173.1 165.86,172.95 155.81,177.85 
		155.81,190.68 155.81,229.82 165.86,229.82 	"/>
</g>
</svg>
