<?xml version="1.0" encoding="utf-8"?>
<!-- Generator: Adobe Illustrator 26.0.1, SVG Export Plug-In . SVG Version: 6.00 Build 0)  -->
<svg version="1.1" id="Layer_1" xmlns="http://www.w3.org/2000/svg" xmlns:xlink="http://www.w3.org/1999/xlink" x="0px" y="0px"
	 viewBox="0 0 350 350" style="enable-background:new 0 0 350 350;" xml:space="preserve">
<style type="text/css">
	.st0{fill:#103323;}
</style>
<g>
	<rect x="128.58" y="276.93" class="st0" width="3.84" height="3.04"/>
	<rect x="123.05" y="276.93" class="st0" width="3.86" height="3.04"/>
	<rect x="162.64" y="298.37" class="st0" width="3.84" height="3.04"/>
	<path class="st0" d="M162.65,290.73c0,1-0.41,1.6-1.22,1.79h-26.55v-10.55h-10.57c-0.57,0-1.05,0.02-1.45,0.05
		c-0.4,0.03-0.73,0.08-0.98,0.14c-0.81,0.14-1.39,0.51-1.73,1.11c-0.34,0.6-0.51,1.52-0.51,2.75v6.06c0,0.63,0.04,1.18,0.13,1.63
		c0.09,0.46,0.23,0.84,0.42,1.16c0.19,0.32,0.44,0.57,0.74,0.76c0.3,0.19,0.67,0.33,1.1,0.42l-0.04-0.02
		c0.51,0.08,1.28,0.11,2.32,0.11h37.46c1.09,0,1.97-0.08,2.64-0.23c0.72-0.18,1.24-0.57,1.57-1.17c0.32-0.6,0.49-1.5,0.49-2.71
		v-10.07h-3.82V290.73z M131.01,292.56h-5.09c-0.62,0-1.1-0.04-1.45-0.11c-0.34-0.08-0.58-0.24-0.72-0.49
		c-0.13-0.15-0.2-0.32-0.23-0.49c-0.03-0.18-0.04-0.41-0.04-0.68v-3.38c0-0.47,0.02-0.83,0.06-1.07c0.04-0.25,0.13-0.43,0.28-0.54
		c0.15-0.11,0.35-0.18,0.63-0.19c0.27-0.01,0.64-0.02,1.09-0.02h5.47V292.56z"/>
	<rect x="157.1" y="298.37" class="st0" width="3.86" height="3.04"/>
	<path class="st0" d="M171.42,297.74c0,0.53-0.07,0.94-0.2,1.22c-0.13,0.28-0.36,0.45-0.69,0.51c-0.1,0.03-0.29,0.05-0.56,0.07
		c-0.27,0.02-0.6,0.03-0.98,0.03h-0.63v3.57h2.26c0.56,0,1.04-0.02,1.45-0.05c0.41-0.03,0.77-0.07,1.07-0.12h-0.04
		c0.38-0.09,0.71-0.22,0.98-0.41c0.27-0.18,0.49-0.43,0.67-0.74c0.17-0.31,0.3-0.69,0.38-1.13c0.08-0.44,0.12-0.98,0.12-1.6v-15.64
		h-3.84V297.74z"/>
	<rect x="187.71" y="276.93" class="st0" width="3.86" height="3.04"/>
	<rect x="193.24" y="276.93" class="st0" width="3.84" height="3.04"/>
	<path class="st0" d="M225.46,290.73c0,1-0.41,1.6-1.22,1.79h-0.82h-0.17h-3.65l1.77-6.69v0.02c0.1-0.43,0.18-0.81,0.24-1.15
		c0.06-0.34,0.09-0.64,0.09-0.9c0-0.51-0.14-0.89-0.43-1.16c-0.28-0.27-0.73-0.45-1.32-0.55c-0.15-0.05-0.41-0.08-0.77-0.1
		c-0.36-0.01-0.79-0.02-1.28-0.02h-10.55c-0.48,0-0.9,0.01-1.26,0.02c-0.36,0.01-0.62,0.05-0.79,0.1c-0.58,0.1-1.02,0.28-1.3,0.55
		c-0.28,0.27-0.43,0.65-0.43,1.16c0,0.27,0.03,0.57,0.09,0.9c0.06,0.34,0.14,0.72,0.24,1.15v-0.02c0.13,0.47,0.27,1,0.42,1.58
		c0.15,0.58,0.3,1.17,0.46,1.77c0.15,0.6,0.3,1.19,0.46,1.77c0.15,0.58,0.29,1.11,0.4,1.58h-3.5h-0.23h-1.67v-6.5
		c0-1.24-0.18-2.16-0.55-2.76c-0.37-0.6-0.98-0.96-1.82-1.1c-0.29-0.06-0.63-0.11-1.01-0.14c-0.38-0.03-0.81-0.05-1.29-0.05h-5.87
		c-0.56,0-1.04,0.02-1.43,0.05c-0.4,0.03-0.74,0.08-1.02,0.14c-0.8,0.14-1.37,0.51-1.71,1.12c-0.34,0.61-0.51,1.52-0.51,2.74v6.5
		h-1.69h-0.15h-0.55c-0.8-0.19-1.2-0.78-1.2-1.79v-13.38h-3.82v14.69c0,1.19,0.16,2.09,0.48,2.69c0.32,0.6,0.85,1,1.6,1.19
		c0.65,0.15,1.51,0.23,2.6,0.23h0.89h0.15h18.59h0.23h21.14h0.17h1.16c1.1,0,1.98-0.08,2.62-0.23c0.73-0.19,1.26-0.59,1.58-1.19
		c0.32-0.6,0.48-1.5,0.48-2.69v-14.69h-3.8V290.73z M196.37,290.77c0,0.24-0.01,0.44-0.04,0.59c-0.02,0.13-0.06,0.24-0.1,0.34
		c0-0.01,0-0.01,0-0.02l-0.02,0.06c0-0.01,0.01-0.02,0.01-0.03c-0.01,0.02-0.01,0.03-0.01,0.05c-0.17,0.43-0.59,0.68-1.27,0.76
		h-4.94c-0.25-0.05-0.46-0.11-0.62-0.19c-0.16-0.08-0.28-0.18-0.36-0.31c-0.08-0.13-0.14-0.3-0.16-0.49
		c-0.03-0.2-0.04-0.45-0.04-0.75v-3.38c0-0.56,0.13-0.99,0.38-1.3c0.25-0.31,0.64-0.49,1.16-0.52h4.83
		c0.38,0.14,0.67,0.36,0.87,0.66c0.2,0.3,0.3,0.69,0.3,1.17V290.77z M217.09,287.59l-0.76,2.91v-0.02c-0.2,0.82-0.61,1.41-1.22,1.77
		c-0.18,0.1-0.39,0.17-0.65,0.21c-0.25,0.04-0.54,0.06-0.87,0.06h-1.94c-0.34,0-0.64-0.02-0.89-0.06c-0.25-0.04-0.47-0.11-0.65-0.21
		c-0.29-0.18-0.54-0.41-0.74-0.68c-0.2-0.28-0.36-0.64-0.46-1.08v0.02c-0.13-0.48-0.25-0.97-0.38-1.45
		c-0.13-0.49-0.25-0.97-0.38-1.45c-0.32-1.36,0.09-2.03,1.23-2.03h6.44C216.99,285.56,217.41,286.24,217.09,287.59z"/>
	<rect x="232.58" y="277.35" class="st0" width="3.86" height="18.8"/>
	<path class="st0" d="M72.04,238.71c0,2.47-1,3.94-3,4.41h-1.92h-0.52h-3.23V217.1c-3.47,0-6.44,0.01-8.91,0.02
		c-2.47,0.02-4.55,0.03-6.23,0.05c-1.69,0.02-3.05,0.04-4.08,0.07c-1.03,0.03-1.85,0.06-2.46,0.09c-0.61,0.03-1.05,0.07-1.34,0.12
		c-0.28,0.05-0.53,0.09-0.75,0.12c-1.97,0.34-3.38,1.26-4.24,2.74c-0.86,1.48-1.29,3.74-1.29,6.77v16.03H20.11
		c-1.97-0.47-2.95-1.94-2.95-4.41V217.1H7.78v24.84c0,2.94,0.38,5.15,1.15,6.63c0.76,1.49,2.07,2.46,3.91,2.93
		c1.59,0.38,3.73,0.56,6.42,0.56h24.28v-21.61c0-1.19,0.19-2.14,0.56-2.86c0.38-0.72,0.88-1.17,1.5-1.36
		c0.16-0.03,0.52-0.06,1.08-0.09c0.56-0.03,1.2-0.06,1.92-0.09c0.72-0.03,1.44-0.05,2.16-0.07c0.72-0.02,1.31-0.02,1.78-0.02h1.31
		v26.11h12.75h0.52h2.77c2.72,0,4.87-0.19,6.47-0.56c1.81-0.47,3.11-1.45,3.89-2.93c0.78-1.48,1.17-3.69,1.17-6.63v-36.23h-9.37
		V238.71z"/>
	<path class="st0" d="M122.06,267.98c0.72-0.45,1.31-1.06,1.76-1.83c0.45-0.77,0.78-1.7,0.99-2.81c0.2-1.11,0.3-2.45,0.3-4.01V217.1
		H99.04c-1.31,0-2.46,0.04-3.45,0.12c-0.98,0.08-1.82,0.2-2.51,0.35c-1.97,0.34-3.38,1.25-4.22,2.72c-0.84,1.47-1.27,3.73-1.27,6.8
		v14.86c0,1.56,0.1,2.91,0.3,4.03c0.2,1.13,0.53,2.08,0.98,2.86c0.45,0.78,1.03,1.4,1.73,1.85c0.7,0.45,1.55,0.79,2.55,1.01h-0.05
		c0.66,0.16,1.48,0.26,2.46,0.31c0.98,0.05,2.13,0.07,3.45,0.07h16.59V256c0,1.31-0.24,2.33-0.73,3.05
		c-0.49,0.72-1.27,1.2-2.37,1.45h-6.14v8.81h7.22c1.34,0,2.5-0.02,3.47-0.07c0.97-0.05,1.78-0.13,2.44-0.26h-0.05
		C120.48,268.77,121.34,268.43,122.06,267.98z M115.64,243.11h-14.81c-2.5,0-3.75-1.47-3.75-4.41v-8.25c0-1.19,0.19-2.14,0.56-2.86
		c0.38-0.72,0.86-1.17,1.45-1.36c0.31-0.06,0.8-0.12,1.45-0.19c0.66-0.06,1.45-0.09,2.39-0.09h12.7V243.11z"/>
	<path class="st0" d="M160.03,251.5c1.84-0.47,3.15-1.45,3.91-2.93c0.76-1.48,1.15-3.69,1.15-6.63v-36.33h-9.37v33.09
		c0,2.47-0.97,3.94-2.91,4.41h-9.84v-37.41h-9.47v37.41h-4.27v8.95h24.37C156.29,252.07,158.43,251.88,160.03,251.5z"/>
	<rect x="171.47" y="205.71" class="st0" width="9.52" height="46.36"/>
	<path class="st0" d="M218.71,225.58h-13.92v5.25h14.77c1.37,0,2.44-0.05,3.19-0.14c1.34-0.22,2.27-0.69,2.79-1.41
		c0.52-0.72,0.77-1.86,0.77-3.42v-3c0-1.75-0.61-3.05-1.83-3.89c-1.09-0.75-2.41-1.13-3.94-1.13h-8.67
		c-0.19-0.16-0.28-0.62-0.28-1.41c0-0.66,0.3-0.98,0.89-0.98H224v-5.25h-12.42c-1.25,0-2.33,0.05-3.23,0.14
		c-1.31,0.22-2.24,0.67-2.77,1.36c-0.53,0.69-0.8,1.84-0.8,3.47v3.66c0,1.53,0.8,2.66,2.39,3.38c1.22,0.59,2.59,0.89,4.13,0.89h7.27
		c0.5,0,0.83,0.09,0.98,0.28v1.22C219.55,225.19,219.27,225.52,218.71,225.58z"/>
	<path class="st0" d="M332.71,238.8c0,2.47-1,3.94-3,4.41H317h-0.42h-3.7v-16.03c0-3.06-0.45-5.33-1.36-6.8
		c-0.91-1.47-2.39-2.37-4.45-2.72c-0.72-0.16-1.55-0.27-2.48-0.35s-2-0.12-3.19-0.12h-15.84c-1.41,0-2.61,0.04-3.61,0.12
		c-1,0.08-1.84,0.2-2.53,0.35c-1.94,0.34-3.33,1.26-4.17,2.77c-0.84,1.5-1.27,3.75-1.27,6.75v11.53c0,2.28-0.92,3.72-2.77,4.31
		l-3.09,0.23v0.01l-2.77,0.04c-1-0.34-1.73-0.88-2.2-1.59c-0.47-0.72-0.7-1.69-0.7-2.91v-33.09h-9.47v33c0,2.28-0.92,3.72-2.77,4.31
		c-0.12,0.03-0.5,0.06-1.13,0.09c-0.46,0.02-0.96,0.06-1.45,0.1v-0.01h-4.31v-37.36h-9.38v37.36h-33.98c-2-0.47-3-1.94-3-4.41
		v-21.61h-9.42v24.84c0,2.94,0.4,5.16,1.2,6.66s2.09,2.47,3.87,2.91c1.63,0.37,3.8,0.56,6.52,0.56h48h0.52h3.23
		c0.75,0,1.28-0.11,1.41-0.14c1.16-0.25,2.23-0.98,3.23-2.2c1-1.22,1.89-2.91,2.67-5.06c1.78,4.5,4.06,6.95,6.84,7.36h3.09v0.05
		h3.75c0.75-0.03,1.44-0.1,2.06-0.21c0.62-0.11,1.22-0.34,1.78-0.7c0.56-0.36,1.09-0.91,1.59-1.64c0.5-0.73,1.01-1.76,1.55-3.07
		c0.5,1.22,1.03,2.2,1.59,2.95c0.56,0.75,1.16,1.32,1.78,1.71c0.62,0.39,1.29,0.65,1.99,0.77c0.7,0.12,1.45,0.19,2.23,0.19h30.14
		H317h13.55c2.69,0,4.86-0.19,6.52-0.56c1.78-0.44,3.07-1.4,3.87-2.88c0.8-1.48,1.2-3.71,1.2-6.68v-24.84h-9.42V238.8z
		 M303.41,243.21l-17.06,0.09c-1.97-0.66-2.95-2.16-2.95-4.5v-8.25c0-1.37,0.33-2.45,0.98-3.21c0.66-0.76,1.62-1.19,2.91-1.29h13.27
		c0.97,0.38,1.69,0.92,2.16,1.64c0.47,0.72,0.7,1.67,0.7,2.86V243.21z"/>
	<rect x="332.75" y="204.77" class="st0" width="9.47" height="7.5"/>
	<rect x="319.11" y="204.77" class="st0" width="9.52" height="7.5"/>
	<polygon class="st0" points="142.94,161.79 143.23,161.65 144.24,161.18 151.79,157.61 152.76,157.16 155.7,155.77 155.7,199.21 
		165.09,199.21 165.09,118.54 171.47,115.19 171.47,166.25 171.47,199.21 180.98,199.21 180.98,110.18 180.98,98.45 180.98,98.45 
		180.9,98.49 180.9,63.84 187.61,67.01 188.34,67.35 196.07,71 196.82,71.35 207.07,76.19 207.07,76.15 212.14,78.54 212.88,78.89 
		212.88,137.72 212.88,150.4 212.88,199.21 223.13,199.21 223.13,155.24 224.16,155.73 232.11,159.48 233.17,159.98 233.93,160.34 
		233.93,203 243.42,203 243.42,164.82 243.42,152.12 233.17,147.29 232.11,146.79 224.16,143.04 223.13,142.56 223.13,83.73 
		223.13,77.18 223.13,71.39 212.88,66.55 212.14,66.2 204.41,62.55 203.68,62.21 193.43,57.37 193.43,57.42 188.34,55.01 
		187.61,54.67 180.9,51.5 180.9,51.49 171.47,46.86 171.47,103.46 155.7,111.77 155.7,111.77 155.7,111.77 155.7,123.49 
		155.7,143.72 152.76,145.11 151.79,145.56 144.24,149.12 143.23,149.6 142.94,149.74 142.94,149.6 133.5,154.19 133.5,166.25 
		133.5,203 142.94,203 	"/>
</g>
</svg>
