<?xml version="1.0" encoding="utf-8"?>
<!-- Generator: Adobe Illustrator 26.0.1, SVG Export Plug-In . SVG Version: 6.00 Build 0)  -->
<svg version="1.1" id="Layer_1" xmlns="http://www.w3.org/2000/svg" xmlns:xlink="http://www.w3.org/1999/xlink" x="0px" y="0px"
	 viewBox="0 0 400 400" style="enable-background:new 0 0 400 400;" xml:space="preserve">
<style type="text/css">
	.st0{fill:#1B9AD4;}
	.st1{fill:#38B9C2;}
</style>
<g>
	<path class="st0" d="M21.33,196.73c0,0,3.4-3.33,5.08-5.02c6.29-6.28,12.57-12.57,18.85-18.86c0.32-0.32,0.54-0.37,0.91,0
		c7.59,7.61,24.31,24.31,25.07,25.07c0.43,0.43,0.41,0.79-0.03,1.24c-8.26,8.23-16.5,16.48-24.75,24.72
		c-0.82,0.82-0.82,0.81-1.65-0.02c-7.65-7.66-23.47-23.4-23.47-23.4V196.73z"/>
	<path class="st1" d="M83.7,262.81c-1.34-1.25-2.68-2.51-4.07-3.8c3.39-3.38,6.59-6.56,9.79-9.76c5.33-5.32,10.66-10.63,15.96-15.97
		c0.49-0.49,0.76-0.5,1.24-0.01c6.71,6.73,13.44,13.45,20.16,20.17c2.56,2.56,5.12,5.13,7.67,7.7c0.52,0.53,0.98,1.11,1.47,1.67
		C118.51,262.81,101.1,262.81,83.7,262.81z"/>
	<g>
		<path class="st1" d="M270.95,217.7c0.02-0.58-0.17-0.71-0.71-0.7c-2.46,0.03-4.92,0.05-7.38-0.01c-0.72-0.02-0.91,0.26-1.02,0.88
			c-0.38,2.23-0.81,4.45-1.21,6.68c-0.61,3.37-1.19,6.74-1.81,10.11c-0.68,3.73-1.38,7.45-2.07,11.17
			c-0.22,1.17-0.44,2.33-0.67,3.57c-0.26-0.24-0.29-0.46-0.34-0.66c-0.28-1.17-0.54-2.35-0.83-3.51c-1.1-4.54-2.22-9.07-3.32-13.62
			c-0.69-2.85-1.35-5.71-2.03-8.56c-0.43-1.79-0.86-3.59-1.32-5.37c-0.07-0.28-0.02-0.68-0.58-0.67c-2.78,0.03-5.57,0.01-8.35,0.01
			c-0.27,0-0.44,0.02-0.48,0.38c-0.07,0.56-0.24,1.1-0.37,1.65c-0.75,3.14-1.5,6.27-2.25,9.41c-1.13,4.74-2.26,9.47-3.39,14.21
			c-0.54,2.29-1.08,4.59-1.64,6.98c-0.1-0.2-0.18-0.31-0.2-0.42c-0.54-3.27-1.2-6.52-1.81-9.78c-0.75-3.97-1.43-7.95-2.15-11.92
			c-0.61-3.32-1.25-6.63-1.84-9.96c-0.08-0.44-0.19-0.56-0.63-0.56c-2.66,0.02-5.32,0.03-7.98-0.01c-0.57-0.01-0.71,0.17-0.7,0.72
			c0.03,2.72-0.03,5.42,0.59,8.11c0.87,3.77,1.51,7.58,2.27,11.37c0.83,4.12,1.68,8.24,2.52,12.36c0.9,4.42,1.79,8.83,2.69,13.25
			c4.08,0,8.16,0,12.23,0c0.59-2.34,1.18-4.68,1.78-7.02c0.87-3.41,1.64-6.84,2.52-10.25c0.98-3.78,1.82-7.6,2.77-11.59
			c0.6,2.37,1.15,4.57,1.7,6.77c1.3,5.28,2.63,10.56,3.88,15.85c0.49,2.08,1.02,4.16,1.52,6.24c4.18,0,8.35,0,12.53,0
			c0.01-0.15-0.01-0.3,0.02-0.45c0.76-3.74,1.53-7.48,2.29-11.21c0.88-4.32,1.74-8.64,2.62-12.96c0.78-3.81,1.57-7.62,2.34-11.43
			c0.29-1.42,0.64-2.85,0.76-4.29C271.04,220.89,270.91,219.29,270.95,217.7z"/>
		<path class="st1" d="M378.35,225.45c-1.05-1.89-2.3-3.6-4.04-4.95c-2.94-2.28-6.3-3.39-9.95-3.45c-6.19-0.1-12.38-0.02-18.57-0.04
			c-0.66,0-0.88,0.14-0.88,0.85c0.02,14.99,0.02,29.98,0.02,44.96c6.61,0,13.23,0,19.84,0c0.56-0.33,1.19-0.16,1.78-0.26
			c4.65-0.79,8.46-2.88,11.03-6.95c0.49-0.78,1.07-1.54,1.07-2.55c-0.01-8.75-0.01-17.5,0-26.25
			C378.67,226.31,378.58,225.86,378.35,225.45z M368.66,250.5c0,1.16-0.73,1.91-1.51,2.52c-1.54,1.21-3.36,1.73-5.32,1.73
			c-2.06,0-4.13-0.02-6.19,0.01c-0.56,0.01-0.71-0.16-0.71-0.72c0.02-4.72,0.01-9.45,0.01-14.17c0,0,0,0,0,0
			c0-4.67,0.01-9.35-0.01-14.02c0-0.6,0.12-0.81,0.76-0.8c2.34,0.04,4.68-0.06,7.01,0.04c2.33,0.1,4.29,1.07,5.67,3.03
			c0.21,0.3,0.29,0.61,0.29,0.97C368.66,236.23,368.65,243.37,368.66,250.5z"/>
		<path class="st1" d="M312.97,254.66c-3.89-5.93-7.78-11.87-11.67-17.8c-0.59-0.9-0.6-0.96,0.14-1.76
			c1.17-1.27,2.33-2.55,3.51-3.81c2.21-2.37,4.46-4.7,6.62-7.12c0.44-0.5,1.16-0.88,1.15-1.73c-0.02-1.62-0.03-3.23-0.01-4.85
			c0.01-0.46-0.14-0.59-0.6-0.59c-1.69,0.02-3.38,0.08-5.07-0.02c-0.98-0.06-1.62,0.32-2.12,1.05c-0.29,0.41-0.64,0.75-0.97,1.12
			c-0.98,1.08-1.96,2.15-2.94,3.24c-1.64,1.82-3.27,3.63-4.89,5.46c-1.1,1.24-2.16,2.52-3.3,3.71c-0.79,0.83-1.46,1.78-2.37,2.52
			c-0.17-0.19-0.1-0.37-0.1-0.53c-0.01-5.29-0.02-10.59,0-15.88c0-0.53-0.14-0.67-0.66-0.66c-2.86,0.02-5.72,0.03-8.58-0.01
			c-0.61-0.01-0.79,0.15-0.79,0.78c0.02,15.01,0.02,30.02,0.02,45.04c3.33,0,6.66,0,10,0c0-4.87,0.01-9.73-0.01-14.6
			c0-0.66,0.12-1.2,0.57-1.67c0.92-0.97,1.85-1.93,2.74-2.93c0.41-0.46,0.66-0.35,0.94,0.1c1.08,1.73,2.16,3.46,3.26,5.18
			c1.62,2.55,3.28,5.09,4.89,7.64c1.31,2.08,2.58,4.18,3.87,6.28c2.59,0,5.17,0,7.76,0c0-1.27-0.06-2.54,0.02-3.8
			c0.09-1.44-0.08-2.75-1.13-3.83C313.11,255.04,313.08,254.82,312.97,254.66z"/>
		<path class="st1" d="M211.29,256.79c-0.61-1.93-1.21-3.85-1.8-5.78c-1.34-4.39-2.66-8.78-3.99-13.16
			c-1.23-4.05-2.48-8.1-3.72-12.15c-0.82-2.69-1.64-5.38-2.47-8.06c-0.08-0.27-0.06-0.63-0.56-0.63c-4.05,0.02-8.11,0.02-12.16,0.01
			c-0.32,0-0.43,0.13-0.52,0.4c-0.79,2.64-1.59,5.29-2.4,7.93c-1.43,4.71-2.86,9.43-4.3,14.14c-1.53,5-3.07,9.99-4.59,14.98
			c-0.24,0.78-0.61,1.55-0.64,2.34c-0.09,2-0.01,4.01-0.18,6.01c2.74,0,5.47,0,8.21,0c0.85-2.96,1.7-5.91,2.55-8.87
			c0.22-0.76,0.23-1.75,0.72-2.19c0.43-0.38,1.42-0.13,2.16-0.13c3.65-0.01,7.31,0.01,10.96-0.01c0.59,0,0.83,0.13,0.99,0.75
			c0.92,3.42,1.92,6.82,2.88,10.23c0.02,0.07,0.01,0.15,0.02,0.22c2.98,0,5.97,0,8.95,0c0-1.74-0.01-3.48,0-5.22
			C211.41,257.31,211.37,257.05,211.29,256.79z M196.3,243.56c-2.63,0-5.26-0.02-7.9,0.02c-0.67,0.01-0.67-0.19-0.51-0.74
			c1.19-4.16,2.35-8.33,3.53-12.5c0.3-1.06,0.63-2.12,1-3.35c1.57,5.6,3.1,11.04,4.63,16.49
			C196.79,243.61,196.54,243.56,196.3,243.56z"/>
		<path class="st1" d="M171.88,217.76c0.01-0.56-0.12-0.76-0.73-0.76c-10.32,0.02-20.63,0.02-30.95,0c-0.55,0-0.72,0.14-0.71,0.7
			c0.03,2.24,0.04,4.47,0,6.71c-0.01,0.59,0.2,0.68,0.72,0.67c3.16-0.03,6.31-0.02,9.47-0.01c1.14,0,1-0.13,1,0.98
			c0.01,12.25,0.01,24.51,0.01,36.76c3.33,0,6.66,0,10,0c0-12.23,0-24.46,0-36.68c0-0.12,0.04-0.26-0.01-0.37
			c-0.26-0.67,0.13-0.69,0.63-0.69c3.28,0.01,6.56-0.01,9.84,0.01c0.53,0,0.74-0.1,0.73-0.69
			C171.85,222.18,171.85,219.97,171.88,217.76z"/>
		<path class="st1" d="M332.85,217c-2.86,0.04-5.72,0.04-8.57,0c-0.59-0.01-0.69,0.19-0.69,0.72c0.01,15.03,0.01,30.06,0.01,45.09
			c3.33,0,6.66,0,10,0c0-15.01,0-30.01,0.01-45.02C333.61,217.21,333.5,216.99,332.85,217z"/>
	</g>
	<path class="st0" d="M356.03,195.69c-7.06,0-14.12,0.01-21.18-0.02c-0.68,0-0.9,0.19-0.8,0.83c0.02,0.15-0.02,0.3,0,0.45
		c0.37,2.7-0.96,4.77-2.54,6.72c-2.29,2.85-5.36,4.47-8.82,5.47c-1.97,0.57-3.98,0.83-6.02,1.04c-1.59,0.16-3.17,0.15-4.75,0.1
		c-1.89-0.06-3.78-0.26-5.63-0.73c-0.44-0.11-0.63-0.32-0.62-0.82c0.03-2.06,0.03-4.13,0-6.19c-0.01-0.5,0.15-0.61,0.64-0.61
		c2.98,0.02,5.97,0.06,8.95-0.02c1.98-0.06,3.89-0.48,5.61-1.58c1.29-0.82,2.09-1.98,2.66-3.34c0.37-0.87,0.05-1.31-0.88-1.31
		c-2.29,0-4.58,0.07-6.86-0.01c-3.63-0.13-7.2-0.61-10.49-2.28c-2.78-1.41-5.04-3.42-6.69-6.09c-0.21-0.33-0.22-0.69-0.22-1.07
		c0-6.44,0.06-12.88-0.04-19.32c-0.03-1.67,0.52-2.98,1.48-4.2c1.83-2.31,4.08-4.12,6.72-5.42c2.1-1.03,4.34-1.52,6.66-1.78
		c1.49-0.16,2.98-0.16,4.46-0.11c4.13,0.14,7.92,1.25,11.23,3.85c1.94,1.53,3.65,3.21,4.8,5.42c0.26,0.51,0.35,1.01,0.35,1.57
		c-0.01,6.74,0,13.47-0.02,20.21c0,0.66,0.14,0.87,0.84,0.87c10.64-0.02,21.28-0.02,31.93,0c0.66,0,0.82-0.17,0.82-0.83
		c-0.02-9.72-0.01-19.44-0.03-29.16c0-0.64,0.19-0.78,0.8-0.77c2.98,0.03,5.97,0.04,8.95,0c0.62-0.01,0.74,0.19,0.74,0.75
		c-0.01,12.5-0.01,25.01,0.01,37.51c0,0.69-0.19,0.86-0.87,0.86C370.15,195.68,363.09,195.69,356.03,195.69z M323.6,177.65
		c0-2.88-0.02-5.77,0.01-8.65c0.01-0.63-0.15-1.17-0.48-1.67c-1.52-2.27-3.71-3.38-6.4-3.56c-2.33-0.15-4.47,0.46-6.22,2
		c-0.92,0.81-1.74,1.72-1.71,3.19c0.08,4.65,0.05,9.29,0.01,13.94c-0.01,0.84,0.35,1.4,0.88,1.93c1.73,1.76,3.93,2.39,6.3,2.46
		c2.26,0.07,4.52-0.02,6.78,0.03c0.72,0.02,0.84-0.24,0.84-0.89C323.59,183.51,323.6,180.58,323.6,177.65z"/>
	<path class="st0" d="M106.96,163.2c-0.01,0.29-0.21,0.42-0.36,0.57c-5.95,5.95-11.9,11.89-17.84,17.84
		c-2.46,2.46-4.92,4.9-7.36,7.37c-0.35,0.35-0.53,0.4-0.91,0.02c-7.27-7.3-14.56-14.58-21.85-21.86c-1.05-1.05-2.08-2.14-3.17-3.15
		c-0.54-0.5-0.57-0.78-0.02-1.33c4.59-4.54,9.15-9.11,13.71-13.67c3.76-3.76,7.52-7.51,11.26-11.28c0.5-0.5,0.76-0.43,1.22,0.03
		c8.29,8.32,16.6,16.62,24.9,24.92C106.7,162.82,106.93,162.95,106.96,163.2z"/>
	<path class="st1" d="M81.01,207.74c0.16,0.14,0.3,0.24,0.42,0.36c4.81,4.81,9.61,9.62,14.43,14.42c0.37,0.37,0.34,0.6-0.01,0.96
		c-4.61,4.59-9.21,9.18-13.81,13.78c-3.74,3.74-7.48,7.47-11.21,11.22c-0.7,0.7-0.69,0.72-1.41,0c-4.67-4.67-9.34-9.35-14.03-14
		c-0.47-0.46-0.47-0.72-0.01-1.17c5.86-5.82,11.71-11.66,17.55-17.5c2.53-2.53,5.04-5.06,7.57-7.59
		C80.66,208.03,80.83,207.9,81.01,207.74z"/>
	<g>
		<path class="st0" d="M364.65,143.39c0.03-0.88-0.38-1.51-1.04-2c-2.07-1.54-4.36-1.75-6.71-0.87c-1.44,0.55-2.7,1.39-2.43,3.48
			c0.04,0.32,0.01,0.64,0.01,0.97c0,0.52,0.05,1.05-0.01,1.56c-0.12,1.09,0.43,1.77,1.26,2.32c2.16,1.4,5.53,1.4,7.63-0.08
			c0.8-0.56,1.4-1.27,1.29-2.41C364.56,145.39,364.61,144.39,364.65,143.39z"/>
		<path class="st0" d="M378.06,145.16c0-0.66-0.05-1.19,0.01-1.7c0.1-0.88-0.35-1.49-0.93-1.99c-2.19-1.88-5.94-1.93-8.22-0.12
			c-0.54,0.43-1.01,0.95-1.01,1.72c0,1.31,0,2.63,0,3.94c0,0.36,0.13,0.65,0.38,0.93c1.78,1.95,4.02,2.22,6.44,1.73
			c1.35-0.27,2.52-0.86,3.16-2.17C378.29,146.72,377.94,145.85,378.06,145.16z"/>
	</g>
	<path class="st0" d="M288.83,169.93c0-0.24-0.02-0.48-0.11-0.72c-0.84-2.53-2.14-4.82-3.88-6.82c-1.98-2.29-4.47-3.86-7.31-4.9
		c-3.52-1.29-7.19-1.64-10.91-1.63c-0.48,0-0.96,0-1.65,0c0.98-0.82,1.77-1.49,2.57-2.15c1.7-1.42,3.4-2.83,5.1-4.25
		c1.4-1.16,2.83-2.28,4.18-3.5c0.78-0.7,1.74-1.21,2.34-2.11c0.19-0.21,0.11-0.47,0.11-0.71c0.01-1.43,0.02-2.86,0-4.28
		c-0.01-0.5,0.14-1.02-0.09-1.51c0-0.03-0.01-0.05-0.05-0.05c-0.08-0.12-0.21-0.11-0.33-0.11c-2.28,0.01-4.56,0.02-6.84,0.02
		c-0.77-0.03-1.12,0.55-1.58,1.03c-1.92,1.97-3.87,3.92-5.82,5.86c-4.21,4.21-8.42,8.41-12.65,12.61c-0.29,0.29-0.41,0.58-0.41,0.98
		c0.02,1.91,0.04,3.83,0,5.74c-0.01,0.62,0.15,0.8,0.78,0.8c3.8-0.03,7.61-0.01,11.41-0.02c1.54-0.01,3.06,0.09,4.58,0.3
		c3.68,0.52,6.79,1.99,8.75,5.3c0.77,1.31,1.43,2.62,1.38,4.28c-0.11,4.07-0.03,8.15-0.04,12.23c0,1.13,0.11,0.99-1,0.99
		c-16.81,0.01-33.62,0.01-50.42,0.01c-0.17,0-0.35,0-0.52-0.01c-1.65-0.09-3.22-0.48-4.57-1.47c-0.84-0.62-1.57-1.24-1.56-2.55
		c0.07-8.63,0.03-17.25,0.05-25.88c0-0.63-0.11-0.84-0.8-0.83c-2.96,0.04-5.92,0.04-8.88-0.01c-0.7-0.01-0.8,0.21-0.8,0.84
		c0.02,8.7,0,17.4,0.03,26.1c0,0.9-0.4,1.46-1.01,2c-1.55,1.37-3.47,1.77-5.41,1.78c-9.1,0.05-18.2,0.01-27.3,0.03
		c-0.64,0-0.77-0.2-0.76-0.8c0.02-5.2-0.03-10.39,0.04-15.59c0.02-1.69-0.36-3.19-1.07-4.69c-1.91-4.02-4.77-7.07-8.89-8.87
		c-3.19-1.39-6.58-1.81-10.01-1.94c-2.33-0.09-4.67-0.01-7.01-0.04c-0.53-0.01-0.66,0.16-0.66,0.67c0.03,2.31,0.03,4.62,0,6.94
		c-0.01,0.61,0.14,0.78,0.77,0.79c2.45,0.03,4.9-0.17,7.35,0.26c3.31,0.59,6.04,2.01,7.83,4.97c0.76,1.26,1.28,2.53,1.25,4.08
		c-0.09,4.37-0.03,8.75-0.03,13.13c0,1.09,0,1.09-1.06,1.09c-7.71,0-15.42,0.01-23.12-0.01c-0.59,0-0.75,0.14-0.74,0.73
		c0.04,2.24,0.06,4.48,0,6.71c-0.02,0.8,0.22,0.96,0.98,0.96c22.32-0.12,44.64,0.18,66.96-0.16c1.29-0.02,2.54-0.26,3.78-0.59
		c2.32-0.61,4.37-1.72,6.09-3.41c0.6,0.55,1.16,1.1,1.76,1.61c2.38,2.02,5.28,2.49,8.23,2.5c20.09,0.04,40.18,0.02,60.27,0.04
		c0.58,0,0.7-0.18,0.7-0.72C288.83,186.63,288.84,178.28,288.83,169.93z"/>
	<g>
		<path class="st1" d="M213.5,201.7c0.01-0.48-0.14-0.85-0.47-1.2c-2.25-2.34-6.52-2.53-8.97-0.36c-0.46,0.41-0.82,0.89-0.73,1.61
			c0.07,0.56,0.01,1.14,0.01,1.71c0,0.5,0.06,1-0.01,1.49c-0.15,1.09,0.34,1.78,1.22,2.32c2.32,1.43,4.71,1.44,7.12,0.33
			c1.22-0.56,2.05-1.45,1.85-3C213.4,203.65,213.48,202.67,213.5,201.7z"/>
		<path class="st1" d="M226.95,204.82c-0.12-1.05-0.04-2.13-0.02-3.2c0.01-0.32-0.04-0.61-0.23-0.84c-0.96-1.12-2.1-1.92-3.64-1.98
			c-0.81-0.25-1.62-0.25-2.43,0c-1.17,0.02-2.1,0.6-2.98,1.28c-0.68,0.53-0.96,1.17-0.9,2.06c0.08,1.09,0.05,2.18,0.01,3.27
			c-0.02,0.58,0.21,1.01,0.58,1.37c2.01,1.92,6.15,2.15,8.36,0.46C226.5,206.65,227.08,205.96,226.95,204.82z"/>
	</g>
</g>
</svg>
