<?xml version="1.0" encoding="utf-8"?>
<!-- Generator: Adobe Illustrator 26.0.1, SVG Export Plug-In . SVG Version: 6.00 Build 0)  -->
<svg version="1.1" id="Layer_1" xmlns="http://www.w3.org/2000/svg" xmlns:xlink="http://www.w3.org/1999/xlink" x="0px" y="0px"
	 viewBox="0 0 400 400" style="enable-background:new 0 0 400 400;" xml:space="preserve">
<style type="text/css">
	.st0{fill:#FFFFFF;}
	.st1{fill:#F4961B;}
	.st2{fill:#F6A118;}
	.st3{fill:#FAB513;}
	.st4{fill:#FFD405;}
	.st5{fill:url(#SVGID_1_);}
	.st6{fill:url(#SVGID_00000016044932931618203130000002962400950108877190_);}
</style>
<g>
	<path class="st0" d="M274.63,58.35c15.05,12.17,20.93,31.43,16.8,49.07l29.47-19.89c10.84,16.01,10.84,36.14,1.71,51.78
		l34.02-10.38c5.63,18.43-0.21,37.69-13.42,49.94h24.93c0.01,0,0.01,0,0.02,0c2.02,0.08,4.09,0.77,6.02,2.02
		c0.38,0.25,0.71,0.53,1.05,0.81c1.61,1.32,2.73,2.97,3.21,4.87c0,0.01,0,0.02,0,0.02c0.19,0.73,0.29,1.49,0.29,2.28
		c0,0.01,0,0.02,0,0.03v111.72c0,22.65-37.26,41.01-178.71,41.01c-140.31,0-178.73-18.37-178.73-41.01V189.42c0-0.01,0-0.03,0-0.04
		c0-0.88,0.14-1.78,0.44-2.71c0-0.01,0-0.03-0.01-0.04c0.03,0,0.03-0.01,0.03-0.03c0,0,0,0,0,0c0.21-0.66,0.5-1.34,0.89-2.02
		c1.98-3.5,4.98-5.41,8.54-5.46h0.35c0.09,0,0.19,0.01,0.29,0.02h25.25c-13.42-12.22-19.39-31.6-13.72-50.19l34.02,10.38
		c-9.13-15.63-9.09-35.77,1.71-51.78l29.43,19.84c-4.09-17.63,1.83-36.85,16.84-49.03l74.67,92.17L274.63,58.35 M21.38,190.67
		c-0.01-0.07-0.03-0.13-0.03-0.2C21.35,190.53,21.37,190.6,21.38,190.67 M21.62,191.82c-0.03-0.11-0.06-0.21-0.09-0.32
		C21.56,191.61,21.59,191.72,21.62,191.82 M21.96,192.9c-0.04-0.12-0.09-0.24-0.13-0.36C21.87,192.66,21.91,192.78,21.96,192.9
		 M376.57,195.68c0.01-0.02,0.03-0.04,0.04-0.06c0.47-0.76,0.82-1.52,1.13-2.26c-0.31,0.75-0.67,1.5-1.13,2.26
		C376.6,195.64,376.59,195.66,376.57,195.68 M22.31,193.76c0.03,0.06,0.06,0.12,0.08,0.18C22.37,193.88,22.34,193.82,22.31,193.76
		c-0.03-0.07-0.06-0.14-0.1-0.21C22.25,193.62,22.28,193.69,22.31,193.76 M22.92,194.96c-0.08-0.14-0.15-0.28-0.23-0.42
		C22.76,194.68,22.84,194.82,22.92,194.96 M23.37,195.74c0.05,0.08,0.1,0.16,0.15,0.24C23.47,195.9,23.42,195.82,23.37,195.74
		c-0.05-0.08-0.1-0.16-0.15-0.24C23.28,195.58,23.33,195.66,23.37,195.74 M23.96,196.65c0.08,0.12,0.16,0.24,0.25,0.36
		C24.12,196.88,24.04,196.76,23.96,196.65c-0.05-0.08-0.1-0.16-0.16-0.24C23.86,196.49,23.91,196.57,23.96,196.65"/>
	<g>
		<path class="st1" d="M199.84,227.65v0.25H68.48c-20.3,0-37.6-12.84-44.23-30.85c-1.21-3.29-2.08-6.8-2.54-10.42
			c0.04,0,0.04,0,0.04-0.04c0.21-0.67,0.5-1.33,0.88-2c1.96-3.5,5-5.42,8.55-5.46h25.89c5.17,4.84,11.51,8.55,18.68,10.76
			l123.98,37.9L199.84,227.65z"/>
		<path class="st1" d="M199.84,226.19v1.13c0,0.04,0,0.04,0,0.08v0.25l-0.13,0.13l-123.98-37.9c-7.17-2.21-13.51-5.92-18.68-10.76
			h95.68c2.79,0,5.54,0.25,8.21,0.75c6.5,1.08,12.51,3.59,17.8,7.09c1.17,0.75,2.29,1.58,3.42,2.5c0.71,0.54,1.42,1.13,2.08,1.71
			c2.92,2.67,5.54,5.67,7.67,9c2.79,4.13,4.92,8.71,6.21,13.59v0.04c0.33,1.13,0.63,2.21,0.83,3.38
			C199.55,220.1,199.84,223.11,199.84,226.19z"/>
		<path class="st2" d="M127.6,179.12H57.06c-13.42-12.22-19.39-31.6-13.72-50.19l34.02,10.38c3.54,6.21,8.55,11.71,14.88,15.97
			L127.6,179.12z"/>
		<path class="st2" d="M201.85,214.14c0,0.04,0,0.08,0,0.08c0,3.71-0.5,7.38-1.5,11.09c0,0.04,0,0.04,0,0.08
			c-0.08,0.46-0.21,0.92-0.33,1.38v0.04c-0.04,0.13-0.08,0.21-0.13,0.33c0,0.04,0,0.13-0.04,0.17c0,0.04,0,0.04,0,0.08
			c-0.04,0-0.04,0-0.04,0c0,0.13-0.04,0.25-0.08,0.38l-123.98-37.9c-7.17-2.21-13.51-5.92-18.68-10.76h70.54l-35.35-23.85
			c-6.34-4.25-11.34-9.76-14.88-15.97l67.41,20.64l22.55,6.88c6.34,1.96,12.01,5.04,16.84,9.09c3.79,3.13,7.09,6.79,9.71,10.88v0.04
			c2.75,4.13,4.79,8.63,6.13,13.38C201.3,204.68,201.93,209.39,201.85,214.14z"/>
		<path class="st3" d="M144.77,159.95l-67.41-20.64c-9.13-15.63-9.09-35.77,1.71-51.78l29.43,19.84c1.63,6.96,4.79,13.67,9.63,19.64
			L144.77,159.95z"/>
		<path class="st3" d="M208.1,200.18c0.04,9.13-2.46,18.39-7.75,26.6c-0.04,0.13-0.13,0.25-0.25,0.38c0,0.08-0.04,0.17-0.08,0.21
			c-0.04,0.04-0.08,0.08-0.08,0.13c-0.04,0.04-0.04,0.04-0.08,0.08c-0.04,0.08-0.08,0.13-0.13,0.21l-72.12-48.65l-35.35-23.85
			c-6.34-4.25-11.34-9.76-14.88-15.97l67.41,20.64l-26.64-32.93c-4.84-5.96-8-12.67-9.63-19.64l78.08,52.65
			c1.29,0.88,2.54,1.79,3.71,2.79c3.84,3.13,7.09,6.8,9.71,10.76c2.71,4.09,4.75,8.55,6.13,13.22
			C207.39,191.13,208.06,195.63,208.1,200.18z"/>
		<path class="st4" d="M200.01,150.52l-6.96,8.59c-1,1.21-1.88,2.46-2.75,3.71c-1.17-1-2.42-1.92-3.71-2.79l-78.08-52.65
			c-4.09-17.63,1.83-36.85,16.84-49.03L200.01,150.52z"/>
		<path class="st4" d="M217.81,189.38c0.08,8.55-2.08,17.09-6.42,24.64l-0.04,0.04c-2.5,4.42-5.75,8.5-9.71,12.01l-0.13,0.13
			c-0.37,0.38-0.75,0.71-1.17,1.04c-0.04,0.08-0.08,0.12-0.17,0.17c-0.04,0.04-0.08,0.04-0.12,0.08c0,0.04,0,0.04-0.04,0.04
			c-0.04,0.04-0.13,0.08-0.17,0.13l-0.13,0.13l-1.17-1.5c-0.04,0-0.04,0-0.08-0.08l-9.88-12.17v-0.04l-27.64-34.1l-16.17-19.93
			l-26.64-32.93c-4.84-5.96-8-12.67-9.63-19.64l78.08,52.65c1.29,0.88,2.54,1.79,3.71,2.79c0.88-1.25,1.75-2.5,2.75-3.71l6.96-8.59
			l6.96,8.59c1,1.21,1.92,2.46,2.71,3.75c2.75,4.13,4.79,8.5,6.13,13.05C217.1,180.33,217.77,184.84,217.81,189.38z"/>
		<path class="st1" d="M378.44,186.59c-0.46,3.42-1.25,6.75-2.38,9.92c-6.55,18.18-23.93,31.18-44.36,31.18H200.55l123.69-37.81
			c7.34-2.25,13.72-6.04,18.97-11.01h24.93c2.04,0.08,4.13,0.79,6.05,2.04C376.4,182.33,377.86,184.29,378.44,186.59z"/>
		<path class="st1" d="M343.21,178.87c-5.25,4.96-11.63,8.75-18.97,11.01l-123.69,37.81h-0.21v-2.29c0-0.04,0-0.04,0-0.08
			c0.04-2.79,0.33-5.5,0.83-8.13c0.17-1,0.42-1.96,0.67-2.96c0,0,0-0.04,0-0.08c1.29-5.04,3.42-9.76,6.25-13.97
			c2.38-3.67,5.25-7,8.59-9.88c0.38-0.33,0.75-0.63,1.13-0.92c0.79-0.67,1.63-1.33,2.5-1.92c5.54-3.92,11.97-6.67,18.93-7.84
			c2.67-0.5,5.42-0.75,8.21-0.75H343.21z"/>
		<path class="st2" d="M343.21,178.87h-70.45l34.98-23.6c6.34-4.25,11.34-9.76,14.88-15.97l34.02-10.38
			C362.27,147.36,356.43,166.62,343.21,178.87z"/>
		<path class="st2" d="M343.21,178.87c-5.25,4.96-11.63,8.75-18.97,11.01l-123.69,37.81l-0.29,0.08c-0.04-0.13-0.08-0.25-0.08-0.38
			c-0.04-0.08-0.08-0.17-0.08-0.25c-0.04-0.13-0.08-0.21-0.08-0.33v-0.04c-0.08-0.17-0.13-0.38-0.17-0.54v-0.04
			c-1.17-4.13-1.67-8.25-1.71-12.38v-0.04c-0.04-4.63,0.58-9.17,1.88-13.55c1.33-4.75,3.38-9.3,6.13-13.42
			c2.63-4.09,5.88-7.75,9.67-10.88c4.84-4,10.51-7.13,16.84-9.09l22.55-6.88l67.41-20.64c-3.54,6.21-8.55,11.71-14.88,15.97
			l-34.98,23.6H343.21z"/>
		<path class="st3" d="M322.62,139.31l-67.41,20.64l26.64-32.93c4.79-5.92,8-12.63,9.59-19.59l29.47-19.89
			C331.75,103.54,331.75,123.68,322.62,139.31z"/>
		<path class="st3" d="M322.62,139.31c-3.54,6.21-8.55,11.71-14.88,15.97l-34.98,23.6l-72.37,48.82h-0.04l-0.08,0.08
			c-0.04-0.04-0.08-0.08-0.12-0.13c0-0.04-0.04-0.13-0.08-0.17c0-0.04-0.04-0.08-0.04-0.13c-0.08-0.04-0.13-0.12-0.13-0.21
			c0,0-0.04,0-0.04-0.04c-5.46-8.3-8-17.68-7.92-26.93c0.04-4.54,0.71-9,1.96-13.34v-0.04c1.38-4.67,3.42-9.09,6.13-13.22
			c2.58-3.96,5.84-7.59,9.67-10.71c1.21-1,2.46-1.96,3.75-2.83l78-52.61c-1.58,6.96-4.79,13.67-9.59,19.59l-26.64,32.93
			L322.62,139.31z"/>
		<path class="st4" d="M291.44,107.42l-78,52.61c-1.29,0.88-2.54,1.83-3.75,2.83c-0.79-1.29-1.71-2.54-2.71-3.75l-6.96-8.59
			l74.62-92.17C289.68,70.52,295.56,89.78,291.44,107.42z"/>
		<path class="st4" d="M291.44,107.42c-1.58,6.96-4.79,13.67-9.59,19.59l-26.64,32.93l-15.97,19.68l-27.85,34.39l-0.04,0.04
			l-9.71,12.01l-0.13,0.13l-1.17,1.5l-0.08,0.08c-0.04-0.04-0.08-0.08-0.12-0.13c-0.04,0-0.08-0.08-0.13-0.13
			c-0.04,0-0.08,0-0.08-0.04c-0.04,0-0.08-0.08-0.08-0.08c-0.04,0-0.04,0-0.04,0c-0.42-0.38-0.83-0.71-1.25-1.13
			c-0.04,0-0.04,0-0.08-0.08c-4.04-3.54-7.34-7.67-9.88-12.17v-0.04c-4.29-7.5-6.46-16.01-6.42-24.51c0.04-4.54,0.71-9.13,2-13.55
			c1.38-4.54,3.38-8.96,6.13-13.09c0.88-1.25,1.75-2.5,2.75-3.71l6.96-8.59l6.96,8.59c1,1.21,1.92,2.46,2.71,3.75
			c1.21-1,2.46-1.96,3.75-2.83L291.44,107.42z"/>
		<linearGradient id="SVGID_1_" gradientUnits="userSpaceOnUse" x1="199.9999" y1="176.6486" x2="199.9999" y2="351.6266">
			<stop  offset="0.1445" style="stop-color:#2A327D"/>
			<stop  offset="0.6057" style="stop-color:#3561AB"/>
			<stop  offset="0.938" style="stop-color:#42A9E0"/>
		</linearGradient>
		<path class="st5" d="M378.72,188.89v111.75c0,22.65-37.26,41.01-178.71,41.01c-140.31,0-178.73-18.37-178.73-41.01V189.39
			c0,2.97,1.5,5.72,3.47,8.37c16.71,22.58,48.99,24.4,70.33,9.56c6.62-4.6,12.03-10.88,18.26-16.07
			c13.81-11.5,24.62-11.39,38.31,0.02c6.08,5.06,12.3,9.97,18.34,15.09c18.35,15.55,43.79,13.53,61.24-0.67
			c7.06-5.74,13.61-12.11,20.59-17.95c8.04-6.74,17.09-7.5,25.82-2.02c6.63,4.17,12.88,9.18,18.49,14.64
			c10.72,10.42,23.1,16.38,38.74,16.6c2.54-0.29,5.76-0.39,8.84-1.08c13.27-3,25.42-8.04,32.91-20.28
			C378.04,193.28,378.72,190.99,378.72,188.89z"/>
		<g>
			<path class="st0" d="M37.5,263.66c0-4.25,1.21-7.47,3.62-9.67c1.89-1.7,4.38-2.56,7.47-2.58c3.55,0,6.32,1.16,8.29,3.47
				c1.8,2.09,2.71,4.92,2.73,8.49c0,2.59-0.33,4.66-0.99,6.22c-0.83,1.99-2.08,3.52-3.72,4.59c-1.77,1.19-3.89,1.79-6.35,1.79
				c-3.45,0-6.16-1.1-8.11-3.29C38.48,270.5,37.5,267.49,37.5,263.66z M40.23,243.18c0-0.97,0.37-1.82,1.1-2.55
				c0.7-0.7,1.53-1.05,2.5-1.05c0.93,0,1.78,0.35,2.53,1.05c0.73,0.73,1.1,1.58,1.1,2.55c0,0.97-0.37,1.8-1.1,2.5
				c-0.73,0.73-1.57,1.1-2.53,1.1c-0.94,0-1.77-0.35-2.5-1.05C40.6,245,40.23,244.15,40.23,243.18z M44.31,263.66
				c0,4.22,1.43,6.32,4.29,6.3c2.92,0,4.39-2.08,4.39-6.25c0-4.18-1.46-6.28-4.39-6.28C45.74,257.44,44.31,259.51,44.31,263.66z
				 M49.65,243.18c0-0.97,0.37-1.82,1.1-2.55c0.7-0.7,1.53-1.05,2.5-1.05c0.93,0,1.77,0.35,2.5,1.05c0.73,0.73,1.1,1.58,1.1,2.55
				c0,0.97-0.37,1.8-1.1,2.5c-0.73,0.73-1.57,1.1-2.5,1.1c-0.94,0-1.77-0.35-2.5-1.05C50.01,245,49.65,244.15,49.65,243.18z"/>
			<path class="st0" d="M107.76,251.31v14.9c0,3.09-0.98,5.51-2.91,7.27c-1.89,1.67-4.43,2.5-7.63,2.5H64.19l3.98-6.12h11.91v-7.35
				c0-1.49-0.49-2.68-1.45-3.57c-0.87-0.79-1.97-1.2-3.29-1.2c-2.26,0-4.6,1.27-7.02,3.78v-6.33c2.59-2.35,5.45-3.54,8.57-3.54
				c2.7,0,4.93,0.82,6.74,2.45c2.12,1.89,3.19,4.4,3.19,7.54v8.24H97c2.68,0,4.03-1.32,4.03-3.95v-12.4L107.76,251.31z"/>
			<path class="st0" d="M101.43,242.58v-1.24c0-0.58,0.21-1.1,0.65-1.56c0.37-0.42,0.78-0.63,1.24-0.63c0.7,0,1.35,0.32,1.94,0.94
				l2.78-2.94c-1.48-1.39-3.11-2.09-4.87-2.09c-0.87,0.03-1.69,0.19-2.46,0.49c-1.39,0.63-2.41,1.77-3.03,3.44
				c-0.28,0.83-0.45,2.04-0.52,3.6h-1.93l-2.41,4.09h15.37v-4.09H101.43z"/>
			<path class="st0" d="M113.88,275.98v-32.07l6.79-2.19v34.26H113.88z"/>
			<path class="st0" d="M165.14,241.73v24.49c0,3.09-0.98,5.51-2.91,7.27c-1.89,1.67-4.43,2.5-7.63,2.5h-10.82
				c-0.34,1.8-0.78,3.17-1.31,4.13c-0.99,1.77-2.39,3.17-4.18,4.19c-2.06,1.19-4.3,1.77-6.73,1.76c-1.47,0-3.04-0.24-4.75-0.71
				c-0.87-0.28-1.71-0.61-2.5-0.99l-3.04-6.86c2.76,1.76,5.65,2.66,8.67,2.67c2.09,0,3.8-0.66,5.1-1.98
				c1.43-1.4,2.14-3.28,2.14-5.65v-17.44l6.76-2.19v16.97h10.41c2.7,0,4.03-1.32,4.03-3.95v-21.99L165.14,241.73z"/>
			<path class="st0" d="M171.25,275.98v-32.07l6.79-2.19v34.26H171.25z"/>
			<path class="st0" d="M200.94,240.88c-0.74-0.7-1.59-1.04-2.53-1.04c-0.97,0-1.8,0.34-2.5,1.04c-0.73,0.73-1.1,1.59-1.1,2.55
				c0,0.97,0.37,1.82,1.1,2.55c0.73,0.7,1.57,1.04,2.5,1.04c0.95,0,1.8-0.37,2.53-1.1c0.74-0.7,1.1-1.53,1.1-2.5
				C202.04,242.47,201.68,241.61,200.94,240.88z M210.33,240.88c-0.73-0.7-1.56-1.04-2.5-1.04c-0.97,0-1.8,0.34-2.5,1.04
				c-0.73,0.73-1.1,1.59-1.1,2.55c0,0.97,0.37,1.82,1.1,2.55c0.73,0.7,1.56,1.04,2.5,1.04c0.94,0,1.77-0.37,2.5-1.1
				c0.73-0.7,1.1-1.53,1.1-2.5C211.43,242.47,211.06,241.61,210.33,240.88z"/>
			<path class="st0" d="M231.79,281.72c-0.74-0.7-1.57-1.04-2.5-1.04c-0.98,0-1.81,0.34-2.5,1.04c-0.74,0.74-1.1,1.6-1.1,2.58
				c0,0.97,0.36,1.81,1.1,2.55c0.73,0.69,1.56,1.04,2.5,1.04c0.93,0,1.76-0.37,2.5-1.1c0.73-0.7,1.1-1.53,1.1-2.5
				C232.89,283.31,232.52,282.45,231.79,281.72z M222.41,281.72c-0.75-0.7-1.6-1.04-2.53-1.04c-0.98,0-1.81,0.34-2.5,1.04
				c-0.74,0.74-1.1,1.6-1.1,2.58c0,0.97,0.36,1.81,1.1,2.55c0.73,0.69,1.56,1.04,2.5,1.04c0.95,0,1.79-0.37,2.53-1.1
				c0.73-0.7,1.1-1.53,1.1-2.5C223.5,283.31,223.13,282.45,222.41,281.72z"/>
			<path class="st0" d="M253.57,242.08c-0.73-0.7-1.56-1.04-2.5-1.04c-0.98,0-1.82,0.34-2.53,1.04c-0.73,0.73-1.1,1.57-1.1,2.55
				c0,0.97,0.37,1.82,1.1,2.58c0.75,0.69,1.59,1.04,2.53,1.04c0.94,0,1.77-0.37,2.5-1.1c0.74-0.71,1.1-1.56,1.1-2.53
				C254.67,243.66,254.31,242.81,253.57,242.08z"/>
			<path class="st0" d="M299.6,261.82c-0.99-3.11-2.7-5.55-5.13-7.33c-2.33-1.67-5.05-2.5-8.15-2.5c-2.82,0-5.54,0.83-8.16,2.5
				c-1.49,0.99-2.92,2.23-4.28,3.73v-15.59l-6.73,2.05v25.18h-8.29c-1.27,0.01-2.25-0.28-2.94-0.87c-0.74-0.7-1.1-1.69-1.1-2.99
				v-13.1l-6.74,2.19v10.82c0,2.63-1.28,3.95-3.87,3.95h-6.51c-1.26,0.01-2.23-0.28-2.94-0.87c-0.73-0.7-1.1-1.69-1.1-2.99v-13.1
				l-6.73,2.19v10.82c0,2.63-1.3,3.95-3.87,3.95h-6.51c-1.26,0.01-2.23-0.29-2.94-0.93c-0.73-0.66-1.1-1.64-1.1-2.94V251.7h-10.18
				c-3.33,0-5.95,0.89-7.88,2.66c-2.31,2.09-3.46,5.21-3.46,9.36c0,3.89,0.97,6.9,2.88,9.03c1.86,2.16,4.48,3.24,7.83,3.24
				c1.82,0,3.45-0.36,4.88-1.04c0.83-0.42,1.71-1.06,2.64-1.89c2.23,1.96,4.51,2.94,6.84,2.94h7.33c2.67,0,5-0.86,6.99-2.55
				c1.97,1.69,4.24,2.55,6.84,2.55h7.31c2.67,0,5-0.86,6.99-2.55c1.97,1.69,4.24,2.55,6.84,2.55h42.17v-7.52
				C300.54,266.03,300.22,263.82,299.6,261.82z M205.74,263.66c0,0.48-0.05,1.04-0.16,1.71c-0.15,1.11-0.33,1.9-0.53,2.41
				c-0.6,1.39-1.69,2.09-3.29,2.09c-1.63,0-2.75-0.71-3.35-2.14c-0.41-0.98-0.61-2.31-0.61-4.01c0-1.89,0.26-3.32,0.82-4.28
				c0.73-1.26,2.02-1.89,3.87-1.89h3.24V263.66z M273.99,269.86c0.24-1.23,0.5-2.17,0.78-2.8c0.6-1.57,1.55-3.08,2.84-4.55
				c2.51-2.86,5.38-4.28,8.62-4.28c3.69,0,6.03,2.31,7.03,6.94c0.24,1.1,0.41,2.67,0.52,4.69H273.99z"/>
			<path class="st0" d="M342.15,243.92v21.99c0,2.63-1.35,3.95-4.03,3.95h-8.75v-4.91c0-3.72-0.65-6.72-1.94-8.98
				c-1.88-3.21-5-4.81-9.36-4.81c-2.16,0.01-4.07,0.5-5.74,1.48c-1.6,0.9-2.88,2.19-3.85,3.9c-1.23,2.12-1.84,4.52-1.84,7.22
				c0,3.76,1.15,6.78,3.45,9.07c2.09,2.1,4.73,3.15,7.92,3.15h4.5c-0.41,1.18-0.98,2.05-1.71,2.64c-1.14,1.03-2.67,1.53-4.59,1.53
				c-3.32-0.01-6.37-0.91-9.16-2.67l3.04,6.86c0.79,0.38,1.67,0.71,2.59,0.99c1.82,0.48,3.5,0.71,5.02,0.71
				c2.3,0,4.38-0.54,6.23-1.61c1.71-0.98,3.01-2.37,3.95-4.13c0.58-1,1.02-2.45,1.32-4.34h9.14c3.2,0,5.74-0.83,7.63-2.5
				c1.94-1.76,2.91-4.18,2.91-7.27v-24.49L342.15,243.92z M322.69,269.86h-4.68c-1.14,0-2.1-0.37-2.9-1.1
				c-1.16-1.11-1.75-2.76-1.75-4.95c0-1.96,0.45-3.58,1.36-4.88c0.86-1.2,1.96-1.81,3.28-1.81c1.16,0,2.14,0.46,2.94,1.4
				c0.95,1.06,1.52,2.47,1.69,4.23c0.03,0.41,0.05,1.19,0.05,2.35V269.86z"/>
			<path class="st0" d="M355,275.98v-32.07l6.79-2.19v34.26H355z"/>
		</g>
		
			<linearGradient id="SVGID_00000171713821785495969340000003446411413166332088_" gradientUnits="userSpaceOnUse" x1="360.0492" y1="178.7565" x2="24.2329" y2="206.3448">
			<stop  offset="0.1445" style="stop-color:#65B334"/>
			<stop  offset="0.938" style="stop-color:#4DAD33"/>
		</linearGradient>
		<path style="fill:url(#SVGID_00000171713821785495969340000003446411413166332088_);" d="M378.72,188.89
			c0,2.11-0.68,4.4-2.11,6.73c-0.18,0.3-0.37,0.59-0.56,0.88c-7.52,11.6-19.41,16.47-32.35,19.41c-3.08,0.69-6.3,0.78-8.84,1.07
			c-15.64-0.22-28.02-6.17-38.74-16.6c-5.61-5.46-11.86-10.47-18.49-14.64c-8.73-5.48-17.77-4.73-25.82,2.02
			c-6.97,5.83-13.53,12.2-20.59,17.95c-8.66,7.05-19.29,11.09-30.06,11.47c-0.73,0.04-1.45,0.04-2.18,0.03h-0.02
			c-10.18-0.11-20.36-3.53-28.98-10.84c-6.04-5.12-12.26-10.02-18.34-15.09c-13.69-11.41-24.5-11.52-38.31-0.02
			c-6.23,5.19-11.64,11.47-18.26,16.07c-21.33,14.84-53.61,13.02-70.32-9.56c-0.14-0.19-0.28-0.38-0.42-0.57
			c-0.02-0.04-0.06-0.08-0.08-0.12c-1.73-2.44-2.97-4.97-2.97-7.69c0-0.89,0.14-1.81,0.45-2.76c0.01-0.01,0.01-0.02,0.01-0.03
			c0.2-0.66,0.5-1.34,0.89-2.02c1.97-3.5,4.98-5.41,8.54-5.46h0.35c0.69,0.01,1.4,0.09,2.13,0.24c2.46,0.5,5.46,2.09,6.71,4.11
			c10.13,16.51,35.71,14.53,48.15,2.31c2.3-2.26,4.69-4.51,7.17-6.66c0.04-0.03,0.07-0.07,0.11-0.1
			c5.89-5.14,12.25-9.79,19.06-13.15c17.57-8.64,34.45-4.11,49.42,7.69c4.96,3.92,9.34,8.59,13.97,12.94
			c0.04,0.04,0.07,0.07,0.11,0.1c0.13,0.12,0.26,0.24,0.4,0.36c1.79,1.65,3.62,3.06,5.48,4.25c0.12,0.08,0.25,0.16,0.38,0.24
			c10.39,6.53,21.59,6.19,32.09-1.14c1.22-0.84,2.43-1.79,3.63-2.83c0.02-0.02,0.04-0.04,0.07-0.06c4.48-3.89,8.46-8.36,12.94-12.29
			c10.53-9.25,21.6-13.88,32.83-13.88c10.3,0,20.72,3.91,30.93,11.74c2.47,1.89,4.9,3.86,7.27,5.91c2.74,2.37,5.4,4.85,7.88,7.47
			c11.61,12.21,37.22,12.67,46.84-2.38c2.17-3.38,5.24-5.02,8.46-5.09h0.61c2.02,0.08,4.09,0.77,6.02,2.02
			c2.22,1.44,3.68,3.4,4.25,5.68C378.62,187.31,378.72,188.08,378.72,188.89z"/>
		<g>
			<path class="st0" d="M95.72,309.69c-0.33,0-0.6-0.08-0.81-0.23c-0.21-0.15-0.34-0.36-0.39-0.62c-0.05-0.26,0-0.55,0.15-0.87
				l4.56-10c0.19-0.4,0.42-0.7,0.68-0.88c0.26-0.18,0.56-0.28,0.91-0.28c0.34,0,0.65,0.09,0.91,0.28c0.26,0.18,0.48,0.48,0.66,0.88
				l4.6,10c0.15,0.32,0.21,0.62,0.17,0.88c-0.04,0.27-0.16,0.48-0.37,0.62c-0.2,0.15-0.46,0.22-0.78,0.22c-0.4,0-0.72-0.1-0.94-0.29
				c-0.22-0.19-0.41-0.49-0.58-0.89l-1.07-2.48l1.11,0.77H97.1l1.11-0.77l-1.05,2.48c-0.18,0.42-0.37,0.72-0.56,0.9
				C96.39,309.6,96.1,309.69,95.72,309.69z M100.79,299.9l-2.28,5.44l-0.48-0.7h5.58l-0.48,0.7l-2.3-5.44H100.79z"/>
			<path class="st0" d="M110.11,309.53c-0.45,0-0.8-0.12-1.04-0.37c-0.24-0.25-0.37-0.59-0.37-1.03v-9.79
				c0-0.46,0.12-0.81,0.36-1.05c0.24-0.24,0.58-0.36,1.03-0.36c0.44,0,0.78,0.12,1.02,0.36c0.24,0.24,0.36,0.59,0.36,1.05v8.86h4.78
				c0.38,0,0.67,0.1,0.88,0.3c0.21,0.2,0.31,0.49,0.31,0.86c0,0.38-0.1,0.67-0.31,0.87c-0.21,0.2-0.5,0.3-0.88,0.3H110.11z"/>
			<path class="st0" d="M121.58,309.69c-0.38,0-0.69-0.09-0.93-0.28c-0.24-0.18-0.43-0.47-0.57-0.85l-3.6-10.13
				c-0.15-0.45-0.12-0.84,0.1-1.16c0.22-0.32,0.6-0.48,1.15-0.48c0.38,0,0.67,0.09,0.88,0.27c0.21,0.18,0.38,0.46,0.51,0.84
				l2.94,8.75h-0.77l3.1-8.74c0.14-0.38,0.32-0.66,0.53-0.85c0.21-0.18,0.48-0.28,0.83-0.28c0.33,0,0.6,0.09,0.8,0.28
				c0.2,0.18,0.37,0.47,0.52,0.86l2.96,8.72h-0.66l3-8.75c0.12-0.37,0.29-0.64,0.5-0.83c0.21-0.18,0.51-0.28,0.87-0.28
				c0.46,0,0.8,0.16,1.02,0.48c0.21,0.32,0.24,0.71,0.07,1.16l-3.64,10.15c-0.13,0.37-0.31,0.64-0.53,0.83
				c-0.23,0.18-0.53,0.28-0.93,0.28c-0.38,0-0.68-0.09-0.91-0.28c-0.23-0.18-0.41-0.47-0.55-0.85l-2.82-7.97h0.43l-2.85,7.99
				c-0.14,0.37-0.32,0.64-0.54,0.83C122.26,309.6,121.96,309.69,121.58,309.69z"/>
			<path class="st0" d="M136.04,309.69c-0.33,0-0.6-0.08-0.81-0.23c-0.21-0.15-0.34-0.36-0.39-0.62c-0.05-0.26,0-0.55,0.15-0.87
				l4.56-10c0.19-0.4,0.42-0.7,0.68-0.88c0.26-0.18,0.56-0.28,0.91-0.28c0.34,0,0.65,0.09,0.91,0.28c0.26,0.18,0.48,0.48,0.66,0.88
				l4.6,10c0.15,0.32,0.21,0.62,0.17,0.88c-0.04,0.27-0.16,0.48-0.37,0.62c-0.2,0.15-0.46,0.22-0.78,0.22c-0.4,0-0.72-0.1-0.94-0.29
				c-0.22-0.19-0.41-0.49-0.58-0.89l-1.07-2.48l1.11,0.77h-7.44l1.11-0.77l-1.05,2.48c-0.18,0.42-0.37,0.72-0.56,0.9
				S136.42,309.69,136.04,309.69z M141.1,299.9l-2.28,5.44l-0.48-0.7h5.58l-0.48,0.7l-2.3-5.44H141.1z"/>
			<path class="st0" d="M152,309.69c-0.45,0-0.8-0.12-1.03-0.37c-0.24-0.25-0.36-0.6-0.36-1.05v-9.02h-3.16
				c-0.37,0-0.65-0.1-0.86-0.3c-0.2-0.2-0.3-0.48-0.3-0.84c0-0.37,0.1-0.65,0.3-0.85c0.2-0.2,0.49-0.29,0.86-0.29h9.08
				c0.37,0,0.65,0.1,0.86,0.29c0.2,0.2,0.3,0.48,0.3,0.85c0,0.36-0.1,0.64-0.3,0.84c-0.2,0.2-0.49,0.3-0.86,0.3h-3.16v9.02
				c0,0.45-0.12,0.8-0.35,1.05C152.79,309.56,152.45,309.69,152,309.69z"/>
			<path class="st0" d="M157.74,309.69c-0.33,0-0.6-0.08-0.81-0.23c-0.21-0.15-0.34-0.36-0.39-0.62s0-0.55,0.15-0.87l4.56-10
				c0.19-0.4,0.42-0.7,0.68-0.88c0.26-0.18,0.56-0.28,0.91-0.28c0.34,0,0.65,0.09,0.91,0.28c0.26,0.18,0.48,0.48,0.66,0.88l4.6,10
				c0.15,0.32,0.21,0.62,0.17,0.88c-0.04,0.27-0.16,0.48-0.37,0.62c-0.2,0.15-0.46,0.22-0.78,0.22c-0.4,0-0.72-0.1-0.94-0.29
				c-0.22-0.19-0.41-0.49-0.58-0.89l-1.07-2.48l1.11,0.77h-7.44l1.11-0.77l-1.05,2.48c-0.18,0.42-0.37,0.72-0.56,0.9
				S158.12,309.69,157.74,309.69z M162.8,299.9l-2.28,5.44l-0.48-0.7h5.58l-0.48,0.7l-2.3-5.44H162.8z"/>
			<path class="st0" d="M172,309.69c-0.42,0-0.73-0.12-0.95-0.35c-0.22-0.23-0.33-0.56-0.33-0.99v-10.16c0-0.45,0.11-0.8,0.33-1.03
				c0.22-0.24,0.51-0.36,0.88-0.36c0.32,0,0.57,0.06,0.74,0.19c0.17,0.12,0.37,0.33,0.6,0.62l6.26,7.97h-0.48v-7.45
				c0-0.42,0.11-0.74,0.33-0.97c0.22-0.23,0.54-0.35,0.95-0.35c0.42,0,0.73,0.12,0.95,0.35c0.22,0.23,0.33,0.56,0.33,0.97v10.29
				c0,0.39-0.1,0.7-0.3,0.94c-0.2,0.23-0.48,0.35-0.82,0.35c-0.33,0-0.6-0.07-0.79-0.2c-0.2-0.13-0.41-0.34-0.63-0.62l-6.24-7.97
				h0.46v7.45c0,0.43-0.11,0.76-0.32,0.99C172.75,309.57,172.43,309.69,172,309.69z"/>
			<path class="st0" d="M185.45,309.69c-0.45,0-0.8-0.12-1.03-0.37c-0.24-0.25-0.36-0.6-0.36-1.05v-10.04c0-0.45,0.12-0.8,0.36-1.05
				c0.24-0.25,0.58-0.37,1.03-0.37c0.44,0,0.78,0.12,1.02,0.37c0.24,0.25,0.36,0.6,0.36,1.05v10.04c0,0.45-0.12,0.8-0.35,1.05
				C186.24,309.56,185.9,309.69,185.45,309.69z"/>
			<path class="st0" d="M193.63,309.69c-0.45,0-0.8-0.12-1.03-0.37c-0.24-0.25-0.36-0.61-0.36-1.07v-5.17l0.57,1.59l-4.21-5.97
				c-0.17-0.25-0.24-0.52-0.21-0.81c0.02-0.29,0.14-0.54,0.36-0.76c0.21-0.21,0.52-0.32,0.91-0.32c0.29,0,0.54,0.07,0.78,0.21
				c0.23,0.14,0.45,0.37,0.67,0.68l2.85,4.12h-0.57l2.85-4.12c0.23-0.32,0.45-0.55,0.67-0.69c0.22-0.14,0.48-0.2,0.78-0.2
				c0.38,0,0.68,0.1,0.89,0.29c0.21,0.2,0.33,0.44,0.34,0.73c0.01,0.29-0.09,0.59-0.3,0.9l-4.15,5.94l0.55-1.59v5.17
				C195,309.21,194.55,309.69,193.63,309.69z"/>
			<path class="st0" d="M199.62,309.69c-0.33,0-0.6-0.08-0.81-0.23c-0.21-0.15-0.34-0.36-0.39-0.62s0-0.55,0.15-0.87l4.56-10
				c0.19-0.4,0.42-0.7,0.68-0.88c0.26-0.18,0.56-0.28,0.91-0.28s0.65,0.09,0.91,0.28c0.26,0.18,0.48,0.48,0.66,0.88l4.6,10
				c0.15,0.32,0.21,0.62,0.17,0.88c-0.04,0.27-0.16,0.48-0.37,0.62c-0.2,0.15-0.46,0.22-0.78,0.22c-0.4,0-0.72-0.1-0.94-0.29
				c-0.22-0.19-0.41-0.49-0.58-0.89l-1.07-2.48l1.11,0.77h-7.44l1.11-0.77l-1.05,2.48c-0.18,0.42-0.37,0.72-0.56,0.9
				C200.29,309.6,200,309.69,199.62,309.69z M204.69,299.9l-2.28,5.44l-0.48-0.7h5.58l-0.48,0.7l-2.3-5.44H204.69z"/>
			<path class="st0" d="M218.88,309.69c-0.45,0-0.8-0.12-1.03-0.37c-0.24-0.25-0.36-0.6-0.36-1.05v-9.9c0-0.46,0.12-0.81,0.37-1.05
				c0.24-0.24,0.59-0.36,1.04-0.36h4.33c1.4,0,2.48,0.35,3.25,1.06c0.76,0.71,1.14,1.69,1.14,2.95c0,1.26-0.38,2.25-1.14,2.96
				c-0.76,0.71-1.84,1.07-3.25,1.07h-2.98v3.26c0,0.45-0.12,0.8-0.35,1.05C219.67,309.56,219.33,309.69,218.88,309.69z
				 M220.25,302.86h2.51c0.71,0,1.26-0.16,1.63-0.48c0.37-0.32,0.56-0.79,0.56-1.41c0-0.62-0.19-1.08-0.56-1.39
				c-0.37-0.31-0.92-0.46-1.63-0.46h-2.51V302.86z"/>
			<path class="st0" d="M230.63,309.69c-0.45,0-0.8-0.12-1.03-0.37c-0.24-0.25-0.36-0.6-0.36-1.05v-10.04c0-0.45,0.12-0.8,0.36-1.05
				c0.24-0.25,0.58-0.37,1.03-0.37c0.44,0,0.78,0.12,1.02,0.37c0.24,0.25,0.36,0.6,0.36,1.05v10.04c0,0.45-0.12,0.8-0.35,1.05
				C231.42,309.56,231.08,309.69,230.63,309.69z"/>
			<path class="st0" d="M240.27,309.72c-1.24,0-2.32-0.27-3.25-0.81c-0.93-0.54-1.66-1.3-2.18-2.27c-0.52-0.97-0.78-2.11-0.78-3.41
				c0-0.99,0.15-1.88,0.44-2.67c0.29-0.79,0.71-1.47,1.26-2.03s1.2-1,1.97-1.31c0.77-0.31,1.61-0.46,2.54-0.46
				c1.26,0,2.35,0.27,3.28,0.8s1.65,1.29,2.17,2.26c0.52,0.97,0.78,2.1,0.78,3.4c0,0.99-0.15,1.88-0.45,2.67s-0.72,1.48-1.27,2.05
				c-0.55,0.57-1.2,1.01-1.96,1.32C242.06,309.57,241.21,309.72,240.27,309.72z M240.27,307.37c0.7,0,1.3-0.16,1.79-0.49
				c0.49-0.33,0.87-0.8,1.14-1.43c0.27-0.62,0.4-1.36,0.4-2.22c0-1.31-0.29-2.32-0.87-3.04c-0.58-0.72-1.4-1.08-2.46-1.08
				c-0.69,0-1.28,0.16-1.78,0.48c-0.5,0.32-0.88,0.79-1.14,1.41c-0.26,0.62-0.39,1.36-0.39,2.23c0,1.3,0.29,2.31,0.87,3.04
				C238.41,307.01,239.23,307.37,240.27,307.37z"/>
			<path class="st0" d="M249.83,309.69c-0.42,0-0.73-0.12-0.95-0.35c-0.22-0.23-0.33-0.56-0.33-0.99v-10.16
				c0-0.45,0.11-0.8,0.33-1.03c0.22-0.24,0.51-0.36,0.88-0.36c0.32,0,0.57,0.06,0.74,0.19c0.17,0.12,0.37,0.33,0.6,0.62l6.26,7.97
				h-0.48v-7.45c0-0.42,0.11-0.74,0.33-0.97c0.22-0.23,0.54-0.35,0.95-0.35s0.73,0.12,0.95,0.35c0.22,0.23,0.33,0.56,0.33,0.97
				v10.29c0,0.39-0.1,0.7-0.3,0.94c-0.2,0.23-0.48,0.35-0.82,0.35c-0.33,0-0.6-0.07-0.79-0.2c-0.2-0.13-0.41-0.34-0.63-0.62
				l-6.24-7.97h0.46v7.45c0,0.43-0.11,0.76-0.32,0.99C250.58,309.57,250.26,309.69,249.83,309.69z"/>
			<path class="st0" d="M263.33,309.53c-0.46,0-0.82-0.12-1.07-0.37c-0.25-0.25-0.37-0.61-0.37-1.07v-9.68
				c0-0.46,0.12-0.82,0.37-1.07c0.25-0.25,0.61-0.37,1.07-0.37h6.22c0.36,0,0.63,0.09,0.81,0.28c0.18,0.18,0.28,0.45,0.28,0.79
				c0,0.36-0.09,0.63-0.28,0.81c-0.18,0.18-0.45,0.28-0.81,0.28h-5.03v2.94h4.62c0.37,0,0.64,0.09,0.83,0.28
				c0.18,0.18,0.28,0.45,0.28,0.81c0,0.36-0.09,0.63-0.28,0.81c-0.18,0.18-0.46,0.28-0.83,0.28h-4.62v3.14h5.03
				c0.36,0,0.63,0.09,0.81,0.28c0.18,0.18,0.28,0.45,0.28,0.79c0,0.36-0.09,0.63-0.28,0.81c-0.18,0.18-0.45,0.28-0.81,0.28H263.33z"
				/>
			<path class="st0" d="M274.03,309.53c-0.46,0-0.82-0.12-1.07-0.37c-0.25-0.25-0.37-0.61-0.37-1.07v-9.68
				c0-0.46,0.12-0.82,0.37-1.07c0.25-0.25,0.61-0.37,1.07-0.37h6.22c0.36,0,0.63,0.09,0.81,0.28c0.18,0.18,0.28,0.45,0.28,0.79
				c0,0.36-0.09,0.63-0.28,0.81c-0.18,0.18-0.45,0.28-0.81,0.28h-5.03v2.94h4.62c0.37,0,0.64,0.09,0.83,0.28
				c0.18,0.18,0.28,0.45,0.28,0.81c0,0.36-0.09,0.63-0.28,0.81c-0.18,0.18-0.46,0.28-0.83,0.28h-4.62v3.14h5.03
				c0.36,0,0.63,0.09,0.81,0.28c0.18,0.18,0.28,0.45,0.28,0.79c0,0.36-0.09,0.63-0.28,0.81c-0.18,0.18-0.45,0.28-0.81,0.28H274.03z"
				/>
			<path class="st0" d="M284.67,309.69c-0.45,0-0.8-0.12-1.03-0.37c-0.24-0.25-0.36-0.6-0.36-1.05v-9.9c0-0.46,0.12-0.81,0.37-1.05
				s0.59-0.36,1.04-0.36h4.33c1.4,0,2.48,0.34,3.25,1.02c0.76,0.68,1.14,1.62,1.14,2.83c0,0.78-0.17,1.46-0.52,2.03
				c-0.34,0.57-0.84,1.01-1.49,1.32c-0.65,0.31-1.44,0.46-2.38,0.46l0.14-0.3h0.73c0.5,0,0.94,0.12,1.31,0.37s0.7,0.61,0.97,1.11
				l1.11,2.05c0.17,0.3,0.24,0.59,0.23,0.87c-0.01,0.29-0.12,0.52-0.32,0.7c-0.2,0.18-0.5,0.27-0.89,0.27
				c-0.39,0-0.71-0.08-0.95-0.25c-0.24-0.17-0.46-0.42-0.65-0.77l-1.71-3.16c-0.18-0.33-0.4-0.56-0.65-0.68
				c-0.26-0.12-0.57-0.18-0.94-0.18h-1.36v3.6c0,0.45-0.12,0.8-0.35,1.05C285.47,309.56,285.12,309.69,284.67,309.69z
				 M286.05,302.66h2.48c0.74,0,1.29-0.15,1.67-0.45c0.37-0.3,0.56-0.74,0.56-1.34c0-0.58-0.19-1.02-0.56-1.32
				c-0.37-0.3-0.93-0.45-1.67-0.45h-2.48V302.66z"/>
		</g>
	</g>
</g>
</svg>
