<?xml version="1.0" encoding="utf-8"?>
<!-- Generator: Adobe Illustrator 26.0.1, SVG Export Plug-In . SVG Version: 6.00 Build 0)  -->
<svg version="1.1" id="Layer_1" xmlns="http://www.w3.org/2000/svg" xmlns:xlink="http://www.w3.org/1999/xlink" x="0px" y="0px"
	 viewBox="0 0 350 350" style="enable-background:new 0 0 350 350;" xml:space="preserve">
<style type="text/css">
	.st0{fill:#293F91;}
	.st1{fill:#48ACB8;}
</style>
<g>
	<g>
		<path class="st0" d="M170.53,217.08h9.46v5.99h-9.46V217.08z M178.76,217.08h9.46v5.99h-9.46V217.08z M186.98,217.08h9.46v5.99
			h-9.46V217.08z M195.21,223.07v-5.98h3.34c2.63,0,3.93-1.34,3.92-4.02v-1.65c0-4.22,1.12-7.39,3.37-9.5
			c1.84-1.7,4.3-2.54,7.36-2.54c3.41,0,6.05,1.07,7.93,3.22c1.76,2.08,2.64,4.99,2.64,8.73c0,4.26-1.12,7.44-3.37,9.55
			c-1.81,1.7-4.2,2.54-7.16,2.54c-2.66,0-5.04-0.76-7.13-2.3c-0.92,0.78-1.89,1.32-2.92,1.6c-0.88,0.23-1.95,0.35-3.22,0.35H195.21z
			 M210.07,207.18c-0.57,1.01-0.85,2.43-0.85,4.24c0,1.81,0.28,3.23,0.85,4.24c0.68,1.16,1.72,1.75,3.12,1.75
			c1.6,0,2.72-0.79,3.37-2.37c0.38-0.95,0.57-2.15,0.57-3.62c0-1.84-0.29-3.27-0.87-4.29c-0.68-1.16-1.7-1.75-3.07-1.75
			C211.79,205.38,210.76,205.98,210.07,207.18 M230.73,216.28c-0.62-1.6-0.92-3.32-0.92-5.17c0-2.66,0.6-5.01,1.8-7.06
			c0.95-1.66,2.2-2.94,3.77-3.82c1.63-0.95,3.5-1.43,5.61-1.45c7.35,0,11.04,4.6,11.05,13.8v1.5v2.54v2.5
			c0,2.45-0.18,4.37-0.52,5.79c-0.38,1.66-1.16,3.16-2.35,4.49c-1.23,1.33-2.75,2.3-4.54,2.92c-1.3,0.42-2.63,0.61-3.99,0.6
			c-1.5,0-3.13-0.23-4.91-0.7c-0.92-0.27-1.76-0.59-2.55-0.97l-2.97-6.71c2.73,1.73,5.7,2.6,8.9,2.62c1.95,0,3.48-0.5,4.59-1.5
			c0.58-0.48,1.02-1.06,1.32-1.72c0.13-0.3,0.29-0.78,0.47-1.45c-1.4,0.62-2.78,0.92-4.14,0.92c-3.34,0-6.02-1.02-8.03-3.07
			C232.19,219.19,231.33,217.83,230.73,216.28 M237.71,206.4c-0.88,1.27-1.32,2.85-1.32,4.77c0,2.28,0.6,4.02,1.8,5.21
			c0.78,0.78,1.68,1.17,2.69,1.17c1.36,0,2.47-0.6,3.32-1.8c0.85-1.2,1.28-2.73,1.3-4.59c0-2.05-0.5-3.7-1.5-4.97
			c-0.85-1.05-1.87-1.57-3.07-1.57C239.64,204.63,238.56,205.22,237.71,206.4 M256.46,223.07l3.89-5.98H272v-7.19
			c0-1.46-0.47-2.63-1.42-3.49c-0.85-0.78-1.92-1.17-3.22-1.17c-2.21,0-4.5,1.23-6.86,3.69v-6.19c2.53-2.31,5.32-3.47,8.38-3.47
			c2.63,0,4.82,0.8,6.59,2.4c2.08,1.84,3.12,4.3,3.12,7.36v8.06h6.96v5.98H256.46z M284.3,217.08h9.46v5.99h-9.46V217.08z
			 M292.53,217.08h9.46v5.99h-9.46V217.08z M300.75,217.08h9.46v5.99h-9.46V217.08z M308.98,217.08h9.46v5.99h-9.46V217.08z
			 M317.2,217.08h9.46v5.99h-9.46V217.08z M324.25,233.7c-0.71-0.71-1.07-1.55-1.07-2.49c0-0.95,0.36-1.79,1.07-2.52
			c0.68-0.68,1.51-1.02,2.47-1.02c0.92,0,1.73,0.34,2.45,1.02c0.71,0.71,1.07,1.55,1.07,2.52c0,0.95-0.36,1.76-1.07,2.44
			c-0.72,0.71-1.53,1.07-2.45,1.07C325.81,234.72,324.99,234.38,324.25,233.7 M325.43,223.07v-5.98h4.24c2.63,0,3.94-1.29,3.94-3.87
			v-12.12l6.59-2.15v14.57c0,3.03-0.95,5.4-2.84,7.11c-1.85,1.63-4.33,2.45-7.46,2.45H325.43z M333.46,233.7
			c-0.72-0.71-1.07-1.55-1.07-2.49c0-0.95,0.36-1.79,1.07-2.52c0.68-0.68,1.5-1.02,2.45-1.02c0.91,0,1.74,0.34,2.47,1.02
			c0.72,0.71,1.07,1.55,1.07,2.52c0,0.95-0.36,1.76-1.07,2.44c-0.71,0.71-1.54,1.07-2.47,1.07
			C334.99,234.72,334.17,234.38,333.46,233.7"/>
		<g>
			<path class="st0" d="M28.96,214.36v10.97h-7.17v-11.06L9.81,194.37h7.61l8.27,13.76l8.27-13.76h7.04L28.96,214.36z"/>
		</g>
		<g>
			<path class="st0" d="M42.15,194.37h14.07c10.13,0,17.07,6.1,17.07,15.48c0,9.38-6.95,15.48-17.07,15.48H42.15V194.37z
				 M55.87,219.45c6.15,0,10.17-3.67,10.17-9.6s-4.03-9.6-10.17-9.6h-6.55v19.2H55.87z"/>
			<path class="st0" d="M76.76,209.85c0-9.2,7.17-16.01,16.94-16.01c9.73,0,16.94,6.77,16.94,16.01s-7.21,16.01-16.94,16.01
				C83.93,225.86,76.76,219.05,76.76,209.85z M103.39,209.85c0-5.88-4.16-9.91-9.69-9.91c-5.53,0-9.69,4.03-9.69,9.91
				s4.16,9.91,9.69,9.91C99.23,219.76,103.39,215.73,103.39,209.85z"/>
			<path class="st0" d="M144.24,225.33l-0.04-18.58l-9.11,15.3h-3.23l-9.07-14.91v18.18h-6.72v-30.97h5.93l11.59,19.24l11.42-19.24
				h5.88l0.09,30.97H144.24z"/>
		</g>
		<path class="st1" d="M15.9,262.87c-3.65,0-5.48-1.58-5.48-4.74c0-1.45,0.43-2.64,1.3-3.57c0.97-1.04,2.34-1.56,4.12-1.56
			c1.6,0,3.03,0.24,4.27,0.71v7.04h2v2.13H15.9z M13.88,251.71c-0.38,0-0.7-0.13-0.96-0.41c-0.26-0.27-0.39-0.59-0.39-0.98
			c0-0.39,0.13-0.71,0.39-0.99c0.27-0.27,0.59-0.41,0.96-0.41c0.38,0,0.71,0.14,0.98,0.41c0.26,0.27,0.39,0.59,0.39,0.99
			c0,0.38-0.13,0.71-0.39,0.98C14.59,251.58,14.26,251.71,13.88,251.71 M17.5,255.49c-0.52-0.25-1.17-0.37-1.95-0.37
			c-0.75,0-1.35,0.26-1.79,0.78c-0.43,0.51-0.65,1.16-0.65,1.98c0,1.91,1.03,2.86,3.08,2.86h1.31V255.49z M17.27,251.71
			c-0.38,0-0.7-0.13-0.96-0.41c-0.26-0.27-0.39-0.59-0.39-0.98c0-0.39,0.13-0.71,0.39-0.99c0.27-0.27,0.58-0.41,0.96-0.41
			c0.38,0,0.7,0.14,0.96,0.41c0.26,0.27,0.39,0.59,0.39,0.99c0,0.38-0.13,0.71-0.39,0.98C17.97,251.58,17.65,251.71,17.27,251.71
			 M21.82,260.74h2.87v-7.48h2.69v9.61h-5.56V260.74z M26.03,251.54c-0.39,0-0.73-0.13-1-0.4c-0.27-0.27-0.41-0.61-0.41-1.01
			c0-0.39,0.14-0.72,0.41-1c0.28-0.27,0.61-0.41,1-0.41c0.39,0,0.72,0.14,1,0.41c0.27,0.28,0.41,0.61,0.41,1
			c0,0.39-0.14,0.72-0.41,1C26.75,251.41,26.41,251.54,26.03,251.54 M30.63,248.46h2.69v12.28h2.05v2.13h-4.74V248.46z
			 M35.06,260.74h1.02c0.68,0,1.15-0.17,1.42-0.52c0.29-0.37,0.43-1.04,0.43-2.02v-3.72h2.69v3.78c0,0.98,0.08,1.65,0.25,2.01
			c0.19,0.42,0.58,0.63,1.16,0.63c1.09,0,1.64-0.87,1.64-2.61v-4.62h2.59v5.13c0,0.8,0.17,1.32,0.5,1.58
			c0.32,0.25,0.96,0.37,1.92,0.37h0.53c0.1-0.77,0.15-1.58,0.15-2.45c0-1.88-0.2-3.71-0.6-5.48l2.63-0.36
			c0.44,1.83,0.66,3.72,0.66,5.66c0,1.72-0.1,3.31-0.31,4.76h-3.38c-1.11,0-1.94-0.09-2.48-0.28c-0.58-0.21-1.01-0.58-1.31-1.13
			c-0.48,1.04-1.51,1.57-3.08,1.57c-1.46,0-2.36-0.53-2.72-1.59c-0.42,0.95-1.33,1.43-2.73,1.43h-1V260.74z M53.22,268.06
			c-0.6,0-1.17-0.07-1.72-0.2l0.2-2.15c0.57,0.16,1.12,0.24,1.66,0.24c0.74,0,1.28-0.2,1.63-0.6c0.39-0.45,0.59-1.2,0.59-2.26v-9.84
			h2.7v7.48h2.01v2.13h-2.01v0.08C58.27,266.36,56.58,268.06,53.22,268.06 M59.96,260.74h7.91c0.07-0.55,0.1-1.06,0.1-1.56
			c0-1.33-0.3-2.31-0.9-2.94c-0.64-0.66-1.68-0.99-3.11-0.99c-0.76,0-1.54,0.05-2.34,0.17v-2.11c0.96-0.13,1.83-0.19,2.62-0.19
			c2.26,0,3.9,0.5,4.93,1.51c0.99,0.96,1.49,2.44,1.49,4.44c0,0.58-0.03,1.13-0.08,1.66h1.6v2.13H59.96V260.74z M64.8,251.54
			c-0.39,0-0.71-0.13-0.99-0.4c-0.28-0.27-0.42-0.61-0.42-1.01c0-0.39,0.14-0.72,0.42-1c0.27-0.27,0.6-0.41,0.99-0.41
			c0.39,0,0.73,0.14,1,0.41c0.28,0.28,0.42,0.61,0.42,1c0,0.39-0.14,0.72-0.42,1C65.52,251.41,65.19,251.54,64.8,251.54
			 M71.85,260.74h2.54v-12.28h2.69v14.41h-5.23V260.74z M80.56,248.46h2.69v14.41h-2.69V248.46z M95.19,269.41
			c-1.95,0-3.43-0.38-4.45-1.15c-0.96-0.72-1.44-1.72-1.44-2.99c0-1.36,0.52-2.43,1.57-3.22c1.14-0.86,2.83-1.3,5.06-1.3h1.16
			c0.07-0.55,0.11-1.06,0.11-1.56c0-1.33-0.3-2.31-0.91-2.94c-0.63-0.66-1.67-0.99-3.11-0.99c-0.76,0-1.54,0.05-2.34,0.17v-2.11
			c0.95-0.13,1.82-0.19,2.62-0.19c2.26,0,3.9,0.5,4.93,1.51c0.99,0.96,1.49,2.44,1.49,4.44c0,1.13-0.12,2.39-0.35,3.78h-3.68
			c-2.57,0-3.86,0.73-3.86,2.2c0,0.66,0.27,1.18,0.82,1.57c0.6,0.43,1.49,0.64,2.66,0.64c1.06,0,2.23-0.12,3.5-0.36l0.18,2.08
			C97.7,269.27,96.39,269.41,95.19,269.41 M106.19,259.21h-2.74l-2.92-10.52l2.67-0.37L106.19,259.21z M101.37,262.87v-2.13h6.32
			v-12.28h2.69v12.28h2.03v2.13H101.37z M112.11,260.74h2.74v-7.48h2.7v0.52c0,1.14-0.08,2.15-0.25,3.02h0.04
			c0.44-1.2,1.15-2.15,2.13-2.83c0.92-0.64,1.93-0.97,3.04-0.97c1.41,0,2.48,0.41,3.22,1.24c0.73,0.81,1.1,1.94,1.1,3.4
			c0,1.59-0.48,2.82-1.43,3.71c-1.06,1.01-2.67,1.52-4.83,1.52h-8.47V260.74z M120.81,260.74c2.16,0,3.23-0.98,3.23-2.94
			c0-1.77-0.7-2.65-2.09-2.65c-1.07,0-2.03,0.57-2.89,1.72c-0.82,1.08-1.34,2.38-1.56,3.88H120.81z M129.46,248.46h2.69v14.41h-2.69
			V248.46z M137.06,268.02c-1.02,0-2.06-0.09-3.11-0.27l0.17-2.21c1.06,0.23,2.13,0.35,3.18,0.35c2.36,0,3.54-0.9,3.54-2.71v-0.31
			h-1.6c-3.65,0-5.48-1.58-5.48-4.74c0-1.45,0.43-2.64,1.3-3.57c0.97-1.04,2.34-1.56,4.12-1.56c1.6,0,3.03,0.24,4.27,0.71v9.2
			c0,1.52-0.5,2.72-1.49,3.61C140.86,267.52,139.23,268.02,137.06,268.02 M140.84,255.49c-0.52-0.25-1.17-0.37-1.95-0.37
			c-0.75,0-1.35,0.26-1.79,0.78c-0.43,0.51-0.65,1.16-0.65,1.98c0,1.91,1.02,2.86,3.07,2.86h1.31V255.49z M157.48,262.87
			c-2.67,0-4.61-0.54-5.84-1.63c-1.11-0.98-1.67-2.45-1.67-4.42c0-1.17,0.17-2.24,0.53-3.21l2.88-0.47c-0.47,1.02-0.7,2.14-0.7,3.37
			c0,1.48,0.37,2.55,1.11,3.19c0.78,0.69,2.1,1.04,3.96,1.04h1.4v-7.36c1.26-0.26,2.63-0.39,4.1-0.39c1.72,0,2.95,0.4,3.71,1.21
			c0.67,0.72,1.01,1.82,1.01,3.3v2.9h-2.62v-2.61c0-0.98-0.17-1.68-0.5-2.08c-0.33-0.4-0.92-0.6-1.77-0.6
			c-0.45,0-0.9,0.04-1.35,0.12v7.63H157.48z M156.64,265.93c0,0.38-0.14,0.71-0.4,0.98c-0.27,0.27-0.59,0.41-0.98,0.41
			c-0.37,0-0.69-0.13-0.96-0.4c-0.26-0.27-0.39-0.59-0.39-0.99c0-0.38,0.13-0.71,0.39-0.98c0.27-0.27,0.59-0.41,0.96-0.41
			c0.39,0,0.72,0.14,0.98,0.4C156.51,265.22,156.64,265.55,156.64,265.93 M160.02,265.93c0,0.38-0.13,0.7-0.4,0.98
			c-0.26,0.27-0.58,0.41-0.96,0.41c-0.37,0-0.69-0.13-0.96-0.4c-0.26-0.27-0.39-0.59-0.39-0.99c0-0.38,0.13-0.71,0.39-0.98
			c0.27-0.27,0.58-0.41,0.96-0.41c0.38,0,0.7,0.14,0.96,0.4C159.88,265.22,160.02,265.55,160.02,265.93 M170.26,268.06
			c-0.6,0-1.17-0.07-1.72-0.2l0.2-2.15c0.57,0.16,1.12,0.24,1.66,0.24c0.74,0,1.28-0.2,1.63-0.6c0.39-0.45,0.59-1.2,0.59-2.26v-9.84
			h2.69v9.69C175.31,266.36,173.62,268.06,170.26,268.06 M178.55,248.46h2.69v14.41h-2.69V248.46z M183.14,268.06
			c-0.6,0-1.17-0.07-1.72-0.2l0.2-2.15c0.57,0.16,1.12,0.24,1.66,0.24c0.74,0,1.28-0.2,1.63-0.6c0.39-0.45,0.59-1.2,0.59-2.26v-9.84
			h2.69v7.48h2.01v2.13h-2.01v0.08C188.19,266.36,186.51,268.06,183.14,268.06 M189.88,260.74h7.91c0.07-0.55,0.1-1.06,0.1-1.56
			c0-1.33-0.3-2.31-0.9-2.94c-0.64-0.66-1.67-0.99-3.11-0.99c-0.76,0-1.54,0.05-2.34,0.17v-2.11c0.96-0.13,1.83-0.19,2.61-0.19
			c2.26,0,3.9,0.5,4.93,1.51c0.99,0.96,1.49,2.44,1.49,4.44c0,0.58-0.03,1.13-0.08,1.66h1.6v2.13h-12.21V260.74z M201.78,260.74
			h2.53v-12.28h2.7v14.41h-5.23V260.74z M210.49,248.46h2.69v14.41h-2.69V248.46z M218.09,268.02c-1.03,0-2.06-0.09-3.11-0.27
			l0.17-2.21c1.07,0.23,2.13,0.35,3.19,0.35c2.36,0,3.54-0.9,3.54-2.71v-0.31h-1.6c-3.65,0-5.48-1.58-5.48-4.74
			c0-1.45,0.43-2.64,1.3-3.57c0.97-1.04,2.35-1.56,4.12-1.56c1.6,0,3.03,0.24,4.27,0.71v9.2c0,1.52-0.5,2.72-1.49,3.61
			C221.89,267.52,220.26,268.02,218.09,268.02 M221.87,255.49c-0.52-0.25-1.17-0.37-1.94-0.37c-0.75,0-1.35,0.26-1.79,0.78
			c-0.43,0.51-0.65,1.16-0.65,1.98c0,1.91,1.02,2.86,3.07,2.86h1.31V255.49z M246.39,262.87v-5.07c0-0.98-0.17-1.68-0.5-2.08
			c-0.33-0.4-0.92-0.6-1.77-0.6c-0.45,0-0.9,0.04-1.35,0.12v7.63h-4.27c-2.67,0-4.61-0.54-5.84-1.63c-1.11-0.98-1.67-2.45-1.67-4.42
			c0-1.17,0.18-2.24,0.53-3.21l2.88-0.47c-0.47,1.02-0.7,2.14-0.7,3.37c0,1.48,0.37,2.55,1.11,3.19c0.78,0.69,2.1,1.04,3.96,1.04
			h1.4v-7.36c1.27-0.26,2.63-0.39,4.1-0.39c1.72,0,2.96,0.4,3.71,1.21c0.67,0.72,1.01,1.82,1.01,3.3v3.23h4v-7.48h2.69v9.61H246.39z
			 M237.67,265.93c0,0.38-0.13,0.71-0.4,0.98c-0.27,0.27-0.59,0.41-0.98,0.41c-0.37,0-0.69-0.13-0.96-0.4
			c-0.26-0.27-0.39-0.59-0.39-0.99c0-0.38,0.13-0.71,0.39-0.98c0.27-0.27,0.58-0.41,0.96-0.41c0.39,0,0.72,0.14,0.98,0.4
			C237.54,265.22,237.67,265.55,237.67,265.93 M241.04,265.93c0,0.38-0.13,0.7-0.4,0.98c-0.26,0.27-0.58,0.41-0.96,0.41
			c-0.37,0-0.69-0.13-0.96-0.4c-0.26-0.27-0.39-0.59-0.39-0.99c0-0.38,0.13-0.71,0.39-0.98c0.27-0.27,0.59-0.41,0.96-0.41
			c0.38,0,0.7,0.14,0.96,0.4C240.91,265.22,241.04,265.55,241.04,265.93 M251.32,250.11c0.5,0,0.88,0.03,1.14,0.08
			c-0.25-0.13-0.38-0.39-0.38-0.8c0-0.64,0.22-1.16,0.67-1.57c0.52-0.48,1.29-0.72,2.28-0.72c0.33,0,0.74,0.03,1.21,0.1l-0.24,1.54
			c-0.34-0.06-0.68-0.1-1.03-0.1c-0.65,0-0.98,0.23-0.98,0.69c0,0.52,0.47,0.78,1.41,0.78h1.17v1.54h-5.25V250.11z M259.01,248.46
			h2.69v12.28h2.05v2.13h-4.74V248.46z M271.18,262.87c-2.2,0-3.73-0.53-4.58-1.6c-0.41,1.06-1.49,1.6-3.24,1.6h-0.31v-2.13
			c0.8,0,1.39-0.2,1.77-0.59c0.42-0.43,0.63-1.16,0.63-2.2c0-1.39,0.44-2.54,1.32-3.45c0.97-1,2.3-1.51,3.99-1.51
			c3.08,0,4.62,1.57,4.62,4.7v3.04h3.58v-12.28h2.7v14.41H271.18z M272.74,258.03c0-1.94-0.73-2.91-2.19-2.91
			c-0.75,0-1.35,0.26-1.8,0.78c-0.43,0.51-0.64,1.16-0.64,1.98c0,1.91,1.02,2.86,3.06,2.86h1.56V258.03z M285.18,248.46h2.69v14.41
			h-2.69V248.46z M302.61,248.46h2.69v12.85c0,4.17-1.83,6.26-5.48,6.26c-3.51,0-5.27-1.94-5.27-5.81c0-1.25,0.16-2.47,0.49-3.65
			l2.79-0.51c-0.39,1.36-0.58,2.66-0.58,3.92c0,2.63,0.94,3.94,2.8,3.94c1.7,0,2.56-1.31,2.56-3.94V248.46z M307.08,268.06
			c-0.6,0-1.17-0.07-1.72-0.2l0.2-2.15c0.57,0.16,1.12,0.24,1.66,0.24c0.74,0,1.28-0.2,1.63-0.6c0.39-0.45,0.59-1.2,0.59-2.26v-9.84
			h2.69v7.48h2.01v2.13h-2.01v0.08C312.13,266.36,310.45,268.06,307.08,268.06 M310.77,251.54c-0.39,0-0.73-0.13-1-0.4
			c-0.28-0.27-0.42-0.61-0.42-1.01c0-0.39,0.14-0.72,0.42-1c0.27-0.27,0.6-0.41,1-0.41c0.38,0,0.72,0.14,1,0.41
			c0.27,0.28,0.41,0.61,0.41,1c0,0.39-0.14,0.72-0.41,1C311.48,251.41,311.15,251.54,310.77,251.54 M313.82,260.74h0.72
			c1.88,0,3.47-0.21,4.76-0.63c-1.82-1.7-3.25-2.7-4.29-2.98l0.22-1.93c2.1-1.51,4.07-2.27,5.91-2.27c1.44,0,2.54,0.34,3.31,1.01
			c0.67,0.6,1.01,1.38,1.01,2.35c0,1.45-0.69,2.76-2.09,3.92c0.73,0.35,1.49,0.53,2.28,0.53h1.35v2.13h-1.66
			c-1.54,0-2.94-0.42-4.21-1.27c-1.89,0.85-4.14,1.27-6.75,1.27h-0.55V260.74z M317.73,256.14c0.53,0.21,1.79,1.15,3.78,2.82
			c0.85-0.66,1.27-1.44,1.27-2.33c0-0.5-0.16-0.91-0.48-1.22c-0.35-0.33-0.84-0.5-1.47-0.5
			C319.98,254.92,318.95,255.32,317.73,256.14 M326.68,260.74h2.54v-12.28h2.69v12.28h2.05v2.13h-7.28V260.74z M333.65,260.74h2.54
			v-12.28h2.69v14.41h-5.23V260.74z"/>
		<g>
			<path class="st0" d="M10.52,278.06h1.49l2.58,9.41h0.03l2.78-9.41h1.5l2.77,9.41h0.03l2.63-9.41h1.41l-3.33,11.32h-1.46l-2.8-9.6
				h-0.03l-2.82,9.6h-1.47L10.52,278.06z"/>
			<path class="st0" d="M25.94,289.38l4.99-11.32h1.26l4.81,11.32h-1.57l-1.15-2.78h-5.66l-1.17,2.78H25.94z M33.78,285.35
				l-2.24-5.57h-0.03l-2.35,5.57H33.78z"/>
			<path class="st0" d="M37.3,278.06h8.83v1.25h-3.74v10.08h-1.34V279.3H37.3V278.06z"/>
			<path class="st0" d="M47.72,278.06h7.12v1.25h-5.78v3.55h5.39v1.25h-5.39v4.03h6.07v1.25h-7.41V278.06z"/>
			<path class="st0" d="M57.22,289.38v-11.32h3.09c3.2,0,4.32,1.12,4.32,3.1c0,1.6-0.98,2.7-2.83,3.01l3.22,5.22h-1.65l-3.07-5.09
				h-1.73v5.09H57.22z M60.16,283.04c2.45,0,3.02-0.78,3.02-1.87c0-1.28-0.85-1.87-2.66-1.87h-1.97v3.74H60.16z"/>
			<path class="st0" d="M67,289.38v-11.32h3.44c2.42,0,3.89,1.07,3.89,3.1c0,2.06-1.55,3.13-3.65,3.13h-2.33v5.09H67z M68.35,283.04
				h2.33c1.36,0,2.21-0.7,2.21-1.87c0-1.17-0.83-1.87-2.21-1.87h-2.33V283.04z"/>
			<path class="st0" d="M76.5,289.38v-11.32h3.09c3.2,0,4.32,1.12,4.32,3.1c0,1.6-0.98,2.7-2.83,3.01l3.22,5.22h-1.65l-3.07-5.09
				h-1.73v5.09H76.5z M79.44,283.04c2.45,0,3.02-0.78,3.02-1.87c0-1.28-0.85-1.87-2.66-1.87h-1.97v3.74H79.44z"/>
			<path class="st0" d="M97.47,283.72c0,3.39-2.48,5.95-5.92,5.95s-5.92-2.54-5.92-5.95c0-3.41,2.46-5.95,5.92-5.95
				C95.02,277.77,97.47,280.34,97.47,283.72z M91.55,288.42c2.59,0,4.48-2.05,4.48-4.7c0-2.64-1.87-4.7-4.49-4.7
				c-2.58,0-4.46,2.06-4.46,4.7C87.07,286.34,88.91,288.42,91.55,288.42z"/>
			<path class="st0" d="M110.82,283.72c0,3.39-2.48,5.95-5.92,5.95s-5.92-2.54-5.92-5.95c0-3.41,2.46-5.95,5.92-5.95
				C108.38,277.77,110.82,280.34,110.82,283.72z M104.9,288.42c2.59,0,4.48-2.05,4.48-4.7c0-2.64-1.87-4.7-4.49-4.7
				c-2.58,0-4.46,2.06-4.46,4.7C100.43,286.34,102.27,288.42,104.9,288.42z"/>
			<path class="st0" d="M113,278.06h7.02v1.25h-5.68v3.74h5.28v1.25h-5.28v5.09H113V278.06z"/>
			<path class="st0" d="M123.25,289.38h-1.35v-11.32h1.35V289.38z"/>
			<path class="st0" d="M126.07,289.38v-11.32h1.69l6.56,9.41h0.03v-9.41h1.34v11.32H134l-6.56-9.41h-0.03v9.41H126.07z"/>
			<path class="st0" d="M147.97,279.25l-1.01,1.06c-0.78-0.83-1.92-1.3-3.09-1.3c-2.61,0-4.56,2-4.56,4.7c0,2.72,1.94,4.7,4.69,4.7
				c0.96,0,2.03-0.27,2.82-0.66v-3.47h-2.61v-1.25h3.95v5.57c-1.33,0.72-2.77,1.06-4.24,1.06c-3.52,0-6.05-2.43-6.05-5.95
				c0-3.44,2.58-5.95,6.1-5.95C145.65,277.77,146.99,278.28,147.97,279.25z"/>
			<path class="st0" d="M154.13,289.38l4.99-11.32h1.26l4.81,11.32h-1.57l-1.15-2.78h-5.66l-1.17,2.78H154.13z M161.97,285.35
				l-2.24-5.57h-0.03l-2.35,5.57H161.97z"/>
			<path class="st0" d="M166.72,289.38v-11.32h1.69l6.56,9.41H175v-9.41h1.34v11.32h-1.69l-6.56-9.41h-0.03v9.41H166.72z"/>
			<path class="st0" d="M188.87,283.72c0,3.65-2.67,5.66-5.65,5.66h-4.26v-11.32h4.22C186.3,278.06,188.87,280.15,188.87,283.72z
				 M187.43,283.72c0-2.87-1.74-4.42-4.56-4.42h-2.56v8.83h2.56C185.7,288.13,187.43,286.6,187.43,283.72z"/>
			<path class="st0" d="M204.6,279.54l-1.17,0.85c-0.69-0.91-1.74-1.38-2.83-1.38c-2.5,0-4.32,2.19-4.32,4.7
				c0,2.61,1.76,4.7,4.32,4.7c1.38,0,2.46-0.54,3.28-1.58l1.01,0.85c-1.02,1.36-2.48,1.98-4.29,1.98c-3.34,0-5.76-2.61-5.76-5.95
				s2.42-5.95,5.76-5.95C202.33,277.77,203.77,278.44,204.6,279.54z"/>
			<path class="st0" d="M217.95,283.72c0,3.39-2.48,5.95-5.92,5.95s-5.92-2.54-5.92-5.95c0-3.41,2.46-5.95,5.92-5.95
				C215.51,277.77,217.95,280.34,217.95,283.72z M212.03,288.42c2.59,0,4.48-2.05,4.48-4.7c0-2.64-1.87-4.7-4.49-4.7
				c-2.58,0-4.46,2.06-4.46,4.7C207.55,286.34,209.4,288.42,212.03,288.42z"/>
			<path class="st0" d="M220.13,289.38v-11.32h1.69l6.56,9.41h0.03v-9.41h1.34v11.32h-1.69l-6.56-9.41h-0.03v9.41H220.13z"/>
			<path class="st0" d="M241.69,279.54l-1.17,0.85c-0.69-0.91-1.74-1.38-2.83-1.38c-2.5,0-4.32,2.19-4.32,4.7
				c0,2.61,1.76,4.7,4.32,4.7c1.38,0,2.46-0.54,3.28-1.58l1.01,0.85c-1.02,1.36-2.48,1.98-4.29,1.98c-3.34,0-5.76-2.61-5.76-5.95
				s2.42-5.95,5.76-5.95C239.42,277.77,240.86,278.44,241.69,279.54z"/>
			<path class="st0" d="M243.86,289.38v-11.32h3.09c3.2,0,4.32,1.12,4.32,3.1c0,1.6-0.98,2.7-2.83,3.01l3.22,5.22h-1.65l-3.07-5.09
				h-1.73v5.09H243.86z M246.81,283.04c2.45,0,3.02-0.78,3.02-1.87c0-1.28-0.85-1.87-2.66-1.87h-1.97v3.74H246.81z"/>
			<path class="st0" d="M253.65,278.06h7.12v1.25H255v3.55h5.39v1.25H255v4.03h6.06v1.25h-7.41V278.06z"/>
			<path class="st0" d="M261.91,278.06h8.83v1.25H267v10.08h-1.34V279.3h-3.75V278.06z"/>
			<path class="st0" d="M272.34,278.06h7.12v1.25h-5.78v3.55h5.39v1.25h-5.39v4.03h6.07v1.25h-7.41V278.06z"/>
			<path class="st0" d="M286.28,289.38v-11.32h3.09c3.2,0,4.32,1.12,4.32,3.1c0,1.6-0.98,2.7-2.83,3.01l3.22,5.22h-1.65l-3.07-5.09
				h-1.73v5.09H286.28z M289.23,283.04c2.45,0,3.02-0.78,3.02-1.87c0-1.28-0.85-1.87-2.66-1.87h-1.97v3.74H289.23z"/>
			<path class="st0" d="M296.07,278.06h7.12v1.25h-5.77v3.55h5.39v1.25h-5.39v4.03h6.06v1.25h-7.41V278.06z"/>
			<path class="st0" d="M305.57,289.38v-11.32h3.44c2.42,0,3.89,1.07,3.89,3.1c0,2.06-1.55,3.13-3.65,3.13h-2.33v5.09H305.57z
				 M306.91,283.04h2.33c1.36,0,2.21-0.7,2.21-1.87c0-1.17-0.83-1.87-2.21-1.87h-2.33V283.04z"/>
			<path class="st0" d="M313.75,289.38l4.99-11.32h1.26l4.81,11.32h-1.57l-1.15-2.78h-5.66l-1.17,2.78H313.75z M321.59,285.35
				l-2.24-5.57h-0.03l-2.35,5.57H321.59z"/>
			<path class="st0" d="M327.68,289.38h-1.35v-11.32h1.35V289.38z"/>
			<path class="st0" d="M330.5,289.38v-11.32h3.09c3.2,0,4.32,1.12,4.32,3.1c0,1.6-0.98,2.7-2.83,3.01l3.22,5.22h-1.65l-3.07-5.09
				h-1.73v5.09H330.5z M333.44,283.04c2.45,0,3.02-0.78,3.02-1.87c0-1.28-0.85-1.87-2.66-1.87h-1.97v3.74H333.44z"/>
		</g>
	</g>
	<g>
		<path class="st0" d="M218.29,101.8h0.01c0-7.54-0.02-15.08,0.03-22.62c0.01-1.1-0.36-1.48-1.36-1.91
			c-5.74-2.43-11.47-4.88-17.11-7.52c-4.63-2.17-9.07-4.77-13.72-6.89c-3.48-1.58-7.04-2.45-10.62-2.53
			c11.34,13.13,22.62,25.78,29.67,41.56c8.6,19.23-6.28,42.98-28.59,43.76c-19.64,0.68-35.03-14.32-34.2-33.72
			c0.19-4.53,2-9.22,3.94-13.42c5.03-10.89,12.61-20.13,20.28-29.24c2.46-2.92,5.02-5.79,7.77-8.94c-2.83,0.07-5.67,0.63-8.51,1.74
			c-3.57,1.39-7.05,3.06-10.43,4.86c-7.25,3.87-14.43,7.9-22.34,10.31c-1.22,0.37-1.51,0.92-1.5,2.12
			c0.04,13.42-0.04,26.84,0.07,40.26c0.03,4.04,0.24,8.14,0.96,12.11c4.31,23.84,17.58,40.97,39.15,51.87
			c2.36,1.19,4.23,1.13,6.51-0.06c25.4-13.2,38.86-34,39.93-62.66C218.49,114.53,218.29,108.17,218.29,101.8"/>
		<path class="st1" d="M218.3,101.8c0-7.54-0.02-15.08,0.03-22.62c0.01-1.1-0.36-1.48-1.36-1.91c-5.74-2.43-11.47-4.88-17.11-7.52
			c-4.63-2.17-9.07-4.77-13.72-6.89c-3.48-1.58-7.04-2.45-10.62-2.53c11.34,13.13,22.62,25.78,29.67,41.56
			c8.6,19.23-6.28,42.98-28.59,43.76c-0.81,0.03-1.61,0.02-2.4,0v38.76c1.36,0.2,2.66-0.1,4.12-0.86c25.4-13.2,38.86-34,39.93-62.66
			c0.24-6.36,0.04-12.72,0.04-19.09H218.3z"/>
		<rect x="176.76" y="99" class="st1" width="10.37" height="10.37"/>
		<rect x="162.86" y="99" class="st1" width="10.37" height="10.37"/>
		<rect x="176.76" y="111.77" class="st1" width="10.37" height="10.37"/>
		<rect x="162.86" y="111.77" class="st1" width="10.37" height="10.37"/>
	</g>
</g>
</svg>
