<?xml version="1.0" encoding="utf-8"?>
<!-- Generator: Adobe Illustrator 26.0.1, SVG Export Plug-In . SVG Version: 6.00 Build 0)  -->
<svg version="1.1" id="Layer_1" xmlns="http://www.w3.org/2000/svg" xmlns:xlink="http://www.w3.org/1999/xlink" x="0px" y="0px"
	 viewBox="0 0 400 400" style="enable-background:new 0 0 400 400;" xml:space="preserve">
<style type="text/css">
	.st0{fill:#2A3F92;}
	.st1{fill:#4AAEB9;}
</style>
<g>
	<g>
		<path class="st0" d="M195.17,245.52h10.23v6.48h-10.23V245.52z M204.06,245.52h10.23v6.48h-10.23V245.52z M212.96,245.52h10.23
			v6.48h-10.23V245.52z M221.85,251.99v-6.47h3.62c2.84,0,4.25-1.45,4.24-4.34v-1.78c0-4.57,1.22-7.99,3.64-10.28
			c1.99-1.83,4.65-2.75,7.96-2.75c3.69,0,6.55,1.16,8.58,3.48c1.91,2.25,2.86,5.4,2.86,9.44c0,4.6-1.21,8.05-3.64,10.33
			c-1.96,1.83-4.54,2.75-7.74,2.75c-2.88,0-5.45-0.83-7.72-2.48c-0.99,0.85-2.04,1.42-3.16,1.73c-0.95,0.25-2.11,0.38-3.48,0.38
			H221.85z M237.93,234.8c-0.61,1.1-0.92,2.62-0.92,4.58c0,1.96,0.3,3.49,0.92,4.59c0.74,1.26,1.86,1.89,3.37,1.89
			c1.73,0,2.94-0.85,3.64-2.56c0.41-1.03,0.62-2.33,0.62-3.91c0-1.99-0.31-3.54-0.94-4.64c-0.74-1.26-1.84-1.89-3.32-1.89
			C239.8,232.86,238.67,233.51,237.93,234.8 M260.28,244.65c-0.67-1.73-1-3.59-1-5.59c0-2.88,0.65-5.42,1.94-7.63
			c1.03-1.8,2.38-3.18,4.07-4.13c1.76-1.03,3.79-1.55,6.07-1.57c7.95,0,11.94,4.97,11.95,14.92v1.62v2.75v2.7
			c0,2.64-0.19,4.73-0.57,6.26c-0.42,1.8-1.26,3.42-2.54,4.86c-1.33,1.44-2.97,2.49-4.91,3.16c-1.4,0.45-2.84,0.66-4.32,0.65
			c-1.62,0-3.39-0.25-5.31-0.75c-0.99-0.29-1.91-0.64-2.75-1.05l-3.21-7.26c2.95,1.87,6.16,2.81,9.63,2.83
			c2.11,0,3.76-0.54,4.97-1.62c0.63-0.52,1.11-1.14,1.43-1.86c0.14-0.32,0.31-0.85,0.51-1.56c-1.51,0.67-3.01,1-4.48,1
			c-3.62,0-6.51-1.11-8.69-3.32C261.86,247.79,260.92,246.32,260.28,244.65 M267.83,233.97c-0.95,1.37-1.43,3.09-1.43,5.15
			c0,2.46,0.65,4.34,1.94,5.64c0.84,0.85,1.82,1.27,2.91,1.27c1.47,0,2.67-0.65,3.59-1.94c0.92-1.29,1.38-2.95,1.4-4.96
			c0-2.21-0.54-4-1.62-5.37c-0.92-1.13-2.02-1.7-3.32-1.7C269.91,232.05,268.75,232.69,267.83,233.97 M288.1,251.99l4.21-6.47h12.6
			v-7.77c0-1.58-0.51-2.84-1.54-3.78c-0.92-0.85-2.08-1.27-3.48-1.27c-2.39,0-4.87,1.33-7.42,3.99V230c2.73-2.5,5.75-3.75,9.07-3.75
			c2.84,0,5.21,0.86,7.12,2.59c2.25,1.99,3.37,4.65,3.37,7.96v8.72h7.53v6.47H288.1z M318.22,245.52h10.23v6.48h-10.23V245.52z
			 M327.11,245.52h10.23v6.48h-10.23V245.52z M336.01,245.52h10.23v6.48h-10.23V245.52z M344.9,245.52h10.23v6.48H344.9V245.52z
			 M353.8,245.52h10.23v6.48H353.8V245.52z M361.43,263.48c-0.77-0.77-1.16-1.67-1.16-2.7c0-1.03,0.39-1.93,1.16-2.73
			c0.74-0.74,1.63-1.11,2.67-1.11c0.99,0,1.87,0.37,2.64,1.11c0.77,0.77,1.16,1.68,1.16,2.73c0,1.03-0.39,1.91-1.16,2.64
			c-0.77,0.77-1.65,1.16-2.64,1.16C363.11,264.59,362.22,264.22,361.43,263.48 M362.69,251.99v-6.47h4.59c2.84,0,4.26-1.4,4.26-4.18
			v-13.11l7.12-2.32v15.76c0,3.27-1.03,5.84-3.08,7.69c-2,1.76-4.69,2.64-8.07,2.64H362.69z M371.38,263.48
			c-0.77-0.77-1.16-1.67-1.16-2.7c0-1.03,0.39-1.93,1.16-2.73c0.74-0.74,1.62-1.11,2.64-1.11c0.99,0,1.88,0.37,2.67,1.11
			c0.77,0.77,1.16,1.68,1.16,2.73c0,1.03-0.39,1.91-1.16,2.64c-0.77,0.77-1.66,1.16-2.67,1.16
			C373.04,264.59,372.16,264.22,371.38,263.48"/>
		<g>
			<path class="st0" d="M42.05,242.57v11.87H34.3v-11.96l-12.96-21.53h8.23l8.95,14.88l8.95-14.88h7.61L42.05,242.57z"/>
		</g>
		<g>
			<path class="st0" d="M56.32,220.95h15.22c10.96,0,18.47,6.6,18.47,16.75c0,10.14-7.51,16.75-18.47,16.75H56.32V220.95z
				 M71.15,248.07c6.65,0,11-3.97,11-10.38s-4.36-10.38-11-10.38h-7.08v20.76H71.15z"/>
			<path class="st0" d="M93.75,237.69c0-9.95,7.75-17.32,18.33-17.32c10.52,0,18.32,7.32,18.32,17.32s-7.8,17.32-18.32,17.32
				C101.5,255.01,93.75,247.64,93.75,237.69z M122.55,237.69c0-6.36-4.5-10.72-10.48-10.72c-5.98,0-10.48,4.36-10.48,10.72
				c0,6.36,4.5,10.72,10.48,10.72C118.05,248.41,122.55,244.05,122.55,237.69z"/>
			<path class="st0" d="M166.73,254.44l-0.05-20.09l-9.86,16.55h-3.49l-9.81-16.12v19.67h-7.27v-33.49h6.41l12.54,20.81l12.35-20.81
				h6.36l0.09,33.49H166.73z"/>
		</g>
		<path class="st1" d="M27.93,295.04c-3.95,0-5.93-1.71-5.93-5.13c0-1.57,0.47-2.86,1.4-3.86c1.05-1.12,2.54-1.68,4.46-1.68
			c1.74,0,3.27,0.25,4.62,0.77v7.61h2.16v2.3H27.93z M25.74,282.97c-0.41,0-0.76-0.15-1.04-0.44c-0.28-0.29-0.42-0.64-0.42-1.06
			c0-0.42,0.14-0.77,0.42-1.07c0.29-0.3,0.63-0.44,1.04-0.44c0.41,0,0.77,0.15,1.06,0.44c0.28,0.29,0.42,0.64,0.42,1.07
			c0,0.41-0.14,0.76-0.42,1.06C26.51,282.82,26.15,282.97,25.74,282.97 M29.66,287.06c-0.56-0.27-1.26-0.4-2.11-0.4
			c-0.81,0-1.46,0.28-1.93,0.84c-0.47,0.55-0.7,1.26-0.7,2.14c0,2.07,1.11,3.1,3.33,3.1h1.41V287.06z M29.41,282.97
			c-0.41,0-0.76-0.15-1.04-0.44c-0.28-0.29-0.42-0.64-0.42-1.06c0-0.42,0.14-0.77,0.42-1.07c0.29-0.3,0.63-0.44,1.04-0.44
			c0.41,0,0.76,0.15,1.04,0.44c0.28,0.29,0.42,0.64,0.42,1.07c0,0.41-0.14,0.76-0.42,1.06C30.16,282.82,29.82,282.97,29.41,282.97
			 M34.32,292.74h3.1v-8.09h2.91v10.4h-6.01V292.74z M38.88,282.78c-0.42,0-0.78-0.14-1.08-0.43c-0.3-0.3-0.44-0.66-0.44-1.09
			c0-0.42,0.15-0.78,0.44-1.08c0.3-0.3,0.66-0.44,1.08-0.44c0.42,0,0.78,0.15,1.08,0.44c0.29,0.3,0.44,0.66,0.44,1.08
			c0,0.42-0.15,0.78-0.44,1.08C39.66,282.64,39.3,282.78,38.88,282.78 M43.85,279.45h2.91v13.29h2.21v2.3h-5.13V279.45z
			 M48.65,292.74h1.1c0.73,0,1.24-0.19,1.53-0.56c0.31-0.4,0.47-1.12,0.47-2.18v-4.02h2.91v4.09c0,1.07,0.09,1.79,0.27,2.17
			c0.21,0.46,0.62,0.68,1.25,0.68c1.18,0,1.77-0.94,1.77-2.83v-5h2.81v5.55c0,0.86,0.18,1.43,0.54,1.71c0.35,0.27,1.04,0.4,2.07,0.4
			h0.57c0.11-0.83,0.16-1.71,0.16-2.66c0-2.04-0.22-4.01-0.65-5.93l2.85-0.39c0.47,1.98,0.71,4.02,0.71,6.12
			c0,1.86-0.11,3.58-0.33,5.15h-3.65c-1.2,0-2.09-0.1-2.68-0.3c-0.62-0.22-1.1-0.63-1.41-1.22c-0.52,1.13-1.64,1.69-3.33,1.69
			c-1.58,0-2.56-0.57-2.94-1.72c-0.45,1.03-1.44,1.54-2.95,1.54h-1.08V292.74z M68.28,300.65c-0.65,0-1.27-0.07-1.86-0.21l0.22-2.32
			c0.61,0.17,1.21,0.26,1.79,0.26c0.8,0,1.38-0.21,1.76-0.65c0.42-0.49,0.64-1.3,0.64-2.44v-10.64h2.92v8.09h2.17v2.3h-2.17v0.09
			C73.75,298.81,71.93,300.65,68.28,300.65 M75.58,292.74h8.56c0.07-0.59,0.11-1.15,0.11-1.68c0-1.44-0.32-2.5-0.97-3.18
			c-0.69-0.71-1.81-1.07-3.37-1.07c-0.82,0-1.67,0.06-2.54,0.18v-2.28c1.04-0.14,1.98-0.21,2.83-0.21c2.44,0,4.22,0.54,5.33,1.63
			c1.07,1.04,1.61,2.64,1.61,4.8c0,0.63-0.03,1.22-0.09,1.79h1.73v2.3h-13.2V292.74z M80.81,282.78c-0.42,0-0.77-0.14-1.07-0.43
			c-0.3-0.3-0.45-0.66-0.45-1.09c0-0.42,0.15-0.78,0.45-1.08c0.29-0.3,0.65-0.44,1.07-0.44c0.43,0,0.78,0.15,1.08,0.44
			c0.3,0.3,0.45,0.66,0.45,1.08c0,0.42-0.15,0.78-0.45,1.08C81.59,282.64,81.24,282.78,80.81,282.78 M88.44,292.74h2.74v-13.29h2.91
			v15.59h-5.66V292.74z M97.86,279.45h2.91v15.59h-2.91V279.45z M113.68,302.11c-2.1,0-3.71-0.41-4.82-1.24
			c-1.04-0.78-1.55-1.86-1.55-3.24c0-1.47,0.57-2.63,1.7-3.49c1.24-0.93,3.06-1.4,5.47-1.4h1.25c0.08-0.59,0.12-1.15,0.12-1.68
			c0-1.44-0.33-2.5-0.98-3.18c-0.69-0.71-1.8-1.07-3.36-1.07c-0.82,0-1.67,0.06-2.54,0.18v-2.28c1.03-0.14,1.97-0.21,2.83-0.21
			c2.44,0,4.22,0.54,5.33,1.63c1.07,1.04,1.61,2.64,1.61,4.8c0,1.22-0.13,2.59-0.38,4.09h-3.98c-2.78,0-4.18,0.79-4.18,2.38
			c0,0.71,0.3,1.28,0.89,1.7c0.65,0.46,1.61,0.69,2.87,0.69c1.15,0,2.41-0.13,3.79-0.39l0.19,2.25
			C116.4,301.96,114.98,302.11,113.68,302.11 M125.58,291.07h-2.96l-3.16-11.38l2.89-0.4L125.58,291.07z M120.36,295.04v-2.3h6.83
			v-13.29h2.91v13.29h2.19v2.3H120.36z M131.98,292.74h2.96v-8.09h2.93v0.56c0,1.24-0.09,2.33-0.27,3.27h0.04
			c0.48-1.3,1.24-2.32,2.3-3.07c0.99-0.7,2.09-1.05,3.29-1.05c1.52,0,2.68,0.45,3.49,1.34c0.79,0.87,1.19,2.1,1.19,3.68
			c0,1.71-0.51,3.05-1.54,4.02c-1.15,1.09-2.89,1.64-5.22,1.64h-9.16V292.74z M141.39,292.74c2.33,0,3.5-1.06,3.5-3.18
			c0-1.92-0.75-2.87-2.26-2.87c-1.15,0-2.2,0.62-3.13,1.86c-0.89,1.17-1.45,2.57-1.68,4.2H141.39z M150.74,279.45h2.91v15.59h-2.91
			V279.45z M158.96,300.61c-1.11,0-2.23-0.1-3.37-0.29l0.18-2.39c1.15,0.25,2.3,0.38,3.44,0.38c2.55,0,3.83-0.98,3.83-2.94v-0.33
			h-1.73c-3.95,0-5.93-1.71-5.93-5.13c0-1.57,0.47-2.86,1.4-3.86c1.05-1.12,2.54-1.68,4.46-1.68c1.74,0,3.27,0.25,4.62,0.77v9.95
			c0,1.64-0.54,2.94-1.61,3.91C163.08,300.06,161.31,300.61,158.96,300.61 M163.05,287.06c-0.56-0.27-1.26-0.4-2.1-0.4
			c-0.81,0-1.46,0.28-1.93,0.84c-0.47,0.55-0.7,1.26-0.7,2.14c0,2.07,1.11,3.1,3.32,3.1h1.41V287.06z M181.05,295.04
			c-2.89,0-4.99-0.59-6.31-1.76c-1.2-1.06-1.8-2.65-1.8-4.78c0-1.27,0.19-2.43,0.57-3.48l3.12-0.51c-0.5,1.1-0.76,2.32-0.76,3.65
			c0,1.61,0.4,2.76,1.2,3.46c0.84,0.75,2.27,1.12,4.29,1.12h1.51v-7.96c1.37-0.28,2.85-0.42,4.44-0.42c1.86,0,3.19,0.44,4.02,1.31
			c0.73,0.78,1.09,1.97,1.09,3.57v3.14h-2.83v-2.83c0-1.06-0.18-1.81-0.54-2.25c-0.36-0.43-1-0.65-1.91-0.65
			c-0.49,0-0.98,0.04-1.46,0.13v8.25H181.05z M180.15,298.35c0,0.41-0.15,0.77-0.43,1.06c-0.29,0.3-0.64,0.44-1.06,0.44
			c-0.4,0-0.75-0.14-1.04-0.43c-0.28-0.29-0.42-0.64-0.42-1.07c0-0.41,0.14-0.77,0.42-1.06c0.29-0.3,0.63-0.44,1.04-0.44
			c0.43,0,0.78,0.15,1.06,0.43C180,297.57,180.15,297.93,180.15,298.35 M183.79,298.35c0,0.41-0.14,0.76-0.43,1.06
			c-0.28,0.3-0.63,0.44-1.04,0.44c-0.4,0-0.75-0.14-1.04-0.43c-0.28-0.29-0.42-0.64-0.42-1.07c0-0.41,0.14-0.77,0.42-1.06
			c0.29-0.3,0.63-0.44,1.04-0.44c0.41,0,0.76,0.15,1.04,0.43C183.65,297.57,183.79,297.93,183.79,298.35 M194.87,300.65
			c-0.65,0-1.27-0.07-1.86-0.21l0.22-2.32c0.61,0.17,1.21,0.26,1.79,0.26c0.8,0,1.39-0.21,1.76-0.65c0.43-0.49,0.64-1.3,0.64-2.44
			v-10.64h2.91v10.48C200.33,298.81,198.51,300.65,194.87,300.65 M203.84,279.45h2.91v15.59h-2.91V279.45z M208.81,300.65
			c-0.65,0-1.27-0.07-1.86-0.21l0.22-2.32c0.61,0.17,1.21,0.26,1.79,0.26c0.8,0,1.39-0.21,1.76-0.65c0.42-0.49,0.64-1.3,0.64-2.44
			v-10.64h2.91v8.09h2.17v2.3h-2.17v0.09C214.27,298.81,212.45,300.65,208.81,300.65 M216.1,292.74h8.56
			c0.07-0.59,0.11-1.15,0.11-1.68c0-1.44-0.32-2.5-0.97-3.18c-0.69-0.71-1.81-1.07-3.37-1.07c-0.82,0-1.67,0.06-2.54,0.18v-2.28
			c1.04-0.14,1.98-0.21,2.83-0.21c2.44,0,4.22,0.54,5.33,1.63c1.07,1.04,1.61,2.64,1.61,4.8c0,0.63-0.03,1.22-0.09,1.79h1.73v2.3
			h-13.2V292.74z M228.96,292.74h2.74v-13.29h2.92v15.59h-5.66V292.74z M238.38,279.45h2.91v15.59h-2.91V279.45z M246.6,300.61
			c-1.11,0-2.23-0.1-3.37-0.29l0.18-2.39c1.15,0.25,2.3,0.38,3.45,0.38c2.55,0,3.83-0.98,3.83-2.94v-0.33h-1.73
			c-3.95,0-5.93-1.71-5.93-5.13c0-1.57,0.47-2.86,1.41-3.86c1.05-1.12,2.54-1.68,4.46-1.68c1.73,0,3.27,0.25,4.62,0.77v9.95
			c0,1.64-0.54,2.94-1.61,3.91C250.72,300.06,248.95,300.61,246.6,300.61 M250.69,287.06c-0.56-0.27-1.26-0.4-2.1-0.4
			c-0.81,0-1.46,0.28-1.93,0.84c-0.47,0.55-0.7,1.26-0.7,2.14c0,2.07,1.11,3.1,3.32,3.1h1.41V287.06z M277.22,295.04v-5.48
			c0-1.06-0.18-1.81-0.54-2.25c-0.36-0.43-1-0.65-1.91-0.65c-0.49,0-0.97,0.04-1.46,0.13v8.25h-4.62c-2.89,0-4.99-0.59-6.31-1.76
			c-1.2-1.06-1.8-2.65-1.8-4.78c0-1.27,0.19-2.43,0.57-3.48l3.12-0.51c-0.5,1.1-0.76,2.32-0.76,3.65c0,1.61,0.4,2.76,1.2,3.46
			c0.84,0.75,2.27,1.12,4.28,1.12h1.51v-7.96c1.37-0.28,2.85-0.42,4.44-0.42c1.86,0,3.2,0.44,4.02,1.31
			c0.73,0.78,1.09,1.97,1.09,3.57v3.5h4.33v-8.09h2.91v10.4H277.22z M267.78,298.35c0,0.41-0.14,0.77-0.43,1.06
			c-0.29,0.3-0.64,0.44-1.06,0.44c-0.4,0-0.75-0.14-1.04-0.43c-0.28-0.29-0.42-0.64-0.42-1.07c0-0.41,0.14-0.77,0.42-1.06
			c0.29-0.3,0.63-0.44,1.04-0.44c0.42,0,0.78,0.15,1.06,0.43C267.64,297.57,267.78,297.93,267.78,298.35 M271.43,298.35
			c0,0.41-0.14,0.76-0.43,1.06c-0.28,0.3-0.63,0.44-1.04,0.44c-0.4,0-0.75-0.14-1.04-0.43c-0.28-0.29-0.42-0.64-0.42-1.07
			c0-0.41,0.14-0.77,0.42-1.06c0.29-0.3,0.63-0.44,1.04-0.44c0.41,0,0.76,0.15,1.04,0.43C271.29,297.57,271.43,297.93,271.43,298.35
			 M282.54,281.24c0.55,0,0.96,0.03,1.23,0.09c-0.27-0.14-0.41-0.42-0.41-0.86c0-0.69,0.24-1.26,0.72-1.69
			c0.57-0.52,1.39-0.78,2.47-0.78c0.36,0,0.8,0.04,1.31,0.11l-0.26,1.66c-0.37-0.07-0.74-0.11-1.11-0.11c-0.7,0-1.06,0.25-1.06,0.75
			c0,0.56,0.51,0.84,1.52,0.84h1.26v1.66h-5.68V281.24z M290.86,279.45h2.91v13.29h2.21v2.3h-5.13V279.45z M304.03,295.04
			c-2.38,0-4.03-0.58-4.95-1.73c-0.45,1.15-1.61,1.73-3.51,1.73h-0.33v-2.3c0.86,0,1.5-0.21,1.91-0.64
			c0.45-0.47,0.68-1.26,0.68-2.37c0-1.5,0.48-2.74,1.43-3.74c1.05-1.08,2.49-1.63,4.32-1.63c3.33,0,5,1.7,5,5.08v3.29h3.88v-13.29
			h2.92v15.59H304.03z M305.71,289.8c0-2.1-0.79-3.14-2.36-3.14c-0.81,0-1.46,0.28-1.94,0.84c-0.46,0.55-0.69,1.26-0.69,2.14
			c0,2.07,1.1,3.1,3.31,3.1h1.69V289.8z M319.16,279.45h2.91v15.59h-2.91V279.45z M338.02,279.45h2.91v13.9
			c0,4.51-1.98,6.77-5.93,6.77c-3.8,0-5.7-2.1-5.7-6.28c0-1.35,0.18-2.67,0.53-3.95l3.01-0.55c-0.42,1.47-0.63,2.88-0.63,4.24
			c0,2.84,1.01,4.26,3.03,4.26c1.84,0,2.76-1.42,2.76-4.26V279.45z M342.85,300.65c-0.65,0-1.27-0.07-1.86-0.21l0.22-2.32
			c0.61,0.17,1.21,0.26,1.79,0.26c0.8,0,1.38-0.21,1.76-0.65c0.43-0.49,0.64-1.3,0.64-2.44v-10.64h2.91v8.09h2.17v2.3h-2.17v0.09
			C348.32,298.81,346.5,300.65,342.85,300.65 M346.84,282.78c-0.43,0-0.79-0.14-1.08-0.43c-0.3-0.3-0.45-0.66-0.45-1.09
			c0-0.42,0.15-0.78,0.45-1.08c0.29-0.3,0.65-0.44,1.08-0.44c0.41,0,0.78,0.15,1.08,0.44c0.3,0.3,0.44,0.66,0.44,1.08
			c0,0.42-0.15,0.78-0.44,1.08C347.61,282.64,347.25,282.78,346.84,282.78 M350.15,292.74h0.78c2.04,0,3.75-0.23,5.15-0.68
			c-1.97-1.84-3.51-2.92-4.64-3.23l0.24-2.08c2.27-1.63,4.4-2.45,6.39-2.45c1.56,0,2.75,0.36,3.58,1.09
			c0.73,0.65,1.09,1.49,1.09,2.54c0,1.57-0.75,2.98-2.26,4.24c0.79,0.38,1.61,0.57,2.46,0.57h1.46v2.3h-1.79
			c-1.66,0-3.18-0.46-4.55-1.37c-2.05,0.91-4.48,1.37-7.3,1.37h-0.59V292.74z M354.37,287.76c0.58,0.23,1.94,1.25,4.09,3.05
			c0.91-0.72,1.37-1.56,1.37-2.53c0-0.55-0.18-0.99-0.52-1.32c-0.37-0.36-0.9-0.54-1.59-0.54
			C356.81,286.43,355.69,286.87,354.37,287.76 M364.05,292.74h2.74v-13.29h2.91v13.29h2.21v2.3h-7.87V292.74z M371.59,292.74h2.74
			v-13.29h2.91v15.59h-5.66V292.74z"/>
		<g>
			<path class="st0" d="M22.11,311.46h1.61l2.79,10.17h0.03l3.01-10.17h1.62l2.99,10.17h0.03l2.84-10.17h1.52l-3.6,12.25h-1.58
				l-3.03-10.38h-0.03l-3.05,10.38h-1.59L22.11,311.46z"/>
			<path class="st0" d="M38.79,323.71l5.4-12.25h1.37l5.21,12.25h-1.69l-1.25-3.01h-6.12l-1.26,3.01H38.79z M47.26,319.35
				l-2.42-6.02h-0.03l-2.54,6.02H47.26z"/>
			<path class="st0" d="M51.07,311.46h9.55v1.35h-4.05v10.9h-1.45v-10.9h-4.05V311.46z"/>
			<path class="st0" d="M62.34,311.46h7.7v1.35h-6.25v3.84h5.83V318h-5.83v4.36h6.56v1.35h-8.01V311.46z"/>
			<path class="st0" d="M72.61,323.71v-12.25h3.34c3.46,0,4.67,1.21,4.67,3.36c0,1.73-1.06,2.92-3.06,3.25l3.48,5.64h-1.78
				l-3.32-5.5h-1.87v5.5H72.61z M75.8,316.86c2.65,0,3.27-0.85,3.27-2.02c0-1.38-0.92-2.03-2.87-2.03h-2.13v4.05H75.8z"/>
			<path class="st0" d="M83.2,323.71v-12.25h3.72c2.61,0,4.2,1.16,4.2,3.36c0,2.23-1.68,3.39-3.94,3.39h-2.53v5.5H83.2z
				 M84.65,316.86h2.53c1.47,0,2.39-0.76,2.39-2.02c0-1.26-0.9-2.03-2.39-2.03h-2.53V316.86z"/>
			<path class="st0" d="M93.47,323.71v-12.25h3.34c3.46,0,4.67,1.21,4.67,3.36c0,1.73-1.06,2.92-3.06,3.25l3.48,5.64h-1.78
				l-3.32-5.5h-1.87v5.5H93.47z M96.65,316.86c2.65,0,3.27-0.85,3.27-2.02c0-1.38-0.92-2.03-2.87-2.03h-2.13v4.05H96.65z"/>
			<path class="st0" d="M116.14,317.58c0,3.67-2.68,6.43-6.4,6.43s-6.4-2.75-6.4-6.43c0-3.69,2.66-6.44,6.4-6.44
				C113.5,311.15,116.14,313.93,116.14,317.58z M109.74,322.67c2.8,0,4.84-2.21,4.84-5.08c0-2.86-2.02-5.09-4.86-5.09
				c-2.79,0-4.83,2.23-4.83,5.09C104.9,320.42,106.89,322.67,109.74,322.67z"/>
			<path class="st0" d="M130.59,317.58c0,3.67-2.68,6.43-6.4,6.43c-3.72,0-6.4-2.75-6.4-6.43c0-3.69,2.66-6.44,6.4-6.44
				C127.94,311.15,130.59,313.93,130.59,317.58z M124.19,322.67c2.8,0,4.84-2.21,4.84-5.08c0-2.86-2.03-5.09-4.86-5.09
				c-2.79,0-4.83,2.23-4.83,5.09C119.34,320.42,121.34,322.67,124.19,322.67z"/>
			<path class="st0" d="M132.94,311.46h7.6v1.35h-6.14v4.05h5.71v1.35h-5.71v5.5h-1.45V311.46z"/>
			<path class="st0" d="M144.03,323.71h-1.46v-12.25h1.46V323.71z"/>
			<path class="st0" d="M147.08,323.71v-12.25h1.83l7.1,10.17h0.03v-10.17h1.45v12.25h-1.83l-7.09-10.18h-0.03v10.18H147.08z"/>
			<path class="st0" d="M170.76,312.76l-1.09,1.14c-0.85-0.9-2.08-1.4-3.34-1.4c-2.82,0-4.93,2.16-4.93,5.09
				c0,2.94,2.09,5.08,5.07,5.08c1.04,0,2.2-0.29,3.05-0.71v-3.75h-2.82v-1.35h4.27v6.02c-1.43,0.78-2.99,1.14-4.58,1.14
				c-3.8,0-6.54-2.63-6.54-6.43c0-3.72,2.79-6.44,6.59-6.44C168.26,311.15,169.71,311.7,170.76,312.76z"/>
			<path class="st0" d="M177.43,323.71l5.4-12.25h1.37l5.21,12.25h-1.69l-1.25-3.01h-6.12l-1.26,3.01H177.43z M185.91,319.35
				l-2.42-6.02h-0.03l-2.54,6.02H185.91z"/>
			<path class="st0" d="M191.04,323.71v-12.25h1.83l7.1,10.17H200v-10.17h1.45v12.25h-1.83l-7.09-10.18h-0.03v10.18H191.04z"/>
			<path class="st0" d="M215,317.58c0,3.94-2.89,6.12-6.11,6.12h-4.6v-12.25h4.57C212.22,311.46,215,313.73,215,317.58z
				 M213.45,317.58c0-3.1-1.89-4.78-4.93-4.78h-2.77v9.55h2.77C211.58,322.36,213.45,320.7,213.45,317.58z"/>
			<path class="st0" d="M232.01,313.07l-1.26,0.92c-0.74-0.99-1.89-1.49-3.06-1.49c-2.7,0-4.67,2.37-4.67,5.09
				c0,2.82,1.9,5.08,4.67,5.08c1.49,0,2.66-0.59,3.54-1.71l1.09,0.92c-1.11,1.47-2.68,2.14-4.64,2.14c-3.62,0-6.23-2.82-6.23-6.43
				s2.61-6.44,6.23-6.44C229.56,311.15,231.11,311.87,232.01,313.07z"/>
			<path class="st0" d="M246.46,317.58c0,3.67-2.68,6.43-6.4,6.43s-6.4-2.75-6.4-6.43c0-3.69,2.66-6.44,6.4-6.44
				C243.81,311.15,246.46,313.93,246.46,317.58z M240.05,322.67c2.8,0,4.84-2.21,4.84-5.08c0-2.86-2.03-5.09-4.86-5.09
				c-2.79,0-4.83,2.23-4.83,5.09C235.21,320.42,237.2,322.67,240.05,322.67z"/>
			<path class="st0" d="M248.81,323.71v-12.25h1.83l7.09,10.17h0.04v-10.17h1.45v12.25h-1.83l-7.09-10.18h-0.04v10.18H248.81z"/>
			<path class="st0" d="M272.13,313.07l-1.26,0.92c-0.74-0.99-1.89-1.49-3.06-1.49c-2.7,0-4.67,2.37-4.67,5.09
				c0,2.82,1.9,5.08,4.67,5.08c1.49,0,2.66-0.59,3.55-1.71l1.09,0.92c-1.11,1.47-2.68,2.14-4.64,2.14c-3.62,0-6.23-2.82-6.23-6.43
				s2.61-6.44,6.23-6.44C269.67,311.15,271.23,311.87,272.13,313.07z"/>
			<path class="st0" d="M274.48,323.71v-12.25h3.34c3.46,0,4.67,1.21,4.67,3.36c0,1.73-1.06,2.92-3.06,3.25l3.48,5.64h-1.78
				l-3.32-5.5h-1.87v5.5H274.48z M277.66,316.86c2.65,0,3.27-0.85,3.27-2.02c0-1.38-0.92-2.03-2.87-2.03h-2.13v4.05H277.66z"/>
			<path class="st0" d="M285.06,311.46h7.7v1.35h-6.25v3.84h5.83V318h-5.83v4.36h6.56v1.35h-8.01V311.46z"/>
			<path class="st0" d="M294,311.46h9.55v1.35h-4.05v10.9h-1.45v-10.9H294V311.46z"/>
			<path class="st0" d="M305.28,311.46h7.7v1.35h-6.25v3.84h5.83V318h-5.83v4.36h6.56v1.35h-8.01V311.46z"/>
			<path class="st0" d="M320.36,323.71v-12.25h3.34c3.46,0,4.67,1.21,4.67,3.36c0,1.73-1.06,2.92-3.06,3.25l3.48,5.64H327l-3.32-5.5
				h-1.87v5.5H320.36z M323.54,316.86c2.65,0,3.27-0.85,3.27-2.02c0-1.38-0.92-2.03-2.87-2.03h-2.13v4.05H323.54z"/>
			<path class="st0" d="M330.94,311.46h7.7v1.35h-6.25v3.84h5.83V318h-5.83v4.36h6.56v1.35h-8.01V311.46z"/>
			<path class="st0" d="M341.21,323.71v-12.25h3.72c2.61,0,4.2,1.16,4.2,3.36c0,2.23-1.68,3.39-3.94,3.39h-2.53v5.5H341.21z
				 M342.67,316.86h2.53c1.47,0,2.39-0.76,2.39-2.02c0-1.26-0.9-2.03-2.39-2.03h-2.53V316.86z"/>
			<path class="st0" d="M350.07,323.71l5.4-12.25h1.37l5.21,12.25h-1.69l-1.25-3.01h-6.12l-1.26,3.01H350.07z M358.54,319.35
				l-2.42-6.02h-0.03l-2.54,6.02H358.54z"/>
			<path class="st0" d="M365.13,323.71h-1.46v-12.25h1.46V323.71z"/>
			<path class="st0" d="M368.18,323.71v-12.25h3.34c3.46,0,4.67,1.21,4.67,3.36c0,1.73-1.06,2.92-3.06,3.25l3.48,5.64h-1.78
				l-3.32-5.5h-1.87v5.5H368.18z M371.37,316.86c2.65,0,3.27-0.85,3.27-2.02c0-1.38-0.92-2.03-2.87-2.03h-2.13v4.05H371.37z"/>
		</g>
	</g>
	<g>
		<path class="st0" d="M246.82,120.83h0.01c0-8.15-0.03-16.31,0.03-24.46c0.01-1.19-0.39-1.61-1.47-2.07
			c-6.2-2.62-12.4-5.28-18.5-8.14c-5.01-2.34-9.81-5.16-14.84-7.45c-3.77-1.71-7.61-2.65-11.48-2.74
			c12.26,14.2,24.46,27.88,32.09,44.95c9.3,20.8-6.79,46.49-30.92,47.33c-21.25,0.74-37.88-15.49-36.99-36.47
			c0.21-4.9,2.16-9.97,4.27-14.52c5.45-11.78,13.63-21.77,21.94-31.62c2.66-3.16,5.42-6.26,8.41-9.67c-3.06,0.07-6.13,0.68-9.2,1.88
			c-3.86,1.51-7.62,3.31-11.28,5.26c-7.84,4.19-15.61,8.54-24.16,11.15c-1.32,0.4-1.63,0.99-1.63,2.29
			c0.05,14.52-0.05,29.03,0.08,43.55c0.04,4.37,0.26,8.81,1.03,13.1c4.66,25.79,19.02,44.32,42.35,56.1
			c2.56,1.29,4.58,1.22,7.05-0.06c27.47-14.28,42.03-36.78,43.19-67.77C247.04,134.6,246.82,127.71,246.82,120.83"/>
		<path class="st1" d="M246.84,120.83c0-8.15-0.03-16.31,0.03-24.46c0.01-1.19-0.39-1.61-1.47-2.07c-6.2-2.62-12.4-5.28-18.5-8.14
			c-5.01-2.34-9.81-5.16-14.84-7.45c-3.77-1.71-7.61-2.65-11.49-2.74c12.26,14.2,24.47,27.88,32.09,44.95
			c9.3,20.8-6.79,46.49-30.92,47.33c-0.87,0.03-1.74,0.02-2.6,0v41.92c1.47,0.21,2.87-0.1,4.46-0.93
			c27.47-14.28,42.03-36.78,43.18-67.77c0.26-6.87,0.04-13.76,0.04-20.64H246.84z"/>
		<rect x="201.91" y="117.8" class="st1" width="11.22" height="11.22"/>
		<rect x="186.87" y="117.8" class="st1" width="11.22" height="11.22"/>
		<rect x="201.91" y="131.62" class="st1" width="11.22" height="11.22"/>
		<rect x="186.87" y="131.62" class="st1" width="11.22" height="11.22"/>
	</g>
</g>
</svg>
